<svg width="61" height="63" viewBox="0 0 61 63" fill="none" xmlns="http://www.w3.org/2000/svg">
<g opacity="0.7">
<path d="M44.4754 38.3266H37.363L32.1355 27.1C29.2849 28.6969 27.6508 32.3977 24.7538 34.8458C23.2775 36.0889 21.5504 37.1982 19.4056 37.9537C18.4306 38.2884 16.7779 38.7283 16.1558 38.7952C15.8958 38.8239 15.7101 38.8143 15.673 38.7091C15.6451 38.6326 15.7194 38.5752 15.9887 38.4414C16.3043 38.2884 17.6136 37.7242 18.4306 37.1408C19.452 36.4045 20.037 35.6108 20.0834 34.9988C19.8048 33.9756 17.7993 31.7188 19.8513 27.559C20.5848 26.0672 21.2255 24.9962 21.6804 23.9156C22.2004 22.6724 22.5718 20.932 22.7018 19.6315C22.7111 19.555 22.7204 19.555 22.7668 19.6028C23.7603 20.6451 27.6229 24.738 27.0658 28.8117C28.3471 28.3049 30.5756 26.7557 31.6062 25.9333C32.6926 25.0631 33.3982 24.1546 34.5496 24.1355C35.5802 24.1164 35.6638 24.6232 36.4902 24.738C36.6945 24.7667 36.9916 24.7284 37.1494 24.6423C37.2144 24.6137 37.1959 24.5372 37.103 24.518C35.9888 24.2503 35.7195 23.3131 34.271 23.3131C32.9711 23.3131 31.9405 24.5372 31.1977 25.044L27.5486 17.2025C25.998 13.9321 26.4623 11.551 29.8142 6.86523L44.4754 38.3266Z" fill="white"/>
<path d="M58.2734 54.468L55.785 51.4175C57.0942 51.1115 57.8928 50.337 57.8928 48.9886C57.8928 47.4681 56.6393 46.7031 55.0515 46.7031H50.084V54.468H51.4025V51.5323H54.3551L56.63 54.468H58.2734ZM51.4025 47.908H55.0887C55.9986 47.908 56.5371 48.3479 56.5371 49.0842C56.5371 49.8397 55.9707 50.3274 55.0887 50.3274H51.4025V47.908Z" fill="white"/>
<path d="M5.25521 46.7031L1.36475 54.468H2.85965L3.68602 52.7372H8.11502L8.9414 54.468H10.4642L6.57369 46.7031H5.25521ZM4.2617 51.5323L5.89588 48.1184L7.53006 51.5323H4.2617Z" fill="white"/>
<path d="M17.4374 47.7279C18.6816 47.7279 19.703 48.2061 20.2229 49.0572L21.2907 48.3208C20.5479 47.2498 19.2294 46.5039 17.4467 46.5039C14.559 46.5039 12.897 48.4451 12.897 50.5968C12.897 52.7388 14.559 54.68 17.4467 54.68C19.2387 54.68 20.5479 53.9341 21.2907 52.8631L20.2229 52.1172C19.703 52.9587 18.6816 53.4465 17.4374 53.4465C15.4968 53.4465 14.2433 52.3276 14.2433 50.5872C14.2433 48.8468 15.4968 47.7279 17.4374 47.7279Z" fill="white"/>
<path d="M29.4061 47.7279C30.6411 47.7279 31.6717 48.2061 32.1917 49.0572L33.2595 48.3208C32.5167 47.2498 31.1982 46.5039 29.4154 46.5039C26.5278 46.5039 24.8657 48.4451 24.8657 50.5968C24.8657 52.7388 26.5278 54.68 29.4154 54.68C31.1982 54.68 32.5167 53.9341 33.2595 52.8631L32.1917 52.1268C31.6717 52.9683 30.6503 53.456 29.4061 53.456C27.4656 53.456 26.2121 52.3372 26.2121 50.5968C26.2121 48.8563 27.4656 47.7279 29.4061 47.7279Z" fill="white"/>
<path d="M41.3744 46.5039C38.4867 46.5039 36.8247 48.4451 36.8247 50.5968C36.8247 52.7388 38.4867 54.68 41.3744 54.68C44.2621 54.68 45.9241 52.7388 45.9241 50.5968C45.9241 48.4451 44.2714 46.5039 41.3744 46.5039ZM41.3744 53.4656C39.4338 53.4656 38.1803 52.3372 38.1803 50.5872C38.1803 48.8372 39.4338 47.7088 41.3744 47.7088C43.315 47.7088 44.5685 48.8372 44.5685 50.5872C44.5778 52.3372 43.3243 53.4656 41.3744 53.4656Z" fill="white"/>
</g>
</svg>
