<svg width="148" height="38" viewBox="0 0 148 38" fill="none" xmlns="http://www.w3.org/2000/svg">
<g opacity="0.7" clip-path="url(#clip0)">
<path d="M9.38602 18.4883C9.64875 18.2476 9.85624 17.95 9.99352 17.617C10.1308 17.2839 10.1944 16.9237 10.1799 16.5623V16.5093C10.1799 15.6176 9.90249 14.9494 9.34774 14.5047C8.793 14.06 8.0208 13.8371 7.03114 13.8359H3.05029V19.2101H7.10935C8.0979 19.2101 8.85679 18.9695 9.38602 18.4883Z" fill="white"/>
<path d="M28.3003 28.4624V20.9485H20.9111V28.4624H16.9036V9.74524H20.9111V17.1514H28.3003V9.74524H31.4423C29.907 6.86971 27.648 4.47108 24.9016 2.80031C22.1553 1.12954 19.0225 0.248047 15.831 0.248047C12.6396 0.248047 9.50679 1.12954 6.76042 2.80031C4.01405 4.47108 1.75503 6.86971 0.219727 9.74524H7.72041C10.027 9.74524 11.7961 10.3781 13.0276 11.6438C14.0694 12.7134 14.5898 14.1387 14.5887 15.9199V15.9729C14.5887 17.4883 14.2287 18.7227 13.5086 19.6759C12.7785 20.6377 11.7973 21.3662 10.6794 21.7763L15.1296 28.4606H10.4514L6.5488 22.4742H3.40173V28.4606H0.873768C2.48643 31.0315 4.70066 33.1456 7.31383 34.6096C9.927 36.0736 12.8557 36.8407 15.8319 36.8407C18.8081 36.8407 21.7367 36.0736 24.3499 34.6096C26.9631 33.1456 29.1773 31.0315 30.79 28.4606L28.3003 28.4624Z" fill="white"/>
<path d="M147.189 21.5801H40.2793V22.0026H147.189V21.5801Z" fill="white"/>
<path d="M61.0901 6.01277L63.3418 11.6264H58.8584L61.0901 6.01277ZM59.8469 2.13867L53.3564 18.1362H56.3088L57.7949 14.3819H64.4019L65.8648 18.1362H68.902L62.4115 2.13867H59.8469Z" fill="white"/>
<path d="M80.8546 10.214C80.8546 13.2636 78.9042 15.311 76.0051 15.311H73.3207V5.07243H76.0051C78.8592 5.07243 80.8546 7.18651 80.8546 10.214ZM76.0051 2.25195H70.4565V18.1383H76.0051C80.5451 18.1383 83.8403 14.7893 83.8403 10.1729C83.8403 5.55648 80.5451 2.25195 76.0051 2.25195Z" fill="white"/>
<path d="M129.061 10.2127C129.061 13.259 127.038 15.5544 124.356 15.5544C121.673 15.5544 119.611 13.2402 119.611 10.1682C119.611 7.09633 121.633 4.8266 124.316 4.8266C126.999 4.8266 129.061 7.14251 129.061 10.2127ZM124.356 1.98047C119.949 1.98047 116.622 5.51932 116.622 10.2127C116.622 14.8805 119.931 18.4005 124.316 18.4005C128.701 18.4005 132.048 14.8616 132.048 10.1682C132.048 5.47486 128.743 1.98047 124.356 1.98047Z" fill="white"/>
<path d="M49.4991 7.50246C49.4991 9.01618 48.424 9.95691 46.6916 9.95691H43.1418V5.07195H46.6716C48.5023 5.07195 49.5008 5.92716 49.5008 7.50246H49.4991ZM52.4049 7.34852C52.4049 4.20305 50.288 2.24805 46.8796 2.24805H40.2793V18.1344H43.1418V12.7141H46.0692L49.6173 18.1344H53.0023L49.0548 12.1719C51.2183 11.4484 52.4032 9.7414 52.4032 7.34681" fill="white"/>
<path d="M89.0793 2.24805H86.2168V18.1361H89.0793V2.24805Z" fill="white"/>
<path d="M97.8684 8.78401C95.0675 8.06221 94.5682 7.5525 94.5682 6.48007C94.5682 5.46408 95.447 4.78162 96.7567 4.78162C98.0149 4.78162 99.2647 5.29475 100.574 6.34495L100.713 6.45612L102.254 4.11627L102.142 4.01877C100.659 2.70298 98.7573 1.99321 96.7983 2.02442C93.8027 2.02442 91.7041 3.9572 91.7041 6.72466C91.7041 9.69053 93.5131 10.739 96.6352 11.5532C99.318 12.2202 99.7706 12.783 99.7706 13.7887C99.7706 14.9056 98.8536 15.5983 97.3758 15.5983C95.7432 15.5983 94.4135 15.0065 92.9256 13.6211L92.7992 13.5013L91.0684 15.7249L91.1799 15.8309C92.8288 17.4582 95.0265 18.3666 97.3126 18.3658C100.544 18.3658 102.638 16.4672 102.638 13.5304C102.638 11.052 101.258 9.67855 97.8734 8.79256" fill="white"/>
<path d="M110.348 8.78401C107.547 8.06221 107.048 7.5525 107.048 6.48007C107.048 5.46408 107.929 4.78162 109.237 4.78162C110.495 4.78162 111.745 5.29475 113.056 6.34495L113.193 6.45612L114.734 4.11627L114.622 4.01877C113.139 2.70298 111.237 1.99321 109.278 2.02442C106.283 2.02442 104.184 3.9572 104.184 6.72466C104.184 9.69053 105.993 10.739 109.115 11.5532C111.798 12.2202 112.251 12.783 112.251 13.7887C112.251 14.9056 111.334 15.5983 109.856 15.5983C108.225 15.5983 106.895 15.0065 105.406 13.6211L105.279 13.5013L103.548 15.7249L103.66 15.8309C105.309 17.4582 107.506 18.3666 109.793 18.3658C113.026 18.3658 115.118 16.4672 115.118 13.5304C115.118 11.052 113.738 9.67855 110.353 8.79256" fill="white"/>
<path d="M144.366 2.25V12.6613L136.927 2.31671L136.877 2.25H134.281V18.1364H137.102V7.41376L144.771 18.068L144.819 18.1364H147.189V2.25H144.366Z" fill="white"/>
<path d="M147.182 21.5664H40.2856V21.9889H147.182V21.5664Z" fill="white"/>
<path d="M40.2144 25.3613H41.9951V29.6921H46.833V25.3613H48.6137V35.7744H46.833V31.3888H41.9951V35.7744H40.2144V25.3613Z" fill="white"/>
<path d="M59.4097 30.6024V30.5734C59.4097 27.6417 61.6098 25.1855 64.7236 25.1855C67.8373 25.1855 70.0091 27.6109 70.0091 30.5426V30.5734C70.0091 33.505 67.809 35.9612 64.6953 35.9612C61.5815 35.9612 59.4097 33.5341 59.4097 30.6024ZM68.1419 30.6024V30.5734C68.1419 28.5482 66.7073 26.8823 64.6953 26.8823C62.6832 26.8823 61.2769 28.5192 61.2769 30.5426V30.5734C61.2769 32.5968 62.7115 34.2644 64.7236 34.2644C66.7356 34.2644 68.1485 32.6276 68.1485 30.6024H68.1419Z" fill="white"/>
<path d="M83.5228 27.0522H80.2925V25.3555H88.5338V27.0522H85.3051V35.7753H83.5244L83.5228 27.0522Z" fill="white"/>
<path d="M100.683 25.3613H108.198V26.9982H102.465V29.7075H107.548V31.3598H102.465V34.1426H108.271V35.7744H100.683V25.3613Z" fill="white"/>
<path d="M121.582 25.3613H123.364V34.1135H128.69V35.7744H121.579L121.582 25.3613Z" fill="white"/>
<path d="M139.577 34.2639L140.649 32.9537C141.619 33.8089 142.603 34.3084 143.849 34.3084C144.949 34.3084 145.645 33.773 145.645 32.9982V32.9691C145.645 32.2251 145.239 31.8231 143.357 31.3767C141.193 30.8396 139.983 30.1794 139.983 28.2655V28.2364C139.983 26.449 141.431 25.2141 143.443 25.2141C144.782 25.1863 146.086 25.6509 147.121 26.5242L146.166 27.908C145.254 27.2084 144.335 26.8373 143.415 26.8373C142.371 26.8373 141.764 27.388 141.764 28.0722V28.1013C141.764 28.9052 142.227 29.2626 144.182 29.7381C146.326 30.2752 147.426 31.0637 147.426 32.7895V32.8203C147.426 34.7702 145.928 35.9299 143.806 35.9299C142.243 35.9375 140.734 35.3431 139.577 34.2639Z" fill="white"/>
</g>
<defs>
<clipPath id="clip0">
<rect width="147.399" height="36.5961" fill="white" transform="translate(0.0263672 0.621094)"/>
</clipPath>
</defs>
</svg>
