<svg width="118" height="37" viewBox="0 0 118 37" fill="none" xmlns="http://www.w3.org/2000/svg">
<g opacity="0.7" clip-path="url(#clip0)">
<path d="M46.736 36.5243H41.6524C39.5173 36.5243 38.428 36.0468 37.6436 34.9875C36.8013 33.8685 36.8013 32.1526 36.8013 30.5412V0.476562H43.3372V31.5111C43.3372 33.9729 43.5986 35.7186 46.7214 36.4199V36.5243H46.736Z" fill="white"/>
<path d="M33.3742 36.5107H25.197L19.1838 23.2964C15.9013 25.1025 14.0276 29.2728 10.7015 32.0333C9.00215 33.443 7.02682 34.6911 4.55766 35.5428C3.43928 35.9246 1.53657 36.4239 0.824875 36.4972C0.519861 36.5266 0.316519 36.5119 0.272945 36.4092C0.243896 36.3211 0.316519 36.2623 0.636057 36.1008C0.999169 35.9246 2.49519 35.2932 3.43928 34.6324C4.61576 33.7954 5.28388 32.8997 5.34199 32.2096C5.02244 31.0643 2.71306 28.5092 5.06602 23.8251C5.90844 22.1364 6.63466 20.9323 7.15754 19.7135C7.75305 18.3186 8.18878 16.3509 8.33403 14.8825C8.34855 14.7944 8.36307 14.7944 8.40665 14.8532C9.55411 16.0278 13.9986 20.6386 13.3449 25.2347C14.8264 24.662 17.3828 22.9147 18.5593 21.9896C19.8083 21.0057 20.6217 19.9925 21.9435 19.9631C23.12 19.9484 23.2216 20.5211 24.1657 20.6386C24.398 20.668 24.7467 20.6239 24.921 20.5358C24.9936 20.5064 24.9791 20.4183 24.8629 20.3889C23.5847 20.0806 23.2652 19.0233 21.6094 19.0233C20.1279 19.0233 18.9368 20.4036 18.0799 20.9763L13.8823 12.1366C12.1394 8.43627 12.6623 5.74911 16.5258 0.462891L33.3742 36.5107Z" fill="white"/>
<path d="M59.2111 36.5243H54.1275C51.9925 36.5243 50.9031 36.0468 50.1188 34.9875C49.2764 33.8685 49.2764 32.1526 49.2764 30.5413V0.476562H55.8124V31.5111C55.8124 33.9729 56.0738 35.7186 59.1966 36.4199V36.5243H59.2111Z" fill="white"/>
<path d="M67.0423 9.12578H64.6312L64.2971 9.90399H63.0044L65.5898 3.95703H66.0836L68.669 9.90399H67.3763L67.0423 9.12578ZM65.8512 6.13026L65.0814 8.12727H66.6356L65.8512 6.13026Z" fill="white"/>
<path d="M75.2044 4.23631C75.6547 4.50063 76.0178 4.85304 76.2792 5.32292L75.3641 5.96902C74.9429 5.30825 74.3911 4.97051 73.6793 4.97051C73.1274 4.97051 72.6772 5.14672 72.314 5.51382C71.9509 5.88092 71.7766 6.3508 71.7766 6.92348C71.7766 7.49615 71.9509 7.96603 72.314 8.31844C72.6772 8.68554 73.1274 8.86175 73.6793 8.86175C74.3911 8.86175 74.9429 8.52403 75.3641 7.86325L76.2792 8.50934C76.0178 8.97923 75.6691 9.33164 75.2044 9.59597C74.7396 9.8603 74.2312 9.99238 73.6648 9.99238C72.7788 9.99238 72.0381 9.69874 71.4425 9.11138C70.8325 8.52403 70.542 7.78982 70.542 6.90879C70.542 6.04244 70.847 5.30825 71.4571 4.72089C72.0671 4.13353 72.8079 3.83984 73.6793 3.83984C74.2458 3.83984 74.7541 3.972 75.2044 4.23631Z" fill="white"/>
<path d="M83.2366 4.23631C83.6868 4.50063 84.0499 4.85304 84.3113 5.32292L83.3963 5.96902C82.9751 5.30825 82.4232 4.97051 81.7115 4.97051C81.1596 4.97051 80.7093 5.14672 80.3462 5.51382C79.9831 5.88092 79.8088 6.3508 79.8088 6.92348C79.8088 7.49615 79.9831 7.96603 80.3462 8.31844C80.7093 8.68554 81.1596 8.86175 81.7115 8.86175C82.4232 8.86175 82.9751 8.52403 83.3963 7.86325L84.3113 8.50934C84.0499 8.97923 83.7014 9.33164 83.2366 9.59597C82.7717 9.8603 82.2634 9.99238 81.697 9.99238C80.811 9.99238 80.0702 9.69874 79.4747 9.11138C78.8647 8.52403 78.5742 7.78982 78.5742 6.90879C78.5742 6.04244 78.8792 5.30825 79.4892 4.72089C80.0992 4.13353 80.84 3.83984 81.7115 3.83984C82.2779 3.83984 82.7863 3.972 83.2366 4.23631Z" fill="white"/>
<path d="M91.9659 4.7365C92.5756 5.32386 92.8805 6.05806 92.8805 6.9244C92.8805 7.79076 92.5756 8.52496 91.9659 9.127C91.3553 9.71435 90.6149 10.008 89.7434 10.008C88.8719 10.008 88.1312 9.71435 87.5357 9.127C86.9256 8.53964 86.6206 7.80545 86.6206 6.9244C86.6206 6.05806 86.9256 5.32386 87.5357 4.7365C88.1456 4.14914 88.8864 3.85547 89.7434 3.85547C90.6003 3.85547 91.3409 4.13446 91.9659 4.7365ZM88.3926 5.51475C88.0295 5.88185 87.8552 6.35173 87.8552 6.9244C87.8552 7.49709 88.0295 7.96697 88.3926 8.33407C88.7412 8.70117 89.206 8.87737 89.7579 8.87737C90.2953 8.87737 90.7457 8.70117 91.1084 8.33407C91.472 7.96697 91.6457 7.49709 91.6457 6.9244C91.6457 6.35173 91.472 5.88185 91.1084 5.51475C90.7457 5.14765 90.2953 4.97145 89.7579 4.97145C89.206 4.97145 88.7557 5.14765 88.3926 5.51475Z" fill="white"/>
<path d="M99.3147 9.90399L97.7896 7.80422H96.904V9.90399H95.6982V3.95703H97.9063C98.5305 3.95703 99.0388 4.13324 99.4314 4.48565C99.8231 4.83806 100.027 5.30795 100.027 5.88063C100.027 6.26241 99.9398 6.60014 99.7507 6.87913C99.5617 7.17281 99.3147 7.39307 98.9954 7.5546L100.666 9.90399H99.3147ZM96.904 6.73229H97.9063C98.1822 6.73229 98.4002 6.65888 98.5594 6.49735C98.7195 6.33583 98.7919 6.13026 98.7919 5.88063C98.7919 5.631 98.7051 5.42542 98.5449 5.2639C98.3857 5.10238 98.1677 5.02896 97.8918 5.02896H96.8896V6.73229H96.904Z" fill="white"/>
<path d="M64.2241 21.8125H66.795V22.9139H63.0186V16.9668H64.2241V21.8125Z" fill="white"/>
<path d="M70.499 22.9139H69.2935V16.9668H70.499V22.9139Z" fill="white"/>
<path d="M78.6031 16.9531L76.0323 22.9001H75.5384L72.9531 16.9531H74.3184L75.7854 20.5654L77.2523 16.9531H78.6031Z" fill="white"/>
<path d="M85.0237 18.0534H82.2641V19.2575H84.283V20.3001H82.2641V21.8125H85.1254V22.9139H81.0586V16.9668H85.0237V18.0534Z" fill="white"/>
<path d="M64.2241 35.1953H66.795V36.2966H63.0186V30.3496H64.2241V35.1953Z" fill="white"/>
<path d="M70.4985 36.2966H69.293V30.3496H70.4985V36.2966Z" fill="white"/>
<path d="M79.3439 30.334V36.2957H78.1383V33.1092L76.6568 34.9887H76.2647L74.7832 33.1092V36.2957H73.5776V30.334H74.0424L76.4535 33.4616L78.8645 30.334H79.3439Z" fill="white"/>
<path d="M83.643 36.2966H82.4375V30.3496H83.643V36.2966Z" fill="white"/>
<path d="M91.0649 31.4363H89.1767V36.282H87.9712V31.4363H86.083V30.3496H91.0649V31.4363Z" fill="white"/>
<path d="M94.7396 35.1953H97.3104V36.2966H93.5347V30.3496H94.7396V35.1953Z" fill="white"/>
<path d="M103.774 31.4363H101.014V32.6403H103.033V33.6829H101.014V35.1953H103.876V36.2966H99.8086V30.3496H103.774V31.4363Z" fill="white"/>
<path d="M109.54 30.5408C109.874 30.7464 110.121 31.0254 110.31 31.3632L109.497 32.0092C109.192 31.554 108.814 31.3191 108.378 31.3191C108.175 31.3191 108.001 31.3632 107.855 31.4659C107.71 31.5687 107.652 31.7009 107.652 31.8918C107.652 32.0533 107.71 32.1708 107.812 32.2589C107.914 32.347 108.088 32.4497 108.349 32.5672L109.017 32.8609C109.511 33.0812 109.874 33.3307 110.121 33.5951C110.353 33.8594 110.485 34.1971 110.485 34.5936C110.485 35.1369 110.296 35.5627 109.903 35.8858C109.511 36.2088 109.017 36.3704 108.422 36.3704C107.928 36.3704 107.478 36.2529 107.085 36.0179C106.694 35.783 106.374 35.46 106.156 35.0635L106.984 34.4321C107.391 35.0048 107.87 35.2984 108.422 35.2984C108.684 35.2984 108.886 35.2397 109.032 35.1222C109.178 35.0048 109.25 34.8432 109.25 34.6376C109.25 34.5202 109.221 34.4174 109.148 34.3146C109.075 34.2265 109.003 34.1531 108.916 34.1091C108.828 34.065 108.698 33.9916 108.495 33.9034L107.855 33.6098C107.391 33.4042 107.042 33.1546 106.795 32.8902C106.548 32.626 106.432 32.2883 106.432 31.8918C106.432 31.3925 106.621 30.9814 106.984 30.673C107.347 30.3646 107.826 30.2031 108.378 30.2031C108.828 30.2324 109.221 30.3353 109.54 30.5408Z" fill="white"/>
<path d="M116.12 30.5408C116.454 30.7464 116.701 31.0254 116.89 31.3632L116.076 32.0092C115.771 31.554 115.393 31.3191 114.957 31.3191C114.754 31.3191 114.58 31.3632 114.435 31.4659C114.29 31.5687 114.231 31.7009 114.231 31.8918C114.231 32.0533 114.29 32.1708 114.391 32.2589C114.493 32.347 114.667 32.4497 114.929 32.5672L115.597 32.8609C116.091 33.0812 116.454 33.3307 116.701 33.5951C116.933 33.8594 117.064 34.1971 117.064 34.5936C117.064 35.1369 116.875 35.5627 116.483 35.8858C116.091 36.2088 115.597 36.3704 115.001 36.3704C114.508 36.3704 114.057 36.2529 113.665 36.0179C113.273 35.783 112.953 35.46 112.736 35.0635L113.564 34.4321C113.97 35.0048 114.449 35.2984 115.001 35.2984C115.262 35.2984 115.466 35.2397 115.611 35.1222C115.756 35.0048 115.829 34.8432 115.829 34.6376C115.829 34.5202 115.801 34.4174 115.727 34.3146C115.655 34.2265 115.583 34.1531 115.495 34.1091C115.408 34.065 115.278 33.9916 115.074 33.9034L114.435 33.6098C113.97 33.4042 113.621 33.1546 113.374 32.8902C113.128 32.626 113.012 32.2883 113.012 31.8918C113.012 31.3925 113.2 30.9814 113.564 30.673C113.926 30.3646 114.406 30.2031 114.957 30.2031C115.393 30.2324 115.786 30.3353 116.12 30.5408Z" fill="white"/>
</g>
<defs>
<clipPath id="clip0">
<rect width="117.595" height="36.0625" fill="white" transform="translate(0.26709 0.462891)"/>
</clipPath>
</defs>
</svg>
