<svg width="28" height="29" viewBox="0 0 28 29" fill="none" xmlns="http://www.w3.org/2000/svg">
<path d="M28 0.590332H0V28.5933H28V0.590332Z" fill="#00077B"/>
<path fill-rule="evenodd" clip-rule="evenodd" d="M1.91406 19.5117H8.16481L7.31053 21.0117H5.66988V25.9568H4.10491V21.0117H1.91406V19.5117Z" fill="white"/>
<path fill-rule="evenodd" clip-rule="evenodd" d="M16.8243 21.0117C16.6467 21.0117 16.5199 21.1232 16.5199 21.3114V24.1657C16.5199 24.3543 16.6467 24.457 16.8243 24.457H20.0636V25.9568H16.8243C15.6907 25.9568 14.9551 25.2629 14.9551 24.1657V21.3114C14.9551 20.2232 15.6907 19.5117 16.8243 19.5117H20.4527L19.5984 21.0117H16.8243Z" fill="white"/>
<path fill-rule="evenodd" clip-rule="evenodd" d="M12.4302 24.5035H10.1695C9.84697 24.5035 9.61137 24.2647 9.61137 23.9373C9.61137 23.6013 9.84697 23.3622 10.1695 23.3622H12.4302V24.5035ZM12.1341 19.5117H9.20787L8.35301 21.0117H12.1341C12.3203 21.0117 12.4302 21.1232 12.4302 21.3116V21.9973H9.97732C8.85223 21.9973 8.02344 22.8372 8.02344 23.9769C8.02344 25.117 8.85223 25.9568 9.97732 25.9568H13.995V21.3116C13.995 20.2232 13.2592 19.5117 12.1341 19.5117Z" fill="white"/>
<path fill-rule="evenodd" clip-rule="evenodd" d="M22.6308 21.0117C22.4533 21.0117 22.3265 21.1232 22.3265 21.3114V24.1657C22.3265 24.3543 22.4533 24.457 22.6308 24.457H25.8703V25.9568H22.6308C21.4977 25.9568 20.7617 25.2629 20.7617 24.1657V21.3114C20.7617 20.2232 21.4977 19.5117 22.6308 19.5117H26.2597L25.4051 21.0117H22.6308Z" fill="white"/>
</svg>
