<svg width="144" height="19" viewBox="0 0 144 19" fill="none" xmlns="http://www.w3.org/2000/svg">
<path d="M15.7304 14.4645H9.89813L6.3261 8.74769L5.1655 9.91329V14.4645H0.290039V0.081543H5.1655V4.72368L9.34591 0.081543H15.064L9.70269 5.44607L15.7304 14.4645ZM22.2584 9.12865C22.2584 8.471 22.0985 7.87465 21.7784 7.34647C21.4584 6.8183 20.9644 6.55249 20.2896 6.55249C19.6877 6.55249 19.2321 6.81829 18.9259 7.34991C18.6198 7.88483 18.4668 8.47787 18.4668 9.12865C18.4668 9.82725 18.6302 10.4883 18.9573 11.1052C19.2807 11.7253 19.7816 12.0354 20.453 12.0354C21.1001 12.0354 21.5627 11.7355 21.841 11.1324C22.1193 10.5293 22.2584 9.86134 22.2584 9.12865ZM25.6399 12.3692C24.4879 14.0181 22.5133 14.7898 20.471 14.7898C18.3663 14.7898 16.3378 14.0246 15.1615 12.3102C14.0826 10.7373 13.9445 8.17277 14.8534 6.49462C15.5526 5.2031 16.8342 4.26959 18.3037 3.89029C19.9222 3.45666 21.674 3.5504 23.2279 4.16911C24.6811 4.74546 25.7621 5.93129 26.2328 7.34091C26.7468 8.88001 26.5633 11.0472 25.6399 12.3692ZM63.4224 8.07359C63.2699 7.38861 63.019 6.9138 62.673 6.64918C62.3238 6.38065 61.8831 6.24834 61.344 6.24834C60.8218 6.24834 60.4081 6.37686 60.1029 6.63746C59.7978 6.89439 59.5672 7.3731 59.4078 8.07359H63.4224ZM67.5931 10.1049H59.4499C59.4499 10.4287 59.5076 10.7128 59.6228 10.9604C59.9732 11.7135 60.6072 12.2218 61.5149 12.2218C62.1815 12.2218 62.9502 11.9627 63.0936 11.2639H67.2642C67.1059 12.2555 66.4502 13.1304 65.6062 13.7053C64.7547 14.2836 63.7089 14.6057 62.6765 14.7195C61.3523 14.8765 59.8203 14.8338 58.594 14.3396C57.1674 13.7672 56.102 12.7091 55.522 11.3436C54.9891 10.0127 54.9819 8.53645 55.4983 7.19487C56.034 5.80312 57.1368 4.72676 58.5669 4.15597C60.3061 3.46483 62.7411 3.5117 64.4228 4.32107C65.9149 5.03659 66.9326 6.25639 67.3558 7.79595C67.5646 8.57041 67.6439 9.31244 67.5931 10.1049H67.5931ZM79.2745 12.3892C78.4733 13.8635 76.9935 14.7843 75.2098 14.7843C73.9288 14.7843 73.0862 14.3824 72.2204 13.5247V18.0347H67.876V4.01976H71.7228V5.5824C72.5572 3.97751 74.6224 3.39441 76.2887 3.79928C78.104 4.23633 79.3266 5.70963 79.7617 7.36553C80.1687 8.90462 80.0275 11.0143 79.2745 12.3892ZM75.7358 8.98155C75.7358 8.53858 75.5837 8.05501 75.2756 7.53417C74.9676 7.01345 74.5212 6.75309 73.9398 6.75309C73.3619 6.75309 72.9155 6.99652 72.6041 7.48683C72.2925 7.97383 72.1368 8.47088 72.1368 8.98155C72.1368 9.60725 72.2579 10.1922 72.5002 10.7333C72.7458 11.2744 73.2235 11.5449 73.9398 11.5449C74.6389 11.5449 75.1095 11.2642 75.3621 10.7029C75.5908 10.1611 75.7358 9.56866 75.7358 8.98155ZM89.3313 14.3443C87.6432 14.915 85.3487 15.0025 83.668 14.3275C82.6097 13.9025 81.6716 13.1853 81.0791 12.2317C80.5001 11.3158 80.1992 10.2606 80.1992 9.18653C80.1992 8.47112 80.3552 7.76815 80.6172 7.10067C81.2243 5.5998 82.2743 4.7386 83.7902 4.14201C85.5251 3.45915 88.1021 3.48401 89.7493 4.34924C91.3192 5.17387 92.141 6.30953 92.3568 7.98318H87.9113C87.8331 7.46837 87.6826 7.15014 87.4628 6.87865C86.8402 6.10916 85.4308 6.48515 84.981 7.24446C84.4072 8.21336 84.3123 9.64452 84.6752 10.7066C84.9145 11.4066 85.7023 12.0001 86.4675 12.0001C87.5523 12.0001 87.7774 11.295 88.0608 10.4185H92.3568C92.3118 12.171 91.2262 13.7036 89.3313 14.3443ZM100.281 10.3574C100.281 10.163 100.263 10.0034 100.227 9.88181C99.9287 10.0415 99.4633 10.1804 98.8308 10.2984C98.3489 10.3834 97.8366 10.4873 97.4057 10.7151C96.795 11.0066 96.828 11.8425 97.3621 12.1801C97.98 12.5389 99.0164 12.5093 99.536 12.0066C100.03 11.5517 100.281 11.0033 100.281 10.3574H100.281ZM105.115 14.4645H100.668L100.499 13.3582C100.175 13.7626 99.4503 14.0958 98.7188 14.3676C98.3623 14.5002 97.9958 14.605 97.6208 14.6718C97.2457 14.7353 96.847 14.7688 96.4315 14.7688C95.6814 14.7688 94.9954 14.6418 94.3738 14.3877C93.752 14.1336 93.2825 13.7359 92.958 13.2011C92.6675 12.6128 92.5222 12.0177 92.5222 11.4094C92.5222 10.6405 92.8932 10.0065 93.4031 9.43825C93.6938 9.11409 93.9785 8.93196 94.492 8.74154C94.7352 8.65136 94.9758 8.57302 95.2117 8.50757C95.4454 8.44272 95.6668 8.38094 95.8773 8.35041L97.6985 8.08637C98.4714 7.9743 99.2191 7.87761 99.5495 7.77217C99.7528 7.70719 99.9926 7.49512 100.111 7.36138C100.229 7.22777 100.212 7.08729 100.212 6.94362C100.212 6.74634 100.114 6.58255 99.9144 6.44893C99.7151 6.3152 99.4312 6.24834 99.063 6.24834C98.6204 6.24834 98.0701 6.31189 97.8032 6.43887C97.5363 6.56586 97.3639 6.81995 97.2829 7.19759H93.1637C93.3022 6.51237 93.2771 6.11236 93.4784 5.69388C93.6791 5.27671 93.9954 4.91848 94.4278 4.62095C94.8603 4.32355 95.4542 4.0923 96.2152 3.93904C96.5827 3.86508 97.0195 3.81348 97.5161 3.77525C98.0162 3.73667 98.5703 3.71513 99.1851 3.71513C100.682 3.71513 101.803 3.88697 102.55 4.22982C103.296 4.5722 103.783 4.84806 104.01 5.36251C104.236 5.87424 104.388 6.53911 104.459 7.35476V12.8768C104.459 13.4451 104.679 13.8663 105.115 14.1404V14.4645V14.4645ZM117.199 14.4645H112.909V10.5609H109.732V14.4645H105.484L105.48 4.1826L105.484 4.02544H109.732V7.52328H112.861V4.02544H117.199L117.195 14.2774L117.199 14.4645ZM129.119 7.10209H125.425V14.4645H121.122V7.10209H117.397V4.02544H129.119V7.10209ZM143.053 11.124C143.053 12.0409 142.6 12.8465 141.873 13.4211C140.917 14.1846 139.594 14.4645 138.379 14.4645H131.739V7.10209H129.259V4.02544H135.879V7.68932H138.144C139.405 7.68932 140.803 7.92732 141.802 8.72663C142.553 9.32747 143.053 10.1679 143.053 11.124ZM138.776 11.1346C138.776 10.4751 138.398 10.1984 137.748 10.1232C137.616 10.1232 137.355 10.1126 136.968 10.0966C136.581 10.0799 136.063 10.0733 135.879 10.0733V12.0894L136.955 12.1094C137.248 12.1154 137.49 12.1035 137.677 12.0894C138.338 12.0421 138.776 11.8688 138.776 11.1346V11.1346ZM34.8404 14.4644H32.7554L30.4771 7.49086L30.829 10.2242V14.4644H27.0245V3.9652H31.9037L33.7979 9.76476L35.692 3.9652H40.5714V14.4644H36.7668V10.2242L37.1187 7.49086L34.8404 14.4644ZM49.0878 14.4644H47.0028L44.7245 7.49086L45.0764 10.2242V14.4644H41.2718V3.9652H46.1511L48.0453 9.76476L49.9394 3.9652H54.8187V14.4644H51.0142V10.2242L51.3661 7.49086L49.0878 14.4644Z" fill="black"/>
</svg>
