<svg width="132" height="25" viewBox="0 0 132 25" fill="none" xmlns="http://www.w3.org/2000/svg">
<path fill-rule="evenodd" clip-rule="evenodd" d="M45.8941 0.59668C48.6378 0.59668 50.8631 2.76664 50.8631 5.44249C50.8631 8.11804 48.6378 10.288 45.8941 10.288C43.1501 10.288 40.9248 8.11804 40.9248 5.44249C40.9248 2.76664 43.1501 0.59668 45.8941 0.59668ZM45.8939 4.16902C46.5712 4.16902 47.1204 4.73922 47.1204 5.44218C47.1204 6.1453 46.5712 6.7155 45.8939 6.7155C45.2167 6.7155 44.6675 6.1453 44.6675 5.44218C44.6675 4.73922 45.2167 4.16902 45.8939 4.16902Z" fill="#3E3E3E"/>
<path fill-rule="evenodd" clip-rule="evenodd" d="M37.7868 10.288C35.0427 10.288 32.8174 8.1182 32.8174 5.44249C32.8174 2.76679 35.0427 0.59668 37.7868 0.59668C38.9524 0.59668 40.0398 0.866243 40.9605 1.33164L39.5611 4.59377C39.1572 4.38711 38.6096 4.2599 38.0061 4.2599C37.3679 4.2599 36.8503 4.79718 36.8503 5.45965C36.8503 6.12212 37.3679 6.65955 38.0061 6.65955C38.6158 6.65955 39.1686 6.53002 39.5736 6.31966L40.9605 9.55378C40.0398 10.0191 38.9524 10.288 37.7868 10.288Z" fill="#3E3E3E"/>
<path fill-rule="evenodd" clip-rule="evenodd" d="M15.7282 0.59668C18.4718 0.59668 20.6971 2.76664 20.6971 5.44249C20.6971 8.11804 18.4718 10.288 15.7282 10.288C12.9841 10.288 10.7588 8.11804 10.7588 5.44249C10.7588 2.76664 12.9841 0.59668 15.7282 0.59668ZM15.7279 4.16902C16.4052 4.16902 16.9544 4.73922 16.9544 5.44218C16.9544 6.1453 16.4052 6.7155 15.7279 6.7155C15.0507 6.7155 14.5015 6.1453 14.5015 5.44218C14.5015 4.73922 15.0507 4.16902 15.7279 4.16902Z" fill="#3E3E3E"/>
<path fill-rule="evenodd" clip-rule="evenodd" d="M98.2244 10.288C95.4803 10.288 93.2549 8.1182 93.2549 5.44249C93.2549 2.76679 95.4803 0.59668 98.2244 0.59668C99.3901 0.59668 100.478 0.866243 101.398 1.33164L99.999 4.59377C99.5946 4.38711 99.0471 4.2599 98.4438 4.2599C97.8061 4.2599 97.2883 4.79718 97.2883 5.45965C97.2883 6.12212 97.8061 6.65955 98.4438 6.65955C99.0536 6.65955 99.6067 6.53002 100.011 6.31966L101.398 9.55378C100.478 10.0191 99.3901 10.288 98.2244 10.288Z" fill="#3E3E3E"/>
<path fill-rule="evenodd" clip-rule="evenodd" d="M62.1043 0.830078H59.0818L57.1363 3.28924L55.1906 0.830078H51.748V10.0546H55.2863V5.46863L56.7723 7.28323L58.2809 5.4408V10.0546H62.1043V0.830078Z" fill="#3E3E3E"/>
<path fill-rule="evenodd" clip-rule="evenodd" d="M82.6063 0.830078H74.2064L74.2069 5.43693C74.2069 6.46202 74.0381 7.48478 73.123 7.60782V9.98351C73.4801 10.1415 73.8647 10.228 74.266 10.228C77.1319 10.228 77.64 7.94214 77.64 5.6544V3.3931H78.6519V10.0542H82.6063V0.830078Z" fill="#3E3E3E"/>
<path fill-rule="evenodd" clip-rule="evenodd" d="M87.7151 0.830078H83.7607V10.0542H88.6519C91.3708 10.0542 92.6776 8.27833 92.6776 6.18349C92.6776 4.60119 91.4411 3.31705 89.9161 3.31705C89.077 3.31705 88.3139 3.5608 87.7151 3.95943V0.830078ZM88.249 5.75271C88.6905 5.75271 89.0484 6.12739 89.0484 6.58938C89.0484 7.05138 88.8702 7.77212 88.249 7.77212C88.0154 7.77212 87.8425 7.74491 87.7151 7.69839V5.96664C87.8567 5.8334 88.0437 5.75271 88.249 5.75271Z" fill="#3E3E3E"/>
<path fill-rule="evenodd" clip-rule="evenodd" d="M131.989 0.830078H125.627C124.207 0.830078 123.056 2.02503 123.056 3.4982C123.056 4.5542 123.648 5.46677 124.506 5.89924C123.467 6.87779 122.493 8.51188 122.493 10.0542H126.189C126.337 7.88341 127.159 7.14041 128.034 7.07549V10.0542H131.989V0.830078ZM128.034 2.92491H127.691C127.142 2.92491 126.697 3.38753 126.697 3.95789C126.697 4.52824 127.142 4.99085 127.691 4.99085H128.034V2.92491Z" fill="#3E3E3E"/>
<path fill-rule="evenodd" clip-rule="evenodd" d="M67.9019 0.59668C70.6455 0.59668 72.8708 2.76664 72.8708 5.44249C72.8708 8.11804 70.6455 10.288 67.9019 10.288C65.1578 10.288 62.9326 8.11804 62.9326 5.44249C62.9326 2.76664 65.1578 0.59668 67.9019 0.59668ZM67.9017 4.16902C68.579 4.16902 69.1282 4.73922 69.1282 5.44218C69.1282 6.1453 68.579 6.7155 67.9017 6.7155C67.2245 6.7155 66.6753 6.1453 66.6753 5.44218C66.6753 4.73922 67.2245 4.16902 67.9017 4.16902Z" fill="#3E3E3E"/>
<path fill-rule="evenodd" clip-rule="evenodd" d="M4.84989 6.41476V10.0551H0.895508V0.831055H4.84989V3.75561C6.08121 3.78714 6.68095 2.57596 6.69449 0.831055H10.3401C10.3238 2.78045 9.54096 4.41174 8.43994 5.04624C9.6037 5.49262 10.6748 7.89613 10.6748 10.0551H6.97932C6.97932 7.84095 6.19616 6.35773 4.84989 6.41476Z" fill="#3E3E3E"/>
<path fill-rule="evenodd" clip-rule="evenodd" d="M105.994 6.41476V10.0551H102.04V0.831055H105.994V3.75561C107.226 3.78714 107.826 2.57596 107.839 0.831055H111.485C111.469 2.78045 110.685 4.41174 109.584 5.04624C110.748 5.49262 111.819 7.89613 111.819 10.0551H108.124C108.124 7.84095 107.34 6.35773 105.994 6.41476Z" fill="#3E3E3E"/>
<path fill-rule="evenodd" clip-rule="evenodd" d="M31.9551 0.830078H28.9333L26.9879 3.28924L25.0422 0.830078H21.5996V10.0546H25.1378V5.46863L26.6239 7.28323L28.1324 5.4408V10.0546H31.9551V0.830078Z" fill="#3E3E3E"/>
<path fill-rule="evenodd" clip-rule="evenodd" d="M119.546 0.830078L122.78 10.0542H118.829L118.192 8.23551H115.258L114.62 10.0542H111.53L114.765 0.830078H119.546ZM117.489 6.2297L116.725 4.05232L115.962 6.2297H117.489Z" fill="#3E3E3E"/>
<path fill-rule="evenodd" clip-rule="evenodd" d="M35.7369 12.8638H27.0563C25.6206 15.702 24.529 18.8775 24.3877 22.9853H27.7395C27.8089 22.5649 27.8859 22.149 27.9702 21.7396H30.9426V22.9853H35.7369V12.8638ZM30.9426 16.4894V19.1878H28.6288C28.938 18.2164 29.304 17.3086 29.7342 16.4894H30.9426Z" fill="#3E3E3E"/>
<path fill-rule="evenodd" clip-rule="evenodd" d="M36.6455 12.8638V22.9853H45.3385C46.9739 22.9853 48.1075 22.1963 48.0905 20.4442C48.0782 19.1791 47.2406 18.1453 46.174 17.446C47.1137 16.8256 47.5788 16.049 47.5748 14.8686C47.5695 13.4487 46.4708 12.9688 44.7948 12.8638H36.6455ZM41.1492 20.3898H42.5886C43.094 20.3898 43.5248 19.9293 43.5236 19.4957C43.523 19.229 43.3416 18.9035 43.1468 18.7165C42.5431 18.9058 41.8774 19.0996 41.1492 19.3091V20.3898ZM41.1492 15.5395H41.783C42.5003 15.5318 42.9579 15.7328 42.9564 16.1004C42.9543 16.5977 42.3058 17.0564 41.1492 17.3601V15.5395Z" fill="#3E3E3E"/>
<path fill-rule="evenodd" clip-rule="evenodd" d="M13.4004 12.8638V22.9853H18.1947V21.2753C22.7756 20.2726 24.9484 18.4116 24.9484 16.2074C24.9484 13.9847 23.4011 12.8638 20.8742 12.8638H13.4004ZM18.1947 18.5166C19.2687 18.2364 19.8846 17.7732 19.8931 17.1725C19.9019 16.5505 19.2678 16.3089 18.5279 16.3089H18.1947V18.5166Z" fill="#3E3E3E"/>
<path fill-rule="evenodd" clip-rule="evenodd" d="M5.70054 16.4894H7.66191V22.9849H12.4562V12.8638H0.90625V22.9849H5.70054V16.4894Z" fill="#3E3E3E"/>
<path fill-rule="evenodd" clip-rule="evenodd" d="M59.8176 12.8638H51.6454C50.5088 14.9078 49.7385 17.2655 49.4543 20.0394H48.4492V24.7982H51.6896C52.0564 23.142 53.4198 22.8427 54.8225 22.8711C56.1226 22.8974 57.3514 23.3165 57.5058 24.7982H60.7618V20.0394H59.8176V12.8638ZM55.0233 16.4894V20.0394H52.7267C52.9949 18.4602 53.4431 17.202 54.0807 16.4894H55.0233Z" fill="#3E3E3E"/>
<path fill-rule="evenodd" clip-rule="evenodd" d="M72.4565 12.8638H63.776C62.3402 15.702 61.2486 18.8775 61.1074 22.9853H64.4592C64.5286 22.5649 64.6055 22.149 64.6899 21.7396H67.6622V22.9853H72.4565V12.8638ZM67.6622 16.4894V19.1878H65.3485C65.6576 18.2164 66.0237 17.3086 66.4539 16.4894H67.6622Z" fill="#3E3E3E"/>
</svg>
