<svg width="28" height="29" fill="none" xmlns="http://www.w3.org/2000/svg"><path d="M28 .59H0v28.003h28V.59z" fill="#00077B"/><path fill-rule="evenodd" clip-rule="evenodd" d="M1.914 19.512h6.25l-.853 1.5H5.67v4.945H4.105v-4.945h-2.19v-1.5zm14.91 1.5c-.177 0-.304.111-.304.3v2.854c0 .188.127.291.304.291h3.24v1.5h-3.24c-1.133 0-1.869-.694-1.869-1.791V21.31c0-1.088.736-1.8 1.87-1.8h3.628l-.855 1.5h-2.774zm-4.394 3.491h-2.26a.545.545 0 01-.559-.566c0-.336.236-.575.558-.575h2.261v1.142zm-.296-4.991H9.208l-.855 1.5h3.781c.186 0 .296.111.296.3v.685H9.977c-1.125 0-1.954.84-1.954 1.98 0 1.14.83 1.98 1.954 1.98h4.018v-4.645c0-1.089-.736-1.8-1.86-1.8zm10.496 1.5c-.177 0-.303.111-.303.3v2.854c0 .188.126.291.304.291h3.24v1.5h-3.24c-1.133 0-1.87-.694-1.87-1.791V21.31c0-1.088.737-1.8 1.87-1.8h3.629l-.855 1.5h-2.774z" fill="#fff"/></svg>