<svg width="144" height="19" fill="none" xmlns="http://www.w3.org/2000/svg"><path d="M15.73 14.464H9.898L6.326 8.748l-1.16 1.165v4.551H.29V.082h4.875v4.642L9.345.082h5.719L9.703 5.446l6.027 9.018zm6.528-5.335c0-.658-.16-1.254-.48-1.783-.32-.528-.814-.794-1.488-.794-.602 0-1.058.266-1.364.798a3.518 3.518 0 00-.46 1.779c0 .698.164 1.36.491 1.976.324.62.825.93 1.496.93.647 0 1.11-.3 1.388-.903a4.725 4.725 0 00.417-2.003zm3.382 3.24c-1.152 1.65-3.127 2.42-5.169 2.42-2.105 0-4.133-.764-5.31-2.479-1.078-1.573-1.216-4.137-.308-5.815.7-1.292 1.981-2.225 3.45-2.605a7.888 7.888 0 014.925.28 5.187 5.187 0 013.005 3.17c.514 1.54.33 3.707-.593 5.03zm37.782-4.295c-.152-.685-.403-1.16-.749-1.425-.35-.268-.79-.4-1.329-.4-.522 0-.936.128-1.241.388-.305.257-.536.736-.695 1.437h4.014zm4.171 2.03H59.45c0 .325.058.609.173.856.35.753.984 1.262 1.892 1.262.666 0 1.435-.26 1.579-.958h4.17c-.158.992-.814 1.866-1.658 2.441-.851.579-1.897.9-2.93 1.014-1.324.158-2.856.115-4.082-.38a5.513 5.513 0 01-3.072-2.995 5.664 5.664 0 01-.024-4.15c.536-1.39 1.639-2.467 3.069-3.038 1.74-.691 4.174-.644 5.856.165 1.492.716 2.51 1.935 2.933 3.475a6.94 6.94 0 01.237 2.309zm11.681 2.285c-.8 1.475-2.28 2.395-4.064 2.395-1.281 0-2.124-.402-2.99-1.26v4.51h-4.344V4.02h3.847v1.562c.834-1.604 2.9-2.188 4.566-1.783 1.815.437 3.038 1.91 3.473 3.567.407 1.539.266 3.648-.487 5.023zm-3.538-3.407c0-.443-.152-.927-.46-1.448-.308-.52-.755-.78-1.336-.78-.578 0-1.025.243-1.336.733-.311.487-.467.984-.467 1.495 0 .625.12 1.21.363 1.751.246.541.724.812 1.44.812.699 0 1.17-.28 1.422-.842.229-.542.374-1.134.374-1.721zm13.595 5.362c-1.688.571-3.982.659-5.663-.016-1.058-.425-1.996-1.143-2.589-2.096a5.693 5.693 0 01-.88-3.045c0-.716.156-1.419.418-2.086.607-1.501 1.657-2.362 3.173-2.959 1.735-.683 4.312-.658 5.96.207 1.57.825 2.391 1.96 2.607 3.634H87.91c-.078-.515-.228-.833-.448-1.104-.623-.77-2.032-.394-2.482.365-.574.97-.669 2.4-.306 3.463.24.7 1.027 1.293 1.793 1.293 1.084 0 1.31-.705 1.593-1.582h4.296c-.045 1.753-1.13 3.286-3.026 3.926zm10.95-3.987a1.72 1.72 0 00-.054-.475c-.298.16-.764.298-1.396.416-.482.085-.994.19-1.425.417-.611.292-.578 1.127-.044 1.465.618.359 1.654.33 2.174-.173.494-.455.745-1.004.745-1.65zm4.834 4.107h-4.447l-.169-1.106c-.324.405-1.049.738-1.78 1.01a6.344 6.344 0 01-1.098.304 7.138 7.138 0 01-1.19.097 5.39 5.39 0 01-2.057-.381 2.876 2.876 0 01-1.416-1.187 4.001 4.001 0 01-.436-1.792c0-.769.371-1.402.881-1.97.29-.325.575-.507 1.089-.697a8.98 8.98 0 01.72-.234c.233-.065.455-.127.665-.158l1.822-.264c.772-.112 1.52-.208 1.85-.314.204-.065.444-.277.562-.41.118-.134.101-.275.101-.418 0-.198-.098-.361-.298-.495-.199-.134-.483-.2-.851-.2-.443 0-.993.063-1.26.19s-.44.381-.52.759h-4.12c.14-.686.114-1.086.315-1.504.201-.417.517-.776.95-1.073.432-.297 1.026-.529 1.787-.682.368-.074.804-.126 1.301-.164.5-.038 1.054-.06 1.67-.06 1.496 0 2.617.172 3.364.515.746.342 1.233.618 1.46 1.133.226.511.378 1.176.449 1.992v5.522c0 .568.22.99.656 1.263v.324zm12.084 0h-4.29v-3.903h-3.177v3.903h-4.248l-.004-10.281.004-.158h4.248v3.498h3.129V4.025h4.338l-.004 10.252.004.188zm11.92-7.362h-3.694v7.362h-4.303V7.102h-3.725V4.025h11.722v3.077zm13.934 4.022c0 .917-.453 1.723-1.18 2.297-.956.764-2.279 1.043-3.494 1.043h-6.64V7.102h-2.48V4.025h6.62V7.69h2.265c1.261 0 2.659.238 3.658 1.038.751.6 1.251 1.44 1.251 2.397zm-4.277.01c0-.659-.378-.936-1.028-1.01-.132 0-.393-.011-.78-.027a31.388 31.388 0 00-1.089-.024v2.016l1.076.02c.293.006.535-.005.722-.02.661-.047 1.099-.22 1.099-.954zM34.84 14.465h-2.085l-2.278-6.973.352 2.733v4.24h-3.805v-10.5h4.88l1.894 5.8 1.894-5.8h4.88v10.5h-3.805v-4.24l.352-2.734-2.279 6.973zm14.248 0h-2.085l-2.279-6.973.352 2.733v4.24h-3.804v-10.5h4.88l1.893 5.8 1.894-5.8h4.88v10.5h-3.805v-4.24l.352-2.734-2.278 6.973z" fill="#000"/></svg>