<svg width="132" height="25" fill="none" xmlns="http://www.w3.org/2000/svg"><path fill-rule="evenodd" clip-rule="evenodd" d="M45.894.597c2.744 0 4.97 2.17 4.97 4.845 0 2.676-2.226 4.846-4.97 4.846-2.744 0-4.97-2.17-4.97-4.846 0-2.675 2.226-4.845 4.97-4.845zm0 3.572c.677 0 1.226.57 1.226 1.273s-.549 1.273-1.226 1.273c-.677 0-1.227-.57-1.227-1.273s.55-1.273 1.227-1.273z" fill="#3E3E3E"/><path fill-rule="evenodd" clip-rule="evenodd" d="M37.787 10.288c-2.744 0-4.97-2.17-4.97-4.846 0-2.675 2.226-4.845 4.97-4.845 1.165 0 2.253.27 3.174.735l-1.4 3.262c-.404-.207-.951-.334-1.555-.334-.638 0-1.156.537-1.156 1.2 0 .662.518 1.2 1.156 1.2.61 0 1.163-.13 1.568-.34l1.387 3.234a7.044 7.044 0 01-3.174.734zM15.728.597c2.744 0 4.97 2.17 4.97 4.845 0 2.676-2.226 4.846-4.97 4.846-2.744 0-4.97-2.17-4.97-4.846 0-2.675 2.226-4.845 4.97-4.845zm0 3.572c.677 0 1.226.57 1.226 1.273s-.549 1.273-1.226 1.273c-.677 0-1.226-.57-1.226-1.273s.549-1.273 1.226-1.273zm82.496 6.119c-2.744 0-4.97-2.17-4.97-4.846 0-2.675 2.226-4.845 4.97-4.845a7.04 7.04 0 013.174.735l-1.399 3.262c-.404-.207-.952-.334-1.555-.334-.638 0-1.156.537-1.156 1.2 0 .662.518 1.2 1.156 1.2.61 0 1.163-.13 1.567-.34l1.387 3.234a7.041 7.041 0 01-3.174.734zM62.104.83h-3.022l-1.946 2.46L55.191.83h-3.443v9.225h3.538V5.469l1.486 1.814 1.509-1.842v4.614h3.823V.83zm20.502 0h-8.4v4.607c0 1.025-.168 2.048-1.083 2.17v2.377c.357.158.742.244 1.143.244 2.866 0 3.374-2.286 3.374-4.574v-2.26h1.012v6.66h3.954V.83zm5.109 0h-3.954v9.224h4.89c2.72 0 4.027-1.776 4.027-3.87 0-1.583-1.237-2.867-2.762-2.867-.839 0-1.602.244-2.2.642V.83zm.534 4.923c.442 0 .8.374.8.836 0 .462-.179 1.183-.8 1.183a1.58 1.58 0 01-.534-.074V5.967a.776.776 0 01.534-.214zM131.989.83h-6.362c-1.42 0-2.571 1.195-2.571 2.668 0 1.056.592 1.969 1.45 2.401-1.039.979-2.013 2.613-2.013 4.155h3.696c.148-2.17.97-2.914 1.845-2.979v2.98h3.955V.83zm-3.955 2.095h-.343c-.549 0-.994.463-.994 1.033 0 .57.445 1.033.994 1.033h.343V2.925zM67.902.597c2.743 0 4.969 2.17 4.969 4.845 0 2.676-2.225 4.846-4.97 4.846-2.743 0-4.968-2.17-4.968-4.846 0-2.675 2.225-4.845 4.969-4.845zm0 3.572c.677 0 1.226.57 1.226 1.273s-.549 1.273-1.226 1.273c-.677 0-1.227-.57-1.227-1.273s.55-1.273 1.227-1.273zM4.85 6.415v3.64H.896V.831H4.85v2.925c1.23.031 1.83-1.18 1.844-2.926h3.646c-.016 1.95-.799 3.58-1.9 4.215 1.164.447 2.235 2.85 2.235 5.01H6.979c0-2.215-.783-3.698-2.13-3.641zm101.144 0v3.64h-3.954V.831h3.954v2.925c1.232.031 1.832-1.18 1.845-2.925h3.646c-.016 1.95-.8 3.58-1.901 4.215 1.164.447 2.235 2.85 2.235 5.01h-3.695c0-2.215-.784-3.698-2.13-3.641zM31.955.83h-3.022l-1.945 2.46L25.042.83H21.6v9.225h3.538V5.469l1.486 1.814 1.508-1.842v4.614h3.823V.83z" fill="#3E3E3E"/><path fill-rule="evenodd" clip-rule="evenodd" d="M119.546.83l3.234 9.224h-3.951l-.637-1.818h-2.934l-.638 1.818h-3.09L114.765.83h4.781zm-2.057 5.4l-.764-2.178-.763 2.178h1.527zm-81.752 6.634h-8.68c-1.436 2.838-2.528 6.014-2.67 10.121h3.352c.07-.42.147-.836.231-1.245h2.973v1.245h4.794V12.864zm-4.794 3.625v2.699h-2.314c.309-.972.675-1.88 1.105-2.699h1.209zm5.702-3.625v10.121h8.694c1.635 0 2.769-.789 2.752-2.54-.013-1.266-.85-2.3-1.917-2.999.94-.62 1.405-1.397 1.4-2.577-.005-1.42-1.103-1.9-2.78-2.005h-8.148zm4.504 7.526h1.44c.505 0 .936-.46.935-.894-.001-.267-.182-.592-.377-.78-.604.19-1.27.384-1.998.593v1.08zm0-4.85h.634c.717-.008 1.175.193 1.173.56-.002.498-.65.956-1.807 1.26v-1.82zM13.4 12.864v10.121h4.795v-1.71c4.58-1.002 6.753-2.863 6.753-5.068 0-2.222-1.547-3.343-4.074-3.343H13.4zm4.795 5.653c1.074-.28 1.69-.744 1.698-1.345.009-.622-.625-.863-1.365-.863h-.333v2.208zM5.7 16.49h1.962v6.495h4.794V12.864H.906v10.12h4.795V16.49zm54.118-3.626h-8.173c-1.136 2.044-1.907 4.401-2.19 7.175h-1.006v4.76h3.24c.367-1.657 1.73-1.956 3.133-1.928 1.3.026 2.53.446 2.684 1.927h3.256V20.04h-.944v-7.175zm-4.795 3.625v3.55h-2.296c.268-1.579.716-2.837 1.354-3.55h.942zm17.434-3.625h-8.681c-1.436 2.838-2.527 6.014-2.669 10.121h3.352c.07-.42.147-.836.23-1.245h2.973v1.245h4.794V12.864zm-4.795 3.625v2.699h-2.314c.31-.972.676-1.88 1.106-2.699h1.208z" fill="#3E3E3E"/></svg>