<svg width="102" height="69" viewBox="0 0 102 69" fill="none" xmlns="http://www.w3.org/2000/svg">
<g clip-path="url(#clip0)">
<path fill-rule="evenodd" clip-rule="evenodd" d="M41.3895 17.0448V18.4263C40.0884 17.9883 38.04 18.6444 38.6228 21.1089C36.6613 20.2038 36.4745 18.4572 37.7952 17.0448H41.3895ZM37.7952 16.5347C36.4745 15.1213 36.6613 13.3756 38.6228 12.4696C38.04 14.935 40.0884 15.5902 41.3895 15.1522V16.5347H37.7952ZM36.3624 18.153C35.645 17.8722 34.9772 17.422 34.3354 16.7892C34.9772 16.1574 35.6431 15.7044 36.3624 15.4255C36.5008 15.9359 36.7626 16.4043 37.1246 16.7892C36.7628 17.1744 36.5011 17.6427 36.3624 18.153ZM60.6107 17.0448V18.4263C61.9119 17.9883 63.9603 18.6444 63.3774 21.1089C65.339 20.2038 65.5258 18.4572 64.2041 17.0448H60.6107ZM64.2041 16.5347C65.5258 15.1213 65.3381 13.3756 63.3774 12.4696C63.9603 14.935 61.9119 15.5902 60.6107 15.1522V16.5347H64.2041ZM65.6379 18.153C66.3553 17.8722 67.0231 17.422 67.6648 16.7892C67.0231 16.1574 66.3571 15.7044 65.6379 15.4255C65.499 15.9357 65.2373 16.404 64.8757 16.7892C65.2372 17.1746 65.4989 17.6428 65.6379 18.153ZM49.6467 31.538C49.9269 32.2606 50.3724 32.9336 51.0001 33.5804C51.6269 32.9336 52.0771 32.2606 52.3536 31.538C51.846 31.3973 51.3811 31.133 51.0001 30.7686C50.6189 31.1324 50.154 31.3964 49.6467 31.5371V31.538ZM50.7461 3.48571C49.344 2.15283 47.6113 2.34003 46.7128 4.3197C50.1688 3.49039 50.6358 8.62067 48.6472 10.6415C49.2749 11.2406 50.1754 11.1788 50.5406 10.3607C50.6956 10.0097 50.7461 9.57447 50.7461 9.09991V3.48571ZM51.3065 16.5393L55.3435 10.5769C56.3916 9.02971 56.1842 5.69751 55.2324 5.17708C57.1836 4.63232 59.0621 6.59514 58.5138 8.25282C59.6132 7.55081 60.7443 7.91024 61.1534 9.18883C59.7196 9.32736 59.3423 10.6144 59.3423 11.8892V21.6883C59.3423 22.9632 59.7159 24.2493 61.1534 24.3887C60.7443 25.6711 59.6132 26.0305 58.5138 25.3294C59.0574 26.9862 57.1836 28.949 55.2324 28.4052C56.4663 27.5422 56.3224 24.5404 56.3224 21.2409V12.6764L52.5012 18.3224L51.3065 16.5393ZM51.2533 3.48571C52.6544 2.1547 54.3889 2.34377 55.2875 4.3197C51.8315 3.49039 51.3644 8.62067 53.353 10.6415C52.7254 11.2406 51.824 11.1788 51.4597 10.3607C51.3037 10.0097 51.2533 9.57447 51.2533 9.09991V3.48571ZM51.0001 2.80804C50.5882 2.44018 50.1884 2.17623 49.6467 2.04051C49.9535 1.2746 50.4142 0.580063 51.0001 0C51.5879 0.57928 52.0488 1.27483 52.3536 2.04238C51.8466 2.18251 51.3818 2.44546 51.0001 2.80804ZM51.0001 13.209C50.5654 12.7097 50.307 12.0807 50.265 11.4193C50.5916 11.2175 50.8483 10.9198 51.0001 10.5666C51.1869 10.9476 51.3682 11.191 51.7352 11.4193C51.6933 12.0812 51.4349 12.7108 51.0001 13.2109V13.209ZM45.676 12.6745V21.239C45.676 24.5385 45.5321 27.5403 46.766 28.4033C44.8147 28.9471 42.941 26.9843 43.4846 25.3275C42.3852 26.0286 41.2531 25.6692 40.844 24.3869C42.2778 24.2474 42.6561 22.9613 42.6561 21.6865V11.8874C42.6561 10.6125 42.2778 9.32549 40.844 9.18696C41.2531 7.90369 42.3852 7.54426 43.4846 8.25095C42.941 6.59327 44.8147 4.63045 46.766 5.17521C45.8095 5.69563 45.6096 9.0269 46.6549 10.5751L52.6814 19.4999C54.7868 22.6197 54.8728 25.0402 52.2238 28.4651C53.0168 29.1006 54.1853 29.6267 55.2903 29.2597C54.2114 31.6653 52.1378 31.1804 51.0029 29.8326C49.868 31.1804 47.7944 31.6653 46.7156 29.2597C48.7584 29.9365 51.1673 27.6039 51.9893 25.9116C52.8197 24.1978 52.4349 22.6225 51.0029 20.5398C49.2674 23.0671 49.0694 24.8455 50.7106 27.0245C50.3364 27.4115 49.9264 27.7619 49.486 28.071C46.9687 24.6078 47.4647 22.2191 49.8017 18.7661L45.676 12.6745Z" fill="white"/>
<path d="M85.9752 43.8861C85.1252 43.2244 84.3471 42.8565 83.399 42.5392C82.2643 42.115 81.0605 41.9074 79.8496 41.9271C77.8077 41.9271 76.5925 42.4887 75.8873 43.0774C75.2334 43.639 74.5263 44.5226 74.5263 45.9922C74.5263 46.9478 74.842 47.56 75.3035 48.0252C76.0573 48.8086 77.3463 49.2251 79.0229 49.3478L80.9191 49.4947C81.5029 49.5677 82.1334 49.5677 82.7872 49.8373C83.1758 50.0086 83.8081 50.3268 83.8081 51.1355C83.8081 51.5521 83.6381 52.1399 82.8843 52.5564C82.2772 52.9233 81.4748 53.0244 80.6968 53.0244C79.603 53.0244 78.7277 52.8775 77.8282 52.5096C76.969 52.1456 76.1668 51.6592 75.4464 51.0653L73.9948 53.3361C74.8168 54.0437 75.7079 54.5099 76.7345 54.8852C77.9633 55.3027 79.2535 55.5099 80.551 55.4983C81.7177 55.4983 83.5167 55.3757 84.9262 54.2244C86.1909 53.1714 86.4581 51.8975 86.4581 51.0157C86.468 50.5056 86.3615 49.9999 86.1467 49.5372C85.9319 49.0746 85.6144 48.6672 85.2186 48.3462C84.3676 47.5871 83.0553 47.223 81.6934 47.0976L79.9673 46.9506C78.6306 46.828 78.1682 46.7297 77.8768 46.6315C77.6863 46.5556 77.1538 46.3329 77.1538 45.7713C77.1538 45.4043 77.3491 45.0131 77.9319 44.7417C78.2476 44.5704 78.7586 44.4225 79.7066 44.4225C80.6076 44.4298 81.5018 44.5788 82.3566 44.8643C83.1521 45.1584 83.9107 45.5445 84.617 46.0146L85.9752 43.8861ZM49.7119 55.225H52.2881V42.1966H49.7119V55.225ZM40.6104 44.6696H45.5693V42.1966H33.0986V44.6696H38.0576V55.1763H40.6104V44.6696ZM10.7931 55.1763H13.3459V42.1966H11.3769L6.66082 48.833L1.96901 42.1966H0V55.1763H2.52852V47.1435L6.35819 52.7024H6.96533L10.795 47.1435L10.7931 55.1763ZM28.3433 52.7024H21.6087L20.4999 55.1763H17.68L23.9999 42.1966H25.9203L32.2897 55.1763H29.4698L28.3433 52.7024ZM22.7174 50.2295H27.2159L24.948 45.2518L22.7174 50.2295ZM69.1564 43.8861C68.3064 43.2244 67.5283 42.8565 66.5802 42.5392C65.4456 42.115 64.2417 41.9073 63.0308 41.9271C60.9889 41.9271 59.7737 42.4887 59.0685 43.0774C58.4146 43.639 57.7075 44.5226 57.7075 45.9922C57.7075 46.9478 58.0232 47.56 58.4847 48.0252C59.2385 48.8086 60.5275 49.2251 62.2088 49.3478L64.1049 49.4947C64.6887 49.5677 65.3192 49.5677 65.9731 49.8373C66.3626 50.0086 66.994 50.3268 66.994 51.1355C66.994 51.5521 66.824 52.1399 66.0702 52.5564C65.4631 52.9233 64.6607 53.0244 63.8826 53.0244C62.7888 53.0244 61.9136 52.8775 61.0141 52.5096C60.1549 52.1456 59.3527 51.6592 58.6323 51.0653L57.1807 53.3361C58.0027 54.0437 58.8938 54.5099 59.9203 54.8852C61.1492 55.3027 62.4394 55.5099 63.7369 55.4983C64.9036 55.4983 66.7026 55.3757 68.113 54.2244C69.3759 53.1657 69.643 51.8946 69.643 51.0129C69.653 50.5027 69.5464 49.997 69.3316 49.5344C69.1168 49.0718 68.7994 48.6644 68.4035 48.3434C67.5526 47.5843 66.2402 47.2202 64.8784 47.0948L63.1522 46.9478C61.8155 46.8252 61.3532 46.7269 61.0618 46.6286C60.8675 46.5556 60.3323 46.3357 60.3323 45.7713C60.3323 45.4043 60.5275 45.0131 61.1103 44.7417C61.426 44.5704 61.937 44.4225 62.8851 44.4225C63.786 44.4298 64.6802 44.5788 65.535 44.8643C66.3305 45.1584 67.0891 45.5445 67.7954 46.0146L69.1564 43.8861ZM91.1583 55.1763H102V52.7024H93.7102V49.5153H98.4506V47.0452H93.7092V44.6696H101.26V42.1966H91.1583V55.1763Z" fill="white"/>
<path d="M69.1581 64.6035C69.1505 64.4201 69.0825 64.2443 68.9648 64.1036C68.9003 64.0475 68.8253 64.0049 68.7441 63.9782C68.6629 63.9515 68.5773 63.9413 68.4921 63.9483C68.3797 63.9474 68.2683 63.9713 68.1662 64.0185C68.0751 64.0617 67.9976 64.129 67.942 64.2132C67.8854 64.3017 67.8556 64.4047 67.856 64.5099C67.8561 64.5994 67.8776 64.6877 67.9186 64.7673C67.9672 64.8578 68.0303 64.9397 68.1054 65.0097C68.2244 65.1156 68.3511 65.2123 68.4847 65.2989C68.6884 65.4209 68.8631 65.5861 68.9965 65.7829C69.0971 65.9439 69.1481 66.1311 69.1432 66.3211C69.151 66.5346 69.0915 66.7452 68.9732 66.9229C68.863 67.096 68.6988 67.2276 68.5061 67.2973C68.2953 67.3853 68.0685 67.428 67.8402 67.4228C67.6325 67.4236 67.4251 67.4077 67.2199 67.375C67.0266 67.3366 66.8398 67.2973 66.6539 67.243L66.8407 66.4231H67.1359C67.1342 66.6154 67.203 66.8016 67.3292 66.9463C67.3974 67.0072 67.4771 67.0537 67.5636 67.0832C67.6501 67.1126 67.7416 67.1243 67.8327 67.1176C68.0238 67.131 68.2127 67.0696 68.3595 66.9463C68.4218 66.8907 68.4709 66.8218 68.5032 66.7447C68.5355 66.6676 68.5502 66.5843 68.5463 66.5008C68.5484 66.3992 68.5299 66.2983 68.4921 66.2041C68.4473 66.1137 68.3869 66.0319 68.3137 65.9626C68.2084 65.8615 68.0943 65.77 67.9728 65.6893C67.8347 65.5998 67.705 65.4979 67.5852 65.385C67.4892 65.2927 67.4105 65.184 67.3526 65.064C67.2988 64.944 67.2723 64.8136 67.2751 64.6821C67.2679 64.4857 67.3221 64.292 67.4301 64.128C67.5369 63.9671 67.6915 63.844 67.8719 63.776C68.0836 63.691 68.3099 63.6487 68.5379 63.6515C68.9115 63.6453 69.2835 63.7006 69.6392 63.8153L69.4608 64.6035H69.1581ZM66.5427 66.6571C66.3697 66.8779 66.1633 67.0703 65.9309 67.2271C65.7406 67.355 65.5165 67.4231 65.2874 67.4228C65.0165 67.4228 64.815 67.3522 64.683 67.2112C64.5513 67.0792 64.4897 66.8761 64.4897 66.6178C64.4916 66.4363 64.5148 66.2556 64.5588 66.0796L65.0258 64.0962H64.4654L64.5037 63.909C64.6272 63.8937 64.7476 63.8593 64.8605 63.8069C64.945 63.7604 65.0188 63.6966 65.0772 63.6197C65.147 63.5275 65.2019 63.4249 65.2397 63.3155C65.2939 63.1901 65.3565 63.0113 65.434 62.7764H65.9534L65.7441 63.7124H66.9453L66.8594 64.0952H65.6647L65.3004 65.5788C65.2182 65.8796 65.1691 66.1884 65.1538 66.4998C65.1451 66.6243 65.1779 66.7481 65.2472 66.8518C65.2847 66.8925 65.3304 66.9246 65.3813 66.9461C65.4322 66.9676 65.4871 66.9779 65.5424 66.9763C65.6755 66.9704 65.8031 66.9211 65.9057 66.8359C66.0647 66.7218 66.206 66.585 66.3251 66.4296L66.5427 66.6571ZM63.4118 67.36H62.2227L62.7028 65.4272C62.7336 65.3027 62.757 65.1623 62.7878 65.0135C62.8173 64.88 62.8329 64.7439 62.8345 64.6072C62.8465 64.4731 62.8137 64.3387 62.7411 64.2253C62.7073 64.1826 62.6636 64.1488 62.6138 64.1269C62.5639 64.1051 62.5095 64.0958 62.4553 64.0999C62.3294 64.1082 62.2084 64.1516 62.1059 64.2253C61.9642 64.3335 61.8368 64.4593 61.7267 64.5997C61.5977 64.7552 61.4835 64.9226 61.3858 65.0996C61.2848 65.2913 61.2116 65.4965 61.1681 65.7089L60.8272 67.3638H60.1734L60.7469 64.756C60.7553 64.7008 60.7777 64.6156 60.7936 64.4986C60.8152 64.4065 60.828 64.3124 60.8319 64.2178C60.8349 64.1583 60.8217 64.0991 60.7936 64.0465C60.7702 64.0046 60.7313 63.9737 60.6852 63.9604C60.5991 63.9377 60.5108 63.9245 60.4218 63.9211L60.4685 63.718L61.3288 63.6871H61.5455L61.2924 64.6784L61.3391 64.6943C61.5345 64.3984 61.775 64.135 62.0518 63.9136C62.2464 63.7521 62.4886 63.659 62.7411 63.6487C62.8435 63.6412 62.9464 63.6554 63.0429 63.6904C63.1395 63.7254 63.2276 63.7804 63.3015 63.8518C63.4261 63.9923 63.4883 64.1951 63.4883 64.4603C63.4879 64.5596 63.4801 64.6588 63.465 64.757C63.4527 64.8544 63.4346 64.951 63.4108 65.0462L63.0932 66.4044C63.0543 66.5469 63.0332 66.6937 63.0307 66.8415C63.0252 66.9016 63.039 66.9619 63.0699 67.0137C63.0947 67.0606 63.136 67.0966 63.1857 67.1148C63.2686 67.1433 63.3545 67.1618 63.4416 67.17L63.4118 67.36ZM57.3674 65.3944C57.572 65.3948 57.7764 65.3817 57.9792 65.3551C58.1325 65.3377 58.2834 65.3038 58.4294 65.254C58.5414 65.2186 58.6481 65.1685 58.747 65.1052C58.8208 65.0502 58.8859 64.9846 58.9404 64.9105C58.9908 64.8465 59.0253 64.7714 59.0413 64.6915C59.0634 64.6129 59.0738 64.5316 59.0721 64.45C59.0791 64.3185 59.0409 64.1886 58.9637 64.0821C58.9242 64.0374 58.8751 64.0024 58.8201 63.9795C58.7651 63.9566 58.7056 63.9466 58.6462 63.9501C58.4566 63.9574 58.2745 64.0257 58.1268 64.1448C57.9442 64.285 57.7914 64.4603 57.6775 64.6606C57.5417 64.8901 57.4374 65.137 57.3674 65.3944ZM59.3822 66.6047C59.2183 66.7841 59.0364 66.9463 58.8395 67.0886C58.6844 67.2019 58.5118 67.2888 58.3286 67.346C58.1451 67.4013 57.9541 67.4278 57.7625 67.4246C57.584 67.4301 57.4065 67.3952 57.2432 67.3226C57.1051 67.2642 56.983 67.1733 56.8873 67.0577C56.79 66.9384 56.7187 66.8001 56.6781 66.6515C56.6298 66.4868 56.6062 66.3158 56.608 66.1442C56.6111 65.8466 56.6606 65.5513 56.7547 65.269C56.844 64.9636 56.9943 64.6795 57.1965 64.4341C57.3828 64.19 57.6227 63.9923 57.8976 63.8561C58.1725 63.7199 58.475 63.649 58.7816 63.6487C59.0917 63.6487 59.3159 63.7105 59.4709 63.8359C59.626 63.9614 59.7035 64.1561 59.7035 64.4135C59.7035 64.8506 59.5018 65.1707 59.0992 65.3897C58.6966 65.6088 58.0997 65.7098 57.3011 65.7098C57.2758 65.8753 57.263 66.0423 57.2628 66.2097C57.2628 66.4746 57.3095 66.6702 57.4179 66.7872C57.5262 66.9042 57.6887 66.9744 57.9213 66.9744C58.1427 66.9758 58.3609 66.9221 58.5565 66.8181C58.7755 66.6929 58.9742 66.5351 59.1459 66.3501L59.3822 66.6047ZM53.7367 64.4631V64.5726C53.9112 64.3035 54.1327 64.0683 54.3905 63.8781C54.5868 63.735 54.8223 63.6559 55.0649 63.6515C55.1657 63.645 55.2667 63.6597 55.3615 63.6947C55.4563 63.7297 55.5426 63.7842 55.6151 63.8547C55.7384 63.9951 55.8019 64.1982 55.8019 64.4631C55.7989 64.6607 55.7729 64.8574 55.7244 65.049L55.4068 66.4072C55.3715 66.5504 55.3506 66.6969 55.3442 66.8443C55.3425 66.9041 55.356 66.9634 55.3835 67.0165C55.4083 67.0634 55.4496 67.0994 55.4993 67.1176C55.5844 67.147 55.6729 67.1655 55.7627 67.1728L55.7244 67.36H54.5381L55.007 65.4272C55.0465 65.2862 55.0777 65.1431 55.1004 64.9985C55.1298 64.8701 55.1455 64.7389 55.1471 64.6072C55.1565 64.4696 55.1211 64.3327 55.0463 64.2169C55.0095 64.176 54.9638 64.1442 54.9128 64.1239C54.8618 64.1036 54.8067 64.0954 54.752 64.0999C54.6314 64.11 54.516 64.1534 54.4186 64.2253C54.27 64.3283 54.1391 64.4547 54.0309 64.5997C53.9064 64.7552 53.7976 64.9226 53.7059 65.0996C53.6126 65.2901 53.5448 65.4922 53.5041 65.7005L53.1632 67.3638H52.5093L52.9381 65.4272C52.9923 65.1932 53.0315 65.0134 53.0464 64.9039C53.067 64.8064 53.0776 64.7069 53.0782 64.6072C53.0912 64.4693 53.0555 64.3312 52.9773 64.2169C52.9405 64.1761 52.8948 64.1444 52.8438 64.1241C52.7928 64.1038 52.7378 64.0955 52.6831 64.0999C52.5599 64.1097 52.4416 64.1531 52.3412 64.2253C52.1968 64.3361 52.0666 64.4644 51.9536 64.6072C51.8304 64.7693 51.7216 64.9419 51.6285 65.123C51.5404 65.3096 51.4755 65.5064 51.4352 65.7089L51.0933 67.36H50.4394L51.013 64.7523C51.0204 64.6971 51.0438 64.6119 51.0587 64.4949C51.0806 64.4027 51.0937 64.3087 51.098 64.2141C51.1008 64.1545 51.0872 64.0952 51.0587 64.0428C51.0438 64.0035 51.0046 63.9801 50.9504 63.9567C50.8643 63.9339 50.776 63.9207 50.687 63.9174L50.7337 63.7143L51.594 63.6834H51.8107L51.5631 64.6671L51.6014 64.683C51.7872 64.3865 52.0233 64.1248 52.2992 63.9099C52.4965 63.7483 52.7422 63.6577 52.9969 63.6525C53.0984 63.6455 53.2002 63.6607 53.2952 63.697C53.3902 63.7334 53.4761 63.7901 53.5471 63.8631C53.6704 64.0035 53.7339 64.1991 53.7339 64.464L53.7367 64.4631ZM49.9911 66.658C49.8175 66.8787 49.6108 67.071 49.3784 67.2281C49.188 67.3559 48.9639 67.424 48.7348 67.4237C48.4639 67.4237 48.2625 67.3532 48.1304 67.2122C47.9987 67.0802 47.9371 66.8771 47.9371 66.6187C47.9407 66.4377 47.9655 66.2577 48.0109 66.0824L48.4779 64.099H47.9175L47.9567 63.9118C48.0799 63.8965 48.2 63.8621 48.3126 63.8097C48.3974 63.7632 48.4715 63.6995 48.5302 63.6225C48.5997 63.5301 48.6545 63.4275 48.6927 63.3183C48.7469 63.1929 48.8086 63.0141 48.8861 62.7792H49.4054L49.1962 63.7152H50.3974L50.3124 64.098H49.1103L48.746 65.5816C48.6631 65.8823 48.6136 66.1911 48.5984 66.5027C48.5892 66.6271 48.6221 66.7511 48.6918 66.8546C48.729 66.8953 48.7746 66.9276 48.8254 66.949C48.8761 66.9705 48.9309 66.9808 48.986 66.9791C49.1195 66.9731 49.2473 66.9238 49.3503 66.8387C49.5088 66.7244 49.6497 66.5875 49.7688 66.4324L49.9911 66.658ZM45.7831 63.6834H46.0148L45.7514 64.6194L45.7906 64.6353C45.9848 64.3519 46.2229 64.1013 46.4958 63.893C46.7008 63.7423 46.9469 63.6581 47.201 63.6515C47.358 63.6479 47.5149 63.6637 47.6681 63.6983L47.4813 64.5492H47.0955C47.0809 64.4434 47.0493 64.3407 47.0021 64.245C46.9797 64.2124 46.9495 64.1859 46.9142 64.1681C46.879 64.1503 46.8398 64.1416 46.8003 64.143C46.6726 64.1558 46.5526 64.2108 46.4594 64.2993C46.3087 64.4208 46.1757 64.5629 46.0643 64.7214C45.9446 64.8726 45.8433 65.0376 45.7626 65.2128C45.6954 65.3716 45.6435 65.5365 45.6075 65.7052L45.2666 67.36H44.6127L45.1863 64.7523C45.2314 64.5759 45.2574 64.3951 45.2638 64.2132C45.2685 64.1543 45.2575 64.0951 45.232 64.0419C45.204 64.0011 45.1633 63.9708 45.1162 63.9558C45.0327 63.9328 44.9468 63.9196 44.8603 63.9164L44.907 63.7133L45.7831 63.6834ZM43.0239 65.0415C43.0443 64.9513 43.0599 64.8601 43.0706 64.7682C43.0798 64.6855 43.0848 64.6024 43.0855 64.5192C43.0986 64.3661 43.0565 64.2134 42.9669 64.0887C42.881 63.9951 42.7418 63.9483 42.5485 63.9483C42.4453 63.9499 42.3431 63.9682 42.2458 64.0026C42.1382 64.0416 42.0385 64.1 41.9516 64.1748C41.8427 64.2636 41.7482 64.3687 41.6714 64.4865C41.5718 64.6359 41.4885 64.7956 41.4229 64.9629C41.3529 65.1566 41.2961 65.3549 41.2529 65.5563C41.2162 65.7624 41.1981 65.9713 41.1987 66.1807C41.1987 66.439 41.2296 66.6421 41.2996 66.7666C41.3349 66.8316 41.3879 66.8852 41.4524 66.9211C41.5169 66.9571 41.5902 66.9739 41.6639 66.9697C41.749 66.9658 41.8327 66.9472 41.9114 66.9145C42.0136 66.8633 42.108 66.7977 42.1916 66.7198C42.3176 66.5876 42.4341 66.4465 42.5401 66.2977C42.6546 66.1401 42.7508 65.9698 42.8268 65.7903C42.903 65.6012 42.9603 65.4049 42.9977 65.2044L43.0239 65.0415ZM43.3574 63.9024L43.7058 63.6525L43.9458 63.7143L43.3723 66.2986C43.334 66.4549 43.3107 66.5719 43.2948 66.6505C43.2789 66.7292 43.2798 66.8069 43.2798 66.8537C43.277 66.8964 43.283 66.9394 43.2977 66.9797C43.3123 67.0199 43.3352 67.0567 43.3648 67.0877C43.4671 67.1437 43.5817 67.1733 43.6983 67.1738L43.6675 67.361H42.5849L42.8249 66.4006L42.7792 66.3847C42.5881 66.6796 42.3556 66.9453 42.0889 67.1738C41.8923 67.3287 41.6497 67.4137 41.3996 67.4153C41.2747 67.4223 41.1501 67.3974 41.0375 67.3428C40.925 67.2883 40.8281 67.206 40.756 67.1036C40.6009 66.892 40.5234 66.5953 40.5234 66.2134C40.5249 65.9661 40.5534 65.7197 40.6084 65.4786C40.6634 65.2381 40.7468 65.0049 40.8569 64.7841C40.9643 64.5719 41.0997 64.3751 41.2595 64.1991C41.4159 64.0357 41.5995 63.9007 41.8021 63.8004C42.0128 63.7003 42.2434 63.6497 42.4765 63.6525C42.628 63.6506 42.7791 63.6689 42.9258 63.7068C43.0794 63.7499 43.2257 63.8155 43.3602 63.9015L43.3574 63.9024ZM37.3793 66.0337C37.356 66.1666 37.341 66.2677 37.3326 66.3454C37.3266 66.4129 37.3241 66.4807 37.3252 66.5485C37.3252 66.7516 37.3635 66.892 37.4494 66.9856C37.5353 67.0792 37.682 67.1186 37.8903 67.1186C38.0113 67.1214 38.1312 67.0947 38.2396 67.0409C38.3556 66.9877 38.4607 66.9134 38.5497 66.8218C38.6557 66.7197 38.7446 66.6012 38.8131 66.4708C38.8976 66.3189 38.9677 66.1594 39.0224 65.9944C39.0849 65.8116 39.1315 65.6237 39.1615 65.4328C39.1936 65.2548 39.2117 65.0745 39.2157 64.8936C39.2157 64.6278 39.1774 64.4256 39.0999 64.3002C39.0654 64.2362 39.0137 64.1832 38.9506 64.1473C38.8875 64.1114 38.8156 64.094 38.7431 64.0971C38.6061 64.1018 38.4738 64.1481 38.3638 64.23C38.2098 64.3526 38.0717 64.4941 37.9529 64.6512C37.8162 64.8278 37.6993 65.019 37.6045 65.2212C37.5192 65.4308 37.4542 65.648 37.4102 65.8699L37.3793 66.0337ZM36.9301 68.0405C36.9045 68.1325 36.8864 68.2264 36.8759 68.3213C36.8759 68.384 36.8675 68.4383 36.8675 68.4851C36.8667 68.5473 36.8801 68.6087 36.9067 68.6649C36.9343 68.7077 36.9749 68.7405 37.0225 68.7585C37.1077 68.7877 37.1962 68.8062 37.2859 68.8137L37.2551 69.0009H36.0903L37.0515 64.7607C37.094 64.5815 37.1175 64.3983 37.1215 64.2141C37.1265 64.1553 37.1159 64.0962 37.0907 64.0428C37.0635 64.0043 37.0259 63.9744 36.9824 63.9567C36.8958 63.9346 36.8072 63.9214 36.718 63.9174L36.7647 63.7143L37.6175 63.6834H37.8342L37.5867 64.6784L37.625 64.6943C38.0976 63.9997 38.5591 63.6562 39.0205 63.6562C39.1458 63.6513 39.2704 63.678 39.3827 63.7339C39.495 63.7899 39.5914 63.8732 39.6631 63.9763C39.8182 64.1869 39.8882 64.4837 39.8882 64.8665C39.8904 65.146 39.8539 65.4245 39.7799 65.6939C39.711 65.9565 39.6067 66.2084 39.4698 66.4427C39.3515 66.6489 39.2025 66.8357 39.028 66.9969C38.875 67.1334 38.6992 67.2418 38.5086 67.317C38.3286 67.3892 38.1365 67.4264 37.9426 67.4265C37.6461 67.4363 37.3535 67.3574 37.1019 67.2L36.9301 68.0405ZM34.8611 65.0453C34.8817 64.9551 34.8969 64.8639 34.9069 64.772C34.9169 64.6893 34.9222 64.6062 34.9227 64.523C34.934 64.3695 34.8899 64.217 34.7985 64.0933C34.7135 63.9997 34.5743 63.9529 34.3801 63.9529C34.1607 63.9559 33.9494 64.0361 33.7832 64.1795C33.6743 64.2682 33.5797 64.3734 33.503 64.4912C33.4061 64.638 33.3253 64.7949 33.262 64.9592C33.1911 65.1526 33.1343 65.3509 33.092 65.5526C33.0549 65.7586 33.0367 65.9676 33.0378 66.1769C33.0378 66.4353 33.0686 66.6384 33.1377 66.7629C33.1732 66.8277 33.2262 66.8811 33.2907 66.9171C33.3551 66.953 33.4284 66.97 33.502 66.966C33.5874 66.9621 33.6715 66.9434 33.7505 66.9108C33.8527 66.8595 33.947 66.794 34.0307 66.7161C34.1564 66.5836 34.2729 66.4425 34.3791 66.2939C34.4933 66.1361 34.5895 65.9659 34.6659 65.7866C34.7422 65.5976 34.7992 65.4012 34.8359 65.2007L34.8611 65.0453ZM35.1936 63.9061L35.543 63.6562L35.783 63.718L35.2142 66.2977C35.1749 66.454 35.1516 66.571 35.1367 66.6496C35.1217 66.7282 35.1208 66.8059 35.1208 66.8527C35.1178 66.8956 35.1239 66.9386 35.1387 66.979C35.1535 67.0193 35.1767 67.056 35.2067 67.0867C35.3087 67.1427 35.423 67.1724 35.5392 67.1728L35.5084 67.36H34.4249L34.6649 66.3997L34.6182 66.3838C34.4277 66.6788 34.1955 66.9446 33.9289 67.1728C33.7318 67.3277 33.4891 67.4126 33.2386 67.4143C33.1144 67.4209 32.9905 67.3957 32.8786 67.3412C32.7667 67.2867 32.6704 67.2046 32.5988 67.1026C32.4437 66.8911 32.3662 66.5944 32.3662 66.2125C32.3677 65.9652 32.3962 65.7188 32.4512 65.4777C32.5057 65.237 32.5892 65.0038 32.6997 64.7832C32.8071 64.571 32.9425 64.3742 33.1023 64.1982C33.2587 64.0347 33.4423 63.8998 33.6449 63.7994C33.8555 63.6992 34.0862 63.6486 34.3193 63.6515C34.4708 63.6498 34.6219 63.668 34.7686 63.7058C34.921 63.7493 35.0661 63.8153 35.1992 63.9015L35.1936 63.9061Z" fill="white"/>
</g>
<defs>
<clipPath id="clip0">
<rect width="102" height="69" fill="white"/>
</clipPath>
</defs>
</svg>
