<svg width="52" height="52" viewBox="0 0 52 52" fill="none" xmlns="http://www.w3.org/2000/svg">
<path d="M52 26C52 40.3594 40.3594 52 26 52C11.6406 52 0 40.3594 0 26C0 11.6406 11.6406 0 26 0C40.3594 0 52 11.6406 52 26Z" fill="url(#paint0_linear)"/>
<path d="M5.48965 47.6936C6.17372 46.5817 7.65318 44.6435 5.95247 42.5176C5.52916 41.9885 4.80541 41.0631 4.80541 41.0631C4.80541 41.0631 18.2576 50.7452 15.1994 49.6575C12.1411 48.5697 10.6294 49.3205 9.35388 49.7456C8.07835 50.1708 2.4855 51.8782 0.684316 51.9453C1.35803 51.6316 4.55069 49.2197 5.48965 47.6936Z" fill="url(#paint1_linear)"/>
<circle cx="25.9357" cy="25.9357" r="22.5344" fill="#05102B"/>
<mask id="mask0" style="mask-type:alpha" maskUnits="userSpaceOnUse" x="3" y="3" width="46" height="46">
<circle cx="25.9357" cy="25.9357" r="22.5344" fill="#C4C4C4"/>
</mask>
<g mask="url(#mask0)">
</g>
<circle cx="43.368" cy="46.7695" r="4.25176" fill="url(#paint2_linear)"/>
<path d="M23.491 22.8532C23.491 24.4355 24.7787 25.7232 26.361 25.7232C27.9433 25.7232 29.2309 24.4355 29.2309 22.8532C29.2309 21.2709 27.9433 19.9833 26.361 19.9833C24.7787 19.9833 23.491 21.2709 23.491 22.8532ZM31.4631 32.1008H32.1009V31.463C32.1009 29.0019 30.0976 26.9987 27.6365 26.9987H25.0854C22.6237 26.9987 20.6211 29.0019 20.6211 31.463V32.1008H31.4631Z" fill="#DCDBD9"/>
<defs>
<linearGradient id="paint0_linear" x1="11.9049" y1="-12.7553" x2="42.5176" y2="63.3513" gradientUnits="userSpaceOnUse">
<stop stop-color="#FDDDB1"/>
<stop offset="1" stop-color="#45547A"/>
</linearGradient>
<linearGradient id="paint1_linear" x1="11.9049" y1="-12.7553" x2="42.5176" y2="63.3513" gradientUnits="userSpaceOnUse">
<stop stop-color="#FDDDB1"/>
<stop offset="1" stop-color="#45547A"/>
</linearGradient>
<linearGradient id="paint2_linear" x1="39.1162" y1="37.5573" x2="43.368" y2="54.2101" gradientUnits="userSpaceOnUse">
<stop stop-color="#6FDA6D"/>
<stop offset="1" stop-color="#1F641E"/>
</linearGradient>
</defs>
</svg>
