<svg width="52" height="52" viewBox="0 0 52 52" fill="none" xmlns="http://www.w3.org/2000/svg">
<path d="M52 26C52 40.3594 40.3594 52 26 52C11.6406 52 0 40.3594 0 26C0 11.6406 11.6406 0 26 0C40.3594 0 52 11.6406 52 26Z" fill="url(#paint0_linear)"/>
<path d="M5.48965 47.6936C6.17372 46.5817 7.65318 44.6435 5.95247 42.5176C5.52916 41.9885 4.80541 41.0631 4.80541 41.0631C4.80541 41.0631 18.2576 50.7452 15.1994 49.6575C12.1411 48.5697 10.6294 49.3205 9.35388 49.7456C8.07835 50.1708 2.4855 51.8782 0.684316 51.9453C1.35803 51.6316 4.55069 49.2197 5.48965 47.6936Z" fill="url(#paint1_linear)"/>
<circle cx="25.9357" cy="25.9358" r="22.5344" fill="#05102B"/>
<mask id="mask0" style="mask-type:alpha" maskUnits="userSpaceOnUse" x="3" y="3" width="46" height="46">
<circle cx="25.9357" cy="25.9358" r="22.5344" fill="#C4C4C4"/>
</mask>
<g mask="url(#mask0)">
<path d="M15.5343 27.172V21.0124H18.9584V21.8638H16.5299V23.399H18.9584V24.2736H16.5299V26.2415H18.9584V27.172H15.5343ZM21.3961 27.172V21.0124H22.736C24.2386 21.0124 25.6529 21.0636 26.3275 22.6314C26.5125 23.094 26.6012 23.5895 26.588 24.0875C26.5962 24.5835 26.5028 25.0759 26.3135 25.5344C25.6901 26.9998 24.434 27.172 23.0058 27.172H21.3961ZM22.401 26.2415H23.2384C24.2154 26.2415 25.0016 26.1159 25.3971 25.1017C25.5201 24.7732 25.58 24.4244 25.5738 24.0736C25.5807 23.7227 25.5207 23.3738 25.3971 23.0454C24.9877 21.9894 24.1363 21.901 23.1221 21.901H22.401V26.2415ZM30.5424 27.3813L27.8023 21.0078H28.8397L30.2354 24.2643C30.378 24.5797 30.4886 24.9085 30.5657 25.2459C30.6456 24.9093 30.7561 24.5808 30.896 24.2643L32.2917 21.0078H33.3198L30.5424 27.3813ZM34.9946 27.172V21.0124H38.4186V21.8638H35.9902V23.399H38.4186V24.2736H35.9902V26.2415H38.4186V27.172H34.9946ZM40.1539 27.172L42.1404 23.9619L40.3819 21.0357H41.4286L42.3125 22.5197C42.4335 22.7151 42.5358 22.9245 42.6382 23.1245C42.7452 22.9245 42.8569 22.7244 42.9778 22.529L43.9083 21.0171H44.9317L43.1406 23.9154L45.0667 27.172H43.9687L42.9406 25.432C42.8289 25.232 42.7219 25.018 42.6149 24.8133C42.5126 25.018 42.4009 25.2227 42.28 25.4181L41.2053 27.172H40.1539ZM7.35107 27.172V20.7751L11.2357 24.5202C11.4708 24.756 11.6929 25.0045 11.9009 25.2645V21.0124H12.8314V27.386L8.85839 23.5711C8.64061 23.3604 8.44282 23.1299 8.26756 22.8826V27.172H7.35107Z" fill="#DCDBD9"/>
<path d="M44.0339 30.8072V30.4583H45.0667C45.0786 30.6433 45.0517 30.8287 44.9876 31.0025C44.9235 31.1764 44.8236 31.3349 44.6945 31.4679C44.581 31.575 44.4472 31.6582 44.301 31.7126C44.1547 31.7669 43.999 31.7913 43.8431 31.7842C43.6853 31.7905 43.528 31.7635 43.3813 31.705C43.2346 31.6465 43.1019 31.5578 42.9918 31.4446C42.8703 31.3225 42.7747 31.1772 42.7108 31.0173C42.6468 30.8575 42.6158 30.6863 42.6196 30.5142C42.6187 30.3343 42.6518 30.1559 42.7173 29.9885C42.779 29.8378 42.869 29.7005 42.9825 29.5837C43.1008 29.4666 43.2416 29.3748 43.3965 29.3139C43.5859 29.2384 43.7891 29.2039 43.9928 29.2128C44.1965 29.2216 44.396 29.2735 44.5782 29.3651C44.7432 29.4539 44.8825 29.5837 44.9829 29.7419L44.6805 29.9559C44.601 29.8392 44.496 29.7422 44.3735 29.6721C44.2325 29.5907 44.0709 29.5519 43.9083 29.5605C43.7857 29.5579 43.6638 29.5796 43.5496 29.6243C43.4354 29.669 43.3312 29.7359 43.243 29.821C43.1578 29.9108 43.0913 30.0168 43.0476 30.1327C43.0008 30.256 42.9772 30.3869 42.9778 30.5188C42.972 30.7707 43.0656 31.0147 43.2383 31.198C43.3193 31.282 43.4171 31.3478 43.5254 31.3911C43.6336 31.4344 43.7499 31.4542 43.8664 31.4493C43.9697 31.4521 44.0726 31.4337 44.1686 31.3953C44.2646 31.3569 44.3517 31.2993 44.4246 31.2259C44.5425 31.1142 44.6167 30.9641 44.634 30.8026L44.0339 30.8072ZM38.5396 31.7377H38.1581V29.0906L39.9771 30.9887V29.2581H40.3586V31.9098L38.5396 30.0117V31.7377ZM35.3947 29.2394H35.7808V31.7377H35.3947V29.2394ZM33.2826 29.5977H32.7057V31.7377H32.3242V29.5977H31.7473V29.2394H33.2826V29.5977ZM28.8676 29.2394H29.2491V31.3795H29.9841V31.7377H28.8676V29.2394ZM24.6294 29.2394H25.0156V30.7468C25.0044 30.8939 25.0317 31.0414 25.0947 31.1748C25.1408 31.2496 25.2048 31.3119 25.2808 31.3562C25.3646 31.4081 25.4613 31.4356 25.5599 31.4356C25.6585 31.4356 25.7552 31.4081 25.839 31.3562C25.9139 31.3105 25.9776 31.2485 26.0251 31.1748C26.0849 31.0404 26.112 30.8937 26.1042 30.7468V29.2581H26.4857V30.8631C26.4947 31.102 26.4114 31.3352 26.2531 31.5144C26.1656 31.6101 26.0582 31.6856 25.9384 31.7354C25.8187 31.7852 25.6895 31.8083 25.5599 31.8028C25.4299 31.8062 25.3006 31.7823 25.1804 31.7326C25.0602 31.6829 24.9517 31.6086 24.8621 31.5144C24.7037 31.3352 24.6204 31.102 24.6294 30.8631V29.2394ZM22.3033 29.6163L21.9963 29.7931C21.9733 29.7329 21.9348 29.6799 21.8846 29.6395C21.8082 29.5782 21.7128 29.5453 21.6148 29.5465C21.5677 29.5431 21.5203 29.5491 21.4756 29.5643C21.4308 29.5795 21.3896 29.6035 21.3543 29.6349C21.3242 29.6617 21.3004 29.6948 21.2843 29.7317C21.2683 29.7686 21.2604 29.8086 21.2612 29.8489C21.2612 29.9745 21.3496 30.0768 21.5311 30.1513L21.7823 30.2536C21.9908 30.2826 22.1793 30.3933 22.3062 30.5612C22.4331 30.7292 22.4882 30.9407 22.4592 31.1492C22.4302 31.3577 22.3195 31.5462 22.1516 31.6731C21.9836 31.8001 21.7721 31.8551 21.5636 31.8261C21.4538 31.8308 21.3442 31.8112 21.2429 31.7685C21.1415 31.7259 21.0509 31.6614 20.9774 31.5795C20.8545 31.4446 20.7793 31.2729 20.7634 31.091L21.1449 31.0073C21.1426 31.1227 21.1785 31.2356 21.2473 31.3283C21.2872 31.3768 21.3378 31.4154 21.3951 31.4413C21.4523 31.4671 21.5148 31.4794 21.5776 31.4772C21.6318 31.4789 21.6858 31.4695 21.7362 31.4495C21.7866 31.4295 21.8324 31.3993 21.8707 31.3609C21.9107 31.3216 21.9421 31.2744 21.9629 31.2224C21.9837 31.1703 21.9935 31.1145 21.9916 31.0585C21.9944 31.0095 21.9867 30.9606 21.9691 30.9148C21.9514 30.8691 21.9242 30.8277 21.8893 30.7933C21.8133 30.7233 21.7249 30.6681 21.6288 30.6305L21.3868 30.5281C21.2459 30.4905 21.1206 30.4089 21.0294 30.295C20.9382 30.1812 20.8857 30.0412 20.8797 29.8954C20.8792 29.8087 20.8962 29.7228 20.9298 29.6428C20.9634 29.5628 21.0128 29.4905 21.0751 29.4302C21.1469 29.3641 21.2313 29.3131 21.3232 29.2803C21.4151 29.2475 21.5127 29.2336 21.6101 29.2394C21.7925 29.2318 21.9713 29.2914 22.1126 29.4069C22.1902 29.47 22.2549 29.5474 22.3033 29.6349V29.6163ZM16.7207 31.7377H16.3531V29.0906L18.1722 30.9887V29.2581H18.5536V31.9098L16.716 30.0117L16.7207 31.7377ZM12.115 31.1701C12.2008 31.2575 12.3039 31.3261 12.4176 31.3718C12.5312 31.4174 12.6531 31.439 12.7756 31.4353C12.8987 31.4391 13.0213 31.4175 13.1358 31.3719C13.2502 31.3263 13.3541 31.2576 13.4408 31.1701C13.606 30.9824 13.6971 30.7409 13.6971 30.4909C13.6971 30.2409 13.606 29.9994 13.4408 29.8117C13.3541 29.7242 13.2502 29.6555 13.1358 29.6099C13.0213 29.5643 12.8987 29.5427 12.7756 29.5465C12.6531 29.5428 12.5312 29.5644 12.4176 29.61C12.3039 29.6557 12.2008 29.7243 12.115 29.8117C11.9498 29.9994 11.8587 30.2409 11.8587 30.4909C11.8587 30.7409 11.9498 30.9824 12.115 31.1701ZM11.8451 29.5651C12.0603 29.3404 12.3469 29.1977 12.6558 29.1612C12.9647 29.1248 13.2767 29.1969 13.5382 29.3654C13.7998 29.5338 13.9945 29.788 14.0891 30.0843C14.1838 30.3806 14.1723 30.7006 14.0568 30.9894C13.9413 31.2782 13.7289 31.5179 13.456 31.6672C13.1831 31.8165 12.8668 31.8662 12.5612 31.8078C12.2557 31.7494 11.98 31.5866 11.7815 31.3471C11.5829 31.1077 11.4738 30.8066 11.4729 30.4955C11.47 30.3267 11.501 30.159 11.5642 30.0023C11.6273 29.8457 11.7213 29.7033 11.8405 29.5837L11.8451 29.5651ZM9.34223 29.3744V29.8396C9.15993 29.663 8.91681 29.5631 8.66301 29.5605C8.54004 29.5559 8.41751 29.5776 8.30359 29.6241C8.18967 29.6706 8.08699 29.7409 8.00239 29.8303C7.83145 30.016 7.74111 30.2619 7.75117 30.5142C7.74703 30.6369 7.768 30.7593 7.8128 30.8737C7.8576 30.9881 7.92528 31.0921 8.0117 31.1794C8.09577 31.2682 8.19769 31.3381 8.31076 31.3846C8.42383 31.4311 8.54546 31.4532 8.66766 31.4493C8.92177 31.4459 9.16424 31.3422 9.34223 31.1608V31.626C9.13441 31.7507 8.89602 31.8151 8.6537 31.8121C8.48435 31.814 8.31632 31.7821 8.15944 31.7183C8.00256 31.6545 7.85996 31.56 7.73999 31.4405C7.62001 31.3209 7.52506 31.1787 7.46068 31.022C7.3963 30.8654 7.36379 30.6975 7.36504 30.5281C7.35866 30.3458 7.39149 30.1642 7.46132 29.9957C7.53114 29.8271 7.63633 29.6755 7.76978 29.5511C7.8914 29.4402 8.03372 29.3543 8.1886 29.2984C8.34347 29.2425 8.50785 29.2177 8.67231 29.2255C8.90564 29.2154 9.13684 29.2736 9.33758 29.393L9.34223 29.3744Z" fill="#DCDBD9"/>
</g>
<circle cx="43.368" cy="46.7686" r="4.25176" fill="url(#paint2_linear)"/>
<defs>
<linearGradient id="paint0_linear" x1="11.9049" y1="-12.7553" x2="42.5176" y2="63.3513" gradientUnits="userSpaceOnUse">
<stop stop-color="#FDDDB1"/>
<stop offset="1" stop-color="#45547A"/>
</linearGradient>
<linearGradient id="paint1_linear" x1="11.9049" y1="-12.7553" x2="42.5176" y2="63.3513" gradientUnits="userSpaceOnUse">
<stop stop-color="#FDDDB1"/>
<stop offset="1" stop-color="#45547A"/>
</linearGradient>
<linearGradient id="paint2_linear" x1="39.1162" y1="37.5565" x2="43.368" y2="54.2092" gradientUnits="userSpaceOnUse">
<stop stop-color="#6FDA6D"/>
<stop offset="1" stop-color="#1F641E"/>
</linearGradient>
</defs>
</svg>
