<svg width="52" height="52" fill="none" xmlns="http://www.w3.org/2000/svg"><path d="M52 26c0 14.36-11.64 26-26 26S0 40.36 0 26 11.64 0 26 0s26 11.64 26 26z" fill="url(#paint0_linear)"/><path d="M5.49 47.694c.684-1.112 2.163-3.05.462-5.176a222.77 222.77 0 01-1.147-1.455s13.453 9.682 10.394 8.594c-3.058-1.087-4.57-.336-5.845.089-1.276.425-6.868 2.132-8.67 2.2.674-.314 3.867-2.726 4.806-4.252z" fill="url(#paint1_linear)"/><circle cx="25.936" cy="25.936" r="22.534" fill="#05102B"/><mask id="mask0" style="mask-type:alpha" maskUnits="userSpaceOnUse" x="3" y="3" width="46" height="46"><circle cx="25.936" cy="25.936" r="22.534" fill="#C4C4C4"/></mask><circle cx="43.368" cy="46.77" r="4.252" fill="url(#paint2_linear)"/><path d="M23.491 22.853a2.874 2.874 0 002.87 2.87 2.873 2.873 0 002.87-2.87 2.873 2.873 0 00-2.87-2.87 2.873 2.873 0 00-2.87 2.87zm7.972 9.248h.638v-.638a4.47 4.47 0 00-4.464-4.464h-2.552a4.47 4.47 0 00-4.464 4.464v.638h10.842z" fill="#DCDBD9"/><defs><linearGradient id="paint0_linear" x1="11.905" y1="-12.755" x2="42.518" y2="63.351" gradientUnits="userSpaceOnUse"><stop stop-color="#FDDDB1"/><stop offset="1" stop-color="#45547A"/></linearGradient><linearGradient id="paint1_linear" x1="11.905" y1="-12.755" x2="42.518" y2="63.351" gradientUnits="userSpaceOnUse"><stop stop-color="#FDDDB1"/><stop offset="1" stop-color="#45547A"/></linearGradient><linearGradient id="paint2_linear" x1="39.116" y1="37.557" x2="43.368" y2="54.21" gradientUnits="userSpaceOnUse"><stop stop-color="#6FDA6D"/><stop offset="1" stop-color="#1F641E"/></linearGradient></defs></svg>