<svg width="52" height="52" fill="none" xmlns="http://www.w3.org/2000/svg"><path d="M52 26c0 14.36-11.64 26-26 26S0 40.36 0 26 11.64 0 26 0s26 11.64 26 26z" fill="url(#paint0_linear)"/><path d="M5.49 47.694c.684-1.112 2.163-3.05.462-5.176a222.77 222.77 0 01-1.147-1.455s13.453 9.682 10.394 8.594c-3.058-1.087-4.57-.336-5.845.089-1.276.425-6.868 2.132-8.67 2.2.674-.314 3.867-2.726 4.806-4.252z" fill="url(#paint1_linear)"/><circle cx="25.936" cy="25.936" r="22.534" fill="#05102B"/><mask id="mask0" style="mask-type:alpha" maskUnits="userSpaceOnUse" x="3" y="3" width="46" height="46"><circle cx="25.936" cy="25.936" r="22.534" fill="#C4C4C4"/></mask><g mask="url(#mask0)" fill="#DCDBD9"><path d="M15.534 27.172v-6.16h3.424v.852H16.53v1.535h2.428v.875H16.53v1.967h2.428v.931h-3.424zm5.862 0v-6.16h1.34c1.503 0 2.917.052 3.591 1.62.185.462.274.957.261 1.455.008.497-.085.989-.274 1.447-.624 1.466-1.88 1.638-3.308 1.638h-1.61zm1.005-.93h.837c.977 0 1.764-.126 2.16-1.14a2.82 2.82 0 00.176-1.028 2.76 2.76 0 00-.177-1.029c-.41-1.056-1.26-1.144-2.275-1.144h-.721v4.34zm8.141 1.14l-2.74-6.374h1.038l1.395 3.256c.143.316.254.645.33.982.08-.337.191-.665.331-.982l1.396-3.256h1.028l-2.778 6.373zm4.453-.21v-6.16h3.424v.852H35.99v1.535h2.429v.875H35.99v1.967h2.429v.931h-3.424zm5.159 0l1.986-3.21-1.758-2.926h1.047l.883 1.484c.122.195.224.404.326.605.107-.2.219-.4.34-.596l.93-1.512h1.024l-1.791 2.898 1.926 3.257h-1.098l-1.028-1.74c-.112-.2-.22-.414-.326-.619a7.43 7.43 0 01-.335.605l-1.075 1.754h-1.051zm-32.803 0v-6.397l3.885 3.745c.235.236.457.485.665.745v-4.253h.93v6.374l-3.973-3.815a4.901 4.901 0 01-.59-.688v4.289H7.35zm36.683 3.635v-.349h1.033a1.327 1.327 0 01-.373 1.01 1.166 1.166 0 01-.85.316 1.125 1.125 0 01-.852-.34 1.278 1.278 0 01-.372-.93c-.001-.18.032-.358.097-.526a1.211 1.211 0 01.68-.674 1.44 1.44 0 011.181.051c.165.089.304.219.405.377l-.302.214a.93.93 0 00-.307-.284.842.842 0 00-.466-.111.93.93 0 00-.665.26.93.93 0 00-.195.312c-.047.123-.07.254-.07.386a.958.958 0 00.26.679.823.823 0 00.628.251.759.759 0 00.559-.223.683.683 0 00.209-.423l-.6.004zm-5.494.93h-.382v-2.646l1.82 1.898v-1.73h.38v2.65l-1.818-1.897v1.726zm-3.145-2.498h.386v2.499h-.386v-2.499zm-2.112.359h-.577v2.14h-.382v-2.14h-.577v-.359h1.536v.359zm-4.415-.359h.381v2.14h.735v.359h-1.116v-2.499zm-4.239 0h.387v1.508a.851.851 0 00.079.428c.046.075.11.137.186.181a.53.53 0 00.558 0 .582.582 0 00.186-.181.931.931 0 00.08-.428v-1.489h.38v1.605a.93.93 0 01-.232.651.889.889 0 01-.693.289.93.93 0 01-.698-.289.93.93 0 01-.233-.65v-1.625zm-2.326.377l-.307.177a.364.364 0 00-.111-.153.423.423 0 00-.27-.093.354.354 0 00-.26.088.279.279 0 00-.094.214c0 .125.089.228.27.302l.251.103a.794.794 0 01-.218 1.572.744.744 0 01-.587-.247.833.833 0 01-.214-.488l.382-.084a.521.521 0 00.102.321.41.41 0 00.33.15.396.396 0 00.294-.117.405.405 0 00.12-.303.345.345 0 00-.102-.265.832.832 0 00-.26-.162l-.242-.103a.684.684 0 01-.507-.633.643.643 0 01.443-.615.725.725 0 01.287-.04.745.745 0 01.503.167c.077.063.142.14.19.228v-.019zm-5.582 2.122h-.368V29.09l1.82 1.898v-1.73h.38v2.65l-1.837-1.897.005 1.726zm-4.606-.568a.888.888 0 00.66.265.899.899 0 00.666-.265 1.028 1.028 0 000-1.358.897.897 0 00-.665-.265.889.889 0 00-.661.265 1.028 1.028 0 000 1.358zm-.27-1.605a1.34 1.34 0 11-.28.437 1.26 1.26 0 01.276-.418l.004-.019zm-2.503-.19v.465a.99.99 0 00-1.038-.216.864.864 0 00-.302.206.954.954 0 00-.25.684.903.903 0 00.26.665.865.865 0 00.656.27.963.963 0 00.674-.288v.465c-.208.125-.446.19-.688.186a1.274 1.274 0 01-1.289-1.284 1.274 1.274 0 01.405-.977 1.253 1.253 0 01.902-.325 1.2 1.2 0 01.666.167l.004-.019z"/></g><circle cx="43.368" cy="46.769" r="4.252" fill="url(#paint2_linear)"/><defs><linearGradient id="paint0_linear" x1="11.905" y1="-12.755" x2="42.518" y2="63.351" gradientUnits="userSpaceOnUse"><stop stop-color="#FDDDB1"/><stop offset="1" stop-color="#45547A"/></linearGradient><linearGradient id="paint1_linear" x1="11.905" y1="-12.755" x2="42.518" y2="63.351" gradientUnits="userSpaceOnUse"><stop stop-color="#FDDDB1"/><stop offset="1" stop-color="#45547A"/></linearGradient><linearGradient id="paint2_linear" x1="39.116" y1="37.556" x2="43.368" y2="54.209" gradientUnits="userSpaceOnUse"><stop stop-color="#6FDA6D"/><stop offset="1" stop-color="#1F641E"/></linearGradient></defs></svg>