<svg width="480" height="251" fill="none" xmlns="http://www.w3.org/2000/svg"><g opacity=".2" fill-rule="evenodd" clip-rule="evenodd" fill="#1C2A4D"><path d="M473.612 213.561v28.741h-3.193v-28.819c1.066.03 2.13.056 3.193.078zm-18.093-.722v29.463h-3.193v-29.661c1.066.069 2.13.135 3.193.198zm-18.093-1.394v30.857h-3.193v-31.171c1.066.108 2.13.213 3.193.314zm-18.093-2.04v32.897h-3.193V208.98c1.065.145 2.13.286 3.193.425zm-18.093-2.664v35.561h-3.193v-36.094c1.065.181 2.13.359 3.193.533zm-18.093-3.269v38.83h-3.193v-39.468c1.065.216 2.129.429 3.193.638zm-18.093-3.858v42.688h-3.193v-43.429c1.065.25 2.129.497 3.193.741zm-18.093-4.435v47.123h-3.193v-47.965a655.3 655.3 0 003.193.842zm-18.093-5.002v52.125h-3.193v-53.066c1.065.317 2.129.63 3.193.941zm-18.093-5.56v57.685h-3.193v-58.724c1.064.349 2.129.696 3.193 1.039zm-18.093-6.113v63.798h-3.193v-64.933c1.064.381 2.129.76 3.193 1.135zm-18.093-6.661v70.459h-3.193v-71.691c1.064.414 2.129.824 3.193 1.232zm-18.093-7.207v77.666h-3.193v-78.995a673.1 673.1 0 003.193 1.329zm-18.094-7.754v85.42h-3.192v-86.845c1.064.478 2.128.953 3.192 1.425zm-18.093-8.302v93.722h-3.192v-95.244c1.064.51 2.128 1.018 3.192 1.522zm-18.093-8.853v102.575h-3.193V138.107c1.065.543 2.129 1.083 3.193 1.62zm-18.093-9.41v111.985h-3.193V128.598c1.064.576 2.129 1.149 3.193 1.719zm-18.093-9.974v121.959h-3.193V118.524c1.064.609 2.129 1.216 3.193 1.819zm-18.093-10.547v132.506h-3.193V107.874c1.064.644 2.128 1.284 3.193 1.922zm-18.093-11.132v143.638h-3.193V96.638a1001.9 1001.9 0 003.193 2.026zm-18.093-11.73v155.368h-3.193V84.8a928.34 928.34 0 003.193 2.133zM93.658 74.587v167.714h-3.193V72.344c1.064.75 2.128 1.499 3.193 2.244zm-18.093-12.98v180.694h-3.193V59.252c1.064.788 2.128 1.574 3.193 2.357zM57.472 47.975v194.328h-3.193V45.498c1.063.829 2.128 1.654 3.193 2.476zM39.379 33.66v208.643h-3.193V31.06a967.75 967.75 0 003.193 2.599zM21.286 18.633v223.669h-3.193V15.905c1.063.912 2.127 1.822 3.193 2.728zM3.193 2.863v239.439H0V0c1.063.957 2.127 1.912 3.193 2.863z"/><path d="M476.807 223.893v18.413h-6.386v-18.437c2.131.016 4.259.024 6.386.024zm-18.093-.19v18.603h-6.386v-18.76c2.13.06 4.259.113 6.386.157zm-18.093-.565v19.168h-6.386v-19.455c2.13.103 4.258.199 6.386.287zm-18.094-.933v20.101h-6.385v-20.517c2.129.146 4.258.285 6.385.416zm-18.093-1.296v21.397h-6.385v-21.941c2.129.189 4.258.37 6.385.544zm-18.093-1.656v23.053h-6.385v-23.723c2.129.231 4.257.454 6.385.67zm-18.093-2.013v25.066h-6.386v-25.862c2.129.273 4.258.538 6.386.796zm-18.093-2.369v27.435h-6.386v-28.357c2.129.315 4.257.622 6.386.922zm-18.093-2.726v30.161h-6.386v-31.208c2.128.356 4.257.705 6.386 1.047zm-18.093-3.083v33.244h-6.386v-34.418c2.128.399 4.257.79 6.386 1.174zm-18.093-3.443v36.687h-6.386v-37.989c2.128.441 4.256.875 6.386 1.302zm-18.093-3.808v40.495h-6.386v-41.927c2.127.485 4.256.962 6.386 1.432zm-18.093-4.178v44.673h-6.386v-46.237c2.127.529 4.255 1.05 6.386 1.564zm-18.093-4.554v49.227h-6.386V191.38c2.126.574 4.255 1.14 6.386 1.699zm-18.093-4.939v54.166h-6.386v-56.003c2.126.619 4.254 1.232 6.386 1.837zm-18.093-5.335v59.501h-6.386v-61.481c2.125.668 4.254 1.328 6.386 1.98zm-18.093-5.743v65.244h-6.386v-67.37c2.125.716 4.254 1.425 6.386 2.126zm-18.093-6.164v71.408h-6.386v-73.687c2.124.767 4.253 1.527 6.386 2.279zm-18.093-6.603v78.011h-6.386v-80.449c2.124.82 4.252 1.633 6.386 2.438zm-18.094-7.061v85.072h-6.385v-87.678c2.123.877 4.252 1.746 6.385 2.606zm-18.093-7.542v92.614h-6.385V146.91c2.123.936 4.251 1.863 6.385 2.782zm-18.093-8.05v100.664h-6.385V138.674c2.122.998 4.25 1.987 6.385 2.968zm-18.093-8.589v109.253h-6.385v-112.42a791.2 791.2 0 006.385 3.167zm-18.093-9.165v118.418H54.28V120.508a781.15 781.15 0 006.386 3.38zm-18.093-9.785v128.203h-6.386V110.493a715.958 715.958 0 006.386 3.61zM24.48 103.647v138.659h-6.386V99.786a691.533 691.533 0 006.386 3.861zM6.387 92.457v149.849H.001V88.318a672.2 672.2 0 006.386 4.14z"/><path d="M470.421 236.658a1325.862 1325.862 0 009.579.017V251h-9.579v-14.342zM9.581 155.669A922.464 922.464 0 010 151.91V251h9.58v-95.331zm452.326 80.915V251h-9.579v-14.564c3.205.06 6.398.11 9.579.148zm-18.093-.336c-3.183-.079-6.376-.17-9.579-.272V251h9.579v-14.752zm-18.093-.57c-3.184-.12-6.377-.252-9.579-.395V251h9.579v-15.322zm-18.093-.8c-3.185-.161-6.378-.333-9.579-.516V251h9.579v-16.122zm-18.093-1.027c-3.186-.201-6.379-.412-9.579-.635V251h9.579v-17.149zm-18.093-1.251c-3.187-.241-6.38-.491-9.579-.753V251h9.579v-18.4zm-18.093-1.475a1468.11 1468.11 0 01-9.579-.87V251h9.579v-19.875zm-18.094-1.696a1474.55 1474.55 0 01-9.578-.989V251h9.578v-21.571zm-18.093-1.92c-3.189-.358-6.382-.727-9.578-1.107V251h9.578v-23.491zm-18.093-2.144a1539 1539 0 01-9.578-1.226V251h9.578v-25.635zm-18.093-2.37c-3.191-.438-6.384-.888-9.578-1.348V251h9.578v-28.005zm-18.093-2.6c-3.192-.479-6.385-.97-9.578-1.471V251h9.578v-30.605zm-18.093-2.834c-3.193-.521-6.386-1.053-9.579-1.596V251h9.579v-33.439zm-18.093-3.071c-3.194-.564-6.387-1.139-9.579-1.725V251h9.579v-36.51zm-18.093-3.316c-3.195-.608-6.388-1.227-9.579-1.857V251h9.579v-39.826zm-18.093-3.567c-3.196-.653-6.389-1.317-9.579-1.993V251h9.579v-43.393zm-18.093-3.826c-3.197-.699-6.39-1.41-9.579-2.133V251h9.579v-47.219zm-18.093-4.094c-3.198-.747-6.391-1.507-9.579-2.279V251h9.579v-51.313zm-18.093-4.372c-3.199-.798-6.392-1.609-9.579-2.431V251h9.579v-55.685zm-18.093-4.662c-3.2-.851-6.393-1.715-9.579-2.591V251h9.579v-60.347zm-18.093-4.967c-3.2-.906-6.394-1.825-9.579-2.757V251h9.579v-65.314zm-18.093-5.285a1121.43 1121.43 0 01-9.58-2.934V251h9.58v-70.599zm-18.094-5.623a1031.771 1031.771 0 01-9.578-3.12V251h9.578v-76.222zm-18.093-5.98a986.176 986.176 0 01-9.578-3.319V251h9.578v-82.202zm-18.093-6.361a942.37 942.37 0 01-9.578-3.531V251h9.578v-88.563z"/></g></svg>