<svg width="1600" height="356" fill="none" xmlns="http://www.w3.org/2000/svg"><g opacity=".08" fill-rule="evenodd" clip-rule="evenodd" fill="#1C2A4D"><path d="M1589.36 302.314v40.685h-5.33v-40.794c1.78.042 3.55.078 5.33.109zm-30.16-1.022v41.707h-5.32v-41.987c1.77.098 3.55.192 5.32.28zm-30.16-1.973v43.68h-5.32v-44.124c1.77.153 3.55.301 5.32.444zm-30.16-2.888v46.568h-5.32v-47.17c1.78.205 3.55.406 5.32.602zm-30.16-3.77v50.338h-5.32v-51.094c1.78.257 3.55.508 5.32.756zm-30.15-4.628v54.966h-5.33v-55.87c1.78.306 3.55.607 5.33.904zm-30.16-5.462v60.428h-5.32v-61.477c1.77.354 3.55.704 5.32 1.049zm-30.16-6.278v66.706h-5.32v-67.898c1.77.402 3.55.799 5.32 1.192zm-30.16-7.081v73.787h-5.32V267.88c1.78.449 3.55.893 5.32 1.332zm-30.15-7.871v81.658h-5.33v-83.128c1.78.494 3.55.984 5.33 1.47zm-30.16-8.653v90.311h-5.32v-91.918c1.77.54 3.54 1.076 5.32 1.607zm-30.16-9.429v99.74h-5.32V241.515c1.77.585 3.55 1.167 5.32 1.744zm-30.16-10.203v109.943h-5.32V231.175c1.77.631 3.55 1.258 5.32 1.881zm-30.16-10.976v120.919h-5.32V220.062c1.78.677 3.55 1.349 5.32 2.018zm-30.15-11.752v132.671h-5.33V208.173c1.78.723 3.55 1.441 5.33 2.155zm-30.16-12.532v145.203h-5.32V195.502c1.77.769 3.54 1.533 5.32 2.294zm-30.16-13.321v158.524h-5.32V182.042c1.77.815 3.55 1.626 5.32 2.433zm-30.16-14.119v172.643h-5.32V167.781c1.78.862 3.55 1.721 5.32 2.575zm-30.15-14.931v187.574h-5.33V152.705c1.78.911 3.55 1.818 5.33 2.72zm-30.16-15.758v203.332h-5.32v-206.2c1.77.96 3.54 1.916 5.32 2.868zm-30.16-16.606v219.938h-5.322V120.041c1.773 1.011 3.547 2.018 5.322 3.02zm-30.158-17.475v237.413h-5.322v-240.59c1.773 1.063 3.547 2.122 5.322 3.177zm-30.157-18.373v255.786h-5.322V83.875c1.772 1.117 3.546 2.23 5.322 3.338zm-30.158-19.301v275.087h-5.322V64.407c1.773 1.172 3.547 2.34 5.322 3.505zm-30.158-20.265v295.352h-5.322V43.967c1.773 1.231 3.547 2.458 5.322 3.68zm-30.158-21.27v316.622h-5.322V22.515c1.773 1.291 3.547 2.578 5.322 3.861zM805.254 4.052v338.946h-5.322V0c1.772 1.355 3.546 2.706 5.322 4.053z"/><path d="M1594.68 316.936v26.062h-10.65v-26.095c3.56.022 7.1.033 10.65.033zm-30.16-.269v26.331h-10.64v-26.553c3.55.085 7.1.159 10.64.222zm-30.16-.799v27.13h-10.64v-27.537c3.55.146 7.1.282 10.64.407zm-30.15-1.321v28.451h-10.65v-29.04c3.55.207 7.1.403 10.65.589zm-30.16-1.835v30.286h-10.65v-31.056c3.55.268 7.1.524 10.65.77zm-30.16-2.344v32.63h-10.64V309.42c3.54.326 7.09.642 10.64.948zm-30.16-2.85v35.48h-10.64v-36.606c3.55.386 7.09.761 10.64 1.126zm-30.16-3.354v38.834h-10.64V302.86c3.55.445 7.1.88 10.64 1.304zm-30.15-3.858v42.692h-10.65v-44.174c3.55.504 7.1.999 10.65 1.482zm-30.16-4.364v47.056h-10.65V294.28c3.55.564 7.1 1.118 10.65 1.662zm-30.16-4.874v51.93h-10.64v-53.774c3.54.625 7.09 1.24 10.64 1.844zm-30.16-5.391v57.321h-10.64V283.65c3.54.686 7.09 1.362 10.64 2.027zm-30.15-5.913v63.234h-10.65V277.55c3.55.748 7.09 1.486 10.65 2.214zm-30.16-6.447v69.681h-10.65v-72.086c3.55.812 7.1 1.614 10.65 2.405zm-30.16-6.992v76.673h-10.64v-79.274c3.54.877 7.09 1.744 10.64 2.601zm-30.16-7.552v84.225h-10.64v-87.027c3.54.944 7.09 1.878 10.64 2.802zm-30.16-8.129v92.354h-10.64v-95.365c3.54 1.015 7.09 2.018 10.64 3.011zm-30.15-8.726v101.08h-10.65V238.691c3.54 1.087 7.09 2.162 10.65 3.227zm-30.16-9.347v110.427h-10.64V229.119c3.54 1.162 7.08 2.312 10.64 3.452zm-30.16-9.996v120.423h-10.64V218.887c3.54 1.241 7.08 2.47 10.64 3.688zm-30.156-10.676v131.099H980.88V207.961a1505.9 1505.9 0 0010.644 3.938zm-30.158-11.396v142.495h-10.644V196.302c3.537 1.412 7.085 2.813 10.644 4.201zm-30.158-12.158v154.653h-10.644V183.862c3.536 1.506 7.084 3.001 10.644 4.483zm-30.158-12.974v167.627h-10.644V170.586c3.535 1.608 7.083 3.203 10.644 4.785zm-30.158-13.851v181.478h-10.643V156.409c3.533 1.717 7.081 3.421 10.643 5.111zm-30.157-14.801v196.279h-10.644V141.252c3.532 1.836 7.08 3.658 10.644 5.467zm-30.158-15.841v212.12h-10.644V125.02c3.53 1.967 7.078 3.92 10.644 5.858z"/><path d="M1600 335.027v20.28h-15.97v-20.304c4.16.019 8.3.029 12.42.029 1.19 0 2.37-.002 3.55-.005zm-30.16-.13v20.41h-15.96v-20.619c5.34.086 10.66.155 15.96.209zm-30.16-.474v20.884h-15.96v-21.271c5.34.145 10.66.274 15.96.387zm-30.15-.808v21.692h-15.97v-22.251c5.34.202 10.66.389 15.97.559zm-30.16-1.132v22.824h-15.97v-23.554c5.34.258 10.66.502 15.97.73zm-30.16-1.454v24.278h-15.96V330.13c5.33.315 10.65.615 15.96.899zm-30.16-1.772v26.05h-15.96v-27.115c5.33.37 10.65.725 15.96 1.065zm-30.15-2.087v28.137h-15.97v-29.369c5.33.426 10.65.837 15.97 1.232zm-30.16-2.401v30.538h-15.97V323.37c5.33.481 10.65.948 15.97 1.399zm-30.16-2.718v33.256h-15.97v-34.823c5.33.538 10.65 1.06 15.97 1.567zm-30.16-3.034v36.29h-15.96V317.28c5.32.594 10.64 1.173 15.96 1.737zm-30.16-3.356v39.646h-15.96v-41.554c5.32.652 10.65 1.288 15.96 1.908zm-30.15-3.68v43.326h-15.97v-45.408c5.32.709 10.65 1.403 15.97 2.082zm-30.16-4.011v47.337h-15.97V305.71c5.32.769 10.65 1.522 15.97 2.26zm-30.16-4.349v51.686h-15.96V301.18a2747 2747 0 0015.96 2.441zm-30.16-4.694v56.38h-15.96v-59.008c5.32.892 10.64 1.768 15.96 2.628zm-30.15-5.049v61.429h-15.97v-64.25c5.32.957 10.64 1.897 15.97 2.821zm-30.16-5.416v66.845h-15.97v-69.864a2568.37 2568.37 0 0015.97 3.019zm-30.16-5.795v72.64h-15.97v-75.866c5.32 1.092 10.64 2.168 15.97 3.226zm-30.16-6.189v78.829h-15.96v-82.271c5.31 1.165 10.63 2.312 15.96 3.442zm-30.155-6.6v85.429h-15.966v-89.096a2235.72 2235.72 0 0015.966 3.667zm-30.158-7.03v92.459h-15.966v-96.362c5.309 1.319 10.631 2.62 15.966 3.903zm-30.158-7.482v99.941h-15.966V251.213c5.308 1.403 10.63 2.787 15.966 4.153zm-30.158-7.96v107.901h-15.965V242.989a1971.743 1971.743 0 0015.965 4.417zm-30.157-8.465v116.366h-15.966V234.243a1880.416 1880.416 0 0015.966 4.698zm-30.158-9.004v125.37H830.09V224.939a1772.742 1772.742 0 0015.966 4.998zm-30.158-9.581v134.951h-15.966V215.035a1677.286 1677.286 0 0015.966 5.321z"/></g><g opacity=".08" fill-rule="evenodd" clip-rule="evenodd" fill="#1C2A4D"><path d="M10.644 302.314v40.684h5.322v-40.793c-1.776.041-3.55.078-5.322.109zm30.158-1.022v41.706h5.322v-41.986c-1.776.098-3.55.191-5.322.28zm30.158-1.974v43.68h5.322v-44.124c-1.776.153-3.55.301-5.322.444zm30.157-2.887v46.567h5.322v-47.169c-1.775.205-3.549.406-5.322.602zm30.158-3.771v50.338h5.322v-51.093c-1.775.257-3.549.508-5.322.755zm30.158-4.627v54.965h5.322v-55.869c-1.775.306-3.549.607-5.322.904zm30.158-5.462v60.427h5.322v-61.476c-1.775.354-3.549.704-5.322 1.049zm30.157-6.279v66.706h5.322v-67.897c-1.775.401-3.549.799-5.322 1.191zm30.158-7.08v73.786h5.322V267.88c-1.775.448-3.549.892-5.322 1.332zm30.158-7.871v81.657h5.322v-83.127a1415.5 1415.5 0 01-5.322 1.47zm30.158-8.653v90.31h5.322V251.08a1281.98 1281.98 0 01-5.322 1.608zm30.157-9.429v99.739h5.322V241.514c-1.774.586-3.548 1.167-5.322 1.745zm30.158-10.203v109.942h5.322V231.175c-1.774.631-3.548 1.258-5.322 1.881zm30.158-10.976v120.918h5.322V220.062c-1.774.677-3.548 1.349-5.322 2.018zm30.158-11.752v132.67h5.322V208.173c-1.774.722-3.548 1.441-5.322 2.155zm30.157-12.532v145.202h5.322V195.502c-1.773.769-3.547 1.533-5.322 2.294zm30.158-13.321v158.523h5.322V182.042c-1.773.815-3.547 1.626-5.322 2.433zm30.158-14.119v172.642h5.322V167.781c-1.774.862-3.547 1.72-5.322 2.575zm30.158-14.931v187.573h5.322V152.705c-1.774.911-3.548 1.818-5.322 2.72zm30.158-15.758v203.331h5.321V136.799c-1.773.96-3.547 1.916-5.321 2.868zm30.157-16.606v219.937h5.322V120.041a1415.987 1415.987 0 01-5.322 3.02zm30.158-17.476v237.413h5.322V102.409a1462.706 1462.706 0 01-5.322 3.176zm30.158-18.372v255.785h5.322V83.875c-1.773 1.117-3.547 2.23-5.322 3.338zm30.158-19.301v275.086h5.322V64.407c-1.773 1.172-3.547 2.34-5.322 3.505zm30.157-20.265v295.351h5.322V43.968c-1.772 1.23-3.546 2.456-5.322 3.679zm30.158-21.27v316.621h5.322V22.515a1561.577 1561.577 0 01-5.322 3.861zm30.158-22.324v338.945h5.322V0a1615.293 1615.293 0 01-5.322 4.053z"/><path d="M5.321 316.941v26.058h10.644v-26.092c-3.551.023-7.1.034-10.644.034zm30.158-.269v26.327h10.644V316.45c-3.551.085-7.099.159-10.644.222zm30.158-.8v27.127H76.28v-27.534c-3.55.147-7.099.283-10.644.407zm30.158-1.321v28.448h10.643v-29.037c-3.549.207-7.097.404-10.643.589zm30.157-1.835v30.283h10.644v-31.052c-3.549.267-7.097.523-10.644.769zm30.158-2.344v32.627h10.644v-33.575c-3.549.327-7.097.643-10.644.948zm30.158-2.85v35.477h10.644v-36.603c-3.548.386-7.096.762-10.644 1.126zm30.158-3.353v38.83h10.644v-40.134c-3.548.445-7.096.879-10.644 1.304zm30.157-3.858v42.688h10.644v-44.171c-3.547.505-7.095.999-10.644 1.483zm30.158-4.365v47.053h10.644v-48.714c-3.546.564-7.094 1.118-10.644 1.661zm30.158-4.874v51.927h10.644v-53.77a1819.79 1819.79 0 01-10.644 1.843zm30.158-5.39v57.317h10.644v-59.344c-3.546.686-7.094 1.362-10.644 2.027zm30.157-5.914v63.231h10.644v-65.445c-3.544.749-7.092 1.487-10.644 2.214zm30.158-6.447v69.678h10.644v-72.083c-3.544.812-7.092 1.614-10.644 2.405zm30.158-6.992v76.67h10.644v-79.271c-3.544.878-7.092 1.745-10.644 2.601zm30.158-7.552v84.222h10.644v-87.024c-3.543.945-7.091 1.879-10.644 2.802zm30.157-8.129v92.351h10.644v-95.361a1669.11 1669.11 0 01-10.644 3.01zm30.158-8.726v101.077h10.644V238.695a1581.594 1581.594 0 01-10.644 3.227zm30.158-9.347v110.424h10.644V229.123a1593.195 1593.195 0 01-10.644 3.452zm30.158-9.995v120.419h10.644V218.891c-3.54 1.241-7.088 2.47-10.644 3.689zm30.157-10.677v131.096h10.644V207.965a1505.9 1505.9 0 01-10.644 3.938zm30.158-11.395v142.491h10.644V196.306a1481.107 1481.107 0 01-10.644 4.202zm30.158-12.159v154.65h10.644V183.866a1374.236 1374.236 0 01-10.644 4.483zm30.158-12.974v167.624h10.644V170.59a1320.663 1320.663 0 01-10.644 4.785zm30.158-13.851v181.475h10.643V156.413a1259.468 1259.468 0 01-10.643 5.111zm30.157-14.801v196.276h10.644V141.256c-3.532 1.836-7.08 3.658-10.644 5.467zm30.158-15.841v212.117h10.644V125.024c-3.53 1.967-7.078 3.92-10.644 5.858z"/><path d="M0 335.027v20.281h15.966v-20.305c-4.152.019-8.292.029-12.418.029-1.183 0-2.366-.001-3.548-.005zm30.158-.13v20.411h15.966v-20.62c-5.341.086-10.664.155-15.966.209zm30.157-.474v20.885h15.966v-21.272c-5.338.145-10.66.274-15.966.387zm30.158-.807v21.692h15.966v-22.252c-5.337.202-10.659.389-15.966.56zm30.158-1.133v22.825h15.966v-23.555c-5.335.258-10.657.502-15.966.73zm30.158-1.454v24.279h15.966V330.13c-5.334.315-10.656.615-15.966.899zm30.158-1.772v26.051h15.965v-27.116c-5.331.37-10.653.726-15.965 1.065zm30.157-2.087v28.138h15.966v-29.37c-5.33.426-10.652.837-15.966 1.232zm30.158-2.401v30.539h15.966V323.37c-5.328.481-10.651.948-15.966 1.399zm30.158-2.718v33.257h15.966v-34.824c-5.327.538-10.649 1.06-15.966 1.567zm30.158-3.034v36.291h15.965V317.28c-5.325.595-10.647 1.173-15.965 1.737zm30.157-3.356v39.647h15.966v-41.555c-5.324.652-10.646 1.288-15.966 1.908zm30.158-3.68v43.327h15.966v-45.409a2930.4 2930.4 0 01-15.966 2.082zm30.158-4.011v47.338h15.966V305.71c-5.321.769-10.644 1.522-15.966 2.26zm30.158-4.349v51.687h15.966V301.18c-5.32.83-10.643 1.643-15.966 2.441zm30.157-4.694v56.381h15.966v-59.009c-5.318.892-10.64 1.768-15.966 2.628zm30.158-5.049v61.43h15.966v-64.251c-5.317.957-10.639 1.897-15.966 2.821zm30.158-5.416v66.846h15.966v-69.865a2469.569 2469.569 0 01-15.966 3.019zm30.158-5.795v72.641h15.966v-75.867a2436.554 2436.554 0 01-15.966 3.226zm30.157-6.189v78.83h15.966v-82.272a2313.9 2313.9 0 01-15.966 3.442zm30.158-6.6v85.43h15.966v-89.097a2235.72 2235.72 0 01-15.966 3.667zm30.158-7.03v92.46h15.966v-96.363a2188.615 2188.615 0 01-15.966 3.903zm30.158-7.482v99.942h15.966V251.213a2116.813 2116.813 0 01-15.966 4.153zm30.158-7.96v107.902h15.965V242.989a1971.743 1971.743 0 01-15.965 4.417zm30.157-8.465v116.367h15.966V234.243a1880.416 1880.416 0 01-15.966 4.698zm30.158-9.004v125.371h15.966V224.939a1772.742 1772.742 0 01-15.966 4.998zm30.158-9.581v134.952h15.966V215.035a1677.286 1677.286 0 01-15.966 5.321z"/></g></svg>