<svg width="61" height="63" fill="none" xmlns="http://www.w3.org/2000/svg"><path d="M44.475 38.327h-7.112L32.136 27.1c-2.851 1.597-4.485 5.298-7.382 7.746-1.477 1.243-3.204 2.352-5.348 3.108-.975.334-2.628.774-3.25.841-.26.029-.446.02-.483-.086-.028-.076.046-.134.316-.268.315-.153 1.625-.717 2.442-1.3 1.021-.736 1.606-1.53 1.652-2.142-.278-1.023-2.284-3.28-.232-7.44.734-1.492 1.375-2.563 1.83-3.643.52-1.244.89-2.984 1.02-4.285.01-.076.02-.076.066-.028.993 1.042 4.856 5.135 4.299 9.209 1.281-.507 3.51-2.056 4.54-2.879 1.087-.87 1.792-1.778 2.944-1.797 1.03-.02 1.114.487 1.94.602.204.029.502-.01.66-.096.064-.028.046-.105-.047-.124-1.114-.268-1.384-1.205-2.832-1.205-1.3 0-2.33 1.224-3.073 1.731l-3.65-7.841c-1.55-3.27-1.086-5.652 2.266-10.338l14.661 31.462zm13.798 16.141l-2.488-3.05c1.31-.306 2.108-1.081 2.108-2.43 0-1.52-1.254-2.285-2.842-2.285h-4.967v7.765h1.319v-2.936h2.952l2.275 2.936h1.643zm-6.87-6.56h3.686c.91 0 1.448.44 1.448 1.176 0 .756-.566 1.243-1.448 1.243h-3.686v-2.419zM5.255 46.703l-3.89 7.765H2.86l.826-1.73h4.429l.826 1.73h1.523l-3.89-7.765H5.255zm-.993 4.83l1.634-3.415 1.634 3.414H4.262zm13.175-3.805c1.245 0 2.266.478 2.786 1.33l1.068-.737c-.743-1.071-2.062-1.817-3.844-1.817-2.888 0-4.55 1.941-4.55 4.093 0 2.142 1.662 4.083 4.55 4.083 1.792 0 3.1-.746 3.844-1.817l-1.068-.746c-.52.842-1.541 1.33-2.786 1.33-1.94 0-3.194-1.12-3.194-2.86 0-1.74 1.254-2.86 3.194-2.86zm11.969 0c1.235 0 2.266.478 2.786 1.33l1.068-.737c-.743-1.071-2.062-1.817-3.845-1.817-2.887 0-4.55 1.941-4.55 4.093 0 2.142 1.663 4.083 4.55 4.083 1.783 0 3.102-.746 3.845-1.817l-1.068-.736c-.52.841-1.542 1.329-2.786 1.329-1.94 0-3.194-1.119-3.194-2.86 0-1.74 1.254-2.868 3.194-2.868zm11.968-1.224c-2.887 0-4.55 1.941-4.55 4.093 0 2.142 1.663 4.083 4.55 4.083 2.888 0 4.55-1.941 4.55-4.083 0-2.152-1.653-4.093-4.55-4.093zm0 6.962c-1.94 0-3.194-1.129-3.194-2.879s1.254-2.878 3.194-2.878c1.941 0 3.194 1.128 3.194 2.878.01 1.75-1.244 2.879-3.194 2.879z" opacity=".7" fill="#fff"/></svg>