<svg width="148" height="38" fill="none" xmlns="http://www.w3.org/2000/svg"><g opacity=".7" clip-path="url(#clip0)" fill="#fff"><path d="M9.386 18.488c.263-.24.47-.538.608-.871.137-.333.2-.693.186-1.055v-.053c0-.891-.278-1.56-.832-2.004-.555-.445-1.327-.668-2.317-.67h-3.98v5.375h4.058c.989 0 1.748-.24 2.277-.722z"/><path d="M28.3 28.462v-7.514h-7.389v7.514h-4.007V9.745h4.007v7.406h7.39V9.745h3.141a18.086 18.086 0 00-6.54-6.945A17.443 17.443 0 0015.83.248c-3.191 0-6.324.882-9.07 2.552A18.086 18.086 0 00.22 9.745h7.5c2.307 0 4.076.633 5.308 1.899 1.041 1.07 1.562 2.495 1.56 4.276v.053c0 1.515-.36 2.75-1.08 3.703a6.266 6.266 0 01-2.829 2.1l4.45 6.685h-4.678L6.55 22.474H3.402v5.987H.874a17.999 17.999 0 006.44 6.149 17.419 17.419 0 008.518 2.23c2.976 0 5.905-.766 8.518-2.23a17.999 17.999 0 006.44-6.15l-2.49.002zm118.889-6.882H40.279v.423h106.91v-.423zM61.09 6.013l2.252 5.613h-4.484l2.232-5.613zm-1.243-3.874l-6.49 15.997h2.952l1.486-3.754h6.607l1.463 3.754h3.037L62.412 2.14h-2.565zm21.008 8.075c0 3.05-1.95 5.097-4.85 5.097h-2.684V5.072h2.684c2.854 0 4.85 2.115 4.85 5.142zm-4.85-7.962h-5.548v15.886h5.548c4.54 0 7.835-3.349 7.835-7.965 0-4.617-3.295-7.921-7.835-7.921zm53.056 7.961c0 3.046-2.023 5.341-4.705 5.341-2.683 0-4.745-2.314-4.745-5.386s2.022-5.341 4.705-5.341c2.683 0 4.745 2.316 4.745 5.386zm-4.705-8.233c-4.407 0-7.734 3.54-7.734 8.233 0 4.668 3.309 8.188 7.694 8.188s7.732-3.54 7.732-8.233c0-4.693-3.305-8.188-7.692-8.188zM49.5 7.502c0 1.514-1.076 2.455-2.808 2.455h-3.55V5.072h3.53c1.83 0 2.829.855 2.829 2.43h-.002zm2.905-.153c0-3.146-2.117-5.101-5.525-5.101h-6.6v15.886h2.862v-5.42h2.927l3.548 5.42h3.385l-3.947-5.962c2.163-.724 3.348-2.43 3.348-4.825M89.08 2.248h-2.863v15.888h2.862V2.248zm8.788 6.536c-2.8-.722-3.3-1.232-3.3-2.304 0-1.016.879-1.698 2.189-1.698 1.258 0 2.508.513 3.817 1.563l.139.111 1.541-2.34-.112-.097a7.86 7.86 0 00-5.344-1.995c-2.995 0-5.094 1.933-5.094 4.7 0 2.967 1.81 4.015 4.931 4.83 2.683.666 3.136 1.229 3.136 2.235 0 1.117-.917 1.81-2.395 1.81-1.633 0-2.963-.592-4.45-1.978l-.127-.12-1.73 2.224.11.106a8.725 8.725 0 006.134 2.535c3.231 0 5.325-1.899 5.325-4.836 0-2.478-1.38-3.851-4.765-4.737m12.475-.009c-2.801-.722-3.3-1.232-3.3-2.304 0-1.016.881-1.698 2.189-1.698 1.258 0 2.508.513 3.819 1.563l.137.111 1.541-2.34-.112-.097a7.86 7.86 0 00-5.344-1.995c-2.995 0-5.094 1.933-5.094 4.7 0 2.967 1.809 4.015 4.931 4.83 2.683.666 3.136 1.229 3.136 2.235 0 1.117-.917 1.81-2.395 1.81-1.631 0-2.961-.592-4.45-1.978l-.127-.12-1.731 2.224.112.106a8.724 8.724 0 006.133 2.535c3.233 0 5.325-1.899 5.325-4.836 0-2.478-1.38-3.851-4.765-4.737m34.013-6.543v10.411l-7.439-10.344-.05-.067h-2.596v15.886h2.821V7.414l7.669 10.654.048.068h2.37V2.25h-2.823z"/><path d="M147.182 21.566H40.286v.423h106.896v-.423zM40.214 25.361h1.781v4.331h4.838v-4.33h1.78v10.412h-1.78V31.39h-4.838v4.385h-1.78V25.361zm19.196 5.241v-.029c0-2.931 2.2-5.387 5.314-5.387 3.113 0 5.285 2.425 5.285 5.357v.03c0 2.932-2.2 5.388-5.314 5.388-3.113 0-5.285-2.427-5.285-5.359zm8.732 0v-.029c0-2.025-1.435-3.69-3.447-3.69s-3.418 1.636-3.418 3.66v.03c0 2.024 1.434 3.691 3.447 3.691 2.012 0 3.424-1.636 3.424-3.662h-.006zm15.381-3.55h-3.23v-1.697h8.24v1.697h-3.228v8.723h-1.78l-.002-8.723zm17.16-1.691h7.515v1.637h-5.733v2.71h5.083v1.652h-5.083v2.783h5.806v1.631h-7.588V25.361zm20.899 0h1.782v8.753h5.326v1.66h-7.111l.003-10.413zm17.995 8.903l1.072-1.31c.97.855 1.954 1.354 3.2 1.354 1.1 0 1.796-.535 1.796-1.31v-.029c0-.744-.406-1.146-2.288-1.592-2.164-.537-3.374-1.198-3.374-3.111v-.03c0-1.787 1.448-3.022 3.46-3.022a5.522 5.522 0 013.678 1.31l-.955 1.384c-.912-.7-1.831-1.07-2.751-1.07-1.044 0-1.651.55-1.651 1.234v.03c0 .803.463 1.16 2.418 1.636 2.144.537 3.244 1.326 3.244 3.051v.031c0 1.95-1.498 3.11-3.62 3.11a6.154 6.154 0 01-4.229-1.666z"/></g><defs><clipPath id="clip0"><path fill="#fff" transform="translate(.026 .621)" d="M0 0h147.399v36.596H0z"/></clipPath></defs></svg>