<svg width="118" height="37" fill="none" xmlns="http://www.w3.org/2000/svg"><g opacity=".7" clip-path="url(#clip0)" fill="#fff"><path d="M46.736 36.524h-5.084c-2.135 0-3.224-.477-4.008-1.537-.843-1.119-.843-2.834-.843-4.446V.477h6.536V31.51c0 2.462.262 4.208 3.384 4.909v.104h.015zm-13.362-.014h-8.177l-6.013-13.214c-3.283 1.806-5.156 5.977-8.483 8.737-1.699 1.41-3.674 2.658-6.143 3.51-1.119.382-3.021.88-3.733.954-.305.03-.508.015-.552-.088-.03-.088.044-.147.363-.308.363-.176 1.86-.808 2.803-1.469 1.177-.837 1.845-1.732 1.903-2.422-.32-1.146-2.629-3.7-.276-8.385.842-1.689 1.569-2.893 2.092-4.111.595-1.395 1.03-3.363 1.176-4.831.015-.089.03-.089.073-.03 1.147 1.175 5.592 5.786 4.938 10.382 1.481-.573 4.038-2.32 5.214-3.245 1.25-.984 2.063-1.997 3.384-2.027 1.177-.015 1.279.558 2.223.676.232.029.58-.015.755-.103.073-.03.058-.118-.058-.147-1.278-.308-1.598-1.366-3.254-1.366-1.481 0-2.672 1.38-3.53 1.953l-4.197-8.84c-1.743-3.7-1.22-6.387 2.644-11.673L33.374 36.51zm25.837.014h-5.084c-2.135 0-3.224-.477-4.008-1.537-.843-1.119-.843-2.834-.843-4.446V.477h6.536V31.51c0 2.462.262 4.208 3.385 4.909v.104h.014zm7.831-27.398h-2.41l-.335.778h-1.293l2.586-5.947h.494l2.585 5.947h-1.293l-.334-.778zm-1.19-2.996l-.77 1.997h1.554L65.85 6.13zm9.352-1.894c.45.265.814.617 1.075 1.087l-.915.646c-.421-.66-.973-.998-1.685-.998-.552 0-1.002.176-1.365.543-.363.367-.537.837-.537 1.41 0 .572.174 1.042.537 1.394.363.368.813.544 1.365.544.712 0 1.264-.338 1.685-.999l.915.646c-.261.47-.61.823-1.075 1.087a3.047 3.047 0 01-1.54.396c-.885 0-1.626-.293-2.222-.88-.61-.588-.9-1.322-.9-2.203 0-.867.305-1.6.915-2.188.61-.587 1.35-.881 2.222-.881.567 0 1.075.132 1.525.396zm8.033 0c.45.265.813.617 1.074 1.087l-.915.646c-.42-.66-.973-.998-1.684-.998-.552 0-1.003.176-1.366.543-.363.367-.537.837-.537 1.41 0 .572.174 1.042.537 1.394.363.368.814.544 1.365.544.712 0 1.264-.338 1.685-.999l.915.646c-.261.47-.61.823-1.074 1.087a3.047 3.047 0 01-1.54.396c-.886 0-1.627-.293-2.222-.88-.61-.588-.9-1.322-.9-2.203 0-.867.304-1.6.914-2.188.61-.587 1.351-.881 2.222-.881.567 0 1.075.132 1.526.396zm8.729.501c.61.587.915 1.321.915 2.187 0 .867-.305 1.601-.915 2.203-.61.587-1.351.881-2.223.881-.871 0-1.612-.294-2.207-.881-.61-.587-.915-1.322-.915-2.203 0-.866.305-1.6.915-2.188.61-.587 1.35-.88 2.207-.88.857 0 1.598.278 2.223.88zm-3.573.778c-.364.367-.538.837-.538 1.41 0 .572.174 1.042.538 1.41.348.366.813.542 1.365.542.537 0 .988-.176 1.35-.543.364-.367.538-.837.538-1.41 0-.572-.174-1.042-.538-1.41-.362-.366-.813-.543-1.35-.543-.552 0-1.002.177-1.365.544zm10.922 4.389l-1.525-2.1h-.886v2.1h-1.206V3.957h2.208c.624 0 1.133.176 1.525.529.392.352.596.822.596 1.395 0 .381-.087.72-.276.998a1.881 1.881 0 01-.756.676l1.671 2.349h-1.351zm-2.411-3.172h1.002c.276 0 .494-.073.653-.235.16-.161.233-.367.233-.616a.844.844 0 00-.247-.617c-.16-.162-.377-.235-.653-.235H96.89v1.703h.014zm-32.68 15.081h2.571v1.1h-3.776v-5.946h1.205v4.846zm6.275 1.101h-1.206v-5.947H70.5v5.947zm8.104-5.961l-2.57 5.947h-.495l-2.585-5.947h1.365l1.467 3.612 1.467-3.612h1.351zm6.421 1.1h-2.76v1.204h2.019V20.3h-2.019v1.512h2.861v1.102H81.06v-5.947h3.965v1.086zm-20.8 17.142h2.571v1.102h-3.776V30.35h1.205v4.845zm6.275 1.102h-1.206V30.35h1.206v5.947zm8.845-5.963v5.962h-1.206v-3.187l-1.481 1.88h-.392l-1.482-1.88v3.187h-1.205v-5.962h.464l2.412 3.128 2.41-3.128h.48zm4.299 5.963h-1.206V30.35h1.206v5.947zm7.422-4.861h-1.888v4.846H87.97v-4.846h-1.888V30.35h4.982v1.086zm3.675 3.759h2.57v1.102h-3.775V30.35h1.205v4.845zm9.034-3.759h-2.76v1.204h2.019v1.043h-2.019v1.512h2.862v1.102h-4.067V30.35h3.965v1.086zm5.766-.896c.334.206.581.485.77.823l-.813.646c-.305-.455-.683-.69-1.119-.69a.881.881 0 00-.523.147c-.145.103-.203.235-.203.426 0 .161.058.279.16.367.102.088.276.19.537.308l.668.294c.494.22.857.47 1.104.734.232.264.364.602.364.999 0 .543-.189.969-.582 1.292-.392.323-.886.484-1.481.484-.494 0-.944-.117-1.337-.352a2.543 2.543 0 01-.929-.955l.828-.63c.407.572.886.865 1.438.865.262 0 .464-.058.61-.176a.587.587 0 00.218-.484.53.53 0 00-.102-.323.763.763 0 00-.232-.206c-.088-.044-.218-.117-.421-.206l-.64-.293c-.464-.206-.813-.455-1.06-.72-.247-.264-.363-.602-.363-.998 0-.5.189-.91.552-1.219.363-.308.842-.47 1.394-.47.45.03.843.132 1.162.338zm6.58 0c.334.206.581.485.77.823l-.814.646c-.305-.455-.683-.69-1.119-.69a.876.876 0 00-.522.147c-.145.103-.204.235-.204.426a.46.46 0 00.16.367c.102.088.276.19.538.308l.668.294c.494.22.857.47 1.104.734.232.264.363.602.363.999 0 .543-.189.969-.581 1.292-.392.323-.886.484-1.482.484-.493 0-.944-.117-1.336-.352a2.528 2.528 0 01-.929-.955l.828-.63c.406.572.885.865 1.437.865.261 0 .465-.058.61-.176a.59.59 0 00.218-.484.524.524 0 00-.102-.323.74.74 0 00-.232-.206c-.087-.044-.217-.117-.421-.206l-.639-.293c-.465-.206-.814-.455-1.061-.72-.246-.264-.362-.602-.362-.998 0-.5.188-.91.552-1.219.362-.308.842-.47 1.393-.47.436.03.829.132 1.163.338z"/></g><defs><clipPath id="clip0"><path fill="#fff" transform="translate(.267 .463)" d="M0 0h117.595v36.063H0z"/></clipPath></defs></svg>