<svg width="620" height="371" viewBox="0 0 620 371" fill="none" xmlns="http://www.w3.org/2000/svg">
<path d="M2.587 134.823L0.507 136.318V135.265L2.665 133.705H3.718V143H2.587V134.823ZM10.0247 142.181C11.6627 142.181 12.4817 140.981 12.4817 138.58V138.06C12.4817 136.977 12.2607 136.114 11.8187 135.473C11.3767 134.823 10.7701 134.498 9.99873 134.498C9.21006 134.498 8.59473 134.81 8.15273 135.434C7.71073 136.058 7.48973 136.942 7.48973 138.086V138.606C7.48973 139.759 7.71506 140.643 8.16573 141.258C8.61639 141.873 9.23606 142.181 10.0247 142.181ZM10.0247 143.117C8.91539 143.117 8.02273 142.705 7.34673 141.882C6.67073 141.059 6.33273 139.971 6.33273 138.619V138.099C6.33273 136.721 6.65773 135.625 7.30773 134.81C7.96639 133.995 8.86339 133.588 9.99873 133.588C11.1254 133.588 12.0094 134 12.6507 134.823C13.3007 135.646 13.6257 136.73 13.6257 138.073V138.593C13.6257 139.962 13.3051 141.059 12.6637 141.882C12.0311 142.705 11.1514 143.117 10.0247 143.117ZM22.7388 142.181C24.3768 142.181 25.1958 140.981 25.1958 138.58V138.06C25.1958 136.977 24.9748 136.114 24.5328 135.473C24.0908 134.823 23.4842 134.498 22.7128 134.498C21.9242 134.498 21.3088 134.81 20.8668 135.434C20.4248 136.058 20.2038 136.942 20.2038 138.086V138.606C20.2038 139.759 20.4292 140.643 20.8798 141.258C21.3305 141.873 21.9502 142.181 22.7388 142.181ZM22.7388 143.117C21.6295 143.117 20.7368 142.705 20.0608 141.882C19.3848 141.059 19.0468 139.971 19.0468 138.619V138.099C19.0468 136.721 19.3718 135.625 20.0218 134.81C20.6805 133.995 21.5775 133.588 22.7128 133.588C23.8395 133.588 24.7235 134 25.3648 134.823C26.0148 135.646 26.3398 136.73 26.3398 138.073V138.593C26.3398 139.962 26.0192 141.059 25.3778 141.882C24.7452 142.705 23.8655 143.117 22.7388 143.117ZM31.8825 142.181C33.5205 142.181 34.3395 140.981 34.3395 138.58V138.06C34.3395 136.977 34.1185 136.114 33.6765 135.473C33.2345 134.823 32.6278 134.498 31.8565 134.498C31.0678 134.498 30.4525 134.81 30.0105 135.434C29.5685 136.058 29.3475 136.942 29.3475 138.086V138.606C29.3475 139.759 29.5728 140.643 30.0235 141.258C30.4742 141.873 31.0938 142.181 31.8825 142.181ZM31.8825 143.117C30.7732 143.117 29.8805 142.705 29.2045 141.882C28.5285 141.059 28.1905 139.971 28.1905 138.619V138.099C28.1905 136.721 28.5155 135.625 29.1655 134.81C29.8242 133.995 30.7212 133.588 31.8565 133.588C32.9832 133.588 33.8672 134 34.5085 134.823C35.1585 135.646 35.4835 136.73 35.4835 138.073V138.593C35.4835 139.962 35.1628 141.059 34.5215 141.882C33.8888 142.705 33.0092 143.117 31.8825 143.117ZM41.0262 142.181C42.6642 142.181 43.4832 140.981 43.4832 138.58V138.06C43.4832 136.977 43.2622 136.114 42.8202 135.473C42.3782 134.823 41.7715 134.498 41.0002 134.498C40.2115 134.498 39.5962 134.81 39.1542 135.434C38.7122 136.058 38.4912 136.942 38.4912 138.086V138.606C38.4912 139.759 38.7165 140.643 39.1672 141.258C39.6178 141.873 40.2375 142.181 41.0262 142.181ZM41.0262 143.117C39.9168 143.117 39.0242 142.705 38.3482 141.882C37.6722 141.059 37.3342 139.971 37.3342 138.619V138.099C37.3342 136.721 37.6592 135.625 38.3092 134.81C38.9678 133.995 39.8648 133.588 41.0002 133.588C42.1268 133.588 43.0108 134 43.6522 134.823C44.3022 135.646 44.6272 136.73 44.6272 138.073V138.593C44.6272 139.962 44.3065 141.059 43.6652 141.882C43.0325 142.705 42.1528 143.117 41.0262 143.117Z" fill="white"/>
<path d="M6.325 289.74L10.017 285.853C10.9097 284.908 11.356 284.011 11.356 283.162C11.356 282.642 11.2087 282.235 10.914 281.94C10.628 281.645 10.2207 281.498 9.692 281.498C8.56533 281.498 7.911 282.187 7.729 283.565H6.676C6.74533 282.646 7.04433 281.923 7.573 281.394C8.11033 280.857 8.81667 280.588 9.692 280.588C10.55 280.588 11.2303 280.826 11.733 281.303C12.2443 281.771 12.5 282.404 12.5 283.201C12.5 284.224 11.876 285.35 10.628 286.581L8.067 289.077H12.552V290H6.325V289.74ZM21.6137 289.181C23.2517 289.181 24.0707 287.981 24.0707 285.58V285.06C24.0707 283.977 23.8497 283.114 23.4077 282.473C22.9657 281.823 22.359 281.498 21.5877 281.498C20.799 281.498 20.1837 281.81 19.7417 282.434C19.2997 283.058 19.0787 283.942 19.0787 285.086V285.606C19.0787 286.759 19.304 287.643 19.7547 288.258C20.2054 288.873 20.825 289.181 21.6137 289.181ZM21.6137 290.117C20.5044 290.117 19.6117 289.705 18.9357 288.882C18.2597 288.059 17.9217 286.971 17.9217 285.619V285.099C17.9217 283.721 18.2467 282.625 18.8967 281.81C19.5554 280.995 20.4524 280.588 21.5877 280.588C22.7144 280.588 23.5984 281 24.2397 281.823C24.8897 282.646 25.2147 283.73 25.2147 285.073V285.593C25.2147 286.962 24.894 288.059 24.2527 288.882C23.62 289.705 22.7404 290.117 21.6137 290.117ZM30.7574 289.181C32.3954 289.181 33.2144 287.981 33.2144 285.58V285.06C33.2144 283.977 32.9934 283.114 32.5514 282.473C32.1094 281.823 31.5027 281.498 30.7314 281.498C29.9427 281.498 29.3274 281.81 28.8854 282.434C28.4434 283.058 28.2224 283.942 28.2224 285.086V285.606C28.2224 286.759 28.4477 287.643 28.8984 288.258C29.349 288.873 29.9687 289.181 30.7574 289.181ZM30.7574 290.117C29.648 290.117 28.7554 289.705 28.0794 288.882C27.4034 288.059 27.0654 286.971 27.0654 285.619V285.099C27.0654 283.721 27.3904 282.625 28.0404 281.81C28.699 280.995 29.596 280.588 30.7314 280.588C31.858 280.588 32.742 281 33.3834 281.823C34.0334 282.646 34.3584 283.73 34.3584 285.073V285.593C34.3584 286.962 34.0377 288.059 33.3964 288.882C32.7637 289.705 31.884 290.117 30.7574 290.117ZM39.9011 289.181C41.5391 289.181 42.3581 287.981 42.3581 285.58V285.06C42.3581 283.977 42.1371 283.114 41.6951 282.473C41.2531 281.823 40.6464 281.498 39.8751 281.498C39.0864 281.498 38.4711 281.81 38.0291 282.434C37.5871 283.058 37.3661 283.942 37.3661 285.086V285.606C37.3661 286.759 37.5914 287.643 38.0421 288.258C38.4927 288.873 39.1124 289.181 39.9011 289.181ZM39.9011 290.117C38.7917 290.117 37.8991 289.705 37.2231 288.882C36.5471 288.059 36.2091 286.971 36.2091 285.619V285.099C36.2091 283.721 36.5341 282.625 37.1841 281.81C37.8427 280.995 38.7397 280.588 39.8751 280.588C41.0017 280.588 41.8857 281 42.5271 281.823C43.1771 282.646 43.5021 283.73 43.5021 285.073V285.593C43.5021 286.962 43.1814 288.059 42.5401 288.882C41.9074 289.705 41.0277 290.117 39.9011 290.117Z" fill="white"/>
<path d="M4.587 98.823L2.507 100.318V99.265L4.665 97.705H5.718V107H4.587V98.823ZM7.79973 106.74L11.4917 102.853C12.3844 101.908 12.8307 101.011 12.8307 100.162C12.8307 99.642 12.6834 99.2347 12.3887 98.94C12.1027 98.6453 11.6954 98.498 11.1667 98.498C10.0401 98.498 9.38573 99.187 9.20373 100.565H8.15073C8.22006 99.6463 8.51906 98.9227 9.04773 98.394C9.58506 97.8567 10.2914 97.588 11.1667 97.588C12.0247 97.588 12.7051 97.8263 13.2077 98.303C13.7191 98.771 13.9747 99.4037 13.9747 100.201C13.9747 101.224 13.3507 102.35 12.1027 103.581L9.54173 106.077H14.0267V107H7.79973V106.74ZM23.0884 106.181C24.7264 106.181 25.5454 104.981 25.5454 102.58V102.06C25.5454 100.977 25.3244 100.114 24.8824 99.473C24.4404 98.823 23.8338 98.498 23.0624 98.498C22.2738 98.498 21.6584 98.81 21.2164 99.434C20.7744 100.058 20.5534 100.942 20.5534 102.086V102.606C20.5534 103.759 20.7788 104.643 21.2294 105.258C21.6801 105.873 22.2998 106.181 23.0884 106.181ZM23.0884 107.117C21.9791 107.117 21.0864 106.705 20.4104 105.882C19.7344 105.059 19.3964 103.971 19.3964 102.619V102.099C19.3964 100.721 19.7214 99.6247 20.3714 98.81C21.0301 97.9953 21.9271 97.588 23.0624 97.588C24.1891 97.588 25.0731 97.9997 25.7144 98.823C26.3644 99.6463 26.6894 100.73 26.6894 102.073V102.593C26.6894 103.962 26.3688 105.059 25.7274 105.882C25.0948 106.705 24.2151 107.117 23.0884 107.117ZM32.2321 106.181C33.8701 106.181 34.6891 104.981 34.6891 102.58V102.06C34.6891 100.977 34.4681 100.114 34.0261 99.473C33.5841 98.823 32.9774 98.498 32.2061 98.498C31.4174 98.498 30.8021 98.81 30.3601 99.434C29.9181 100.058 29.6971 100.942 29.6971 102.086V102.606C29.6971 103.759 29.9224 104.643 30.3731 105.258C30.8238 105.873 31.4434 106.181 32.2321 106.181ZM32.2321 107.117C31.1228 107.117 30.2301 106.705 29.5541 105.882C28.8781 105.059 28.5401 103.971 28.5401 102.619V102.099C28.5401 100.721 28.8651 99.6247 29.5151 98.81C30.1738 97.9953 31.0708 97.588 32.2061 97.588C33.3328 97.588 34.2168 97.9997 34.8581 98.823C35.5081 99.6463 35.8331 100.73 35.8331 102.073V102.593C35.8331 103.962 35.5124 105.059 34.8711 105.882C34.2384 106.705 33.3588 107.117 32.2321 107.117ZM41.3758 106.181C43.0138 106.181 43.8328 104.981 43.8328 102.58V102.06C43.8328 100.977 43.6118 100.114 43.1698 99.473C42.7278 98.823 42.1211 98.498 41.3498 98.498C40.5611 98.498 39.9458 98.81 39.5038 99.434C39.0618 100.058 38.8408 100.942 38.8408 102.086V102.606C38.8408 103.759 39.0661 104.643 39.5168 105.258C39.9674 105.873 40.5871 106.181 41.3758 106.181ZM41.3758 107.117C40.2664 107.117 39.3738 106.705 38.6978 105.882C38.0218 105.059 37.6838 103.971 37.6838 102.619V102.099C37.6838 100.721 38.0088 99.6247 38.6588 98.81C39.3174 97.9953 40.2144 97.588 41.3498 97.588C42.4764 97.588 43.3604 97.9997 44.0018 98.823C44.6518 99.6463 44.9768 100.73 44.9768 102.073V102.593C44.9768 103.962 44.6561 105.059 44.0148 105.882C43.3821 106.705 42.5024 107.117 41.3758 107.117Z" fill="white"/>
<path d="M10.239 251.05H5.585V250.686L9.836 243.705H11.344V250.127H12.631V251.05H11.344V253H10.239V251.05ZM10.239 250.127V244.563L7.015 250.127H10.239ZM21.4262 252.181C23.0642 252.181 23.8832 250.981 23.8832 248.58V248.06C23.8832 246.977 23.6622 246.114 23.2202 245.473C22.7782 244.823 22.1715 244.498 21.4002 244.498C20.6115 244.498 19.9962 244.81 19.5542 245.434C19.1122 246.058 18.8912 246.942 18.8912 248.086V248.606C18.8912 249.759 19.1165 250.643 19.5672 251.258C20.0179 251.873 20.6375 252.181 21.4262 252.181ZM21.4262 253.117C20.3169 253.117 19.4242 252.705 18.7482 251.882C18.0722 251.059 17.7342 249.971 17.7342 248.619V248.099C17.7342 246.721 18.0592 245.625 18.7092 244.81C19.3679 243.995 20.2649 243.588 21.4002 243.588C22.5269 243.588 23.4109 244 24.0522 244.823C24.7022 245.646 25.0272 246.73 25.0272 248.073V248.593C25.0272 249.962 24.7065 251.059 24.0652 251.882C23.4325 252.705 22.5529 253.117 21.4262 253.117ZM30.5699 252.181C32.2079 252.181 33.0269 250.981 33.0269 248.58V248.06C33.0269 246.977 32.8059 246.114 32.3639 245.473C31.9219 244.823 31.3152 244.498 30.5439 244.498C29.7552 244.498 29.1399 244.81 28.6979 245.434C28.2559 246.058 28.0349 246.942 28.0349 248.086V248.606C28.0349 249.759 28.2602 250.643 28.7109 251.258C29.1615 251.873 29.7812 252.181 30.5699 252.181ZM30.5699 253.117C29.4605 253.117 28.5679 252.705 27.8919 251.882C27.2159 251.059 26.8779 249.971 26.8779 248.619V248.099C26.8779 246.721 27.2029 245.625 27.8529 244.81C28.5115 243.995 29.4085 243.588 30.5439 243.588C31.6705 243.588 32.5545 244 33.1959 244.823C33.8459 245.646 34.1709 246.73 34.1709 248.073V248.593C34.1709 249.962 33.8502 251.059 33.2089 251.882C32.5762 252.705 31.6965 253.117 30.5699 253.117ZM39.7136 252.181C41.3516 252.181 42.1706 250.981 42.1706 248.58V248.06C42.1706 246.977 41.9496 246.114 41.5076 245.473C41.0656 244.823 40.4589 244.498 39.6876 244.498C38.8989 244.498 38.2836 244.81 37.8416 245.434C37.3996 246.058 37.1786 246.942 37.1786 248.086V248.606C37.1786 249.759 37.4039 250.643 37.8546 251.258C38.3052 251.873 38.9249 252.181 39.7136 252.181ZM39.7136 253.117C38.6042 253.117 37.7116 252.705 37.0356 251.882C36.3596 251.059 36.0216 249.971 36.0216 248.619V248.099C36.0216 246.721 36.3466 245.625 36.9966 244.81C37.6552 243.995 38.5522 243.588 39.6876 243.588C40.8142 243.588 41.6982 244 42.3396 244.823C42.9896 245.646 43.3146 246.73 43.3146 248.073V248.593C43.3146 249.962 42.9939 251.059 42.3526 251.882C41.7199 252.705 40.8402 253.117 39.7136 253.117Z" fill="white"/>
<path d="M3.587 62.823L1.507 64.318V63.265L3.665 61.705H4.718V71H3.587V62.823ZM11.4598 69.05H6.80582V68.686L11.0568 61.705H12.5648V68.127H13.8518V69.05H12.5648V71H11.4598V69.05ZM11.4598 68.127V62.563L8.23582 68.127H11.4598ZM22.647 70.181C24.285 70.181 25.104 68.9807 25.104 66.58V66.06C25.104 64.9767 24.883 64.1143 24.441 63.473C23.999 62.823 23.3924 62.498 22.621 62.498C21.8324 62.498 21.217 62.81 20.775 63.434C20.333 64.058 20.112 64.942 20.112 66.086V66.606C20.112 67.7587 20.3374 68.6427 20.788 69.258C21.2387 69.8733 21.8584 70.181 22.647 70.181ZM22.647 71.117C21.5377 71.117 20.645 70.7053 19.969 69.882C19.293 69.0587 18.955 67.971 18.955 66.619V66.099C18.955 64.721 19.28 63.6247 19.93 62.81C20.5887 61.9953 21.4857 61.588 22.621 61.588C23.7477 61.588 24.6317 61.9997 25.273 62.823C25.923 63.6463 26.248 64.7297 26.248 66.073V66.593C26.248 67.9623 25.9274 69.0587 25.286 69.882C24.6534 70.7053 23.7737 71.117 22.647 71.117ZM31.7907 70.181C33.4287 70.181 34.2477 68.9807 34.2477 66.58V66.06C34.2477 64.9767 34.0267 64.1143 33.5847 63.473C33.1427 62.823 32.536 62.498 31.7647 62.498C30.976 62.498 30.3607 62.81 29.9187 63.434C29.4767 64.058 29.2557 64.942 29.2557 66.086V66.606C29.2557 67.7587 29.481 68.6427 29.9317 69.258C30.3824 69.8733 31.002 70.181 31.7907 70.181ZM31.7907 71.117C30.6814 71.117 29.7887 70.7053 29.1127 69.882C28.4367 69.0587 28.0987 67.971 28.0987 66.619V66.099C28.0987 64.721 28.4237 63.6247 29.0737 62.81C29.7324 61.9953 30.6294 61.588 31.7647 61.588C32.8914 61.588 33.7754 61.9997 34.4167 62.823C35.0667 63.6463 35.3917 64.7297 35.3917 66.073V66.593C35.3917 67.9623 35.071 69.0587 34.4297 69.882C33.797 70.7053 32.9174 71.117 31.7907 71.117ZM40.9344 70.181C42.5724 70.181 43.3914 68.9807 43.3914 66.58V66.06C43.3914 64.9767 43.1704 64.1143 42.7284 63.473C42.2864 62.823 41.6797 62.498 40.9084 62.498C40.1197 62.498 39.5044 62.81 39.0624 63.434C38.6204 64.058 38.3994 64.942 38.3994 66.086V66.606C38.3994 67.7587 38.6247 68.6427 39.0754 69.258C39.526 69.8733 40.1457 70.181 40.9344 70.181ZM40.9344 71.117C39.825 71.117 38.9324 70.7053 38.2564 69.882C37.5804 69.0587 37.2424 67.971 37.2424 66.619V66.099C37.2424 64.721 37.5674 63.6247 38.2174 62.81C38.876 61.9953 39.773 61.588 40.9084 61.588C42.035 61.588 42.919 61.9997 43.5604 62.823C44.2104 63.6463 44.5354 64.7297 44.5354 66.073V66.593C44.5354 67.9623 44.2147 69.0587 43.5734 69.882C42.9407 70.7053 42.061 71.117 40.9344 71.117Z" fill="white"/>
<path d="M9.199 217.117C6.97167 217.117 5.858 215.709 5.858 212.892V212.671C5.858 211.042 6.18733 209.789 6.846 208.914C7.51333 208.03 8.39733 207.588 9.498 207.588C10.2433 207.588 10.85 207.779 11.318 208.16C11.7947 208.541 12.0937 209.1 12.215 209.837H11.136C11.032 209.386 10.8457 209.053 10.577 208.836C10.3083 208.619 9.92267 208.511 9.42 208.511C8.70067 208.511 8.12 208.832 7.678 209.473C7.236 210.114 7.002 211.033 6.976 212.229C7.47867 211.388 8.276 210.968 9.368 210.968C10.278 210.968 11.0103 211.258 11.565 211.839C12.1283 212.411 12.41 213.135 12.41 214.01C12.41 214.946 12.1197 215.7 11.539 216.272C10.9583 216.835 10.1783 217.117 9.199 217.117ZM9.199 216.233C9.80567 216.233 10.2997 216.034 10.681 215.635C11.0623 215.236 11.253 214.712 11.253 214.062C11.253 213.386 11.0667 212.849 10.694 212.45C10.3213 212.051 9.81867 211.852 9.186 211.852C8.562 211.852 8.05067 212.043 7.652 212.424C7.25333 212.805 7.054 213.299 7.054 213.906C7.054 214.643 7.249 215.215 7.639 215.622C8.03767 216.029 8.55767 216.233 9.199 216.233ZM21.4516 216.181C23.0896 216.181 23.9086 214.981 23.9086 212.58V212.06C23.9086 210.977 23.6876 210.114 23.2456 209.473C22.8036 208.823 22.1969 208.498 21.4256 208.498C20.6369 208.498 20.0216 208.81 19.5796 209.434C19.1376 210.058 18.9166 210.942 18.9166 212.086V212.606C18.9166 213.759 19.1419 214.643 19.5926 215.258C20.0433 215.873 20.6629 216.181 21.4516 216.181ZM21.4516 217.117C20.3423 217.117 19.4496 216.705 18.7736 215.882C18.0976 215.059 17.7596 213.971 17.7596 212.619V212.099C17.7596 210.721 18.0846 209.625 18.7346 208.81C19.3933 207.995 20.2903 207.588 21.4256 207.588C22.5523 207.588 23.4363 208 24.0776 208.823C24.7276 209.646 25.0526 210.73 25.0526 212.073V212.593C25.0526 213.962 24.7319 215.059 24.0906 215.882C23.4579 216.705 22.5783 217.117 21.4516 217.117ZM30.5953 216.181C32.2333 216.181 33.0523 214.981 33.0523 212.58V212.06C33.0523 210.977 32.8313 210.114 32.3893 209.473C31.9473 208.823 31.3406 208.498 30.5693 208.498C29.7806 208.498 29.1653 208.81 28.7233 209.434C28.2813 210.058 28.0603 210.942 28.0603 212.086V212.606C28.0603 213.759 28.2856 214.643 28.7363 215.258C29.1869 215.873 29.8066 216.181 30.5953 216.181ZM30.5953 217.117C29.4859 217.117 28.5933 216.705 27.9173 215.882C27.2413 215.059 26.9033 213.971 26.9033 212.619V212.099C26.9033 210.721 27.2283 209.625 27.8783 208.81C28.5369 207.995 29.4339 207.588 30.5693 207.588C31.6959 207.588 32.5799 208 33.2213 208.823C33.8713 209.646 34.1963 210.73 34.1963 212.073V212.593C34.1963 213.962 33.8756 215.059 33.2343 215.882C32.6016 216.705 31.7219 217.117 30.5953 217.117ZM39.7389 216.181C41.3769 216.181 42.1959 214.981 42.1959 212.58V212.06C42.1959 210.977 41.9749 210.114 41.5329 209.473C41.0909 208.823 40.4843 208.498 39.7129 208.498C38.9243 208.498 38.3089 208.81 37.8669 209.434C37.4249 210.058 37.2039 210.942 37.2039 212.086V212.606C37.2039 213.759 37.4293 214.643 37.8799 215.258C38.3306 215.873 38.9503 216.181 39.7389 216.181ZM39.7389 217.117C38.6296 217.117 37.7369 216.705 37.0609 215.882C36.3849 215.059 36.0469 213.971 36.0469 212.619V212.099C36.0469 210.721 36.3719 209.625 37.0219 208.81C37.6806 207.995 38.5776 207.588 39.7129 207.588C40.8396 207.588 41.7236 208 42.3649 208.823C43.0149 209.646 43.3399 210.73 43.3399 212.073V212.593C43.3399 213.962 43.0193 215.059 42.3779 215.882C41.7453 216.705 40.8656 217.117 39.7389 217.117Z" fill="white"/>
<path d="M9.03 180.117C8.50133 180.117 7.99867 180.022 7.522 179.831C7.04533 179.632 6.64233 179.315 6.313 178.882C5.98367 178.449 5.819 177.942 5.819 177.361C5.819 176.763 5.97933 176.26 6.3 175.853C6.62067 175.446 7.04533 175.147 7.574 174.956C6.638 174.583 6.17 173.933 6.17 173.006C6.17 172.295 6.456 171.715 7.028 171.264C7.60867 170.813 8.276 170.588 9.03 170.588C9.784 170.588 10.447 170.813 11.019 171.264C11.591 171.706 11.877 172.278 11.877 172.98C11.877 173.873 11.4003 174.527 10.447 174.943C11.6343 175.385 12.228 176.182 12.228 177.335C12.228 178.21 11.9073 178.895 11.266 179.389C10.6333 179.874 9.888 180.117 9.03 180.117ZM9.03 179.194C9.628 179.194 10.1177 179.029 10.499 178.7C10.8803 178.362 11.071 177.894 11.071 177.296C11.071 176.715 10.876 176.265 10.486 175.944C10.1047 175.615 9.628 175.45 9.056 175.45C8.46667 175.45 7.97267 175.615 7.574 175.944C7.17533 176.265 6.976 176.724 6.976 177.322C6.976 177.903 7.17533 178.362 7.574 178.7C7.97267 179.029 8.458 179.194 9.03 179.194ZM9.069 174.553C9.57167 174.553 9.97467 174.414 10.278 174.137C10.5813 173.86 10.733 173.478 10.733 172.993C10.733 172.551 10.5727 172.187 10.252 171.901C9.93133 171.615 9.524 171.472 9.03 171.472C8.52733 171.472 8.11567 171.611 7.795 171.888C7.47433 172.165 7.314 172.542 7.314 173.019C7.314 173.487 7.483 173.86 7.821 174.137C8.159 174.414 8.575 174.553 9.069 174.553ZM21.2993 179.181C22.9373 179.181 23.7563 177.981 23.7563 175.58V175.06C23.7563 173.977 23.5353 173.114 23.0933 172.473C22.6513 171.823 22.0446 171.498 21.2733 171.498C20.4846 171.498 19.8693 171.81 19.4273 172.434C18.9853 173.058 18.7643 173.942 18.7643 175.086V175.606C18.7643 176.759 18.9896 177.643 19.4403 178.258C19.8909 178.873 20.5106 179.181 21.2993 179.181ZM21.2993 180.117C20.1899 180.117 19.2973 179.705 18.6213 178.882C17.9453 178.059 17.6073 176.971 17.6073 175.619V175.099C17.6073 173.721 17.9323 172.625 18.5823 171.81C19.2409 170.995 20.1379 170.588 21.2733 170.588C22.3999 170.588 23.2839 171 23.9253 171.823C24.5753 172.646 24.9003 173.73 24.9003 175.073V175.593C24.9003 176.962 24.5796 178.059 23.9383 178.882C23.3056 179.705 22.4259 180.117 21.2993 180.117ZM30.4429 179.181C32.0809 179.181 32.8999 177.981 32.8999 175.58V175.06C32.8999 173.977 32.6789 173.114 32.2369 172.473C31.7949 171.823 31.1883 171.498 30.4169 171.498C29.6283 171.498 29.0129 171.81 28.5709 172.434C28.1289 173.058 27.9079 173.942 27.9079 175.086V175.606C27.9079 176.759 28.1333 177.643 28.5839 178.258C29.0346 178.873 29.6543 179.181 30.4429 179.181ZM30.4429 180.117C29.3336 180.117 28.4409 179.705 27.7649 178.882C27.0889 178.059 26.7509 176.971 26.7509 175.619V175.099C26.7509 173.721 27.0759 172.625 27.7259 171.81C28.3846 170.995 29.2816 170.588 30.4169 170.588C31.5436 170.588 32.4276 171 33.0689 171.823C33.7189 172.646 34.0439 173.73 34.0439 175.073V175.593C34.0439 176.962 33.7233 178.059 33.0819 178.882C32.4493 179.705 31.5696 180.117 30.4429 180.117ZM39.5866 179.181C41.2246 179.181 42.0436 177.981 42.0436 175.58V175.06C42.0436 173.977 41.8226 173.114 41.3806 172.473C40.9386 171.823 40.3319 171.498 39.5606 171.498C38.7719 171.498 38.1566 171.81 37.7146 172.434C37.2726 173.058 37.0516 173.942 37.0516 175.086V175.606C37.0516 176.759 37.2769 177.643 37.7276 178.258C38.1783 178.873 38.7979 179.181 39.5866 179.181ZM39.5866 180.117C38.4773 180.117 37.5846 179.705 36.9086 178.882C36.2326 178.059 35.8946 176.971 35.8946 175.619V175.099C35.8946 173.721 36.2196 172.625 36.8696 171.81C37.5283 170.995 38.4253 170.588 39.5606 170.588C40.6873 170.588 41.5713 171 42.2126 171.823C42.8626 172.646 43.1876 173.73 43.1876 175.073V175.593C43.1876 176.962 42.8669 178.059 42.2256 178.882C41.5929 179.705 40.7133 180.117 39.5866 180.117Z" fill="white"/>
<path d="M37.55 326.181C39.188 326.181 40.007 324.981 40.007 322.58V322.06C40.007 320.977 39.786 320.114 39.344 319.473C38.902 318.823 38.2953 318.498 37.524 318.498C36.7353 318.498 36.12 318.81 35.678 319.434C35.236 320.058 35.015 320.942 35.015 322.086V322.606C35.015 323.759 35.2403 324.643 35.691 325.258C36.1417 325.873 36.7613 326.181 37.55 326.181ZM37.55 327.117C36.4407 327.117 35.548 326.705 34.872 325.882C34.196 325.059 33.858 323.971 33.858 322.619V322.099C33.858 320.721 34.183 319.625 34.833 318.81C35.4917 317.995 36.3887 317.588 37.524 317.588C38.6507 317.588 39.5347 318 40.176 318.823C40.826 319.646 41.151 320.73 41.151 322.073V322.593C41.151 323.962 40.8303 325.059 40.189 325.882C39.5563 326.705 38.6767 327.117 37.55 327.117Z" fill="white"/>
<path d="M606.55 323.181C608.188 323.181 609.007 321.981 609.007 319.58V319.06C609.007 317.977 608.786 317.114 608.344 316.473C607.902 315.823 607.295 315.498 606.524 315.498C605.735 315.498 605.12 315.81 604.678 316.434C604.236 317.058 604.015 317.942 604.015 319.086V319.606C604.015 320.759 604.24 321.643 604.691 322.258C605.142 322.873 605.761 323.181 606.55 323.181ZM606.55 324.117C605.441 324.117 604.548 323.705 603.872 322.882C603.196 322.059 602.858 320.971 602.858 319.619V319.099C602.858 317.721 603.183 316.625 603.833 315.81C604.492 314.995 605.389 314.588 606.524 314.588C607.651 314.588 608.535 315 609.176 315.823C609.826 316.646 610.151 317.73 610.151 319.073V319.593C610.151 320.962 609.83 322.059 609.189 322.882C608.556 323.705 607.677 324.117 606.55 324.117Z" fill="white"/>
<path d="M606.199 133.117C603.972 133.117 602.858 131.709 602.858 128.892V128.671C602.858 127.042 603.187 125.789 603.846 124.914C604.513 124.03 605.397 123.588 606.498 123.588C607.243 123.588 607.85 123.779 608.318 124.16C608.795 124.541 609.094 125.1 609.215 125.837H608.136C608.032 125.386 607.846 125.053 607.577 124.836C607.308 124.619 606.923 124.511 606.42 124.511C605.701 124.511 605.12 124.832 604.678 125.473C604.236 126.114 604.002 127.033 603.976 128.229C604.479 127.388 605.276 126.968 606.368 126.968C607.278 126.968 608.01 127.258 608.565 127.839C609.128 128.411 609.41 129.135 609.41 130.01C609.41 130.946 609.12 131.7 608.539 132.272C607.958 132.835 607.178 133.117 606.199 133.117ZM606.199 132.233C606.806 132.233 607.3 132.034 607.681 131.635C608.062 131.236 608.253 130.712 608.253 130.062C608.253 129.386 608.067 128.849 607.694 128.45C607.321 128.051 606.819 127.852 606.186 127.852C605.562 127.852 605.051 128.043 604.652 128.424C604.253 128.805 604.054 129.299 604.054 129.906C604.054 130.643 604.249 131.215 604.639 131.622C605.038 132.029 605.558 132.233 606.199 132.233ZM614.818 132.181C616.456 132.181 617.275 130.981 617.275 128.58V128.06C617.275 126.977 617.054 126.114 616.612 125.473C616.17 124.823 615.563 124.498 614.792 124.498C614.003 124.498 613.388 124.81 612.946 125.434C612.504 126.058 612.283 126.942 612.283 128.086V128.606C612.283 129.759 612.508 130.643 612.959 131.258C613.409 131.873 614.029 132.181 614.818 132.181ZM614.818 133.117C613.708 133.117 612.816 132.705 612.14 131.882C611.464 131.059 611.126 129.971 611.126 128.619V128.099C611.126 126.721 611.451 125.625 612.101 124.81C612.759 123.995 613.656 123.588 614.792 123.588C615.918 123.588 616.802 124 617.444 124.823C618.094 125.646 618.419 126.73 618.419 128.073V128.593C618.419 129.962 618.098 131.059 617.457 131.882C616.824 132.705 615.944 133.117 614.818 133.117Z" fill="white"/>
<path d="M605.848 229.117C604.886 229.117 604.11 228.848 603.521 228.311C602.94 227.774 602.633 227.089 602.598 226.257H603.638C603.69 226.846 603.902 227.319 604.275 227.674C604.648 228.029 605.181 228.207 605.874 228.207C606.585 228.207 607.113 228.051 607.46 227.739C607.815 227.418 607.993 226.976 607.993 226.413C607.993 225.208 607.339 224.606 606.03 224.606H605.328V223.657H605.978C607.139 223.657 607.72 223.128 607.72 222.071C607.72 221.612 607.577 221.239 607.291 220.953C607.005 220.658 606.585 220.511 606.03 220.511C605.458 220.511 604.986 220.671 604.613 220.992C604.249 221.313 604.037 221.737 603.976 222.266H602.988C603.023 221.521 603.322 220.888 603.885 220.368C604.448 219.848 605.163 219.588 606.03 219.588C606.879 219.588 607.555 219.831 608.058 220.316C608.569 220.793 608.825 221.369 608.825 222.045C608.825 222.99 608.335 223.666 607.356 224.073C608.552 224.402 609.15 225.182 609.15 226.413C609.15 227.254 608.842 227.917 608.227 228.402C607.62 228.879 606.827 229.117 605.848 229.117ZM614.691 228.181C616.329 228.181 617.148 226.981 617.148 224.58V224.06C617.148 222.977 616.927 222.114 616.485 221.473C616.043 220.823 615.436 220.498 614.665 220.498C613.876 220.498 613.261 220.81 612.819 221.434C612.377 222.058 612.156 222.942 612.156 224.086V224.606C612.156 225.759 612.381 226.643 612.832 227.258C613.282 227.873 613.902 228.181 614.691 228.181ZM614.691 229.117C613.581 229.117 612.689 228.705 612.013 227.882C611.337 227.059 610.999 225.971 610.999 224.619V224.099C610.999 222.721 611.324 221.625 611.974 220.81C612.632 219.995 613.529 219.588 614.665 219.588C615.791 219.588 616.675 220 617.317 220.823C617.967 221.646 618.292 222.73 618.292 224.073V224.593C618.292 225.962 617.971 227.059 617.33 227.882C616.697 228.705 615.817 229.117 614.691 229.117Z" fill="white"/>
<path d="M604.587 283.823L602.507 285.318V284.265L604.665 282.705H605.718V292H604.587V283.823ZM612.025 291.181C613.663 291.181 614.482 289.981 614.482 287.58V287.06C614.482 285.977 614.261 285.114 613.819 284.473C613.377 283.823 612.77 283.498 611.999 283.498C611.21 283.498 610.595 283.81 610.153 284.434C609.711 285.058 609.49 285.942 609.49 287.086V287.606C609.49 288.759 609.715 289.643 610.166 290.258C610.616 290.873 611.236 291.181 612.025 291.181ZM612.025 292.117C610.915 292.117 610.023 291.705 609.347 290.882C608.671 290.059 608.333 288.971 608.333 287.619V287.099C608.333 285.721 608.658 284.625 609.308 283.81C609.966 282.995 610.863 282.588 611.999 282.588C613.125 282.588 614.009 283 614.651 283.823C615.301 284.646 615.626 285.73 615.626 287.073V287.593C615.626 288.962 615.305 290.059 614.664 290.882C614.031 291.705 613.151 292.117 612.025 292.117Z" fill="white"/>
<path d="M607.213 92.615H602.494V91.705H608.617V91.861L605.133 101H603.976L607.213 92.615ZM613.472 100.181C615.11 100.181 615.929 98.9807 615.929 96.58V96.06C615.929 94.9767 615.708 94.1143 615.266 93.473C614.824 92.823 614.217 92.498 613.446 92.498C612.657 92.498 612.042 92.81 611.6 93.434C611.158 94.058 610.937 94.942 610.937 96.086V96.606C610.937 97.7587 611.162 98.6427 611.613 99.258C612.064 99.8733 612.683 100.181 613.472 100.181ZM613.472 101.117C612.363 101.117 611.47 100.705 610.794 99.882C610.118 99.0587 609.78 97.971 609.78 96.619V96.099C609.78 94.721 610.105 93.6247 610.755 92.81C611.414 91.9953 612.311 91.588 613.446 91.588C614.573 91.588 615.457 91.9997 616.098 92.823C616.748 93.6463 617.073 94.7297 617.073 96.073V96.593C617.073 97.9623 616.752 99.0587 616.111 99.882C615.478 100.705 614.599 101.117 613.472 101.117Z" fill="white"/>
<path d="M607.239 195.05H602.585V194.686L606.836 187.705H608.344V194.127H609.631V195.05H608.344V197H607.239V195.05ZM607.239 194.127V188.563L604.015 194.127H607.239ZM614.792 196.181C616.43 196.181 617.249 194.981 617.249 192.58V192.06C617.249 190.977 617.028 190.114 616.586 189.473C616.144 188.823 615.538 188.498 614.766 188.498C613.978 188.498 613.362 188.81 612.92 189.434C612.478 190.058 612.257 190.942 612.257 192.086V192.606C612.257 193.759 612.483 194.643 612.933 195.258C613.384 195.873 614.004 196.181 614.792 196.181ZM614.792 197.117C613.683 197.117 612.79 196.705 612.114 195.882C611.438 195.059 611.1 193.971 611.1 192.619V192.099C611.1 190.721 611.425 189.625 612.075 188.81C612.734 187.995 613.631 187.588 614.766 187.588C615.893 187.588 616.777 188 617.418 188.823C618.068 189.646 618.393 190.73 618.393 192.073V192.593C618.393 193.962 618.073 195.059 617.431 195.882C616.799 196.705 615.919 197.117 614.792 197.117Z" fill="white"/>
<path d="M602.325 260.74L606.017 256.853C606.91 255.908 607.356 255.011 607.356 254.162C607.356 253.642 607.209 253.235 606.914 252.94C606.628 252.645 606.221 252.498 605.692 252.498C604.565 252.498 603.911 253.187 603.729 254.565H602.676C602.745 253.646 603.044 252.923 603.573 252.394C604.11 251.857 604.817 251.588 605.692 251.588C606.55 251.588 607.23 251.826 607.733 252.303C608.244 252.771 608.5 253.404 608.5 254.201C608.5 255.224 607.876 256.35 606.628 257.581L604.067 260.077H608.552V261H602.325V260.74ZM613.98 260.181C615.618 260.181 616.437 258.981 616.437 256.58V256.06C616.437 254.977 616.216 254.114 615.774 253.473C615.332 252.823 614.725 252.498 613.954 252.498C613.165 252.498 612.55 252.81 612.108 253.434C611.666 254.058 611.445 254.942 611.445 256.086V256.606C611.445 257.759 611.67 258.643 612.121 259.258C612.571 259.873 613.191 260.181 613.98 260.181ZM613.98 261.117C612.87 261.117 611.978 260.705 611.302 259.882C610.626 259.059 610.288 257.971 610.288 256.619V256.099C610.288 254.721 610.613 253.625 611.263 252.81C611.921 251.995 612.818 251.588 613.954 251.588C615.08 251.588 615.964 252 616.606 252.823C617.256 253.646 617.581 254.73 617.581 256.073V256.593C617.581 257.962 617.26 259.059 616.619 259.882C615.986 260.705 615.106 261.117 613.98 261.117Z" fill="white"/>
<path d="M606.03 70.117C605.501 70.117 604.999 70.0217 604.522 69.831C604.045 69.6317 603.642 69.3153 603.313 68.882C602.984 68.4487 602.819 67.9417 602.819 67.361C602.819 66.763 602.979 66.2603 603.3 65.853C603.621 65.4457 604.045 65.1467 604.574 64.956C603.638 64.5833 603.17 63.9333 603.17 63.006C603.17 62.2953 603.456 61.7147 604.028 61.264C604.609 60.8133 605.276 60.588 606.03 60.588C606.784 60.588 607.447 60.8133 608.019 61.264C608.591 61.706 608.877 62.278 608.877 62.98C608.877 63.8727 608.4 64.527 607.447 64.943C608.634 65.385 609.228 66.1823 609.228 67.335C609.228 68.2103 608.907 68.895 608.266 69.389C607.633 69.8743 606.888 70.117 606.03 70.117ZM606.03 69.194C606.628 69.194 607.118 69.0293 607.499 68.7C607.88 68.362 608.071 67.894 608.071 67.296C608.071 66.7153 607.876 66.2647 607.486 65.944C607.105 65.6147 606.628 65.45 606.056 65.45C605.467 65.45 604.973 65.6147 604.574 65.944C604.175 66.2647 603.976 66.724 603.976 67.322C603.976 67.9027 604.175 68.362 604.574 68.7C604.973 69.0293 605.458 69.194 606.03 69.194ZM606.069 64.553C606.572 64.553 606.975 64.4143 607.278 64.137C607.581 63.8597 607.733 63.4783 607.733 62.993C607.733 62.551 607.573 62.187 607.252 61.901C606.931 61.615 606.524 61.472 606.03 61.472C605.527 61.472 605.116 61.6107 604.795 61.888C604.474 62.1653 604.314 62.5423 604.314 63.019C604.314 63.487 604.483 63.8597 604.821 64.137C605.159 64.4143 605.575 64.553 606.069 64.553ZM614.602 69.181C616.24 69.181 617.059 67.9807 617.059 65.58V65.06C617.059 63.9767 616.838 63.1143 616.396 62.473C615.954 61.823 615.347 61.498 614.576 61.498C613.787 61.498 613.172 61.81 612.73 62.434C612.288 63.058 612.067 63.942 612.067 65.086V65.606C612.067 66.7587 612.292 67.6427 612.743 68.258C613.194 68.8733 613.813 69.181 614.602 69.181ZM614.602 70.117C613.493 70.117 612.6 69.7053 611.924 68.882C611.248 68.0587 610.91 66.971 610.91 65.619V65.099C610.91 63.721 611.235 62.6247 611.885 61.81C612.544 60.9953 613.441 60.588 614.576 60.588C615.703 60.588 616.587 60.9997 617.228 61.823C617.878 62.6463 618.203 63.7297 618.203 65.073V65.593C618.203 66.9623 617.882 68.0587 617.241 68.882C616.608 69.7053 615.729 70.117 614.602 70.117Z" fill="white"/>
<path d="M605.731 165.117C604.769 165.117 604.032 164.883 603.521 164.415C603.01 163.938 602.715 163.297 602.637 162.491H603.716C603.82 163.054 604.015 163.483 604.301 163.778C604.587 164.064 605.059 164.207 605.718 164.207C606.351 164.207 606.849 164.008 607.213 163.609C607.577 163.21 607.759 162.66 607.759 161.958C607.759 161.299 607.581 160.775 607.226 160.385C606.879 159.986 606.407 159.787 605.809 159.787C605.289 159.787 604.86 159.861 604.522 160.008C604.184 160.155 603.881 160.381 603.612 160.684H603.196V155.705H608.422V156.68H604.132V159.514C604.591 159.089 605.224 158.877 606.03 158.877C606.879 158.877 607.573 159.159 608.11 159.722C608.647 160.277 608.916 161.022 608.916 161.958C608.916 162.92 608.613 163.687 608.006 164.259C607.399 164.831 606.641 165.117 605.731 165.117ZM614.399 164.181C616.037 164.181 616.856 162.981 616.856 160.58V160.06C616.856 158.977 616.635 158.114 616.193 157.473C615.751 156.823 615.144 156.498 614.373 156.498C613.584 156.498 612.969 156.81 612.527 157.434C612.085 158.058 611.864 158.942 611.864 160.086V160.606C611.864 161.759 612.089 162.643 612.54 163.258C612.99 163.873 613.61 164.181 614.399 164.181ZM614.399 165.117C613.289 165.117 612.397 164.705 611.721 163.882C611.045 163.059 610.707 161.971 610.707 160.619V160.099C610.707 158.721 611.032 157.625 611.682 156.81C612.34 155.995 613.237 155.588 614.373 155.588C615.499 155.588 616.383 156 617.025 156.823C617.675 157.646 618 158.73 618 160.073V160.593C618 161.962 617.679 163.059 617.038 163.882C616.405 164.705 615.525 165.117 614.399 165.117Z" fill="white"/>
<path d="M129.325 364.74L133.017 360.853C133.91 359.908 134.356 359.011 134.356 358.162C134.356 357.642 134.209 357.235 133.914 356.94C133.628 356.645 133.221 356.498 132.692 356.498C131.565 356.498 130.911 357.187 130.729 358.565H129.676C129.745 357.646 130.044 356.923 130.573 356.394C131.11 355.857 131.817 355.588 132.692 355.588C133.55 355.588 134.23 355.826 134.733 356.303C135.244 356.771 135.5 357.404 135.5 358.201C135.5 359.224 134.876 360.35 133.628 361.581L131.067 364.077H135.552V365H129.325V364.74ZM140.98 364.181C142.618 364.181 143.437 362.981 143.437 360.58V360.06C143.437 358.977 143.216 358.114 142.774 357.473C142.332 356.823 141.725 356.498 140.954 356.498C140.165 356.498 139.55 356.81 139.108 357.434C138.666 358.058 138.445 358.942 138.445 360.086V360.606C138.445 361.759 138.67 362.643 139.121 363.258C139.571 363.873 140.191 364.181 140.98 364.181ZM140.98 365.117C139.87 365.117 138.978 364.705 138.302 363.882C137.626 363.059 137.288 361.971 137.288 360.619V360.099C137.288 358.721 137.613 357.625 138.263 356.81C138.921 355.995 139.818 355.588 140.954 355.588C142.08 355.588 142.964 356 143.606 356.823C144.256 357.646 144.581 358.73 144.581 360.073V360.593C144.581 361.962 144.26 363.059 143.619 363.882C142.986 364.705 142.106 365.117 140.98 365.117ZM148.16 356.823L146.08 358.318V357.265L148.238 355.705H149.291V365H148.16V356.823ZM156.261 356.615H151.542V355.705H157.665V355.861L154.181 365H153.024L156.261 356.615Z" fill="white"/>
<path d="M205.744 5.705H207.226L210.372 15H209.254L208.344 12.322H204.509L203.612 15H202.546L205.744 5.705ZM204.821 11.425H208.045L206.433 6.641L204.821 11.425ZM214.695 14.077C215.865 14.077 216.753 13.752 217.36 13.102C217.975 12.4433 218.283 11.5333 218.283 10.372V10.268C218.283 9.13267 217.988 8.24 217.399 7.59C216.818 6.94 215.913 6.615 214.682 6.615H213.421V14.077H214.695ZM212.29 5.705H214.747C216.281 5.705 217.447 6.12533 218.244 6.966C219.05 7.80667 219.453 8.90733 219.453 10.268V10.385C219.453 11.7457 219.054 12.855 218.257 13.713C217.46 14.571 216.281 15 214.721 15H212.29V5.705ZM221.624 5.705H224.419C225.381 5.705 226.161 5.91733 226.759 6.342C227.366 6.76667 227.669 7.41667 227.669 8.292V8.344C227.669 9.06333 227.457 9.63533 227.032 10.06C226.608 10.476 226.053 10.749 225.368 10.879L228.215 15H226.954L224.185 10.957H222.755V15H221.624V5.705ZM224.497 10.06C225.858 10.06 226.538 9.488 226.538 8.344V8.292C226.538 7.68533 226.365 7.25633 226.018 7.005C225.672 6.745 225.165 6.615 224.497 6.615H222.755V10.06H224.497ZM233.536 9.15L234.615 7.707L233.016 7.33L233.302 6.459L234.836 7.083L234.745 5.341H235.694L235.603 7.083L237.124 6.459L237.41 7.33L235.798 7.707L236.877 9.15L236.149 9.683L235.187 8.123L234.277 9.683L233.536 9.15Z" fill="white"/>
<path d="M417.809 15.117C416.778 15.117 415.993 14.844 415.456 14.298C414.927 13.752 414.615 13.0413 414.52 12.166H415.612C415.69 12.7987 415.889 13.297 416.21 13.661C416.539 14.025 417.072 14.207 417.809 14.207C418.502 14.207 419.031 14.038 419.395 13.7C419.759 13.3533 419.941 12.8767 419.941 12.27C419.941 11.698 419.772 11.2863 419.434 11.035C419.105 10.775 418.541 10.645 417.744 10.645H416.561V9.787H417.744C418.94 9.787 419.538 9.21933 419.538 8.084C419.538 7.02667 418.962 6.498 417.809 6.498C417.237 6.498 416.799 6.628 416.496 6.888C416.201 7.13933 415.998 7.55967 415.885 8.149H414.871C415.07 6.44167 416.076 5.588 417.887 5.588C418.71 5.588 419.373 5.81767 419.876 6.277C420.387 6.72767 420.643 7.33 420.643 8.084C420.643 8.56933 420.509 9.00267 420.24 9.384C419.98 9.75667 419.603 10.0167 419.109 10.164C419.75 10.2593 420.236 10.489 420.565 10.853C420.894 11.217 421.059 11.6893 421.059 12.27C421.059 13.0933 420.756 13.7737 420.149 14.311C419.551 14.8483 418.771 15.117 417.809 15.117ZM424.734 15.117C424.067 15.117 423.521 14.9523 423.096 14.623C422.68 14.285 422.472 13.7823 422.472 13.115C422.472 12.7423 422.563 12.4173 422.745 12.14C422.936 11.854 423.196 11.633 423.525 11.477C423.855 11.3123 424.214 11.1953 424.604 11.126C424.994 11.048 425.419 11.009 425.878 11.009H426.853V10.515C426.853 9.969 426.741 9.579 426.515 9.345C426.29 9.10233 425.917 8.981 425.397 8.981C424.461 8.981 423.941 9.38833 423.837 10.203H422.758C422.828 9.475 423.109 8.942 423.603 8.604C424.106 8.25733 424.721 8.084 425.449 8.084C427.105 8.084 427.932 8.89433 427.932 10.515V15H426.853V14.142C426.333 14.792 425.627 15.117 424.734 15.117ZM424.838 14.259C425.428 14.259 425.909 14.116 426.281 13.83C426.663 13.5353 426.853 13.1323 426.853 12.621V11.776H425.917C424.34 11.776 423.551 12.2223 423.551 13.115C423.551 13.8777 423.98 14.259 424.838 14.259ZM431.183 9.111V15H430.104V8.201H434.42V9.111H431.183ZM436.114 8.201H437.193V9.345C437.392 8.99833 437.704 8.70367 438.129 8.461C438.553 8.20967 439.008 8.084 439.494 8.084C440.404 8.084 441.145 8.39167 441.717 9.007C442.297 9.62233 442.588 10.4543 442.588 11.503V11.607C442.588 12.6557 442.302 13.505 441.73 14.155C441.166 14.7963 440.421 15.117 439.494 15.117C438.454 15.117 437.687 14.7053 437.193 13.882V17.366H436.114V8.201ZM439.39 14.22C440.066 14.22 440.581 14.0033 440.937 13.57C441.292 13.128 441.47 12.491 441.47 11.659V11.555C441.47 10.7317 441.27 10.099 440.872 9.657C440.482 9.20633 439.983 8.981 439.377 8.981C438.718 8.981 438.181 9.202 437.765 9.644C437.357 10.0773 437.154 10.7143 437.154 11.555V11.659C437.154 12.4997 437.353 13.1367 437.752 13.57C438.159 14.0033 438.705 14.22 439.39 14.22ZM446.165 14.298L443.5 8.201H444.657L446.737 13.076L448.622 8.201H449.727L445.97 17.366H444.878L446.165 14.298ZM455.454 9.969C455.454 10.307 455.354 10.619 455.155 10.905C454.964 11.1823 454.691 11.3557 454.336 11.425C454.778 11.503 455.129 11.672 455.389 11.932C455.649 12.192 455.779 12.5343 455.779 12.959V12.998C455.779 13.6307 455.545 14.142 455.077 14.532C454.618 14.922 453.989 15.117 453.192 15.117C452.369 15.117 451.723 14.9263 451.255 14.545C450.796 14.155 450.549 13.609 450.514 12.907H451.567C451.619 13.3403 451.766 13.6697 452.009 13.895C452.26 14.1117 452.655 14.22 453.192 14.22C454.163 14.22 454.648 13.8343 454.648 13.063V13.024C454.648 12.6427 454.531 12.3653 454.297 12.192C454.072 12.0187 453.721 11.932 453.244 11.932H452.217V11.074H453.062C453.513 11.074 453.833 10.9917 454.024 10.827C454.223 10.6623 454.323 10.3937 454.323 10.021V9.982C454.323 9.31467 453.933 8.981 453.153 8.981C452.399 8.981 451.948 9.33633 451.801 10.047H450.761C450.839 9.36233 451.099 8.864 451.541 8.552C451.992 8.24 452.551 8.084 453.218 8.084C453.859 8.084 454.392 8.24867 454.817 8.578C455.242 8.89867 455.454 9.34933 455.454 9.93V9.969ZM458.706 11.529V15H457.627V8.201H458.706V11.373L461.527 8.201H462.788L459.876 11.399L463.035 15H461.722L458.706 11.529ZM466.178 15.117C465.51 15.117 464.964 14.9523 464.54 14.623C464.124 14.285 463.916 13.7823 463.916 13.115C463.916 12.7423 464.007 12.4173 464.189 12.14C464.379 11.854 464.639 11.633 464.969 11.477C465.298 11.3123 465.658 11.1953 466.048 11.126C466.438 11.048 466.862 11.009 467.322 11.009H468.297V10.515C468.297 9.969 468.184 9.579 467.959 9.345C467.733 9.10233 467.361 8.981 466.841 8.981C465.905 8.981 465.385 9.38833 465.281 10.203H464.202C464.271 9.475 464.553 8.942 465.047 8.604C465.549 8.25733 466.165 8.084 466.893 8.084C468.548 8.084 469.376 8.89433 469.376 10.515V15H468.297V14.142C467.777 14.792 467.07 15.117 466.178 15.117ZM466.282 14.259C466.871 14.259 467.352 14.116 467.725 13.83C468.106 13.5353 468.297 13.1323 468.297 12.621V11.776H467.361C465.783 11.776 464.995 12.2223 464.995 13.115C464.995 13.8777 465.424 14.259 466.282 14.259ZM476.95 16.924C475.512 15.286 474.792 13.2927 474.792 10.944C474.792 8.63867 475.512 6.641 476.95 4.951H478.029C476.625 6.67567 475.923 8.67333 475.923 10.944C475.923 13.18 476.625 15.1733 478.029 16.924H476.95ZM483.879 9.111H480.668V15H479.589V8.201H484.958V15H483.879V9.111ZM487.351 8.201H488.43V9.345C488.629 8.99833 488.941 8.70367 489.366 8.461C489.791 8.20967 490.246 8.084 490.731 8.084C491.641 8.084 492.382 8.39167 492.954 9.007C493.535 9.62233 493.825 10.4543 493.825 11.503V11.607C493.825 12.6557 493.539 13.505 492.967 14.155C492.404 14.7963 491.658 15.117 490.731 15.117C489.691 15.117 488.924 14.7053 488.43 13.882V17.366H487.351V8.201ZM490.627 14.22C491.303 14.22 491.819 14.0033 492.174 13.57C492.529 13.128 492.707 12.491 492.707 11.659V11.555C492.707 10.7317 492.508 10.099 492.109 9.657C491.719 9.20633 491.221 8.981 490.614 8.981C489.955 8.981 489.418 9.202 489.002 9.644C488.595 10.0773 488.391 10.7143 488.391 11.555V11.659C488.391 12.4997 488.59 13.1367 488.989 13.57C489.396 14.0033 489.942 14.22 490.627 14.22ZM496.703 14.831C496.539 14.987 496.344 15.065 496.118 15.065C495.893 15.065 495.698 14.987 495.533 14.831C495.369 14.6663 495.286 14.467 495.286 14.233C495.286 13.999 495.369 13.804 495.533 13.648C495.698 13.4833 495.893 13.401 496.118 13.401C496.344 13.401 496.539 13.4833 496.703 13.648C496.868 13.804 496.95 13.999 496.95 14.233C496.95 14.467 496.868 14.6663 496.703 14.831ZM505.733 14.22C506.409 14.22 506.947 13.986 507.345 13.518C507.753 13.05 507.956 12.4303 507.956 11.659V11.568C507.956 10.7793 507.753 10.151 507.345 9.683C506.947 9.215 506.409 8.981 505.733 8.981C505.049 8.981 504.507 9.215 504.108 9.683C503.71 10.151 503.51 10.775 503.51 11.555V11.659C503.51 12.4477 503.705 13.0717 504.095 13.531C504.494 13.9903 505.04 14.22 505.733 14.22ZM505.72 15.117C504.758 15.117 503.961 14.792 503.328 14.142C502.704 13.4833 502.392 12.6557 502.392 11.659V11.555C502.392 10.541 502.704 9.709 503.328 9.059C503.961 8.409 504.763 8.084 505.733 8.084C506.704 8.084 507.501 8.409 508.125 9.059C508.758 9.70033 509.074 10.528 509.074 11.542V11.646C509.074 12.6687 508.758 13.505 508.125 14.155C507.493 14.7963 506.691 15.117 505.72 15.117ZM513.696 15.117C512.725 15.117 511.928 14.805 511.304 14.181C510.68 13.5483 510.368 12.712 510.368 11.672V11.568C510.368 10.5453 510.684 9.709 511.317 9.059C511.958 8.409 512.743 8.084 513.67 8.084C514.45 8.084 515.113 8.279 515.659 8.669C516.205 9.05033 516.526 9.64833 516.621 10.463H515.555C515.399 9.475 514.771 8.981 513.67 8.981C513.037 8.981 512.513 9.21933 512.097 9.696C511.69 10.164 511.486 10.788 511.486 11.568V11.672C511.486 12.4867 511.685 13.115 512.084 13.557C512.491 13.999 513.033 14.22 513.709 14.22C514.22 14.22 514.658 14.077 515.022 13.791C515.395 13.4963 515.607 13.0847 515.659 12.556H516.66C516.591 13.3013 516.279 13.9167 515.724 14.402C515.178 14.8787 514.502 15.117 513.696 15.117ZM518.341 8.201H519.42V10.58H520.629C521.392 10.58 522.016 10.7663 522.501 11.139C522.986 11.5117 523.229 12.0663 523.229 12.803V12.842C523.229 13.5873 522.986 14.1333 522.501 14.48C522.024 14.8267 521.4 15 520.629 15H518.341V8.201ZM520.694 14.155C521.214 14.155 521.587 14.0467 521.812 13.83C522.037 13.6047 522.15 13.2753 522.15 12.842V12.803C522.15 12.335 522.033 11.9927 521.799 11.776C521.574 11.5507 521.205 11.438 520.694 11.438H519.42V14.155H520.694ZM524.141 16.924C525.545 15.1993 526.247 13.2017 526.247 10.931C526.247 8.695 525.545 6.70167 524.141 4.951H525.22C526.658 6.693 527.378 8.68633 527.378 10.931C527.378 13.2363 526.658 15.234 525.22 16.924H524.141ZM532.989 9.15L534.068 7.707L532.469 7.33L532.755 6.459L534.289 7.083L534.198 5.341H535.147L535.056 7.083L536.577 6.459L536.863 7.33L535.251 7.707L536.33 9.15L535.602 9.683L534.64 8.123L533.73 9.683L532.989 9.15Z" fill="white"/>
<path d="M8.248 4.705H10.887C11.8403 4.705 12.6203 4.93033 13.227 5.381C13.8337 5.823 14.137 6.50333 14.137 7.422V7.474C14.137 8.41 13.8337 9.10333 13.227 9.554C12.629 9.996 11.849 10.217 10.887 10.217H9.379V14H8.248V4.705ZM10.965 9.32C11.6323 9.32 12.1393 9.164 12.486 8.852C12.8327 8.53133 13.006 8.072 13.006 7.474V7.422C13.006 6.21733 12.3257 5.615 10.965 5.615H9.379V9.32H10.965ZM17.7517 13.298L15.0867 7.201H16.2437L18.3237 12.076L20.2087 7.201H21.3137L17.5567 16.366H16.4647L17.7517 13.298ZM25.7116 14.117C24.6889 14.117 23.8786 13.7877 23.2806 13.129C22.6826 12.4703 22.3836 11.4693 22.3836 10.126V9.71C22.3836 9.06867 22.4096 8.501 22.4616 8.007C22.5136 7.50433 22.6219 7.00167 22.7866 6.499C22.9512 5.98767 23.1679 5.563 23.4366 5.225C23.7052 4.887 24.0692 4.60533 24.5286 4.38C24.9966 4.15467 25.5469 4.02467 26.1796 3.99L26.4396 3.977C27.3929 3.925 28.0386 3.82967 28.3766 3.691L28.5196 4.601C28.0776 4.79167 27.3886 4.90867 26.4526 4.952L26.2576 4.965C25.2089 5.017 24.4592 5.35933 24.0086 5.992C23.5666 6.616 23.3066 7.58667 23.2286 8.904H23.2806C23.5146 8.42733 23.8612 8.05033 24.3206 7.773C24.7886 7.487 25.3302 7.344 25.9456 7.344C26.8902 7.344 27.6442 7.65167 28.2076 8.267C28.7796 8.87367 29.0656 9.66233 29.0656 10.633V10.685C29.0656 11.7337 28.7492 12.57 28.1166 13.194C27.4926 13.8093 26.6909 14.117 25.7116 14.117ZM24.0866 12.557C24.4852 12.999 25.0312 13.22 25.7246 13.22C26.4179 13.22 26.9596 13.0033 27.3496 12.57C27.7482 12.128 27.9476 11.504 27.9476 10.698V10.672C27.9476 9.918 27.7656 9.32433 27.4016 8.891C27.0462 8.45767 26.5262 8.241 25.8416 8.241C25.1222 8.241 24.5502 8.46633 24.1256 8.917C23.7096 9.36767 23.5016 9.983 23.5016 10.763V10.789C23.5016 11.5257 23.6966 12.115 24.0866 12.557ZM32.1765 11.374C32.0985 12.31 31.9339 12.9947 31.6825 13.428C31.4312 13.8527 31.0369 14.065 30.4995 14.065C30.3869 14.065 30.2699 14.0563 30.1485 14.039L30.0445 14V12.973L30.1355 12.999C30.2222 13.0163 30.3132 13.025 30.4085 13.025C30.5472 13.025 30.6599 12.986 30.7465 12.908C30.8419 12.8213 30.9155 12.687 30.9675 12.505C31.0282 12.323 31.0715 12.154 31.0975 11.998C31.1235 11.8333 31.1539 11.6037 31.1885 11.309C31.2232 10.997 31.2752 10.113 31.3445 8.657L31.3835 7.201H35.8685V14H34.7895V8.111H32.3455C32.2675 9.983 32.2112 11.0707 32.1765 11.374ZM38.1794 14V7.201H39.2584V12.44L42.7294 7.201H43.8084V14H42.7294V8.761L39.2584 14H38.1794Z" fill="white"/>
<path d="M604.652 8.176C605.016 8.176 605.298 8.059 605.497 7.825C605.696 7.591 605.796 7.25733 605.796 6.824C605.796 6.408 605.692 6.07867 605.484 5.836C605.285 5.59333 605.007 5.472 604.652 5.472C604.305 5.472 604.028 5.59333 603.82 5.836C603.612 6.07 603.508 6.40367 603.508 6.837C603.508 7.27033 603.608 7.604 603.807 7.838C604.015 8.06333 604.297 8.176 604.652 8.176ZM606.147 8.397C605.722 8.813 605.224 9.021 604.652 9.021C604.08 9.021 603.582 8.813 603.157 8.397C602.732 7.981 602.52 7.46533 602.52 6.85C602.52 6.21733 602.728 5.68867 603.144 5.264C603.569 4.83933 604.071 4.627 604.652 4.627C605.233 4.627 605.731 4.83933 606.147 5.264C606.572 5.68867 606.784 6.20867 606.784 6.824C606.784 7.448 606.572 7.97233 606.147 8.397ZM609.514 4.705H610.502L604.821 14H603.833L609.514 4.705ZM609.696 13.259C610.06 13.259 610.342 13.142 610.541 12.908C610.74 12.674 610.84 12.3403 610.84 11.907C610.84 11.491 610.736 11.1617 610.528 10.919C610.329 10.6763 610.051 10.555 609.696 10.555C609.349 10.555 609.072 10.6763 608.864 10.919C608.656 11.153 608.552 11.4867 608.552 11.92C608.552 12.3533 608.652 12.687 608.851 12.921C609.059 13.1463 609.341 13.259 609.696 13.259ZM611.191 13.48C610.766 13.896 610.268 14.104 609.696 14.104C609.124 14.104 608.626 13.896 608.201 13.48C607.776 13.064 607.564 12.5483 607.564 11.933C607.564 11.3003 607.772 10.7717 608.188 10.347C608.613 9.92233 609.115 9.71 609.696 9.71C610.277 9.71 610.775 9.92233 611.191 10.347C611.616 10.7717 611.828 11.2917 611.828 11.907C611.828 12.531 611.616 13.0553 611.191 13.48Z" fill="white"/>
<path d="M291.325 364.74L295.017 360.853C295.91 359.908 296.356 359.011 296.356 358.162C296.356 357.642 296.209 357.235 295.914 356.94C295.628 356.645 295.221 356.498 294.692 356.498C293.565 356.498 292.911 357.187 292.729 358.565H291.676C291.745 357.646 292.044 356.923 292.573 356.394C293.11 355.857 293.817 355.588 294.692 355.588C295.55 355.588 296.23 355.826 296.733 356.303C297.244 356.771 297.5 357.404 297.5 358.201C297.5 359.224 296.876 360.35 295.628 361.581L293.067 364.077H297.552V365H291.325V364.74ZM302.98 364.181C304.618 364.181 305.437 362.981 305.437 360.58V360.06C305.437 358.977 305.216 358.114 304.774 357.473C304.332 356.823 303.725 356.498 302.954 356.498C302.165 356.498 301.55 356.81 301.108 357.434C300.666 358.058 300.445 358.942 300.445 360.086V360.606C300.445 361.759 300.67 362.643 301.121 363.258C301.571 363.873 302.191 364.181 302.98 364.181ZM302.98 365.117C301.87 365.117 300.978 364.705 300.302 363.882C299.626 363.059 299.288 361.971 299.288 360.619V360.099C299.288 358.721 299.613 357.625 300.263 356.81C300.921 355.995 301.818 355.588 302.954 355.588C304.08 355.588 304.964 356 305.606 356.823C306.256 357.646 306.581 358.73 306.581 360.073V360.593C306.581 361.962 306.26 363.059 305.619 363.882C304.986 364.705 304.106 365.117 302.98 365.117ZM310.16 356.823L308.08 358.318V357.265L310.238 355.705H311.291V365H310.16V356.823ZM317.078 365.117C316.55 365.117 316.047 365.022 315.57 364.831C315.094 364.632 314.691 364.315 314.361 363.882C314.032 363.449 313.867 362.942 313.867 362.361C313.867 361.763 314.028 361.26 314.348 360.853C314.669 360.446 315.094 360.147 315.622 359.956C314.686 359.583 314.218 358.933 314.218 358.006C314.218 357.295 314.504 356.715 315.076 356.264C315.657 355.813 316.324 355.588 317.078 355.588C317.832 355.588 318.495 355.813 319.067 356.264C319.639 356.706 319.925 357.278 319.925 357.98C319.925 358.873 319.449 359.527 318.495 359.943C319.683 360.385 320.276 361.182 320.276 362.335C320.276 363.21 319.956 363.895 319.314 364.389C318.682 364.874 317.936 365.117 317.078 365.117ZM317.078 364.194C317.676 364.194 318.166 364.029 318.547 363.7C318.929 363.362 319.119 362.894 319.119 362.296C319.119 361.715 318.924 361.265 318.534 360.944C318.153 360.615 317.676 360.45 317.104 360.45C316.515 360.45 316.021 360.615 315.622 360.944C315.224 361.265 315.024 361.724 315.024 362.322C315.024 362.903 315.224 363.362 315.622 363.7C316.021 364.029 316.506 364.194 317.078 364.194ZM317.117 359.553C317.62 359.553 318.023 359.414 318.326 359.137C318.63 358.86 318.781 358.478 318.781 357.993C318.781 357.551 318.621 357.187 318.3 356.901C317.98 356.615 317.572 356.472 317.078 356.472C316.576 356.472 316.164 356.611 315.843 356.888C315.523 357.165 315.362 357.542 315.362 358.019C315.362 358.487 315.531 358.86 315.869 359.137C316.207 359.414 316.623 359.553 317.117 359.553Z" fill="white"/>
<path d="M455.325 364.74L459.017 360.853C459.91 359.908 460.356 359.011 460.356 358.162C460.356 357.642 460.209 357.235 459.914 356.94C459.628 356.645 459.221 356.498 458.692 356.498C457.565 356.498 456.911 357.187 456.729 358.565H455.676C455.745 357.646 456.044 356.923 456.573 356.394C457.11 355.857 457.817 355.588 458.692 355.588C459.55 355.588 460.23 355.826 460.733 356.303C461.244 356.771 461.5 357.404 461.5 358.201C461.5 359.224 460.876 360.35 459.628 361.581L457.067 364.077H461.552V365H455.325V364.74ZM466.98 364.181C468.618 364.181 469.437 362.981 469.437 360.58V360.06C469.437 358.977 469.216 358.114 468.774 357.473C468.332 356.823 467.725 356.498 466.954 356.498C466.165 356.498 465.55 356.81 465.108 357.434C464.666 358.058 464.445 358.942 464.445 360.086V360.606C464.445 361.759 464.67 362.643 465.121 363.258C465.571 363.873 466.191 364.181 466.98 364.181ZM466.98 365.117C465.87 365.117 464.978 364.705 464.302 363.882C463.626 363.059 463.288 361.971 463.288 360.619V360.099C463.288 358.721 463.613 357.625 464.263 356.81C464.921 355.995 465.818 355.588 466.954 355.588C468.08 355.588 468.964 356 469.606 356.823C470.256 357.646 470.581 358.73 470.581 360.073V360.593C470.581 361.962 470.26 363.059 469.619 363.882C468.986 364.705 468.106 365.117 466.98 365.117ZM474.16 356.823L472.08 358.318V357.265L474.238 355.705H475.291V365H474.16V356.823ZM480.769 365.104C479.92 365.104 479.24 364.896 478.728 364.48C478.217 364.064 477.901 363.475 477.779 362.712H478.871C478.984 363.197 479.188 363.566 479.482 363.817C479.786 364.06 480.223 364.181 480.795 364.181C481.549 364.181 482.13 363.873 482.537 363.258C482.945 362.643 483.157 361.72 483.174 360.489C482.94 360.879 482.615 361.182 482.199 361.399C481.783 361.616 481.307 361.724 480.769 361.724C479.868 361.724 479.131 361.438 478.559 360.866C477.996 360.294 477.714 359.566 477.714 358.682C477.714 357.746 478.005 356.996 478.585 356.433C479.166 355.861 479.946 355.575 480.925 355.575C482.026 355.575 482.858 355.93 483.421 356.641C483.985 357.352 484.266 358.383 484.266 359.735V360.32C484.266 361.871 483.963 363.059 483.356 363.882C482.758 364.697 481.896 365.104 480.769 365.104ZM480.938 360.84C481.562 360.84 482.074 360.654 482.472 360.281C482.871 359.908 483.07 359.423 483.07 358.825C483.07 358.08 482.871 357.499 482.472 357.083C482.082 356.667 481.567 356.459 480.925 356.459C480.319 356.459 479.825 356.658 479.443 357.057C479.062 357.456 478.871 357.98 478.871 358.63C478.871 359.306 479.058 359.843 479.43 360.242C479.803 360.641 480.306 360.84 480.938 360.84Z" fill="white"/>
<rect opacity="0.5" x="78" y="325" width="484" height="1" fill="#434343"/>
<rect opacity="0.5" x="78" y="196" width="484" height="1" fill="#434343"/>
<rect opacity="0.5" x="78" y="67" width="484" height="2" fill="#434343"/>
<rect opacity="0.5" x="78" y="131" width="484" height="1" fill="#434343"/>
<rect x="115" y="137" width="42" height="188" fill="#F5E6D1"/>
<rect x="280" y="110" width="44" height="215" fill="#F5E6D1"/>
<rect x="441" y="125" width="42" height="200" fill="#F5E6D1"/>
<circle cx="156.5" cy="148.5" r="3.5" fill="#C7794E"/>
<circle cx="188" cy="10" r="4" fill="#F5E6D1"/>
<circle cx="401" cy="10" r="4" fill="#C7794E"/>
<circle cx="323.5" cy="146.5" r="3.5" fill="#C7794E"/>
<circle cx="483.5" cy="139.5" r="3.5" fill="#C7794E"/>
<path d="M156 148L324 146" stroke="#C7794E" stroke-width="3"/>
<path d="M324 146L483 139" stroke="#C7794E" stroke-width="3"/>
</svg>
