<svg width="997" height="561" viewBox="0 0 997 561" fill="none" xmlns="http://www.w3.org/2000/svg">
<path d="M2.985 203.426L0.585 205.151V203.936L3.075 202.136H4.29V212.861H2.985V203.426ZM11.567 211.916C13.457 211.916 14.402 210.531 14.402 207.761V207.161C14.402 205.911 14.147 204.916 13.637 204.176C13.127 203.426 12.427 203.051 11.537 203.051C10.627 203.051 9.91699 203.411 9.40699 204.131C8.89699 204.851 8.64199 205.871 8.64199 207.191V207.791C8.64199 209.121 8.90199 210.141 9.42199 210.851C9.94199 211.561 10.657 211.916 11.567 211.916ZM11.567 212.996C10.287 212.996 9.25699 212.521 8.47699 211.571C7.69699 210.621 7.30699 209.366 7.30699 207.806V207.206C7.30699 205.616 7.68199 204.351 8.43199 203.411C9.19199 202.471 10.227 202.001 11.537 202.001C12.837 202.001 13.857 202.476 14.597 203.426C15.347 204.376 15.722 205.626 15.722 207.176V207.776C15.722 209.356 15.352 210.621 14.612 211.571C13.882 212.521 12.867 212.996 11.567 212.996ZM26.2371 211.916C28.1271 211.916 29.0721 210.531 29.0721 207.761V207.161C29.0721 205.911 28.8171 204.916 28.3071 204.176C27.7971 203.426 27.0971 203.051 26.2071 203.051C25.2971 203.051 24.5871 203.411 24.0771 204.131C23.5671 204.851 23.3121 205.871 23.3121 207.191V207.791C23.3121 209.121 23.5721 210.141 24.0921 210.851C24.6121 211.561 25.3271 211.916 26.2371 211.916ZM26.2371 212.996C24.9571 212.996 23.9271 212.521 23.1471 211.571C22.3671 210.621 21.9771 209.366 21.9771 207.806V207.206C21.9771 205.616 22.3521 204.351 23.1021 203.411C23.8621 202.471 24.8971 202.001 26.2071 202.001C27.5071 202.001 28.5271 202.476 29.2671 203.426C30.0171 204.376 30.3921 205.626 30.3921 207.176V207.776C30.3921 209.356 30.0221 210.621 29.2821 211.571C28.5521 212.521 27.5371 212.996 26.2371 212.996ZM36.7875 211.916C38.6775 211.916 39.6225 210.531 39.6225 207.761V207.161C39.6225 205.911 39.3675 204.916 38.8575 204.176C38.3475 203.426 37.6475 203.051 36.7575 203.051C35.8475 203.051 35.1375 203.411 34.6275 204.131C34.1175 204.851 33.8625 205.871 33.8625 207.191V207.791C33.8625 209.121 34.1225 210.141 34.6425 210.851C35.1625 211.561 35.8775 211.916 36.7875 211.916ZM36.7875 212.996C35.5075 212.996 34.4775 212.521 33.6975 211.571C32.9175 210.621 32.5275 209.366 32.5275 207.806V207.206C32.5275 205.616 32.9025 204.351 33.6525 203.411C34.4125 202.471 35.4475 202.001 36.7575 202.001C38.0575 202.001 39.0775 202.476 39.8175 203.426C40.5675 204.376 40.9425 205.626 40.9425 207.176V207.776C40.9425 209.356 40.5725 210.621 39.8325 211.571C39.1025 212.521 38.0875 212.996 36.7875 212.996ZM47.3379 211.916C49.2279 211.916 50.1729 210.531 50.1729 207.761V207.161C50.1729 205.911 49.9179 204.916 49.4079 204.176C48.8979 203.426 48.1979 203.051 47.3079 203.051C46.3979 203.051 45.6879 203.411 45.1779 204.131C44.6679 204.851 44.4129 205.871 44.4129 207.191V207.791C44.4129 209.121 44.6729 210.141 45.1929 210.851C45.7129 211.561 46.4279 211.916 47.3379 211.916ZM47.3379 212.996C46.0579 212.996 45.0279 212.521 44.2479 211.571C43.4679 210.621 43.0779 209.366 43.0779 207.806V207.206C43.0779 205.616 43.4529 204.351 44.2029 203.411C44.9629 202.471 45.9979 202.001 47.3079 202.001C48.6079 202.001 49.6279 202.476 50.3679 203.426C51.1179 204.376 51.4929 205.626 51.4929 207.176V207.776C51.4929 209.356 51.1229 210.621 50.3829 211.571C49.6529 212.521 48.6379 212.996 47.3379 212.996Z" fill="white"/>
<path d="M10.1323 435.596L14.3923 431.111C15.4223 430.021 15.9373 428.986 15.9373 428.006C15.9373 427.406 15.7673 426.936 15.4273 426.596C15.0973 426.256 14.6273 426.086 14.0173 426.086C12.7173 426.086 11.9623 426.881 11.7523 428.471H10.5373C10.6173 427.411 10.9623 426.576 11.5723 425.966C12.1923 425.346 13.0073 425.036 14.0173 425.036C15.0073 425.036 15.7923 425.311 16.3723 425.861C16.9623 426.401 17.2573 427.131 17.2573 428.051C17.2573 429.231 16.5373 430.531 15.0973 431.951L12.1423 434.831H17.3173V435.896H10.1323V435.596ZM27.7731 434.951C29.6631 434.951 30.6081 433.566 30.6081 430.796V430.196C30.6081 428.946 30.3531 427.951 29.8431 427.211C29.3331 426.461 28.6331 426.086 27.7431 426.086C26.8331 426.086 26.1231 426.446 25.6131 427.166C25.1031 427.886 24.8481 428.906 24.8481 430.226V430.826C24.8481 432.156 25.1081 433.176 25.6281 433.886C26.1481 434.596 26.8631 434.951 27.7731 434.951ZM27.7731 436.031C26.4931 436.031 25.4631 435.556 24.6831 434.606C23.9031 433.656 23.5131 432.401 23.5131 430.841V430.241C23.5131 428.651 23.8881 427.386 24.6381 426.446C25.3981 425.506 26.4331 425.036 27.7431 425.036C29.0431 425.036 30.0631 425.511 30.8031 426.461C31.5531 427.411 31.9281 428.661 31.9281 430.211V430.811C31.9281 432.391 31.5581 433.656 30.8181 434.606C30.0881 435.556 29.0731 436.031 27.7731 436.031ZM38.3235 434.951C40.2135 434.951 41.1585 433.566 41.1585 430.796V430.196C41.1585 428.946 40.9035 427.951 40.3935 427.211C39.8835 426.461 39.1835 426.086 38.2935 426.086C37.3835 426.086 36.6735 426.446 36.1635 427.166C35.6535 427.886 35.3985 428.906 35.3985 430.226V430.826C35.3985 432.156 35.6585 433.176 36.1785 433.886C36.6985 434.596 37.4135 434.951 38.3235 434.951ZM38.3235 436.031C37.0435 436.031 36.0135 435.556 35.2335 434.606C34.4535 433.656 34.0635 432.401 34.0635 430.841V430.241C34.0635 428.651 34.4385 427.386 35.1885 426.446C35.9485 425.506 36.9835 425.036 38.2935 425.036C39.5935 425.036 40.6135 425.511 41.3535 426.461C42.1035 427.411 42.4785 428.661 42.4785 430.211V430.811C42.4785 432.391 42.1085 433.656 41.3685 434.606C40.6385 435.556 39.6235 436.031 38.3235 436.031ZM48.8739 434.951C50.7639 434.951 51.7089 433.566 51.7089 430.796V430.196C51.7089 428.946 51.4539 427.951 50.9439 427.211C50.4339 426.461 49.7339 426.086 48.8439 426.086C47.9339 426.086 47.2239 426.446 46.7139 427.166C46.2039 427.886 45.9489 428.906 45.9489 430.226V430.826C45.9489 432.156 46.2089 433.176 46.7289 433.886C47.2489 434.596 47.9639 434.951 48.8739 434.951ZM48.8739 436.031C47.5939 436.031 46.5639 435.556 45.7839 434.606C45.0039 433.656 44.6139 432.401 44.6139 430.841V430.241C44.6139 428.651 44.9889 427.386 45.7389 426.446C46.4989 425.506 47.5339 425.036 48.8439 425.036C50.1439 425.036 51.1639 425.511 51.9039 426.461C52.6539 427.411 53.0289 428.661 53.0289 430.211V430.811C53.0289 432.391 52.6589 433.656 51.9189 434.606C51.1889 435.556 50.1739 436.031 48.8739 436.031Z" fill="white"/>
<path d="M5.42397 147.669L3.02396 149.394V148.179L5.51397 146.379H6.72897V157.104H5.42397V147.669ZM9.13096 156.804L13.391 152.319C14.421 151.229 14.936 150.194 14.936 149.214C14.936 148.614 14.766 148.144 14.426 147.804C14.096 147.464 13.626 147.294 13.016 147.294C11.716 147.294 10.961 148.089 10.751 149.679H9.53596C9.61596 148.619 9.96096 147.784 10.571 147.174C11.191 146.554 12.006 146.244 13.016 146.244C14.006 146.244 14.791 146.519 15.371 147.069C15.961 147.609 16.256 148.339 16.256 149.259C16.256 150.439 15.536 151.739 14.096 153.159L11.141 156.039H16.316V157.104H9.13096V156.804ZM26.7718 156.159C28.6618 156.159 29.6068 154.774 29.6068 152.004V151.404C29.6068 150.154 29.3518 149.159 28.8418 148.419C28.3318 147.669 27.6318 147.294 26.7418 147.294C25.8318 147.294 25.1218 147.654 24.6118 148.374C24.1018 149.094 23.8468 150.114 23.8468 151.434V152.034C23.8468 153.364 24.1068 154.384 24.6268 155.094C25.1468 155.804 25.8618 156.159 26.7718 156.159ZM26.7718 157.239C25.4918 157.239 24.4618 156.764 23.6818 155.814C22.9018 154.864 22.5118 153.609 22.5118 152.049V151.449C22.5118 149.859 22.8868 148.594 23.6368 147.654C24.3968 146.714 25.4318 146.244 26.7418 146.244C28.0418 146.244 29.0618 146.719 29.8018 147.669C30.5518 148.619 30.9268 149.869 30.9268 151.419V152.019C30.9268 153.599 30.5568 154.864 29.8168 155.814C29.0868 156.764 28.0718 157.239 26.7718 157.239ZM37.3222 156.159C39.2122 156.159 40.1572 154.774 40.1572 152.004V151.404C40.1572 150.154 39.9022 149.159 39.3922 148.419C38.8822 147.669 38.1822 147.294 37.2922 147.294C36.3822 147.294 35.6722 147.654 35.1622 148.374C34.6522 149.094 34.3972 150.114 34.3972 151.434V152.034C34.3972 153.364 34.6572 154.384 35.1772 155.094C35.6972 155.804 36.4122 156.159 37.3222 156.159ZM37.3222 157.239C36.0422 157.239 35.0122 156.764 34.2322 155.814C33.4522 154.864 33.0622 153.609 33.0622 152.049V151.449C33.0622 149.859 33.4372 148.594 34.1872 147.654C34.9472 146.714 35.9822 146.244 37.2922 146.244C38.5922 146.244 39.6122 146.719 40.3522 147.669C41.1022 148.619 41.4772 149.869 41.4772 151.419V152.019C41.4772 153.599 41.1072 154.864 40.3672 155.814C39.6372 156.764 38.6222 157.239 37.3222 157.239ZM47.8726 156.159C49.7626 156.159 50.7076 154.774 50.7076 152.004V151.404C50.7076 150.154 50.4526 149.159 49.9426 148.419C49.4326 147.669 48.7326 147.294 47.8426 147.294C46.9326 147.294 46.2226 147.654 45.7126 148.374C45.2026 149.094 44.9476 150.114 44.9476 151.434V152.034C44.9476 153.364 45.2076 154.384 45.7276 155.094C46.2476 155.804 46.9626 156.159 47.8726 156.159ZM47.8726 157.239C46.5926 157.239 45.5626 156.764 44.7826 155.814C44.0026 154.864 43.6126 153.609 43.6126 152.049V151.449C43.6126 149.859 43.9876 148.594 44.7376 147.654C45.4976 146.714 46.5326 146.244 47.8426 146.244C49.1426 146.244 50.1626 146.719 50.9026 147.669C51.6526 148.619 52.0276 149.869 52.0276 151.419V152.019C52.0276 153.599 51.6576 154.864 50.9176 155.814C50.1876 156.764 49.1726 157.239 47.8726 157.239Z" fill="white"/>
<path d="M14.5826 377.889H9.2126V377.469L14.1176 369.414H15.8576V376.824H17.3426V377.889H15.8576V380.139H14.5826V377.889ZM14.5826 376.824V370.404L10.8626 376.824H14.5826ZM27.4909 379.194C29.3809 379.194 30.3259 377.809 30.3259 375.039V374.439C30.3259 373.189 30.0709 372.194 29.5609 371.454C29.0509 370.704 28.3509 370.329 27.4609 370.329C26.5509 370.329 25.8409 370.689 25.3309 371.409C24.8209 372.129 24.5659 373.149 24.5659 374.469V375.069C24.5659 376.399 24.8259 377.419 25.3459 378.129C25.8659 378.839 26.5809 379.194 27.4909 379.194ZM27.4909 380.274C26.2109 380.274 25.1809 379.799 24.4009 378.849C23.6209 377.899 23.2309 376.644 23.2309 375.084V374.484C23.2309 372.894 23.6059 371.629 24.3559 370.689C25.1159 369.749 26.1509 369.279 27.4609 369.279C28.7609 369.279 29.7809 369.754 30.5209 370.704C31.2709 371.654 31.6459 372.904 31.6459 374.454V375.054C31.6459 376.634 31.2759 377.899 30.5359 378.849C29.8059 379.799 28.7909 380.274 27.4909 380.274ZM38.0413 379.194C39.9313 379.194 40.8763 377.809 40.8763 375.039V374.439C40.8763 373.189 40.6213 372.194 40.1113 371.454C39.6013 370.704 38.9013 370.329 38.0113 370.329C37.1013 370.329 36.3913 370.689 35.8813 371.409C35.3713 372.129 35.1163 373.149 35.1163 374.469V375.069C35.1163 376.399 35.3763 377.419 35.8963 378.129C36.4163 378.839 37.1313 379.194 38.0413 379.194ZM38.0413 380.274C36.7613 380.274 35.7313 379.799 34.9513 378.849C34.1713 377.899 33.7813 376.644 33.7813 375.084V374.484C33.7813 372.894 34.1563 371.629 34.9063 370.689C35.6663 369.749 36.7013 369.279 38.0113 369.279C39.3113 369.279 40.3313 369.754 41.0713 370.704C41.8213 371.654 42.1963 372.904 42.1963 374.454V375.054C42.1963 376.634 41.8263 377.899 41.0863 378.849C40.3563 379.799 39.3413 380.274 38.0413 380.274ZM48.5917 379.194C50.4817 379.194 51.4267 377.809 51.4267 375.039V374.439C51.4267 373.189 51.1717 372.194 50.6617 371.454C50.1517 370.704 49.4517 370.329 48.5617 370.329C47.6517 370.329 46.9417 370.689 46.4317 371.409C45.9217 372.129 45.6667 373.149 45.6667 374.469V375.069C45.6667 376.399 45.9267 377.419 46.4467 378.129C46.9667 378.839 47.6817 379.194 48.5917 379.194ZM48.5917 380.274C47.3117 380.274 46.2817 379.799 45.5017 378.849C44.7217 377.899 44.3317 376.644 44.3317 375.084V374.484C44.3317 372.894 44.7067 371.629 45.4567 370.689C46.2167 369.749 47.2517 369.279 48.5617 369.279C49.8617 369.279 50.8817 369.754 51.6217 370.704C52.3717 371.654 52.7467 372.904 52.7467 374.454V375.054C52.7467 376.634 52.3767 377.899 51.6367 378.849C50.9067 379.799 49.8917 380.274 48.5917 380.274Z" fill="white"/>
<path d="M4.20473 91.9087L1.80473 93.6338V92.4187L4.29473 90.6187H5.50973V101.344H4.20473V91.9087ZM13.2888 99.0937H7.91875V98.6737L12.8238 90.6187H14.5638V98.0287H16.0488V99.0937H14.5638V101.344H13.2888V99.0937ZM13.2888 98.0287V91.6087L9.56875 98.0287H13.2888ZM26.1971 100.399C28.0871 100.399 29.0321 99.0137 29.0321 96.2437V95.6437C29.0321 94.3937 28.7771 93.3987 28.2671 92.6587C27.7571 91.9087 27.0571 91.5337 26.1671 91.5337C25.2571 91.5337 24.5471 91.8937 24.0371 92.6137C23.5271 93.3337 23.2721 94.3537 23.2721 95.6737V96.2737C23.2721 97.6037 23.5321 98.6237 24.0521 99.3337C24.5721 100.044 25.2871 100.399 26.1971 100.399ZM26.1971 101.479C24.9171 101.479 23.8871 101.004 23.1071 100.054C22.3271 99.1037 21.9371 97.8487 21.9371 96.2887V95.6887C21.9371 94.0987 22.3121 92.8337 23.0621 91.8937C23.8221 90.9537 24.8571 90.4837 26.1671 90.4837C27.4671 90.4837 28.4871 90.9587 29.2271 91.9087C29.9771 92.8587 30.3521 94.1087 30.3521 95.6587V96.2587C30.3521 97.8387 29.9821 99.1037 29.2421 100.054C28.5121 101.004 27.4971 101.479 26.1971 101.479ZM36.7475 100.399C38.6375 100.399 39.5825 99.0137 39.5825 96.2437V95.6437C39.5825 94.3937 39.3275 93.3987 38.8175 92.6587C38.3075 91.9087 37.6075 91.5337 36.7175 91.5337C35.8075 91.5337 35.0975 91.8937 34.5875 92.6137C34.0775 93.3337 33.8225 94.3537 33.8225 95.6737V96.2737C33.8225 97.6037 34.0825 98.6237 34.6025 99.3337C35.1225 100.044 35.8375 100.399 36.7475 100.399ZM36.7475 101.479C35.4675 101.479 34.4375 101.004 33.6575 100.054C32.8775 99.1037 32.4875 97.8487 32.4875 96.2887V95.6887C32.4875 94.0987 32.8625 92.8337 33.6125 91.8937C34.3725 90.9537 35.4075 90.4837 36.7175 90.4837C38.0175 90.4837 39.0375 90.9587 39.7775 91.9087C40.5275 92.8587 40.9025 94.1087 40.9025 95.6587V96.2587C40.9025 97.8387 40.5325 99.1037 39.7925 100.054C39.0625 101.004 38.0475 101.479 36.7475 101.479ZM47.2979 100.399C49.1879 100.399 50.1329 99.0137 50.1329 96.2437V95.6437C50.1329 94.3937 49.8779 93.3987 49.3679 92.6587C48.8579 91.9087 48.1579 91.5337 47.2679 91.5337C46.3579 91.5337 45.6479 91.8937 45.1379 92.6137C44.6279 93.3337 44.3729 94.3537 44.3729 95.6737V96.2737C44.3729 97.6037 44.6329 98.6237 45.1529 99.3337C45.6729 100.044 46.3879 100.399 47.2979 100.399ZM47.2979 101.479C46.0179 101.479 44.9879 101.004 44.2079 100.054C43.4279 99.1037 43.0379 97.8487 43.0379 96.2887V95.6887C43.0379 94.0987 43.4129 92.8337 44.1629 91.8937C44.9229 90.9537 45.9579 90.4837 47.2679 90.4837C48.5679 90.4837 49.5879 90.9587 50.3279 91.9087C51.0779 92.8587 51.4529 94.1087 51.4529 95.6587V96.2587C51.4529 97.8387 51.0829 99.1037 50.3429 100.054C49.6129 101.004 48.5979 101.479 47.2979 101.479Z" fill="white"/>
<path d="M13.3826 324.514C10.8126 324.514 9.5276 322.889 9.5276 319.639V319.384C9.5276 317.504 9.9076 316.059 10.6676 315.049C11.4376 314.029 12.4576 313.519 13.7276 313.519C14.5876 313.519 15.2876 313.739 15.8276 314.179C16.3776 314.619 16.7226 315.264 16.8626 316.114H15.6176C15.4976 315.594 15.2826 315.209 14.9726 314.959C14.6626 314.709 14.2176 314.584 13.6376 314.584C12.8076 314.584 12.1376 314.954 11.6276 315.694C11.1176 316.434 10.8476 317.494 10.8176 318.874C11.3976 317.904 12.3176 317.419 13.5776 317.419C14.6276 317.419 15.4726 317.754 16.1126 318.424C16.7626 319.084 17.0876 319.919 17.0876 320.929C17.0876 322.009 16.7526 322.879 16.0826 323.539C15.4126 324.189 14.5126 324.514 13.3826 324.514ZM13.3826 323.494C14.0826 323.494 14.6526 323.264 15.0926 322.804C15.5326 322.344 15.7526 321.739 15.7526 320.989C15.7526 320.209 15.5376 319.589 15.1076 319.129C14.6776 318.669 14.0976 318.439 13.3676 318.439C12.6476 318.439 12.0576 318.659 11.5976 319.099C11.1376 319.539 10.9076 320.109 10.9076 320.809C10.9076 321.659 11.1326 322.319 11.5826 322.789C12.0426 323.259 12.6426 323.494 13.3826 323.494ZM27.5202 323.434C29.4102 323.434 30.3552 322.049 30.3552 319.279V318.679C30.3552 317.429 30.1002 316.434 29.5902 315.694C29.0802 314.944 28.3802 314.569 27.4902 314.569C26.5802 314.569 25.8702 314.929 25.3602 315.649C24.8502 316.369 24.5952 317.389 24.5952 318.709V319.309C24.5952 320.639 24.8552 321.659 25.3752 322.369C25.8952 323.079 26.6102 323.434 27.5202 323.434ZM27.5202 324.514C26.2402 324.514 25.2102 324.039 24.4302 323.089C23.6502 322.139 23.2602 320.884 23.2602 319.324V318.724C23.2602 317.134 23.6352 315.869 24.3852 314.929C25.1452 313.989 26.1802 313.519 27.4902 313.519C28.7902 313.519 29.8102 313.994 30.5502 314.944C31.3002 315.894 31.6752 317.144 31.6752 318.694V319.294C31.6752 320.874 31.3052 322.139 30.5652 323.089C29.8352 324.039 28.8202 324.514 27.5202 324.514ZM38.0706 323.434C39.9606 323.434 40.9056 322.049 40.9056 319.279V318.679C40.9056 317.429 40.6506 316.434 40.1406 315.694C39.6306 314.944 38.9306 314.569 38.0406 314.569C37.1306 314.569 36.4206 314.929 35.9106 315.649C35.4006 316.369 35.1456 317.389 35.1456 318.709V319.309C35.1456 320.639 35.4056 321.659 35.9256 322.369C36.4456 323.079 37.1606 323.434 38.0706 323.434ZM38.0706 324.514C36.7906 324.514 35.7606 324.039 34.9806 323.089C34.2006 322.139 33.8106 320.884 33.8106 319.324V318.724C33.8106 317.134 34.1856 315.869 34.9356 314.929C35.6956 313.989 36.7306 313.519 38.0406 313.519C39.3406 313.519 40.3606 313.994 41.1006 314.944C41.8506 315.894 42.2256 317.144 42.2256 318.694V319.294C42.2256 320.874 41.8556 322.139 41.1156 323.089C40.3856 324.039 39.3706 324.514 38.0706 324.514ZM48.621 323.434C50.511 323.434 51.456 322.049 51.456 319.279V318.679C51.456 317.429 51.201 316.434 50.691 315.694C50.181 314.944 49.481 314.569 48.591 314.569C47.681 314.569 46.971 314.929 46.461 315.649C45.951 316.369 45.696 317.389 45.696 318.709V319.309C45.696 320.639 45.956 321.659 46.476 322.369C46.996 323.079 47.711 323.434 48.621 323.434ZM48.621 324.514C47.341 324.514 46.311 324.039 45.531 323.089C44.751 322.139 44.361 320.884 44.361 319.324V318.724C44.361 317.134 44.736 315.869 45.486 314.929C46.246 313.989 47.281 313.519 48.591 313.519C49.891 313.519 50.911 313.994 51.651 314.944C52.401 315.894 52.776 317.144 52.776 318.694V319.294C52.776 320.874 52.406 322.139 51.666 323.089C50.936 324.039 49.921 324.514 48.621 324.514Z" fill="white"/>
<path d="M13.1876 268.756C12.5776 268.756 11.9976 268.646 11.4476 268.426C10.8976 268.196 10.4326 267.831 10.0526 267.331C9.6726 266.831 9.4826 266.246 9.4826 265.576C9.4826 264.886 9.6676 264.306 10.0376 263.836C10.4076 263.366 10.8976 263.021 11.5076 262.801C10.4276 262.371 9.8876 261.621 9.8876 260.551C9.8876 259.731 10.2176 259.061 10.8776 258.541C11.5476 258.021 12.3176 257.761 13.1876 257.761C14.0576 257.761 14.8226 258.021 15.4826 258.541C16.1426 259.051 16.4726 259.711 16.4726 260.521C16.4726 261.551 15.9226 262.306 14.8226 262.786C16.1926 263.296 16.8776 264.216 16.8776 265.546C16.8776 266.556 16.5076 267.346 15.7676 267.916C15.0376 268.476 14.1776 268.756 13.1876 268.756ZM13.1876 267.691C13.8776 267.691 14.4426 267.501 14.8826 267.121C15.3226 266.731 15.5426 266.191 15.5426 265.501C15.5426 264.831 15.3176 264.311 14.8676 263.941C14.4276 263.561 13.8776 263.371 13.2176 263.371C12.5376 263.371 11.9676 263.561 11.5076 263.941C11.0476 264.311 10.8176 264.841 10.8176 265.531C10.8176 266.201 11.0476 266.731 11.5076 267.121C11.9676 267.501 12.5276 267.691 13.1876 267.691ZM13.2326 262.336C13.8126 262.336 14.2776 262.176 14.6276 261.856C14.9776 261.536 15.1526 261.096 15.1526 260.536C15.1526 260.026 14.9676 259.606 14.5976 259.276C14.2276 258.946 13.7576 258.781 13.1876 258.781C12.6076 258.781 12.1326 258.941 11.7626 259.261C11.3926 259.581 11.2076 260.016 11.2076 260.566C11.2076 261.106 11.4026 261.536 11.7926 261.856C12.1826 262.176 12.6626 262.336 13.2326 262.336ZM27.3444 267.676C29.2344 267.676 30.1794 266.291 30.1794 263.521V262.921C30.1794 261.671 29.9244 260.676 29.4144 259.936C28.9044 259.186 28.2044 258.811 27.3144 258.811C26.4044 258.811 25.6944 259.171 25.1844 259.891C24.6744 260.611 24.4194 261.631 24.4194 262.951V263.551C24.4194 264.881 24.6794 265.901 25.1994 266.611C25.7194 267.321 26.4344 267.676 27.3444 267.676ZM27.3444 268.756C26.0644 268.756 25.0344 268.281 24.2544 267.331C23.4744 266.381 23.0844 265.126 23.0844 263.566V262.966C23.0844 261.376 23.4594 260.111 24.2094 259.171C24.9694 258.231 26.0044 257.761 27.3144 257.761C28.6144 257.761 29.6344 258.236 30.3744 259.186C31.1244 260.136 31.4994 261.386 31.4994 262.936V263.536C31.4994 265.116 31.1294 266.381 30.3894 267.331C29.6594 268.281 28.6444 268.756 27.3444 268.756ZM37.8948 267.676C39.7848 267.676 40.7298 266.291 40.7298 263.521V262.921C40.7298 261.671 40.4748 260.676 39.9648 259.936C39.4548 259.186 38.7548 258.811 37.8648 258.811C36.9548 258.811 36.2448 259.171 35.7348 259.891C35.2248 260.611 34.9698 261.631 34.9698 262.951V263.551C34.9698 264.881 35.2298 265.901 35.7498 266.611C36.2698 267.321 36.9848 267.676 37.8948 267.676ZM37.8948 268.756C36.6148 268.756 35.5848 268.281 34.8048 267.331C34.0248 266.381 33.6348 265.126 33.6348 263.566V262.966C33.6348 261.376 34.0098 260.111 34.7598 259.171C35.5198 258.231 36.5548 257.761 37.8648 257.761C39.1648 257.761 40.1848 258.236 40.9248 259.186C41.6748 260.136 42.0498 261.386 42.0498 262.936V263.536C42.0498 265.116 41.6798 266.381 40.9398 267.331C40.2098 268.281 39.1948 268.756 37.8948 268.756ZM48.4452 267.676C50.3352 267.676 51.2802 266.291 51.2802 263.521V262.921C51.2802 261.671 51.0252 260.676 50.5152 259.936C50.0052 259.186 49.3052 258.811 48.4152 258.811C47.5052 258.811 46.7952 259.171 46.2852 259.891C45.7752 260.611 45.5202 261.631 45.5202 262.951V263.551C45.5202 264.881 45.7802 265.901 46.3002 266.611C46.8202 267.321 47.5352 267.676 48.4452 267.676ZM48.4452 268.756C47.1652 268.756 46.1352 268.281 45.3552 267.331C44.5752 266.381 44.1852 265.126 44.1852 263.566V262.966C44.1852 261.376 44.5602 260.111 45.3102 259.171C46.0702 258.231 47.1052 257.761 48.4152 257.761C49.7152 257.761 50.7352 258.236 51.4752 259.186C52.2252 260.136 52.6002 261.386 52.6002 262.936V263.536C52.6002 265.116 52.2302 266.381 51.4902 267.331C50.7602 268.281 49.7452 268.756 48.4452 268.756Z" fill="white"/>
<path d="M56.4746 491.848C58.3646 491.848 59.3096 490.463 59.3096 487.693V487.093C59.3096 485.843 59.0546 484.848 58.5446 484.108C58.0346 483.358 57.3346 482.983 56.4446 482.983C55.5346 482.983 54.8246 483.343 54.3146 484.063C53.8046 484.783 53.5496 485.803 53.5496 487.123V487.723C53.5496 489.053 53.8096 490.073 54.3296 490.783C54.8496 491.493 55.5646 491.848 56.4746 491.848ZM56.4746 492.928C55.1946 492.928 54.1646 492.453 53.3846 491.503C52.6046 490.553 52.2146 489.298 52.2146 487.738V487.138C52.2146 485.548 52.5896 484.283 53.3396 483.343C54.0996 482.403 55.1346 481.933 56.4446 481.933C57.7446 481.933 58.7646 482.408 59.5046 483.358C60.2546 484.308 60.6296 485.558 60.6296 487.108V487.708C60.6296 489.288 60.2596 490.553 59.5196 491.503C58.7896 492.453 57.7746 492.928 56.4746 492.928Z" fill="white"/>
<path d="M977.857 491.848C979.747 491.848 980.692 490.463 980.692 487.693V487.093C980.692 485.843 980.437 484.848 979.927 484.108C979.417 483.358 978.717 482.983 977.827 482.983C976.917 482.983 976.207 483.343 975.697 484.063C975.187 484.783 974.932 485.803 974.932 487.123V487.723C974.932 489.053 975.192 490.073 975.712 490.783C976.232 491.493 976.947 491.848 977.857 491.848ZM977.857 492.928C976.577 492.928 975.547 492.453 974.767 491.503C973.987 490.553 973.597 489.298 973.597 487.738V487.138C973.597 485.548 973.972 484.283 974.722 483.343C975.482 482.403 976.517 481.933 977.827 481.933C979.127 481.933 980.147 482.408 980.887 483.358C981.637 484.308 982.012 485.558 982.012 487.108V487.708C982.012 489.288 981.642 490.553 980.902 491.503C980.172 492.453 979.157 492.928 977.857 492.928Z" fill="white"/>
<path d="M977.452 199.342C974.882 199.342 973.597 197.717 973.597 194.467V194.212C973.597 192.332 973.977 190.887 974.737 189.877C975.507 188.857 976.527 188.347 977.797 188.347C978.657 188.347 979.357 188.567 979.897 189.007C980.447 189.447 980.792 190.092 980.932 190.942H979.687C979.567 190.422 979.352 190.037 979.042 189.787C978.732 189.537 978.287 189.412 977.707 189.412C976.877 189.412 976.207 189.782 975.697 190.522C975.187 191.262 974.917 192.322 974.887 193.702C975.467 192.732 976.387 192.247 977.647 192.247C978.697 192.247 979.542 192.582 980.182 193.252C980.832 193.912 981.157 194.747 981.157 195.757C981.157 196.837 980.822 197.707 980.152 198.367C979.482 199.017 978.582 199.342 977.452 199.342ZM977.452 198.322C978.152 198.322 978.722 198.092 979.162 197.632C979.602 197.172 979.822 196.567 979.822 195.817C979.822 195.037 979.607 194.417 979.177 193.957C978.747 193.497 978.167 193.267 977.437 193.267C976.717 193.267 976.127 193.487 975.667 193.927C975.207 194.367 974.977 194.937 974.977 195.637C974.977 196.487 975.202 197.147 975.652 197.617C976.112 198.087 976.712 198.322 977.452 198.322ZM987.397 198.262C989.287 198.262 990.232 196.877 990.232 194.107V193.507C990.232 192.257 989.977 191.262 989.467 190.522C988.957 189.772 988.257 189.397 987.367 189.397C986.457 189.397 985.747 189.757 985.237 190.477C984.727 191.197 984.472 192.217 984.472 193.537V194.137C984.472 195.467 984.732 196.487 985.252 197.197C985.772 197.907 986.487 198.262 987.397 198.262ZM987.397 199.342C986.117 199.342 985.087 198.867 984.307 197.917C983.527 196.967 983.137 195.712 983.137 194.152V193.552C983.137 191.962 983.512 190.697 984.262 189.757C985.022 188.817 986.057 188.347 987.367 188.347C988.667 188.347 989.687 188.822 990.427 189.772C991.177 190.722 991.552 191.972 991.552 193.522V194.122C991.552 195.702 991.182 196.967 990.442 197.917C989.712 198.867 988.697 199.342 987.397 199.342Z" fill="white"/>
<path d="M977.047 346.135C975.937 346.135 975.042 345.825 974.362 345.205C973.692 344.585 973.337 343.795 973.297 342.835H974.497C974.557 343.515 974.802 344.06 975.232 344.47C975.662 344.88 976.277 345.085 977.077 345.085C977.897 345.085 978.507 344.905 978.907 344.545C979.317 344.175 979.522 343.665 979.522 343.015C979.522 341.625 978.767 340.93 977.257 340.93H976.447V339.835H977.197C978.537 339.835 979.207 339.225 979.207 338.005C979.207 337.475 979.042 337.045 978.712 336.715C978.382 336.375 977.897 336.205 977.257 336.205C976.597 336.205 976.052 336.39 975.622 336.76C975.202 337.13 974.957 337.62 974.887 338.23H973.747C973.787 337.37 974.132 336.64 974.782 336.04C975.432 335.44 976.257 335.14 977.257 335.14C978.237 335.14 979.017 335.42 979.597 335.98C980.187 336.53 980.482 337.195 980.482 337.975C980.482 339.065 979.917 339.845 978.787 340.315C980.167 340.695 980.857 341.595 980.857 343.015C980.857 343.985 980.502 344.75 979.792 345.31C979.092 345.86 978.177 346.135 977.047 346.135ZM987.251 345.055C989.141 345.055 990.086 343.67 990.086 340.9V340.3C990.086 339.05 989.831 338.055 989.321 337.315C988.811 336.565 988.111 336.19 987.221 336.19C986.311 336.19 985.601 336.55 985.091 337.27C984.581 337.99 984.326 339.01 984.326 340.33V340.93C984.326 342.26 984.586 343.28 985.106 343.99C985.626 344.7 986.341 345.055 987.251 345.055ZM987.251 346.135C985.971 346.135 984.941 345.66 984.161 344.71C983.381 343.76 982.991 342.505 982.991 340.945V340.345C982.991 338.755 983.366 337.49 984.116 336.55C984.876 335.61 985.911 335.14 987.221 335.14C988.521 335.14 989.541 335.615 990.281 336.565C991.031 337.515 991.406 338.765 991.406 340.315V340.915C991.406 342.495 991.036 343.76 990.296 344.71C989.566 345.66 988.551 346.135 987.251 346.135Z" fill="white"/>
<path d="M975.592 434.426L973.192 436.151V434.936L975.682 433.136H976.897V443.861H975.592V434.426ZM984.174 442.916C986.064 442.916 987.009 441.531 987.009 438.761V438.161C987.009 436.911 986.754 435.916 986.244 435.176C985.734 434.426 985.034 434.051 984.144 434.051C983.234 434.051 982.524 434.411 982.014 435.131C981.504 435.851 981.249 436.871 981.249 438.191V438.791C981.249 440.121 981.509 441.141 982.029 441.851C982.549 442.561 983.264 442.916 984.174 442.916ZM984.174 443.996C982.894 443.996 981.864 443.521 981.084 442.571C980.304 441.621 979.914 440.366 979.914 438.806V438.206C979.914 436.616 980.289 435.351 981.039 434.411C981.799 433.471 982.834 433.001 984.144 433.001C985.444 433.001 986.464 433.476 987.204 434.426C987.954 435.376 988.329 436.626 988.329 438.176V438.776C988.329 440.356 987.959 441.621 987.219 442.571C986.489 443.521 985.474 443.996 984.174 443.996Z" fill="white"/>
<path d="M978.622 140.6H973.177V139.55H980.242V139.73L976.222 150.275H974.887L978.622 140.6ZM985.844 149.33C987.734 149.33 988.679 147.945 988.679 145.175V144.575C988.679 143.325 988.424 142.33 987.914 141.59C987.404 140.84 986.704 140.465 985.814 140.465C984.904 140.465 984.194 140.825 983.684 141.545C983.174 142.265 982.919 143.285 982.919 144.605V145.205C982.919 146.535 983.179 147.555 983.699 148.265C984.219 148.975 984.934 149.33 985.844 149.33ZM985.844 150.41C984.564 150.41 983.534 149.935 982.754 148.985C981.974 148.035 981.584 146.78 981.584 145.22V144.62C981.584 143.03 981.959 141.765 982.709 140.825C983.469 139.885 984.504 139.415 985.814 139.415C987.114 139.415 988.134 139.89 988.874 140.84C989.624 141.79 989.999 143.04 989.999 144.59V145.19C989.999 146.77 989.629 148.035 988.889 148.985C988.159 149.935 987.144 150.41 985.844 150.41Z" fill="white"/>
<path d="M978.652 294.818H973.282V294.398L978.187 286.343H979.927V293.753H981.412V294.818H979.927V297.068H978.652V294.818ZM978.652 293.753V287.333L974.932 293.753H978.652ZM987.368 296.123C989.258 296.123 990.203 294.738 990.203 291.968V291.368C990.203 290.118 989.948 289.123 989.438 288.383C988.928 287.633 988.228 287.258 987.338 287.258C986.428 287.258 985.718 287.618 985.208 288.338C984.698 289.058 984.443 290.078 984.443 291.398V291.998C984.443 293.328 984.703 294.348 985.223 295.058C985.743 295.768 986.458 296.123 987.368 296.123ZM987.368 297.203C986.088 297.203 985.058 296.728 984.278 295.778C983.498 294.828 983.108 293.573 983.108 292.013V291.413C983.108 289.823 983.483 288.558 984.233 287.618C984.993 286.678 986.028 286.208 987.338 286.208C988.638 286.208 989.658 286.683 990.398 287.633C991.148 288.583 991.523 289.833 991.523 291.383V291.983C991.523 293.563 991.153 294.828 990.413 295.778C989.683 296.728 988.668 297.203 987.368 297.203Z" fill="white"/>
<path d="M972.982 394.632L977.242 390.147C978.272 389.057 978.787 388.022 978.787 387.042C978.787 386.442 978.617 385.972 978.277 385.632C977.947 385.292 977.477 385.122 976.867 385.122C975.567 385.122 974.812 385.917 974.602 387.507H973.387C973.467 386.447 973.812 385.612 974.422 385.002C975.042 384.382 975.857 384.072 976.867 384.072C977.857 384.072 978.642 384.347 979.222 384.897C979.812 385.437 980.107 386.167 980.107 387.087C980.107 388.267 979.387 389.567 977.947 390.987L974.992 393.867H980.167V394.932H972.982V394.632ZM986.43 393.987C988.32 393.987 989.265 392.602 989.265 389.832V389.232C989.265 387.982 989.01 386.987 988.5 386.247C987.99 385.497 987.29 385.122 986.4 385.122C985.49 385.122 984.78 385.482 984.27 386.202C983.76 386.922 983.505 387.942 983.505 389.262V389.862C983.505 391.192 983.765 392.212 984.285 392.922C984.805 393.632 985.52 393.987 986.43 393.987ZM986.43 395.067C985.15 395.067 984.12 394.592 983.34 393.642C982.56 392.692 982.17 391.437 982.17 389.877V389.277C982.17 387.687 982.545 386.422 983.295 385.482C984.055 384.542 985.09 384.072 986.4 384.072C987.7 384.072 988.72 384.547 989.46 385.497C990.21 386.447 990.585 387.697 990.585 389.247V389.847C990.585 391.427 990.215 392.692 989.475 393.642C988.745 394.592 987.73 395.067 986.43 395.067Z" fill="white"/>
<path d="M977.257 101.479C976.647 101.479 976.067 101.369 975.517 101.149C974.967 100.919 974.502 100.554 974.122 100.054C973.742 99.5537 973.552 98.9687 973.552 98.2987C973.552 97.6087 973.737 97.0287 974.107 96.5587C974.477 96.0887 974.967 95.7437 975.577 95.5237C974.497 95.0937 973.957 94.3437 973.957 93.2737C973.957 92.4537 974.287 91.7837 974.947 91.2637C975.617 90.7437 976.387 90.4837 977.257 90.4837C978.127 90.4837 978.892 90.7437 979.552 91.2637C980.212 91.7737 980.542 92.4337 980.542 93.2437C980.542 94.2737 979.992 95.0287 978.892 95.5087C980.262 96.0187 980.947 96.9387 980.947 98.2687C980.947 99.2787 980.577 100.069 979.837 100.639C979.107 101.199 978.247 101.479 977.257 101.479ZM977.257 100.414C977.947 100.414 978.512 100.224 978.952 99.8437C979.392 99.4537 979.612 98.9137 979.612 98.2237C979.612 97.5537 979.387 97.0337 978.937 96.6637C978.497 96.2837 977.947 96.0937 977.287 96.0937C976.607 96.0937 976.037 96.2837 975.577 96.6637C975.117 97.0337 974.887 97.5637 974.887 98.2537C974.887 98.9237 975.117 99.4537 975.577 99.8437C976.037 100.224 976.597 100.414 977.257 100.414ZM977.302 95.0587C977.882 95.0587 978.347 94.8987 978.697 94.5787C979.047 94.2587 979.222 93.8187 979.222 93.2587C979.222 92.7487 979.037 92.3287 978.667 91.9987C978.297 91.6687 977.827 91.5037 977.257 91.5037C976.677 91.5037 976.202 91.6637 975.832 91.9837C975.462 92.3037 975.277 92.7387 975.277 93.2887C975.277 93.8287 975.472 94.2587 975.862 94.5787C976.252 94.8987 976.732 95.0587 977.302 95.0587ZM987.148 100.399C989.038 100.399 989.983 99.0137 989.983 96.2437V95.6437C989.983 94.3937 989.728 93.3987 989.218 92.6587C988.708 91.9087 988.008 91.5337 987.118 91.5337C986.208 91.5337 985.498 91.8937 984.988 92.6137C984.478 93.3337 984.223 94.3537 984.223 95.6737V96.2737C984.223 97.6037 984.483 98.6237 985.003 99.3337C985.523 100.044 986.238 100.399 987.148 100.399ZM987.148 101.479C985.868 101.479 984.838 101.004 984.058 100.054C983.278 99.1037 982.888 97.8487 982.888 96.2887V95.6887C982.888 94.0987 983.263 92.8337 984.013 91.8937C984.773 90.9537 985.808 90.4837 987.118 90.4837C988.418 90.4837 989.438 90.9587 990.178 91.9087C990.928 92.8587 991.303 94.1087 991.303 95.6587V96.2587C991.303 97.8387 990.933 99.1037 990.193 100.054C989.463 101.004 988.448 101.479 987.148 101.479Z" fill="white"/>
<path d="M976.912 248.274C975.802 248.274 974.952 248.004 974.362 247.464C973.772 246.914 973.432 246.174 973.342 245.244H974.587C974.707 245.894 974.932 246.389 975.262 246.729C975.592 247.059 976.137 247.224 976.897 247.224C977.627 247.224 978.202 246.994 978.622 246.534C979.042 246.074 979.252 245.439 979.252 244.629C979.252 243.869 979.047 243.264 978.637 242.814C978.237 242.354 977.692 242.124 977.002 242.124C976.402 242.124 975.907 242.209 975.517 242.379C975.127 242.549 974.777 242.809 974.467 243.159H973.987V237.414H980.017V238.539H975.067V241.809C975.597 241.319 976.327 241.074 977.257 241.074C978.237 241.074 979.037 241.399 979.657 242.049C980.277 242.689 980.587 243.549 980.587 244.629C980.587 245.739 980.237 246.624 979.537 247.284C978.837 247.944 977.962 248.274 976.912 248.274ZM986.914 247.194C988.804 247.194 989.749 245.809 989.749 243.039V242.439C989.749 241.189 989.494 240.194 988.984 239.454C988.474 238.704 987.774 238.329 986.884 238.329C985.974 238.329 985.264 238.689 984.754 239.409C984.244 240.129 983.989 241.149 983.989 242.469V243.069C983.989 244.399 984.249 245.419 984.769 246.129C985.289 246.839 986.004 247.194 986.914 247.194ZM986.914 248.274C985.634 248.274 984.604 247.799 983.824 246.849C983.044 245.899 982.654 244.644 982.654 243.084V242.484C982.654 240.894 983.029 239.629 983.779 238.689C984.539 237.749 985.574 237.279 986.884 237.279C988.184 237.279 989.204 237.754 989.944 238.704C990.694 239.654 991.069 240.904 991.069 242.454V243.054C991.069 244.634 990.699 245.899 989.959 246.849C989.229 247.799 988.214 248.274 986.914 248.274Z" fill="white"/>
<path d="M226.375 550.528L230.635 546.043C231.665 544.953 232.18 543.918 232.18 542.938C232.18 542.338 232.01 541.868 231.67 541.528C231.34 541.188 230.87 541.018 230.26 541.018C228.96 541.018 228.205 541.813 227.995 543.403H226.78C226.86 542.343 227.205 541.508 227.815 540.898C228.435 540.278 229.25 539.968 230.26 539.968C231.25 539.968 232.035 540.243 232.615 540.793C233.205 541.333 233.5 542.063 233.5 542.983C233.5 544.163 232.78 545.463 231.34 546.883L228.385 549.763H233.56V550.828H226.375V550.528ZM239.823 549.883C241.713 549.883 242.658 548.498 242.658 545.728V545.128C242.658 543.878 242.403 542.883 241.893 542.143C241.383 541.393 240.683 541.018 239.793 541.018C238.883 541.018 238.173 541.378 237.663 542.098C237.153 542.818 236.898 543.838 236.898 545.158V545.758C236.898 547.088 237.158 548.108 237.678 548.818C238.198 549.528 238.913 549.883 239.823 549.883ZM239.823 550.963C238.543 550.963 237.513 550.488 236.733 549.538C235.953 548.588 235.563 547.333 235.563 545.773V545.173C235.563 543.583 235.938 542.318 236.688 541.378C237.448 540.438 238.483 539.968 239.793 539.968C241.093 539.968 242.113 540.443 242.853 541.393C243.603 542.343 243.978 543.593 243.978 545.143V545.743C243.978 547.323 243.608 548.588 242.868 549.538C242.138 550.488 241.123 550.963 239.823 550.963ZM248.108 541.393L245.708 543.118V541.903L248.198 540.103H249.413V550.828H248.108V541.393ZM257.455 541.153H252.01V540.103H259.075V540.283L255.055 550.828H253.72L257.455 541.153Z" fill="white"/>
<path d="M342.157 6.275H343.867L347.497 17H346.207L345.157 13.91H340.732L339.697 17H338.467L342.157 6.275ZM341.092 12.875H344.812L342.952 7.355L341.092 12.875ZM352.486 15.935C353.836 15.935 354.861 15.56 355.561 14.81C356.271 14.05 356.626 13 356.626 11.66V11.54C356.626 10.23 356.286 9.2 355.606 8.45C354.936 7.7 353.891 7.325 352.471 7.325H351.016V15.935H352.486ZM349.711 6.275H352.546C354.316 6.275 355.661 6.76 356.581 7.73C357.511 8.7 357.976 9.97 357.976 11.54V11.675C357.976 13.245 357.516 14.525 356.596 15.515C355.676 16.505 354.316 17 352.516 17H349.711V6.275ZM360.481 6.275H363.706C364.816 6.275 365.716 6.52 366.406 7.01C367.106 7.5 367.456 8.25 367.456 9.26V9.32C367.456 10.15 367.211 10.81 366.721 11.3C366.231 11.78 365.591 12.095 364.801 12.245L368.086 17H366.631L363.436 12.335H361.786V17H360.481V6.275ZM363.796 11.3C365.366 11.3 366.151 10.64 366.151 9.32V9.26C366.151 8.56 365.951 8.065 365.551 7.775C365.151 7.475 364.566 7.325 363.796 7.325H361.786V11.3H363.796ZM374.225 10.25L375.47 8.585L373.625 8.15L373.955 7.145L375.725 7.865L375.62 5.855H376.715L376.61 7.865L378.365 7.145L378.695 8.15L376.835 8.585L378.08 10.25L377.24 10.865L376.13 9.065L375.08 10.865L374.225 10.25Z" fill="white"/>
<path d="M667.395 17.135C666.205 17.135 665.3 16.82 664.68 16.19C664.07 15.56 663.71 14.74 663.6 13.73H664.86C664.95 14.46 665.18 15.035 665.55 15.455C665.93 15.875 666.545 16.085 667.395 16.085C668.195 16.085 668.805 15.89 669.225 15.5C669.645 15.1 669.855 14.55 669.855 13.85C669.855 13.19 669.66 12.715 669.27 12.425C668.89 12.125 668.24 11.975 667.32 11.975H665.955V10.985H667.32C668.7 10.985 669.39 10.33 669.39 9.02C669.39 7.8 668.725 7.19 667.395 7.19C666.735 7.19 666.23 7.34 665.88 7.64C665.54 7.93 665.305 8.415 665.175 9.095H664.005C664.235 7.125 665.395 6.14 667.485 6.14C668.435 6.14 669.2 6.405 669.78 6.935C670.37 7.455 670.665 8.15 670.665 9.02C670.665 9.58 670.51 10.08 670.2 10.52C669.9 10.95 669.465 11.25 668.895 11.42C669.635 11.53 670.195 11.795 670.575 12.215C670.955 12.635 671.145 13.18 671.145 13.85C671.145 14.8 670.795 15.585 670.095 16.205C669.405 16.825 668.505 17.135 667.395 17.135ZM675.386 17.135C674.616 17.135 673.986 16.945 673.496 16.565C673.016 16.175 672.776 15.595 672.776 14.825C672.776 14.395 672.881 14.02 673.091 13.7C673.311 13.37 673.611 13.115 673.991 12.935C674.371 12.745 674.786 12.61 675.236 12.53C675.686 12.44 676.176 12.395 676.706 12.395H677.831V11.825C677.831 11.195 677.701 10.745 677.441 10.475C677.181 10.195 676.751 10.055 676.151 10.055C675.071 10.055 674.471 10.525 674.351 11.465H673.106C673.186 10.625 673.511 10.01 674.081 9.62C674.661 9.22 675.371 9.02 676.211 9.02C678.121 9.02 679.076 9.955 679.076 11.825V17H677.831V16.01C677.231 16.76 676.416 17.135 675.386 17.135ZM675.506 16.145C676.186 16.145 676.741 15.98 677.171 15.65C677.611 15.31 677.831 14.845 677.831 14.255V13.28H676.751C674.931 13.28 674.021 13.795 674.021 14.825C674.021 15.705 674.516 16.145 675.506 16.145ZM682.826 10.205V17H681.581V9.155H686.561V10.205H682.826ZM688.516 9.155H689.761V10.475C689.991 10.075 690.351 9.735 690.841 9.455C691.331 9.165 691.856 9.02 692.416 9.02C693.466 9.02 694.321 9.375 694.981 10.085C695.651 10.795 695.986 11.755 695.986 12.965V13.085C695.986 14.295 695.656 15.275 694.996 16.025C694.346 16.765 693.486 17.135 692.416 17.135C691.216 17.135 690.331 16.66 689.761 15.71V19.73H688.516V9.155ZM692.296 16.1C693.076 16.1 693.671 15.85 694.081 15.35C694.491 14.84 694.696 14.105 694.696 13.145V13.025C694.696 12.075 694.466 11.345 694.006 10.835C693.556 10.315 692.981 10.055 692.281 10.055C691.521 10.055 690.901 10.31 690.421 10.82C689.951 11.32 689.716 12.055 689.716 13.025V13.145C689.716 14.115 689.946 14.85 690.406 15.35C690.876 15.85 691.506 16.1 692.296 16.1ZM700.114 16.19L697.039 9.155H698.374L700.774 14.78L702.949 9.155H704.224L699.889 19.73H698.629L700.114 16.19ZM710.832 11.195C710.832 11.585 710.717 11.945 710.487 12.275C710.267 12.595 709.952 12.795 709.542 12.875C710.052 12.965 710.457 13.16 710.757 13.46C711.057 13.76 711.207 14.155 711.207 14.645V14.69C711.207 15.42 710.937 16.01 710.397 16.46C709.867 16.91 709.142 17.135 708.222 17.135C707.272 17.135 706.527 16.915 705.987 16.475C705.457 16.025 705.172 15.395 705.132 14.585H706.347C706.407 15.085 706.577 15.465 706.857 15.725C707.147 15.975 707.602 16.1 708.222 16.1C709.342 16.1 709.902 15.655 709.902 14.765V14.72C709.902 14.28 709.767 13.96 709.497 13.76C709.237 13.56 708.832 13.46 708.282 13.46H707.097V12.47H708.072C708.592 12.47 708.962 12.375 709.182 12.185C709.412 11.995 709.527 11.685 709.527 11.255V11.21C709.527 10.44 709.077 10.055 708.177 10.055C707.307 10.055 706.787 10.465 706.617 11.285H705.417C705.507 10.495 705.807 9.92 706.317 9.56C706.837 9.2 707.482 9.02 708.252 9.02C708.992 9.02 709.607 9.21 710.097 9.59C710.587 9.96 710.832 10.48 710.832 11.15V11.195ZM714.584 12.995V17H713.339V9.155H714.584V12.815L717.839 9.155H719.294L715.934 12.845L719.579 17H718.064L714.584 12.995ZM723.205 17.135C722.435 17.135 721.805 16.945 721.315 16.565C720.835 16.175 720.595 15.595 720.595 14.825C720.595 14.395 720.7 14.02 720.91 13.7C721.13 13.37 721.43 13.115 721.81 12.935C722.19 12.745 722.605 12.61 723.055 12.53C723.505 12.44 723.995 12.395 724.525 12.395H725.65V11.825C725.65 11.195 725.52 10.745 725.26 10.475C725 10.195 724.57 10.055 723.97 10.055C722.89 10.055 722.29 10.525 722.17 11.465H720.925C721.005 10.625 721.33 10.01 721.9 9.62C722.48 9.22 723.19 9.02 724.03 9.02C725.94 9.02 726.895 9.955 726.895 11.825V17H725.65V16.01C725.05 16.76 724.235 17.135 723.205 17.135ZM723.325 16.145C724.005 16.145 724.56 15.98 724.99 15.65C725.43 15.31 725.65 14.845 725.65 14.255V13.28H724.57C722.75 13.28 721.84 13.795 721.84 14.825C721.84 15.705 722.335 16.145 723.325 16.145ZM735.635 19.22C733.975 17.33 733.145 15.03 733.145 12.32C733.145 9.66 733.975 7.355 735.635 5.405H736.88C735.26 7.395 734.45 9.7 734.45 12.32C734.45 14.9 735.26 17.2 736.88 19.22H735.635ZM743.63 10.205H739.925V17H738.68V9.155H744.875V17H743.63V10.205ZM747.636 9.155H748.881V10.475C749.111 10.075 749.471 9.735 749.961 9.455C750.451 9.165 750.976 9.02 751.536 9.02C752.586 9.02 753.441 9.375 754.101 10.085C754.771 10.795 755.106 11.755 755.106 12.965V13.085C755.106 14.295 754.776 15.275 754.116 16.025C753.466 16.765 752.606 17.135 751.536 17.135C750.336 17.135 749.451 16.66 748.881 15.71V19.73H747.636V9.155ZM751.416 16.1C752.196 16.1 752.791 15.85 753.201 15.35C753.611 14.84 753.816 14.105 753.816 13.145V13.025C753.816 12.075 753.586 11.345 753.126 10.835C752.676 10.315 752.101 10.055 751.401 10.055C750.641 10.055 750.021 10.31 749.541 10.82C749.071 11.32 748.836 12.055 748.836 13.025V13.145C748.836 14.115 749.066 14.85 749.526 15.35C749.996 15.85 750.626 16.1 751.416 16.1ZM758.427 16.805C758.237 16.985 758.012 17.075 757.752 17.075C757.492 17.075 757.267 16.985 757.077 16.805C756.887 16.615 756.792 16.385 756.792 16.115C756.792 15.845 756.887 15.62 757.077 15.44C757.267 15.25 757.492 15.155 757.752 15.155C758.012 15.155 758.237 15.25 758.427 15.44C758.617 15.62 758.712 15.845 758.712 16.115C758.712 16.385 758.617 16.615 758.427 16.805ZM768.846 16.1C769.626 16.1 770.246 15.83 770.706 15.29C771.176 14.75 771.411 14.035 771.411 13.145V13.04C771.411 12.13 771.176 11.405 770.706 10.865C770.246 10.325 769.626 10.055 768.846 10.055C768.056 10.055 767.431 10.325 766.971 10.865C766.511 11.405 766.281 12.125 766.281 13.025V13.145C766.281 14.055 766.506 14.775 766.956 15.305C767.416 15.835 768.046 16.1 768.846 16.1ZM768.831 17.135C767.721 17.135 766.801 16.76 766.071 16.01C765.351 15.25 764.991 14.295 764.991 13.145V13.025C764.991 11.855 765.351 10.895 766.071 10.145C766.801 9.395 767.726 9.02 768.846 9.02C769.966 9.02 770.886 9.395 771.606 10.145C772.336 10.885 772.701 11.84 772.701 13.01V13.13C772.701 14.31 772.336 15.275 771.606 16.025C770.876 16.765 769.951 17.135 768.831 17.135ZM778.034 17.135C776.914 17.135 775.994 16.775 775.274 16.055C774.554 15.325 774.194 14.36 774.194 13.16V13.04C774.194 11.86 774.559 10.895 775.289 10.145C776.029 9.395 776.934 9.02 778.004 9.02C778.904 9.02 779.669 9.245 780.299 9.695C780.929 10.135 781.299 10.825 781.409 11.765H780.179C779.999 10.625 779.274 10.055 778.004 10.055C777.274 10.055 776.669 10.33 776.189 10.88C775.719 11.42 775.484 12.14 775.484 13.04V13.16C775.484 14.1 775.714 14.825 776.174 15.335C776.644 15.845 777.269 16.1 778.049 16.1C778.639 16.1 779.144 15.935 779.564 15.605C779.994 15.265 780.239 14.79 780.299 14.18H781.454C781.374 15.04 781.014 15.75 780.374 16.31C779.744 16.86 778.964 17.135 778.034 17.135ZM783.393 9.155H784.638V11.9H786.033C786.913 11.9 787.633 12.115 788.193 12.545C788.753 12.975 789.033 13.615 789.033 14.465V14.51C789.033 15.37 788.753 16 788.193 16.4C787.643 16.8 786.923 17 786.033 17H783.393V9.155ZM786.108 16.025C786.708 16.025 787.138 15.9 787.398 15.65C787.658 15.39 787.788 15.01 787.788 14.51V14.465C787.788 13.925 787.653 13.53 787.383 13.28C787.123 13.02 786.698 12.89 786.108 12.89H784.638V16.025H786.108ZM790.086 19.22C791.706 17.23 792.516 14.925 792.516 12.305C792.516 9.725 791.706 7.425 790.086 5.405H791.331C792.991 7.415 793.821 9.715 793.821 12.305C793.821 14.965 792.991 17.27 791.331 19.22H790.086ZM800.295 10.25L801.54 8.585L799.695 8.15L800.025 7.145L801.795 7.865L801.69 5.855H802.785L802.68 7.865L804.435 7.145L804.765 8.15L802.905 8.585L804.15 10.25L803.31 10.865L802.2 9.065L801.15 10.865L800.295 10.25Z" fill="white"/>
<path d="M12.4171 5.275H15.4621C16.5621 5.275 17.4621 5.535 18.1621 6.055C18.8621 6.565 19.2121 7.35 19.2121 8.41V8.47C19.2121 9.55 18.8621 10.35 18.1621 10.87C17.4721 11.38 16.5721 11.635 15.4621 11.635H13.7221V16H12.4171V5.275ZM15.5521 10.6C16.3221 10.6 16.9071 10.42 17.3071 10.06C17.7071 9.69 17.9071 9.16 17.9071 8.47V8.41C17.9071 7.02 17.1221 6.325 15.5521 6.325H13.7221V10.6H15.5521ZM23.3829 15.19L20.3079 8.155H21.6429L24.0429 13.78L26.2179 8.155H27.4929L23.1579 18.73H21.8979L23.3829 15.19ZM32.5673 16.135C31.3873 16.135 30.4523 15.755 29.7623 14.995C29.0723 14.235 28.7273 13.08 28.7273 11.53V11.05C28.7273 10.31 28.7573 9.655 28.8173 9.085C28.8773 8.505 29.0023 7.925 29.1923 7.345C29.3823 6.755 29.6323 6.265 29.9423 5.875C30.2523 5.485 30.6723 5.16 31.2023 4.9C31.7423 4.64 32.3773 4.49 33.1073 4.45L33.4073 4.435C34.5073 4.375 35.2523 4.265 35.6423 4.105L35.8073 5.155C35.2973 5.375 34.5023 5.51 33.4223 5.56L33.1973 5.575C31.9873 5.635 31.1223 6.03 30.6023 6.76C30.0923 7.48 29.7923 8.6 29.7023 10.12H29.7623C30.0323 9.57 30.4323 9.135 30.9623 8.815C31.5023 8.485 32.1273 8.32 32.8373 8.32C33.9273 8.32 34.7973 8.675 35.4473 9.385C36.1073 10.085 36.4373 10.995 36.4373 12.115V12.175C36.4373 13.385 36.0723 14.35 35.3423 15.07C34.6223 15.78 33.6973 16.135 32.5673 16.135ZM30.6923 14.335C31.1523 14.845 31.7823 15.1 32.5823 15.1C33.3823 15.1 34.0073 14.85 34.4573 14.35C34.9173 13.84 35.1473 13.12 35.1473 12.19V12.16C35.1473 11.29 34.9373 10.605 34.5173 10.105C34.1073 9.605 33.5073 9.355 32.7173 9.355C31.8873 9.355 31.2273 9.615 30.7373 10.135C30.2573 10.655 30.0173 11.365 30.0173 12.265V12.295C30.0173 13.145 30.2423 13.825 30.6923 14.335ZM40.0269 12.97C39.9369 14.05 39.7469 14.84 39.4569 15.34C39.1669 15.83 38.7119 16.075 38.0919 16.075C37.9619 16.075 37.8269 16.065 37.6869 16.045L37.5669 16V14.815L37.6719 14.845C37.7719 14.865 37.8769 14.875 37.9869 14.875C38.1469 14.875 38.2769 14.83 38.3769 14.74C38.4869 14.64 38.5719 14.485 38.6319 14.275C38.7019 14.065 38.7519 13.87 38.7819 13.69C38.8119 13.5 38.8469 13.235 38.8869 12.895C38.9269 12.535 38.9869 11.515 39.0669 9.835L39.1119 8.155H44.2869V16H43.0419V9.205H40.2219C40.1319 11.365 40.0669 12.62 40.0269 12.97ZM46.9533 16V8.155H48.1983V14.2L52.2033 8.155H53.4483V16H52.2033V9.955L48.1983 16H46.9533Z" fill="white"/>
<path d="M975.667 9.28C976.087 9.28 976.412 9.145 976.642 8.875C976.872 8.605 976.987 8.22 976.987 7.72C976.987 7.24 976.867 6.86 976.627 6.58C976.397 6.3 976.077 6.16 975.667 6.16C975.267 6.16 974.947 6.3 974.707 6.58C974.467 6.85 974.347 7.235 974.347 7.735C974.347 8.235 974.462 8.62 974.692 8.89C974.932 9.15 975.257 9.28 975.667 9.28ZM977.392 9.535C976.902 10.015 976.327 10.255 975.667 10.255C975.007 10.255 974.432 10.015 973.942 9.535C973.452 9.055 973.207 8.46 973.207 7.75C973.207 7.02 973.447 6.41 973.927 5.92C974.417 5.43 974.997 5.185 975.667 5.185C976.337 5.185 976.912 5.43 977.392 5.92C977.882 6.41 978.127 7.01 978.127 7.72C978.127 8.44 977.882 9.045 977.392 9.535ZM981.277 5.275H982.417L975.862 16H974.722L981.277 5.275ZM981.487 15.145C981.907 15.145 982.232 15.01 982.462 14.74C982.692 14.47 982.807 14.085 982.807 13.585C982.807 13.105 982.687 12.725 982.447 12.445C982.217 12.165 981.897 12.025 981.487 12.025C981.087 12.025 980.767 12.165 980.527 12.445C980.287 12.715 980.167 13.1 980.167 13.6C980.167 14.1 980.282 14.485 980.512 14.755C980.752 15.015 981.077 15.145 981.487 15.145ZM983.212 15.4C982.722 15.88 982.147 16.12 981.487 16.12C980.827 16.12 980.252 15.88 979.762 15.4C979.272 14.92 979.027 14.325 979.027 13.615C979.027 12.885 979.267 12.275 979.747 11.785C980.237 11.295 980.817 11.05 981.487 11.05C982.157 11.05 982.732 11.295 983.212 11.785C983.702 12.275 983.947 12.875 983.947 13.585C983.947 14.305 983.702 14.91 983.212 15.4Z" fill="white"/>
<path d="M475.18 550.528L479.44 546.043C480.47 544.953 480.985 543.918 480.985 542.938C480.985 542.338 480.815 541.868 480.475 541.528C480.145 541.188 479.675 541.018 479.065 541.018C477.765 541.018 477.01 541.813 476.8 543.403H475.585C475.665 542.343 476.01 541.508 476.62 540.898C477.24 540.278 478.055 539.968 479.065 539.968C480.055 539.968 480.84 540.243 481.42 540.793C482.01 541.333 482.305 542.063 482.305 542.983C482.305 544.163 481.585 545.463 480.145 546.883L477.19 549.763H482.365V550.828H475.18V550.528ZM488.628 549.883C490.518 549.883 491.463 548.498 491.463 545.728V545.128C491.463 543.878 491.208 542.883 490.698 542.143C490.188 541.393 489.488 541.018 488.598 541.018C487.688 541.018 486.978 541.378 486.468 542.098C485.958 542.818 485.703 543.838 485.703 545.158V545.758C485.703 547.088 485.963 548.108 486.483 548.818C487.003 549.528 487.718 549.883 488.628 549.883ZM488.628 550.963C487.348 550.963 486.318 550.488 485.538 549.538C484.758 548.588 484.368 547.333 484.368 545.773V545.173C484.368 543.583 484.743 542.318 485.493 541.378C486.253 540.438 487.288 539.968 488.598 539.968C489.898 539.968 490.918 540.443 491.658 541.393C492.408 542.343 492.783 543.593 492.783 545.143V545.743C492.783 547.323 492.413 548.588 491.673 549.538C490.943 550.488 489.928 550.963 488.628 550.963ZM496.913 541.393L494.513 543.118V541.903L497.003 540.103H498.218V550.828H496.913V541.393ZM504.895 550.963C504.285 550.963 503.705 550.853 503.155 550.633C502.605 550.403 502.14 550.038 501.76 549.538C501.38 549.038 501.19 548.453 501.19 547.783C501.19 547.093 501.375 546.513 501.745 546.043C502.115 545.573 502.605 545.228 503.215 545.008C502.135 544.578 501.595 543.828 501.595 542.758C501.595 541.938 501.925 541.268 502.585 540.748C503.255 540.228 504.025 539.968 504.895 539.968C505.765 539.968 506.53 540.228 507.19 540.748C507.85 541.258 508.18 541.918 508.18 542.728C508.18 543.758 507.63 544.513 506.53 544.993C507.9 545.503 508.585 546.423 508.585 547.753C508.585 548.763 508.215 549.553 507.475 550.123C506.745 550.683 505.885 550.963 504.895 550.963ZM504.895 549.898C505.585 549.898 506.15 549.708 506.59 549.328C507.03 548.938 507.25 548.398 507.25 547.708C507.25 547.038 507.025 546.518 506.575 546.148C506.135 545.768 505.585 545.578 504.925 545.578C504.245 545.578 503.675 545.768 503.215 546.148C502.755 546.518 502.525 547.048 502.525 547.738C502.525 548.408 502.755 548.938 503.215 549.328C503.675 549.708 504.235 549.898 504.895 549.898ZM504.94 544.543C505.52 544.543 505.985 544.383 506.335 544.063C506.685 543.743 506.86 543.303 506.86 542.743C506.86 542.233 506.675 541.813 506.305 541.483C505.935 541.153 505.465 540.988 504.895 540.988C504.315 540.988 503.84 541.148 503.47 541.468C503.1 541.788 502.915 542.223 502.915 542.773C502.915 543.313 503.11 543.743 503.5 544.063C503.89 544.383 504.37 544.543 504.94 544.543Z" fill="white"/>
<path d="M725.204 550.528L729.464 546.043C730.494 544.953 731.009 543.918 731.009 542.938C731.009 542.338 730.839 541.868 730.499 541.528C730.169 541.188 729.699 541.018 729.089 541.018C727.789 541.018 727.034 541.813 726.824 543.403H725.609C725.689 542.343 726.034 541.508 726.644 540.898C727.264 540.278 728.079 539.968 729.089 539.968C730.079 539.968 730.864 540.243 731.444 540.793C732.034 541.333 732.329 542.063 732.329 542.983C732.329 544.163 731.609 545.463 730.169 546.883L727.214 549.763H732.389V550.828H725.204V550.528ZM738.652 549.883C740.542 549.883 741.487 548.498 741.487 545.728V545.128C741.487 543.878 741.232 542.883 740.722 542.143C740.212 541.393 739.512 541.018 738.622 541.018C737.712 541.018 737.002 541.378 736.492 542.098C735.982 542.818 735.727 543.838 735.727 545.158V545.758C735.727 547.088 735.987 548.108 736.507 548.818C737.027 549.528 737.742 549.883 738.652 549.883ZM738.652 550.963C737.372 550.963 736.342 550.488 735.562 549.538C734.782 548.588 734.392 547.333 734.392 545.773V545.173C734.392 543.583 734.767 542.318 735.517 541.378C736.277 540.438 737.312 539.968 738.622 539.968C739.922 539.968 740.942 540.443 741.682 541.393C742.432 542.343 742.807 543.593 742.807 545.143V545.743C742.807 547.323 742.437 548.588 741.697 549.538C740.967 550.488 739.952 550.963 738.652 550.963ZM746.937 541.393L744.537 543.118V541.903L747.027 540.103H748.242V550.828H746.937V541.393ZM754.563 550.948C753.583 550.948 752.798 550.708 752.208 550.228C751.618 549.748 751.253 549.068 751.113 548.188H752.373C752.503 548.748 752.738 549.173 753.078 549.463C753.428 549.743 753.933 549.883 754.593 549.883C755.463 549.883 756.133 549.528 756.603 548.818C757.073 548.108 757.318 547.043 757.338 545.623C757.068 546.073 756.693 546.423 756.213 546.673C755.733 546.923 755.183 547.048 754.563 547.048C753.523 547.048 752.673 546.718 752.013 546.058C751.363 545.398 751.038 544.558 751.038 543.538C751.038 542.458 751.373 541.593 752.043 540.943C752.713 540.283 753.613 539.953 754.743 539.953C756.013 539.953 756.973 540.363 757.623 541.183C758.273 542.003 758.598 543.193 758.598 544.753V545.428C758.598 547.218 758.248 548.588 757.548 549.538C756.858 550.478 755.863 550.948 754.563 550.948ZM754.758 546.028C755.478 546.028 756.068 545.813 756.528 545.383C756.988 544.953 757.218 544.393 757.218 543.703C757.218 542.843 756.988 542.173 756.528 541.693C756.078 541.213 755.483 540.973 754.743 540.973C754.043 540.973 753.473 541.203 753.033 541.663C752.593 542.123 752.373 542.728 752.373 543.478C752.373 544.258 752.588 544.878 753.018 545.338C753.448 545.798 754.028 546.028 754.758 546.028Z" fill="white"/>
<rect opacity="0.5" x="103.668" y="396" width="829.35" height="1.13793" fill="#434343"/>
<rect opacity="0.5" x="103.668" y="495" width="829.35" height="1.13793" fill="#434343"/>
<rect opacity="0.5" x="103.668" y="298.138" width="829.35" height="1.13793" fill="#434343"/>
<rect opacity="0.5" x="103.668" y="102.413" width="829.35" height="1.13793" fill="#434343"/>
<rect opacity="0.5" x="103.668" y="200.275" width="829.35" height="1.13793" fill="#434343"/>
<rect x="203.678" y="209.38" width="64.6405" height="285.621" fill="#F5E6D1"/>
<rect x="458.582" y="167.275" width="64.6405" height="327.724" fill="#F5E6D1"/>
<rect x="703.728" y="190.034" width="64.6405" height="304.966" fill="#F5E6D1"/>
<circle cx="268.44" cy="225.932" r="5" fill="#C7794E"/>
<circle cx="319.287" cy="12.5" r="5.5" fill="#F5E6D1"/>
<circle cx="644.928" cy="12.5" r="5.5" fill="#C7794E"/>
<circle cx="523.344" cy="222.656" r="5" fill="#C7794E"/>
<path d="M773.489 213C773.489 215.761 771.251 218 768.489 218C765.728 218 763.489 215.761 763.489 213C763.489 210.239 765.728 208 768.489 208C771.251 208 773.489 210.239 773.489 213Z" fill="#C7794E"/>
<path d="M267.709 226.052L523.832 222.207" stroke="#C7794E" stroke-width="3"/>
<path d="M524.442 222.206L768.368 212.551" stroke="#C7794E" stroke-width="3"/>
</svg>
