<svg width="593" height="375" viewBox="0 0 593 375" fill="none" xmlns="http://www.w3.org/2000/svg">
<path d="M19.736 129.144C18.552 129.144 17.5973 128.813 16.872 128.152C16.1573 127.491 15.7787 126.648 15.736 125.624H17.016C17.08 126.349 17.3413 126.931 17.8 127.368C18.2587 127.805 18.9147 128.024 19.768 128.024C20.6427 128.024 21.2933 127.832 21.72 127.448C22.1573 127.053 22.376 126.509 22.376 125.816C22.376 124.333 21.5707 123.592 19.96 123.592H19.096V122.424H19.896C21.3253 122.424 22.04 121.773 22.04 120.472C22.04 119.907 21.864 119.448 21.512 119.096C21.16 118.733 20.6427 118.552 19.96 118.552C19.256 118.552 18.6747 118.749 18.216 119.144C17.768 119.539 17.5067 120.061 17.432 120.712H16.216C16.2587 119.795 16.6267 119.016 17.32 118.376C18.0133 117.736 18.8933 117.416 19.96 117.416C21.0053 117.416 21.8373 117.715 22.456 118.312C23.0853 118.899 23.4 119.608 23.4 120.44C23.4 121.603 22.7973 122.435 21.592 122.936C23.064 123.341 23.8 124.301 23.8 125.816C23.8 126.851 23.4213 127.667 22.664 128.264C21.9173 128.851 20.9413 129.144 19.736 129.144ZM30.1874 129.144C27.446 129.144 26.0754 127.411 26.0754 123.944V123.672C26.0754 121.667 26.4807 120.125 27.2914 119.048C28.1127 117.96 29.2007 117.416 30.5554 117.416C31.4727 117.416 32.2194 117.651 32.7954 118.12C33.382 118.589 33.75 119.277 33.8994 120.184H32.5714C32.4434 119.629 32.214 119.219 31.8834 118.952C31.5527 118.685 31.078 118.552 30.4594 118.552C29.574 118.552 28.8594 118.947 28.3154 119.736C27.7714 120.525 27.4834 121.656 27.4514 123.128C28.07 122.093 29.0514 121.576 30.3954 121.576C31.5154 121.576 32.4167 121.933 33.0994 122.648C33.7927 123.352 34.1394 124.243 34.1394 125.32C34.1394 126.472 33.782 127.4 33.0674 128.104C32.3527 128.797 31.3927 129.144 30.1874 129.144ZM30.1874 128.056C30.934 128.056 31.542 127.811 32.0114 127.32C32.4807 126.829 32.7154 126.184 32.7154 125.384C32.7154 124.552 32.486 123.891 32.0274 123.4C31.5687 122.909 30.95 122.664 30.1714 122.664C29.4034 122.664 28.774 122.899 28.2834 123.368C27.7927 123.837 27.5474 124.445 27.5474 125.192C27.5474 126.099 27.7874 126.803 28.2674 127.304C28.758 127.805 29.398 128.056 30.1874 128.056ZM40.795 127.992C42.811 127.992 43.819 126.515 43.819 123.56V122.92C43.819 121.587 43.547 120.525 43.003 119.736C42.459 118.936 41.7123 118.536 40.763 118.536C39.7923 118.536 39.035 118.92 38.491 119.688C37.947 120.456 37.675 121.544 37.675 122.952V123.592C37.675 125.011 37.9523 126.099 38.507 126.856C39.0617 127.613 39.8243 127.992 40.795 127.992ZM40.795 129.144C39.4297 129.144 38.331 128.637 37.499 127.624C36.667 126.611 36.251 125.272 36.251 123.608V122.968C36.251 121.272 36.651 119.923 37.451 118.92C38.2617 117.917 39.3657 117.416 40.763 117.416C42.1497 117.416 43.2377 117.923 44.027 118.936C44.827 119.949 45.227 121.283 45.227 122.936V123.576C45.227 125.261 44.8323 126.611 44.043 127.624C43.2643 128.637 42.1817 129.144 40.795 129.144Z" fill="white"/>
<path opacity="0.6" d="M5.412 137.564H3.384V143H2.388V137.564H0.36V136.724H5.412V137.564ZM12.3053 136.724H13.3013V143H12.3053V136.724ZM6.90534 136.724H7.90134V138.92H9.01734C9.72934 138.92 10.3053 139.08 10.7453 139.4C11.1933 139.72 11.4173 140.224 11.4173 140.912V140.948C11.4173 141.628 11.1933 142.14 10.7453 142.484C10.2973 142.828 9.72134 143 9.01734 143H6.90534V136.724ZM9.07734 142.208C9.54934 142.208 9.88934 142.108 10.0973 141.908C10.3133 141.7 10.4213 141.38 10.4213 140.948V140.912C10.4213 140.512 10.3173 140.212 10.1093 140.012C9.90134 139.804 9.55734 139.7 9.07734 139.7H7.90134V142.208H9.07734ZM18.1154 143.108C17.2194 143.108 16.4834 142.82 15.9074 142.244C15.3314 141.66 15.0434 140.888 15.0434 139.928V139.832C15.0434 138.888 15.3354 138.116 15.9194 137.516C16.5114 136.916 17.2354 136.616 18.0914 136.616C18.8114 136.616 19.4234 136.796 19.9274 137.156C20.4314 137.508 20.7274 138.06 20.8154 138.812H19.8314C19.6874 137.9 19.1074 137.444 18.0914 137.444C17.5074 137.444 17.0234 137.664 16.6394 138.104C16.2634 138.536 16.0754 139.112 16.0754 139.832V139.928C16.0754 140.68 16.2594 141.26 16.6274 141.668C17.0034 142.076 17.5034 142.28 18.1274 142.28C18.5994 142.28 19.0034 142.148 19.3394 141.884C19.6834 141.612 19.8794 141.232 19.9274 140.744H20.8514C20.7874 141.432 20.4994 142 19.9874 142.448C19.4834 142.888 18.8594 143.108 18.1154 143.108ZM25.7709 136.724H26.7669V137.78C26.9509 137.46 27.2389 137.188 27.6309 136.964C28.0229 136.732 28.4429 136.616 28.8909 136.616C29.7309 136.616 30.4149 136.9 30.9429 137.468C31.4789 138.036 31.7469 138.804 31.7469 139.772V139.868C31.7469 140.836 31.4829 141.62 30.9549 142.22C30.4349 142.812 29.7469 143.108 28.8909 143.108C27.9309 143.108 27.2229 142.728 26.7669 141.968V145.184H25.7709V136.724ZM28.7949 142.28C29.4189 142.28 29.8949 142.08 30.2229 141.68C30.5509 141.272 30.7149 140.684 30.7149 139.916V139.82C30.7149 139.06 30.5309 138.476 30.1629 138.068C29.8029 137.652 29.3429 137.444 28.7829 137.444C28.1749 137.444 27.6789 137.648 27.2949 138.056C26.9189 138.456 26.7309 139.044 26.7309 139.82V139.916C26.7309 140.692 26.9149 141.28 27.2829 141.68C27.6589 142.08 28.1629 142.28 28.7949 142.28ZM35.0492 142.352L32.5892 136.724H33.6572L35.5772 141.224L37.3172 136.724H38.3372L34.8692 145.184H33.8612L35.0492 142.352ZM42.3968 143.108C41.4528 143.108 40.7048 142.804 40.1528 142.196C39.6008 141.588 39.3248 140.664 39.3248 139.424V139.04C39.3248 138.448 39.3488 137.924 39.3968 137.468C39.4448 137.004 39.5448 136.54 39.6968 136.076C39.8488 135.604 40.0488 135.212 40.2968 134.9C40.5448 134.588 40.8808 134.328 41.3048 134.12C41.7368 133.912 42.2448 133.792 42.8288 133.76L43.0688 133.748C43.9488 133.7 44.5448 133.612 44.8568 133.484L44.9888 134.324C44.5808 134.5 43.9448 134.608 43.0808 134.648L42.9008 134.66C41.9328 134.708 41.2408 135.024 40.8248 135.608C40.4168 136.184 40.1768 137.08 40.1048 138.296H40.1528C40.3688 137.856 40.6888 137.508 41.1128 137.252C41.5448 136.988 42.0448 136.856 42.6128 136.856C43.4848 136.856 44.1808 137.14 44.7008 137.708C45.2288 138.268 45.4928 138.996 45.4928 139.892V139.94C45.4928 140.908 45.2008 141.68 44.6168 142.256C44.0408 142.824 43.3008 143.108 42.3968 143.108ZM40.8968 141.668C41.2648 142.076 41.7688 142.28 42.4088 142.28C43.0488 142.28 43.5488 142.08 43.9088 141.68C44.2768 141.272 44.4608 140.696 44.4608 139.952V139.928C44.4608 139.232 44.2928 138.684 43.9568 138.284C43.6288 137.884 43.1488 137.684 42.5168 137.684C41.8528 137.684 41.3248 137.892 40.9328 138.308C40.5488 138.724 40.3568 139.292 40.3568 140.012V140.036C40.3568 140.716 40.5368 141.26 40.8968 141.668Z" fill="white"/>
<path d="M25.448 71.6H19.72V71.152L24.952 62.56H26.808V70.464H28.392V71.6H26.808V74H25.448V71.6ZM25.448 70.464V63.616L21.48 70.464H25.448ZM32.2503 63.936L29.6902 65.776V64.48L32.3463 62.56H33.6423V74H32.2503V63.936ZM41.4044 72.992C43.4204 72.992 44.4284 71.5147 44.4284 68.56V67.92C44.4284 66.5867 44.1564 65.5253 43.6124 64.736C43.0684 63.936 42.3217 63.536 41.3724 63.536C40.4017 63.536 39.6444 63.92 39.1004 64.688C38.5564 65.456 38.2844 66.544 38.2844 67.952V68.592C38.2844 70.0107 38.5617 71.0987 39.1164 71.856C39.671 72.6133 40.4337 72.992 41.4044 72.992ZM41.4044 74.144C40.039 74.144 38.9404 73.6373 38.1084 72.624C37.2764 71.6107 36.8604 70.272 36.8604 68.608V67.968C36.8604 66.272 37.2604 64.9227 38.0604 63.92C38.871 62.9173 39.975 62.416 41.3724 62.416C42.759 62.416 43.847 62.9227 44.6364 63.936C45.4364 64.9493 45.8364 66.2827 45.8364 67.936V68.576C45.8364 70.2613 45.4417 71.6107 44.6524 72.624C43.8737 73.6373 42.791 74.144 41.4044 74.144Z" fill="white"/>
<path opacity="0.6" d="M5.412 83.564H3.384V89H2.388V83.564H0.36V82.724H5.412V83.564ZM12.3053 82.724H13.3013V89H12.3053V82.724ZM6.90534 82.724H7.90134V84.92H9.01734C9.72934 84.92 10.3053 85.08 10.7453 85.4C11.1933 85.72 11.4173 86.224 11.4173 86.912V86.948C11.4173 87.628 11.1933 88.14 10.7453 88.484C10.2973 88.828 9.72134 89 9.01734 89H6.90534V82.724ZM9.07734 88.208C9.54934 88.208 9.88934 88.108 10.0973 87.908C10.3133 87.7 10.4213 87.38 10.4213 86.948V86.912C10.4213 86.512 10.3173 86.212 10.1093 86.012C9.90134 85.804 9.55734 85.7 9.07734 85.7H7.90134V88.208H9.07734ZM18.1154 89.108C17.2194 89.108 16.4834 88.82 15.9074 88.244C15.3314 87.66 15.0434 86.888 15.0434 85.928V85.832C15.0434 84.888 15.3354 84.116 15.9194 83.516C16.5114 82.916 17.2354 82.616 18.0914 82.616C18.8114 82.616 19.4234 82.796 19.9274 83.156C20.4314 83.508 20.7274 84.06 20.8154 84.812H19.8314C19.6874 83.9 19.1074 83.444 18.0914 83.444C17.5074 83.444 17.0234 83.664 16.6394 84.104C16.2634 84.536 16.0754 85.112 16.0754 85.832V85.928C16.0754 86.68 16.2594 87.26 16.6274 87.668C17.0034 88.076 17.5034 88.28 18.1274 88.28C18.5994 88.28 19.0034 88.148 19.3394 87.884C19.6834 87.612 19.8794 87.232 19.9274 86.744H20.8514C20.7874 87.432 20.4994 88 19.9874 88.448C19.4834 88.888 18.8594 89.108 18.1154 89.108ZM25.7709 82.724H26.7669V83.78C26.9509 83.46 27.2389 83.188 27.6309 82.964C28.0229 82.732 28.4429 82.616 28.8909 82.616C29.7309 82.616 30.4149 82.9 30.9429 83.468C31.4789 84.036 31.7469 84.804 31.7469 85.772V85.868C31.7469 86.836 31.4829 87.62 30.9549 88.22C30.4349 88.812 29.7469 89.108 28.8909 89.108C27.9309 89.108 27.2229 88.728 26.7669 87.968V91.184H25.7709V82.724ZM28.7949 88.28C29.4189 88.28 29.8949 88.08 30.2229 87.68C30.5509 87.272 30.7149 86.684 30.7149 85.916V85.82C30.7149 85.06 30.5309 84.476 30.1629 84.068C29.8029 83.652 29.3429 83.444 28.7829 83.444C28.1749 83.444 27.6789 83.648 27.2949 84.056C26.9189 84.456 26.7309 85.044 26.7309 85.82V85.916C26.7309 86.692 26.9149 87.28 27.2829 87.68C27.6589 88.08 28.1629 88.28 28.7949 88.28ZM35.0492 88.352L32.5892 82.724H33.6572L35.5772 87.224L37.3172 82.724H38.3372L34.8692 91.184H33.8612L35.0492 88.352ZM42.3968 89.108C41.4528 89.108 40.7048 88.804 40.1528 88.196C39.6008 87.588 39.3248 86.664 39.3248 85.424V85.04C39.3248 84.448 39.3488 83.924 39.3968 83.468C39.4448 83.004 39.5448 82.54 39.6968 82.076C39.8488 81.604 40.0488 81.212 40.2968 80.9C40.5448 80.588 40.8808 80.328 41.3048 80.12C41.7368 79.912 42.2448 79.792 42.8288 79.76L43.0688 79.748C43.9488 79.7 44.5448 79.612 44.8568 79.484L44.9888 80.324C44.5808 80.5 43.9448 80.608 43.0808 80.648L42.9008 80.66C41.9328 80.708 41.2408 81.024 40.8248 81.608C40.4168 82.184 40.1768 83.08 40.1048 84.296H40.1528C40.3688 83.856 40.6888 83.508 41.1128 83.252C41.5448 82.988 42.0448 82.856 42.6128 82.856C43.4848 82.856 44.1808 83.14 44.7008 83.708C45.2288 84.268 45.4928 84.996 45.4928 85.892V85.94C45.4928 86.908 45.2008 87.68 44.6168 88.256C44.0408 88.824 43.3008 89.108 42.3968 89.108ZM40.8968 87.668C41.2648 88.076 41.7688 88.28 42.4088 88.28C43.0488 88.28 43.5488 88.08 43.9088 87.68C44.2768 87.272 44.4608 86.696 44.4608 85.952V85.928C44.4608 85.232 44.2928 84.684 43.9568 84.284C43.6288 83.884 43.1488 83.684 42.5168 83.684C41.8528 83.684 41.3248 83.892 40.9328 84.308C40.5488 84.724 40.3568 85.292 40.3568 86.012V86.036C40.3568 86.716 40.5368 87.26 40.8968 87.668Z" fill="white"/>
<path d="M19.4 296.68L23.944 291.896C25.0427 290.733 25.592 289.629 25.592 288.584C25.592 287.944 25.4107 287.443 25.048 287.08C24.696 286.717 24.1947 286.536 23.544 286.536C22.1573 286.536 21.352 287.384 21.128 289.08H19.832C19.9173 287.949 20.2853 287.059 20.936 286.408C21.5973 285.747 22.4667 285.416 23.544 285.416C24.6 285.416 25.4373 285.709 26.056 286.296C26.6853 286.872 27 287.651 27 288.632C27 289.891 26.232 291.277 24.696 292.792L21.544 295.864H27.064V297H19.4V296.68ZM31.4065 286.936L28.8465 288.776V287.48L31.5025 285.56H32.7985V297H31.4065V286.936ZM40.5606 295.992C42.5766 295.992 43.5846 294.515 43.5846 291.56V290.92C43.5846 289.587 43.3126 288.525 42.7686 287.736C42.2246 286.936 41.478 286.536 40.5286 286.536C39.558 286.536 38.8006 286.92 38.2566 287.688C37.7126 288.456 37.4406 289.544 37.4406 290.952V291.592C37.4406 293.011 37.718 294.099 38.2726 294.856C38.8273 295.613 39.59 295.992 40.5606 295.992ZM40.5606 297.144C39.1953 297.144 38.0966 296.637 37.2646 295.624C36.4326 294.611 36.0166 293.272 36.0166 291.608V290.968C36.0166 289.272 36.4166 287.923 37.2166 286.92C38.0273 285.917 39.1313 285.416 40.5286 285.416C41.9153 285.416 43.0033 285.923 43.7926 286.936C44.5926 287.949 44.9926 289.283 44.9926 290.936V291.576C44.9926 293.261 44.598 294.611 43.8086 295.624C43.03 296.637 41.9473 297.144 40.5606 297.144Z" fill="white"/>
<path opacity="0.6" d="M5.412 306.564H3.384V312H2.388V306.564H0.36V305.724H5.412V306.564ZM12.3053 305.724H13.3013V312H12.3053V305.724ZM6.90534 305.724H7.90134V307.92H9.01734C9.72934 307.92 10.3053 308.08 10.7453 308.4C11.1933 308.72 11.4173 309.224 11.4173 309.912V309.948C11.4173 310.628 11.1933 311.14 10.7453 311.484C10.2973 311.828 9.72134 312 9.01734 312H6.90534V305.724ZM9.07734 311.208C9.54934 311.208 9.88934 311.108 10.0973 310.908C10.3133 310.7 10.4213 310.38 10.4213 309.948V309.912C10.4213 309.512 10.3173 309.212 10.1093 309.012C9.90134 308.804 9.55734 308.7 9.07734 308.7H7.90134V311.208H9.07734ZM18.1154 312.108C17.2194 312.108 16.4834 311.82 15.9074 311.244C15.3314 310.66 15.0434 309.888 15.0434 308.928V308.832C15.0434 307.888 15.3354 307.116 15.9194 306.516C16.5114 305.916 17.2354 305.616 18.0914 305.616C18.8114 305.616 19.4234 305.796 19.9274 306.156C20.4314 306.508 20.7274 307.06 20.8154 307.812H19.8314C19.6874 306.9 19.1074 306.444 18.0914 306.444C17.5074 306.444 17.0234 306.664 16.6394 307.104C16.2634 307.536 16.0754 308.112 16.0754 308.832V308.928C16.0754 309.68 16.2594 310.26 16.6274 310.668C17.0034 311.076 17.5034 311.28 18.1274 311.28C18.5994 311.28 19.0034 311.148 19.3394 310.884C19.6834 310.612 19.8794 310.232 19.9274 309.744H20.8514C20.7874 310.432 20.4994 311 19.9874 311.448C19.4834 311.888 18.8594 312.108 18.1154 312.108ZM25.7709 305.724H26.7669V306.78C26.9509 306.46 27.2389 306.188 27.6309 305.964C28.0229 305.732 28.4429 305.616 28.8909 305.616C29.7309 305.616 30.4149 305.9 30.9429 306.468C31.4789 307.036 31.7469 307.804 31.7469 308.772V308.868C31.7469 309.836 31.4829 310.62 30.9549 311.22C30.4349 311.812 29.7469 312.108 28.8909 312.108C27.9309 312.108 27.2229 311.728 26.7669 310.968V314.184H25.7709V305.724ZM28.7949 311.28C29.4189 311.28 29.8949 311.08 30.2229 310.68C30.5509 310.272 30.7149 309.684 30.7149 308.916V308.82C30.7149 308.06 30.5309 307.476 30.1629 307.068C29.8029 306.652 29.3429 306.444 28.7829 306.444C28.1749 306.444 27.6789 306.648 27.2949 307.056C26.9189 307.456 26.7309 308.044 26.7309 308.82V308.916C26.7309 309.692 26.9149 310.28 27.2829 310.68C27.6589 311.08 28.1629 311.28 28.7949 311.28ZM35.0492 311.352L32.5892 305.724H33.6572L35.5772 310.224L37.3172 305.724H38.3372L34.8692 314.184H33.8612L35.0492 311.352ZM42.3968 312.108C41.4528 312.108 40.7048 311.804 40.1528 311.196C39.6008 310.588 39.3248 309.664 39.3248 308.424V308.04C39.3248 307.448 39.3488 306.924 39.3968 306.468C39.4448 306.004 39.5448 305.54 39.6968 305.076C39.8488 304.604 40.0488 304.212 40.2968 303.9C40.5448 303.588 40.8808 303.328 41.3048 303.12C41.7368 302.912 42.2448 302.792 42.8288 302.76L43.0688 302.748C43.9488 302.7 44.5448 302.612 44.8568 302.484L44.9888 303.324C44.5808 303.5 43.9448 303.608 43.0808 303.648L42.9008 303.66C41.9328 303.708 41.2408 304.024 40.8248 304.608C40.4168 305.184 40.1768 306.08 40.1048 307.296H40.1528C40.3688 306.856 40.6888 306.508 41.1128 306.252C41.5448 305.988 42.0448 305.856 42.6128 305.856C43.4848 305.856 44.1808 306.14 44.7008 306.708C45.2288 307.268 45.4928 307.996 45.4928 308.892V308.94C45.4928 309.908 45.2008 310.68 44.6168 311.256C44.0408 311.824 43.3008 312.108 42.3968 312.108ZM40.8968 310.668C41.2648 311.076 41.7688 311.28 42.4088 311.28C43.0488 311.28 43.5488 311.08 43.9088 310.68C44.2768 310.272 44.4608 309.696 44.4608 308.952V308.928C44.4608 308.232 44.2928 307.684 43.9568 307.284C43.6288 306.884 43.1488 306.684 42.5168 306.684C41.8528 306.684 41.3248 306.892 40.9328 307.308C40.5488 307.724 40.3568 308.292 40.3568 309.012V309.036C40.3568 309.716 40.5368 310.26 40.8968 310.668Z" fill="white"/>
<path opacity="0.6" d="M233.096 345.516C232.2 345.516 231.752 345.896 231.752 346.656V346.692C231.752 347.052 231.856 347.324 232.064 347.508C232.272 347.692 232.616 347.784 233.096 347.784H234.272V345.516H233.096ZM231.44 351H230.3L232.208 348.372C231.24 348.172 230.756 347.612 230.756 346.692V346.656C230.756 346 230.98 345.516 231.428 345.204C231.876 344.884 232.452 344.724 233.156 344.724H235.268V351H234.272V348.54H233.192L231.44 351ZM241.489 348.204H238.405V351H237.409V344.724H238.405V347.364H241.489V344.724H242.485V351H241.489V348.204ZM244.619 344.724H246.815C248.287 344.724 249.023 345.256 249.023 346.32V346.356C249.023 346.66 248.939 346.94 248.771 347.196C248.603 347.444 248.351 347.612 248.015 347.7C248.887 347.892 249.323 348.364 249.323 349.116V349.152C249.323 349.76 249.123 350.22 248.723 350.532C248.331 350.844 247.783 351 247.079 351H244.619V344.724ZM245.615 345.516V347.376H246.815C247.231 347.376 247.527 347.3 247.703 347.148C247.887 346.996 247.979 346.748 247.979 346.404V346.368C247.979 346.048 247.883 345.828 247.691 345.708C247.507 345.58 247.211 345.516 246.803 345.516H245.615ZM245.615 348.168V350.208H246.983C247.423 350.208 247.747 350.132 247.955 349.98C248.171 349.82 248.279 349.564 248.279 349.212V349.176C248.279 348.824 248.171 348.568 247.955 348.408C247.747 348.248 247.423 348.168 246.983 348.168H245.615ZM252.735 351.108C252.119 351.108 251.615 350.956 251.223 350.652C250.839 350.34 250.647 349.876 250.647 349.26C250.647 348.916 250.731 348.616 250.899 348.36C251.075 348.096 251.315 347.892 251.619 347.748C251.923 347.596 252.255 347.488 252.615 347.424C252.975 347.352 253.367 347.316 253.791 347.316H254.691V346.86C254.691 346.356 254.587 345.996 254.379 345.78C254.171 345.556 253.827 345.444 253.347 345.444C252.483 345.444 252.003 345.82 251.907 346.572H250.911C250.975 345.9 251.235 345.408 251.691 345.096C252.155 344.776 252.723 344.616 253.395 344.616C254.923 344.616 255.687 345.364 255.687 346.86V351H254.691V350.208C254.211 350.808 253.559 351.108 252.735 351.108ZM252.831 350.316C253.375 350.316 253.819 350.184 254.163 349.92C254.515 349.648 254.691 349.276 254.691 348.804V348.024H253.827C252.371 348.024 251.643 348.436 251.643 349.26C251.643 349.964 252.039 350.316 252.831 350.316ZM257.763 344.724H258.759V345.78C258.943 345.46 259.231 345.188 259.623 344.964C260.015 344.732 260.435 344.616 260.883 344.616C261.723 344.616 262.407 344.9 262.935 345.468C263.471 346.036 263.739 346.804 263.739 347.772V347.868C263.739 348.836 263.475 349.62 262.947 350.22C262.427 350.812 261.739 351.108 260.883 351.108C259.923 351.108 259.215 350.728 258.759 349.968V353.184H257.763V344.724ZM260.787 350.28C261.411 350.28 261.887 350.08 262.215 349.68C262.543 349.272 262.707 348.684 262.707 347.916V347.82C262.707 347.06 262.523 346.476 262.155 346.068C261.795 345.652 261.335 345.444 260.775 345.444C260.167 345.444 259.671 345.648 259.287 346.056C258.911 346.456 258.723 347.044 258.723 347.82V347.916C258.723 348.692 258.907 349.28 259.275 349.68C259.651 350.08 260.155 350.28 260.787 350.28ZM265.335 344.724H266.331V346.92H267.447C268.151 346.92 268.727 347.092 269.175 347.436C269.623 347.78 269.847 348.292 269.847 348.972V349.008C269.847 349.696 269.623 350.2 269.175 350.52C268.735 350.84 268.159 351 267.447 351H265.335V344.724ZM267.507 350.22C267.987 350.22 268.331 350.12 268.539 349.92C268.747 349.712 268.851 349.408 268.851 349.008V348.972C268.851 348.54 268.743 348.224 268.527 348.024C268.319 347.816 267.979 347.712 267.507 347.712H266.331V350.22H267.507Z" fill="white"/>
<path d="M230.35 368.72L234.326 364.534C235.287 363.517 235.768 362.551 235.768 361.636C235.768 361.076 235.609 360.637 235.292 360.32C234.984 360.003 234.545 359.844 233.976 359.844C232.763 359.844 232.058 360.586 231.862 362.07H230.728C230.803 361.081 231.125 360.301 231.694 359.732C232.273 359.153 233.033 358.864 233.976 358.864C234.9 358.864 235.633 359.121 236.174 359.634C236.725 360.138 237 360.819 237 361.678C237 362.779 236.328 363.993 234.984 365.318L232.226 368.006H237.056V369H230.35V368.72ZM242.901 368.118C244.665 368.118 245.547 366.825 245.547 364.24V363.68C245.547 362.513 245.309 361.585 244.833 360.894C244.357 360.194 243.704 359.844 242.873 359.844C242.024 359.844 241.361 360.18 240.885 360.852C240.409 361.524 240.171 362.476 240.171 363.708V364.268C240.171 365.509 240.414 366.461 240.899 367.124C241.385 367.787 242.052 368.118 242.901 368.118ZM242.901 369.126C241.707 369.126 240.745 368.683 240.017 367.796C239.289 366.909 238.925 365.738 238.925 364.282V363.722C238.925 362.238 239.275 361.057 239.975 360.18C240.685 359.303 241.651 358.864 242.873 358.864C244.087 358.864 245.039 359.307 245.729 360.194C246.429 361.081 246.779 362.247 246.779 363.694V364.254C246.779 365.729 246.434 366.909 245.743 367.796C245.062 368.683 244.115 369.126 242.901 369.126ZM250.634 360.194L248.394 361.804V360.67L250.718 358.99H251.852V369H250.634V360.194ZM257.752 369.112C256.837 369.112 256.104 368.888 255.554 368.44C255.003 367.992 254.662 367.357 254.532 366.536H255.708C255.829 367.059 256.048 367.455 256.366 367.726C256.692 367.987 257.164 368.118 257.78 368.118C258.592 368.118 259.217 367.787 259.656 367.124C260.094 366.461 260.323 365.467 260.342 364.142C260.09 364.562 259.74 364.889 259.292 365.122C258.844 365.355 258.33 365.472 257.752 365.472C256.781 365.472 255.988 365.164 255.372 364.548C254.765 363.932 254.462 363.148 254.462 362.196C254.462 361.188 254.774 360.381 255.4 359.774C256.025 359.158 256.865 358.85 257.92 358.85C259.105 358.85 260.001 359.233 260.608 359.998C261.214 360.763 261.518 361.874 261.518 363.33V363.96C261.518 365.631 261.191 366.909 260.538 367.796C259.894 368.673 258.965 369.112 257.752 369.112ZM257.934 364.52C258.606 364.52 259.156 364.319 259.586 363.918C260.015 363.517 260.23 362.994 260.23 362.35C260.23 361.547 260.015 360.922 259.586 360.474C259.166 360.026 258.61 359.802 257.92 359.802C257.266 359.802 256.734 360.017 256.324 360.446C255.913 360.875 255.708 361.44 255.708 362.14C255.708 362.868 255.908 363.447 256.31 363.876C256.711 364.305 257.252 364.52 257.934 364.52Z" fill="white"/>
<path opacity="0.6" d="M165.696 350.28C166.32 350.28 166.816 350.064 167.184 349.632C167.56 349.2 167.748 348.628 167.748 347.916V347.832C167.748 347.104 167.56 346.524 167.184 346.092C166.816 345.66 166.32 345.444 165.696 345.444C165.064 345.444 164.564 345.66 164.196 346.092C163.828 346.524 163.644 347.1 163.644 347.82V347.916C163.644 348.644 163.824 349.22 164.184 349.644C164.552 350.068 165.056 350.28 165.696 350.28ZM165.684 351.108C164.796 351.108 164.06 350.808 163.476 350.208C162.9 349.6 162.612 348.836 162.612 347.916V347.82C162.612 346.884 162.9 346.116 163.476 345.516C164.06 344.916 164.8 344.616 165.696 344.616C166.592 344.616 167.328 344.916 167.904 345.516C168.488 346.108 168.78 346.872 168.78 347.808V347.904C168.78 348.848 168.488 349.62 167.904 350.22C167.32 350.812 166.58 351.108 165.684 351.108ZM171.366 347.796V351H170.37V344.724H171.366V347.652L173.97 344.724H175.134L172.446 347.676L175.362 351H174.15L171.366 347.796ZM181.082 345.564H179.054V351H178.058V345.564H176.03V344.724H181.082V345.564ZM184.663 345.516C183.767 345.516 183.319 345.896 183.319 346.656V346.692C183.319 347.052 183.423 347.324 183.631 347.508C183.839 347.692 184.183 347.784 184.663 347.784H185.839V345.516H184.663ZM183.007 351H181.867L183.775 348.372C182.807 348.172 182.323 347.612 182.323 346.692V346.656C182.323 346 182.547 345.516 182.995 345.204C183.443 344.884 184.019 344.724 184.723 344.724H186.835V351H185.839V348.54H184.759L183.007 351ZM191.676 351.108C190.732 351.108 189.984 350.804 189.432 350.196C188.88 349.588 188.604 348.664 188.604 347.424V347.04C188.604 346.448 188.628 345.924 188.676 345.468C188.724 345.004 188.824 344.54 188.976 344.076C189.128 343.604 189.328 343.212 189.576 342.9C189.824 342.588 190.16 342.328 190.584 342.12C191.016 341.912 191.524 341.792 192.108 341.76L192.348 341.748C193.228 341.7 193.824 341.612 194.136 341.484L194.268 342.324C193.86 342.5 193.224 342.608 192.36 342.648L192.18 342.66C191.212 342.708 190.52 343.024 190.104 343.608C189.696 344.184 189.456 345.08 189.384 346.296H189.432C189.648 345.856 189.968 345.508 190.392 345.252C190.824 344.988 191.324 344.856 191.892 344.856C192.764 344.856 193.46 345.14 193.98 345.708C194.508 346.268 194.772 346.996 194.772 347.892V347.94C194.772 348.908 194.48 349.68 193.896 350.256C193.32 350.824 192.58 351.108 191.676 351.108ZM190.176 349.668C190.544 350.076 191.048 350.28 191.688 350.28C192.328 350.28 192.828 350.08 193.188 349.68C193.556 349.272 193.74 348.696 193.74 347.952V347.928C193.74 347.232 193.572 346.684 193.236 346.284C192.908 345.884 192.428 345.684 191.796 345.684C191.132 345.684 190.604 345.892 190.212 346.308C189.828 346.724 189.636 347.292 189.636 348.012V348.036C189.636 348.716 189.816 349.26 190.176 349.668ZM196.516 344.724H197.512V345.78C197.696 345.46 197.984 345.188 198.376 344.964C198.768 344.732 199.188 344.616 199.636 344.616C200.476 344.616 201.16 344.9 201.688 345.468C202.224 346.036 202.492 346.804 202.492 347.772V347.868C202.492 348.836 202.228 349.62 201.7 350.22C201.18 350.812 200.492 351.108 199.636 351.108C198.676 351.108 197.968 350.728 197.512 349.968V353.184H196.516V344.724ZM199.54 350.28C200.164 350.28 200.64 350.08 200.968 349.68C201.296 349.272 201.46 348.684 201.46 347.916V347.82C201.46 347.06 201.276 346.476 200.908 346.068C200.548 345.652 200.088 345.444 199.528 345.444C198.92 345.444 198.424 345.648 198.04 346.056C197.664 346.456 197.476 347.044 197.476 347.82V347.916C197.476 348.692 197.66 349.28 198.028 349.68C198.404 350.08 198.908 350.28 199.54 350.28ZM204.087 344.724H205.083V346.92H206.199C206.903 346.92 207.479 347.092 207.927 347.436C208.375 347.78 208.599 348.292 208.599 348.972V349.008C208.599 349.696 208.375 350.2 207.927 350.52C207.487 350.84 206.911 351 206.199 351H204.087V344.724ZM206.259 350.22C206.739 350.22 207.083 350.12 207.291 349.92C207.499 349.712 207.603 349.408 207.603 349.008V348.972C207.603 348.54 207.495 348.224 207.279 348.024C207.071 347.816 206.731 347.712 206.259 347.712H205.083V350.22H206.259Z" fill="white"/>
<path d="M162.35 368.72L166.326 364.534C167.287 363.517 167.768 362.551 167.768 361.636C167.768 361.076 167.609 360.637 167.292 360.32C166.984 360.003 166.545 359.844 165.976 359.844C164.763 359.844 164.058 360.586 163.862 362.07H162.728C162.803 361.081 163.125 360.301 163.694 359.732C164.273 359.153 165.033 358.864 165.976 358.864C166.9 358.864 167.633 359.121 168.174 359.634C168.725 360.138 169 360.819 169 361.678C169 362.779 168.328 363.993 166.984 365.318L164.226 368.006H169.056V369H162.35V368.72ZM174.901 368.118C176.665 368.118 177.547 366.825 177.547 364.24V363.68C177.547 362.513 177.309 361.585 176.833 360.894C176.357 360.194 175.704 359.844 174.873 359.844C174.024 359.844 173.361 360.18 172.885 360.852C172.409 361.524 172.171 362.476 172.171 363.708V364.268C172.171 365.509 172.414 366.461 172.899 367.124C173.385 367.787 174.052 368.118 174.901 368.118ZM174.901 369.126C173.707 369.126 172.745 368.683 172.017 367.796C171.289 366.909 170.925 365.738 170.925 364.282V363.722C170.925 362.238 171.275 361.057 171.975 360.18C172.685 359.303 173.651 358.864 174.873 358.864C176.087 358.864 177.039 359.307 177.729 360.194C178.429 361.081 178.779 362.247 178.779 363.694V364.254C178.779 365.729 178.434 366.909 177.743 367.796C177.062 368.683 176.115 369.126 174.901 369.126ZM182.634 360.194L180.394 361.804V360.67L182.718 358.99H183.852V369H182.634V360.194ZM190.084 369.126C189.515 369.126 188.974 369.023 188.46 368.818C187.947 368.603 187.513 368.263 187.158 367.796C186.804 367.329 186.626 366.783 186.626 366.158C186.626 365.514 186.799 364.973 187.144 364.534C187.49 364.095 187.947 363.773 188.516 363.568C187.508 363.167 187.004 362.467 187.004 361.468C187.004 360.703 187.312 360.077 187.928 359.592C188.554 359.107 189.272 358.864 190.084 358.864C190.896 358.864 191.61 359.107 192.226 359.592C192.842 360.068 193.15 360.684 193.15 361.44C193.15 362.401 192.637 363.106 191.61 363.554C192.889 364.03 193.528 364.889 193.528 366.13C193.528 367.073 193.183 367.81 192.492 368.342C191.811 368.865 191.008 369.126 190.084 369.126ZM190.084 368.132C190.728 368.132 191.256 367.955 191.666 367.6C192.077 367.236 192.282 366.732 192.282 366.088C192.282 365.463 192.072 364.977 191.652 364.632C191.242 364.277 190.728 364.1 190.112 364.1C189.478 364.1 188.946 364.277 188.516 364.632C188.087 364.977 187.872 365.472 187.872 366.116C187.872 366.741 188.087 367.236 188.516 367.6C188.946 367.955 189.468 368.132 190.084 368.132ZM190.126 363.134C190.668 363.134 191.102 362.985 191.428 362.686C191.755 362.387 191.918 361.977 191.918 361.454C191.918 360.978 191.746 360.586 191.4 360.278C191.055 359.97 190.616 359.816 190.084 359.816C189.543 359.816 189.1 359.965 188.754 360.264C188.409 360.563 188.236 360.969 188.236 361.482C188.236 361.986 188.418 362.387 188.782 362.686C189.146 362.985 189.594 363.134 190.126 363.134Z" fill="white"/>
<path opacity="0.6" d="M103.008 351V344.724H104.004V349.56L107.208 344.724H108.204V351H107.208V346.164L104.004 351H103.008ZM115.102 351.108C114.302 351.108 113.638 350.86 113.11 350.364C112.59 349.868 112.282 349.216 112.186 348.408C112.17 348.296 112.162 348.228 112.162 348.204H111.214V351H110.218V344.724H111.214V347.364H112.174C112.27 346.532 112.578 345.868 113.098 345.372C113.626 344.868 114.298 344.616 115.114 344.616C116.002 344.616 116.718 344.912 117.262 345.504C117.806 346.096 118.078 346.864 118.078 347.808V347.904C118.078 348.856 117.802 349.628 117.25 350.22C116.706 350.812 115.99 351.108 115.102 351.108ZM115.114 350.28C115.73 350.28 116.206 350.068 116.542 349.644C116.878 349.22 117.046 348.644 117.046 347.916V347.832C117.046 347.096 116.878 346.516 116.542 346.092C116.206 345.66 115.73 345.444 115.114 345.444C114.49 345.444 114.01 345.656 113.674 346.08C113.346 346.504 113.182 347.084 113.182 347.82V347.916C113.182 348.652 113.346 349.232 113.674 349.656C114.002 350.072 114.482 350.28 115.114 350.28ZM120.889 348.576C120.817 349.44 120.665 350.072 120.433 350.472C120.201 350.864 119.837 351.06 119.341 351.06C119.237 351.06 119.129 351.052 119.017 351.036L118.921 351V350.052L119.005 350.076C119.085 350.092 119.169 350.1 119.257 350.1C119.385 350.1 119.489 350.064 119.569 349.992C119.657 349.912 119.725 349.788 119.773 349.62C119.829 349.452 119.869 349.296 119.893 349.152C119.917 349 119.945 348.788 119.977 348.516C120.009 348.228 120.057 347.412 120.121 346.068L120.157 344.724H124.297V351H123.301V345.564H121.045C120.973 347.292 120.921 348.296 120.889 348.576ZM126.431 344.724H127.427V346.92H128.543C129.247 346.92 129.823 347.092 130.271 347.436C130.719 347.78 130.943 348.292 130.943 348.972V349.008C130.943 349.696 130.719 350.2 130.271 350.52C129.831 350.84 129.255 351 128.543 351H126.431V344.724ZM128.603 350.22C129.083 350.22 129.427 350.12 129.635 349.92C129.843 349.712 129.947 349.408 129.947 349.008V348.972C129.947 348.54 129.839 348.224 129.623 348.024C129.415 347.816 129.075 347.712 128.603 347.712H127.427V350.22H128.603Z" fill="white"/>
<path d="M102.35 368.72L106.326 364.534C107.287 363.517 107.768 362.551 107.768 361.636C107.768 361.076 107.609 360.637 107.292 360.32C106.984 360.003 106.545 359.844 105.976 359.844C104.763 359.844 104.058 360.586 103.862 362.07H102.728C102.803 361.081 103.125 360.301 103.694 359.732C104.273 359.153 105.033 358.864 105.976 358.864C106.9 358.864 107.633 359.121 108.174 359.634C108.725 360.138 109 360.819 109 361.678C109 362.779 108.328 363.993 106.984 365.318L104.226 368.006H109.056V369H102.35V368.72ZM114.901 368.118C116.665 368.118 117.547 366.825 117.547 364.24V363.68C117.547 362.513 117.309 361.585 116.833 360.894C116.357 360.194 115.704 359.844 114.873 359.844C114.024 359.844 113.361 360.18 112.885 360.852C112.409 361.524 112.171 362.476 112.171 363.708V364.268C112.171 365.509 112.414 366.461 112.899 367.124C113.385 367.787 114.052 368.118 114.901 368.118ZM114.901 369.126C113.707 369.126 112.745 368.683 112.017 367.796C111.289 366.909 110.925 365.738 110.925 364.282V363.722C110.925 362.238 111.275 361.057 111.975 360.18C112.685 359.303 113.651 358.864 114.873 358.864C116.087 358.864 117.039 359.307 117.729 360.194C118.429 361.081 118.779 362.247 118.779 363.694V364.254C118.779 365.729 118.434 366.909 117.743 367.796C117.062 368.683 116.115 369.126 114.901 369.126ZM122.634 360.194L120.394 361.804V360.67L122.718 358.99H123.852V369H122.634V360.194ZM130.084 369.126C129.515 369.126 128.974 369.023 128.46 368.818C127.947 368.603 127.513 368.263 127.158 367.796C126.804 367.329 126.626 366.783 126.626 366.158C126.626 365.514 126.799 364.973 127.144 364.534C127.49 364.095 127.947 363.773 128.516 363.568C127.508 363.167 127.004 362.467 127.004 361.468C127.004 360.703 127.312 360.077 127.928 359.592C128.554 359.107 129.272 358.864 130.084 358.864C130.896 358.864 131.61 359.107 132.226 359.592C132.842 360.068 133.15 360.684 133.15 361.44C133.15 362.401 132.637 363.106 131.61 363.554C132.889 364.03 133.528 364.889 133.528 366.13C133.528 367.073 133.183 367.81 132.492 368.342C131.811 368.865 131.008 369.126 130.084 369.126ZM130.084 368.132C130.728 368.132 131.256 367.955 131.666 367.6C132.077 367.236 132.282 366.732 132.282 366.088C132.282 365.463 132.072 364.977 131.652 364.632C131.242 364.277 130.728 364.1 130.112 364.1C129.478 364.1 128.946 364.277 128.516 364.632C128.087 364.977 127.872 365.472 127.872 366.116C127.872 366.741 128.087 367.236 128.516 367.6C128.946 367.955 129.468 368.132 130.084 368.132ZM130.126 363.134C130.668 363.134 131.102 362.985 131.428 362.686C131.755 362.387 131.918 361.977 131.918 361.454C131.918 360.978 131.746 360.586 131.4 360.278C131.055 359.97 130.616 359.816 130.084 359.816C129.543 359.816 129.1 359.965 128.754 360.264C128.409 360.563 128.236 360.969 128.236 361.482C128.236 361.986 128.418 362.387 128.782 362.686C129.146 362.985 129.594 363.134 130.126 363.134Z" fill="white"/>
<path opacity="0.6" d="M294.652 351.108C294.036 351.108 293.532 350.956 293.14 350.652C292.756 350.34 292.564 349.876 292.564 349.26C292.564 348.916 292.648 348.616 292.816 348.36C292.992 348.096 293.232 347.892 293.536 347.748C293.84 347.596 294.172 347.488 294.532 347.424C294.892 347.352 295.284 347.316 295.708 347.316H296.608V346.86C296.608 346.356 296.504 345.996 296.296 345.78C296.088 345.556 295.744 345.444 295.264 345.444C294.4 345.444 293.92 345.82 293.824 346.572H292.828C292.892 345.9 293.152 345.408 293.608 345.096C294.072 344.776 294.64 344.616 295.312 344.616C296.84 344.616 297.604 345.364 297.604 346.86V351H296.608V350.208C296.128 350.808 295.476 351.108 294.652 351.108ZM294.748 350.316C295.292 350.316 295.736 350.184 296.08 349.92C296.432 349.648 296.608 349.276 296.608 348.804V348.024H295.744C294.288 348.024 293.56 348.436 293.56 349.26C293.56 349.964 293.956 350.316 294.748 350.316ZM303.568 345.564H300.604V351H299.608V344.724H304.564V351H303.568V345.564ZM306.773 344.724H307.769V345.78C307.953 345.46 308.241 345.188 308.633 344.964C309.025 344.732 309.445 344.616 309.893 344.616C310.733 344.616 311.417 344.9 311.945 345.468C312.481 346.036 312.749 346.804 312.749 347.772V347.868C312.749 348.836 312.485 349.62 311.957 350.22C311.437 350.812 310.749 351.108 309.893 351.108C308.933 351.108 308.225 350.728 307.769 349.968V353.184H306.773V344.724ZM309.797 350.28C310.421 350.28 310.897 350.08 311.225 349.68C311.553 349.272 311.717 348.684 311.717 347.916V347.82C311.717 347.06 311.533 346.476 311.165 346.068C310.805 345.652 310.345 345.444 309.785 345.444C309.177 345.444 308.681 345.648 308.297 346.056C307.921 346.456 307.733 347.044 307.733 347.82V347.916C307.733 348.692 307.917 349.28 308.285 349.68C308.661 350.08 309.165 350.28 309.797 350.28ZM316.985 351.108C316.089 351.108 315.357 350.816 314.789 350.232C314.229 349.648 313.949 348.88 313.949 347.928V347.832C313.949 346.888 314.221 346.116 314.765 345.516C315.317 344.916 316.025 344.616 316.889 344.616C317.689 344.616 318.357 344.876 318.893 345.396C319.437 345.908 319.709 346.688 319.709 347.736V348.06H314.981C315.029 349.54 315.701 350.28 316.997 350.28C317.981 350.28 318.537 349.916 318.665 349.188H319.661C319.549 349.812 319.257 350.288 318.785 350.616C318.313 350.944 317.713 351.108 316.985 351.108ZM318.689 347.256C318.601 346.048 318.001 345.444 316.889 345.444C316.385 345.444 315.969 345.604 315.641 345.924C315.313 346.244 315.105 346.688 315.017 347.256H318.689ZM322.543 348.576C322.471 349.44 322.319 350.072 322.087 350.472C321.855 350.864 321.491 351.06 320.995 351.06C320.891 351.06 320.783 351.052 320.671 351.036L320.575 351V350.052L320.659 350.076C320.739 350.092 320.823 350.1 320.911 350.1C321.039 350.1 321.143 350.064 321.223 349.992C321.311 349.912 321.379 349.788 321.427 349.62C321.483 349.452 321.523 349.296 321.547 349.152C321.571 349 321.599 348.788 321.631 348.516C321.663 348.228 321.711 347.412 321.775 346.068L321.811 344.724H325.951V351H324.955V345.564H322.699C322.627 347.292 322.575 348.296 322.543 348.576ZM328.085 344.724H329.081V346.92H330.197C330.901 346.92 331.477 347.092 331.925 347.436C332.373 347.78 332.597 348.292 332.597 348.972V349.008C332.597 349.696 332.373 350.2 331.925 350.52C331.485 350.84 330.909 351 330.197 351H328.085V344.724ZM330.257 350.22C330.737 350.22 331.081 350.12 331.289 349.92C331.497 349.712 331.601 349.408 331.601 349.008V348.972C331.601 348.54 331.493 348.224 331.277 348.024C331.069 347.816 330.729 347.712 330.257 347.712H329.081V350.22H330.257Z" fill="white"/>
<path d="M292.35 368.72L296.326 364.534C297.287 363.517 297.768 362.551 297.768 361.636C297.768 361.076 297.609 360.637 297.292 360.32C296.984 360.003 296.545 359.844 295.976 359.844C294.763 359.844 294.058 360.586 293.862 362.07H292.728C292.803 361.081 293.125 360.301 293.694 359.732C294.273 359.153 295.033 358.864 295.976 358.864C296.9 358.864 297.633 359.121 298.174 359.634C298.725 360.138 299 360.819 299 361.678C299 362.779 298.328 363.993 296.984 365.318L294.226 368.006H299.056V369H292.35V368.72ZM304.901 368.118C306.665 368.118 307.547 366.825 307.547 364.24V363.68C307.547 362.513 307.309 361.585 306.833 360.894C306.357 360.194 305.704 359.844 304.873 359.844C304.024 359.844 303.361 360.18 302.885 360.852C302.409 361.524 302.171 362.476 302.171 363.708V364.268C302.171 365.509 302.414 366.461 302.899 367.124C303.385 367.787 304.052 368.118 304.901 368.118ZM304.901 369.126C303.707 369.126 302.745 368.683 302.017 367.796C301.289 366.909 300.925 365.738 300.925 364.282V363.722C300.925 362.238 301.275 361.057 301.975 360.18C302.685 359.303 303.651 358.864 304.873 358.864C306.087 358.864 307.039 359.307 307.729 360.194C308.429 361.081 308.779 362.247 308.779 363.694V364.254C308.779 365.729 308.434 366.909 307.743 367.796C307.062 368.683 306.115 369.126 304.901 369.126ZM312.634 360.194L310.394 361.804V360.67L312.718 358.99H313.852V369H312.634V360.194ZM319.752 369.112C318.837 369.112 318.104 368.888 317.554 368.44C317.003 367.992 316.662 367.357 316.532 366.536H317.708C317.829 367.059 318.048 367.455 318.366 367.726C318.692 367.987 319.164 368.118 319.78 368.118C320.592 368.118 321.217 367.787 321.656 367.124C322.094 366.461 322.323 365.467 322.342 364.142C322.09 364.562 321.74 364.889 321.292 365.122C320.844 365.355 320.33 365.472 319.752 365.472C318.781 365.472 317.988 365.164 317.372 364.548C316.765 363.932 316.462 363.148 316.462 362.196C316.462 361.188 316.774 360.381 317.4 359.774C318.025 359.158 318.865 358.85 319.92 358.85C321.105 358.85 322.001 359.233 322.608 359.998C323.214 360.763 323.518 361.874 323.518 363.33V363.96C323.518 365.631 323.191 366.909 322.538 367.796C321.894 368.673 320.965 369.112 319.752 369.112ZM319.934 364.52C320.606 364.52 321.156 364.319 321.586 363.918C322.015 363.517 322.23 362.994 322.23 362.35C322.23 361.547 322.015 360.922 321.586 360.474C321.166 360.026 320.61 359.802 319.92 359.802C319.266 359.802 318.734 360.017 318.324 360.446C317.913 360.875 317.708 361.44 317.708 362.14C317.708 362.868 317.908 363.447 318.31 363.876C318.711 364.305 319.252 364.52 319.934 364.52Z" fill="white"/>
<path opacity="0.6" d="M359.74 344.628C360.676 344.676 361.444 344.976 362.044 345.528C362.652 346.08 362.956 346.84 362.956 347.808V347.904C362.956 348.88 362.656 349.644 362.056 350.196C361.456 350.748 360.684 351.048 359.74 351.096V353.184H358.756V351.096C357.82 351.048 357.048 350.748 356.44 350.196C355.84 349.644 355.54 348.884 355.54 347.916V347.82C355.54 346.844 355.84 346.08 356.44 345.528C357.04 344.976 357.812 344.676 358.756 344.628V341.724H359.74V344.628ZM358.756 345.384C358.108 345.416 357.58 345.644 357.172 346.068C356.764 346.484 356.56 347.064 356.56 347.808V347.892C356.56 348.652 356.764 349.244 357.172 349.668C357.58 350.092 358.108 350.312 358.756 350.328V345.384ZM359.74 350.34C360.388 350.324 360.916 350.104 361.324 349.68C361.732 349.248 361.936 348.66 361.936 347.916V347.832C361.936 347.064 361.732 346.476 361.324 346.068C360.924 345.652 360.396 345.428 359.74 345.396V350.34ZM367.264 351.108C366.368 351.108 365.636 350.816 365.068 350.232C364.508 349.648 364.228 348.88 364.228 347.928V347.832C364.228 346.888 364.5 346.116 365.044 345.516C365.596 344.916 366.304 344.616 367.168 344.616C367.968 344.616 368.636 344.876 369.172 345.396C369.716 345.908 369.988 346.688 369.988 347.736V348.06H365.26C365.308 349.54 365.98 350.28 367.276 350.28C368.26 350.28 368.816 349.916 368.944 349.188H369.94C369.828 349.812 369.536 350.288 369.064 350.616C368.592 350.944 367.992 351.108 367.264 351.108ZM368.968 347.256C368.88 346.048 368.28 345.444 367.168 345.444C366.664 345.444 366.248 345.604 365.92 345.924C365.592 346.244 365.384 346.688 365.296 347.256H368.968ZM371.564 344.724H373.76C375.232 344.724 375.968 345.256 375.968 346.32V346.356C375.968 346.66 375.884 346.94 375.716 347.196C375.548 347.444 375.296 347.612 374.96 347.7C375.832 347.892 376.268 348.364 376.268 349.116V349.152C376.268 349.76 376.068 350.22 375.668 350.532C375.276 350.844 374.728 351 374.024 351H371.564V344.724ZM372.56 345.516V347.376H373.76C374.176 347.376 374.472 347.3 374.648 347.148C374.832 346.996 374.924 346.748 374.924 346.404V346.368C374.924 346.048 374.828 345.828 374.636 345.708C374.452 345.58 374.156 345.516 373.748 345.516H372.56ZM372.56 348.168V350.208H373.928C374.368 350.208 374.692 350.132 374.9 349.98C375.116 349.82 375.224 349.564 375.224 349.212V349.176C375.224 348.824 375.116 348.568 374.9 348.408C374.692 348.248 374.368 348.168 373.928 348.168H372.56ZM378.049 344.724H379.045V345.78C379.229 345.46 379.517 345.188 379.909 344.964C380.301 344.732 380.721 344.616 381.169 344.616C382.009 344.616 382.693 344.9 383.221 345.468C383.757 346.036 384.025 346.804 384.025 347.772V347.868C384.025 348.836 383.761 349.62 383.233 350.22C382.713 350.812 382.025 351.108 381.169 351.108C380.209 351.108 379.501 350.728 379.045 349.968V353.184H378.049V344.724ZM381.073 350.28C381.697 350.28 382.173 350.08 382.501 349.68C382.829 349.272 382.993 348.684 382.993 347.916V347.82C382.993 347.06 382.809 346.476 382.441 346.068C382.081 345.652 381.621 345.444 381.061 345.444C380.453 345.444 379.957 345.648 379.573 346.056C379.197 346.456 379.009 347.044 379.009 347.82V347.916C379.009 348.692 379.193 349.28 379.561 349.68C379.937 350.08 380.441 350.28 381.073 350.28ZM387.265 351.108C386.649 351.108 386.145 350.956 385.753 350.652C385.369 350.34 385.177 349.876 385.177 349.26C385.177 348.916 385.261 348.616 385.429 348.36C385.605 348.096 385.845 347.892 386.149 347.748C386.453 347.596 386.785 347.488 387.145 347.424C387.505 347.352 387.897 347.316 388.321 347.316H389.221V346.86C389.221 346.356 389.117 345.996 388.909 345.78C388.701 345.556 388.357 345.444 387.877 345.444C387.013 345.444 386.533 345.82 386.437 346.572H385.441C385.505 345.9 385.765 345.408 386.221 345.096C386.685 344.776 387.253 344.616 387.925 344.616C389.453 344.616 390.217 345.364 390.217 346.86V351H389.221V350.208C388.741 350.808 388.089 351.108 387.265 351.108ZM387.361 350.316C387.905 350.316 388.349 350.184 388.693 349.92C389.045 349.648 389.221 349.276 389.221 348.804V348.024H388.357C386.901 348.024 386.173 348.436 386.173 349.26C386.173 349.964 386.569 350.316 387.361 350.316ZM393.421 348.576C393.349 349.44 393.197 350.072 392.965 350.472C392.733 350.864 392.369 351.06 391.873 351.06C391.769 351.06 391.661 351.052 391.549 351.036L391.453 351V350.052L391.537 350.076C391.617 350.092 391.701 350.1 391.789 350.1C391.917 350.1 392.021 350.064 392.101 349.992C392.189 349.912 392.257 349.788 392.305 349.62C392.361 349.452 392.401 349.296 392.425 349.152C392.449 349 392.477 348.788 392.509 348.516C392.541 348.228 392.589 347.412 392.653 346.068L392.689 344.724H396.829V351H395.833V345.564H393.577C393.505 347.292 393.453 348.296 393.421 348.576ZM398.962 344.724H399.958V346.92H401.074C401.778 346.92 402.354 347.092 402.802 347.436C403.25 347.78 403.474 348.292 403.474 348.972V349.008C403.474 349.696 403.25 350.2 402.802 350.52C402.362 350.84 401.786 351 401.074 351H398.962V344.724ZM401.134 350.22C401.614 350.22 401.958 350.12 402.166 349.92C402.374 349.712 402.478 349.408 402.478 349.008V348.972C402.478 348.54 402.37 348.224 402.154 348.024C401.946 347.816 401.606 347.712 401.134 347.712H399.958V350.22H401.134Z" fill="white"/>
<path d="M355.35 368.72L359.326 364.534C360.287 363.517 360.768 362.551 360.768 361.636C360.768 361.076 360.609 360.637 360.292 360.32C359.984 360.003 359.545 359.844 358.976 359.844C357.763 359.844 357.058 360.586 356.862 362.07H355.728C355.803 361.081 356.125 360.301 356.694 359.732C357.273 359.153 358.033 358.864 358.976 358.864C359.9 358.864 360.633 359.121 361.174 359.634C361.725 360.138 362 360.819 362 361.678C362 362.779 361.328 363.993 359.984 365.318L357.226 368.006H362.056V369H355.35V368.72ZM367.901 368.118C369.665 368.118 370.547 366.825 370.547 364.24V363.68C370.547 362.513 370.309 361.585 369.833 360.894C369.357 360.194 368.704 359.844 367.873 359.844C367.024 359.844 366.361 360.18 365.885 360.852C365.409 361.524 365.171 362.476 365.171 363.708V364.268C365.171 365.509 365.414 366.461 365.899 367.124C366.385 367.787 367.052 368.118 367.901 368.118ZM367.901 369.126C366.707 369.126 365.745 368.683 365.017 367.796C364.289 366.909 363.925 365.738 363.925 364.282V363.722C363.925 362.238 364.275 361.057 364.975 360.18C365.685 359.303 366.651 358.864 367.873 358.864C369.087 358.864 370.039 359.307 370.729 360.194C371.429 361.081 371.779 362.247 371.779 363.694V364.254C371.779 365.729 371.434 366.909 370.743 367.796C370.062 368.683 369.115 369.126 367.901 369.126ZM373.198 368.72L377.174 364.534C378.136 363.517 378.616 362.551 378.616 361.636C378.616 361.076 378.458 360.637 378.14 360.32C377.832 360.003 377.394 359.844 376.824 359.844C375.611 359.844 374.906 360.586 374.71 362.07H373.576C373.651 361.081 373.973 360.301 374.542 359.732C375.121 359.153 375.882 358.864 376.824 358.864C377.748 358.864 378.481 359.121 379.022 359.634C379.573 360.138 379.848 360.819 379.848 361.678C379.848 362.779 379.176 363.993 377.832 365.318L375.074 368.006H379.904V369H373.198V368.72ZM385.75 368.118C387.514 368.118 388.396 366.825 388.396 364.24V363.68C388.396 362.513 388.158 361.585 387.682 360.894C387.206 360.194 386.552 359.844 385.722 359.844C384.872 359.844 384.21 360.18 383.734 360.852C383.258 361.524 383.02 362.476 383.02 363.708V364.268C383.02 365.509 383.262 366.461 383.748 367.124C384.233 367.787 384.9 368.118 385.75 368.118ZM385.75 369.126C384.555 369.126 383.594 368.683 382.866 367.796C382.138 366.909 381.774 365.738 381.774 364.282V363.722C381.774 362.238 382.124 361.057 382.824 360.18C383.533 359.303 384.499 358.864 385.722 358.864C386.935 358.864 387.887 359.307 388.578 360.194C389.278 361.081 389.628 362.247 389.628 363.694V364.254C389.628 365.729 389.282 366.909 388.592 367.796C387.91 368.683 386.963 369.126 385.75 369.126Z" fill="white"/>
<path opacity="0.6" d="M423.848 345.708V351H423.02V344.724H424.424L426.212 349.44L428.048 344.724H429.416V351H428.432V345.708L426.356 351H425.9L423.848 345.708ZM433.21 351.108C432.594 351.108 432.089 350.956 431.697 350.652C431.313 350.34 431.121 349.876 431.121 349.26C431.121 348.916 431.205 348.616 431.373 348.36C431.549 348.096 431.789 347.892 432.093 347.748C432.397 347.596 432.729 347.488 433.09 347.424C433.45 347.352 433.842 347.316 434.266 347.316H435.165V346.86C435.165 346.356 435.061 345.996 434.854 345.78C434.646 345.556 434.302 345.444 433.822 345.444C432.957 345.444 432.477 345.82 432.382 346.572H431.385C431.449 345.9 431.709 345.408 432.165 345.096C432.629 344.776 433.197 344.616 433.87 344.616C435.398 344.616 436.161 345.364 436.161 346.86V351H435.165V350.208C434.685 350.808 434.033 351.108 433.21 351.108ZM433.306 350.316C433.85 350.316 434.294 350.184 434.637 349.92C434.989 349.648 435.165 349.276 435.165 348.804V348.024H434.301C432.845 348.024 432.118 348.436 432.118 349.26C432.118 349.964 432.514 350.316 433.306 350.316ZM440.746 343.572C440.314 343.572 439.946 343.424 439.642 343.128C439.338 342.824 439.178 342.444 439.162 341.988H440.026C440.074 342.58 440.314 342.876 440.746 342.876C441.218 342.876 441.482 342.58 441.538 341.988H442.378C442.346 342.444 442.174 342.824 441.862 343.128C441.558 343.424 441.186 343.572 440.746 343.572ZM438.166 351V344.724H439.162V349.56L442.366 344.724H443.362V351H442.366V346.164L439.162 351H438.166Z" fill="white"/>
<path d="M422.35 368.72L426.326 364.534C427.287 363.517 427.768 362.551 427.768 361.636C427.768 361.076 427.609 360.637 427.292 360.32C426.984 360.003 426.545 359.844 425.976 359.844C424.763 359.844 424.058 360.586 423.862 362.07H422.728C422.803 361.081 423.125 360.301 423.694 359.732C424.273 359.153 425.033 358.864 425.976 358.864C426.9 358.864 427.633 359.121 428.174 359.634C428.725 360.138 429 360.819 429 361.678C429 362.779 428.328 363.993 426.984 365.318L424.226 368.006H429.056V369H422.35V368.72ZM434.901 368.118C436.665 368.118 437.547 366.825 437.547 364.24V363.68C437.547 362.513 437.309 361.585 436.833 360.894C436.357 360.194 435.704 359.844 434.873 359.844C434.024 359.844 433.361 360.18 432.885 360.852C432.409 361.524 432.171 362.476 432.171 363.708V364.268C432.171 365.509 432.414 366.461 432.899 367.124C433.385 367.787 434.052 368.118 434.901 368.118ZM434.901 369.126C433.707 369.126 432.745 368.683 432.017 367.796C431.289 366.909 430.925 365.738 430.925 364.282V363.722C430.925 362.238 431.275 361.057 431.975 360.18C432.685 359.303 433.651 358.864 434.873 358.864C436.087 358.864 437.039 359.307 437.729 360.194C438.429 361.081 438.779 362.247 438.779 363.694V364.254C438.779 365.729 438.434 366.909 437.743 367.796C437.062 368.683 436.115 369.126 434.901 369.126ZM440.198 368.72L444.174 364.534C445.136 363.517 445.616 362.551 445.616 361.636C445.616 361.076 445.458 360.637 445.14 360.32C444.832 360.003 444.394 359.844 443.824 359.844C442.611 359.844 441.906 360.586 441.71 362.07H440.576C440.651 361.081 440.973 360.301 441.542 359.732C442.121 359.153 442.882 358.864 443.824 358.864C444.748 358.864 445.481 359.121 446.022 359.634C446.573 360.138 446.848 360.819 446.848 361.678C446.848 362.779 446.176 363.993 444.832 365.318L442.074 368.006H446.904V369H440.198V368.72ZM452.75 368.118C454.514 368.118 455.396 366.825 455.396 364.24V363.68C455.396 362.513 455.158 361.585 454.682 360.894C454.206 360.194 453.552 359.844 452.722 359.844C451.872 359.844 451.21 360.18 450.734 360.852C450.258 361.524 450.02 362.476 450.02 363.708V364.268C450.02 365.509 450.262 366.461 450.748 367.124C451.233 367.787 451.9 368.118 452.75 368.118ZM452.75 369.126C451.555 369.126 450.594 368.683 449.866 367.796C449.138 366.909 448.774 365.738 448.774 364.282V363.722C448.774 362.238 449.124 361.057 449.824 360.18C450.533 359.303 451.499 358.864 452.722 358.864C453.935 358.864 454.887 359.307 455.578 360.194C456.278 361.081 456.628 362.247 456.628 363.694V364.254C456.628 365.729 456.282 366.909 455.592 367.796C454.91 368.683 453.963 369.126 452.75 369.126Z" fill="white"/>
<path opacity="0.6" d="M481.008 351V344.724H482.004V349.56L485.208 344.724H486.204V351H485.208V346.164L482.004 351H481.008ZM493.102 351.108C492.302 351.108 491.638 350.86 491.11 350.364C490.59 349.868 490.282 349.216 490.186 348.408C490.17 348.296 490.162 348.228 490.162 348.204H489.214V351H488.218V344.724H489.214V347.364H490.174C490.27 346.532 490.578 345.868 491.098 345.372C491.626 344.868 492.298 344.616 493.114 344.616C494.002 344.616 494.718 344.912 495.262 345.504C495.806 346.096 496.078 346.864 496.078 347.808V347.904C496.078 348.856 495.802 349.628 495.25 350.22C494.706 350.812 493.99 351.108 493.102 351.108ZM493.114 350.28C493.73 350.28 494.206 350.068 494.542 349.644C494.878 349.22 495.046 348.644 495.046 347.916V347.832C495.046 347.096 494.878 346.516 494.542 346.092C494.206 345.66 493.73 345.444 493.114 345.444C492.49 345.444 492.01 345.656 491.674 346.08C491.346 346.504 491.182 347.084 491.182 347.82V347.916C491.182 348.652 491.346 349.232 491.674 349.656C492.002 350.072 492.482 350.28 493.114 350.28ZM498.889 348.576C498.817 349.44 498.665 350.072 498.433 350.472C498.201 350.864 497.837 351.06 497.341 351.06C497.237 351.06 497.129 351.052 497.017 351.036L496.921 351V350.052L497.005 350.076C497.085 350.092 497.169 350.1 497.257 350.1C497.385 350.1 497.489 350.064 497.569 349.992C497.657 349.912 497.725 349.788 497.773 349.62C497.829 349.452 497.869 349.296 497.893 349.152C497.917 349 497.945 348.788 497.977 348.516C498.009 348.228 498.057 347.412 498.121 346.068L498.157 344.724H502.297V351H501.301V345.564H499.045C498.973 347.292 498.921 348.296 498.889 348.576ZM504.431 344.724H505.427V346.92H506.543C507.247 346.92 507.823 347.092 508.271 347.436C508.719 347.78 508.943 348.292 508.943 348.972V349.008C508.943 349.696 508.719 350.2 508.271 350.52C507.831 350.84 507.255 351 506.543 351H504.431V344.724ZM506.603 350.22C507.083 350.22 507.427 350.12 507.635 349.92C507.843 349.712 507.947 349.408 507.947 349.008V348.972C507.947 348.54 507.839 348.224 507.623 348.024C507.415 347.816 507.075 347.712 506.603 347.712H505.427V350.22H506.603Z" fill="white"/>
<path d="M480.35 368.72L484.326 364.534C485.287 363.517 485.768 362.551 485.768 361.636C485.768 361.076 485.609 360.637 485.292 360.32C484.984 360.003 484.545 359.844 483.976 359.844C482.763 359.844 482.058 360.586 481.862 362.07H480.728C480.803 361.081 481.125 360.301 481.694 359.732C482.273 359.153 483.033 358.864 483.976 358.864C484.9 358.864 485.633 359.121 486.174 359.634C486.725 360.138 487 360.819 487 361.678C487 362.779 486.328 363.993 484.984 365.318L482.226 368.006H487.056V369H480.35V368.72ZM492.901 368.118C494.665 368.118 495.547 366.825 495.547 364.24V363.68C495.547 362.513 495.309 361.585 494.833 360.894C494.357 360.194 493.704 359.844 492.873 359.844C492.024 359.844 491.361 360.18 490.885 360.852C490.409 361.524 490.171 362.476 490.171 363.708V364.268C490.171 365.509 490.414 366.461 490.899 367.124C491.385 367.787 492.052 368.118 492.901 368.118ZM492.901 369.126C491.707 369.126 490.745 368.683 490.017 367.796C489.289 366.909 488.925 365.738 488.925 364.282V363.722C488.925 362.238 489.275 361.057 489.975 360.18C490.685 359.303 491.651 358.864 492.873 358.864C494.087 358.864 495.039 359.307 495.729 360.194C496.429 361.081 496.779 362.247 496.779 363.694V364.254C496.779 365.729 496.434 366.909 495.743 367.796C495.062 368.683 494.115 369.126 492.901 369.126ZM498.198 368.72L502.174 364.534C503.136 363.517 503.616 362.551 503.616 361.636C503.616 361.076 503.458 360.637 503.14 360.32C502.832 360.003 502.394 359.844 501.824 359.844C500.611 359.844 499.906 360.586 499.71 362.07H498.576C498.651 361.081 498.973 360.301 499.542 359.732C500.121 359.153 500.882 358.864 501.824 358.864C502.748 358.864 503.481 359.121 504.022 359.634C504.573 360.138 504.848 360.819 504.848 361.678C504.848 362.779 504.176 363.993 502.832 365.318L500.074 368.006H504.904V369H498.198V368.72ZM510.75 368.118C512.514 368.118 513.396 366.825 513.396 364.24V363.68C513.396 362.513 513.158 361.585 512.682 360.894C512.206 360.194 511.552 359.844 510.722 359.844C509.872 359.844 509.21 360.18 508.734 360.852C508.258 361.524 508.02 362.476 508.02 363.708V364.268C508.02 365.509 508.262 366.461 508.748 367.124C509.233 367.787 509.9 368.118 510.75 368.118ZM510.75 369.126C509.555 369.126 508.594 368.683 507.866 367.796C507.138 366.909 506.774 365.738 506.774 364.282V363.722C506.774 362.238 507.124 361.057 507.824 360.18C508.533 359.303 509.499 358.864 510.722 358.864C511.935 358.864 512.887 359.307 513.578 360.194C514.278 361.081 514.628 362.247 514.628 363.694V364.254C514.628 365.729 514.282 366.909 513.592 367.796C512.91 368.683 511.963 369.126 510.75 369.126Z" fill="white"/>
<path opacity="0.6" d="M541.684 351.108C540.788 351.108 540.052 350.82 539.476 350.244C538.9 349.66 538.612 348.888 538.612 347.928V347.832C538.612 346.888 538.904 346.116 539.488 345.516C540.08 344.916 540.804 344.616 541.66 344.616C542.38 344.616 542.992 344.796 543.496 345.156C544 345.508 544.296 346.06 544.384 346.812H543.4C543.256 345.9 542.676 345.444 541.66 345.444C541.076 345.444 540.592 345.664 540.208 346.104C539.832 346.536 539.644 347.112 539.644 347.832V347.928C539.644 348.68 539.828 349.26 540.196 349.668C540.572 350.076 541.072 350.28 541.696 350.28C542.168 350.28 542.572 350.148 542.908 349.884C543.252 349.612 543.448 349.232 543.496 348.744H544.42C544.356 349.432 544.068 350 543.556 350.448C543.052 350.888 542.428 351.108 541.684 351.108ZM548.612 351.108C547.716 351.108 546.984 350.816 546.416 350.232C545.856 349.648 545.576 348.88 545.576 347.928V347.832C545.576 346.888 545.848 346.116 546.392 345.516C546.944 344.916 547.652 344.616 548.516 344.616C549.316 344.616 549.984 344.876 550.52 345.396C551.064 345.908 551.336 346.688 551.336 347.736V348.06H546.608C546.656 349.54 547.328 350.28 548.624 350.28C549.608 350.28 550.164 349.916 550.292 349.188H551.288C551.176 349.812 550.884 350.288 550.412 350.616C549.94 350.944 549.34 351.108 548.612 351.108ZM550.316 347.256C550.228 346.048 549.628 345.444 548.516 345.444C548.012 345.444 547.596 345.604 547.268 345.924C546.94 346.244 546.732 346.688 546.644 347.256H550.316ZM556.992 348.204H553.908V351H552.912V344.724H553.908V347.364H556.992V344.724H557.988V351H556.992V348.204ZM564.526 345.564H562.498V351H561.502V345.564H559.474V344.724H564.526V345.564ZM568.107 345.516C567.211 345.516 566.763 345.896 566.763 346.656V346.692C566.763 347.052 566.867 347.324 567.075 347.508C567.283 347.692 567.627 347.784 568.107 347.784H569.283V345.516H568.107ZM566.451 351H565.311L567.219 348.372C566.251 348.172 565.767 347.612 565.767 346.692V346.656C565.767 346 565.991 345.516 566.439 345.204C566.887 344.884 567.463 344.724 568.167 344.724H570.279V351H569.283V348.54H568.203L566.451 351ZM575.12 351.108C574.176 351.108 573.428 350.804 572.876 350.196C572.324 349.588 572.048 348.664 572.048 347.424V347.04C572.048 346.448 572.072 345.924 572.12 345.468C572.168 345.004 572.268 344.54 572.42 344.076C572.572 343.604 572.772 343.212 573.02 342.9C573.268 342.588 573.604 342.328 574.028 342.12C574.46 341.912 574.968 341.792 575.552 341.76L575.792 341.748C576.672 341.7 577.268 341.612 577.58 341.484L577.712 342.324C577.304 342.5 576.668 342.608 575.804 342.648L575.624 342.66C574.656 342.708 573.964 343.024 573.548 343.608C573.14 344.184 572.9 345.08 572.828 346.296H572.876C573.092 345.856 573.412 345.508 573.836 345.252C574.268 344.988 574.768 344.856 575.336 344.856C576.208 344.856 576.904 345.14 577.424 345.708C577.952 346.268 578.216 346.996 578.216 347.892V347.94C578.216 348.908 577.924 349.68 577.34 350.256C576.764 350.824 576.024 351.108 575.12 351.108ZM573.62 349.668C573.988 350.076 574.492 350.28 575.132 350.28C575.772 350.28 576.272 350.08 576.632 349.68C577 349.272 577.184 348.696 577.184 347.952V347.928C577.184 347.232 577.016 346.684 576.68 346.284C576.352 345.884 575.872 345.684 575.24 345.684C574.576 345.684 574.048 345.892 573.656 346.308C573.272 346.724 573.08 347.292 573.08 348.012V348.036C573.08 348.716 573.26 349.26 573.62 349.668ZM579.96 344.724H580.956V345.78C581.14 345.46 581.428 345.188 581.82 344.964C582.212 344.732 582.632 344.616 583.08 344.616C583.92 344.616 584.604 344.9 585.132 345.468C585.668 346.036 585.936 346.804 585.936 347.772V347.868C585.936 348.836 585.672 349.62 585.144 350.22C584.624 350.812 583.936 351.108 583.08 351.108C582.12 351.108 581.412 350.728 580.956 349.968V353.184H579.96V344.724ZM582.984 350.28C583.608 350.28 584.084 350.08 584.412 349.68C584.74 349.272 584.904 348.684 584.904 347.916V347.82C584.904 347.06 584.72 346.476 584.352 346.068C583.992 345.652 583.532 345.444 582.972 345.444C582.364 345.444 581.868 345.648 581.484 346.056C581.108 346.456 580.92 347.044 580.92 347.82V347.916C580.92 348.692 581.104 349.28 581.472 349.68C581.848 350.08 582.352 350.28 582.984 350.28ZM587.532 344.724H588.528V346.92H589.644C590.348 346.92 590.924 347.092 591.372 347.436C591.82 347.78 592.044 348.292 592.044 348.972V349.008C592.044 349.696 591.82 350.2 591.372 350.52C590.932 350.84 590.356 351 589.644 351H587.532V344.724ZM589.704 350.22C590.184 350.22 590.528 350.12 590.736 349.92C590.944 349.712 591.048 349.408 591.048 349.008V348.972C591.048 348.54 590.94 348.224 590.724 348.024C590.516 347.816 590.176 347.712 589.704 347.712H588.528V350.22H589.704Z" fill="white"/>
<path d="M538.35 368.72L542.326 364.534C543.287 363.517 543.768 362.551 543.768 361.636C543.768 361.076 543.609 360.637 543.292 360.32C542.984 360.003 542.545 359.844 541.976 359.844C540.763 359.844 540.058 360.586 539.862 362.07H538.728C538.803 361.081 539.125 360.301 539.694 359.732C540.273 359.153 541.033 358.864 541.976 358.864C542.9 358.864 543.633 359.121 544.174 359.634C544.725 360.138 545 360.819 545 361.678C545 362.779 544.328 363.993 542.984 365.318L540.226 368.006H545.056V369H538.35V368.72ZM550.901 368.118C552.665 368.118 553.547 366.825 553.547 364.24V363.68C553.547 362.513 553.309 361.585 552.833 360.894C552.357 360.194 551.704 359.844 550.873 359.844C550.024 359.844 549.361 360.18 548.885 360.852C548.409 361.524 548.171 362.476 548.171 363.708V364.268C548.171 365.509 548.414 366.461 548.899 367.124C549.385 367.787 550.052 368.118 550.901 368.118ZM550.901 369.126C549.707 369.126 548.745 368.683 548.017 367.796C547.289 366.909 546.925 365.738 546.925 364.282V363.722C546.925 362.238 547.275 361.057 547.975 360.18C548.685 359.303 549.651 358.864 550.873 358.864C552.087 358.864 553.039 359.307 553.729 360.194C554.429 361.081 554.779 362.247 554.779 363.694V364.254C554.779 365.729 554.434 366.909 553.743 367.796C553.062 368.683 552.115 369.126 550.901 369.126ZM556.198 368.72L560.174 364.534C561.136 363.517 561.616 362.551 561.616 361.636C561.616 361.076 561.458 360.637 561.14 360.32C560.832 360.003 560.394 359.844 559.824 359.844C558.611 359.844 557.906 360.586 557.71 362.07H556.576C556.651 361.081 556.973 360.301 557.542 359.732C558.121 359.153 558.882 358.864 559.824 358.864C560.748 358.864 561.481 359.121 562.022 359.634C562.573 360.138 562.848 360.819 562.848 361.678C562.848 362.779 562.176 363.993 560.832 365.318L558.074 368.006H562.904V369H556.198V368.72ZM568.75 368.118C570.514 368.118 571.396 366.825 571.396 364.24V363.68C571.396 362.513 571.158 361.585 570.682 360.894C570.206 360.194 569.552 359.844 568.722 359.844C567.872 359.844 567.21 360.18 566.734 360.852C566.258 361.524 566.02 362.476 566.02 363.708V364.268C566.02 365.509 566.262 366.461 566.748 367.124C567.233 367.787 567.9 368.118 568.75 368.118ZM568.75 369.126C567.555 369.126 566.594 368.683 565.866 367.796C565.138 366.909 564.774 365.738 564.774 364.282V363.722C564.774 362.238 565.124 361.057 565.824 360.18C566.533 359.303 567.499 358.864 568.722 358.864C569.935 358.864 570.887 359.307 571.578 360.194C572.278 361.081 572.628 362.247 572.628 363.694V364.254C572.628 365.729 572.282 366.909 571.592 367.796C570.91 368.683 569.963 369.126 568.75 369.126Z" fill="white"/>
<path opacity="0.6" d="M5.412 252.564H3.384V258H2.388V252.564H0.36V251.724H5.412V252.564ZM12.3053 251.724H13.3013V258H12.3053V251.724ZM6.90534 251.724H7.90134V253.92H9.01734C9.72934 253.92 10.3053 254.08 10.7453 254.4C11.1933 254.72 11.4173 255.224 11.4173 255.912V255.948C11.4173 256.628 11.1933 257.14 10.7453 257.484C10.2973 257.828 9.72134 258 9.01734 258H6.90534V251.724ZM9.07734 257.208C9.54934 257.208 9.88934 257.108 10.0973 256.908C10.3133 256.7 10.4213 256.38 10.4213 255.948V255.912C10.4213 255.512 10.3173 255.212 10.1093 255.012C9.90134 254.804 9.55734 254.7 9.07734 254.7H7.90134V257.208H9.07734ZM18.1154 258.108C17.2194 258.108 16.4834 257.82 15.9074 257.244C15.3314 256.66 15.0434 255.888 15.0434 254.928V254.832C15.0434 253.888 15.3354 253.116 15.9194 252.516C16.5114 251.916 17.2354 251.616 18.0914 251.616C18.8114 251.616 19.4234 251.796 19.9274 252.156C20.4314 252.508 20.7274 253.06 20.8154 253.812H19.8314C19.6874 252.9 19.1074 252.444 18.0914 252.444C17.5074 252.444 17.0234 252.664 16.6394 253.104C16.2634 253.536 16.0754 254.112 16.0754 254.832V254.928C16.0754 255.68 16.2594 256.26 16.6274 256.668C17.0034 257.076 17.5034 257.28 18.1274 257.28C18.5994 257.28 19.0034 257.148 19.3394 256.884C19.6834 256.612 19.8794 256.232 19.9274 255.744H20.8514C20.7874 256.432 20.4994 257 19.9874 257.448C19.4834 257.888 18.8594 258.108 18.1154 258.108ZM25.7709 251.724H26.7669V252.78C26.9509 252.46 27.2389 252.188 27.6309 251.964C28.0229 251.732 28.4429 251.616 28.8909 251.616C29.7309 251.616 30.4149 251.9 30.9429 252.468C31.4789 253.036 31.7469 253.804 31.7469 254.772V254.868C31.7469 255.836 31.4829 256.62 30.9549 257.22C30.4349 257.812 29.7469 258.108 28.8909 258.108C27.9309 258.108 27.2229 257.728 26.7669 256.968V260.184H25.7709V251.724ZM28.7949 257.28C29.4189 257.28 29.8949 257.08 30.2229 256.68C30.5509 256.272 30.7149 255.684 30.7149 254.916V254.82C30.7149 254.06 30.5309 253.476 30.1629 253.068C29.8029 252.652 29.3429 252.444 28.7829 252.444C28.1749 252.444 27.6789 252.648 27.2949 253.056C26.9189 253.456 26.7309 254.044 26.7309 254.82V254.916C26.7309 255.692 26.9149 256.28 27.2829 256.68C27.6589 257.08 28.1629 257.28 28.7949 257.28ZM35.0492 257.352L32.5892 251.724H33.6572L35.5772 256.224L37.3172 251.724H38.3372L34.8692 260.184H33.8612L35.0492 257.352ZM42.3968 258.108C41.4528 258.108 40.7048 257.804 40.1528 257.196C39.6008 256.588 39.3248 255.664 39.3248 254.424V254.04C39.3248 253.448 39.3488 252.924 39.3968 252.468C39.4448 252.004 39.5448 251.54 39.6968 251.076C39.8488 250.604 40.0488 250.212 40.2968 249.9C40.5448 249.588 40.8808 249.328 41.3048 249.12C41.7368 248.912 42.2448 248.792 42.8288 248.76L43.0688 248.748C43.9488 248.7 44.5448 248.612 44.8568 248.484L44.9888 249.324C44.5808 249.5 43.9448 249.608 43.0808 249.648L42.9008 249.66C41.9328 249.708 41.2408 250.024 40.8248 250.608C40.4168 251.184 40.1768 252.08 40.1048 253.296H40.1528C40.3688 252.856 40.6888 252.508 41.1128 252.252C41.5448 251.988 42.0448 251.856 42.6128 251.856C43.4848 251.856 44.1808 252.14 44.7008 252.708C45.2288 253.268 45.4928 253.996 45.4928 254.892V254.94C45.4928 255.908 45.2008 256.68 44.6168 257.256C44.0408 257.824 43.3008 258.108 42.3968 258.108ZM40.8968 256.668C41.2648 257.076 41.7688 257.28 42.4088 257.28C43.0488 257.28 43.5488 257.08 43.9088 256.68C44.2768 256.272 44.4608 255.696 44.4608 254.952V254.928C44.4608 254.232 44.2928 253.684 43.9568 253.284C43.6288 252.884 43.1488 252.684 42.5168 252.684C41.8528 252.684 41.3248 252.892 40.9328 253.308C40.5488 253.724 40.3568 254.292 40.3568 255.012V255.036C40.3568 255.716 40.5368 256.26 40.8968 256.668Z" fill="white"/>
<path d="M16.4 242.68L20.944 237.896C22.0427 236.733 22.592 235.629 22.592 234.584C22.592 233.944 22.4107 233.443 22.048 233.08C21.696 232.717 21.1947 232.536 20.544 232.536C19.1573 232.536 18.352 233.384 18.128 235.08H16.832C16.9173 233.949 17.2853 233.059 17.936 232.408C18.5973 231.747 19.4667 231.416 20.544 231.416C21.6 231.416 22.4373 231.709 23.056 232.296C23.6853 232.872 24 233.651 24 234.632C24 235.891 23.232 237.277 21.696 238.792L18.544 241.864H24.064V243H16.4V242.68ZM30.2343 243.144C27.4929 243.144 26.1222 241.411 26.1222 237.944V237.672C26.1222 235.667 26.5276 234.125 27.3382 233.048C28.1596 231.96 29.2476 231.416 30.6023 231.416C31.5196 231.416 32.2663 231.651 32.8423 232.12C33.4289 232.589 33.7969 233.277 33.9462 234.184H32.6183C32.4903 233.629 32.2609 233.219 31.9303 232.952C31.5996 232.685 31.1249 232.552 30.5062 232.552C29.6209 232.552 28.9062 232.947 28.3623 233.736C27.8182 234.525 27.5302 235.656 27.4983 237.128C28.1169 236.093 29.0983 235.576 30.4423 235.576C31.5623 235.576 32.4636 235.933 33.1462 236.648C33.8396 237.352 34.1863 238.243 34.1863 239.32C34.1863 240.472 33.8289 241.4 33.1143 242.104C32.3996 242.797 31.4396 243.144 30.2343 243.144ZM30.2343 242.056C30.9809 242.056 31.5889 241.811 32.0582 241.32C32.5276 240.829 32.7623 240.184 32.7623 239.384C32.7623 238.552 32.5329 237.891 32.0743 237.4C31.6156 236.909 30.9969 236.664 30.2183 236.664C29.4502 236.664 28.8209 236.899 28.3303 237.368C27.8396 237.837 27.5942 238.445 27.5942 239.192C27.5942 240.099 27.8342 240.803 28.3142 241.304C28.8049 241.805 29.4449 242.056 30.2343 242.056ZM40.8419 241.992C42.8579 241.992 43.8659 240.515 43.8659 237.56V236.92C43.8659 235.587 43.5939 234.525 43.0499 233.736C42.5059 232.936 41.7592 232.536 40.8099 232.536C39.8392 232.536 39.0819 232.92 38.5379 233.688C37.9939 234.456 37.7219 235.544 37.7219 236.952V237.592C37.7219 239.011 37.9992 240.099 38.5539 240.856C39.1085 241.613 39.8712 241.992 40.8419 241.992ZM40.8419 243.144C39.4765 243.144 38.3779 242.637 37.5459 241.624C36.7139 240.611 36.2979 239.272 36.2979 237.608V236.968C36.2979 235.272 36.6979 233.923 37.4979 232.92C38.3085 231.917 39.4125 231.416 40.8099 231.416C42.1965 231.416 43.2845 231.923 44.0739 232.936C44.8739 233.949 45.2739 235.283 45.2739 236.936V237.576C45.2739 239.261 44.8792 240.611 44.0899 241.624C43.3112 242.637 42.2285 243.144 40.8419 243.144Z" fill="white"/>
<path opacity="0.6" d="M5.412 191.564H3.384V197H2.388V191.564H0.36V190.724H5.412V191.564ZM12.3053 190.724H13.3013V197H12.3053V190.724ZM6.90534 190.724H7.90134V192.92H9.01734C9.72934 192.92 10.3053 193.08 10.7453 193.4C11.1933 193.72 11.4173 194.224 11.4173 194.912V194.948C11.4173 195.628 11.1933 196.14 10.7453 196.484C10.2973 196.828 9.72134 197 9.01734 197H6.90534V190.724ZM9.07734 196.208C9.54934 196.208 9.88934 196.108 10.0973 195.908C10.3133 195.7 10.4213 195.38 10.4213 194.948V194.912C10.4213 194.512 10.3173 194.212 10.1093 194.012C9.90134 193.804 9.55734 193.7 9.07734 193.7H7.90134V196.208H9.07734ZM18.1154 197.108C17.2194 197.108 16.4834 196.82 15.9074 196.244C15.3314 195.66 15.0434 194.888 15.0434 193.928V193.832C15.0434 192.888 15.3354 192.116 15.9194 191.516C16.5114 190.916 17.2354 190.616 18.0914 190.616C18.8114 190.616 19.4234 190.796 19.9274 191.156C20.4314 191.508 20.7274 192.06 20.8154 192.812H19.8314C19.6874 191.9 19.1074 191.444 18.0914 191.444C17.5074 191.444 17.0234 191.664 16.6394 192.104C16.2634 192.536 16.0754 193.112 16.0754 193.832V193.928C16.0754 194.68 16.2594 195.26 16.6274 195.668C17.0034 196.076 17.5034 196.28 18.1274 196.28C18.5994 196.28 19.0034 196.148 19.3394 195.884C19.6834 195.612 19.8794 195.232 19.9274 194.744H20.8514C20.7874 195.432 20.4994 196 19.9874 196.448C19.4834 196.888 18.8594 197.108 18.1154 197.108ZM25.7709 190.724H26.7669V191.78C26.9509 191.46 27.2389 191.188 27.6309 190.964C28.0229 190.732 28.4429 190.616 28.8909 190.616C29.7309 190.616 30.4149 190.9 30.9429 191.468C31.4789 192.036 31.7469 192.804 31.7469 193.772V193.868C31.7469 194.836 31.4829 195.62 30.9549 196.22C30.4349 196.812 29.7469 197.108 28.8909 197.108C27.9309 197.108 27.2229 196.728 26.7669 195.968V199.184H25.7709V190.724ZM28.7949 196.28C29.4189 196.28 29.8949 196.08 30.2229 195.68C30.5509 195.272 30.7149 194.684 30.7149 193.916V193.82C30.7149 193.06 30.5309 192.476 30.1629 192.068C29.8029 191.652 29.3429 191.444 28.7829 191.444C28.1749 191.444 27.6789 191.648 27.2949 192.056C26.9189 192.456 26.7309 193.044 26.7309 193.82V193.916C26.7309 194.692 26.9149 195.28 27.2829 195.68C27.6589 196.08 28.1629 196.28 28.7949 196.28ZM35.0492 196.352L32.5892 190.724H33.6572L35.5772 195.224L37.3172 190.724H38.3372L34.8692 199.184H33.8612L35.0492 196.352ZM42.3968 197.108C41.4528 197.108 40.7048 196.804 40.1528 196.196C39.6008 195.588 39.3248 194.664 39.3248 193.424V193.04C39.3248 192.448 39.3488 191.924 39.3968 191.468C39.4448 191.004 39.5448 190.54 39.6968 190.076C39.8488 189.604 40.0488 189.212 40.2968 188.9C40.5448 188.588 40.8808 188.328 41.3048 188.12C41.7368 187.912 42.2448 187.792 42.8288 187.76L43.0688 187.748C43.9488 187.7 44.5448 187.612 44.8568 187.484L44.9888 188.324C44.5808 188.5 43.9448 188.608 43.0808 188.648L42.9008 188.66C41.9328 188.708 41.2408 189.024 40.8248 189.608C40.4168 190.184 40.1768 191.08 40.1048 192.296H40.1528C40.3688 191.856 40.6888 191.508 41.1128 191.252C41.5448 190.988 42.0448 190.856 42.6128 190.856C43.4848 190.856 44.1808 191.14 44.7008 191.708C45.2288 192.268 45.4928 192.996 45.4928 193.892V193.94C45.4928 194.908 45.2008 195.68 44.6168 196.256C44.0408 196.824 43.3008 197.108 42.3968 197.108ZM40.8968 195.668C41.2648 196.076 41.7688 196.28 42.4088 196.28C43.0488 196.28 43.5488 196.08 43.9088 195.68C44.2768 195.272 44.4608 194.696 44.4608 193.952V193.928C44.4608 193.232 44.2928 192.684 43.9568 192.284C43.6288 191.884 43.1488 191.684 42.5168 191.684C41.8528 191.684 41.3248 191.892 40.9328 192.308C40.5488 192.724 40.3568 193.292 40.3568 194.012V194.036C40.3568 194.716 40.5368 195.26 40.8968 195.668Z" fill="white"/>
<path d="M23.736 182.144C22.552 182.144 21.5973 181.813 20.872 181.152C20.1573 180.491 19.7787 179.648 19.736 178.624H21.016C21.08 179.349 21.3413 179.931 21.8 180.368C22.2587 180.805 22.9147 181.024 23.768 181.024C24.6427 181.024 25.2933 180.832 25.72 180.448C26.1573 180.053 26.376 179.509 26.376 178.816C26.376 177.333 25.5707 176.592 23.96 176.592H23.096V175.424H23.896C25.3253 175.424 26.04 174.773 26.04 173.472C26.04 172.907 25.864 172.448 25.512 172.096C25.16 171.733 24.6427 171.552 23.96 171.552C23.256 171.552 22.6747 171.749 22.216 172.144C21.768 172.539 21.5067 173.061 21.432 173.712H20.216C20.2587 172.795 20.6267 172.016 21.32 171.376C22.0133 170.736 22.8933 170.416 23.96 170.416C25.0053 170.416 25.8373 170.715 26.456 171.312C27.0853 171.899 27.4 172.608 27.4 173.44C27.4 174.603 26.7973 175.435 25.592 175.936C27.064 176.341 27.8 177.301 27.8 178.816C27.8 179.851 27.4213 180.667 26.664 181.264C25.9173 181.851 24.9413 182.144 23.736 182.144ZM32.1253 171.936L29.5652 173.776V172.48L32.2213 170.56H33.5173V182H32.1253V171.936ZM41.2794 180.992C43.2954 180.992 44.3034 179.515 44.3034 176.56V175.92C44.3034 174.587 44.0314 173.525 43.4874 172.736C42.9434 171.936 42.1967 171.536 41.2474 171.536C40.2767 171.536 39.5194 171.92 38.9754 172.688C38.4314 173.456 38.1594 174.544 38.1594 175.952V176.592C38.1594 178.011 38.4367 179.099 38.9914 179.856C39.546 180.613 40.3087 180.992 41.2794 180.992ZM41.2794 182.144C39.914 182.144 38.8154 181.637 37.9834 180.624C37.1514 179.611 36.7354 178.272 36.7354 176.608V175.968C36.7354 174.272 37.1354 172.923 37.9354 171.92C38.746 170.917 39.85 170.416 41.2474 170.416C42.634 170.416 43.722 170.923 44.5114 171.936C45.3114 172.949 45.7114 174.283 45.7114 175.936V176.576C45.7114 178.261 45.3167 179.611 44.5274 180.624C43.7487 181.637 42.666 182.144 41.2794 182.144Z" fill="white"/>
<circle cx="220" cy="203" r="4" fill="#F1D5C0"/>
<circle cx="152" cy="246" r="4" fill="#F1D5C0"/>
<circle cx="92" cy="276" r="4" fill="#F1D5C0"/>
<circle cx="282" cy="141" r="4" fill="#F1D5C0"/>
<circle cx="344" cy="117" r="4" fill="#F1D5C0"/>
<circle cx="469" cy="75" r="4" fill="#F1D5C0"/>
<circle cx="411" cy="97" r="4" fill="#F1D5C0"/>
<circle cx="527" cy="30" r="4" fill="#F1D5C0"/>
<path opacity="0.6" d="M5.412 30.564H3.384V36H2.388V30.564H0.36V29.724H5.412V30.564ZM12.3053 29.724H13.3013V36H12.3053V29.724ZM6.90534 29.724H7.90134V31.92H9.01734C9.72934 31.92 10.3053 32.08 10.7453 32.4C11.1933 32.72 11.4173 33.224 11.4173 33.912V33.948C11.4173 34.628 11.1933 35.14 10.7453 35.484C10.2973 35.828 9.72134 36 9.01734 36H6.90534V29.724ZM9.07734 35.208C9.54934 35.208 9.88934 35.108 10.0973 34.908C10.3133 34.7 10.4213 34.38 10.4213 33.948V33.912C10.4213 33.512 10.3173 33.212 10.1093 33.012C9.90134 32.804 9.55734 32.7 9.07734 32.7H7.90134V35.208H9.07734ZM18.1154 36.108C17.2194 36.108 16.4834 35.82 15.9074 35.244C15.3314 34.66 15.0434 33.888 15.0434 32.928V32.832C15.0434 31.888 15.3354 31.116 15.9194 30.516C16.5114 29.916 17.2354 29.616 18.0914 29.616C18.8114 29.616 19.4234 29.796 19.9274 30.156C20.4314 30.508 20.7274 31.06 20.8154 31.812H19.8314C19.6874 30.9 19.1074 30.444 18.0914 30.444C17.5074 30.444 17.0234 30.664 16.6394 31.104C16.2634 31.536 16.0754 32.112 16.0754 32.832V32.928C16.0754 33.68 16.2594 34.26 16.6274 34.668C17.0034 35.076 17.5034 35.28 18.1274 35.28C18.5994 35.28 19.0034 35.148 19.3394 34.884C19.6834 34.612 19.8794 34.232 19.9274 33.744H20.8514C20.7874 34.432 20.4994 35 19.9874 35.448C19.4834 35.888 18.8594 36.108 18.1154 36.108ZM25.7709 29.724H26.7669V30.78C26.9509 30.46 27.2389 30.188 27.6309 29.964C28.0229 29.732 28.4429 29.616 28.8909 29.616C29.7309 29.616 30.4149 29.9 30.9429 30.468C31.4789 31.036 31.7469 31.804 31.7469 32.772V32.868C31.7469 33.836 31.4829 34.62 30.9549 35.22C30.4349 35.812 29.7469 36.108 28.8909 36.108C27.9309 36.108 27.2229 35.728 26.7669 34.968V38.184H25.7709V29.724ZM28.7949 35.28C29.4189 35.28 29.8949 35.08 30.2229 34.68C30.5509 34.272 30.7149 33.684 30.7149 32.916V32.82C30.7149 32.06 30.5309 31.476 30.1629 31.068C29.8029 30.652 29.3429 30.444 28.7829 30.444C28.1749 30.444 27.6789 30.648 27.2949 31.056C26.9189 31.456 26.7309 32.044 26.7309 32.82V32.916C26.7309 33.692 26.9149 34.28 27.2829 34.68C27.6589 35.08 28.1629 35.28 28.7949 35.28ZM35.0492 35.352L32.5892 29.724H33.6572L35.5772 34.224L37.3172 29.724H38.3372L34.8692 38.184H33.8612L35.0492 35.352ZM42.3968 36.108C41.4528 36.108 40.7048 35.804 40.1528 35.196C39.6008 34.588 39.3248 33.664 39.3248 32.424V32.04C39.3248 31.448 39.3488 30.924 39.3968 30.468C39.4448 30.004 39.5448 29.54 39.6968 29.076C39.8488 28.604 40.0488 28.212 40.2968 27.9C40.5448 27.588 40.8808 27.328 41.3048 27.12C41.7368 26.912 42.2448 26.792 42.8288 26.76L43.0688 26.748C43.9488 26.7 44.5448 26.612 44.8568 26.484L44.9888 27.324C44.5808 27.5 43.9448 27.608 43.0808 27.648L42.9008 27.66C41.9328 27.708 41.2408 28.024 40.8248 28.608C40.4168 29.184 40.1768 30.08 40.1048 31.296H40.1528C40.3688 30.856 40.6888 30.508 41.1128 30.252C41.5448 29.988 42.0448 29.856 42.6128 29.856C43.4848 29.856 44.1808 30.14 44.7008 30.708C45.2288 31.268 45.4928 31.996 45.4928 32.892V32.94C45.4928 33.908 45.2008 34.68 44.6168 35.256C44.0408 35.824 43.3008 36.108 42.3968 36.108ZM40.8968 34.668C41.2648 35.076 41.7688 35.28 42.4088 35.28C43.0488 35.28 43.5488 35.08 43.9088 34.68C44.2768 34.272 44.4608 33.696 44.4608 32.952V32.928C44.4608 32.232 44.2928 31.684 43.9568 31.284C43.6288 30.884 43.1488 30.684 42.5168 30.684C41.8528 30.684 41.3248 30.892 40.9328 31.308C40.5488 31.724 40.3568 32.292 40.3568 33.012V33.036C40.3568 33.716 40.5368 34.26 40.8968 34.668Z" fill="white"/>
<path d="M21.448 19.6H15.72V19.152L20.952 10.56H22.808V18.464H24.392V19.6H22.808V22H21.448V19.6ZM21.448 18.464V11.616L17.48 18.464H21.448ZM30.3905 22.144C27.6492 22.144 26.2785 20.4107 26.2785 16.944V16.672C26.2785 14.6667 26.6838 13.1253 27.4945 12.048C28.3158 10.96 29.4038 10.416 30.7585 10.416C31.6758 10.416 32.4225 10.6507 32.9985 11.12C33.5852 11.5893 33.9532 12.2773 34.1025 13.184H32.7745C32.6465 12.6293 32.4172 12.2187 32.0865 11.952C31.7558 11.6853 31.2812 11.552 30.6625 11.552C29.7772 11.552 29.0625 11.9467 28.5185 12.736C27.9745 13.5253 27.6865 14.656 27.6545 16.128C28.2732 15.0933 29.2545 14.576 30.5985 14.576C31.7185 14.576 32.6198 14.9333 33.3025 15.648C33.9958 16.352 34.3425 17.2427 34.3425 18.32C34.3425 19.472 33.9852 20.4 33.2705 21.104C32.5558 21.7973 31.5958 22.144 30.3905 22.144ZM30.3905 21.056C31.1372 21.056 31.7452 20.8107 32.2145 20.32C32.6838 19.8293 32.9185 19.184 32.9185 18.384C32.9185 17.552 32.6892 16.8907 32.2305 16.4C31.7718 15.9093 31.1532 15.664 30.3745 15.664C29.6065 15.664 28.9772 15.8987 28.4865 16.368C27.9958 16.8373 27.7505 17.4453 27.7505 18.192C27.7505 19.0987 27.9905 19.8027 28.4705 20.304C28.9612 20.8053 29.6012 21.056 30.3905 21.056ZM40.9981 20.992C43.0141 20.992 44.0221 19.5147 44.0221 16.56V15.92C44.0221 14.5867 43.7501 13.5253 43.2061 12.736C42.6621 11.936 41.9155 11.536 40.9661 11.536C39.9955 11.536 39.2381 11.92 38.6941 12.688C38.1501 13.456 37.8781 14.544 37.8781 15.952V16.592C37.8781 18.0107 38.1555 19.0987 38.7101 19.856C39.2648 20.6133 40.0275 20.992 40.9981 20.992ZM40.9981 22.144C39.6328 22.144 38.5341 21.6373 37.7021 20.624C36.8701 19.6107 36.4541 18.272 36.4541 16.608V15.968C36.4541 14.272 36.8541 12.9227 37.6541 11.92C38.4648 10.9173 39.5688 10.416 40.9661 10.416C42.3528 10.416 43.4408 10.9227 44.2301 11.936C45.0301 12.9493 45.4301 14.2827 45.4301 15.936V16.576C45.4301 18.2613 45.0355 19.6107 44.2461 20.624C43.4675 21.6373 42.3848 22.144 40.9981 22.144Z" fill="white"/>
<rect opacity="0.3" x="91" y="277" width="1" height="93" fill="#F1D5C0"/>
<rect opacity="0.3" x="152" y="247" width="1" height="123" fill="#F1D5C0"/>
<rect opacity="0.3" x="219" y="203" width="1" height="167" fill="#F1D5C0"/>
<rect opacity="0.3" x="281" y="141" width="1" height="229" fill="#F1D5C0"/>
<rect opacity="0.3" x="411" y="100" width="1" height="270" fill="#F1D5C0"/>
<rect opacity="0.3" x="344" y="114" width="1" height="256" fill="#F1D5C0"/>
<rect opacity="0.3" x="469" y="78" width="1" height="292" fill="#F1D5C0"/>
<rect opacity="0.3" x="527" y="32" width="1" height="338" fill="#F1D5C0"/>
<path d="M47 346.5L90.6875 275.447L152.887 244.662L219.352 203.396L281.551 139.206L344.106 116.608L411.281 97.2857L468.711 74.9437L528.216 28.5102L573 1"  stroke="#F1D5C0"/>
<defs>
<radialGradient id="paint0_radial_947:66" cx="0" cy="0" r="1" gradientUnits="userSpaceOnUse" gradientTransform="translate(325.979 171.956) rotate(68.6746) scale(204.265 338.78)">
<stop stop-color="#F1D5C0"/>
<stop offset="1" stop-color="#F1D5C0" stop-opacity="0"/>
</radialGradient>
</defs>
</svg>
