<svg width="447" height="341" viewBox="0 0 447 341" fill="none" xmlns="http://www.w3.org/2000/svg">
<path d="M2.96 145.09C2.22 145.09 1.62333 144.883 1.17 144.47C0.723333 144.057 0.486667 143.53 0.46 142.89H1.26C1.3 143.343 1.46333 143.707 1.75 143.98C2.03667 144.253 2.44667 144.39 2.98 144.39C3.52667 144.39 3.93333 144.27 4.2 144.03C4.47333 143.783 4.61 143.443 4.61 143.01C4.61 142.083 4.10667 141.62 3.1 141.62H2.56V140.89H3.06C3.95333 140.89 4.4 140.483 4.4 139.67C4.4 139.317 4.29 139.03 4.07 138.81C3.85 138.583 3.52667 138.47 3.1 138.47C2.66 138.47 2.29667 138.593 2.01 138.84C1.73 139.087 1.56667 139.413 1.52 139.82H0.76C0.786667 139.247 1.01667 138.76 1.45 138.36C1.88333 137.96 2.43333 137.76 3.1 137.76C3.75333 137.76 4.27333 137.947 4.66 138.32C5.05333 138.687 5.25 139.13 5.25 139.65C5.25 140.377 4.87333 140.897 4.12 141.21C5.04 141.463 5.5 142.063 5.5 143.01C5.5 143.657 5.26333 144.167 4.79 144.54C4.32333 144.907 3.71333 145.09 2.96 145.09ZM9.49211 145.09C7.77878 145.09 6.92211 144.007 6.92211 141.84V141.67C6.92211 140.417 7.17544 139.453 7.68211 138.78C8.19544 138.1 8.87544 137.76 9.72211 137.76C10.2954 137.76 10.7621 137.907 11.1221 138.2C11.4888 138.493 11.7188 138.923 11.8121 139.49H10.9821C10.9021 139.143 10.7588 138.887 10.5521 138.72C10.3454 138.553 10.0488 138.47 9.66211 138.47C9.10878 138.47 8.66211 138.717 8.32211 139.21C7.98211 139.703 7.80211 140.41 7.78211 141.33C8.16878 140.683 8.78211 140.36 9.62211 140.36C10.3221 140.36 10.8854 140.583 11.3121 141.03C11.7454 141.47 11.9621 142.027 11.9621 142.7C11.9621 143.42 11.7388 144 11.2921 144.44C10.8454 144.873 10.2454 145.09 9.49211 145.09ZM9.49211 144.41C9.95878 144.41 10.3388 144.257 10.6321 143.95C10.9254 143.643 11.0721 143.24 11.0721 142.74C11.0721 142.22 10.9288 141.807 10.6421 141.5C10.3554 141.193 9.96878 141.04 9.48211 141.04C9.00211 141.04 8.60878 141.187 8.30211 141.48C7.99544 141.773 7.84211 142.153 7.84211 142.62C7.84211 143.187 7.99211 143.627 8.29211 143.94C8.59878 144.253 8.99878 144.41 9.49211 144.41ZM16.1219 144.37C17.3819 144.37 18.0119 143.447 18.0119 141.6V141.2C18.0119 140.367 17.8419 139.703 17.5019 139.21C17.1619 138.71 16.6952 138.46 16.1019 138.46C15.4952 138.46 15.0219 138.7 14.6819 139.18C14.3419 139.66 14.1719 140.34 14.1719 141.22V141.62C14.1719 142.507 14.3452 143.187 14.6919 143.66C15.0385 144.133 15.5152 144.37 16.1219 144.37ZM16.1219 145.09C15.2685 145.09 14.5819 144.773 14.0619 144.14C13.5419 143.507 13.2819 142.67 13.2819 141.63V141.23C13.2819 140.17 13.5319 139.327 14.0319 138.7C14.5385 138.073 15.2285 137.76 16.1019 137.76C16.9685 137.76 17.6485 138.077 18.1419 138.71C18.6419 139.343 18.8919 140.177 18.8919 141.21V141.61C18.8919 142.663 18.6452 143.507 18.1519 144.14C17.6652 144.773 16.9885 145.09 16.1219 145.09Z" fill="white"/>
<path d="M4.03 101.5H0.45V101.22L3.72 95.85H4.88V100.79H5.87V101.5H4.88V103H4.03V101.5ZM4.03 100.79V96.51L1.55 100.79H4.03ZM8.28141 96.71L6.68141 97.86V97.05L8.34141 95.85H9.15141V103H8.28141V96.71ZM14.0027 102.37C15.2627 102.37 15.8927 101.447 15.8927 99.6V99.2C15.8927 98.3667 15.7227 97.7033 15.3827 97.21C15.0427 96.71 14.5761 96.46 13.9827 96.46C13.3761 96.46 12.9027 96.7 12.5627 97.18C12.2227 97.66 12.0527 98.34 12.0527 99.22V99.62C12.0527 100.507 12.2261 101.187 12.5727 101.66C12.9194 102.133 13.3961 102.37 14.0027 102.37ZM14.0027 103.09C13.1494 103.09 12.4627 102.773 11.9427 102.14C11.4227 101.507 11.1627 100.67 11.1627 99.63V99.23C11.1627 98.17 11.4127 97.3267 11.9127 96.7C12.4194 96.0733 13.1094 95.76 13.9827 95.76C14.8494 95.76 15.5294 96.0767 16.0227 96.71C16.5227 97.3433 16.7727 98.1767 16.7727 99.21V99.61C16.7727 100.663 16.5261 101.507 16.0327 102.14C15.5461 102.773 14.8694 103.09 14.0027 103.09Z" fill="white"/>
<path d="M0.25 274.8L3.09 271.81C3.77667 271.083 4.12 270.393 4.12 269.74C4.12 269.34 4.00667 269.027 3.78 268.8C3.56 268.573 3.24667 268.46 2.84 268.46C1.97333 268.46 1.47 268.99 1.33 270.05H0.52C0.573333 269.343 0.803333 268.787 1.21 268.38C1.62333 267.967 2.16667 267.76 2.84 267.76C3.5 267.76 4.02333 267.943 4.41 268.31C4.80333 268.67 5 269.157 5 269.77C5 270.557 4.52 271.423 3.56 272.37L1.59 274.29H5.04V275H0.25V274.8ZM7.75406 268.71L6.15406 269.86V269.05L7.81406 267.85H8.62406V275H7.75406V268.71ZM13.4754 274.37C14.7354 274.37 15.3654 273.447 15.3654 271.6V271.2C15.3654 270.367 15.1954 269.703 14.8554 269.21C14.5154 268.71 14.0487 268.46 13.4554 268.46C12.8487 268.46 12.3754 268.7 12.0354 269.18C11.6954 269.66 11.5254 270.34 11.5254 271.22V271.62C11.5254 272.507 11.6987 273.187 12.0454 273.66C12.3921 274.133 12.8687 274.37 13.4754 274.37ZM13.4754 275.09C12.6221 275.09 11.9354 274.773 11.4154 274.14C10.8954 273.507 10.6354 272.67 10.6354 271.63V271.23C10.6354 270.17 10.8854 269.327 11.3854 268.7C11.8921 268.073 12.5821 267.76 13.4554 267.76C14.3221 267.76 15.0021 268.077 15.4954 268.71C15.9954 269.343 16.2454 270.177 16.2454 271.21V271.61C16.2454 272.663 15.9987 273.507 15.5054 274.14C15.0187 274.773 14.3421 275.09 13.4754 275.09Z" fill="white"/>
<path opacity="0.6" d="M183.13 310.887C182.458 310.887 182.122 311.172 182.122 311.742V311.769C182.122 312.039 182.2 312.243 182.356 312.381C182.512 312.519 182.77 312.588 183.13 312.588H184.012V310.887H183.13ZM181.888 315H181.033L182.464 313.029C181.738 312.879 181.375 312.459 181.375 311.769V311.742C181.375 311.25 181.543 310.887 181.879 310.653C182.215 310.413 182.647 310.293 183.175 310.293H184.759V315H184.012V313.155H183.202L181.888 315ZM189.425 312.903H187.112V315H186.365V310.293H187.112V312.273H189.425V310.293H190.172V315H189.425V312.903ZM191.772 310.293H193.419C194.523 310.293 195.075 310.692 195.075 311.49V311.517C195.075 311.745 195.012 311.955 194.886 312.147C194.76 312.333 194.571 312.459 194.319 312.525C194.973 312.669 195.3 313.023 195.3 313.587V313.614C195.3 314.07 195.15 314.415 194.85 314.649C194.556 314.883 194.145 315 193.617 315H191.772V310.293ZM192.519 310.887V312.282H193.419C193.731 312.282 193.953 312.225 194.085 312.111C194.223 311.997 194.292 311.811 194.292 311.553V311.526C194.292 311.286 194.22 311.121 194.076 311.031C193.938 310.935 193.716 310.887 193.41 310.887H192.519ZM192.519 312.876V314.406H193.545C193.875 314.406 194.118 314.349 194.274 314.235C194.436 314.115 194.517 313.923 194.517 313.659V313.632C194.517 313.368 194.436 313.176 194.274 313.056C194.118 312.936 193.875 312.876 193.545 312.876H192.519ZM197.859 315.081C197.397 315.081 197.019 314.967 196.725 314.739C196.437 314.505 196.293 314.157 196.293 313.695C196.293 313.437 196.356 313.212 196.482 313.02C196.614 312.822 196.794 312.669 197.022 312.561C197.25 312.447 197.499 312.366 197.769 312.318C198.039 312.264 198.333 312.237 198.651 312.237H199.326V311.895C199.326 311.517 199.248 311.247 199.092 311.085C198.936 310.917 198.678 310.833 198.318 310.833C197.67 310.833 197.31 311.115 197.238 311.679H196.491C196.539 311.175 196.734 310.806 197.076 310.572C197.424 310.332 197.85 310.212 198.354 310.212C199.5 310.212 200.073 310.773 200.073 311.895V315H199.326V314.406C198.966 314.856 198.477 315.081 197.859 315.081ZM197.931 314.487C198.339 314.487 198.672 314.388 198.93 314.19C199.194 313.986 199.326 313.707 199.326 313.353V312.768H198.678C197.586 312.768 197.04 313.077 197.04 313.695C197.04 314.223 197.337 314.487 197.931 314.487ZM201.63 310.293H202.377V311.085C202.515 310.845 202.731 310.641 203.025 310.473C203.319 310.299 203.634 310.212 203.97 310.212C204.6 310.212 205.113 310.425 205.509 310.851C205.911 311.277 206.112 311.853 206.112 312.579V312.651C206.112 313.377 205.914 313.965 205.518 314.415C205.128 314.859 204.612 315.081 203.97 315.081C203.25 315.081 202.719 314.796 202.377 314.226V316.638H201.63V310.293ZM203.898 314.46C204.366 314.46 204.723 314.31 204.969 314.01C205.215 313.704 205.338 313.263 205.338 312.687V312.615C205.338 312.045 205.2 311.607 204.924 311.301C204.654 310.989 204.309 310.833 203.889 310.833C203.433 310.833 203.061 310.986 202.773 311.292C202.491 311.592 202.35 312.033 202.35 312.615V312.687C202.35 313.269 202.488 313.71 202.764 314.01C203.046 314.31 203.424 314.46 203.898 314.46ZM207.309 310.293H208.056V311.94H208.893C209.421 311.94 209.853 312.069 210.189 312.327C210.525 312.585 210.693 312.969 210.693 313.479V313.506C210.693 314.022 210.525 314.4 210.189 314.64C209.859 314.88 209.427 315 208.893 315H207.309V310.293ZM208.938 314.415C209.298 314.415 209.556 314.34 209.712 314.19C209.868 314.034 209.946 313.806 209.946 313.506V313.479C209.946 313.155 209.865 312.918 209.703 312.768C209.547 312.612 209.292 312.534 208.938 312.534H208.056V314.415H208.938Z" fill="white"/>
<path d="M181.069 330.8L183.909 327.81C184.596 327.083 184.939 326.393 184.939 325.74C184.939 325.34 184.826 325.027 184.599 324.8C184.379 324.573 184.066 324.46 183.659 324.46C182.792 324.46 182.289 324.99 182.149 326.05H181.339C181.392 325.343 181.622 324.787 182.029 324.38C182.442 323.967 182.986 323.76 183.659 323.76C184.319 323.76 184.842 323.943 185.229 324.31C185.622 324.67 185.819 325.157 185.819 325.77C185.819 326.557 185.339 327.423 184.379 328.37L182.409 330.29H185.859V331H181.069V330.8ZM190.034 330.37C191.294 330.37 191.924 329.447 191.924 327.6V327.2C191.924 326.367 191.754 325.703 191.414 325.21C191.074 324.71 190.608 324.46 190.014 324.46C189.408 324.46 188.934 324.7 188.594 325.18C188.254 325.66 188.084 326.34 188.084 327.22V327.62C188.084 328.507 188.258 329.187 188.604 329.66C188.951 330.133 189.428 330.37 190.034 330.37ZM190.034 331.09C189.181 331.09 188.494 330.773 187.974 330.14C187.454 329.507 187.194 328.67 187.194 327.63V327.23C187.194 326.17 187.444 325.327 187.944 324.7C188.451 324.073 189.141 323.76 190.014 323.76C190.881 323.76 191.561 324.077 192.054 324.71C192.554 325.343 192.804 326.177 192.804 327.21V327.61C192.804 328.663 192.558 329.507 192.064 330.14C191.578 330.773 190.901 331.09 190.034 331.09ZM195.558 324.71L193.958 325.86V325.05L195.618 323.85H196.428V331H195.558V324.71ZM200.642 331.08C199.988 331.08 199.465 330.92 199.072 330.6C198.678 330.28 198.435 329.827 198.342 329.24H199.182C199.268 329.613 199.425 329.897 199.652 330.09C199.885 330.277 200.222 330.37 200.662 330.37C201.242 330.37 201.688 330.133 202.002 329.66C202.315 329.187 202.478 328.477 202.492 327.53C202.312 327.83 202.062 328.063 201.742 328.23C201.422 328.397 201.055 328.48 200.642 328.48C199.948 328.48 199.382 328.26 198.942 327.82C198.508 327.38 198.292 326.82 198.292 326.14C198.292 325.42 198.515 324.843 198.962 324.41C199.408 323.97 200.008 323.75 200.762 323.75C201.608 323.75 202.248 324.023 202.682 324.57C203.115 325.117 203.332 325.91 203.332 326.95V327.4C203.332 328.593 203.098 329.507 202.632 330.14C202.172 330.767 201.508 331.08 200.642 331.08ZM200.772 327.8C201.252 327.8 201.645 327.657 201.952 327.37C202.258 327.083 202.412 326.71 202.412 326.25C202.412 325.677 202.258 325.23 201.952 324.91C201.652 324.59 201.255 324.43 200.762 324.43C200.295 324.43 199.915 324.583 199.622 324.89C199.328 325.197 199.182 325.6 199.182 326.1C199.182 326.62 199.325 327.033 199.612 327.34C199.898 327.647 200.285 327.8 200.772 327.8Z" fill="white"/>
<path opacity="0.6" d="M128.515 314.46C128.983 314.46 129.355 314.298 129.631 313.974C129.913 313.65 130.054 313.221 130.054 312.687V312.624C130.054 312.078 129.913 311.643 129.631 311.319C129.355 310.995 128.983 310.833 128.515 310.833C128.041 310.833 127.666 310.995 127.39 311.319C127.114 311.643 126.976 312.075 126.976 312.615V312.687C126.976 313.233 127.111 313.665 127.381 313.983C127.657 314.301 128.035 314.46 128.515 314.46ZM128.506 315.081C127.84 315.081 127.288 314.856 126.85 314.406C126.418 313.95 126.202 313.377 126.202 312.687V312.615C126.202 311.913 126.418 311.337 126.85 310.887C127.288 310.437 127.843 310.212 128.515 310.212C129.187 310.212 129.739 310.437 130.171 310.887C130.609 311.331 130.828 311.904 130.828 312.606V312.678C130.828 313.386 130.609 313.965 130.171 314.415C129.733 314.859 129.178 315.081 128.506 315.081ZM132.768 312.597V315H132.021V310.293H132.768V312.489L134.721 310.293H135.594L133.578 312.507L135.765 315H134.856L132.768 312.597ZM140.054 310.923H138.533V315H137.786V310.923H136.265V310.293H140.054V310.923ZM142.74 310.887C142.068 310.887 141.732 311.172 141.732 311.742V311.769C141.732 312.039 141.81 312.243 141.966 312.381C142.122 312.519 142.38 312.588 142.74 312.588H143.622V310.887H142.74ZM141.498 315H140.643L142.074 313.029C141.348 312.879 140.985 312.459 140.985 311.769V311.742C140.985 311.25 141.153 310.887 141.489 310.653C141.825 310.413 142.257 310.293 142.785 310.293H144.369V315H143.622V313.155H142.812L141.498 315ZM148 315.081C147.292 315.081 146.731 314.853 146.317 314.397C145.903 313.941 145.696 313.248 145.696 312.318V312.03C145.696 311.586 145.714 311.193 145.75 310.851C145.786 310.503 145.861 310.155 145.975 309.807C146.089 309.453 146.239 309.159 146.425 308.925C146.611 308.691 146.863 308.496 147.181 308.34C147.505 308.184 147.886 308.094 148.324 308.07L148.504 308.061C149.164 308.025 149.611 307.959 149.845 307.863L149.944 308.493C149.638 308.625 149.161 308.706 148.513 308.736L148.378 308.745C147.652 308.781 147.133 309.018 146.821 309.456C146.515 309.888 146.335 310.56 146.281 311.472H146.317C146.479 311.142 146.719 310.881 147.037 310.689C147.361 310.491 147.736 310.392 148.162 310.392C148.816 310.392 149.338 310.605 149.728 311.031C150.124 311.451 150.322 311.997 150.322 312.669V312.705C150.322 313.431 150.103 314.01 149.665 314.442C149.233 314.868 148.678 315.081 148 315.081ZM146.875 314.001C147.151 314.307 147.529 314.46 148.009 314.46C148.489 314.46 148.864 314.31 149.134 314.01C149.41 313.704 149.548 313.272 149.548 312.714V312.696C149.548 312.174 149.422 311.763 149.17 311.463C148.924 311.163 148.564 311.013 148.09 311.013C147.592 311.013 147.196 311.169 146.902 311.481C146.614 311.793 146.47 312.219 146.47 312.759V312.777C146.47 313.287 146.605 313.695 146.875 314.001ZM151.63 310.293H152.377V311.085C152.515 310.845 152.731 310.641 153.025 310.473C153.319 310.299 153.634 310.212 153.97 310.212C154.6 310.212 155.113 310.425 155.509 310.851C155.911 311.277 156.112 311.853 156.112 312.579V312.651C156.112 313.377 155.914 313.965 155.518 314.415C155.128 314.859 154.612 315.081 153.97 315.081C153.25 315.081 152.719 314.796 152.377 314.226V316.638H151.63V310.293ZM153.898 314.46C154.366 314.46 154.723 314.31 154.969 314.01C155.215 313.704 155.338 313.263 155.338 312.687V312.615C155.338 312.045 155.2 311.607 154.924 311.301C154.654 310.989 154.309 310.833 153.889 310.833C153.433 310.833 153.061 310.986 152.773 311.292C152.491 311.592 152.35 312.033 152.35 312.615V312.687C152.35 313.269 152.488 313.71 152.764 314.01C153.046 314.31 153.424 314.46 153.898 314.46ZM157.309 310.293H158.056V311.94H158.893C159.421 311.94 159.853 312.069 160.189 312.327C160.525 312.585 160.693 312.969 160.693 313.479V313.506C160.693 314.022 160.525 314.4 160.189 314.64C159.859 314.88 159.427 315 158.893 315H157.309V310.293ZM158.938 314.415C159.298 314.415 159.556 314.34 159.712 314.19C159.868 314.034 159.946 313.806 159.946 313.506V313.479C159.946 313.155 159.865 312.918 159.703 312.768C159.547 312.612 159.292 312.534 158.938 312.534H158.056V314.415H158.938Z" fill="white"/>
<path d="M126.098 330.8L128.938 327.81C129.625 327.083 129.968 326.393 129.968 325.74C129.968 325.34 129.855 325.027 129.628 324.8C129.408 324.573 129.095 324.46 128.688 324.46C127.822 324.46 127.318 324.99 127.178 326.05H126.368C126.422 325.343 126.652 324.787 127.058 324.38C127.472 323.967 128.015 323.76 128.688 323.76C129.348 323.76 129.872 323.943 130.258 324.31C130.652 324.67 130.848 325.157 130.848 325.77C130.848 326.557 130.368 327.423 129.408 328.37L127.438 330.29H130.888V331H126.098V330.8ZM135.064 330.37C136.324 330.37 136.954 329.447 136.954 327.6V327.2C136.954 326.367 136.784 325.703 136.444 325.21C136.104 324.71 135.637 324.46 135.044 324.46C134.437 324.46 133.964 324.7 133.624 325.18C133.284 325.66 133.114 326.34 133.114 327.22V327.62C133.114 328.507 133.287 329.187 133.634 329.66C133.98 330.133 134.457 330.37 135.064 330.37ZM135.064 331.09C134.21 331.09 133.524 330.773 133.004 330.14C132.484 329.507 132.224 328.67 132.224 327.63V327.23C132.224 326.17 132.474 325.327 132.974 324.7C133.48 324.073 134.17 323.76 135.044 323.76C135.91 323.76 136.59 324.077 137.084 324.71C137.584 325.343 137.834 326.177 137.834 327.21V327.61C137.834 328.663 137.587 329.507 137.094 330.14C136.607 330.773 135.93 331.09 135.064 331.09ZM140.587 324.71L138.987 325.86V325.05L140.647 323.85H141.457V331H140.587V324.71ZM145.909 331.09C145.502 331.09 145.115 331.017 144.749 330.87C144.382 330.717 144.072 330.473 143.819 330.14C143.565 329.807 143.439 329.417 143.439 328.97C143.439 328.51 143.562 328.123 143.809 327.81C144.055 327.497 144.382 327.267 144.789 327.12C144.069 326.833 143.709 326.333 143.709 325.62C143.709 325.073 143.929 324.627 144.369 324.28C144.815 323.933 145.329 323.76 145.909 323.76C146.489 323.76 146.999 323.933 147.439 324.28C147.879 324.62 148.099 325.06 148.099 325.6C148.099 326.287 147.732 326.79 146.999 327.11C147.912 327.45 148.369 328.063 148.369 328.95C148.369 329.623 148.122 330.15 147.629 330.53C147.142 330.903 146.569 331.09 145.909 331.09ZM145.909 330.38C146.369 330.38 146.745 330.253 147.039 330C147.332 329.74 147.479 329.38 147.479 328.92C147.479 328.473 147.329 328.127 147.029 327.88C146.735 327.627 146.369 327.5 145.929 327.5C145.475 327.5 145.095 327.627 144.789 327.88C144.482 328.127 144.329 328.48 144.329 328.94C144.329 329.387 144.482 329.74 144.789 330C145.095 330.253 145.469 330.38 145.909 330.38ZM145.939 326.81C146.325 326.81 146.635 326.703 146.869 326.49C147.102 326.277 147.219 325.983 147.219 325.61C147.219 325.27 147.095 324.99 146.849 324.77C146.602 324.55 146.289 324.44 145.909 324.44C145.522 324.44 145.205 324.547 144.959 324.76C144.712 324.973 144.589 325.263 144.589 325.63C144.589 325.99 144.719 326.277 144.979 326.49C145.239 326.703 145.559 326.81 145.939 326.81Z" fill="white"/>
<path opacity="0.6" d="M73.7419 315V310.293H74.4889V313.92L76.8919 310.293H77.6389V315H76.8919V311.373L74.4889 315H73.7419ZM82.8122 315.081C82.2122 315.081 81.7142 314.895 81.3182 314.523C80.9282 314.151 80.6972 313.662 80.6252 313.056C80.6132 312.972 80.6072 312.921 80.6072 312.903H79.8962V315H79.1492V310.293H79.8962V312.273H80.6162C80.6882 311.649 80.9192 311.151 81.3092 310.779C81.7052 310.401 82.2092 310.212 82.8212 310.212C83.4872 310.212 84.0242 310.434 84.4322 310.878C84.8402 311.322 85.0442 311.898 85.0442 312.606V312.678C85.0442 313.392 84.8372 313.971 84.4232 314.415C84.0152 314.859 83.4782 315.081 82.8122 315.081ZM82.8212 314.46C83.2832 314.46 83.6402 314.301 83.8922 313.983C84.1442 313.665 84.2702 313.233 84.2702 312.687V312.624C84.2702 312.072 84.1442 311.637 83.8922 311.319C83.6402 310.995 83.2832 310.833 82.8212 310.833C82.3532 310.833 81.9932 310.992 81.7412 311.31C81.4952 311.628 81.3722 312.063 81.3722 312.615V312.687C81.3722 313.239 81.4952 313.674 81.7412 313.992C81.9872 314.304 82.3472 314.46 82.8212 314.46ZM87.1529 313.182C87.0989 313.83 86.9849 314.304 86.8109 314.604C86.6369 314.898 86.3639 315.045 85.9919 315.045C85.9139 315.045 85.8329 315.039 85.7489 315.027L85.6769 315V314.289L85.7399 314.307C85.7999 314.319 85.8629 314.325 85.9289 314.325C86.0249 314.325 86.1029 314.298 86.1629 314.244C86.2289 314.184 86.2799 314.091 86.3159 313.965C86.3579 313.839 86.3879 313.722 86.4059 313.614C86.4239 313.5 86.4449 313.341 86.4689 313.137C86.4929 312.921 86.5289 312.309 86.5769 311.301L86.6039 310.293H89.7089V315H88.9619V310.923H87.2699C87.2159 312.219 87.1769 312.972 87.1529 313.182ZM91.3087 310.293H92.0557V311.94H92.8927C93.4207 311.94 93.8527 312.069 94.1887 312.327C94.5247 312.585 94.6927 312.969 94.6927 313.479V313.506C94.6927 314.022 94.5247 314.4 94.1887 314.64C93.8587 314.88 93.4267 315 92.8927 315H91.3087V310.293ZM92.9377 314.415C93.2977 314.415 93.5557 314.34 93.7117 314.19C93.8677 314.034 93.9457 313.806 93.9457 313.506V313.479C93.9457 313.155 93.8647 312.918 93.7027 312.768C93.5467 312.612 93.2917 312.534 92.9377 312.534H92.0557V314.415H92.9377Z" fill="white"/>
<path d="M73.0984 330.8L75.9384 327.81C76.6251 327.083 76.9684 326.393 76.9684 325.74C76.9684 325.34 76.8551 325.027 76.6284 324.8C76.4084 324.573 76.0951 324.46 75.6884 324.46C74.8218 324.46 74.3184 324.99 74.1784 326.05H73.3684C73.4218 325.343 73.6518 324.787 74.0584 324.38C74.4718 323.967 75.0151 323.76 75.6884 323.76C76.3484 323.76 76.8718 323.943 77.2584 324.31C77.6518 324.67 77.8484 325.157 77.8484 325.77C77.8484 326.557 77.3684 327.423 76.4084 328.37L74.4384 330.29H77.8884V331H73.0984V330.8ZM82.0637 330.37C83.3237 330.37 83.9537 329.447 83.9537 327.6V327.2C83.9537 326.367 83.7837 325.703 83.4437 325.21C83.1037 324.71 82.637 324.46 82.0437 324.46C81.437 324.46 80.9637 324.7 80.6237 325.18C80.2837 325.66 80.1137 326.34 80.1137 327.22V327.62C80.1137 328.507 80.287 329.187 80.6337 329.66C80.9803 330.133 81.457 330.37 82.0637 330.37ZM82.0637 331.09C81.2103 331.09 80.5237 330.773 80.0037 330.14C79.4837 329.507 79.2237 328.67 79.2237 327.63V327.23C79.2237 326.17 79.4737 325.327 79.9737 324.7C80.4803 324.073 81.1703 323.76 82.0437 323.76C82.9103 323.76 83.5903 324.077 84.0837 324.71C84.5837 325.343 84.8337 326.177 84.8337 327.21V327.61C84.8337 328.663 84.587 329.507 84.0937 330.14C83.607 330.773 82.9303 331.09 82.0637 331.09ZM87.5873 324.71L85.9873 325.86V325.05L87.6473 323.85H88.4573V331H87.5873V324.71ZM92.9086 331.09C92.5019 331.09 92.1153 331.017 91.7486 330.87C91.3819 330.717 91.0719 330.473 90.8186 330.14C90.5653 329.807 90.4386 329.417 90.4386 328.97C90.4386 328.51 90.5619 328.123 90.8086 327.81C91.0553 327.497 91.3819 327.267 91.7886 327.12C91.0686 326.833 90.7086 326.333 90.7086 325.62C90.7086 325.073 90.9286 324.627 91.3686 324.28C91.8153 323.933 92.3286 323.76 92.9086 323.76C93.4886 323.76 93.9986 323.933 94.4386 324.28C94.8786 324.62 95.0986 325.06 95.0986 325.6C95.0986 326.287 94.7319 326.79 93.9986 327.11C94.9119 327.45 95.3686 328.063 95.3686 328.95C95.3686 329.623 95.1219 330.15 94.6286 330.53C94.1419 330.903 93.5686 331.09 92.9086 331.09ZM92.9086 330.38C93.3686 330.38 93.7453 330.253 94.0386 330C94.3319 329.74 94.4786 329.38 94.4786 328.92C94.4786 328.473 94.3286 328.127 94.0286 327.88C93.7353 327.627 93.3686 327.5 92.9286 327.5C92.4753 327.5 92.0953 327.627 91.7886 327.88C91.4819 328.127 91.3286 328.48 91.3286 328.94C91.3286 329.387 91.4819 329.74 91.7886 330C92.0953 330.253 92.4686 330.38 92.9086 330.38ZM92.9386 326.81C93.3253 326.81 93.6353 326.703 93.8686 326.49C94.1019 326.277 94.2186 325.983 94.2186 325.61C94.2186 325.27 94.0953 324.99 93.8486 324.77C93.6019 324.55 93.2886 324.44 92.9086 324.44C92.5219 324.44 92.2053 324.547 91.9586 324.76C91.7119 324.973 91.5886 325.263 91.5886 325.63C91.5886 325.99 91.7186 326.277 91.9786 326.49C92.2386 326.703 92.5586 326.81 92.9386 326.81Z" fill="white"/>
<path opacity="0.6" d="M236.234 315.081C235.772 315.081 235.394 314.967 235.1 314.739C234.812 314.505 234.668 314.157 234.668 313.695C234.668 313.437 234.731 313.212 234.857 313.02C234.989 312.822 235.169 312.669 235.397 312.561C235.625 312.447 235.874 312.366 236.144 312.318C236.414 312.264 236.708 312.237 237.026 312.237H237.701V311.895C237.701 311.517 237.623 311.247 237.467 311.085C237.311 310.917 237.053 310.833 236.693 310.833C236.045 310.833 235.685 311.115 235.613 311.679H234.866C234.914 311.175 235.109 310.806 235.451 310.572C235.799 310.332 236.225 310.212 236.729 310.212C237.875 310.212 238.448 310.773 238.448 311.895V315H237.701V314.406C237.341 314.856 236.852 315.081 236.234 315.081ZM236.306 314.487C236.714 314.487 237.047 314.388 237.305 314.19C237.569 313.986 237.701 313.707 237.701 313.353V312.768H237.053C235.961 312.768 235.415 313.077 235.415 313.695C235.415 314.223 235.712 314.487 236.306 314.487ZM242.922 310.923H240.699V315H239.952V310.293H243.669V315H242.922V310.923ZM245.325 310.293H246.072V311.085C246.21 310.845 246.426 310.641 246.72 310.473C247.014 310.299 247.329 310.212 247.665 310.212C248.295 310.212 248.808 310.425 249.204 310.851C249.606 311.277 249.807 311.853 249.807 312.579V312.651C249.807 313.377 249.609 313.965 249.213 314.415C248.823 314.859 248.307 315.081 247.665 315.081C246.945 315.081 246.414 314.796 246.072 314.226V316.638H245.325V310.293ZM247.593 314.46C248.061 314.46 248.418 314.31 248.664 314.01C248.91 313.704 249.033 313.263 249.033 312.687V312.615C249.033 312.045 248.895 311.607 248.619 311.301C248.349 310.989 248.004 310.833 247.584 310.833C247.128 310.833 246.756 310.986 246.468 311.292C246.186 311.592 246.045 312.033 246.045 312.615V312.687C246.045 313.269 246.183 313.71 246.459 314.01C246.741 314.31 247.119 314.46 247.593 314.46ZM252.984 315.081C252.312 315.081 251.763 314.862 251.337 314.424C250.917 313.986 250.707 313.41 250.707 312.696V312.624C250.707 311.916 250.911 311.337 251.319 310.887C251.733 310.437 252.264 310.212 252.912 310.212C253.512 310.212 254.013 310.407 254.415 310.797C254.823 311.181 255.027 311.766 255.027 312.552V312.795H251.481C251.517 313.905 252.021 314.46 252.993 314.46C253.731 314.46 254.148 314.187 254.244 313.641H254.991C254.907 314.109 254.688 314.466 254.334 314.712C253.98 314.958 253.53 315.081 252.984 315.081ZM254.262 312.192C254.196 311.286 253.746 310.833 252.912 310.833C252.534 310.833 252.222 310.953 251.976 311.193C251.73 311.433 251.574 311.766 251.508 312.192H254.262ZM257.153 313.182C257.099 313.83 256.985 314.304 256.811 314.604C256.637 314.898 256.364 315.045 255.992 315.045C255.914 315.045 255.833 315.039 255.749 315.027L255.677 315V314.289L255.74 314.307C255.8 314.319 255.863 314.325 255.929 314.325C256.025 314.325 256.103 314.298 256.163 314.244C256.229 314.184 256.28 314.091 256.316 313.965C256.358 313.839 256.388 313.722 256.406 313.614C256.424 313.5 256.445 313.341 256.469 313.137C256.493 312.921 256.529 312.309 256.577 311.301L256.604 310.293H259.709V315H258.962V310.923H257.27C257.216 312.219 257.177 312.972 257.153 313.182ZM261.309 310.293H262.056V311.94H262.893C263.421 311.94 263.853 312.069 264.189 312.327C264.525 312.585 264.693 312.969 264.693 313.479V313.506C264.693 314.022 264.525 314.4 264.189 314.64C263.859 314.88 263.427 315 262.893 315H261.309V310.293ZM262.938 314.415C263.298 314.415 263.556 314.34 263.712 314.19C263.868 314.034 263.946 313.806 263.946 313.506V313.479C263.946 313.155 263.865 312.918 263.703 312.768C263.547 312.612 263.292 312.534 262.938 312.534H262.056V314.415H262.938Z" fill="white"/>
<path d="M235.069 330.8L237.909 327.81C238.596 327.083 238.939 326.393 238.939 325.74C238.939 325.34 238.826 325.027 238.599 324.8C238.379 324.573 238.066 324.46 237.659 324.46C236.792 324.46 236.289 324.99 236.149 326.05H235.339C235.392 325.343 235.622 324.787 236.029 324.38C236.442 323.967 236.986 323.76 237.659 323.76C238.319 323.76 238.842 323.943 239.229 324.31C239.622 324.67 239.819 325.157 239.819 325.77C239.819 326.557 239.339 327.423 238.379 328.37L236.409 330.29H239.859V331H235.069V330.8ZM244.034 330.37C245.294 330.37 245.924 329.447 245.924 327.6V327.2C245.924 326.367 245.754 325.703 245.414 325.21C245.074 324.71 244.608 324.46 244.014 324.46C243.408 324.46 242.934 324.7 242.594 325.18C242.254 325.66 242.084 326.34 242.084 327.22V327.62C242.084 328.507 242.258 329.187 242.604 329.66C242.951 330.133 243.428 330.37 244.034 330.37ZM244.034 331.09C243.181 331.09 242.494 330.773 241.974 330.14C241.454 329.507 241.194 328.67 241.194 327.63V327.23C241.194 326.17 241.444 325.327 241.944 324.7C242.451 324.073 243.141 323.76 244.014 323.76C244.881 323.76 245.561 324.077 246.054 324.71C246.554 325.343 246.804 326.177 246.804 327.21V327.61C246.804 328.663 246.558 329.507 246.064 330.14C245.578 330.773 244.901 331.09 244.034 331.09ZM249.558 324.71L247.958 325.86V325.05L249.618 323.85H250.428V331H249.558V324.71ZM254.642 331.08C253.988 331.08 253.465 330.92 253.072 330.6C252.678 330.28 252.435 329.827 252.342 329.24H253.182C253.268 329.613 253.425 329.897 253.652 330.09C253.885 330.277 254.222 330.37 254.662 330.37C255.242 330.37 255.688 330.133 256.002 329.66C256.315 329.187 256.478 328.477 256.492 327.53C256.312 327.83 256.062 328.063 255.742 328.23C255.422 328.397 255.055 328.48 254.642 328.48C253.948 328.48 253.382 328.26 252.942 327.82C252.508 327.38 252.292 326.82 252.292 326.14C252.292 325.42 252.515 324.843 252.962 324.41C253.408 323.97 254.008 323.75 254.762 323.75C255.608 323.75 256.248 324.023 256.682 324.57C257.115 325.117 257.332 325.91 257.332 326.95V327.4C257.332 328.593 257.098 329.507 256.632 330.14C256.172 330.767 255.508 331.08 254.642 331.08ZM254.772 327.8C255.252 327.8 255.645 327.657 255.952 327.37C256.258 327.083 256.412 326.71 256.412 326.25C256.412 325.677 256.258 325.23 255.952 324.91C255.652 324.59 255.255 324.43 254.762 324.43C254.295 324.43 253.915 324.583 253.622 324.89C253.328 325.197 253.182 325.6 253.182 326.1C253.182 326.62 253.325 327.033 253.612 327.34C253.898 327.647 254.285 327.8 254.772 327.8Z" fill="white"/>
<path opacity="0.6" d="M291.892 310.221C292.594 310.257 293.17 310.482 293.62 310.896C294.076 311.31 294.304 311.88 294.304 312.606V312.678C294.304 313.41 294.079 313.983 293.629 314.397C293.179 314.811 292.6 315.036 291.892 315.072V316.638H291.154V315.072C290.452 315.036 289.873 314.811 289.417 314.397C288.967 313.983 288.742 313.413 288.742 312.687V312.615C288.742 311.883 288.967 311.31 289.417 310.896C289.867 310.482 290.446 310.257 291.154 310.221V308.043H291.892V310.221ZM291.154 310.788C290.668 310.812 290.272 310.983 289.966 311.301C289.66 311.613 289.507 312.048 289.507 312.606V312.669C289.507 313.239 289.66 313.683 289.966 314.001C290.272 314.319 290.668 314.484 291.154 314.496V310.788ZM291.892 314.505C292.378 314.493 292.774 314.328 293.08 314.01C293.386 313.686 293.539 313.245 293.539 312.687V312.624C293.539 312.048 293.386 311.607 293.08 311.301C292.78 310.989 292.384 310.821 291.892 310.797V314.505ZM297.535 315.081C296.863 315.081 296.314 314.862 295.888 314.424C295.468 313.986 295.258 313.41 295.258 312.696V312.624C295.258 311.916 295.462 311.337 295.87 310.887C296.284 310.437 296.815 310.212 297.463 310.212C298.063 310.212 298.564 310.407 298.966 310.797C299.374 311.181 299.578 311.766 299.578 312.552V312.795H296.032C296.068 313.905 296.572 314.46 297.544 314.46C298.282 314.46 298.699 314.187 298.795 313.641H299.542C299.458 314.109 299.239 314.466 298.885 314.712C298.531 314.958 298.081 315.081 297.535 315.081ZM298.813 312.192C298.747 311.286 298.297 310.833 297.463 310.833C297.085 310.833 296.773 310.953 296.527 311.193C296.281 311.433 296.125 311.766 296.059 312.192H298.813ZM300.76 310.293H302.407C303.511 310.293 304.063 310.692 304.063 311.49V311.517C304.063 311.745 304 311.955 303.874 312.147C303.748 312.333 303.559 312.459 303.307 312.525C303.961 312.669 304.288 313.023 304.288 313.587V313.614C304.288 314.07 304.138 314.415 303.838 314.649C303.544 314.883 303.133 315 302.605 315H300.76V310.293ZM301.507 310.887V312.282H302.407C302.719 312.282 302.941 312.225 303.073 312.111C303.211 311.997 303.28 311.811 303.28 311.553V311.526C303.28 311.286 303.208 311.121 303.064 311.031C302.926 310.935 302.704 310.887 302.398 310.887H301.507ZM301.507 312.876V314.406H302.533C302.863 314.406 303.106 314.349 303.262 314.235C303.424 314.115 303.505 313.923 303.505 313.659V313.632C303.505 313.368 303.424 313.176 303.262 313.056C303.106 312.936 302.863 312.876 302.533 312.876H301.507ZM305.624 310.293H306.371V311.085C306.509 310.845 306.725 310.641 307.019 310.473C307.313 310.299 307.628 310.212 307.964 310.212C308.594 310.212 309.107 310.425 309.503 310.851C309.905 311.277 310.106 311.853 310.106 312.579V312.651C310.106 313.377 309.908 313.965 309.512 314.415C309.122 314.859 308.606 315.081 307.964 315.081C307.244 315.081 306.713 314.796 306.371 314.226V316.638H305.624V310.293ZM307.892 314.46C308.36 314.46 308.717 314.31 308.963 314.01C309.209 313.704 309.332 313.263 309.332 312.687V312.615C309.332 312.045 309.194 311.607 308.918 311.301C308.648 310.989 308.303 310.833 307.883 310.833C307.427 310.833 307.055 310.986 306.767 311.292C306.485 311.592 306.344 312.033 306.344 312.615V312.687C306.344 313.269 306.482 313.71 306.758 314.01C307.04 314.31 307.418 314.46 307.892 314.46ZM312.536 315.081C312.074 315.081 311.696 314.967 311.402 314.739C311.114 314.505 310.97 314.157 310.97 313.695C310.97 313.437 311.033 313.212 311.159 313.02C311.291 312.822 311.471 312.669 311.699 312.561C311.927 312.447 312.176 312.366 312.446 312.318C312.716 312.264 313.01 312.237 313.328 312.237H314.003V311.895C314.003 311.517 313.925 311.247 313.769 311.085C313.613 310.917 313.355 310.833 312.995 310.833C312.347 310.833 311.987 311.115 311.915 311.679H311.168C311.216 311.175 311.411 310.806 311.753 310.572C312.101 310.332 312.527 310.212 313.031 310.212C314.177 310.212 314.75 310.773 314.75 311.895V315H314.003V314.406C313.643 314.856 313.154 315.081 312.536 315.081ZM312.608 314.487C313.016 314.487 313.349 314.388 313.607 314.19C313.871 313.986 314.003 313.707 314.003 313.353V312.768H313.355C312.263 312.768 311.717 313.077 311.717 313.695C311.717 314.223 312.014 314.487 312.608 314.487ZM317.153 313.182C317.099 313.83 316.985 314.304 316.811 314.604C316.637 314.898 316.364 315.045 315.992 315.045C315.914 315.045 315.833 315.039 315.749 315.027L315.677 315V314.289L315.74 314.307C315.8 314.319 315.863 314.325 315.929 314.325C316.025 314.325 316.103 314.298 316.163 314.244C316.229 314.184 316.28 314.091 316.316 313.965C316.358 313.839 316.388 313.722 316.406 313.614C316.424 313.5 316.445 313.341 316.469 313.137C316.493 312.921 316.529 312.309 316.577 311.301L316.604 310.293H319.709V315H318.962V310.923H317.27C317.216 312.219 317.177 312.972 317.153 313.182ZM321.309 310.293H322.056V311.94H322.893C323.421 311.94 323.853 312.069 324.189 312.327C324.525 312.585 324.693 312.969 324.693 313.479V313.506C324.693 314.022 324.525 314.4 324.189 314.64C323.859 314.88 323.427 315 322.893 315H321.309V310.293ZM322.938 314.415C323.298 314.415 323.556 314.34 323.712 314.19C323.868 314.034 323.946 313.806 323.946 313.506V313.479C323.946 313.155 323.865 312.918 323.703 312.768C323.547 312.612 323.292 312.534 322.938 312.534H322.056V314.415H322.938Z" fill="white"/>
<path d="M288.852 330.8L291.692 327.81C292.379 327.083 292.722 326.393 292.722 325.74C292.722 325.34 292.609 325.027 292.382 324.8C292.162 324.573 291.849 324.46 291.442 324.46C290.576 324.46 290.072 324.99 289.932 326.05H289.122C289.176 325.343 289.406 324.787 289.812 324.38C290.226 323.967 290.769 323.76 291.442 323.76C292.102 323.76 292.626 323.943 293.012 324.31C293.406 324.67 293.602 325.157 293.602 325.77C293.602 326.557 293.122 327.423 292.162 328.37L290.192 330.29H293.642V331H288.852V330.8ZM297.818 330.37C299.078 330.37 299.708 329.447 299.708 327.6V327.2C299.708 326.367 299.538 325.703 299.198 325.21C298.858 324.71 298.391 324.46 297.798 324.46C297.191 324.46 296.718 324.7 296.378 325.18C296.038 325.66 295.868 326.34 295.868 327.22V327.62C295.868 328.507 296.041 329.187 296.388 329.66C296.734 330.133 297.211 330.37 297.818 330.37ZM297.818 331.09C296.964 331.09 296.278 330.773 295.758 330.14C295.238 329.507 294.978 328.67 294.978 327.63V327.23C294.978 326.17 295.228 325.327 295.728 324.7C296.234 324.073 296.924 323.76 297.798 323.76C298.664 323.76 299.344 324.077 299.838 324.71C300.338 325.343 300.588 326.177 300.588 327.21V327.61C300.588 328.663 300.341 329.507 299.848 330.14C299.361 330.773 298.684 331.09 297.818 331.09ZM301.601 330.8L304.441 327.81C305.128 327.083 305.471 326.393 305.471 325.74C305.471 325.34 305.358 325.027 305.131 324.8C304.911 324.573 304.598 324.46 304.191 324.46C303.325 324.46 302.821 324.99 302.681 326.05H301.871C301.925 325.343 302.155 324.787 302.561 324.38C302.975 323.967 303.518 323.76 304.191 323.76C304.851 323.76 305.375 323.943 305.761 324.31C306.155 324.67 306.351 325.157 306.351 325.77C306.351 326.557 305.871 327.423 304.911 328.37L302.941 330.29H306.391V331H301.601V330.8ZM310.566 330.37C311.826 330.37 312.456 329.447 312.456 327.6V327.2C312.456 326.367 312.286 325.703 311.946 325.21C311.606 324.71 311.14 324.46 310.546 324.46C309.94 324.46 309.466 324.7 309.126 325.18C308.786 325.66 308.616 326.34 308.616 327.22V327.62C308.616 328.507 308.79 329.187 309.136 329.66C309.483 330.133 309.96 330.37 310.566 330.37ZM310.566 331.09C309.713 331.09 309.026 330.773 308.506 330.14C307.986 329.507 307.726 328.67 307.726 327.63V327.23C307.726 326.17 307.976 325.327 308.476 324.7C308.983 324.073 309.673 323.76 310.546 323.76C311.413 323.76 312.093 324.077 312.586 324.71C313.086 325.343 313.336 326.177 313.336 327.21V327.61C313.336 328.663 313.09 329.507 312.596 330.14C312.11 330.773 311.433 331.09 310.566 331.09Z" fill="white"/>
<path opacity="0.6" d="M343.742 315V310.293H344.489V313.92L346.892 310.293H347.639V315H346.892V311.373L344.489 315H343.742ZM352.812 315.081C352.212 315.081 351.714 314.895 351.318 314.523C350.928 314.151 350.697 313.662 350.625 313.056C350.613 312.972 350.607 312.921 350.607 312.903H349.896V315H349.149V310.293H349.896V312.273H350.616C350.688 311.649 350.919 311.151 351.309 310.779C351.705 310.401 352.209 310.212 352.821 310.212C353.487 310.212 354.024 310.434 354.432 310.878C354.84 311.322 355.044 311.898 355.044 312.606V312.678C355.044 313.392 354.837 313.971 354.423 314.415C354.015 314.859 353.478 315.081 352.812 315.081ZM352.821 314.46C353.283 314.46 353.64 314.301 353.892 313.983C354.144 313.665 354.27 313.233 354.27 312.687V312.624C354.27 312.072 354.144 311.637 353.892 311.319C353.64 310.995 353.283 310.833 352.821 310.833C352.353 310.833 351.993 310.992 351.741 311.31C351.495 311.628 351.372 312.063 351.372 312.615V312.687C351.372 313.239 351.495 313.674 351.741 313.992C351.987 314.304 352.347 314.46 352.821 314.46ZM357.153 313.182C357.099 313.83 356.985 314.304 356.811 314.604C356.637 314.898 356.364 315.045 355.992 315.045C355.914 315.045 355.833 315.039 355.749 315.027L355.677 315V314.289L355.74 314.307C355.8 314.319 355.863 314.325 355.929 314.325C356.025 314.325 356.103 314.298 356.163 314.244C356.229 314.184 356.28 314.091 356.316 313.965C356.358 313.839 356.388 313.722 356.406 313.614C356.424 313.5 356.445 313.341 356.469 313.137C356.493 312.921 356.529 312.309 356.577 311.301L356.604 310.293H359.709V315H358.962V310.923H357.27C357.216 312.219 357.177 312.972 357.153 313.182ZM361.309 310.293H362.056V311.94H362.893C363.421 311.94 363.853 312.069 364.189 312.327C364.525 312.585 364.693 312.969 364.693 313.479V313.506C364.693 314.022 364.525 314.4 364.189 314.64C363.859 314.88 363.427 315 362.893 315H361.309V310.293ZM362.938 314.415C363.298 314.415 363.556 314.34 363.712 314.19C363.868 314.034 363.946 313.806 363.946 313.506V313.479C363.946 313.155 363.865 312.918 363.703 312.768C363.547 312.612 363.292 312.534 362.938 312.534H362.056V314.415H362.938Z" fill="white"/>
<path d="M342.852 330.8L345.692 327.81C346.379 327.083 346.722 326.393 346.722 325.74C346.722 325.34 346.609 325.027 346.382 324.8C346.162 324.573 345.849 324.46 345.442 324.46C344.576 324.46 344.072 324.99 343.932 326.05H343.122C343.176 325.343 343.406 324.787 343.812 324.38C344.226 323.967 344.769 323.76 345.442 323.76C346.102 323.76 346.626 323.943 347.012 324.31C347.406 324.67 347.602 325.157 347.602 325.77C347.602 326.557 347.122 327.423 346.162 328.37L344.192 330.29H347.642V331H342.852V330.8ZM351.818 330.37C353.078 330.37 353.708 329.447 353.708 327.6V327.2C353.708 326.367 353.538 325.703 353.198 325.21C352.858 324.71 352.391 324.46 351.798 324.46C351.191 324.46 350.718 324.7 350.378 325.18C350.038 325.66 349.868 326.34 349.868 327.22V327.62C349.868 328.507 350.041 329.187 350.388 329.66C350.734 330.133 351.211 330.37 351.818 330.37ZM351.818 331.09C350.964 331.09 350.278 330.773 349.758 330.14C349.238 329.507 348.978 328.67 348.978 327.63V327.23C348.978 326.17 349.228 325.327 349.728 324.7C350.234 324.073 350.924 323.76 351.798 323.76C352.664 323.76 353.344 324.077 353.838 324.71C354.338 325.343 354.588 326.177 354.588 327.21V327.61C354.588 328.663 354.341 329.507 353.848 330.14C353.361 330.773 352.684 331.09 351.818 331.09ZM355.601 330.8L358.441 327.81C359.128 327.083 359.471 326.393 359.471 325.74C359.471 325.34 359.358 325.027 359.131 324.8C358.911 324.573 358.598 324.46 358.191 324.46C357.325 324.46 356.821 324.99 356.681 326.05H355.871C355.925 325.343 356.155 324.787 356.561 324.38C356.975 323.967 357.518 323.76 358.191 323.76C358.851 323.76 359.375 323.943 359.761 324.31C360.155 324.67 360.351 325.157 360.351 325.77C360.351 326.557 359.871 327.423 358.911 328.37L356.941 330.29H360.391V331H355.601V330.8ZM364.566 330.37C365.826 330.37 366.456 329.447 366.456 327.6V327.2C366.456 326.367 366.286 325.703 365.946 325.21C365.606 324.71 365.14 324.46 364.546 324.46C363.94 324.46 363.466 324.7 363.126 325.18C362.786 325.66 362.616 326.34 362.616 327.22V327.62C362.616 328.507 362.79 329.187 363.136 329.66C363.483 330.133 363.96 330.37 364.566 330.37ZM364.566 331.09C363.713 331.09 363.026 330.773 362.506 330.14C361.986 329.507 361.726 328.67 361.726 327.63V327.23C361.726 326.17 361.976 325.327 362.476 324.7C362.983 324.073 363.673 323.76 364.546 323.76C365.413 323.76 366.093 324.077 366.586 324.71C367.086 325.343 367.336 326.177 367.336 327.21V327.61C367.336 328.663 367.09 329.507 366.596 330.14C366.11 330.773 365.433 331.09 364.566 331.09Z" fill="white"/>
<path opacity="0.6" d="M400.923 315.081C400.251 315.081 399.699 314.865 399.267 314.433C398.835 313.995 398.619 313.416 398.619 312.696V312.624C398.619 311.916 398.838 311.337 399.276 310.887C399.72 310.437 400.263 310.212 400.905 310.212C401.445 310.212 401.904 310.347 402.282 310.617C402.66 310.881 402.882 311.295 402.948 311.859H402.21C402.102 311.175 401.667 310.833 400.905 310.833C400.467 310.833 400.104 310.998 399.816 311.328C399.534 311.652 399.393 312.084 399.393 312.624V312.696C399.393 313.26 399.531 313.695 399.807 314.001C400.089 314.307 400.464 314.46 400.932 314.46C401.286 314.46 401.589 314.361 401.841 314.163C402.099 313.959 402.246 313.674 402.282 313.308H402.975C402.927 313.824 402.711 314.25 402.327 314.586C401.949 314.916 401.481 315.081 400.923 315.081ZM406.119 315.081C405.447 315.081 404.898 314.862 404.472 314.424C404.052 313.986 403.842 313.41 403.842 312.696V312.624C403.842 311.916 404.046 311.337 404.454 310.887C404.868 310.437 405.399 310.212 406.047 310.212C406.647 310.212 407.148 310.407 407.55 310.797C407.958 311.181 408.162 311.766 408.162 312.552V312.795H404.616C404.652 313.905 405.156 314.46 406.128 314.46C406.866 314.46 407.283 314.187 407.379 313.641H408.126C408.042 314.109 407.823 314.466 407.469 314.712C407.115 314.958 406.665 315.081 406.119 315.081ZM407.397 312.192C407.331 311.286 406.881 310.833 406.047 310.833C405.669 310.833 405.357 310.953 405.111 311.193C404.865 311.433 404.709 311.766 404.643 312.192H407.397ZM412.404 312.903H410.091V315H409.344V310.293H410.091V312.273H412.404V310.293H413.151V315H412.404V312.903ZM418.054 310.923H416.533V315H415.786V310.923H414.265V310.293H418.054V310.923ZM420.74 310.887C420.068 310.887 419.732 311.172 419.732 311.742V311.769C419.732 312.039 419.81 312.243 419.966 312.381C420.122 312.519 420.38 312.588 420.74 312.588H421.622V310.887H420.74ZM419.498 315H418.643L420.074 313.029C419.348 312.879 418.985 312.459 418.985 311.769V311.742C418.985 311.25 419.153 310.887 419.489 310.653C419.825 310.413 420.257 310.293 420.785 310.293H422.369V315H421.622V313.155H420.812L419.498 315ZM426 315.081C425.292 315.081 424.731 314.853 424.317 314.397C423.903 313.941 423.696 313.248 423.696 312.318V312.03C423.696 311.586 423.714 311.193 423.75 310.851C423.786 310.503 423.861 310.155 423.975 309.807C424.089 309.453 424.239 309.159 424.425 308.925C424.611 308.691 424.863 308.496 425.181 308.34C425.505 308.184 425.886 308.094 426.324 308.07L426.504 308.061C427.164 308.025 427.611 307.959 427.845 307.863L427.944 308.493C427.638 308.625 427.161 308.706 426.513 308.736L426.378 308.745C425.652 308.781 425.133 309.018 424.821 309.456C424.515 309.888 424.335 310.56 424.281 311.472H424.317C424.479 311.142 424.719 310.881 425.037 310.689C425.361 310.491 425.736 310.392 426.162 310.392C426.816 310.392 427.338 310.605 427.728 311.031C428.124 311.451 428.322 311.997 428.322 312.669V312.705C428.322 313.431 428.103 314.01 427.665 314.442C427.233 314.868 426.678 315.081 426 315.081ZM424.875 314.001C425.151 314.307 425.529 314.46 426.009 314.46C426.489 314.46 426.864 314.31 427.134 314.01C427.41 313.704 427.548 313.272 427.548 312.714V312.696C427.548 312.174 427.422 311.763 427.17 311.463C426.924 311.163 426.564 311.013 426.09 311.013C425.592 311.013 425.196 311.169 424.902 311.481C424.614 311.793 424.47 312.219 424.47 312.759V312.777C424.47 313.287 424.605 313.695 424.875 314.001ZM429.63 310.293H430.377V311.085C430.515 310.845 430.731 310.641 431.025 310.473C431.319 310.299 431.634 310.212 431.97 310.212C432.6 310.212 433.113 310.425 433.509 310.851C433.911 311.277 434.112 311.853 434.112 312.579V312.651C434.112 313.377 433.914 313.965 433.518 314.415C433.128 314.859 432.612 315.081 431.97 315.081C431.25 315.081 430.719 314.796 430.377 314.226V316.638H429.63V310.293ZM431.898 314.46C432.366 314.46 432.723 314.31 432.969 314.01C433.215 313.704 433.338 313.263 433.338 312.687V312.615C433.338 312.045 433.2 311.607 432.924 311.301C432.654 310.989 432.309 310.833 431.889 310.833C431.433 310.833 431.061 310.986 430.773 311.292C430.491 311.592 430.35 312.033 430.35 312.615V312.687C430.35 313.269 430.488 313.71 430.764 314.01C431.046 314.31 431.424 314.46 431.898 314.46ZM435.309 310.293H436.056V311.94H436.893C437.421 311.94 437.853 312.069 438.189 312.327C438.525 312.585 438.693 312.969 438.693 313.479V313.506C438.693 314.022 438.525 314.4 438.189 314.64C437.859 314.88 437.427 315 436.893 315H435.309V310.293ZM436.938 314.415C437.298 314.415 437.556 314.34 437.712 314.19C437.868 314.034 437.946 313.806 437.946 313.506V313.479C437.946 313.155 437.865 312.918 437.703 312.768C437.547 312.612 437.292 312.534 436.938 312.534H436.056V314.415H436.938Z" fill="white"/>
<path d="M398.852 330.8L401.692 327.81C402.379 327.083 402.722 326.393 402.722 325.74C402.722 325.34 402.609 325.027 402.382 324.8C402.162 324.573 401.849 324.46 401.442 324.46C400.576 324.46 400.072 324.99 399.932 326.05H399.122C399.176 325.343 399.406 324.787 399.812 324.38C400.226 323.967 400.769 323.76 401.442 323.76C402.102 323.76 402.626 323.943 403.012 324.31C403.406 324.67 403.602 325.157 403.602 325.77C403.602 326.557 403.122 327.423 402.162 328.37L400.192 330.29H403.642V331H398.852V330.8ZM407.818 330.37C409.078 330.37 409.708 329.447 409.708 327.6V327.2C409.708 326.367 409.538 325.703 409.198 325.21C408.858 324.71 408.391 324.46 407.798 324.46C407.191 324.46 406.718 324.7 406.378 325.18C406.038 325.66 405.868 326.34 405.868 327.22V327.62C405.868 328.507 406.041 329.187 406.388 329.66C406.734 330.133 407.211 330.37 407.818 330.37ZM407.818 331.09C406.964 331.09 406.278 330.773 405.758 330.14C405.238 329.507 404.978 328.67 404.978 327.63V327.23C404.978 326.17 405.228 325.327 405.728 324.7C406.234 324.073 406.924 323.76 407.798 323.76C408.664 323.76 409.344 324.077 409.838 324.71C410.338 325.343 410.588 326.177 410.588 327.21V327.61C410.588 328.663 410.341 329.507 409.848 330.14C409.361 330.773 408.684 331.09 407.818 331.09ZM411.601 330.8L414.441 327.81C415.128 327.083 415.471 326.393 415.471 325.74C415.471 325.34 415.358 325.027 415.131 324.8C414.911 324.573 414.598 324.46 414.191 324.46C413.325 324.46 412.821 324.99 412.681 326.05H411.871C411.925 325.343 412.155 324.787 412.561 324.38C412.975 323.967 413.518 323.76 414.191 323.76C414.851 323.76 415.375 323.943 415.761 324.31C416.155 324.67 416.351 325.157 416.351 325.77C416.351 326.557 415.871 327.423 414.911 328.37L412.941 330.29H416.391V331H411.601V330.8ZM420.566 330.37C421.826 330.37 422.456 329.447 422.456 327.6V327.2C422.456 326.367 422.286 325.703 421.946 325.21C421.606 324.71 421.14 324.46 420.546 324.46C419.94 324.46 419.466 324.7 419.126 325.18C418.786 325.66 418.616 326.34 418.616 327.22V327.62C418.616 328.507 418.79 329.187 419.136 329.66C419.483 330.133 419.96 330.37 420.566 330.37ZM420.566 331.09C419.713 331.09 419.026 330.773 418.506 330.14C417.986 329.507 417.726 328.67 417.726 327.63V327.23C417.726 326.17 417.976 325.327 418.476 324.7C418.983 324.073 419.673 323.76 420.546 323.76C421.413 323.76 422.093 324.077 422.586 324.71C423.086 325.343 423.336 326.177 423.336 327.21V327.61C423.336 328.663 423.09 329.507 422.596 330.14C422.11 330.773 421.433 331.09 420.566 331.09Z" fill="white"/>
<path d="M0.25 232.8L3.09 229.81C3.77667 229.083 4.12 228.393 4.12 227.74C4.12 227.34 4.00667 227.027 3.78 226.8C3.56 226.573 3.24667 226.46 2.84 226.46C1.97333 226.46 1.47 226.99 1.33 228.05H0.52C0.573333 227.343 0.803333 226.787 1.21 226.38C1.62333 225.967 2.16667 225.76 2.84 225.76C3.5 225.76 4.02333 225.943 4.41 226.31C4.80333 226.67 5 227.157 5 227.77C5 228.557 4.52 229.423 3.56 230.37L1.59 232.29H5.04V233H0.25V232.8ZM8.89641 233.09C7.18307 233.09 6.32641 232.007 6.32641 229.84V229.67C6.32641 228.417 6.57974 227.453 7.08641 226.78C7.59974 226.1 8.27974 225.76 9.12641 225.76C9.69974 225.76 10.1664 225.907 10.5264 226.2C10.8931 226.493 11.1231 226.923 11.2164 227.49H10.3864C10.3064 227.143 10.1631 226.887 9.95641 226.72C9.74974 226.553 9.45307 226.47 9.06641 226.47C8.51307 226.47 8.06641 226.717 7.72641 227.21C7.38641 227.703 7.20641 228.41 7.18641 229.33C7.57307 228.683 8.18641 228.36 9.02641 228.36C9.72641 228.36 10.2897 228.583 10.7164 229.03C11.1497 229.47 11.3664 230.027 11.3664 230.7C11.3664 231.42 11.1431 232 10.6964 232.44C10.2497 232.873 9.64974 233.09 8.89641 233.09ZM8.89641 232.41C9.36307 232.41 9.74307 232.257 10.0364 231.95C10.3297 231.643 10.4764 231.24 10.4764 230.74C10.4764 230.22 10.3331 229.807 10.0464 229.5C9.75974 229.193 9.37307 229.04 8.88641 229.04C8.40641 229.04 8.01307 229.187 7.70641 229.48C7.39974 229.773 7.24641 230.153 7.24641 230.62C7.24641 231.187 7.39641 231.627 7.69641 231.94C8.00307 232.253 8.40307 232.41 8.89641 232.41ZM15.5262 232.37C16.7862 232.37 17.4162 231.447 17.4162 229.6V229.2C17.4162 228.367 17.2462 227.703 16.9062 227.21C16.5662 226.71 16.0995 226.46 15.5062 226.46C14.8995 226.46 14.4262 226.7 14.0862 227.18C13.7462 227.66 13.5762 228.34 13.5762 229.22V229.62C13.5762 230.507 13.7495 231.187 14.0962 231.66C14.4428 232.133 14.9195 232.37 15.5262 232.37ZM15.5262 233.09C14.6728 233.09 13.9862 232.773 13.4662 232.14C12.9462 231.507 12.6862 230.67 12.6862 229.63V229.23C12.6862 228.17 12.9362 227.327 13.4362 226.7C13.9428 226.073 14.6328 225.76 15.5062 225.76C16.3728 225.76 17.0528 226.077 17.5462 226.71C18.0462 227.343 18.2962 228.177 18.2962 229.21V229.61C18.2962 230.663 18.0495 231.507 17.5562 232.14C17.0695 232.773 16.3928 233.09 15.5262 233.09Z" fill="white"/>
<path d="M2.96 185.09C2.22 185.09 1.62333 184.883 1.17 184.47C0.723333 184.057 0.486667 183.53 0.46 182.89H1.26C1.3 183.343 1.46333 183.707 1.75 183.98C2.03667 184.253 2.44667 184.39 2.98 184.39C3.52667 184.39 3.93333 184.27 4.2 184.03C4.47333 183.783 4.61 183.443 4.61 183.01C4.61 182.083 4.10667 181.62 3.1 181.62H2.56V180.89H3.06C3.95333 180.89 4.4 180.483 4.4 179.67C4.4 179.317 4.29 179.03 4.07 178.81C3.85 178.583 3.52667 178.47 3.1 178.47C2.66 178.47 2.29667 178.593 2.01 178.84C1.73 179.087 1.56667 179.413 1.52 179.82H0.76C0.786667 179.247 1.01667 178.76 1.45 178.36C1.88333 177.96 2.43333 177.76 3.1 177.76C3.75333 177.76 4.27333 177.947 4.66 178.32C5.05333 178.687 5.25 179.13 5.25 179.65C5.25 180.377 4.87333 180.897 4.12 181.21C5.04 181.463 5.5 182.063 5.5 183.01C5.5 183.657 5.26333 184.167 4.79 184.54C4.32333 184.907 3.71333 185.09 2.96 185.09ZM8.20328 178.71L6.60328 179.86V179.05L8.26328 177.85H9.07328V185H8.20328V178.71ZM13.9246 184.37C15.1846 184.37 15.8146 183.447 15.8146 181.6V181.2C15.8146 180.367 15.6446 179.703 15.3046 179.21C14.9646 178.71 14.4979 178.46 13.9046 178.46C13.2979 178.46 12.8246 178.7 12.4846 179.18C12.1446 179.66 11.9746 180.34 11.9746 181.22V181.62C11.9746 182.507 12.1479 183.187 12.4946 183.66C12.8413 184.133 13.3179 184.37 13.9246 184.37ZM13.9246 185.09C13.0713 185.09 12.3846 184.773 11.8646 184.14C11.3446 183.507 11.0846 182.67 11.0846 181.63V181.23C11.0846 180.17 11.3346 179.327 11.8346 178.7C12.3413 178.073 13.0313 177.76 13.9046 177.76C14.7713 177.76 15.4513 178.077 15.9446 178.71C16.4446 179.343 16.6946 180.177 16.6946 181.21V181.61C16.6946 182.663 16.4479 183.507 15.9546 184.14C15.4679 184.773 14.7913 185.09 13.9246 185.09Z" fill="white"/>
<circle cx="173" cy="195" r="3" fill="#F1D5C0"/>
<circle cx="118" cy="231" r="3" fill="#F1D5C0"/>
<circle cx="65" cy="260" r="3" fill="#F1D5C0"/>
<circle cx="227" cy="158" r="3" fill="#F1D5C0"/>
<circle cx="281" cy="137" r="3" fill="#F1D5C0"/>
<circle cx="337" cy="107" r="3" fill="#F1D5C0"/>
<circle cx="391" cy="74" r="3" fill="#F1D5C0"/>
<path opacity="0.6" d="M4.059 5.923H2.538V10H1.791V5.923H0.27V5.293H4.059V5.923ZM9.22901 5.293H9.97601V10H9.22901V5.293ZM5.17901 5.293H5.92601V6.94H6.76301C7.29701 6.94 7.72901 7.06 8.05901 7.3C8.39501 7.54 8.56301 7.918 8.56301 8.434V8.461C8.56301 8.971 8.39501 9.355 8.05901 9.613C7.72301 9.871 7.29101 10 6.76301 10H5.17901V5.293ZM6.80801 9.406C7.16201 9.406 7.41701 9.331 7.57301 9.181C7.73501 9.025 7.81601 8.785 7.81601 8.461V8.434C7.81601 8.134 7.73801 7.909 7.58201 7.759C7.42601 7.603 7.16801 7.525 6.80801 7.525H5.92601V9.406H6.80801ZM13.5866 10.081C12.9146 10.081 12.3626 9.865 11.9306 9.433C11.4986 8.995 11.2826 8.416 11.2826 7.696V7.624C11.2826 6.916 11.5016 6.337 11.9396 5.887C12.3836 5.437 12.9266 5.212 13.5686 5.212C14.1086 5.212 14.5676 5.347 14.9456 5.617C15.3236 5.881 15.5456 6.295 15.6116 6.859H14.8736C14.7656 6.175 14.3306 5.833 13.5686 5.833C13.1306 5.833 12.7676 5.998 12.4796 6.328C12.1976 6.652 12.0566 7.084 12.0566 7.624V7.696C12.0566 8.26 12.1946 8.695 12.4706 9.001C12.7526 9.307 13.1276 9.46 13.5956 9.46C13.9496 9.46 14.2526 9.361 14.5046 9.163C14.7626 8.959 14.9096 8.674 14.9456 8.308H15.6386C15.5906 8.824 15.3746 9.25 14.9906 9.586C14.6126 9.916 14.1446 10.081 13.5866 10.081ZM19.3282 5.293H20.0752V6.085C20.2132 5.845 20.4292 5.641 20.7232 5.473C21.0172 5.299 21.3322 5.212 21.6682 5.212C22.2982 5.212 22.8112 5.425 23.2072 5.851C23.6092 6.277 23.8102 6.853 23.8102 7.579V7.651C23.8102 8.377 23.6122 8.965 23.2162 9.415C22.8262 9.859 22.3102 10.081 21.6682 10.081C20.9482 10.081 20.4172 9.796 20.0752 9.226V11.638H19.3282V5.293ZM21.5962 9.46C22.0642 9.46 22.4212 9.31 22.6672 9.01C22.9132 8.704 23.0362 8.263 23.0362 7.687V7.615C23.0362 7.045 22.8982 6.607 22.6222 6.301C22.3522 5.989 22.0072 5.833 21.5872 5.833C21.1312 5.833 20.7592 5.986 20.4712 6.292C20.1892 6.592 20.0482 7.033 20.0482 7.615V7.687C20.0482 8.269 20.1862 8.71 20.4622 9.01C20.7442 9.31 21.1222 9.46 21.5962 9.46ZM26.2869 9.514L24.4419 5.293H25.2429L26.6829 8.668L27.9879 5.293H28.7529L26.1519 11.638H25.3959L26.2869 9.514ZM31.7976 10.081C31.0896 10.081 30.5286 9.853 30.1146 9.397C29.7006 8.941 29.4936 8.248 29.4936 7.318V7.03C29.4936 6.586 29.5116 6.193 29.5476 5.851C29.5836 5.503 29.6586 5.155 29.7726 4.807C29.8866 4.453 30.0366 4.159 30.2226 3.925C30.4086 3.691 30.6606 3.496 30.9786 3.34C31.3026 3.184 31.6836 3.094 32.1216 3.07L32.3016 3.061C32.9616 3.025 33.4086 2.959 33.6426 2.863L33.7416 3.493C33.4356 3.625 32.9586 3.706 32.3106 3.736L32.1756 3.745C31.4496 3.781 30.9306 4.018 30.6186 4.456C30.3126 4.888 30.1326 5.56 30.0786 6.472H30.1146C30.2766 6.142 30.5166 5.881 30.8346 5.689C31.1586 5.491 31.5336 5.392 31.9596 5.392C32.6136 5.392 33.1356 5.605 33.5256 6.031C33.9216 6.451 34.1196 6.997 34.1196 7.669V7.705C34.1196 8.431 33.9006 9.01 33.4626 9.442C33.0306 9.868 32.4756 10.081 31.7976 10.081ZM30.6726 9.001C30.9486 9.307 31.3266 9.46 31.8066 9.46C32.2866 9.46 32.6616 9.31 32.9316 9.01C33.2076 8.704 33.3456 8.272 33.3456 7.714V7.696C33.3456 7.174 33.2196 6.763 32.9676 6.463C32.7216 6.163 32.3616 6.013 31.8876 6.013C31.3896 6.013 30.9936 6.169 30.6996 6.481C30.4116 6.793 30.2676 7.219 30.2676 7.759V7.777C30.2676 8.287 30.4026 8.695 30.6726 9.001Z" fill="white"/>
<path d="M4.03 62.5H0.45V62.22L3.72 56.85H4.88V61.79H5.87V62.5H4.88V64H4.03V62.5ZM4.03 61.79V57.51L1.55 61.79H4.03ZM9.61906 64.09C7.90573 64.09 7.04906 63.0067 7.04906 60.84V60.67C7.04906 59.4167 7.3024 58.4533 7.80906 57.78C8.3224 57.1 9.0024 56.76 9.84906 56.76C10.4224 56.76 10.8891 56.9067 11.2491 57.2C11.6157 57.4933 11.8457 57.9233 11.9391 58.49H11.1091C11.0291 58.1433 10.8857 57.8867 10.6791 57.72C10.4724 57.5533 10.1757 57.47 9.78906 57.47C9.23573 57.47 8.78906 57.7167 8.44906 58.21C8.10906 58.7033 7.92906 59.41 7.90906 60.33C8.29573 59.6833 8.90906 59.36 9.74906 59.36C10.4491 59.36 11.0124 59.5833 11.4391 60.03C11.8724 60.47 12.0891 61.0267 12.0891 61.7C12.0891 62.42 11.8657 63 11.4191 63.44C10.9724 63.8733 10.3724 64.09 9.61906 64.09ZM9.61906 63.41C10.0857 63.41 10.4657 63.2567 10.7591 62.95C11.0524 62.6433 11.1991 62.24 11.1991 61.74C11.1991 61.22 11.0557 60.8067 10.7691 60.5C10.4824 60.1933 10.0957 60.04 9.60906 60.04C9.12906 60.04 8.73573 60.1867 8.42906 60.48C8.1224 60.7733 7.96906 61.1533 7.96906 61.62C7.96906 62.1867 8.11906 62.6267 8.41906 62.94C8.72573 63.2533 9.12573 63.41 9.61906 63.41ZM16.2488 63.37C17.5088 63.37 18.1388 62.4467 18.1388 60.6V60.2C18.1388 59.3667 17.9688 58.7033 17.6288 58.21C17.2888 57.71 16.8222 57.46 16.2288 57.46C15.6222 57.46 15.1488 57.7 14.8088 58.18C14.4688 58.66 14.2988 59.34 14.2988 60.22V60.62C14.2988 61.5067 14.4722 62.1867 14.8188 62.66C15.1655 63.1333 15.6422 63.37 16.2488 63.37ZM16.2488 64.09C15.3955 64.09 14.7088 63.7733 14.1888 63.14C13.6688 62.5067 13.4088 61.67 13.4088 60.63V60.23C13.4088 59.17 13.6588 58.3267 14.1588 57.7C14.6655 57.0733 15.3555 56.76 16.2288 56.76C17.0955 56.76 17.7755 57.0767 18.2688 57.71C18.7688 58.3433 19.0188 59.1767 19.0188 60.21V60.61C19.0188 61.6633 18.7722 62.5067 18.2788 63.14C17.7922 63.7733 17.1155 64.09 16.2488 64.09Z" fill="white"/>
<rect opacity="0.3" x="65" y="261" width="1" height="71" fill="#F1D5C0"/>
<rect opacity="0.3" x="118" y="230" width="1" height="102" fill="#F1D5C0"/>
<rect opacity="0.3" x="173" y="195" width="1" height="137" fill="#F1D5C0"/>
<rect opacity="0.3" x="227" y="158" width="1" height="174" fill="#F1D5C0"/>
<rect opacity="0.3" x="281" y="135" width="1" height="197" fill="#F1D5C0"/>
<rect opacity="0.3" x="335" y="107" width="1" height="225" fill="#F1D5C0"/>
<rect opacity="0.3" x="391" y="75" width="1" height="259" fill="#F1D5C0"/>
<path d="M24 314L63.3657 259.584L113.004 231.5L173.59 195.011L226.56 157.283L280.269 136.967L335.395 107.78L390.698 73.7724L446 47" stroke="url(#paint0_radial)"/>
<defs>
<radialGradient id="paint0_radial" cx="0" cy="0" r="1" gradientUnits="userSpaceOnUse" gradientTransform="translate(264.967 180.942) rotate(72.9665) scale(130.816 264.348)">
<stop stop-color="#F1D5C0"/>
<stop offset="1" stop-color="#F1D5C0" stop-opacity="0"/>
</radialGradient>
</defs>
</svg>
