<svg width="883" height="569" viewBox="0 0 883 569" fill="none" xmlns="http://www.w3.org/2000/svg">
<path d="M19.3957 186.69C18.2117 186.69 17.257 186.359 16.5317 185.698C15.817 185.037 15.4383 184.194 15.3957 183.17H16.6757C16.7397 183.895 17.001 184.477 17.4597 184.914C17.9183 185.351 18.5743 185.57 19.4277 185.57C20.3023 185.57 20.953 185.378 21.3797 184.994C21.817 184.599 22.0357 184.055 22.0357 183.362C22.0357 181.879 21.2303 181.138 19.6197 181.138H18.7557V179.97H19.5557C20.985 179.97 21.6997 179.319 21.6997 178.018C21.6997 177.453 21.5237 176.994 21.1717 176.642C20.8197 176.279 20.3023 176.098 19.6197 176.098C18.9157 176.098 18.3343 176.295 17.8757 176.69C17.4277 177.085 17.1663 177.607 17.0917 178.258H15.8757C15.9183 177.341 16.2863 176.562 16.9797 175.922C17.673 175.282 18.553 174.962 19.6197 174.962C20.665 174.962 21.497 175.261 22.1157 175.858C22.745 176.445 23.0597 177.154 23.0597 177.986C23.0597 179.149 22.457 179.981 21.2517 180.482C22.7237 180.887 23.4597 181.847 23.4597 183.362C23.4597 184.397 23.081 185.213 22.3237 185.81C21.577 186.397 20.601 186.69 19.3957 186.69ZM29.847 186.69C27.1057 186.69 25.735 184.957 25.735 181.49V181.218C25.735 179.213 26.1404 177.671 26.951 176.594C27.7724 175.506 28.8604 174.962 30.215 174.962C31.1324 174.962 31.879 175.197 32.455 175.666C33.0417 176.135 33.4097 176.823 33.559 177.73H32.231C32.103 177.175 31.8737 176.765 31.543 176.498C31.2124 176.231 30.7377 176.098 30.119 176.098C29.2337 176.098 28.519 176.493 27.975 177.282C27.431 178.071 27.143 179.202 27.111 180.674C27.7297 179.639 28.711 179.122 30.055 179.122C31.175 179.122 32.0764 179.479 32.759 180.194C33.4524 180.898 33.799 181.789 33.799 182.866C33.799 184.018 33.4417 184.946 32.727 185.65C32.0124 186.343 31.0524 186.69 29.847 186.69ZM29.847 185.602C30.5937 185.602 31.2017 185.357 31.671 184.866C32.1404 184.375 32.375 183.73 32.375 182.93C32.375 182.098 32.1457 181.437 31.687 180.946C31.2284 180.455 30.6097 180.21 29.831 180.21C29.063 180.21 28.4337 180.445 27.943 180.914C27.4524 181.383 27.207 181.991 27.207 182.738C27.207 183.645 27.447 184.349 27.927 184.85C28.4177 185.351 29.0577 185.602 29.847 185.602ZM40.4547 185.538C42.4707 185.538 43.4787 184.061 43.4787 181.106V180.466C43.4787 179.133 43.2067 178.071 42.6627 177.282C42.1187 176.482 41.372 176.082 40.4227 176.082C39.452 176.082 38.6947 176.466 38.1507 177.234C37.6067 178.002 37.3347 179.09 37.3347 180.498V181.138C37.3347 182.557 37.612 183.645 38.1667 184.402C38.7213 185.159 39.484 185.538 40.4547 185.538ZM40.4547 186.69C39.0893 186.69 37.9907 186.183 37.1587 185.17C36.3267 184.157 35.9107 182.818 35.9107 181.154V180.514C35.9107 178.818 36.3107 177.469 37.1107 176.466C37.9213 175.463 39.0253 174.962 40.4227 174.962C41.8093 174.962 42.8973 175.469 43.6867 176.482C44.4867 177.495 44.8867 178.829 44.8867 180.482V181.122C44.8867 182.807 44.492 184.157 43.7027 185.17C42.924 186.183 41.8413 186.69 40.4547 186.69Z" fill="white"/>
<path opacity="0.6" d="M5.412 202.133H3.384V207.569H2.388V202.133H0.36V201.293H5.412V202.133ZM12.3053 201.293H13.3013V207.569H12.3053V201.293ZM6.90534 201.293H7.90134V203.489H9.01734C9.72934 203.489 10.3053 203.649 10.7453 203.969C11.1933 204.289 11.4173 204.793 11.4173 205.481V205.517C11.4173 206.197 11.1933 206.709 10.7453 207.053C10.2973 207.397 9.72134 207.569 9.01734 207.569H6.90534V201.293ZM9.07734 206.777C9.54934 206.777 9.88934 206.677 10.0973 206.477C10.3133 206.269 10.4213 205.949 10.4213 205.517V205.481C10.4213 205.081 10.3173 204.781 10.1093 204.581C9.90134 204.373 9.55734 204.269 9.07734 204.269H7.90134V206.777H9.07734ZM18.1154 207.677C17.2194 207.677 16.4834 207.389 15.9074 206.813C15.3314 206.229 15.0434 205.457 15.0434 204.497V204.401C15.0434 203.457 15.3354 202.685 15.9194 202.085C16.5114 201.485 17.2354 201.185 18.0914 201.185C18.8114 201.185 19.4234 201.365 19.9274 201.725C20.4314 202.077 20.7274 202.629 20.8154 203.381H19.8314C19.6874 202.469 19.1074 202.013 18.0914 202.013C17.5074 202.013 17.0234 202.233 16.6394 202.673C16.2634 203.105 16.0754 203.681 16.0754 204.401V204.497C16.0754 205.249 16.2594 205.829 16.6274 206.237C17.0034 206.645 17.5034 206.849 18.1274 206.849C18.5994 206.849 19.0034 206.717 19.3394 206.453C19.6834 206.181 19.8794 205.801 19.9274 205.313H20.8514C20.7874 206.001 20.4994 206.569 19.9874 207.017C19.4834 207.457 18.8594 207.677 18.1154 207.677ZM25.7709 201.293H26.7669V202.349C26.9509 202.029 27.2389 201.757 27.6309 201.533C28.0229 201.301 28.4429 201.185 28.8909 201.185C29.7309 201.185 30.4149 201.469 30.9429 202.037C31.4789 202.605 31.7469 203.373 31.7469 204.341V204.437C31.7469 205.405 31.4829 206.189 30.9549 206.789C30.4349 207.381 29.7469 207.677 28.8909 207.677C27.9309 207.677 27.2229 207.297 26.7669 206.537V209.753H25.7709V201.293ZM28.7949 206.849C29.4189 206.849 29.8949 206.649 30.2229 206.249C30.5509 205.841 30.7149 205.253 30.7149 204.485V204.389C30.7149 203.629 30.5309 203.045 30.1629 202.637C29.8029 202.221 29.3429 202.013 28.7829 202.013C28.1749 202.013 27.6789 202.217 27.2949 202.625C26.9189 203.025 26.7309 203.613 26.7309 204.389V204.485C26.7309 205.261 26.9149 205.849 27.2829 206.249C27.6589 206.649 28.1629 206.849 28.7949 206.849ZM35.0492 206.921L32.5892 201.293H33.6572L35.5772 205.793L37.3172 201.293H38.3372L34.8692 209.753H33.8612L35.0492 206.921ZM42.3968 207.677C41.4528 207.677 40.7048 207.373 40.1528 206.765C39.6008 206.157 39.3248 205.233 39.3248 203.993V203.609C39.3248 203.017 39.3488 202.493 39.3968 202.037C39.4448 201.573 39.5448 201.109 39.6968 200.645C39.8488 200.173 40.0488 199.781 40.2968 199.469C40.5448 199.157 40.8808 198.897 41.3048 198.689C41.7368 198.481 42.2448 198.361 42.8288 198.329L43.0688 198.317C43.9488 198.269 44.5448 198.181 44.8568 198.053L44.9888 198.893C44.5808 199.069 43.9448 199.177 43.0808 199.217L42.9008 199.229C41.9328 199.277 41.2408 199.593 40.8248 200.177C40.4168 200.753 40.1768 201.649 40.1048 202.865H40.1528C40.3688 202.425 40.6888 202.077 41.1128 201.821C41.5448 201.557 42.0448 201.425 42.6128 201.425C43.4848 201.425 44.1808 201.709 44.7008 202.277C45.2288 202.837 45.4928 203.565 45.4928 204.461V204.509C45.4928 205.477 45.2008 206.249 44.6168 206.825C44.0408 207.393 43.3008 207.677 42.3968 207.677ZM40.8968 206.237C41.2648 206.645 41.7688 206.849 42.4088 206.849C43.0488 206.849 43.5488 206.649 43.9088 206.249C44.2768 205.841 44.4608 205.265 44.4608 204.521V204.497C44.4608 203.801 44.2928 203.253 43.9568 202.853C43.6288 202.453 43.1488 202.253 42.5168 202.253C41.8528 202.253 41.3248 202.461 40.9328 202.877C40.5488 203.293 40.3568 203.861 40.3568 204.581V204.605C40.3568 205.285 40.5368 205.829 40.8968 206.237Z" fill="white"/>
<path d="M24.2488 101.942H18.5208V101.494L23.7528 92.9018H25.6088V100.806H27.1928V101.942H25.6088V104.342H24.2488V101.942ZM24.2488 100.806V93.9578L20.2808 100.806H24.2488ZM31.051 94.2778L28.491 96.1178V94.8218L31.147 92.9018H32.443V104.342H31.051V94.2778ZM40.2052 103.334C42.2212 103.334 43.2292 101.856 43.2292 98.9018V98.2618C43.2292 96.9285 42.9572 95.8671 42.4132 95.0778C41.8692 94.2778 41.1225 93.8778 40.1732 93.8778C39.2025 93.8778 38.4452 94.2618 37.9012 95.0298C37.3572 95.7978 37.0852 96.8858 37.0852 98.2938V98.9338C37.0852 100.352 37.3625 101.44 37.9172 102.198C38.4718 102.955 39.2345 103.334 40.2052 103.334ZM40.2052 104.486C38.8398 104.486 37.7412 103.979 36.9092 102.966C36.0772 101.952 35.6612 100.614 35.6612 98.9498V98.3098C35.6612 96.6138 36.0612 95.2645 36.8612 94.2618C37.6718 93.2591 38.7758 92.7578 40.1732 92.7578C41.5598 92.7578 42.6478 93.2645 43.4372 94.2778C44.2372 95.2911 44.6372 96.6245 44.6372 98.2778V98.9178C44.6372 100.603 44.2425 101.952 43.4532 102.966C42.6745 103.979 41.5918 104.486 40.2052 104.486Z" fill="white"/>
<path opacity="0.6" d="M5.412 119.929H3.384V125.365H2.388V119.929H0.36V119.089H5.412V119.929ZM12.3053 119.089H13.3013V125.365H12.3053V119.089ZM6.90534 119.089H7.90134V121.285H9.01734C9.72934 121.285 10.3053 121.445 10.7453 121.765C11.1933 122.085 11.4173 122.589 11.4173 123.277V123.313C11.4173 123.993 11.1933 124.505 10.7453 124.849C10.2973 125.193 9.72134 125.365 9.01734 125.365H6.90534V119.089ZM9.07734 124.573C9.54934 124.573 9.88934 124.473 10.0973 124.273C10.3133 124.065 10.4213 123.745 10.4213 123.313V123.277C10.4213 122.877 10.3173 122.577 10.1093 122.377C9.90134 122.169 9.55734 122.065 9.07734 122.065H7.90134V124.573H9.07734ZM18.1154 125.473C17.2194 125.473 16.4834 125.185 15.9074 124.609C15.3314 124.025 15.0434 123.253 15.0434 122.293V122.197C15.0434 121.253 15.3354 120.481 15.9194 119.881C16.5114 119.281 17.2354 118.981 18.0914 118.981C18.8114 118.981 19.4234 119.161 19.9274 119.521C20.4314 119.873 20.7274 120.425 20.8154 121.177H19.8314C19.6874 120.265 19.1074 119.809 18.0914 119.809C17.5074 119.809 17.0234 120.029 16.6394 120.469C16.2634 120.901 16.0754 121.477 16.0754 122.197V122.293C16.0754 123.045 16.2594 123.625 16.6274 124.033C17.0034 124.441 17.5034 124.645 18.1274 124.645C18.5994 124.645 19.0034 124.513 19.3394 124.249C19.6834 123.977 19.8794 123.597 19.9274 123.109H20.8514C20.7874 123.797 20.4994 124.365 19.9874 124.813C19.4834 125.253 18.8594 125.473 18.1154 125.473ZM25.7709 119.089H26.7669V120.145C26.9509 119.825 27.2389 119.553 27.6309 119.329C28.0229 119.097 28.4429 118.981 28.8909 118.981C29.7309 118.981 30.4149 119.265 30.9429 119.833C31.4789 120.401 31.7469 121.169 31.7469 122.137V122.233C31.7469 123.201 31.4829 123.985 30.9549 124.585C30.4349 125.177 29.7469 125.473 28.8909 125.473C27.9309 125.473 27.2229 125.093 26.7669 124.333V127.549H25.7709V119.089ZM28.7949 124.645C29.4189 124.645 29.8949 124.445 30.2229 124.045C30.5509 123.637 30.7149 123.049 30.7149 122.281V122.185C30.7149 121.425 30.5309 120.841 30.1629 120.433C29.8029 120.017 29.3429 119.809 28.7829 119.809C28.1749 119.809 27.6789 120.013 27.2949 120.421C26.9189 120.821 26.7309 121.409 26.7309 122.185V122.281C26.7309 123.057 26.9149 123.645 27.2829 124.045C27.6589 124.445 28.1629 124.645 28.7949 124.645ZM35.0492 124.717L32.5892 119.089H33.6572L35.5772 123.589L37.3172 119.089H38.3372L34.8692 127.549H33.8612L35.0492 124.717ZM42.3968 125.473C41.4528 125.473 40.7048 125.169 40.1528 124.561C39.6008 123.953 39.3248 123.029 39.3248 121.789V121.405C39.3248 120.813 39.3488 120.289 39.3968 119.833C39.4448 119.369 39.5448 118.905 39.6968 118.441C39.8488 117.969 40.0488 117.577 40.2968 117.265C40.5448 116.953 40.8808 116.693 41.3048 116.485C41.7368 116.277 42.2448 116.157 42.8288 116.125L43.0688 116.113C43.9488 116.065 44.5448 115.977 44.8568 115.849L44.9888 116.689C44.5808 116.865 43.9448 116.973 43.0808 117.013L42.9008 117.025C41.9328 117.073 41.2408 117.389 40.8248 117.973C40.4168 118.549 40.1768 119.445 40.1048 120.661H40.1528C40.3688 120.221 40.6888 119.873 41.1128 119.617C41.5448 119.353 42.0448 119.221 42.6128 119.221C43.4848 119.221 44.1808 119.505 44.7008 120.073C45.2288 120.633 45.4928 121.361 45.4928 122.257V122.305C45.4928 123.273 45.2008 124.045 44.6168 124.621C44.0408 125.189 43.3008 125.473 42.3968 125.473ZM40.8968 124.033C41.2648 124.441 41.7688 124.645 42.4088 124.645C43.0488 124.645 43.5488 124.445 43.9088 124.045C44.2768 123.637 44.4608 123.061 44.4608 122.317V122.293C44.4608 121.597 44.2928 121.049 43.9568 120.649C43.6288 120.249 43.1488 120.049 42.5168 120.049C41.8528 120.049 41.3248 120.257 40.9328 120.673C40.5488 121.089 40.3568 121.657 40.3568 122.377V122.401C40.3568 123.081 40.5368 123.625 40.8968 124.033Z" fill="white"/>
<path d="M19.2481 442.822L23.7921 438.038C24.8908 436.875 25.4401 435.771 25.4401 434.726C25.4401 434.086 25.2588 433.584 24.8961 433.222C24.5441 432.859 24.0428 432.678 23.3921 432.678C22.0055 432.678 21.2001 433.526 20.9761 435.222H19.6801C19.7655 434.091 20.1335 433.2 20.7841 432.55C21.4455 431.888 22.3148 431.558 23.3921 431.558C24.4481 431.558 25.2855 431.851 25.9041 432.438C26.5335 433.014 26.8481 433.792 26.8481 434.774C26.8481 436.032 26.0801 437.419 24.5441 438.934L21.3921 442.006H26.9121V443.142H19.2481V442.822ZM31.2546 433.078L28.6946 434.918V433.622L31.3506 431.702H32.6466V443.142H31.2546V433.078ZM40.4088 442.134C42.4248 442.134 43.4328 440.656 43.4328 437.702V437.062C43.4328 435.728 43.1608 434.667 42.6168 433.878C42.0728 433.078 41.3261 432.678 40.3768 432.678C39.4061 432.678 38.6488 433.062 38.1048 433.83C37.5608 434.598 37.2888 435.686 37.2888 437.094V437.734C37.2888 439.152 37.5661 440.24 38.1208 440.998C38.6754 441.755 39.4381 442.134 40.4088 442.134ZM40.4088 443.286C39.0434 443.286 37.9448 442.779 37.1128 441.766C36.2808 440.752 35.8648 439.414 35.8648 437.75V437.11C35.8648 435.414 36.2648 434.064 37.0648 433.062C37.8754 432.059 38.9794 431.558 40.3768 431.558C41.7634 431.558 42.8514 432.064 43.6408 433.078C44.4408 434.091 44.8408 435.424 44.8408 437.078V437.718C44.8408 439.403 44.4461 440.752 43.6568 441.766C42.8781 442.779 41.7954 443.286 40.4088 443.286Z" fill="white"/>
<path opacity="0.6" d="M5.412 458.729H3.384V464.165H2.388V458.729H0.36V457.889H5.412V458.729ZM12.3053 457.889H13.3013V464.165H12.3053V457.889ZM6.90534 457.889H7.90134V460.085H9.01734C9.72934 460.085 10.3053 460.245 10.7453 460.565C11.1933 460.885 11.4173 461.389 11.4173 462.077V462.113C11.4173 462.793 11.1933 463.305 10.7453 463.649C10.2973 463.993 9.72134 464.165 9.01734 464.165H6.90534V457.889ZM9.07734 463.373C9.54934 463.373 9.88934 463.273 10.0973 463.073C10.3133 462.865 10.4213 462.545 10.4213 462.113V462.077C10.4213 461.677 10.3173 461.377 10.1093 461.177C9.90134 460.969 9.55734 460.865 9.07734 460.865H7.90134V463.373H9.07734ZM18.1154 464.273C17.2194 464.273 16.4834 463.985 15.9074 463.409C15.3314 462.825 15.0434 462.053 15.0434 461.093V460.997C15.0434 460.053 15.3354 459.281 15.9194 458.681C16.5114 458.081 17.2354 457.781 18.0914 457.781C18.8114 457.781 19.4234 457.961 19.9274 458.321C20.4314 458.673 20.7274 459.225 20.8154 459.977H19.8314C19.6874 459.065 19.1074 458.609 18.0914 458.609C17.5074 458.609 17.0234 458.829 16.6394 459.269C16.2634 459.701 16.0754 460.277 16.0754 460.997V461.093C16.0754 461.845 16.2594 462.425 16.6274 462.833C17.0034 463.241 17.5034 463.445 18.1274 463.445C18.5994 463.445 19.0034 463.313 19.3394 463.049C19.6834 462.777 19.8794 462.397 19.9274 461.909H20.8514C20.7874 462.597 20.4994 463.165 19.9874 463.613C19.4834 464.053 18.8594 464.273 18.1154 464.273ZM25.7709 457.889H26.7669V458.945C26.9509 458.625 27.2389 458.353 27.6309 458.129C28.0229 457.897 28.4429 457.781 28.8909 457.781C29.7309 457.781 30.4149 458.065 30.9429 458.633C31.4789 459.201 31.7469 459.969 31.7469 460.937V461.033C31.7469 462.001 31.4829 462.785 30.9549 463.385C30.4349 463.977 29.7469 464.273 28.8909 464.273C27.9309 464.273 27.2229 463.893 26.7669 463.133V466.349H25.7709V457.889ZM28.7949 463.445C29.4189 463.445 29.8949 463.245 30.2229 462.845C30.5509 462.437 30.7149 461.849 30.7149 461.081V460.985C30.7149 460.225 30.5309 459.641 30.1629 459.233C29.8029 458.817 29.3429 458.609 28.7829 458.609C28.1749 458.609 27.6789 458.813 27.2949 459.221C26.9189 459.621 26.7309 460.209 26.7309 460.985V461.081C26.7309 461.857 26.9149 462.445 27.2829 462.845C27.6589 463.245 28.1629 463.445 28.7949 463.445ZM35.0492 463.517L32.5892 457.889H33.6572L35.5772 462.389L37.3172 457.889H38.3372L34.8692 466.349H33.8612L35.0492 463.517ZM42.3968 464.273C41.4528 464.273 40.7048 463.969 40.1528 463.361C39.6008 462.753 39.3248 461.829 39.3248 460.589V460.205C39.3248 459.613 39.3488 459.089 39.3968 458.633C39.4448 458.169 39.5448 457.705 39.6968 457.241C39.8488 456.769 40.0488 456.377 40.2968 456.065C40.5448 455.753 40.8808 455.493 41.3048 455.285C41.7368 455.077 42.2448 454.957 42.8288 454.925L43.0688 454.913C43.9488 454.865 44.5448 454.777 44.8568 454.649L44.9888 455.489C44.5808 455.665 43.9448 455.773 43.0808 455.813L42.9008 455.825C41.9328 455.873 41.2408 456.189 40.8248 456.773C40.4168 457.349 40.1768 458.245 40.1048 459.461H40.1528C40.3688 459.021 40.6888 458.673 41.1128 458.417C41.5448 458.153 42.0448 458.021 42.6128 458.021C43.4848 458.021 44.1808 458.305 44.7008 458.873C45.2288 459.433 45.4928 460.161 45.4928 461.057V461.105C45.4928 462.073 45.2008 462.845 44.6168 463.421C44.0408 463.989 43.3008 464.273 42.3968 464.273ZM40.8968 462.833C41.2648 463.241 41.7688 463.445 42.4088 463.445C43.0488 463.445 43.5488 463.245 43.9088 462.845C44.2768 462.437 44.4608 461.861 44.4608 461.117V461.093C44.4608 460.397 44.2928 459.849 43.9568 459.449C43.6288 459.049 43.1488 458.849 42.5168 458.849C41.8528 458.849 41.3248 459.057 40.9328 459.473C40.5488 459.889 40.3568 460.457 40.3568 461.177V461.201C40.3568 461.881 40.5368 462.425 40.8968 462.833Z" fill="white"/>
<path opacity="0.6" d="M380.096 536.742C379.2 536.742 378.752 537.122 378.752 537.882V537.918C378.752 538.278 378.856 538.55 379.064 538.734C379.272 538.918 379.616 539.01 380.096 539.01H381.272V536.742H380.096ZM378.44 542.226H377.3L379.208 539.598C378.24 539.398 377.756 538.838 377.756 537.918V537.882C377.756 537.226 377.98 536.742 378.428 536.43C378.876 536.11 379.452 535.95 380.156 535.95H382.268V542.226H381.272V539.766H380.192L378.44 542.226ZM388.489 539.43H385.405V542.226H384.409V535.95H385.405V538.59H388.489V535.95H389.485V542.226H388.489V539.43ZM391.619 535.95H393.815C395.287 535.95 396.023 536.482 396.023 537.546V537.582C396.023 537.886 395.939 538.166 395.771 538.422C395.603 538.67 395.351 538.838 395.015 538.926C395.887 539.118 396.323 539.59 396.323 540.342V540.378C396.323 540.986 396.123 541.446 395.723 541.758C395.331 542.07 394.783 542.226 394.079 542.226H391.619V535.95ZM392.615 536.742V538.602H393.815C394.231 538.602 394.527 538.526 394.703 538.374C394.887 538.222 394.979 537.974 394.979 537.63V537.594C394.979 537.274 394.883 537.054 394.691 536.934C394.507 536.806 394.211 536.742 393.803 536.742H392.615ZM392.615 539.394V541.434H393.983C394.423 541.434 394.747 541.358 394.955 541.206C395.171 541.046 395.279 540.79 395.279 540.438V540.402C395.279 540.05 395.171 539.794 394.955 539.634C394.747 539.474 394.423 539.394 393.983 539.394H392.615ZM399.735 542.334C399.119 542.334 398.615 542.182 398.223 541.878C397.839 541.566 397.647 541.102 397.647 540.486C397.647 540.142 397.731 539.842 397.899 539.586C398.075 539.322 398.315 539.118 398.619 538.974C398.923 538.822 399.255 538.714 399.615 538.65C399.975 538.578 400.367 538.542 400.791 538.542H401.691V538.086C401.691 537.582 401.587 537.222 401.379 537.006C401.171 536.782 400.827 536.67 400.347 536.67C399.483 536.67 399.003 537.046 398.907 537.798H397.911C397.975 537.126 398.235 536.634 398.691 536.322C399.155 536.002 399.723 535.842 400.395 535.842C401.923 535.842 402.687 536.59 402.687 538.086V542.226H401.691V541.434C401.211 542.034 400.559 542.334 399.735 542.334ZM399.831 541.542C400.375 541.542 400.819 541.41 401.163 541.146C401.515 540.874 401.691 540.502 401.691 540.03V539.25H400.827C399.371 539.25 398.643 539.662 398.643 540.486C398.643 541.19 399.039 541.542 399.831 541.542ZM404.763 535.95H405.759V537.006C405.943 536.686 406.231 536.414 406.623 536.19C407.015 535.958 407.435 535.842 407.883 535.842C408.723 535.842 409.407 536.126 409.935 536.694C410.471 537.262 410.739 538.03 410.739 538.998V539.094C410.739 540.062 410.475 540.846 409.947 541.446C409.427 542.038 408.739 542.334 407.883 542.334C406.923 542.334 406.215 541.954 405.759 541.194V544.41H404.763V535.95ZM407.787 541.506C408.411 541.506 408.887 541.306 409.215 540.906C409.543 540.498 409.707 539.91 409.707 539.142V539.046C409.707 538.286 409.523 537.702 409.155 537.294C408.795 536.878 408.335 536.67 407.775 536.67C407.167 536.67 406.671 536.874 406.287 537.282C405.911 537.682 405.723 538.27 405.723 539.046V539.142C405.723 539.918 405.907 540.506 406.275 540.906C406.651 541.306 407.155 541.506 407.787 541.506ZM412.335 535.95H413.331V538.146H414.447C415.151 538.146 415.727 538.318 416.175 538.662C416.623 539.006 416.847 539.518 416.847 540.198V540.234C416.847 540.922 416.623 541.426 416.175 541.746C415.735 542.066 415.159 542.226 414.447 542.226H412.335V535.95ZM414.507 541.446C414.987 541.446 415.331 541.346 415.539 541.146C415.747 540.938 415.851 540.634 415.851 540.234V540.198C415.851 539.766 415.743 539.45 415.527 539.25C415.319 539.042 414.979 538.938 414.507 538.938H413.331V541.446H414.507Z" fill="white"/>
<path d="M377.35 562.751L381.326 558.565C382.287 557.548 382.768 556.582 382.768 555.667C382.768 555.107 382.609 554.669 382.292 554.351C381.984 554.034 381.545 553.875 380.976 553.875C379.763 553.875 379.058 554.617 378.862 556.101H377.728C377.803 555.112 378.125 554.333 378.694 553.763C379.273 553.185 380.033 552.895 380.976 552.895C381.9 552.895 382.633 553.152 383.174 553.665C383.725 554.169 384 554.851 384 555.709C384 556.811 383.328 558.024 381.984 559.349L379.226 562.037H384.056V563.031H377.35V562.751ZM389.901 562.149C391.665 562.149 392.547 560.857 392.547 558.271V557.711C392.547 556.545 392.309 555.616 391.833 554.925C391.357 554.225 390.704 553.875 389.873 553.875C389.024 553.875 388.361 554.211 387.885 554.883C387.409 555.555 387.171 556.507 387.171 557.739V558.299C387.171 559.541 387.414 560.493 387.899 561.155C388.385 561.818 389.052 562.149 389.901 562.149ZM389.901 563.157C388.707 563.157 387.745 562.714 387.017 561.827C386.289 560.941 385.925 559.769 385.925 558.313V557.753C385.925 556.269 386.275 555.089 386.975 554.211C387.685 553.334 388.651 552.895 389.873 552.895C391.087 552.895 392.039 553.339 392.729 554.225C393.429 555.112 393.779 556.279 393.779 557.725V558.285C393.779 559.76 393.434 560.941 392.743 561.827C392.062 562.714 391.115 563.157 389.901 563.157ZM397.634 554.225L395.394 555.835V554.701L397.718 553.021H398.852V563.031H397.634V554.225ZM404.752 563.143C403.837 563.143 403.104 562.919 402.554 562.471C402.003 562.023 401.662 561.389 401.532 560.567H402.708C402.829 561.09 403.048 561.487 403.366 561.757C403.692 562.019 404.164 562.149 404.78 562.149C405.592 562.149 406.217 561.818 406.656 561.155C407.094 560.493 407.323 559.499 407.342 558.173C407.09 558.593 406.74 558.92 406.292 559.153C405.844 559.387 405.33 559.503 404.752 559.503C403.781 559.503 402.988 559.195 402.372 558.579C401.765 557.963 401.462 557.179 401.462 556.227C401.462 555.219 401.774 554.412 402.4 553.805C403.025 553.189 403.865 552.881 404.92 552.881C406.105 552.881 407.001 553.264 407.608 554.029C408.214 554.795 408.518 555.905 408.518 557.361V557.991C408.518 559.662 408.191 560.941 407.538 561.827C406.894 562.705 405.965 563.143 404.752 563.143ZM404.934 558.551C405.606 558.551 406.156 558.351 406.586 557.949C407.015 557.548 407.23 557.025 407.23 556.381C407.23 555.579 407.015 554.953 406.586 554.505C406.166 554.057 405.61 553.833 404.92 553.833C404.266 553.833 403.734 554.048 403.324 554.477C402.913 554.907 402.708 555.471 402.708 556.171C402.708 556.899 402.908 557.478 403.31 557.907C403.711 558.337 404.252 558.551 404.934 558.551Z" fill="white"/>
<path opacity="0.6" d="M285.696 541.506C286.32 541.506 286.816 541.29 287.184 540.858C287.56 540.426 287.748 539.854 287.748 539.142V539.058C287.748 538.33 287.56 537.75 287.184 537.318C286.816 536.886 286.32 536.67 285.696 536.67C285.064 536.67 284.564 536.886 284.196 537.318C283.828 537.75 283.644 538.326 283.644 539.046V539.142C283.644 539.87 283.824 540.446 284.184 540.87C284.552 541.294 285.056 541.506 285.696 541.506ZM285.684 542.334C284.796 542.334 284.06 542.034 283.476 541.434C282.9 540.826 282.612 540.062 282.612 539.142V539.046C282.612 538.11 282.9 537.342 283.476 536.742C284.06 536.142 284.8 535.842 285.696 535.842C286.592 535.842 287.328 536.142 287.904 536.742C288.488 537.334 288.78 538.098 288.78 539.034V539.13C288.78 540.074 288.488 540.846 287.904 541.446C287.32 542.038 286.58 542.334 285.684 542.334ZM291.366 539.022V542.226H290.37V535.95H291.366V538.878L293.97 535.95H295.134L292.446 538.902L295.362 542.226H294.15L291.366 539.022ZM301.082 536.79H299.054V542.226H298.058V536.79H296.03V535.95H301.082V536.79ZM304.663 536.742C303.767 536.742 303.319 537.122 303.319 537.882V537.918C303.319 538.278 303.423 538.55 303.631 538.734C303.839 538.918 304.183 539.01 304.663 539.01H305.839V536.742H304.663ZM303.007 542.226H301.867L303.775 539.598C302.807 539.398 302.323 538.838 302.323 537.918V537.882C302.323 537.226 302.547 536.742 302.995 536.43C303.443 536.11 304.019 535.95 304.723 535.95H306.835V542.226H305.839V539.766H304.759L303.007 542.226ZM311.676 542.334C310.732 542.334 309.984 542.03 309.432 541.422C308.88 540.814 308.604 539.89 308.604 538.65V538.266C308.604 537.674 308.628 537.15 308.676 536.694C308.724 536.23 308.824 535.766 308.976 535.302C309.128 534.83 309.328 534.438 309.576 534.126C309.824 533.814 310.16 533.554 310.584 533.346C311.016 533.138 311.524 533.018 312.108 532.986L312.348 532.974C313.228 532.926 313.824 532.838 314.136 532.71L314.268 533.55C313.86 533.726 313.224 533.834 312.36 533.874L312.18 533.886C311.212 533.934 310.52 534.25 310.104 534.834C309.696 535.41 309.456 536.306 309.384 537.522H309.432C309.648 537.082 309.968 536.734 310.392 536.478C310.824 536.214 311.324 536.082 311.892 536.082C312.764 536.082 313.46 536.366 313.98 536.934C314.508 537.494 314.772 538.222 314.772 539.118V539.166C314.772 540.134 314.48 540.906 313.896 541.482C313.32 542.05 312.58 542.334 311.676 542.334ZM310.176 540.894C310.544 541.302 311.048 541.506 311.688 541.506C312.328 541.506 312.828 541.306 313.188 540.906C313.556 540.498 313.74 539.922 313.74 539.178V539.154C313.74 538.458 313.572 537.91 313.236 537.51C312.908 537.11 312.428 536.91 311.796 536.91C311.132 536.91 310.604 537.118 310.212 537.534C309.828 537.95 309.636 538.518 309.636 539.238V539.262C309.636 539.942 309.816 540.486 310.176 540.894ZM316.516 535.95H317.512V537.006C317.696 536.686 317.984 536.414 318.376 536.19C318.768 535.958 319.188 535.842 319.636 535.842C320.476 535.842 321.16 536.126 321.688 536.694C322.224 537.262 322.492 538.03 322.492 538.998V539.094C322.492 540.062 322.228 540.846 321.7 541.446C321.18 542.038 320.492 542.334 319.636 542.334C318.676 542.334 317.968 541.954 317.512 541.194V544.41H316.516V535.95ZM319.54 541.506C320.164 541.506 320.64 541.306 320.968 540.906C321.296 540.498 321.46 539.91 321.46 539.142V539.046C321.46 538.286 321.276 537.702 320.908 537.294C320.548 536.878 320.088 536.67 319.528 536.67C318.92 536.67 318.424 536.874 318.04 537.282C317.664 537.682 317.476 538.27 317.476 539.046V539.142C317.476 539.918 317.66 540.506 318.028 540.906C318.404 541.306 318.908 541.506 319.54 541.506ZM324.087 535.95H325.083V538.146H326.199C326.903 538.146 327.479 538.318 327.927 538.662C328.375 539.006 328.599 539.518 328.599 540.198V540.234C328.599 540.922 328.375 541.426 327.927 541.746C327.487 542.066 326.911 542.226 326.199 542.226H324.087V535.95ZM326.259 541.446C326.739 541.446 327.083 541.346 327.291 541.146C327.499 540.938 327.603 540.634 327.603 540.234V540.198C327.603 539.766 327.495 539.45 327.279 539.25C327.071 539.042 326.731 538.938 326.259 538.938H325.083V541.446H326.259Z" fill="white"/>
<path d="M282.35 562.751L286.326 558.565C287.287 557.548 287.768 556.582 287.768 555.667C287.768 555.107 287.609 554.669 287.292 554.351C286.984 554.034 286.545 553.875 285.976 553.875C284.763 553.875 284.058 554.617 283.862 556.101H282.728C282.803 555.112 283.125 554.333 283.694 553.763C284.273 553.185 285.033 552.895 285.976 552.895C286.9 552.895 287.633 553.152 288.174 553.665C288.725 554.169 289 554.851 289 555.709C289 556.811 288.328 558.024 286.984 559.349L284.226 562.037H289.056V563.031H282.35V562.751ZM294.901 562.149C296.665 562.149 297.547 560.857 297.547 558.271V557.711C297.547 556.545 297.309 555.616 296.833 554.925C296.357 554.225 295.704 553.875 294.873 553.875C294.024 553.875 293.361 554.211 292.885 554.883C292.409 555.555 292.171 556.507 292.171 557.739V558.299C292.171 559.541 292.414 560.493 292.899 561.155C293.385 561.818 294.052 562.149 294.901 562.149ZM294.901 563.157C293.707 563.157 292.745 562.714 292.017 561.827C291.289 560.941 290.925 559.769 290.925 558.313V557.753C290.925 556.269 291.275 555.089 291.975 554.211C292.685 553.334 293.651 552.895 294.873 552.895C296.087 552.895 297.039 553.339 297.729 554.225C298.429 555.112 298.779 556.279 298.779 557.725V558.285C298.779 559.76 298.434 560.941 297.743 561.827C297.062 562.714 296.115 563.157 294.901 563.157ZM302.634 554.225L300.394 555.835V554.701L302.718 553.021H303.852V563.031H302.634V554.225ZM310.084 563.157C309.515 563.157 308.974 563.055 308.46 562.849C307.947 562.635 307.513 562.294 307.158 561.827C306.804 561.361 306.626 560.815 306.626 560.189C306.626 559.545 306.799 559.004 307.144 558.565C307.49 558.127 307.947 557.805 308.516 557.599C307.508 557.198 307.004 556.498 307.004 555.499C307.004 554.734 307.312 554.109 307.928 553.623C308.554 553.138 309.272 552.895 310.084 552.895C310.896 552.895 311.61 553.138 312.226 553.623C312.842 554.099 313.15 554.715 313.15 555.471C313.15 556.433 312.637 557.137 311.61 557.585C312.889 558.061 313.528 558.92 313.528 560.161C313.528 561.104 313.183 561.841 312.492 562.373C311.811 562.896 311.008 563.157 310.084 563.157ZM310.084 562.163C310.728 562.163 311.256 561.986 311.666 561.631C312.077 561.267 312.282 560.763 312.282 560.119C312.282 559.494 312.072 559.009 311.652 558.663C311.242 558.309 310.728 558.131 310.112 558.131C309.478 558.131 308.946 558.309 308.516 558.663C308.087 559.009 307.872 559.503 307.872 560.147C307.872 560.773 308.087 561.267 308.516 561.631C308.946 561.986 309.468 562.163 310.084 562.163ZM310.126 557.165C310.668 557.165 311.102 557.016 311.428 556.717C311.755 556.419 311.918 556.008 311.918 555.485C311.918 555.009 311.746 554.617 311.4 554.309C311.055 554.001 310.616 553.847 310.084 553.847C309.543 553.847 309.1 553.997 308.754 554.295C308.409 554.594 308.236 555 308.236 555.513C308.236 556.017 308.418 556.419 308.782 556.717C309.146 557.016 309.594 557.165 310.126 557.165Z" fill="white"/>
<path opacity="0.6" d="M193.008 542.226V535.95H194.004V540.786L197.208 535.95H198.204V542.226H197.208V537.39L194.004 542.226H193.008ZM205.102 542.334C204.302 542.334 203.638 542.086 203.11 541.59C202.59 541.094 202.282 540.442 202.186 539.634C202.17 539.522 202.162 539.454 202.162 539.43H201.214V542.226H200.218V535.95H201.214V538.59H202.174C202.27 537.758 202.578 537.094 203.098 536.598C203.626 536.094 204.298 535.842 205.114 535.842C206.002 535.842 206.718 536.138 207.262 536.73C207.806 537.322 208.078 538.09 208.078 539.034V539.13C208.078 540.082 207.802 540.854 207.25 541.446C206.706 542.038 205.99 542.334 205.102 542.334ZM205.114 541.506C205.73 541.506 206.206 541.294 206.542 540.87C206.878 540.446 207.046 539.87 207.046 539.142V539.058C207.046 538.322 206.878 537.742 206.542 537.318C206.206 536.886 205.73 536.67 205.114 536.67C204.49 536.67 204.01 536.882 203.674 537.306C203.346 537.73 203.182 538.31 203.182 539.046V539.142C203.182 539.878 203.346 540.458 203.674 540.882C204.002 541.298 204.482 541.506 205.114 541.506ZM210.889 539.802C210.817 540.666 210.665 541.298 210.433 541.698C210.201 542.09 209.837 542.286 209.341 542.286C209.237 542.286 209.129 542.278 209.017 542.262L208.921 542.226V541.278L209.005 541.302C209.085 541.318 209.169 541.326 209.257 541.326C209.385 541.326 209.489 541.29 209.569 541.218C209.657 541.138 209.725 541.014 209.773 540.846C209.829 540.678 209.869 540.522 209.893 540.378C209.917 540.226 209.945 540.014 209.977 539.742C210.009 539.454 210.057 538.638 210.121 537.294L210.157 535.95H214.297V542.226H213.301V536.79H211.045C210.973 538.518 210.921 539.522 210.889 539.802ZM216.431 535.95H217.427V538.146H218.543C219.247 538.146 219.823 538.318 220.271 538.662C220.719 539.006 220.943 539.518 220.943 540.198V540.234C220.943 540.922 220.719 541.426 220.271 541.746C219.831 542.066 219.255 542.226 218.543 542.226H216.431V535.95ZM218.603 541.446C219.083 541.446 219.427 541.346 219.635 541.146C219.843 540.938 219.947 540.634 219.947 540.234V540.198C219.947 539.766 219.839 539.45 219.623 539.25C219.415 539.042 219.075 538.938 218.603 538.938H217.427V541.446H218.603Z" fill="white"/>
<path d="M192.35 562.751L196.326 558.565C197.287 557.548 197.768 556.582 197.768 555.667C197.768 555.107 197.609 554.669 197.292 554.351C196.984 554.034 196.545 553.875 195.976 553.875C194.763 553.875 194.058 554.617 193.862 556.101H192.728C192.803 555.112 193.125 554.333 193.694 553.763C194.273 553.185 195.033 552.895 195.976 552.895C196.9 552.895 197.633 553.152 198.174 553.665C198.725 554.169 199 554.851 199 555.709C199 556.811 198.328 558.024 196.984 559.349L194.226 562.037H199.056V563.031H192.35V562.751ZM204.901 562.149C206.665 562.149 207.547 560.857 207.547 558.271V557.711C207.547 556.545 207.309 555.616 206.833 554.925C206.357 554.225 205.704 553.875 204.873 553.875C204.024 553.875 203.361 554.211 202.885 554.883C202.409 555.555 202.171 556.507 202.171 557.739V558.299C202.171 559.541 202.414 560.493 202.899 561.155C203.385 561.818 204.052 562.149 204.901 562.149ZM204.901 563.157C203.707 563.157 202.745 562.714 202.017 561.827C201.289 560.941 200.925 559.769 200.925 558.313V557.753C200.925 556.269 201.275 555.089 201.975 554.211C202.685 553.334 203.651 552.895 204.873 552.895C206.087 552.895 207.039 553.339 207.729 554.225C208.429 555.112 208.779 556.279 208.779 557.725V558.285C208.779 559.76 208.434 560.941 207.743 561.827C207.062 562.714 206.115 563.157 204.901 563.157ZM212.634 554.225L210.394 555.835V554.701L212.718 553.021H213.852V563.031H212.634V554.225ZM220.084 563.157C219.515 563.157 218.974 563.055 218.46 562.849C217.947 562.635 217.513 562.294 217.158 561.827C216.804 561.361 216.626 560.815 216.626 560.189C216.626 559.545 216.799 559.004 217.144 558.565C217.49 558.127 217.947 557.805 218.516 557.599C217.508 557.198 217.004 556.498 217.004 555.499C217.004 554.734 217.312 554.109 217.928 553.623C218.554 553.138 219.272 552.895 220.084 552.895C220.896 552.895 221.61 553.138 222.226 553.623C222.842 554.099 223.15 554.715 223.15 555.471C223.15 556.433 222.637 557.137 221.61 557.585C222.889 558.061 223.528 558.92 223.528 560.161C223.528 561.104 223.183 561.841 222.492 562.373C221.811 562.896 221.008 563.157 220.084 563.157ZM220.084 562.163C220.728 562.163 221.256 561.986 221.666 561.631C222.077 561.267 222.282 560.763 222.282 560.119C222.282 559.494 222.072 559.009 221.652 558.663C221.242 558.309 220.728 558.131 220.112 558.131C219.478 558.131 218.946 558.309 218.516 558.663C218.087 559.009 217.872 559.503 217.872 560.147C217.872 560.773 218.087 561.267 218.516 561.631C218.946 561.986 219.468 562.163 220.084 562.163ZM220.126 557.165C220.668 557.165 221.102 557.016 221.428 556.717C221.755 556.419 221.918 556.008 221.918 555.485C221.918 555.009 221.746 554.617 221.4 554.309C221.055 554.001 220.616 553.847 220.084 553.847C219.543 553.847 219.1 553.997 218.754 554.295C218.409 554.594 218.236 555 218.236 555.513C218.236 556.017 218.418 556.419 218.782 556.717C219.146 557.016 219.594 557.165 220.126 557.165Z" fill="white"/>
<path opacity="0.6" d="M469.652 542.334C469.036 542.334 468.532 542.182 468.14 541.878C467.756 541.566 467.564 541.102 467.564 540.486C467.564 540.142 467.648 539.842 467.816 539.586C467.992 539.322 468.232 539.118 468.536 538.974C468.84 538.822 469.172 538.714 469.532 538.65C469.892 538.578 470.284 538.542 470.708 538.542H471.608V538.086C471.608 537.582 471.504 537.222 471.296 537.006C471.088 536.782 470.744 536.67 470.264 536.67C469.4 536.67 468.92 537.046 468.824 537.798H467.828C467.892 537.126 468.152 536.634 468.608 536.322C469.072 536.002 469.64 535.842 470.312 535.842C471.84 535.842 472.604 536.59 472.604 538.086V542.226H471.608V541.434C471.128 542.034 470.476 542.334 469.652 542.334ZM469.748 541.542C470.292 541.542 470.736 541.41 471.08 541.146C471.432 540.874 471.608 540.502 471.608 540.03V539.25H470.744C469.288 539.25 468.56 539.662 468.56 540.486C468.56 541.19 468.956 541.542 469.748 541.542ZM478.568 536.79H475.604V542.226H474.608V535.95H479.564V542.226H478.568V536.79ZM481.773 535.95H482.769V537.006C482.953 536.686 483.241 536.414 483.633 536.19C484.025 535.958 484.445 535.842 484.893 535.842C485.733 535.842 486.417 536.126 486.945 536.694C487.481 537.262 487.749 538.03 487.749 538.998V539.094C487.749 540.062 487.485 540.846 486.957 541.446C486.437 542.038 485.749 542.334 484.893 542.334C483.933 542.334 483.225 541.954 482.769 541.194V544.41H481.773V535.95ZM484.797 541.506C485.421 541.506 485.897 541.306 486.225 540.906C486.553 540.498 486.717 539.91 486.717 539.142V539.046C486.717 538.286 486.533 537.702 486.165 537.294C485.805 536.878 485.345 536.67 484.785 536.67C484.177 536.67 483.681 536.874 483.297 537.282C482.921 537.682 482.733 538.27 482.733 539.046V539.142C482.733 539.918 482.917 540.506 483.285 540.906C483.661 541.306 484.165 541.506 484.797 541.506ZM491.985 542.334C491.089 542.334 490.357 542.042 489.789 541.458C489.229 540.874 488.949 540.106 488.949 539.154V539.058C488.949 538.114 489.221 537.342 489.765 536.742C490.317 536.142 491.025 535.842 491.889 535.842C492.689 535.842 493.357 536.102 493.893 536.622C494.437 537.134 494.709 537.914 494.709 538.962V539.286H489.981C490.029 540.766 490.701 541.506 491.997 541.506C492.981 541.506 493.537 541.142 493.665 540.414H494.661C494.549 541.038 494.257 541.514 493.785 541.842C493.313 542.17 492.713 542.334 491.985 542.334ZM493.689 538.482C493.601 537.274 493.001 536.67 491.889 536.67C491.385 536.67 490.969 536.83 490.641 537.15C490.313 537.47 490.105 537.914 490.017 538.482H493.689ZM497.543 539.802C497.471 540.666 497.319 541.298 497.087 541.698C496.855 542.09 496.491 542.286 495.995 542.286C495.891 542.286 495.783 542.278 495.671 542.262L495.575 542.226V541.278L495.659 541.302C495.739 541.318 495.823 541.326 495.911 541.326C496.039 541.326 496.143 541.29 496.223 541.218C496.311 541.138 496.379 541.014 496.427 540.846C496.483 540.678 496.523 540.522 496.547 540.378C496.571 540.226 496.599 540.014 496.631 539.742C496.663 539.454 496.711 538.638 496.775 537.294L496.811 535.95H500.951V542.226H499.955V536.79H497.699C497.627 538.518 497.575 539.522 497.543 539.802ZM503.085 535.95H504.081V538.146H505.197C505.901 538.146 506.477 538.318 506.925 538.662C507.373 539.006 507.597 539.518 507.597 540.198V540.234C507.597 540.922 507.373 541.426 506.925 541.746C506.485 542.066 505.909 542.226 505.197 542.226H503.085V535.95ZM505.257 541.446C505.737 541.446 506.081 541.346 506.289 541.146C506.497 540.938 506.601 540.634 506.601 540.234V540.198C506.601 539.766 506.493 539.45 506.277 539.25C506.069 539.042 505.729 538.938 505.257 538.938H504.081V541.446H505.257Z" fill="white"/>
<path d="M467.35 562.751L471.326 558.565C472.287 557.548 472.768 556.582 472.768 555.667C472.768 555.107 472.609 554.669 472.292 554.351C471.984 554.034 471.545 553.875 470.976 553.875C469.763 553.875 469.058 554.617 468.862 556.101H467.728C467.803 555.112 468.125 554.333 468.694 553.763C469.273 553.185 470.033 552.895 470.976 552.895C471.9 552.895 472.633 553.152 473.174 553.665C473.725 554.169 474 554.851 474 555.709C474 556.811 473.328 558.024 471.984 559.349L469.226 562.037H474.056V563.031H467.35V562.751ZM479.901 562.149C481.665 562.149 482.547 560.857 482.547 558.271V557.711C482.547 556.545 482.309 555.616 481.833 554.925C481.357 554.225 480.704 553.875 479.873 553.875C479.024 553.875 478.361 554.211 477.885 554.883C477.409 555.555 477.171 556.507 477.171 557.739V558.299C477.171 559.541 477.414 560.493 477.899 561.155C478.385 561.818 479.052 562.149 479.901 562.149ZM479.901 563.157C478.707 563.157 477.745 562.714 477.017 561.827C476.289 560.941 475.925 559.769 475.925 558.313V557.753C475.925 556.269 476.275 555.089 476.975 554.211C477.685 553.334 478.651 552.895 479.873 552.895C481.087 552.895 482.039 553.339 482.729 554.225C483.429 555.112 483.779 556.279 483.779 557.725V558.285C483.779 559.76 483.434 560.941 482.743 561.827C482.062 562.714 481.115 563.157 479.901 563.157ZM487.634 554.225L485.394 555.835V554.701L487.718 553.021H488.852V563.031H487.634V554.225ZM494.752 563.143C493.837 563.143 493.104 562.919 492.554 562.471C492.003 562.023 491.662 561.389 491.532 560.567H492.708C492.829 561.09 493.048 561.487 493.366 561.757C493.692 562.019 494.164 562.149 494.78 562.149C495.592 562.149 496.217 561.818 496.656 561.155C497.094 560.493 497.323 559.499 497.342 558.173C497.09 558.593 496.74 558.92 496.292 559.153C495.844 559.387 495.33 559.503 494.752 559.503C493.781 559.503 492.988 559.195 492.372 558.579C491.765 557.963 491.462 557.179 491.462 556.227C491.462 555.219 491.774 554.412 492.4 553.805C493.025 553.189 493.865 552.881 494.92 552.881C496.105 552.881 497.001 553.264 497.608 554.029C498.214 554.795 498.518 555.905 498.518 557.361V557.991C498.518 559.662 498.191 560.941 497.538 561.827C496.894 562.705 495.965 563.143 494.752 563.143ZM494.934 558.551C495.606 558.551 496.156 558.351 496.586 557.949C497.015 557.548 497.23 557.025 497.23 556.381C497.23 555.579 497.015 554.953 496.586 554.505C496.166 554.057 495.61 553.833 494.92 553.833C494.266 553.833 493.734 554.048 493.324 554.477C492.913 554.907 492.708 555.471 492.708 556.171C492.708 556.899 492.908 557.478 493.31 557.907C493.711 558.337 494.252 558.551 494.934 558.551Z" fill="white"/>
<path opacity="0.6" d="M563.74 535.854C564.676 535.902 565.444 536.202 566.044 536.754C566.652 537.306 566.956 538.066 566.956 539.034V539.13C566.956 540.106 566.656 540.87 566.056 541.422C565.456 541.974 564.684 542.274 563.74 542.322V544.41H562.756V542.322C561.82 542.274 561.048 541.974 560.44 541.422C559.84 540.87 559.54 540.11 559.54 539.142V539.046C559.54 538.07 559.84 537.306 560.44 536.754C561.04 536.202 561.812 535.902 562.756 535.854V532.95H563.74V535.854ZM562.756 536.61C562.108 536.642 561.58 536.87 561.172 537.294C560.764 537.71 560.56 538.29 560.56 539.034V539.118C560.56 539.878 560.764 540.47 561.172 540.894C561.58 541.318 562.108 541.538 562.756 541.554V536.61ZM563.74 541.566C564.388 541.55 564.916 541.33 565.324 540.906C565.732 540.474 565.936 539.886 565.936 539.142V539.058C565.936 538.29 565.732 537.702 565.324 537.294C564.924 536.878 564.396 536.654 563.74 536.622V541.566ZM571.264 542.334C570.368 542.334 569.636 542.042 569.068 541.458C568.508 540.874 568.228 540.106 568.228 539.154V539.058C568.228 538.114 568.5 537.342 569.044 536.742C569.596 536.142 570.304 535.842 571.168 535.842C571.968 535.842 572.636 536.102 573.172 536.622C573.716 537.134 573.988 537.914 573.988 538.962V539.286H569.26C569.308 540.766 569.98 541.506 571.276 541.506C572.26 541.506 572.816 541.142 572.944 540.414H573.94C573.828 541.038 573.536 541.514 573.064 541.842C572.592 542.17 571.992 542.334 571.264 542.334ZM572.968 538.482C572.88 537.274 572.28 536.67 571.168 536.67C570.664 536.67 570.248 536.83 569.92 537.15C569.592 537.47 569.384 537.914 569.296 538.482H572.968ZM575.564 535.95H577.76C579.232 535.95 579.968 536.482 579.968 537.546V537.582C579.968 537.886 579.884 538.166 579.716 538.422C579.548 538.67 579.296 538.838 578.96 538.926C579.832 539.118 580.268 539.59 580.268 540.342V540.378C580.268 540.986 580.068 541.446 579.668 541.758C579.276 542.07 578.728 542.226 578.024 542.226H575.564V535.95ZM576.56 536.742V538.602H577.76C578.176 538.602 578.472 538.526 578.648 538.374C578.832 538.222 578.924 537.974 578.924 537.63V537.594C578.924 537.274 578.828 537.054 578.636 536.934C578.452 536.806 578.156 536.742 577.748 536.742H576.56ZM576.56 539.394V541.434H577.928C578.368 541.434 578.692 541.358 578.9 541.206C579.116 541.046 579.224 540.79 579.224 540.438V540.402C579.224 540.05 579.116 539.794 578.9 539.634C578.692 539.474 578.368 539.394 577.928 539.394H576.56ZM582.049 535.95H583.045V537.006C583.229 536.686 583.517 536.414 583.909 536.19C584.301 535.958 584.721 535.842 585.169 535.842C586.009 535.842 586.693 536.126 587.221 536.694C587.757 537.262 588.025 538.03 588.025 538.998V539.094C588.025 540.062 587.761 540.846 587.233 541.446C586.713 542.038 586.025 542.334 585.169 542.334C584.209 542.334 583.501 541.954 583.045 541.194V544.41H582.049V535.95ZM585.073 541.506C585.697 541.506 586.173 541.306 586.501 540.906C586.829 540.498 586.993 539.91 586.993 539.142V539.046C586.993 538.286 586.809 537.702 586.441 537.294C586.081 536.878 585.621 536.67 585.061 536.67C584.453 536.67 583.957 536.874 583.573 537.282C583.197 537.682 583.009 538.27 583.009 539.046V539.142C583.009 539.918 583.193 540.506 583.561 540.906C583.937 541.306 584.441 541.506 585.073 541.506ZM591.265 542.334C590.649 542.334 590.145 542.182 589.753 541.878C589.369 541.566 589.177 541.102 589.177 540.486C589.177 540.142 589.261 539.842 589.429 539.586C589.605 539.322 589.845 539.118 590.149 538.974C590.453 538.822 590.785 538.714 591.145 538.65C591.505 538.578 591.897 538.542 592.321 538.542H593.221V538.086C593.221 537.582 593.117 537.222 592.909 537.006C592.701 536.782 592.357 536.67 591.877 536.67C591.013 536.67 590.533 537.046 590.437 537.798H589.441C589.505 537.126 589.765 536.634 590.221 536.322C590.685 536.002 591.253 535.842 591.925 535.842C593.453 535.842 594.217 536.59 594.217 538.086V542.226H593.221V541.434C592.741 542.034 592.089 542.334 591.265 542.334ZM591.361 541.542C591.905 541.542 592.349 541.41 592.693 541.146C593.045 540.874 593.221 540.502 593.221 540.03V539.25H592.357C590.901 539.25 590.173 539.662 590.173 540.486C590.173 541.19 590.569 541.542 591.361 541.542ZM597.421 539.802C597.349 540.666 597.197 541.298 596.965 541.698C596.733 542.09 596.369 542.286 595.873 542.286C595.769 542.286 595.661 542.278 595.549 542.262L595.453 542.226V541.278L595.537 541.302C595.617 541.318 595.701 541.326 595.789 541.326C595.917 541.326 596.021 541.29 596.101 541.218C596.189 541.138 596.257 541.014 596.305 540.846C596.361 540.678 596.401 540.522 596.425 540.378C596.449 540.226 596.477 540.014 596.509 539.742C596.541 539.454 596.589 538.638 596.653 537.294L596.689 535.95H600.829V542.226H599.833V536.79H597.577C597.505 538.518 597.453 539.522 597.421 539.802ZM602.962 535.95H603.958V538.146H605.074C605.778 538.146 606.354 538.318 606.802 538.662C607.25 539.006 607.474 539.518 607.474 540.198V540.234C607.474 540.922 607.25 541.426 606.802 541.746C606.362 542.066 605.786 542.226 605.074 542.226H602.962V535.95ZM605.134 541.446C605.614 541.446 605.958 541.346 606.166 541.146C606.374 540.938 606.478 540.634 606.478 540.234V540.198C606.478 539.766 606.37 539.45 606.154 539.25C605.946 539.042 605.606 538.938 605.134 538.938H603.958V541.446H605.134Z" fill="white"/>
<path d="M559.35 562.751L563.326 558.565C564.287 557.548 564.768 556.582 564.768 555.667C564.768 555.107 564.609 554.669 564.292 554.351C563.984 554.034 563.545 553.875 562.976 553.875C561.763 553.875 561.058 554.617 560.862 556.101H559.728C559.803 555.112 560.125 554.333 560.694 553.763C561.273 553.185 562.033 552.895 562.976 552.895C563.9 552.895 564.633 553.152 565.174 553.665C565.725 554.169 566 554.851 566 555.709C566 556.811 565.328 558.024 563.984 559.349L561.226 562.037H566.056V563.031H559.35V562.751ZM571.901 562.149C573.665 562.149 574.547 560.857 574.547 558.271V557.711C574.547 556.545 574.309 555.616 573.833 554.925C573.357 554.225 572.704 553.875 571.873 553.875C571.024 553.875 570.361 554.211 569.885 554.883C569.409 555.555 569.171 556.507 569.171 557.739V558.299C569.171 559.541 569.414 560.493 569.899 561.155C570.385 561.818 571.052 562.149 571.901 562.149ZM571.901 563.157C570.707 563.157 569.745 562.714 569.017 561.827C568.289 560.941 567.925 559.769 567.925 558.313V557.753C567.925 556.269 568.275 555.089 568.975 554.211C569.685 553.334 570.651 552.895 571.873 552.895C573.087 552.895 574.039 553.339 574.729 554.225C575.429 555.112 575.779 556.279 575.779 557.725V558.285C575.779 559.76 575.434 560.941 574.743 561.827C574.062 562.714 573.115 563.157 571.901 563.157ZM577.198 562.751L581.174 558.565C582.136 557.548 582.616 556.582 582.616 555.667C582.616 555.107 582.458 554.669 582.14 554.351C581.832 554.034 581.394 553.875 580.824 553.875C579.611 553.875 578.906 554.617 578.71 556.101H577.576C577.651 555.112 577.973 554.333 578.542 553.763C579.121 553.185 579.882 552.895 580.824 552.895C581.748 552.895 582.481 553.152 583.022 553.665C583.573 554.169 583.848 554.851 583.848 555.709C583.848 556.811 583.176 558.024 581.832 559.349L579.074 562.037H583.904V563.031H577.198V562.751ZM589.75 562.149C591.514 562.149 592.396 560.857 592.396 558.271V557.711C592.396 556.545 592.158 555.616 591.682 554.925C591.206 554.225 590.552 553.875 589.722 553.875C588.872 553.875 588.21 554.211 587.734 554.883C587.258 555.555 587.02 556.507 587.02 557.739V558.299C587.02 559.541 587.262 560.493 587.748 561.155C588.233 561.818 588.9 562.149 589.75 562.149ZM589.75 563.157C588.555 563.157 587.594 562.714 586.866 561.827C586.138 560.941 585.774 559.769 585.774 558.313V557.753C585.774 556.269 586.124 555.089 586.824 554.211C587.533 553.334 588.499 552.895 589.722 552.895C590.935 552.895 591.887 553.339 592.578 554.225C593.278 555.112 593.628 556.279 593.628 557.725V558.285C593.628 559.76 593.282 560.941 592.592 561.827C591.91 562.714 590.963 563.157 589.75 563.157Z" fill="white"/>
<path opacity="0.6" d="M651.848 536.934V542.226H651.02V535.95H652.424L654.212 540.666L656.048 535.95H657.416V542.226H656.432V536.934L654.356 542.226H653.9L651.848 536.934ZM661.21 542.334C660.594 542.334 660.089 542.182 659.697 541.878C659.313 541.566 659.121 541.102 659.121 540.486C659.121 540.142 659.205 539.842 659.373 539.586C659.549 539.322 659.789 539.118 660.093 538.974C660.397 538.822 660.729 538.714 661.09 538.65C661.45 538.578 661.842 538.542 662.266 538.542H663.165V538.086C663.165 537.582 663.061 537.222 662.854 537.006C662.646 536.782 662.302 536.67 661.822 536.67C660.957 536.67 660.477 537.046 660.382 537.798H659.385C659.449 537.126 659.709 536.634 660.165 536.322C660.629 536.002 661.197 535.842 661.87 535.842C663.398 535.842 664.161 536.59 664.161 538.086V542.226H663.165V541.434C662.685 542.034 662.033 542.334 661.21 542.334ZM661.306 541.542C661.85 541.542 662.294 541.41 662.637 541.146C662.989 540.874 663.165 540.502 663.165 540.03V539.25H662.301C660.845 539.25 660.118 539.662 660.118 540.486C660.118 541.19 660.514 541.542 661.306 541.542ZM668.746 534.798C668.314 534.798 667.946 534.65 667.642 534.354C667.338 534.05 667.178 533.67 667.162 533.214H668.026C668.074 533.806 668.314 534.102 668.746 534.102C669.218 534.102 669.482 533.806 669.538 533.214H670.378C670.346 533.67 670.174 534.05 669.862 534.354C669.558 534.65 669.186 534.798 668.746 534.798ZM666.166 542.226V535.95H667.162V540.786L670.366 535.95H671.362V542.226H670.366V537.39L667.162 542.226H666.166Z" fill="white"/>
<path d="M650.35 562.751L654.326 558.565C655.287 557.548 655.768 556.582 655.768 555.667C655.768 555.107 655.609 554.669 655.292 554.351C654.984 554.034 654.545 553.875 653.976 553.875C652.763 553.875 652.058 554.617 651.862 556.101H650.728C650.803 555.112 651.125 554.333 651.694 553.763C652.273 553.185 653.033 552.895 653.976 552.895C654.9 552.895 655.633 553.152 656.174 553.665C656.725 554.169 657 554.851 657 555.709C657 556.811 656.328 558.024 654.984 559.349L652.226 562.037H657.056V563.031H650.35V562.751ZM662.901 562.149C664.665 562.149 665.547 560.857 665.547 558.271V557.711C665.547 556.545 665.309 555.616 664.833 554.925C664.357 554.225 663.704 553.875 662.873 553.875C662.024 553.875 661.361 554.211 660.885 554.883C660.409 555.555 660.171 556.507 660.171 557.739V558.299C660.171 559.541 660.414 560.493 660.899 561.155C661.385 561.818 662.052 562.149 662.901 562.149ZM662.901 563.157C661.707 563.157 660.745 562.714 660.017 561.827C659.289 560.941 658.925 559.769 658.925 558.313V557.753C658.925 556.269 659.275 555.089 659.975 554.211C660.685 553.334 661.651 552.895 662.873 552.895C664.087 552.895 665.039 553.339 665.729 554.225C666.429 555.112 666.779 556.279 666.779 557.725V558.285C666.779 559.76 666.434 560.941 665.743 561.827C665.062 562.714 664.115 563.157 662.901 563.157ZM668.198 562.751L672.174 558.565C673.136 557.548 673.616 556.582 673.616 555.667C673.616 555.107 673.458 554.669 673.14 554.351C672.832 554.034 672.394 553.875 671.824 553.875C670.611 553.875 669.906 554.617 669.71 556.101H668.576C668.651 555.112 668.973 554.333 669.542 553.763C670.121 553.185 670.882 552.895 671.824 552.895C672.748 552.895 673.481 553.152 674.022 553.665C674.573 554.169 674.848 554.851 674.848 555.709C674.848 556.811 674.176 558.024 672.832 559.349L670.074 562.037H674.904V563.031H668.198V562.751ZM680.75 562.149C682.514 562.149 683.396 560.857 683.396 558.271V557.711C683.396 556.545 683.158 555.616 682.682 554.925C682.206 554.225 681.552 553.875 680.722 553.875C679.872 553.875 679.21 554.211 678.734 554.883C678.258 555.555 678.02 556.507 678.02 557.739V558.299C678.02 559.541 678.262 560.493 678.748 561.155C679.233 561.818 679.9 562.149 680.75 562.149ZM680.75 563.157C679.555 563.157 678.594 562.714 677.866 561.827C677.138 560.941 676.774 559.769 676.774 558.313V557.753C676.774 556.269 677.124 555.089 677.824 554.211C678.533 553.334 679.499 552.895 680.722 552.895C681.935 552.895 682.887 553.339 683.578 554.225C684.278 555.112 684.628 556.279 684.628 557.725V558.285C684.628 559.76 684.282 560.941 683.592 561.827C682.91 562.714 681.963 563.157 680.75 563.157Z" fill="white"/>
<path opacity="0.6" d="M740.008 542.226V535.95H741.004V540.786L744.208 535.95H745.204V542.226H744.208V537.39L741.004 542.226H740.008ZM752.102 542.334C751.302 542.334 750.638 542.086 750.11 541.59C749.59 541.094 749.282 540.442 749.186 539.634C749.17 539.522 749.162 539.454 749.162 539.43H748.214V542.226H747.218V535.95H748.214V538.59H749.174C749.27 537.758 749.578 537.094 750.098 536.598C750.626 536.094 751.298 535.842 752.114 535.842C753.002 535.842 753.718 536.138 754.262 536.73C754.806 537.322 755.078 538.09 755.078 539.034V539.13C755.078 540.082 754.802 540.854 754.25 541.446C753.706 542.038 752.99 542.334 752.102 542.334ZM752.114 541.506C752.73 541.506 753.206 541.294 753.542 540.87C753.878 540.446 754.046 539.87 754.046 539.142V539.058C754.046 538.322 753.878 537.742 753.542 537.318C753.206 536.886 752.73 536.67 752.114 536.67C751.49 536.67 751.01 536.882 750.674 537.306C750.346 537.73 750.182 538.31 750.182 539.046V539.142C750.182 539.878 750.346 540.458 750.674 540.882C751.002 541.298 751.482 541.506 752.114 541.506ZM757.889 539.802C757.817 540.666 757.665 541.298 757.433 541.698C757.201 542.09 756.837 542.286 756.341 542.286C756.237 542.286 756.129 542.278 756.017 542.262L755.921 542.226V541.278L756.005 541.302C756.085 541.318 756.169 541.326 756.257 541.326C756.385 541.326 756.489 541.29 756.569 541.218C756.657 541.138 756.725 541.014 756.773 540.846C756.829 540.678 756.869 540.522 756.893 540.378C756.917 540.226 756.945 540.014 756.977 539.742C757.009 539.454 757.057 538.638 757.121 537.294L757.157 535.95H761.297V542.226H760.301V536.79H758.045C757.973 538.518 757.921 539.522 757.889 539.802ZM763.431 535.95H764.427V538.146H765.543C766.247 538.146 766.823 538.318 767.271 538.662C767.719 539.006 767.943 539.518 767.943 540.198V540.234C767.943 540.922 767.719 541.426 767.271 541.746C766.831 542.066 766.255 542.226 765.543 542.226H763.431V535.95ZM765.603 541.446C766.083 541.446 766.427 541.346 766.635 541.146C766.843 540.938 766.947 540.634 766.947 540.234V540.198C766.947 539.766 766.839 539.45 766.623 539.25C766.415 539.042 766.075 538.938 765.603 538.938H764.427V541.446H765.603Z" fill="white"/>
<path d="M739.35 562.751L743.326 558.565C744.287 557.548 744.768 556.582 744.768 555.667C744.768 555.107 744.609 554.669 744.292 554.351C743.984 554.034 743.545 553.875 742.976 553.875C741.763 553.875 741.058 554.617 740.862 556.101H739.728C739.803 555.112 740.125 554.333 740.694 553.763C741.273 553.185 742.033 552.895 742.976 552.895C743.9 552.895 744.633 553.152 745.174 553.665C745.725 554.169 746 554.851 746 555.709C746 556.811 745.328 558.024 743.984 559.349L741.226 562.037H746.056V563.031H739.35V562.751ZM751.901 562.149C753.665 562.149 754.547 560.857 754.547 558.271V557.711C754.547 556.545 754.309 555.616 753.833 554.925C753.357 554.225 752.704 553.875 751.873 553.875C751.024 553.875 750.361 554.211 749.885 554.883C749.409 555.555 749.171 556.507 749.171 557.739V558.299C749.171 559.541 749.414 560.493 749.899 561.155C750.385 561.818 751.052 562.149 751.901 562.149ZM751.901 563.157C750.707 563.157 749.745 562.714 749.017 561.827C748.289 560.941 747.925 559.769 747.925 558.313V557.753C747.925 556.269 748.275 555.089 748.975 554.211C749.685 553.334 750.651 552.895 751.873 552.895C753.087 552.895 754.039 553.339 754.729 554.225C755.429 555.112 755.779 556.279 755.779 557.725V558.285C755.779 559.76 755.434 560.941 754.743 561.827C754.062 562.714 753.115 563.157 751.901 563.157ZM757.198 562.751L761.174 558.565C762.136 557.548 762.616 556.582 762.616 555.667C762.616 555.107 762.458 554.669 762.14 554.351C761.832 554.034 761.394 553.875 760.824 553.875C759.611 553.875 758.906 554.617 758.71 556.101H757.576C757.651 555.112 757.973 554.333 758.542 553.763C759.121 553.185 759.882 552.895 760.824 552.895C761.748 552.895 762.481 553.152 763.022 553.665C763.573 554.169 763.848 554.851 763.848 555.709C763.848 556.811 763.176 558.024 761.832 559.349L759.074 562.037H763.904V563.031H757.198V562.751ZM769.75 562.149C771.514 562.149 772.396 560.857 772.396 558.271V557.711C772.396 556.545 772.158 555.616 771.682 554.925C771.206 554.225 770.552 553.875 769.722 553.875C768.872 553.875 768.21 554.211 767.734 554.883C767.258 555.555 767.02 556.507 767.02 557.739V558.299C767.02 559.541 767.262 560.493 767.748 561.155C768.233 561.818 768.9 562.149 769.75 562.149ZM769.75 563.157C768.555 563.157 767.594 562.714 766.866 561.827C766.138 560.941 765.774 559.769 765.774 558.313V557.753C765.774 556.269 766.124 555.089 766.824 554.211C767.533 553.334 768.499 552.895 769.722 552.895C770.935 552.895 771.887 553.339 772.578 554.225C773.278 555.112 773.628 556.279 773.628 557.725V558.285C773.628 559.76 773.282 560.941 772.592 561.827C771.91 562.714 770.963 563.157 769.75 563.157Z" fill="white"/>
<path opacity="0.6" d="M829.684 542.334C828.788 542.334 828.052 542.046 827.476 541.47C826.9 540.886 826.612 540.114 826.612 539.154V539.058C826.612 538.114 826.904 537.342 827.488 536.742C828.08 536.142 828.804 535.842 829.66 535.842C830.38 535.842 830.992 536.022 831.496 536.382C832 536.734 832.296 537.286 832.384 538.038H831.4C831.256 537.126 830.676 536.67 829.66 536.67C829.076 536.67 828.592 536.89 828.208 537.33C827.832 537.762 827.644 538.338 827.644 539.058V539.154C827.644 539.906 827.828 540.486 828.196 540.894C828.572 541.302 829.072 541.506 829.696 541.506C830.168 541.506 830.572 541.374 830.908 541.11C831.252 540.838 831.448 540.458 831.496 539.97H832.42C832.356 540.658 832.068 541.226 831.556 541.674C831.052 542.114 830.428 542.334 829.684 542.334ZM836.612 542.334C835.716 542.334 834.984 542.042 834.416 541.458C833.856 540.874 833.576 540.106 833.576 539.154V539.058C833.576 538.114 833.848 537.342 834.392 536.742C834.944 536.142 835.652 535.842 836.516 535.842C837.316 535.842 837.984 536.102 838.52 536.622C839.064 537.134 839.336 537.914 839.336 538.962V539.286H834.608C834.656 540.766 835.328 541.506 836.624 541.506C837.608 541.506 838.164 541.142 838.292 540.414H839.288C839.176 541.038 838.884 541.514 838.412 541.842C837.94 542.17 837.34 542.334 836.612 542.334ZM838.316 538.482C838.228 537.274 837.628 536.67 836.516 536.67C836.012 536.67 835.596 536.83 835.268 537.15C834.94 537.47 834.732 537.914 834.644 538.482H838.316ZM844.992 539.43H841.908V542.226H840.912V535.95H841.908V538.59H844.992V535.95H845.988V542.226H844.992V539.43ZM852.526 536.79H850.498V542.226H849.502V536.79H847.474V535.95H852.526V536.79ZM856.107 536.742C855.211 536.742 854.763 537.122 854.763 537.882V537.918C854.763 538.278 854.867 538.55 855.075 538.734C855.283 538.918 855.627 539.01 856.107 539.01H857.283V536.742H856.107ZM854.451 542.226H853.311L855.219 539.598C854.251 539.398 853.767 538.838 853.767 537.918V537.882C853.767 537.226 853.991 536.742 854.439 536.43C854.887 536.11 855.463 535.95 856.167 535.95H858.279V542.226H857.283V539.766H856.203L854.451 542.226ZM863.12 542.334C862.176 542.334 861.428 542.03 860.876 541.422C860.324 540.814 860.048 539.89 860.048 538.65V538.266C860.048 537.674 860.072 537.15 860.12 536.694C860.168 536.23 860.268 535.766 860.42 535.302C860.572 534.83 860.772 534.438 861.02 534.126C861.268 533.814 861.604 533.554 862.028 533.346C862.46 533.138 862.968 533.018 863.552 532.986L863.792 532.974C864.672 532.926 865.268 532.838 865.58 532.71L865.712 533.55C865.304 533.726 864.668 533.834 863.804 533.874L863.624 533.886C862.656 533.934 861.964 534.25 861.548 534.834C861.14 535.41 860.9 536.306 860.828 537.522H860.876C861.092 537.082 861.412 536.734 861.836 536.478C862.268 536.214 862.768 536.082 863.336 536.082C864.208 536.082 864.904 536.366 865.424 536.934C865.952 537.494 866.216 538.222 866.216 539.118V539.166C866.216 540.134 865.924 540.906 865.34 541.482C864.764 542.05 864.024 542.334 863.12 542.334ZM861.62 540.894C861.988 541.302 862.492 541.506 863.132 541.506C863.772 541.506 864.272 541.306 864.632 540.906C865 540.498 865.184 539.922 865.184 539.178V539.154C865.184 538.458 865.016 537.91 864.68 537.51C864.352 537.11 863.872 536.91 863.24 536.91C862.576 536.91 862.048 537.118 861.656 537.534C861.272 537.95 861.08 538.518 861.08 539.238V539.262C861.08 539.942 861.26 540.486 861.62 540.894ZM867.96 535.95H868.956V537.006C869.14 536.686 869.428 536.414 869.82 536.19C870.212 535.958 870.632 535.842 871.08 535.842C871.92 535.842 872.604 536.126 873.132 536.694C873.668 537.262 873.936 538.03 873.936 538.998V539.094C873.936 540.062 873.672 540.846 873.144 541.446C872.624 542.038 871.936 542.334 871.08 542.334C870.12 542.334 869.412 541.954 868.956 541.194V544.41H867.96V535.95ZM870.984 541.506C871.608 541.506 872.084 541.306 872.412 540.906C872.74 540.498 872.904 539.91 872.904 539.142V539.046C872.904 538.286 872.72 537.702 872.352 537.294C871.992 536.878 871.532 536.67 870.972 536.67C870.364 536.67 869.868 536.874 869.484 537.282C869.108 537.682 868.92 538.27 868.92 539.046V539.142C868.92 539.918 869.104 540.506 869.472 540.906C869.848 541.306 870.352 541.506 870.984 541.506ZM875.532 535.95H876.528V538.146H877.644C878.348 538.146 878.924 538.318 879.372 538.662C879.82 539.006 880.044 539.518 880.044 540.198V540.234C880.044 540.922 879.82 541.426 879.372 541.746C878.932 542.066 878.356 542.226 877.644 542.226H875.532V535.95ZM877.704 541.446C878.184 541.446 878.528 541.346 878.736 541.146C878.944 540.938 879.048 540.634 879.048 540.234V540.198C879.048 539.766 878.94 539.45 878.724 539.25C878.516 539.042 878.176 538.938 877.704 538.938H876.528V541.446H877.704Z" fill="white"/>
<path d="M826.35 562.751L830.326 558.565C831.287 557.548 831.768 556.582 831.768 555.667C831.768 555.107 831.609 554.669 831.292 554.351C830.984 554.034 830.545 553.875 829.976 553.875C828.763 553.875 828.058 554.617 827.862 556.101H826.728C826.803 555.112 827.125 554.333 827.694 553.763C828.273 553.185 829.033 552.895 829.976 552.895C830.9 552.895 831.633 553.152 832.174 553.665C832.725 554.169 833 554.851 833 555.709C833 556.811 832.328 558.024 830.984 559.349L828.226 562.037H833.056V563.031H826.35V562.751ZM838.901 562.149C840.665 562.149 841.547 560.857 841.547 558.271V557.711C841.547 556.545 841.309 555.616 840.833 554.925C840.357 554.225 839.704 553.875 838.873 553.875C838.024 553.875 837.361 554.211 836.885 554.883C836.409 555.555 836.171 556.507 836.171 557.739V558.299C836.171 559.541 836.414 560.493 836.899 561.155C837.385 561.818 838.052 562.149 838.901 562.149ZM838.901 563.157C837.707 563.157 836.745 562.714 836.017 561.827C835.289 560.941 834.925 559.769 834.925 558.313V557.753C834.925 556.269 835.275 555.089 835.975 554.211C836.685 553.334 837.651 552.895 838.873 552.895C840.087 552.895 841.039 553.339 841.729 554.225C842.429 555.112 842.779 556.279 842.779 557.725V558.285C842.779 559.76 842.434 560.941 841.743 561.827C841.062 562.714 840.115 563.157 838.901 563.157ZM844.198 562.751L848.174 558.565C849.136 557.548 849.616 556.582 849.616 555.667C849.616 555.107 849.458 554.669 849.14 554.351C848.832 554.034 848.394 553.875 847.824 553.875C846.611 553.875 845.906 554.617 845.71 556.101H844.576C844.651 555.112 844.973 554.333 845.542 553.763C846.121 553.185 846.882 552.895 847.824 552.895C848.748 552.895 849.481 553.152 850.022 553.665C850.573 554.169 850.848 554.851 850.848 555.709C850.848 556.811 850.176 558.024 848.832 559.349L846.074 562.037H850.904V563.031H844.198V562.751ZM856.75 562.149C858.514 562.149 859.396 560.857 859.396 558.271V557.711C859.396 556.545 859.158 555.616 858.682 554.925C858.206 554.225 857.552 553.875 856.722 553.875C855.872 553.875 855.21 554.211 854.734 554.883C854.258 555.555 854.02 556.507 854.02 557.739V558.299C854.02 559.541 854.262 560.493 854.748 561.155C855.233 561.818 855.9 562.149 856.75 562.149ZM856.75 563.157C855.555 563.157 854.594 562.714 853.866 561.827C853.138 560.941 852.774 559.769 852.774 558.313V557.753C852.774 556.269 853.124 555.089 853.824 554.211C854.533 553.334 855.499 552.895 856.722 552.895C857.935 552.895 858.887 553.339 859.578 554.225C860.278 555.112 860.628 556.279 860.628 557.725V558.285C860.628 559.76 860.282 560.941 859.592 561.827C858.91 562.714 857.963 563.157 856.75 563.157Z" fill="white"/>
<path opacity="0.6" d="M5.412 376.525H3.384V381.961H2.388V376.525H0.36V375.685H5.412V376.525ZM12.3053 375.685H13.3013V381.961H12.3053V375.685ZM6.90534 375.685H7.90134V377.881H9.01734C9.72934 377.881 10.3053 378.041 10.7453 378.361C11.1933 378.681 11.4173 379.185 11.4173 379.873V379.909C11.4173 380.589 11.1933 381.101 10.7453 381.445C10.2973 381.789 9.72134 381.961 9.01734 381.961H6.90534V375.685ZM9.07734 381.169C9.54934 381.169 9.88934 381.069 10.0973 380.869C10.3133 380.661 10.4213 380.341 10.4213 379.909V379.873C10.4213 379.473 10.3173 379.173 10.1093 378.973C9.90134 378.765 9.55734 378.661 9.07734 378.661H7.90134V381.169H9.07734ZM18.1154 382.069C17.2194 382.069 16.4834 381.781 15.9074 381.205C15.3314 380.621 15.0434 379.849 15.0434 378.889V378.793C15.0434 377.849 15.3354 377.077 15.9194 376.477C16.5114 375.877 17.2354 375.577 18.0914 375.577C18.8114 375.577 19.4234 375.757 19.9274 376.117C20.4314 376.469 20.7274 377.021 20.8154 377.773H19.8314C19.6874 376.861 19.1074 376.405 18.0914 376.405C17.5074 376.405 17.0234 376.625 16.6394 377.065C16.2634 377.497 16.0754 378.073 16.0754 378.793V378.889C16.0754 379.641 16.2594 380.221 16.6274 380.629C17.0034 381.037 17.5034 381.241 18.1274 381.241C18.5994 381.241 19.0034 381.109 19.3394 380.845C19.6834 380.573 19.8794 380.193 19.9274 379.705H20.8514C20.7874 380.393 20.4994 380.961 19.9874 381.409C19.4834 381.849 18.8594 382.069 18.1154 382.069ZM25.7709 375.685H26.7669V376.741C26.9509 376.421 27.2389 376.149 27.6309 375.925C28.0229 375.693 28.4429 375.577 28.8909 375.577C29.7309 375.577 30.4149 375.861 30.9429 376.429C31.4789 376.997 31.7469 377.765 31.7469 378.733V378.829C31.7469 379.797 31.4829 380.581 30.9549 381.181C30.4349 381.773 29.7469 382.069 28.8909 382.069C27.9309 382.069 27.2229 381.689 26.7669 380.929V384.145H25.7709V375.685ZM28.7949 381.241C29.4189 381.241 29.8949 381.041 30.2229 380.641C30.5509 380.233 30.7149 379.645 30.7149 378.877V378.781C30.7149 378.021 30.5309 377.437 30.1629 377.029C29.8029 376.613 29.3429 376.405 28.7829 376.405C28.1749 376.405 27.6789 376.609 27.2949 377.017C26.9189 377.417 26.7309 378.005 26.7309 378.781V378.877C26.7309 379.653 26.9149 380.241 27.2829 380.641C27.6589 381.041 28.1629 381.241 28.7949 381.241ZM35.0492 381.313L32.5892 375.685H33.6572L35.5772 380.185L37.3172 375.685H38.3372L34.8692 384.145H33.8612L35.0492 381.313ZM42.3968 382.069C41.4528 382.069 40.7048 381.765 40.1528 381.157C39.6008 380.549 39.3248 379.625 39.3248 378.385V378.001C39.3248 377.409 39.3488 376.885 39.3968 376.429C39.4448 375.965 39.5448 375.501 39.6968 375.037C39.8488 374.565 40.0488 374.173 40.2968 373.861C40.5448 373.549 40.8808 373.289 41.3048 373.081C41.7368 372.873 42.2448 372.753 42.8288 372.721L43.0688 372.709C43.9488 372.661 44.5448 372.573 44.8568 372.445L44.9888 373.285C44.5808 373.461 43.9448 373.569 43.0808 373.609L42.9008 373.621C41.9328 373.669 41.2408 373.985 40.8248 374.569C40.4168 375.145 40.1768 376.041 40.1048 377.257H40.1528C40.3688 376.817 40.6888 376.469 41.1128 376.213C41.5448 375.949 42.0448 375.817 42.6128 375.817C43.4848 375.817 44.1808 376.101 44.7008 376.669C45.2288 377.229 45.4928 377.957 45.4928 378.853V378.901C45.4928 379.869 45.2008 380.641 44.6168 381.217C44.0408 381.785 43.3008 382.069 42.3968 382.069ZM40.8968 380.629C41.2648 381.037 41.7688 381.241 42.4088 381.241C43.0488 381.241 43.5488 381.041 43.9088 380.641C44.2768 380.233 44.4608 379.657 44.4608 378.913V378.889C44.4608 378.193 44.2928 377.645 43.9568 377.245C43.6288 376.845 43.1488 376.645 42.5168 376.645C41.8528 376.645 41.3248 376.853 40.9328 377.269C40.5488 377.685 40.3568 378.253 40.3568 378.973V378.997C40.3568 379.677 40.5368 380.221 40.8968 380.629Z" fill="white"/>
<path d="M16.1065 360.617L20.6505 355.833C21.7492 354.671 22.2985 353.567 22.2985 352.521C22.2985 351.881 22.1172 351.38 21.7545 351.017C21.4025 350.655 20.9012 350.473 20.2505 350.473C18.8639 350.473 18.0585 351.321 17.8345 353.017H16.5385C16.6239 351.887 16.9919 350.996 17.6425 350.345C18.3039 349.684 19.1732 349.353 20.2505 349.353C21.3065 349.353 22.1439 349.647 22.7625 350.233C23.3919 350.809 23.7065 351.588 23.7065 352.569C23.7065 353.828 22.9385 355.215 21.4025 356.729L18.2505 359.801H23.7705V360.938H16.1065V360.617ZM29.9408 361.082C27.1995 361.082 25.8288 359.348 25.8288 355.881V355.609C25.8288 353.604 26.2341 352.063 27.0448 350.985C27.8661 349.897 28.9541 349.353 30.3088 349.353C31.2261 349.353 31.9728 349.588 32.5488 350.057C33.1355 350.527 33.5035 351.215 33.6528 352.122H32.3248C32.1968 351.567 31.9675 351.156 31.6368 350.889C31.3061 350.623 30.8315 350.489 30.2128 350.489C29.3275 350.489 28.6128 350.884 28.0688 351.673C27.5248 352.463 27.2368 353.593 27.2048 355.065C27.8235 354.031 28.8048 353.513 30.1488 353.513C31.2688 353.513 32.1701 353.871 32.8528 354.585C33.5461 355.289 33.8928 356.18 33.8928 357.257C33.8928 358.409 33.5355 359.337 32.8208 360.041C32.1061 360.735 31.1461 361.082 29.9408 361.082ZM29.9408 359.993C30.6875 359.993 31.2955 359.748 31.7648 359.257C32.2341 358.767 32.4688 358.121 32.4688 357.321C32.4688 356.489 32.2395 355.828 31.7808 355.337C31.3221 354.847 30.7035 354.601 29.9248 354.601C29.1568 354.601 28.5275 354.836 28.0368 355.305C27.5461 355.775 27.3008 356.383 27.3008 357.129C27.3008 358.036 27.5408 358.74 28.0208 359.241C28.5115 359.743 29.1515 359.993 29.9408 359.993ZM40.5484 359.929C42.5644 359.929 43.5724 358.452 43.5724 355.497V354.857C43.5724 353.524 43.3004 352.463 42.7564 351.673C42.2124 350.873 41.4658 350.473 40.5164 350.473C39.5458 350.473 38.7884 350.857 38.2444 351.625C37.7004 352.393 37.4284 353.481 37.4284 354.889V355.529C37.4284 356.948 37.7058 358.036 38.2604 358.793C38.8151 359.551 39.5778 359.929 40.5484 359.929ZM40.5484 361.082C39.1831 361.082 38.0844 360.575 37.2524 359.561C36.4204 358.548 36.0044 357.209 36.0044 355.545V354.905C36.0044 353.209 36.4044 351.86 37.2044 350.857C38.0151 349.855 39.1191 349.353 40.5164 349.353C41.9031 349.353 42.9911 349.86 43.7804 350.873C44.5804 351.887 44.9804 353.22 44.9804 354.873V355.513C44.9804 357.199 44.5858 358.548 43.7964 359.561C43.0178 360.575 41.9351 361.082 40.5484 361.082Z" fill="white"/>
<path opacity="0.6" d="M5.412 284.336H3.384V289.772H2.388V284.336H0.36V283.496H5.412V284.336ZM12.3053 283.496H13.3013V289.772H12.3053V283.496ZM6.90534 283.496H7.90134V285.692H9.01734C9.72934 285.692 10.3053 285.852 10.7453 286.172C11.1933 286.492 11.4173 286.996 11.4173 287.684V287.72C11.4173 288.4 11.1933 288.912 10.7453 289.256C10.2973 289.6 9.72134 289.772 9.01734 289.772H6.90534V283.496ZM9.07734 288.98C9.54934 288.98 9.88934 288.88 10.0973 288.68C10.3133 288.472 10.4213 288.152 10.4213 287.72V287.684C10.4213 287.284 10.3173 286.984 10.1093 286.784C9.90134 286.576 9.55734 286.472 9.07734 286.472H7.90134V288.98H9.07734ZM18.1154 289.88C17.2194 289.88 16.4834 289.592 15.9074 289.016C15.3314 288.432 15.0434 287.66 15.0434 286.7V286.604C15.0434 285.66 15.3354 284.888 15.9194 284.288C16.5114 283.688 17.2354 283.388 18.0914 283.388C18.8114 283.388 19.4234 283.568 19.9274 283.928C20.4314 284.28 20.7274 284.832 20.8154 285.584H19.8314C19.6874 284.672 19.1074 284.216 18.0914 284.216C17.5074 284.216 17.0234 284.436 16.6394 284.876C16.2634 285.308 16.0754 285.884 16.0754 286.604V286.7C16.0754 287.452 16.2594 288.032 16.6274 288.44C17.0034 288.848 17.5034 289.052 18.1274 289.052C18.5994 289.052 19.0034 288.92 19.3394 288.656C19.6834 288.384 19.8794 288.004 19.9274 287.516H20.8514C20.7874 288.204 20.4994 288.772 19.9874 289.22C19.4834 289.66 18.8594 289.88 18.1154 289.88ZM25.7709 283.496H26.7669V284.552C26.9509 284.232 27.2389 283.96 27.6309 283.736C28.0229 283.504 28.4429 283.388 28.8909 283.388C29.7309 283.388 30.4149 283.672 30.9429 284.24C31.4789 284.808 31.7469 285.576 31.7469 286.544V286.64C31.7469 287.608 31.4829 288.392 30.9549 288.992C30.4349 289.584 29.7469 289.88 28.8909 289.88C27.9309 289.88 27.2229 289.5 26.7669 288.74V291.956H25.7709V283.496ZM28.7949 289.052C29.4189 289.052 29.8949 288.852 30.2229 288.452C30.5509 288.044 30.7149 287.456 30.7149 286.688V286.592C30.7149 285.832 30.5309 285.248 30.1629 284.84C29.8029 284.424 29.3429 284.216 28.7829 284.216C28.1749 284.216 27.6789 284.42 27.2949 284.828C26.9189 285.228 26.7309 285.816 26.7309 286.592V286.688C26.7309 287.464 26.9149 288.052 27.2829 288.452C27.6589 288.852 28.1629 289.052 28.7949 289.052ZM35.0492 289.124L32.5892 283.496H33.6572L35.5772 287.996L37.3172 283.496H38.3372L34.8692 291.956H33.8612L35.0492 289.124ZM42.3968 289.88C41.4528 289.88 40.7048 289.576 40.1528 288.968C39.6008 288.36 39.3248 287.436 39.3248 286.196V285.812C39.3248 285.22 39.3488 284.696 39.3968 284.24C39.4448 283.776 39.5448 283.312 39.6968 282.848C39.8488 282.376 40.0488 281.984 40.2968 281.672C40.5448 281.36 40.8808 281.1 41.3048 280.892C41.7368 280.684 42.2448 280.564 42.8288 280.532L43.0688 280.52C43.9488 280.472 44.5448 280.384 44.8568 280.256L44.9888 281.096C44.5808 281.272 43.9448 281.38 43.0808 281.42L42.9008 281.432C41.9328 281.48 41.2408 281.796 40.8248 282.38C40.4168 282.956 40.1768 283.852 40.1048 285.068H40.1528C40.3688 284.628 40.6888 284.28 41.1128 284.024C41.5448 283.76 42.0448 283.628 42.6128 283.628C43.4848 283.628 44.1808 283.912 44.7008 284.48C45.2288 285.04 45.4928 285.768 45.4928 286.664V286.712C45.4928 287.68 45.2008 288.452 44.6168 289.028C44.0408 289.596 43.3008 289.88 42.3968 289.88ZM40.8968 288.44C41.2648 288.848 41.7688 289.052 42.4088 289.052C43.0488 289.052 43.5488 288.852 43.9088 288.452C44.2768 288.044 44.4608 287.468 44.4608 286.724V286.7C44.4608 286.004 44.2928 285.456 43.9568 285.056C43.6288 284.656 43.1488 284.456 42.5168 284.456C41.8528 284.456 41.3248 284.664 40.9328 285.08C40.5488 285.496 40.3568 286.064 40.3568 286.784V286.808C40.3568 287.488 40.5368 288.032 40.8968 288.44Z" fill="white"/>
<path d="M22.5368 268.893C21.3528 268.893 20.3981 268.562 19.6728 267.901C18.9581 267.24 18.5794 266.397 18.5368 265.373H19.8168C19.8808 266.098 20.1421 266.68 20.6008 267.117C21.0594 267.554 21.7154 267.773 22.5688 267.773C23.4434 267.773 24.0941 267.581 24.5208 267.197C24.9581 266.802 25.1768 266.258 25.1768 265.565C25.1768 264.082 24.3714 263.341 22.7608 263.341H21.8968V262.173H22.6968C24.1261 262.173 24.8408 261.522 24.8408 260.221C24.8408 259.656 24.6648 259.197 24.3128 258.845C23.9608 258.482 23.4434 258.301 22.7608 258.301C22.0568 258.301 21.4754 258.498 21.0168 258.893C20.5688 259.288 20.3074 259.81 20.2328 260.461H19.0168C19.0594 259.544 19.4274 258.765 20.1208 258.125C20.8141 257.485 21.6941 257.165 22.7608 257.165C23.8061 257.165 24.6381 257.464 25.2568 258.061C25.8861 258.648 26.2008 259.357 26.2008 260.189C26.2008 261.352 25.5981 262.184 24.3928 262.685C25.8648 263.09 26.6008 264.05 26.6008 265.565C26.6008 266.6 26.2221 267.416 25.4648 268.013C24.7181 268.6 23.7421 268.893 22.5368 268.893ZM30.926 258.685L28.366 260.525V259.229L31.022 257.309H32.318V268.749H30.926V258.685ZM40.0802 267.741C42.0962 267.741 43.1042 266.264 43.1042 263.309V262.669C43.1042 261.336 42.8322 260.274 42.2882 259.485C41.7442 258.685 40.9975 258.285 40.0482 258.285C39.0775 258.285 38.3202 258.669 37.7762 259.437C37.2322 260.205 36.9602 261.293 36.9602 262.701V263.341C36.9602 264.76 37.2375 265.848 37.7922 266.605C38.3468 267.362 39.1095 267.741 40.0802 267.741ZM40.0802 268.893C38.7148 268.893 37.6162 268.386 36.7842 267.373C35.9522 266.36 35.5362 265.021 35.5362 263.357V262.717C35.5362 261.021 35.9362 259.672 36.7362 258.669C37.5468 257.666 38.6508 257.165 40.0482 257.165C41.4348 257.165 42.5228 257.672 43.3122 258.685C44.1122 259.698 44.5122 261.032 44.5122 262.685V263.325C44.5122 265.01 44.1175 266.36 43.3282 267.373C42.5495 268.386 41.4668 268.893 40.0802 268.893Z" fill="white"/>
<ellipse cx="361.5" cy="309.045" rx="5.5" ry="5.49187" fill="#F1D5C0"/>
<ellipse cx="266.5" cy="372.95" rx="5.5" ry="5.49187" fill="#F1D5C0"/>
<ellipse cx="176.5" cy="419.881" rx="5.5" ry="5.49187" fill="#F1D5C0"/>
<ellipse cx="451.5" cy="213.186" rx="5.5" ry="5.49187" fill="#F1D5C0"/>
<ellipse cx="542.5" cy="177.239" rx="5.5" ry="5.49187" fill="#F1D5C0"/>
<ellipse cx="723.5" cy="112.336" rx="5.5" ry="5.49187" fill="#F1D5C0"/>
<ellipse cx="634.5" cy="148.282" rx="5.5" ry="5.49187" fill="#F1D5C0"/>
<ellipse cx="810.5" cy="44.4352" rx="5.5" ry="5.49187" fill="#F1D5C0"/>
<path opacity="0.6" d="M5.412 37.7261H3.384V43.1621H2.388V37.7261H0.36V36.8861H5.412V37.7261ZM12.3053 36.8861H13.3013V43.1621H12.3053V36.8861ZM6.90534 36.8861H7.90134V39.0821H9.01734C9.72934 39.0821 10.3053 39.2421 10.7453 39.5621C11.1933 39.8821 11.4173 40.3861 11.4173 41.0741V41.1101C11.4173 41.7901 11.1933 42.3021 10.7453 42.6461C10.2973 42.9901 9.72134 43.1621 9.01734 43.1621H6.90534V36.8861ZM9.07734 42.3701C9.54934 42.3701 9.88934 42.2701 10.0973 42.0701C10.3133 41.8621 10.4213 41.5421 10.4213 41.1101V41.0741C10.4213 40.6741 10.3173 40.3741 10.1093 40.1741C9.90134 39.9661 9.55734 39.8621 9.07734 39.8621H7.90134V42.3701H9.07734ZM18.1154 43.2701C17.2194 43.2701 16.4834 42.9821 15.9074 42.4061C15.3314 41.8221 15.0434 41.0501 15.0434 40.0901V39.9941C15.0434 39.0501 15.3354 38.2781 15.9194 37.6781C16.5114 37.0781 17.2354 36.7781 18.0914 36.7781C18.8114 36.7781 19.4234 36.9581 19.9274 37.3181C20.4314 37.6701 20.7274 38.2221 20.8154 38.9741H19.8314C19.6874 38.0621 19.1074 37.6061 18.0914 37.6061C17.5074 37.6061 17.0234 37.8261 16.6394 38.2661C16.2634 38.6981 16.0754 39.2741 16.0754 39.9941V40.0901C16.0754 40.8421 16.2594 41.4221 16.6274 41.8301C17.0034 42.2381 17.5034 42.4421 18.1274 42.4421C18.5994 42.4421 19.0034 42.3101 19.3394 42.0461C19.6834 41.7741 19.8794 41.3941 19.9274 40.9061H20.8514C20.7874 41.5941 20.4994 42.1621 19.9874 42.6101C19.4834 43.0501 18.8594 43.2701 18.1154 43.2701ZM25.7709 36.8861H26.7669V37.9421C26.9509 37.6221 27.2389 37.3501 27.6309 37.1261C28.0229 36.8941 28.4429 36.7781 28.8909 36.7781C29.7309 36.7781 30.4149 37.0621 30.9429 37.6301C31.4789 38.1981 31.7469 38.9661 31.7469 39.9341V40.0301C31.7469 40.9981 31.4829 41.7821 30.9549 42.3821C30.4349 42.9741 29.7469 43.2701 28.8909 43.2701C27.9309 43.2701 27.2229 42.8901 26.7669 42.1301V45.3461H25.7709V36.8861ZM28.7949 42.4421C29.4189 42.4421 29.8949 42.2421 30.2229 41.8421C30.5509 41.4341 30.7149 40.8461 30.7149 40.0781V39.9821C30.7149 39.2221 30.5309 38.6381 30.1629 38.2301C29.8029 37.8141 29.3429 37.6061 28.7829 37.6061C28.1749 37.6061 27.6789 37.8101 27.2949 38.2181C26.9189 38.6181 26.7309 39.2061 26.7309 39.9821V40.0781C26.7309 40.8541 26.9149 41.4421 27.2829 41.8421C27.6589 42.2421 28.1629 42.4421 28.7949 42.4421ZM35.0492 42.5141L32.5892 36.8861H33.6572L35.5772 41.3861L37.3172 36.8861H38.3372L34.8692 45.3461H33.8612L35.0492 42.5141ZM42.3968 43.2701C41.4528 43.2701 40.7048 42.9661 40.1528 42.3581C39.6008 41.7501 39.3248 40.8261 39.3248 39.5861V39.2021C39.3248 38.6101 39.3488 38.0861 39.3968 37.6301C39.4448 37.1661 39.5448 36.7021 39.6968 36.2381C39.8488 35.7661 40.0488 35.3741 40.2968 35.0621C40.5448 34.7501 40.8808 34.4901 41.3048 34.2821C41.7368 34.0741 42.2448 33.9541 42.8288 33.9221L43.0688 33.9101C43.9488 33.8621 44.5448 33.7741 44.8568 33.6461L44.9888 34.4861C44.5808 34.6621 43.9448 34.7701 43.0808 34.8101L42.9008 34.8221C41.9328 34.8701 41.2408 35.1861 40.8248 35.7701C40.4168 36.3461 40.1768 37.2421 40.1048 38.4581H40.1528C40.3688 38.0181 40.6888 37.6701 41.1128 37.4141C41.5448 37.1501 42.0448 37.0181 42.6128 37.0181C43.4848 37.0181 44.1808 37.3021 44.7008 37.8701C45.2288 38.4301 45.4928 39.1581 45.4928 40.0541V40.1021C45.4928 41.0701 45.2008 41.8421 44.6168 42.4181C44.0408 42.9861 43.3008 43.2701 42.3968 43.2701ZM40.8968 41.8301C41.2648 42.2381 41.7688 42.4421 42.4088 42.4421C43.0488 42.4421 43.5488 42.2421 43.9088 41.8421C44.2768 41.4341 44.4608 40.8581 44.4608 40.1141V40.0901C44.4608 39.3941 44.2928 38.8461 43.9568 38.4461C43.6288 38.0461 43.1488 37.8461 42.5168 37.8461C41.8528 37.8461 41.3248 38.0541 40.9328 38.4701C40.5488 38.8861 40.3568 39.4541 40.3568 40.1741V40.1981C40.3568 40.8781 40.5368 41.4221 40.8968 41.8301Z" fill="white"/>
<path d="M21.1077 22.5883H15.3797V22.1403L20.6117 13.5483H22.4677V21.4523H24.0517V22.5883H22.4677V24.9883H21.1077V22.5883ZM21.1077 21.4523V14.6043L17.1397 21.4523H21.1077ZM30.0502 25.1323C27.3088 25.1323 25.9382 23.3989 25.9382 19.9323V19.6603C25.9382 17.6549 26.3435 16.1136 27.1542 15.0363C27.9755 13.9483 29.0635 13.4043 30.4182 13.4043C31.3355 13.4043 32.0822 13.6389 32.6582 14.1083C33.2448 14.5776 33.6128 15.2656 33.7622 16.1723H32.4342C32.3062 15.6176 32.0768 15.2069 31.7462 14.9403C31.4155 14.6736 30.9408 14.5403 30.3222 14.5403C29.4368 14.5403 28.7222 14.9349 28.1782 15.7243C27.6342 16.5136 27.3462 17.6443 27.3142 19.1163C27.9328 18.0816 28.9142 17.5643 30.2582 17.5643C31.3782 17.5643 32.2795 17.9216 32.9622 18.6363C33.6555 19.3403 34.0022 20.2309 34.0022 21.3083C34.0022 22.4603 33.6448 23.3883 32.9302 24.0923C32.2155 24.7856 31.2555 25.1323 30.0502 25.1323ZM30.0502 24.0443C30.7968 24.0443 31.4048 23.7989 31.8742 23.3083C32.3435 22.8176 32.5782 22.1723 32.5782 21.3723C32.5782 20.5403 32.3488 19.8789 31.8902 19.3883C31.4315 18.8976 30.8128 18.6523 30.0342 18.6523C29.2662 18.6523 28.6368 18.8869 28.1462 19.3563C27.6555 19.8256 27.4102 20.4336 27.4102 21.1803C27.4102 22.0869 27.6502 22.7909 28.1302 23.2923C28.6208 23.7936 29.2608 24.0443 30.0502 24.0443ZM40.6578 23.9803C42.6738 23.9803 43.6818 22.5029 43.6818 19.5483V18.9083C43.6818 17.5749 43.4098 16.5136 42.8658 15.7243C42.3218 14.9243 41.5751 14.5243 40.6258 14.5243C39.6551 14.5243 38.8978 14.9083 38.3538 15.6763C37.8098 16.4443 37.5378 17.5323 37.5378 18.9403V19.5803C37.5378 20.9989 37.8151 22.0869 38.3698 22.8443C38.9245 23.6016 39.6871 23.9803 40.6578 23.9803ZM40.6578 25.1323C39.2925 25.1323 38.1938 24.6256 37.3618 23.6123C36.5298 22.5989 36.1138 21.2603 36.1138 19.5963V18.9563C36.1138 17.2603 36.5138 15.9109 37.3138 14.9083C38.1245 13.9056 39.2285 13.4043 40.6258 13.4043C42.0125 13.4043 43.1005 13.9109 43.8898 14.9243C44.6898 15.9376 45.0898 17.2709 45.0898 18.9243V19.5643C45.0898 21.2496 44.6951 22.5989 43.9058 23.6123C43.1271 24.6256 42.0445 25.1323 40.6578 25.1323Z" fill="white"/>
<rect opacity="0.3" x="176" y="421.378" width="1" height="141.79" fill="#F1D5C0"/>
<rect opacity="0.3" x="266" y="374.447" width="1" height="188.721" fill="#F1D5C0"/>
<rect opacity="0.3" x="361" y="308.545" width="1" height="254.623" fill="#F1D5C0"/>
<rect opacity="0.3" x="451" y="213.686" width="1" height="349.483" fill="#F1D5C0"/>
<rect opacity="0.3" x="543" y="173.744" width="1" height="389.424" fill="#F1D5C0"/>
<rect opacity="0.3" x="634" y="150.778" width="1" height="412.39" fill="#F1D5C0"/>
<rect opacity="0.3" x="723" y="117.827" width="1" height="445.341" fill="#F1D5C0"/>
<rect opacity="0.3" x="810" y="47.9307" width="1" height="515.238" fill="#F1D5C0"/>
<path d="M82 515.239L175.661 419.788L265.719 372.811L361.953 309.843L452.012 211.893L542.585 177.411L639.848 147.925L723 113.833L809.158 42.9787L874 1" stroke="url(#paint0_radial)"/>
<defs>
<radialGradient id="paint0_radial" cx="0" cy="0" r="1" gradientUnits="userSpaceOnUse" gradientTransform="translate(516.339 261.868) rotate(69.6738) scale(309.633 493.784)">
<stop stop-color="#F1D5C0"/>
<stop offset="1" stop-color="#F1D5C0" stop-opacity="0"/>
</radialGradient>
</defs>
</svg>
