<svg width="588" height="376" viewBox="0 0 588 376" fill="none" xmlns="http://www.w3.org/2000/svg">
<path d="M19.168 179.144C16.4267 179.144 15.056 177.411 15.056 173.944V173.672C15.056 171.667 15.4613 170.125 16.272 169.048C17.0933 167.96 18.1813 167.416 19.536 167.416C20.4533 167.416 21.2 167.651 21.776 168.12C22.3627 168.589 22.7307 169.277 22.88 170.184H21.552C21.424 169.629 21.1947 169.219 20.864 168.952C20.5333 168.685 20.0587 168.552 19.44 168.552C18.5547 168.552 17.84 168.947 17.296 169.736C16.752 170.525 16.464 171.656 16.432 173.128C17.0507 172.093 18.032 171.576 19.376 171.576C20.496 171.576 21.3973 171.933 22.08 172.648C22.7733 173.352 23.12 174.243 23.12 175.32C23.12 176.472 22.7627 177.4 22.048 178.104C21.3333 178.797 20.3733 179.144 19.168 179.144ZM19.168 178.056C19.9147 178.056 20.5227 177.811 20.992 177.32C21.4613 176.829 21.696 176.184 21.696 175.384C21.696 174.552 21.4667 173.891 21.008 173.4C20.5493 172.909 19.9307 172.664 19.152 172.664C18.384 172.664 17.7547 172.899 17.264 173.368C16.7733 173.837 16.528 174.445 16.528 175.192C16.528 176.099 16.768 176.803 17.248 177.304C17.7387 177.805 18.3787 178.056 19.168 178.056ZM29.7756 177.992C31.7916 177.992 32.7996 176.515 32.7996 173.56V172.92C32.7996 171.587 32.5276 170.525 31.9836 169.736C31.4396 168.936 30.693 168.536 29.7436 168.536C28.773 168.536 28.0156 168.92 27.4716 169.688C26.9276 170.456 26.6556 171.544 26.6556 172.952V173.592C26.6556 175.011 26.933 176.099 27.4876 176.856C28.0423 177.613 28.805 177.992 29.7756 177.992ZM29.7756 179.144C28.4103 179.144 27.3116 178.637 26.4796 177.624C25.6476 176.611 25.2316 175.272 25.2316 173.608V172.968C25.2316 171.272 25.6316 169.923 26.4316 168.92C27.2423 167.917 28.3463 167.416 29.7436 167.416C31.1303 167.416 32.2183 167.923 33.0076 168.936C33.8076 169.949 34.2076 171.283 34.2076 172.936V173.576C34.2076 175.261 33.813 176.611 33.0236 177.624C32.245 178.637 31.1623 179.144 29.7756 179.144ZM41.0294 177.992C43.0454 177.992 44.0534 176.515 44.0534 173.56V172.92C44.0534 171.587 43.7814 170.525 43.2374 169.736C42.6934 168.936 41.9467 168.536 40.9974 168.536C40.0267 168.536 39.2694 168.92 38.7254 169.688C38.1814 170.456 37.9094 171.544 37.9094 172.952V173.592C37.9094 175.011 38.1867 176.099 38.7414 176.856C39.296 177.613 40.0587 177.992 41.0294 177.992ZM41.0294 179.144C39.664 179.144 38.5654 178.637 37.7334 177.624C36.9014 176.611 36.4854 175.272 36.4854 173.608V172.968C36.4854 171.272 36.8854 169.923 37.6854 168.92C38.496 167.917 39.6 167.416 40.9974 167.416C42.384 167.416 43.472 167.923 44.2614 168.936C45.0614 169.949 45.4614 171.283 45.4614 172.936V173.576C45.4614 175.261 45.0667 176.611 44.2774 177.624C43.4987 178.637 42.416 179.144 41.0294 179.144Z" fill="white"/>
<path opacity="0.6" d="M5.412 189.564H3.384V195H2.388V189.564H0.36V188.724H5.412V189.564ZM12.3053 188.724H13.3013V195H12.3053V188.724ZM6.90534 188.724H7.90134V190.92H9.01734C9.72934 190.92 10.3053 191.08 10.7453 191.4C11.1933 191.72 11.4173 192.224 11.4173 192.912V192.948C11.4173 193.628 11.1933 194.14 10.7453 194.484C10.2973 194.828 9.72134 195 9.01734 195H6.90534V188.724ZM9.07734 194.208C9.54934 194.208 9.88934 194.108 10.0973 193.908C10.3133 193.7 10.4213 193.38 10.4213 192.948V192.912C10.4213 192.512 10.3173 192.212 10.1093 192.012C9.90134 191.804 9.55734 191.7 9.07734 191.7H7.90134V194.208H9.07734ZM18.1154 195.108C17.2194 195.108 16.4834 194.82 15.9074 194.244C15.3314 193.66 15.0434 192.888 15.0434 191.928V191.832C15.0434 190.888 15.3354 190.116 15.9194 189.516C16.5114 188.916 17.2354 188.616 18.0914 188.616C18.8114 188.616 19.4234 188.796 19.9274 189.156C20.4314 189.508 20.7274 190.06 20.8154 190.812H19.8314C19.6874 189.9 19.1074 189.444 18.0914 189.444C17.5074 189.444 17.0234 189.664 16.6394 190.104C16.2634 190.536 16.0754 191.112 16.0754 191.832V191.928C16.0754 192.68 16.2594 193.26 16.6274 193.668C17.0034 194.076 17.5034 194.28 18.1274 194.28C18.5994 194.28 19.0034 194.148 19.3394 193.884C19.6834 193.612 19.8794 193.232 19.9274 192.744H20.8514C20.7874 193.432 20.4994 194 19.9874 194.448C19.4834 194.888 18.8594 195.108 18.1154 195.108ZM25.7709 188.724H26.7669V189.78C26.9509 189.46 27.2389 189.188 27.6309 188.964C28.0229 188.732 28.4429 188.616 28.8909 188.616C29.7309 188.616 30.4149 188.9 30.9429 189.468C31.4789 190.036 31.7469 190.804 31.7469 191.772V191.868C31.7469 192.836 31.4829 193.62 30.9549 194.22C30.4349 194.812 29.7469 195.108 28.8909 195.108C27.9309 195.108 27.2229 194.728 26.7669 193.968V197.184H25.7709V188.724ZM28.7949 194.28C29.4189 194.28 29.8949 194.08 30.2229 193.68C30.5509 193.272 30.7149 192.684 30.7149 191.916V191.82C30.7149 191.06 30.5309 190.476 30.1629 190.068C29.8029 189.652 29.3429 189.444 28.7829 189.444C28.1749 189.444 27.6789 189.648 27.2949 190.056C26.9189 190.456 26.7309 191.044 26.7309 191.82V191.916C26.7309 192.692 26.9149 193.28 27.2829 193.68C27.6589 194.08 28.1629 194.28 28.7949 194.28ZM35.0492 194.352L32.5892 188.724H33.6572L35.5772 193.224L37.3172 188.724H38.3372L34.8692 197.184H33.8612L35.0492 194.352ZM42.3968 195.108C41.4528 195.108 40.7048 194.804 40.1528 194.196C39.6008 193.588 39.3248 192.664 39.3248 191.424V191.04C39.3248 190.448 39.3488 189.924 39.3968 189.468C39.4448 189.004 39.5448 188.54 39.6968 188.076C39.8488 187.604 40.0488 187.212 40.2968 186.9C40.5448 186.588 40.8808 186.328 41.3048 186.12C41.7368 185.912 42.2448 185.792 42.8288 185.76L43.0688 185.748C43.9488 185.7 44.5448 185.612 44.8568 185.484L44.9888 186.324C44.5808 186.5 43.9448 186.608 43.0808 186.648L42.9008 186.66C41.9328 186.708 41.2408 187.024 40.8248 187.608C40.4168 188.184 40.1768 189.08 40.1048 190.296H40.1528C40.3688 189.856 40.6888 189.508 41.1128 189.252C41.5448 188.988 42.0448 188.856 42.6128 188.856C43.4848 188.856 44.1808 189.14 44.7008 189.708C45.2288 190.268 45.4928 190.996 45.4928 191.892V191.94C45.4928 192.908 45.2008 193.68 44.6168 194.256C44.0408 194.824 43.3008 195.108 42.3968 195.108ZM40.8968 193.668C41.2648 194.076 41.7688 194.28 42.4088 194.28C43.0488 194.28 43.5488 194.08 43.9088 193.68C44.2768 193.272 44.4608 192.696 44.4608 191.952V191.928C44.4608 191.232 44.2928 190.684 43.9568 190.284C43.6288 189.884 43.1488 189.684 42.5168 189.684C41.8528 189.684 41.3248 189.892 40.9328 190.308C40.5488 190.724 40.3568 191.292 40.3568 192.012V192.036C40.3568 192.716 40.5368 193.26 40.8968 193.668Z" fill="white"/>
<path d="M20.168 131.144C17.4267 131.144 16.056 129.411 16.056 125.944V125.672C16.056 123.667 16.4613 122.125 17.272 121.048C18.0933 119.96 19.1813 119.416 20.536 119.416C21.4533 119.416 22.2 119.651 22.776 120.12C23.3627 120.589 23.7307 121.277 23.88 122.184H22.552C22.424 121.629 22.1947 121.219 21.864 120.952C21.5333 120.685 21.0587 120.552 20.44 120.552C19.5547 120.552 18.84 120.947 18.296 121.736C17.752 122.525 17.464 123.656 17.432 125.128C18.0507 124.093 19.032 123.576 20.376 123.576C21.496 123.576 22.3973 123.933 23.08 124.648C23.7733 125.352 24.12 126.243 24.12 127.32C24.12 128.472 23.7627 129.4 23.048 130.104C22.3333 130.797 21.3733 131.144 20.168 131.144ZM20.168 130.056C20.9147 130.056 21.5227 129.811 21.992 129.32C22.4613 128.829 22.696 128.184 22.696 127.384C22.696 126.552 22.4667 125.891 22.008 125.4C21.5493 124.909 20.9307 124.664 20.152 124.664C19.384 124.664 18.7547 124.899 18.264 125.368C17.7733 125.837 17.528 126.445 17.528 127.192C17.528 128.099 17.768 128.803 18.248 129.304C18.7387 129.805 19.3787 130.056 20.168 130.056ZM29.8457 131.144C28.6617 131.144 27.7551 130.856 27.1257 130.28C26.4964 129.693 26.1337 128.904 26.0377 127.912H27.3657C27.4937 128.605 27.7337 129.133 28.0857 129.496C28.4377 129.848 29.0191 130.024 29.8298 130.024C30.6084 130.024 31.2218 129.779 31.6698 129.288C32.1178 128.797 32.3418 128.12 32.3418 127.256C32.3418 126.445 32.1231 125.8 31.6858 125.32C31.2591 124.829 30.6778 124.584 29.9418 124.584C29.3018 124.584 28.7737 124.675 28.3577 124.856C27.9417 125.037 27.5684 125.315 27.2377 125.688H26.7257V119.56H33.1578V120.76H27.8777V124.248C28.4431 123.725 29.2217 123.464 30.2137 123.464C31.2591 123.464 32.1124 123.811 32.7738 124.504C33.4351 125.187 33.7657 126.104 33.7657 127.256C33.7657 128.44 33.3924 129.384 32.6458 130.088C31.8991 130.792 30.9658 131.144 29.8457 131.144ZM40.5138 129.992C42.5298 129.992 43.5378 128.515 43.5378 125.56V124.92C43.5378 123.587 43.2658 122.525 42.7218 121.736C42.1777 120.936 41.4311 120.536 40.4818 120.536C39.5111 120.536 38.7537 120.92 38.2097 121.688C37.6657 122.456 37.3937 123.544 37.3937 124.952V125.592C37.3937 127.011 37.6711 128.099 38.2257 128.856C38.7804 129.613 39.5431 129.992 40.5138 129.992ZM40.5138 131.144C39.1484 131.144 38.0497 130.637 37.2177 129.624C36.3857 128.611 35.9697 127.272 35.9697 125.608V124.968C35.9697 123.272 36.3697 121.923 37.1697 120.92C37.9804 119.917 39.0844 119.416 40.4818 119.416C41.8684 119.416 42.9564 119.923 43.7458 120.936C44.5458 121.949 44.9458 123.283 44.9458 124.936V125.576C44.9458 127.261 44.5511 128.611 43.7618 129.624C42.9831 130.637 41.9004 131.144 40.5138 131.144Z" fill="white"/>
<path opacity="0.6" d="M5.412 139.564H3.384V145H2.388V139.564H0.36V138.724H5.412V139.564ZM12.3053 138.724H13.3013V145H12.3053V138.724ZM6.90534 138.724H7.90134V140.92H9.01734C9.72934 140.92 10.3053 141.08 10.7453 141.4C11.1933 141.72 11.4173 142.224 11.4173 142.912V142.948C11.4173 143.628 11.1933 144.14 10.7453 144.484C10.2973 144.828 9.72134 145 9.01734 145H6.90534V138.724ZM9.07734 144.208C9.54934 144.208 9.88934 144.108 10.0973 143.908C10.3133 143.7 10.4213 143.38 10.4213 142.948V142.912C10.4213 142.512 10.3173 142.212 10.1093 142.012C9.90134 141.804 9.55734 141.7 9.07734 141.7H7.90134V144.208H9.07734ZM18.1154 145.108C17.2194 145.108 16.4834 144.82 15.9074 144.244C15.3314 143.66 15.0434 142.888 15.0434 141.928V141.832C15.0434 140.888 15.3354 140.116 15.9194 139.516C16.5114 138.916 17.2354 138.616 18.0914 138.616C18.8114 138.616 19.4234 138.796 19.9274 139.156C20.4314 139.508 20.7274 140.06 20.8154 140.812H19.8314C19.6874 139.9 19.1074 139.444 18.0914 139.444C17.5074 139.444 17.0234 139.664 16.6394 140.104C16.2634 140.536 16.0754 141.112 16.0754 141.832V141.928C16.0754 142.68 16.2594 143.26 16.6274 143.668C17.0034 144.076 17.5034 144.28 18.1274 144.28C18.5994 144.28 19.0034 144.148 19.3394 143.884C19.6834 143.612 19.8794 143.232 19.9274 142.744H20.8514C20.7874 143.432 20.4994 144 19.9874 144.448C19.4834 144.888 18.8594 145.108 18.1154 145.108ZM25.7709 138.724H26.7669V139.78C26.9509 139.46 27.2389 139.188 27.6309 138.964C28.0229 138.732 28.4429 138.616 28.8909 138.616C29.7309 138.616 30.4149 138.9 30.9429 139.468C31.4789 140.036 31.7469 140.804 31.7469 141.772V141.868C31.7469 142.836 31.4829 143.62 30.9549 144.22C30.4349 144.812 29.7469 145.108 28.8909 145.108C27.9309 145.108 27.2229 144.728 26.7669 143.968V147.184H25.7709V138.724ZM28.7949 144.28C29.4189 144.28 29.8949 144.08 30.2229 143.68C30.5509 143.272 30.7149 142.684 30.7149 141.916V141.82C30.7149 141.06 30.5309 140.476 30.1629 140.068C29.8029 139.652 29.3429 139.444 28.7829 139.444C28.1749 139.444 27.6789 139.648 27.2949 140.056C26.9189 140.456 26.7309 141.044 26.7309 141.82V141.916C26.7309 142.692 26.9149 143.28 27.2829 143.68C27.6589 144.08 28.1629 144.28 28.7949 144.28ZM35.0492 144.352L32.5892 138.724H33.6572L35.5772 143.224L37.3172 138.724H38.3372L34.8692 147.184H33.8612L35.0492 144.352ZM42.3968 145.108C41.4528 145.108 40.7048 144.804 40.1528 144.196C39.6008 143.588 39.3248 142.664 39.3248 141.424V141.04C39.3248 140.448 39.3488 139.924 39.3968 139.468C39.4448 139.004 39.5448 138.54 39.6968 138.076C39.8488 137.604 40.0488 137.212 40.2968 136.9C40.5448 136.588 40.8808 136.328 41.3048 136.12C41.7368 135.912 42.2448 135.792 42.8288 135.76L43.0688 135.748C43.9488 135.7 44.5448 135.612 44.8568 135.484L44.9888 136.324C44.5808 136.5 43.9448 136.608 43.0808 136.648L42.9008 136.66C41.9328 136.708 41.2408 137.024 40.8248 137.608C40.4168 138.184 40.1768 139.08 40.1048 140.296H40.1528C40.3688 139.856 40.6888 139.508 41.1128 139.252C41.5448 138.988 42.0448 138.856 42.6128 138.856C43.4848 138.856 44.1808 139.14 44.7008 139.708C45.2288 140.268 45.4928 140.996 45.4928 141.892V141.94C45.4928 142.908 45.2008 143.68 44.6168 144.256C44.0408 144.824 43.3008 145.108 42.3968 145.108ZM40.8968 143.668C41.2648 144.076 41.7688 144.28 42.4088 144.28C43.0488 144.28 43.5488 144.08 43.9088 143.68C44.2768 143.272 44.4608 142.696 44.4608 141.952V141.928C44.4608 141.232 44.2928 140.684 43.9568 140.284C43.6288 139.884 43.1488 139.684 42.5168 139.684C41.8528 139.684 41.3248 139.892 40.9328 140.308C40.5488 140.724 40.3568 141.292 40.3568 142.012V142.036C40.3568 142.716 40.5368 143.26 40.8968 143.668Z" fill="white"/>
<path d="M22.448 323.6H16.72V323.152L21.952 314.56H23.808V322.464H25.392V323.6H23.808V326H22.448V323.6ZM22.448 322.464V315.616L18.48 322.464H22.448ZM30.8145 326.144C29.6305 326.144 28.7238 325.856 28.0945 325.28C27.4652 324.693 27.1025 323.904 27.0065 322.912H28.3345C28.4625 323.605 28.7025 324.133 29.0545 324.496C29.4065 324.848 29.9878 325.024 30.7985 325.024C31.5772 325.024 32.1905 324.779 32.6385 324.288C33.0865 323.797 33.3105 323.12 33.3105 322.256C33.3105 321.445 33.0918 320.8 32.6545 320.32C32.2278 319.829 31.6465 319.584 30.9105 319.584C30.2705 319.584 29.7425 319.675 29.3265 319.856C28.9105 320.037 28.5372 320.315 28.2065 320.688H27.6945V314.56H34.1265V315.76H28.8465V319.248C29.4118 318.725 30.1905 318.464 31.1825 318.464C32.2278 318.464 33.0812 318.811 33.7425 319.504C34.4038 320.187 34.7345 321.104 34.7345 322.256C34.7345 323.44 34.3612 324.384 33.6145 325.088C32.8678 325.792 31.9345 326.144 30.8145 326.144ZM41.4825 324.992C43.4985 324.992 44.5065 323.515 44.5065 320.56V319.92C44.5065 318.587 44.2345 317.525 43.6905 316.736C43.1465 315.936 42.3998 315.536 41.4505 315.536C40.4798 315.536 39.7225 315.92 39.1785 316.688C38.6345 317.456 38.3625 318.544 38.3625 319.952V320.592C38.3625 322.011 38.6398 323.099 39.1945 323.856C39.7492 324.613 40.5118 324.992 41.4825 324.992ZM41.4825 326.144C40.1172 326.144 39.0185 325.637 38.1865 324.624C37.3545 323.611 36.9385 322.272 36.9385 320.608V319.968C36.9385 318.272 37.3385 316.923 38.1385 315.92C38.9492 314.917 40.0532 314.416 41.4505 314.416C42.8372 314.416 43.9252 314.923 44.7145 315.936C45.5145 316.949 45.9145 318.283 45.9145 319.936V320.576C45.9145 322.261 45.5198 323.611 44.7305 324.624C43.9518 325.637 42.8692 326.144 41.4825 326.144Z" fill="white"/>
<path opacity="0.6" d="M5.412 334.564H3.384V340H2.388V334.564H0.36V333.724H5.412V334.564ZM12.3053 333.724H13.3013V340H12.3053V333.724ZM6.90534 333.724H7.90134V335.92H9.01734C9.72934 335.92 10.3053 336.08 10.7453 336.4C11.1933 336.72 11.4173 337.224 11.4173 337.912V337.948C11.4173 338.628 11.1933 339.14 10.7453 339.484C10.2973 339.828 9.72134 340 9.01734 340H6.90534V333.724ZM9.07734 339.208C9.54934 339.208 9.88934 339.108 10.0973 338.908C10.3133 338.7 10.4213 338.38 10.4213 337.948V337.912C10.4213 337.512 10.3173 337.212 10.1093 337.012C9.90134 336.804 9.55734 336.7 9.07734 336.7H7.90134V339.208H9.07734ZM18.1154 340.108C17.2194 340.108 16.4834 339.82 15.9074 339.244C15.3314 338.66 15.0434 337.888 15.0434 336.928V336.832C15.0434 335.888 15.3354 335.116 15.9194 334.516C16.5114 333.916 17.2354 333.616 18.0914 333.616C18.8114 333.616 19.4234 333.796 19.9274 334.156C20.4314 334.508 20.7274 335.06 20.8154 335.812H19.8314C19.6874 334.9 19.1074 334.444 18.0914 334.444C17.5074 334.444 17.0234 334.664 16.6394 335.104C16.2634 335.536 16.0754 336.112 16.0754 336.832V336.928C16.0754 337.68 16.2594 338.26 16.6274 338.668C17.0034 339.076 17.5034 339.28 18.1274 339.28C18.5994 339.28 19.0034 339.148 19.3394 338.884C19.6834 338.612 19.8794 338.232 19.9274 337.744H20.8514C20.7874 338.432 20.4994 339 19.9874 339.448C19.4834 339.888 18.8594 340.108 18.1154 340.108ZM25.7709 333.724H26.7669V334.78C26.9509 334.46 27.2389 334.188 27.6309 333.964C28.0229 333.732 28.4429 333.616 28.8909 333.616C29.7309 333.616 30.4149 333.9 30.9429 334.468C31.4789 335.036 31.7469 335.804 31.7469 336.772V336.868C31.7469 337.836 31.4829 338.62 30.9549 339.22C30.4349 339.812 29.7469 340.108 28.8909 340.108C27.9309 340.108 27.2229 339.728 26.7669 338.968V342.184H25.7709V333.724ZM28.7949 339.28C29.4189 339.28 29.8949 339.08 30.2229 338.68C30.5509 338.272 30.7149 337.684 30.7149 336.916V336.82C30.7149 336.06 30.5309 335.476 30.1629 335.068C29.8029 334.652 29.3429 334.444 28.7829 334.444C28.1749 334.444 27.6789 334.648 27.2949 335.056C26.9189 335.456 26.7309 336.044 26.7309 336.82V336.916C26.7309 337.692 26.9149 338.28 27.2829 338.68C27.6589 339.08 28.1629 339.28 28.7949 339.28ZM35.0492 339.352L32.5892 333.724H33.6572L35.5772 338.224L37.3172 333.724H38.3372L34.8692 342.184H33.8612L35.0492 339.352ZM42.3968 340.108C41.4528 340.108 40.7048 339.804 40.1528 339.196C39.6008 338.588 39.3248 337.664 39.3248 336.424V336.04C39.3248 335.448 39.3488 334.924 39.3968 334.468C39.4448 334.004 39.5448 333.54 39.6968 333.076C39.8488 332.604 40.0488 332.212 40.2968 331.9C40.5448 331.588 40.8808 331.328 41.3048 331.12C41.7368 330.912 42.2448 330.792 42.8288 330.76L43.0688 330.748C43.9488 330.7 44.5448 330.612 44.8568 330.484L44.9888 331.324C44.5808 331.5 43.9448 331.608 43.0808 331.648L42.9008 331.66C41.9328 331.708 41.2408 332.024 40.8248 332.608C40.4168 333.184 40.1768 334.08 40.1048 335.296H40.1528C40.3688 334.856 40.6888 334.508 41.1128 334.252C41.5448 333.988 42.0448 333.856 42.6128 333.856C43.4848 333.856 44.1808 334.14 44.7008 334.708C45.2288 335.268 45.4928 335.996 45.4928 336.892V336.94C45.4928 337.908 45.2008 338.68 44.6168 339.256C44.0408 339.824 43.3008 340.108 42.3968 340.108ZM40.8968 338.668C41.2648 339.076 41.7688 339.28 42.4088 339.28C43.0488 339.28 43.5488 339.08 43.9088 338.68C44.2768 338.272 44.4608 337.696 44.4608 336.952V336.928C44.4608 336.232 44.2928 335.684 43.9568 335.284C43.6288 334.884 43.1488 334.684 42.5168 334.684C41.8528 334.684 41.3248 334.892 40.9328 335.308C40.5488 335.724 40.3568 336.292 40.3568 337.012V337.036C40.3568 337.716 40.5368 338.26 40.8968 338.668Z" fill="white"/>
<path opacity="0.6" d="M285.088 348.204H282.004V351H281.008V344.724H282.004V347.364H285.088V344.724H286.084V351H285.088V348.204ZM290.906 350.28C291.53 350.28 292.026 350.064 292.394 349.632C292.77 349.2 292.958 348.628 292.958 347.916V347.832C292.958 347.104 292.77 346.524 292.394 346.092C292.026 345.66 291.53 345.444 290.906 345.444C290.274 345.444 289.774 345.66 289.406 346.092C289.038 346.524 288.854 347.1 288.854 347.82V347.916C288.854 348.644 289.034 349.22 289.394 349.644C289.762 350.068 290.266 350.28 290.906 350.28ZM290.894 351.108C290.006 351.108 289.27 350.808 288.686 350.208C288.11 349.6 287.822 348.836 287.822 347.916V347.82C287.822 346.884 288.11 346.116 288.686 345.516C289.27 344.916 290.01 344.616 290.906 344.616C291.802 344.616 292.538 344.916 293.114 345.516C293.698 346.108 293.99 346.872 293.99 347.808V347.904C293.99 348.848 293.698 349.62 293.114 350.22C292.53 350.812 291.79 351.108 290.894 351.108ZM297.668 345.516C296.772 345.516 296.324 345.896 296.324 346.656V346.692C296.324 347.052 296.428 347.324 296.636 347.508C296.844 347.692 297.188 347.784 297.668 347.784H298.844V345.516H297.668ZM296.012 351H294.872L296.78 348.372C295.812 348.172 295.328 347.612 295.328 346.692V346.656C295.328 346 295.552 345.516 296 345.204C296.448 344.884 297.024 344.724 297.728 344.724H299.84V351H298.844V348.54H297.764L296.012 351ZM304.681 351.108C303.737 351.108 302.989 350.804 302.437 350.196C301.885 349.588 301.609 348.664 301.609 347.424V347.04C301.609 346.448 301.633 345.924 301.681 345.468C301.729 345.004 301.829 344.54 301.981 344.076C302.133 343.604 302.333 343.212 302.581 342.9C302.829 342.588 303.165 342.328 303.589 342.12C304.021 341.912 304.529 341.792 305.113 341.76L305.353 341.748C306.233 341.7 306.829 341.612 307.141 341.484L307.273 342.324C306.865 342.5 306.229 342.608 305.365 342.648L305.185 342.66C304.217 342.708 303.525 343.024 303.109 343.608C302.701 344.184 302.461 345.08 302.389 346.296H302.437C302.653 345.856 302.973 345.508 303.397 345.252C303.829 344.988 304.329 344.856 304.897 344.856C305.769 344.856 306.465 345.14 306.985 345.708C307.513 346.268 307.777 346.996 307.777 347.892V347.94C307.777 348.908 307.485 349.68 306.901 350.256C306.325 350.824 305.585 351.108 304.681 351.108ZM303.181 349.668C303.549 350.076 304.053 350.28 304.693 350.28C305.333 350.28 305.833 350.08 306.193 349.68C306.561 349.272 306.745 348.696 306.745 347.952V347.928C306.745 347.232 306.577 346.684 306.241 346.284C305.913 345.884 305.433 345.684 304.801 345.684C304.137 345.684 303.609 345.892 303.217 346.308C302.833 346.724 302.641 347.292 302.641 348.012V348.036C302.641 348.716 302.821 349.26 303.181 349.668ZM309.521 344.724H310.517V345.78C310.701 345.46 310.989 345.188 311.381 344.964C311.773 344.732 312.193 344.616 312.641 344.616C313.481 344.616 314.165 344.9 314.693 345.468C315.229 346.036 315.497 346.804 315.497 347.772V347.868C315.497 348.836 315.233 349.62 314.705 350.22C314.185 350.812 313.497 351.108 312.641 351.108C311.681 351.108 310.973 350.728 310.517 349.968V353.184H309.521V344.724ZM312.545 350.28C313.169 350.28 313.645 350.08 313.973 349.68C314.301 349.272 314.465 348.684 314.465 347.916V347.82C314.465 347.06 314.281 346.476 313.913 346.068C313.553 345.652 313.093 345.444 312.533 345.444C311.925 345.444 311.429 345.648 311.045 346.056C310.669 346.456 310.481 347.044 310.481 347.82V347.916C310.481 348.692 310.665 349.28 311.033 349.68C311.409 350.08 311.913 350.28 312.545 350.28ZM317.092 344.724H318.088V346.92H319.204C319.908 346.92 320.484 347.092 320.932 347.436C321.38 347.78 321.604 348.292 321.604 348.972V349.008C321.604 349.696 321.38 350.2 320.932 350.52C320.492 350.84 319.916 351 319.204 351H317.092V344.724ZM319.264 350.22C319.744 350.22 320.088 350.12 320.296 349.92C320.504 349.712 320.608 349.408 320.608 349.008V348.972C320.608 348.54 320.5 348.224 320.284 348.024C320.076 347.816 319.736 347.712 319.264 347.712H318.088V350.22H319.264Z" fill="white"/>
<path d="M280.35 369.527L284.326 365.341C285.287 364.323 285.768 363.357 285.768 362.443C285.768 361.883 285.609 361.444 285.292 361.127C284.984 360.809 284.545 360.651 283.976 360.651C282.763 360.651 282.058 361.393 281.862 362.877H280.728C280.803 361.887 281.125 361.108 281.694 360.539C282.273 359.96 283.033 359.671 283.976 359.671C284.9 359.671 285.633 359.927 286.174 360.441C286.725 360.945 287 361.626 287 362.485C287 363.586 286.328 364.799 284.984 366.125L282.226 368.813H287.056V369.807H280.35V369.527ZM292.901 368.925C294.665 368.925 295.547 367.632 295.547 365.047V364.487C295.547 363.32 295.309 362.391 294.833 361.701C294.357 361.001 293.704 360.651 292.873 360.651C292.024 360.651 291.361 360.987 290.885 361.659C290.409 362.331 290.171 363.283 290.171 364.515V365.075C290.171 366.316 290.414 367.268 290.899 367.931C291.385 368.593 292.052 368.925 292.901 368.925ZM292.901 369.933C291.707 369.933 290.745 369.489 290.017 368.603C289.289 367.716 288.925 366.545 288.925 365.089V364.529C288.925 363.045 289.275 361.864 289.975 360.987C290.685 360.109 291.651 359.671 292.873 359.671C294.087 359.671 295.039 360.114 295.729 361.001C296.429 361.887 296.779 363.054 296.779 364.501V365.061C296.779 366.535 296.434 367.716 295.743 368.603C295.062 369.489 294.115 369.933 292.901 369.933ZM300.634 361.001L298.394 362.611V361.477L300.718 359.797H301.852V369.807H300.634V361.001ZM307.752 369.919C306.837 369.919 306.104 369.695 305.554 369.247C305.003 368.799 304.662 368.164 304.532 367.343H305.708C305.829 367.865 306.048 368.262 306.366 368.533C306.692 368.794 307.164 368.925 307.78 368.925C308.592 368.925 309.217 368.593 309.656 367.931C310.094 367.268 310.323 366.274 310.342 364.949C310.09 365.369 309.74 365.695 309.292 365.929C308.844 366.162 308.33 366.279 307.752 366.279C306.781 366.279 305.988 365.971 305.372 365.355C304.765 364.739 304.462 363.955 304.462 363.003C304.462 361.995 304.774 361.187 305.4 360.581C306.025 359.965 306.865 359.657 307.92 359.657C309.105 359.657 310.001 360.039 310.608 360.805C311.214 361.57 311.518 362.681 311.518 364.137V364.767C311.518 366.437 311.191 367.716 310.538 368.603C309.894 369.48 308.965 369.919 307.752 369.919ZM307.934 365.327C308.606 365.327 309.156 365.126 309.586 364.725C310.015 364.323 310.23 363.801 310.23 363.157C310.23 362.354 310.015 361.729 309.586 361.281C309.166 360.833 308.61 360.609 307.92 360.609C307.266 360.609 306.734 360.823 306.324 361.253C305.913 361.682 305.708 362.247 305.708 362.947C305.708 363.675 305.908 364.253 306.31 364.683C306.711 365.112 307.252 365.327 307.934 365.327Z" fill="white"/>
<path opacity="0.6" d="M451.652 351.108C451.036 351.108 450.532 350.956 450.14 350.652C449.756 350.34 449.564 349.876 449.564 349.26C449.564 348.916 449.648 348.616 449.816 348.36C449.992 348.096 450.232 347.892 450.536 347.748C450.84 347.596 451.172 347.488 451.532 347.424C451.892 347.352 452.284 347.316 452.708 347.316H453.608V346.86C453.608 346.356 453.504 345.996 453.296 345.78C453.088 345.556 452.744 345.444 452.264 345.444C451.4 345.444 450.92 345.82 450.824 346.572H449.828C449.892 345.9 450.152 345.408 450.608 345.096C451.072 344.776 451.64 344.616 452.312 344.616C453.84 344.616 454.604 345.364 454.604 346.86V351H453.608V350.208C453.128 350.808 452.476 351.108 451.652 351.108ZM451.748 350.316C452.292 350.316 452.736 350.184 453.08 349.92C453.432 349.648 453.608 349.276 453.608 348.804V348.024H452.744C451.288 348.024 450.56 348.436 450.56 349.26C450.56 349.964 450.956 350.316 451.748 350.316ZM456.608 344.724H458.804C460.276 344.724 461.012 345.256 461.012 346.32V346.356C461.012 346.66 460.928 346.94 460.76 347.196C460.592 347.444 460.34 347.612 460.004 347.7C460.876 347.892 461.312 348.364 461.312 349.116V349.152C461.312 349.76 461.112 350.22 460.712 350.532C460.32 350.844 459.772 351 459.068 351H456.608V344.724ZM457.604 345.516V347.376H458.804C459.22 347.376 459.516 347.3 459.692 347.148C459.876 346.996 459.968 346.748 459.968 346.404V346.368C459.968 346.048 459.872 345.828 459.68 345.708C459.496 345.58 459.2 345.516 458.792 345.516H457.604ZM457.604 348.168V350.208H458.972C459.412 350.208 459.736 350.132 459.944 349.98C460.16 349.82 460.268 349.564 460.268 349.212V349.176C460.268 348.824 460.16 348.568 459.944 348.408C459.736 348.248 459.412 348.168 458.972 348.168H457.604ZM464.017 345.564V351H463.021V344.724H467.005V345.564H464.017ZM470.497 350.352L468.037 344.724H469.105L471.025 349.224L472.765 344.724H473.785L470.317 353.184H469.309L470.497 350.352ZM477.644 351.108C476.748 351.108 476.012 350.82 475.436 350.244C474.86 349.66 474.572 348.888 474.572 347.928V347.832C474.572 346.888 474.864 346.116 475.448 345.516C476.04 344.916 476.764 344.616 477.62 344.616C478.34 344.616 478.952 344.796 479.456 345.156C479.96 345.508 480.256 346.06 480.344 346.812H479.36C479.216 345.9 478.636 345.444 477.62 345.444C477.036 345.444 476.552 345.664 476.168 346.104C475.792 346.536 475.604 347.112 475.604 347.832V347.928C475.604 348.68 475.788 349.26 476.156 349.668C476.532 350.076 477.032 350.28 477.656 350.28C478.128 350.28 478.532 350.148 478.868 349.884C479.212 349.612 479.408 349.232 479.456 348.744H480.38C480.316 349.432 480.028 350 479.516 350.448C479.012 350.888 478.388 351.108 477.644 351.108ZM486.336 345.564H484.308V351H483.312V345.564H481.284V344.724H486.336V345.564Z" fill="white"/>
<path d="M449.35 369.527L453.326 365.341C454.287 364.323 454.768 363.357 454.768 362.443C454.768 361.883 454.609 361.444 454.292 361.127C453.984 360.809 453.545 360.651 452.976 360.651C451.763 360.651 451.058 361.393 450.862 362.877H449.728C449.803 361.887 450.125 361.108 450.694 360.539C451.273 359.96 452.033 359.671 452.976 359.671C453.9 359.671 454.633 359.927 455.174 360.441C455.725 360.945 456 361.626 456 362.485C456 363.586 455.328 364.799 453.984 366.125L451.226 368.813H456.056V369.807H449.35V369.527ZM461.901 368.925C463.665 368.925 464.547 367.632 464.547 365.047V364.487C464.547 363.32 464.309 362.391 463.833 361.701C463.357 361.001 462.704 360.651 461.873 360.651C461.024 360.651 460.361 360.987 459.885 361.659C459.409 362.331 459.171 363.283 459.171 364.515V365.075C459.171 366.316 459.414 367.268 459.899 367.931C460.385 368.593 461.052 368.925 461.901 368.925ZM461.901 369.933C460.707 369.933 459.745 369.489 459.017 368.603C458.289 367.716 457.925 366.545 457.925 365.089V364.529C457.925 363.045 458.275 361.864 458.975 360.987C459.685 360.109 460.651 359.671 461.873 359.671C463.087 359.671 464.039 360.114 464.729 361.001C465.429 361.887 465.779 363.054 465.779 364.501V365.061C465.779 366.535 465.434 367.716 464.743 368.603C464.062 369.489 463.115 369.933 461.901 369.933ZM467.198 369.527L471.174 365.341C472.136 364.323 472.616 363.357 472.616 362.443C472.616 361.883 472.458 361.444 472.14 361.127C471.832 360.809 471.394 360.651 470.824 360.651C469.611 360.651 468.906 361.393 468.71 362.877H467.576C467.651 361.887 467.973 361.108 468.542 360.539C469.121 359.96 469.882 359.671 470.824 359.671C471.748 359.671 472.481 359.927 473.022 360.441C473.573 360.945 473.848 361.626 473.848 362.485C473.848 363.586 473.176 364.799 471.832 366.125L469.074 368.813H473.904V369.807H467.198V369.527ZM479.75 368.925C481.514 368.925 482.396 367.632 482.396 365.047V364.487C482.396 363.32 482.158 362.391 481.682 361.701C481.206 361.001 480.552 360.651 479.722 360.651C478.872 360.651 478.21 360.987 477.734 361.659C477.258 362.331 477.02 363.283 477.02 364.515V365.075C477.02 366.316 477.262 367.268 477.748 367.931C478.233 368.593 478.9 368.925 479.75 368.925ZM479.75 369.933C478.555 369.933 477.594 369.489 476.866 368.603C476.138 367.716 475.774 366.545 475.774 365.089V364.529C475.774 363.045 476.124 361.864 476.824 360.987C477.533 360.109 478.499 359.671 479.722 359.671C480.935 359.671 481.887 360.114 482.578 361.001C483.278 361.887 483.628 363.054 483.628 364.501V365.061C483.628 366.535 483.282 367.716 482.592 368.603C481.91 369.489 480.963 369.933 479.75 369.933Z" fill="white"/>
<path opacity="0.6" d="M200.008 351V344.724H201.004V349.56L204.208 344.724H205.204V351H204.208V346.164L201.004 351H200.008ZM212.102 351.108C211.302 351.108 210.638 350.86 210.11 350.364C209.59 349.868 209.282 349.216 209.186 348.408C209.17 348.296 209.162 348.228 209.162 348.204H208.214V351H207.218V344.724H208.214V347.364H209.174C209.27 346.532 209.578 345.868 210.098 345.372C210.626 344.868 211.298 344.616 212.114 344.616C213.002 344.616 213.718 344.912 214.262 345.504C214.806 346.096 215.078 346.864 215.078 347.808V347.904C215.078 348.856 214.802 349.628 214.25 350.22C213.706 350.812 212.99 351.108 212.102 351.108ZM212.114 350.28C212.73 350.28 213.206 350.068 213.542 349.644C213.878 349.22 214.046 348.644 214.046 347.916V347.832C214.046 347.096 213.878 346.516 213.542 346.092C213.206 345.66 212.73 345.444 212.114 345.444C211.49 345.444 211.01 345.656 210.674 346.08C210.346 346.504 210.182 347.084 210.182 347.82V347.916C210.182 348.652 210.346 349.232 210.674 349.656C211.002 350.072 211.482 350.28 212.114 350.28ZM220.828 348.204H217.744V351H216.748V344.724H217.744V347.364H220.828V344.724H221.824V351H220.828V348.204ZM223.958 344.724H224.954V346.92H226.07C226.774 346.92 227.35 347.092 227.798 347.436C228.246 347.78 228.47 348.292 228.47 348.972V349.008C228.47 349.696 228.246 350.2 227.798 350.52C227.358 350.84 226.782 351 226.07 351H223.958V344.724ZM226.13 350.22C226.61 350.22 226.954 350.12 227.162 349.92C227.37 349.712 227.474 349.408 227.474 349.008V348.972C227.474 348.54 227.366 348.224 227.15 348.024C226.942 347.816 226.602 347.712 226.13 347.712H224.954V350.22H226.13Z" fill="white"/>
<path d="M199.35 369.528L203.326 365.342C204.287 364.324 204.768 363.358 204.768 362.444C204.768 361.884 204.609 361.445 204.292 361.128C203.984 360.81 203.545 360.652 202.976 360.652C201.763 360.652 201.058 361.394 200.862 362.878H199.728C199.803 361.888 200.125 361.109 200.694 360.54C201.273 359.961 202.033 359.672 202.976 359.672C203.9 359.672 204.633 359.928 205.174 360.442C205.725 360.946 206 361.627 206 362.486C206 363.587 205.328 364.8 203.984 366.126L201.226 368.814H206.056V369.808H199.35V369.528ZM211.901 368.926C213.665 368.926 214.547 367.633 214.547 365.048V364.488C214.547 363.321 214.309 362.392 213.833 361.702C213.357 361.002 212.704 360.652 211.873 360.652C211.024 360.652 210.361 360.988 209.885 361.66C209.409 362.332 209.171 363.284 209.171 364.516V365.076C209.171 366.317 209.414 367.269 209.899 367.932C210.385 368.594 211.052 368.926 211.901 368.926ZM211.901 369.934C210.707 369.934 209.745 369.49 209.017 368.604C208.289 367.717 207.925 366.546 207.925 365.09V364.53C207.925 363.046 208.275 361.865 208.975 360.988C209.685 360.11 210.651 359.672 211.873 359.672C213.087 359.672 214.039 360.115 214.729 361.002C215.429 361.888 215.779 363.055 215.779 364.502V365.062C215.779 366.536 215.434 367.717 214.743 368.604C214.062 369.49 213.115 369.934 211.901 369.934ZM219.634 361.002L217.394 362.612V361.478L219.718 359.798H220.852V369.808H219.634V361.002ZM226.752 369.92C225.837 369.92 225.104 369.696 224.554 369.248C224.003 368.8 223.662 368.165 223.532 367.344H224.708C224.829 367.866 225.048 368.263 225.366 368.534C225.692 368.795 226.164 368.926 226.78 368.926C227.592 368.926 228.217 368.594 228.656 367.932C229.094 367.269 229.323 366.275 229.342 364.95C229.09 365.37 228.74 365.696 228.292 365.93C227.844 366.163 227.33 366.28 226.752 366.28C225.781 366.28 224.988 365.972 224.372 365.356C223.765 364.74 223.462 363.956 223.462 363.004C223.462 361.996 223.774 361.188 224.4 360.582C225.025 359.966 225.865 359.658 226.92 359.658C228.105 359.658 229.001 360.04 229.608 360.806C230.214 361.571 230.518 362.682 230.518 364.138V364.768C230.518 366.438 230.191 367.717 229.538 368.604C228.894 369.481 227.965 369.92 226.752 369.92ZM226.934 365.328C227.606 365.328 228.156 365.127 228.586 364.726C229.015 364.324 229.23 363.802 229.23 363.158C229.23 362.355 229.015 361.73 228.586 361.282C228.166 360.834 227.61 360.61 226.92 360.61C226.266 360.61 225.734 360.824 225.324 361.254C224.913 361.683 224.708 362.248 224.708 362.948C224.708 363.676 224.908 364.254 225.31 364.684C225.711 365.113 226.252 365.328 226.934 365.328Z" fill="white"/>
<path opacity="0.6" d="M119.848 345.708V351H119.02V344.724H120.424L122.212 349.44L124.048 344.724H125.416V351H124.432V345.708L122.356 351H121.9L119.848 345.708ZM129.21 351.108C128.594 351.108 128.089 350.956 127.697 350.652C127.313 350.34 127.121 349.876 127.121 349.26C127.121 348.916 127.205 348.616 127.373 348.36C127.549 348.096 127.789 347.892 128.093 347.748C128.397 347.596 128.729 347.488 129.09 347.424C129.45 347.352 129.842 347.316 130.266 347.316H131.165V346.86C131.165 346.356 131.061 345.996 130.854 345.78C130.646 345.556 130.302 345.444 129.822 345.444C128.957 345.444 128.477 345.82 128.382 346.572H127.385C127.449 345.9 127.709 345.408 128.165 345.096C128.629 344.776 129.197 344.616 129.87 344.616C131.398 344.616 132.161 345.364 132.161 346.86V351H131.165V350.208C130.685 350.808 130.033 351.108 129.21 351.108ZM129.306 350.316C129.85 350.316 130.294 350.184 130.637 349.92C130.989 349.648 131.165 349.276 131.165 348.804V348.024H130.301C128.845 348.024 128.118 348.436 128.118 349.26C128.118 349.964 128.514 350.316 129.306 350.316ZM136.746 343.572C136.314 343.572 135.946 343.424 135.642 343.128C135.338 342.824 135.178 342.444 135.162 341.988H136.026C136.074 342.58 136.314 342.876 136.746 342.876C137.218 342.876 137.482 342.58 137.538 341.988H138.378C138.346 342.444 138.174 342.824 137.862 343.128C137.558 343.424 137.186 343.572 136.746 343.572ZM134.166 351V344.724H135.162V349.56L138.366 344.724H139.362V351H138.366V346.164L135.162 351H134.166Z" fill="white"/>
<path d="M118.35 369.528L122.326 365.342C123.287 364.324 123.768 363.358 123.768 362.444C123.768 361.884 123.609 361.445 123.292 361.128C122.984 360.81 122.545 360.652 121.976 360.652C120.763 360.652 120.058 361.394 119.862 362.878H118.728C118.803 361.888 119.125 361.109 119.694 360.54C120.273 359.961 121.033 359.672 121.976 359.672C122.9 359.672 123.633 359.928 124.174 360.442C124.725 360.946 125 361.627 125 362.486C125 363.587 124.328 364.8 122.984 366.126L120.226 368.814H125.056V369.808H118.35V369.528ZM130.901 368.926C132.665 368.926 133.547 367.633 133.547 365.048V364.488C133.547 363.321 133.309 362.392 132.833 361.702C132.357 361.002 131.704 360.652 130.873 360.652C130.024 360.652 129.361 360.988 128.885 361.66C128.409 362.332 128.171 363.284 128.171 364.516V365.076C128.171 366.317 128.414 367.269 128.899 367.932C129.385 368.594 130.052 368.926 130.901 368.926ZM130.901 369.934C129.707 369.934 128.745 369.49 128.017 368.604C127.289 367.717 126.925 366.546 126.925 365.09V364.53C126.925 363.046 127.275 361.865 127.975 360.988C128.685 360.11 129.651 359.672 130.873 359.672C132.087 359.672 133.039 360.115 133.729 361.002C134.429 361.888 134.779 363.055 134.779 364.502V365.062C134.779 366.536 134.434 367.717 133.743 368.604C133.062 369.49 132.115 369.934 130.901 369.934ZM138.634 361.002L136.394 362.612V361.478L138.718 359.798H139.852V369.808H138.634V361.002ZM145.752 369.92C144.837 369.92 144.104 369.696 143.554 369.248C143.003 368.8 142.662 368.165 142.532 367.344H143.708C143.829 367.866 144.048 368.263 144.366 368.534C144.692 368.795 145.164 368.926 145.78 368.926C146.592 368.926 147.217 368.594 147.656 367.932C148.094 367.269 148.323 366.275 148.342 364.95C148.09 365.37 147.74 365.696 147.292 365.93C146.844 366.163 146.33 366.28 145.752 366.28C144.781 366.28 143.988 365.972 143.372 365.356C142.765 364.74 142.462 363.956 142.462 363.004C142.462 361.996 142.774 361.188 143.4 360.582C144.025 359.966 144.865 359.658 145.92 359.658C147.105 359.658 148.001 360.04 148.608 360.806C149.214 361.571 149.518 362.682 149.518 364.138V364.768C149.518 366.438 149.191 367.717 148.538 368.604C147.894 369.481 146.965 369.92 145.752 369.92ZM145.934 365.328C146.606 365.328 147.156 365.127 147.586 364.726C148.015 364.324 148.23 363.802 148.23 363.158C148.23 362.355 148.015 361.73 147.586 361.282C147.166 360.834 146.61 360.61 145.92 360.61C145.266 360.61 144.734 360.824 144.324 361.254C143.913 361.683 143.708 362.248 143.708 362.948C143.708 363.676 143.908 364.254 144.31 364.684C144.711 365.113 145.252 365.328 145.934 365.328Z" fill="white"/>
<path opacity="0.6" d="M369.008 351V344.724H370.004V349.56L373.208 344.724H374.204V351H373.208V346.164L370.004 351H369.008ZM381.102 351.108C380.302 351.108 379.638 350.86 379.11 350.364C378.59 349.868 378.282 349.216 378.186 348.408C378.17 348.296 378.162 348.228 378.162 348.204H377.214V351H376.218V344.724H377.214V347.364H378.174C378.27 346.532 378.578 345.868 379.098 345.372C379.626 344.868 380.298 344.616 381.114 344.616C382.002 344.616 382.718 344.912 383.262 345.504C383.806 346.096 384.078 346.864 384.078 347.808V347.904C384.078 348.856 383.802 349.628 383.25 350.22C382.706 350.812 381.99 351.108 381.102 351.108ZM381.114 350.28C381.73 350.28 382.206 350.068 382.542 349.644C382.878 349.22 383.046 348.644 383.046 347.916V347.832C383.046 347.096 382.878 346.516 382.542 346.092C382.206 345.66 381.73 345.444 381.114 345.444C380.49 345.444 380.01 345.656 379.674 346.08C379.346 346.504 379.182 347.084 379.182 347.82V347.916C379.182 348.652 379.346 349.232 379.674 349.656C380.002 350.072 380.482 350.28 381.114 350.28ZM386.889 348.576C386.817 349.44 386.665 350.072 386.433 350.472C386.201 350.864 385.837 351.06 385.341 351.06C385.237 351.06 385.129 351.052 385.017 351.036L384.921 351V350.052L385.005 350.076C385.085 350.092 385.169 350.1 385.257 350.1C385.385 350.1 385.489 350.064 385.569 349.992C385.657 349.912 385.725 349.788 385.773 349.62C385.829 349.452 385.869 349.296 385.893 349.152C385.917 349 385.945 348.788 385.977 348.516C386.009 348.228 386.057 347.412 386.121 346.068L386.157 344.724H390.297V351H389.301V345.564H387.045C386.973 347.292 386.921 348.296 386.889 348.576ZM392.431 344.724H393.427V346.92H394.543C395.247 346.92 395.823 347.092 396.271 347.436C396.719 347.78 396.943 348.292 396.943 348.972V349.008C396.943 349.696 396.719 350.2 396.271 350.52C395.831 350.84 395.255 351 394.543 351H392.431V344.724ZM394.603 350.22C395.083 350.22 395.427 350.12 395.635 349.92C395.843 349.712 395.947 349.408 395.947 349.008V348.972C395.947 348.54 395.839 348.224 395.623 348.024C395.415 347.816 395.075 347.712 394.603 347.712H393.427V350.22H394.603Z" fill="white"/>
<path d="M368.35 369.528L372.326 365.342C373.287 364.324 373.768 363.358 373.768 362.444C373.768 361.884 373.609 361.445 373.292 361.128C372.984 360.81 372.545 360.652 371.976 360.652C370.763 360.652 370.058 361.394 369.862 362.878H368.728C368.803 361.888 369.125 361.109 369.694 360.54C370.273 359.961 371.033 359.672 371.976 359.672C372.9 359.672 373.633 359.928 374.174 360.442C374.725 360.946 375 361.627 375 362.486C375 363.587 374.328 364.8 372.984 366.126L370.226 368.814H375.056V369.808H368.35V369.528ZM380.901 368.926C382.665 368.926 383.547 367.633 383.547 365.048V364.488C383.547 363.321 383.309 362.392 382.833 361.702C382.357 361.002 381.704 360.652 380.873 360.652C380.024 360.652 379.361 360.988 378.885 361.66C378.409 362.332 378.171 363.284 378.171 364.516V365.076C378.171 366.317 378.414 367.269 378.899 367.932C379.385 368.594 380.052 368.926 380.901 368.926ZM380.901 369.934C379.707 369.934 378.745 369.49 378.017 368.604C377.289 367.717 376.925 366.546 376.925 365.09V364.53C376.925 363.046 377.275 361.865 377.975 360.988C378.685 360.11 379.651 359.672 380.873 359.672C382.087 359.672 383.039 360.115 383.729 361.002C384.429 361.888 384.779 363.055 384.779 364.502V365.062C384.779 366.536 384.434 367.717 383.743 368.604C383.062 369.49 382.115 369.934 380.901 369.934ZM386.198 369.528L390.174 365.342C391.136 364.324 391.616 363.358 391.616 362.444C391.616 361.884 391.458 361.445 391.14 361.128C390.832 360.81 390.394 360.652 389.824 360.652C388.611 360.652 387.906 361.394 387.71 362.878H386.576C386.651 361.888 386.973 361.109 387.542 360.54C388.121 359.961 388.882 359.672 389.824 359.672C390.748 359.672 391.481 359.928 392.022 360.442C392.573 360.946 392.848 361.627 392.848 362.486C392.848 363.587 392.176 364.8 390.832 366.126L388.074 368.814H392.904V369.808H386.198V369.528ZM398.75 368.926C400.514 368.926 401.396 367.633 401.396 365.048V364.488C401.396 363.321 401.158 362.392 400.682 361.702C400.206 361.002 399.552 360.652 398.722 360.652C397.872 360.652 397.21 360.988 396.734 361.66C396.258 362.332 396.02 363.284 396.02 364.516V365.076C396.02 366.317 396.262 367.269 396.748 367.932C397.233 368.594 397.9 368.926 398.75 368.926ZM398.75 369.934C397.555 369.934 396.594 369.49 395.866 368.604C395.138 367.717 394.774 366.546 394.774 365.09V364.53C394.774 363.046 395.124 361.865 395.824 360.988C396.533 360.11 397.499 359.672 398.722 359.672C399.935 359.672 400.887 360.115 401.578 361.002C402.278 361.888 402.628 363.055 402.628 364.502V365.062C402.628 366.536 402.282 367.717 401.592 368.604C400.91 369.49 399.963 369.934 398.75 369.934Z" fill="white"/>
<path opacity="0.6" d="M536.684 351.108C535.788 351.108 535.052 350.82 534.476 350.244C533.9 349.66 533.612 348.888 533.612 347.928V347.832C533.612 346.888 533.904 346.116 534.488 345.516C535.08 344.916 535.804 344.616 536.66 344.616C537.38 344.616 537.992 344.796 538.496 345.156C539 345.508 539.296 346.06 539.384 346.812H538.4C538.256 345.9 537.676 345.444 536.66 345.444C536.076 345.444 535.592 345.664 535.208 346.104C534.832 346.536 534.644 347.112 534.644 347.832V347.928C534.644 348.68 534.828 349.26 535.196 349.668C535.572 350.076 536.072 350.28 536.696 350.28C537.168 350.28 537.572 350.148 537.908 349.884C538.252 349.612 538.448 349.232 538.496 348.744H539.42C539.356 349.432 539.068 350 538.556 350.448C538.052 350.888 537.428 351.108 536.684 351.108ZM543.612 351.108C542.716 351.108 541.984 350.816 541.416 350.232C540.856 349.648 540.576 348.88 540.576 347.928V347.832C540.576 346.888 540.848 346.116 541.392 345.516C541.944 344.916 542.652 344.616 543.516 344.616C544.316 344.616 544.984 344.876 545.52 345.396C546.064 345.908 546.336 346.688 546.336 347.736V348.06H541.608C541.656 349.54 542.328 350.28 543.624 350.28C544.608 350.28 545.164 349.916 545.292 349.188H546.288C546.176 349.812 545.884 350.288 545.412 350.616C544.94 350.944 544.34 351.108 543.612 351.108ZM545.316 347.256C545.228 346.048 544.628 345.444 543.516 345.444C543.012 345.444 542.596 345.604 542.268 345.924C541.94 346.244 541.732 346.688 541.644 347.256H545.316ZM551.992 348.204H548.908V351H547.912V344.724H548.908V347.364H551.992V344.724H552.988V351H551.992V348.204ZM559.526 345.564H557.498V351H556.502V345.564H554.474V344.724H559.526V345.564ZM563.107 345.516C562.211 345.516 561.763 345.896 561.763 346.656V346.692C561.763 347.052 561.867 347.324 562.075 347.508C562.283 347.692 562.627 347.784 563.107 347.784H564.283V345.516H563.107ZM561.451 351H560.311L562.219 348.372C561.251 348.172 560.767 347.612 560.767 346.692V346.656C560.767 346 560.991 345.516 561.439 345.204C561.887 344.884 562.463 344.724 563.167 344.724H565.279V351H564.283V348.54H563.203L561.451 351ZM570.12 351.108C569.176 351.108 568.428 350.804 567.876 350.196C567.324 349.588 567.048 348.664 567.048 347.424V347.04C567.048 346.448 567.072 345.924 567.12 345.468C567.168 345.004 567.268 344.54 567.42 344.076C567.572 343.604 567.772 343.212 568.02 342.9C568.268 342.588 568.604 342.328 569.028 342.12C569.46 341.912 569.968 341.792 570.552 341.76L570.792 341.748C571.672 341.7 572.268 341.612 572.58 341.484L572.712 342.324C572.304 342.5 571.668 342.608 570.804 342.648L570.624 342.66C569.656 342.708 568.964 343.024 568.548 343.608C568.14 344.184 567.9 345.08 567.828 346.296H567.876C568.092 345.856 568.412 345.508 568.836 345.252C569.268 344.988 569.768 344.856 570.336 344.856C571.208 344.856 571.904 345.14 572.424 345.708C572.952 346.268 573.216 346.996 573.216 347.892V347.94C573.216 348.908 572.924 349.68 572.34 350.256C571.764 350.824 571.024 351.108 570.12 351.108ZM568.62 349.668C568.988 350.076 569.492 350.28 570.132 350.28C570.772 350.28 571.272 350.08 571.632 349.68C572 349.272 572.184 348.696 572.184 347.952V347.928C572.184 347.232 572.016 346.684 571.68 346.284C571.352 345.884 570.872 345.684 570.24 345.684C569.576 345.684 569.048 345.892 568.656 346.308C568.272 346.724 568.08 347.292 568.08 348.012V348.036C568.08 348.716 568.26 349.26 568.62 349.668ZM574.96 344.724H575.956V345.78C576.14 345.46 576.428 345.188 576.82 344.964C577.212 344.732 577.632 344.616 578.08 344.616C578.92 344.616 579.604 344.9 580.132 345.468C580.668 346.036 580.936 346.804 580.936 347.772V347.868C580.936 348.836 580.672 349.62 580.144 350.22C579.624 350.812 578.936 351.108 578.08 351.108C577.12 351.108 576.412 350.728 575.956 349.968V353.184H574.96V344.724ZM577.984 350.28C578.608 350.28 579.084 350.08 579.412 349.68C579.74 349.272 579.904 348.684 579.904 347.916V347.82C579.904 347.06 579.72 346.476 579.352 346.068C578.992 345.652 578.532 345.444 577.972 345.444C577.364 345.444 576.868 345.648 576.484 346.056C576.108 346.456 575.92 347.044 575.92 347.82V347.916C575.92 348.692 576.104 349.28 576.472 349.68C576.848 350.08 577.352 350.28 577.984 350.28ZM582.532 344.724H583.528V346.92H584.644C585.348 346.92 585.924 347.092 586.372 347.436C586.82 347.78 587.044 348.292 587.044 348.972V349.008C587.044 349.696 586.82 350.2 586.372 350.52C585.932 350.84 585.356 351 584.644 351H582.532V344.724ZM584.704 350.22C585.184 350.22 585.528 350.12 585.736 349.92C585.944 349.712 586.048 349.408 586.048 349.008V348.972C586.048 348.54 585.94 348.224 585.724 348.024C585.516 347.816 585.176 347.712 584.704 347.712H583.528V350.22H584.704Z" fill="white"/>
<path d="M533.35 369.274L537.326 365.088C538.287 364.07 538.768 363.104 538.768 362.19C538.768 361.63 538.609 361.191 538.292 360.874C537.984 360.556 537.545 360.398 536.976 360.398C535.763 360.398 535.058 361.14 534.862 362.624H533.728C533.803 361.634 534.125 360.855 534.694 360.286C535.273 359.707 536.033 359.418 536.976 359.418C537.9 359.418 538.633 359.674 539.174 360.188C539.725 360.692 540 361.373 540 362.232C540 363.333 539.328 364.546 537.984 365.872L535.226 368.56H540.056V369.554H533.35V369.274ZM545.901 368.672C547.665 368.672 548.547 367.379 548.547 364.794V364.234C548.547 363.067 548.309 362.138 547.833 361.448C547.357 360.748 546.704 360.398 545.873 360.398C545.024 360.398 544.361 360.734 543.885 361.406C543.409 362.078 543.171 363.03 543.171 364.262V364.822C543.171 366.063 543.414 367.015 543.899 367.678C544.385 368.34 545.052 368.672 545.901 368.672ZM545.901 369.68C544.707 369.68 543.745 369.236 543.017 368.35C542.289 367.463 541.925 366.292 541.925 364.836V364.276C541.925 362.792 542.275 361.611 542.975 360.734C543.685 359.856 544.651 359.418 545.873 359.418C547.087 359.418 548.039 359.861 548.729 360.748C549.429 361.634 549.779 362.801 549.779 364.248V364.808C549.779 366.282 549.434 367.463 548.743 368.35C548.062 369.236 547.115 369.68 545.901 369.68ZM551.198 369.274L555.174 365.088C556.136 364.07 556.616 363.104 556.616 362.19C556.616 361.63 556.458 361.191 556.14 360.874C555.832 360.556 555.394 360.398 554.824 360.398C553.611 360.398 552.906 361.14 552.71 362.624H551.576C551.651 361.634 551.973 360.855 552.542 360.286C553.121 359.707 553.882 359.418 554.824 359.418C555.748 359.418 556.481 359.674 557.022 360.188C557.573 360.692 557.848 361.373 557.848 362.232C557.848 363.333 557.176 364.546 555.832 365.872L553.074 368.56H557.904V369.554H551.198V369.274ZM563.75 368.672C565.514 368.672 566.396 367.379 566.396 364.794V364.234C566.396 363.067 566.158 362.138 565.682 361.448C565.206 360.748 564.552 360.398 563.722 360.398C562.872 360.398 562.21 360.734 561.734 361.406C561.258 362.078 561.02 363.03 561.02 364.262V364.822C561.02 366.063 561.262 367.015 561.748 367.678C562.233 368.34 562.9 368.672 563.75 368.672ZM563.75 369.68C562.555 369.68 561.594 369.236 560.866 368.35C560.138 367.463 559.774 366.292 559.774 364.836V364.276C559.774 362.792 560.124 361.611 560.824 360.734C561.533 359.856 562.499 359.418 563.722 359.418C564.935 359.418 565.887 359.861 566.578 360.748C567.278 361.634 567.628 362.801 567.628 364.248V364.808C567.628 366.282 567.282 367.463 566.592 368.35C565.91 369.236 564.963 369.68 563.75 369.68Z" fill="white"/>
<path opacity="0.6" d="M5.412 286.458H3.384V291.894H2.388V286.458H0.36V285.618H5.412V286.458ZM12.3053 285.618H13.3013V291.894H12.3053V285.618ZM6.90534 285.618H7.90134V287.814H9.01734C9.72934 287.814 10.3053 287.974 10.7453 288.294C11.1933 288.614 11.4173 289.118 11.4173 289.806V289.842C11.4173 290.522 11.1933 291.034 10.7453 291.378C10.2973 291.722 9.72134 291.894 9.01734 291.894H6.90534V285.618ZM9.07734 291.102C9.54934 291.102 9.88934 291.002 10.0973 290.802C10.3133 290.594 10.4213 290.274 10.4213 289.842V289.806C10.4213 289.406 10.3173 289.106 10.1093 288.906C9.90134 288.698 9.55734 288.594 9.07734 288.594H7.90134V291.102H9.07734ZM18.1154 292.002C17.2194 292.002 16.4834 291.714 15.9074 291.138C15.3314 290.554 15.0434 289.782 15.0434 288.822V288.726C15.0434 287.782 15.3354 287.01 15.9194 286.41C16.5114 285.81 17.2354 285.51 18.0914 285.51C18.8114 285.51 19.4234 285.69 19.9274 286.05C20.4314 286.402 20.7274 286.954 20.8154 287.706H19.8314C19.6874 286.794 19.1074 286.338 18.0914 286.338C17.5074 286.338 17.0234 286.558 16.6394 286.998C16.2634 287.43 16.0754 288.006 16.0754 288.726V288.822C16.0754 289.574 16.2594 290.154 16.6274 290.562C17.0034 290.97 17.5034 291.174 18.1274 291.174C18.5994 291.174 19.0034 291.042 19.3394 290.778C19.6834 290.506 19.8794 290.126 19.9274 289.638H20.8514C20.7874 290.326 20.4994 290.894 19.9874 291.342C19.4834 291.782 18.8594 292.002 18.1154 292.002ZM25.7709 285.618H26.7669V286.674C26.9509 286.354 27.2389 286.082 27.6309 285.858C28.0229 285.626 28.4429 285.51 28.8909 285.51C29.7309 285.51 30.4149 285.794 30.9429 286.362C31.4789 286.93 31.7469 287.698 31.7469 288.666V288.762C31.7469 289.73 31.4829 290.514 30.9549 291.114C30.4349 291.706 29.7469 292.002 28.8909 292.002C27.9309 292.002 27.2229 291.622 26.7669 290.862V294.078H25.7709V285.618ZM28.7949 291.174C29.4189 291.174 29.8949 290.974 30.2229 290.574C30.5509 290.166 30.7149 289.578 30.7149 288.81V288.714C30.7149 287.954 30.5309 287.37 30.1629 286.962C29.8029 286.546 29.3429 286.338 28.7829 286.338C28.1749 286.338 27.6789 286.542 27.2949 286.95C26.9189 287.35 26.7309 287.938 26.7309 288.714V288.81C26.7309 289.586 26.9149 290.174 27.2829 290.574C27.6589 290.974 28.1629 291.174 28.7949 291.174ZM35.0492 291.246L32.5892 285.618H33.6572L35.5772 290.118L37.3172 285.618H38.3372L34.8692 294.078H33.8612L35.0492 291.246ZM42.3968 292.002C41.4528 292.002 40.7048 291.698 40.1528 291.09C39.6008 290.482 39.3248 289.558 39.3248 288.318V287.934C39.3248 287.342 39.3488 286.818 39.3968 286.362C39.4448 285.898 39.5448 285.434 39.6968 284.97C39.8488 284.498 40.0488 284.106 40.2968 283.794C40.5448 283.482 40.8808 283.222 41.3048 283.014C41.7368 282.806 42.2448 282.686 42.8288 282.654L43.0688 282.642C43.9488 282.594 44.5448 282.506 44.8568 282.378L44.9888 283.218C44.5808 283.394 43.9448 283.502 43.0808 283.542L42.9008 283.554C41.9328 283.602 41.2408 283.918 40.8248 284.502C40.4168 285.078 40.1768 285.974 40.1048 287.19H40.1528C40.3688 286.75 40.6888 286.402 41.1128 286.146C41.5448 285.882 42.0448 285.75 42.6128 285.75C43.4848 285.75 44.1808 286.034 44.7008 286.602C45.2288 287.162 45.4928 287.89 45.4928 288.786V288.834C45.4928 289.802 45.2008 290.574 44.6168 291.15C44.0408 291.718 43.3008 292.002 42.3968 292.002ZM40.8968 290.562C41.2648 290.97 41.7688 291.174 42.4088 291.174C43.0488 291.174 43.5488 290.974 43.9088 290.574C44.2768 290.166 44.4608 289.59 44.4608 288.846V288.822C44.4608 288.126 44.2928 287.578 43.9568 287.178C43.6288 286.778 43.1488 286.578 42.5168 286.578C41.8528 286.578 41.3248 286.786 40.9328 287.202C40.5488 287.618 40.3568 288.186 40.3568 288.906V288.93C40.3568 289.61 40.5368 290.154 40.8968 290.562Z" fill="white"/>
<path d="M17.3342 276.922C16.1502 276.922 15.2435 276.634 14.6142 276.058C13.9849 275.472 13.6222 274.682 13.5262 273.69H14.8542C14.9822 274.384 15.2222 274.912 15.5742 275.274C15.9262 275.626 16.5075 275.802 17.3182 275.802C18.0969 275.802 18.7102 275.557 19.1582 275.066C19.6062 274.576 19.8302 273.898 19.8302 273.034C19.8302 272.224 19.6115 271.578 19.1742 271.098C18.7475 270.608 18.1662 270.362 17.4302 270.362C16.7902 270.362 16.2622 270.453 15.8462 270.634C15.4302 270.816 15.0569 271.093 14.7262 271.466H14.2142V265.338H20.6462V266.538H15.3662V270.026C15.9315 269.504 16.7102 269.242 17.7022 269.242C18.7475 269.242 19.6009 269.589 20.2622 270.282C20.9235 270.965 21.2542 271.882 21.2542 273.034C21.2542 274.218 20.8809 275.162 20.1342 275.866C19.3875 276.57 18.4542 276.922 17.3342 276.922ZM28.0022 275.77C30.0182 275.77 31.0262 274.293 31.0262 271.338V270.698C31.0262 269.365 30.7542 268.304 30.2102 267.514C29.6662 266.714 28.9195 266.314 27.9702 266.314C26.9995 266.314 26.2422 266.698 25.6982 267.466C25.1542 268.234 24.8822 269.322 24.8822 270.73V271.37C24.8822 272.789 25.1595 273.877 25.7142 274.634C26.2689 275.392 27.0315 275.77 28.0022 275.77ZM28.0022 276.922C26.6369 276.922 25.5382 276.416 24.7062 275.402C23.8742 274.389 23.4582 273.05 23.4582 271.386V270.746C23.4582 269.05 23.8582 267.701 24.6582 266.698C25.4689 265.696 26.5729 265.194 27.9702 265.194C29.3569 265.194 30.4449 265.701 31.2342 266.714C32.0342 267.728 32.4342 269.061 32.4342 270.714V271.354C32.4342 273.04 32.0395 274.389 31.2502 275.402C30.4715 276.416 29.3889 276.922 28.0022 276.922ZM39.2559 275.77C41.2719 275.77 42.2799 274.293 42.2799 271.338V270.698C42.2799 269.365 42.0079 268.304 41.4639 267.514C40.9199 266.714 40.1733 266.314 39.2239 266.314C38.2533 266.314 37.4959 266.698 36.9519 267.466C36.4079 268.234 36.1359 269.322 36.1359 270.73V271.37C36.1359 272.789 36.4133 273.877 36.9679 274.634C37.5226 275.392 38.2853 275.77 39.2559 275.77ZM39.2559 276.922C37.8906 276.922 36.7919 276.416 35.9599 275.402C35.1279 274.389 34.7119 273.05 34.7119 271.386V270.746C34.7119 269.05 35.1119 267.701 35.9119 266.698C36.7226 265.696 37.8266 265.194 39.2239 265.194C40.6106 265.194 41.6986 265.701 42.4879 266.714C43.2879 267.728 43.6879 269.061 43.6879 270.714V271.354C43.6879 273.04 43.2933 274.389 42.5039 275.402C41.7253 276.416 40.6426 276.922 39.2559 276.922Z" fill="white"/>
<path opacity="0.6" d="M5.412 237.748H3.384V243.184H2.388V237.748H0.36V236.908H5.412V237.748ZM12.3053 236.908H13.3013V243.184H12.3053V236.908ZM6.90534 236.908H7.90134V239.104H9.01734C9.72934 239.104 10.3053 239.264 10.7453 239.584C11.1933 239.904 11.4173 240.408 11.4173 241.096V241.132C11.4173 241.812 11.1933 242.324 10.7453 242.668C10.2973 243.012 9.72134 243.184 9.01734 243.184H6.90534V236.908ZM9.07734 242.392C9.54934 242.392 9.88934 242.292 10.0973 242.092C10.3133 241.884 10.4213 241.564 10.4213 241.132V241.096C10.4213 240.696 10.3173 240.396 10.1093 240.196C9.90134 239.988 9.55734 239.884 9.07734 239.884H7.90134V242.392H9.07734ZM18.1154 243.292C17.2194 243.292 16.4834 243.004 15.9074 242.428C15.3314 241.844 15.0434 241.072 15.0434 240.112V240.016C15.0434 239.072 15.3354 238.3 15.9194 237.7C16.5114 237.1 17.2354 236.8 18.0914 236.8C18.8114 236.8 19.4234 236.98 19.9274 237.34C20.4314 237.692 20.7274 238.244 20.8154 238.996H19.8314C19.6874 238.084 19.1074 237.628 18.0914 237.628C17.5074 237.628 17.0234 237.848 16.6394 238.288C16.2634 238.72 16.0754 239.296 16.0754 240.016V240.112C16.0754 240.864 16.2594 241.444 16.6274 241.852C17.0034 242.26 17.5034 242.464 18.1274 242.464C18.5994 242.464 19.0034 242.332 19.3394 242.068C19.6834 241.796 19.8794 241.416 19.9274 240.928H20.8514C20.7874 241.616 20.4994 242.184 19.9874 242.632C19.4834 243.072 18.8594 243.292 18.1154 243.292ZM25.7709 236.908H26.7669V237.964C26.9509 237.644 27.2389 237.372 27.6309 237.148C28.0229 236.916 28.4429 236.8 28.8909 236.8C29.7309 236.8 30.4149 237.084 30.9429 237.652C31.4789 238.22 31.7469 238.988 31.7469 239.956V240.052C31.7469 241.02 31.4829 241.804 30.9549 242.404C30.4349 242.996 29.7469 243.292 28.8909 243.292C27.9309 243.292 27.2229 242.912 26.7669 242.152V245.368H25.7709V236.908ZM28.7949 242.464C29.4189 242.464 29.8949 242.264 30.2229 241.864C30.5509 241.456 30.7149 240.868 30.7149 240.1V240.004C30.7149 239.244 30.5309 238.66 30.1629 238.252C29.8029 237.836 29.3429 237.628 28.7829 237.628C28.1749 237.628 27.6789 237.832 27.2949 238.24C26.9189 238.64 26.7309 239.228 26.7309 240.004V240.1C26.7309 240.876 26.9149 241.464 27.2829 241.864C27.6589 242.264 28.1629 242.464 28.7949 242.464ZM35.0492 242.536L32.5892 236.908H33.6572L35.5772 241.408L37.3172 236.908H38.3372L34.8692 245.368H33.8612L35.0492 242.536ZM42.3968 243.292C41.4528 243.292 40.7048 242.988 40.1528 242.38C39.6008 241.772 39.3248 240.848 39.3248 239.608V239.224C39.3248 238.632 39.3488 238.108 39.3968 237.652C39.4448 237.188 39.5448 236.724 39.6968 236.26C39.8488 235.788 40.0488 235.396 40.2968 235.084C40.5448 234.772 40.8808 234.512 41.3048 234.304C41.7368 234.096 42.2448 233.976 42.8288 233.944L43.0688 233.932C43.9488 233.884 44.5448 233.796 44.8568 233.668L44.9888 234.508C44.5808 234.684 43.9448 234.792 43.0808 234.832L42.9008 234.844C41.9328 234.892 41.2408 235.208 40.8248 235.792C40.4168 236.368 40.1768 237.264 40.1048 238.48H40.1528C40.3688 238.04 40.6888 237.692 41.1128 237.436C41.5448 237.172 42.0448 237.04 42.6128 237.04C43.4848 237.04 44.1808 237.324 44.7008 237.892C45.2288 238.452 45.4928 239.18 45.4928 240.076V240.124C45.4928 241.092 45.2008 241.864 44.6168 242.44C44.0408 243.008 43.3008 243.292 42.3968 243.292ZM40.8968 241.852C41.2648 242.26 41.7688 242.464 42.4088 242.464C43.0488 242.464 43.5488 242.264 43.9088 241.864C44.2768 241.456 44.4608 240.88 44.4608 240.136V240.112C44.4608 239.416 44.2928 238.868 43.9568 238.468C43.6288 238.068 43.1488 237.868 42.5168 237.868C41.8528 237.868 41.3248 238.076 40.9328 238.492C40.5488 238.908 40.3568 239.476 40.3568 240.196V240.22C40.3568 240.9 40.5368 241.444 40.8968 241.852Z" fill="white"/>
<path d="M18.7668 228.213C17.5828 228.213 16.6761 227.925 16.0468 227.349C15.4175 226.763 15.0548 225.973 14.9588 224.981H16.2868C16.4148 225.675 16.6548 226.203 17.0068 226.565C17.3588 226.917 17.9401 227.093 18.7508 227.093C19.5295 227.093 20.1428 226.848 20.5908 226.357C21.0388 225.867 21.2628 225.189 21.2628 224.325C21.2628 223.515 21.0441 222.869 20.6068 222.389C20.1801 221.899 19.5988 221.653 18.8628 221.653C18.2228 221.653 17.6948 221.744 17.2788 221.925C16.8628 222.107 16.4895 222.384 16.1588 222.757H15.6468V216.629H22.0788V217.829H16.7988V221.317C17.3641 220.795 18.1428 220.533 19.1348 220.533C20.1801 220.533 21.0335 220.88 21.6948 221.573C22.3561 222.256 22.6868 223.173 22.6868 224.325C22.6868 225.509 22.3135 226.453 21.5668 227.157C20.8201 227.861 19.8868 228.213 18.7668 228.213ZM28.3487 228.213C27.1647 228.213 26.258 227.925 25.6287 227.349C24.9993 226.763 24.6367 225.973 24.5407 224.981H25.8687C25.9967 225.675 26.2367 226.203 26.5887 226.565C26.9407 226.917 27.522 227.093 28.3327 227.093C29.1113 227.093 29.7247 226.848 30.1727 226.357C30.6207 225.867 30.8447 225.189 30.8447 224.325C30.8447 223.515 30.626 222.869 30.1887 222.389C29.762 221.899 29.1807 221.653 28.4447 221.653C27.8047 221.653 27.2767 221.744 26.8607 221.925C26.4447 222.107 26.0713 222.384 25.7407 222.757H25.2287V216.629H31.6607V217.829H26.3807V221.317C26.946 220.795 27.7247 220.533 28.7167 220.533C29.762 220.533 30.6153 220.88 31.2767 221.573C31.938 222.256 32.2687 223.173 32.2687 224.325C32.2687 225.509 31.8953 226.453 31.1487 227.157C30.402 227.861 29.4687 228.213 28.3487 228.213ZM39.0167 227.061C41.0327 227.061 42.0407 225.584 42.0407 222.629V221.989C42.0407 220.656 41.7687 219.595 41.2247 218.805C40.6807 218.005 39.934 217.605 38.9847 217.605C38.014 217.605 37.2567 217.989 36.7127 218.757C36.1687 219.525 35.8967 220.613 35.8967 222.021V222.661C35.8967 224.08 36.174 225.168 36.7287 225.925C37.2833 226.683 38.046 227.061 39.0167 227.061ZM39.0167 228.213C37.6513 228.213 36.5527 227.707 35.7207 226.693C34.8887 225.68 34.4727 224.341 34.4727 222.677V222.037C34.4727 220.341 34.8727 218.992 35.6727 217.989C36.4833 216.987 37.5873 216.485 38.9847 216.485C40.3713 216.485 41.4593 216.992 42.2487 218.005C43.0487 219.019 43.4487 220.352 43.4487 222.005V222.645C43.4487 224.331 43.054 225.68 42.2647 226.693C41.486 227.707 40.4033 228.213 39.0167 228.213Z" fill="white"/>
<circle cx="188" cy="208" r="4" fill="#F1D5C0"/>
<circle cx="108" cy="275" r="4" fill="#F1D5C0"/>
<circle cx="270" cy="165" r="4" fill="#F1D5C0"/>
<circle cx="358" cy="126" r="4" fill="#F1D5C0"/>
<circle cx="439" cy="81" r="4" fill="#F1D5C0"/>
<circle cx="523" cy="26" r="4" fill="#F1D5C0"/>
<path opacity="0.6" d="M5.412 91.564H3.384V97H2.388V91.564H0.36V90.724H5.412V91.564ZM12.3053 90.724H13.3013V97H12.3053V90.724ZM6.90534 90.724H7.90134V92.92H9.01734C9.72934 92.92 10.3053 93.08 10.7453 93.4C11.1933 93.72 11.4173 94.224 11.4173 94.912V94.948C11.4173 95.628 11.1933 96.14 10.7453 96.484C10.2973 96.828 9.72134 97 9.01734 97H6.90534V90.724ZM9.07734 96.208C9.54934 96.208 9.88934 96.108 10.0973 95.908C10.3133 95.7 10.4213 95.38 10.4213 94.948V94.912C10.4213 94.512 10.3173 94.212 10.1093 94.012C9.90134 93.804 9.55734 93.7 9.07734 93.7H7.90134V96.208H9.07734ZM18.1154 97.108C17.2194 97.108 16.4834 96.82 15.9074 96.244C15.3314 95.66 15.0434 94.888 15.0434 93.928V93.832C15.0434 92.888 15.3354 92.116 15.9194 91.516C16.5114 90.916 17.2354 90.616 18.0914 90.616C18.8114 90.616 19.4234 90.796 19.9274 91.156C20.4314 91.508 20.7274 92.06 20.8154 92.812H19.8314C19.6874 91.9 19.1074 91.444 18.0914 91.444C17.5074 91.444 17.0234 91.664 16.6394 92.104C16.2634 92.536 16.0754 93.112 16.0754 93.832V93.928C16.0754 94.68 16.2594 95.26 16.6274 95.668C17.0034 96.076 17.5034 96.28 18.1274 96.28C18.5994 96.28 19.0034 96.148 19.3394 95.884C19.6834 95.612 19.8794 95.232 19.9274 94.744H20.8514C20.7874 95.432 20.4994 96 19.9874 96.448C19.4834 96.888 18.8594 97.108 18.1154 97.108ZM25.7709 90.724H26.7669V91.78C26.9509 91.46 27.2389 91.188 27.6309 90.964C28.0229 90.732 28.4429 90.616 28.8909 90.616C29.7309 90.616 30.4149 90.9 30.9429 91.468C31.4789 92.036 31.7469 92.804 31.7469 93.772V93.868C31.7469 94.836 31.4829 95.62 30.9549 96.22C30.4349 96.812 29.7469 97.108 28.8909 97.108C27.9309 97.108 27.2229 96.728 26.7669 95.968V99.184H25.7709V90.724ZM28.7949 96.28C29.4189 96.28 29.8949 96.08 30.2229 95.68C30.5509 95.272 30.7149 94.684 30.7149 93.916V93.82C30.7149 93.06 30.5309 92.476 30.1629 92.068C29.8029 91.652 29.3429 91.444 28.7829 91.444C28.1749 91.444 27.6789 91.648 27.2949 92.056C26.9189 92.456 26.7309 93.044 26.7309 93.82V93.916C26.7309 94.692 26.9149 95.28 27.2829 95.68C27.6589 96.08 28.1629 96.28 28.7949 96.28ZM35.0492 96.352L32.5892 90.724H33.6572L35.5772 95.224L37.3172 90.724H38.3372L34.8692 99.184H33.8612L35.0492 96.352ZM42.3968 97.108C41.4528 97.108 40.7048 96.804 40.1528 96.196C39.6008 95.588 39.3248 94.664 39.3248 93.424V93.04C39.3248 92.448 39.3488 91.924 39.3968 91.468C39.4448 91.004 39.5448 90.54 39.6968 90.076C39.8488 89.604 40.0488 89.212 40.2968 88.9C40.5448 88.588 40.8808 88.328 41.3048 88.12C41.7368 87.912 42.2448 87.792 42.8288 87.76L43.0688 87.748C43.9488 87.7 44.5448 87.612 44.8568 87.484L44.9888 88.324C44.5808 88.5 43.9448 88.608 43.0808 88.648L42.9008 88.66C41.9328 88.708 41.2408 89.024 40.8248 89.608C40.4168 90.184 40.1768 91.08 40.1048 92.296H40.1528C40.3688 91.856 40.6888 91.508 41.1128 91.252C41.5448 90.988 42.0448 90.856 42.6128 90.856C43.4848 90.856 44.1808 91.14 44.7008 91.708C45.2288 92.268 45.4928 92.996 45.4928 93.892V93.94C45.4928 94.908 45.2008 95.68 44.6168 96.256C44.0408 96.824 43.3008 97.108 42.3968 97.108ZM40.8968 95.668C41.2648 96.076 41.7688 96.28 42.4088 96.28C43.0488 96.28 43.5488 96.08 43.9088 95.68C44.2768 95.272 44.4608 94.696 44.4608 93.952V93.928C44.4608 93.232 44.2928 92.684 43.9568 92.284C43.6288 91.884 43.1488 91.684 42.5168 91.684C41.8528 91.684 41.3248 91.892 40.9328 92.308C40.5488 92.724 40.3568 93.292 40.3568 94.012V94.036C40.3568 94.716 40.5368 95.26 40.8968 95.668Z" fill="white"/>
<path d="M22.416 73.68H16.608V72.56H24.144V72.752L19.856 84H18.432L22.416 73.68ZM30.1194 82.992C32.1354 82.992 33.1434 81.5147 33.1434 78.56V77.92C33.1434 76.5867 32.8714 75.5253 32.3274 74.736C31.7834 73.936 31.0367 73.536 30.0874 73.536C29.1167 73.536 28.3594 73.92 27.8154 74.688C27.2714 75.456 26.9994 76.544 26.9994 77.952V78.592C26.9994 80.0107 27.2767 81.0987 27.8314 81.856C28.386 82.6133 29.1487 82.992 30.1194 82.992ZM30.1194 84.144C28.754 84.144 27.6554 83.6373 26.8234 82.624C25.9914 81.6107 25.5754 80.272 25.5754 78.608V77.968C25.5754 76.272 25.9754 74.9227 26.7754 73.92C27.586 72.9173 28.69 72.416 30.0874 72.416C31.474 72.416 32.562 72.9227 33.3514 73.936C34.1514 74.9493 34.5514 76.2827 34.5514 77.936V78.576C34.5514 80.2613 34.1567 81.6107 33.3674 82.624C32.5887 83.6373 31.506 84.144 30.1194 84.144ZM41.3731 82.992C43.3891 82.992 44.3971 81.5147 44.3971 78.56V77.92C44.3971 76.5867 44.1251 75.5253 43.5811 74.736C43.0371 73.936 42.2905 73.536 41.3411 73.536C40.3705 73.536 39.6131 73.92 39.0691 74.688C38.5251 75.456 38.2531 76.544 38.2531 77.952V78.592C38.2531 80.0107 38.5305 81.0987 39.0851 81.856C39.6398 82.6133 40.4025 82.992 41.3731 82.992ZM41.3731 84.144C40.0078 84.144 38.9091 83.6373 38.0771 82.624C37.2451 81.6107 36.8291 80.272 36.8291 78.608V77.968C36.8291 76.272 37.2291 74.9227 38.0291 73.92C38.8398 72.9173 39.9438 72.416 41.3411 72.416C42.7278 72.416 43.8158 72.9227 44.6051 73.936C45.4051 74.9493 45.8051 76.2827 45.8051 77.936V78.576C45.8051 80.2613 45.4105 81.6107 44.6211 82.624C43.8425 83.6373 42.7598 84.144 41.3731 84.144Z" fill="white"/>
<path opacity="0.6" d="M5.412 45.564H3.384V51H2.388V45.564H0.36V44.724H5.412V45.564ZM12.3053 44.724H13.3013V51H12.3053V44.724ZM6.90534 44.724H7.90134V46.92H9.01734C9.72934 46.92 10.3053 47.08 10.7453 47.4C11.1933 47.72 11.4173 48.224 11.4173 48.912V48.948C11.4173 49.628 11.1933 50.14 10.7453 50.484C10.2973 50.828 9.72134 51 9.01734 51H6.90534V44.724ZM9.07734 50.208C9.54934 50.208 9.88934 50.108 10.0973 49.908C10.3133 49.7 10.4213 49.38 10.4213 48.948V48.912C10.4213 48.512 10.3173 48.212 10.1093 48.012C9.90134 47.804 9.55734 47.7 9.07734 47.7H7.90134V50.208H9.07734ZM18.1154 51.108C17.2194 51.108 16.4834 50.82 15.9074 50.244C15.3314 49.66 15.0434 48.888 15.0434 47.928V47.832C15.0434 46.888 15.3354 46.116 15.9194 45.516C16.5114 44.916 17.2354 44.616 18.0914 44.616C18.8114 44.616 19.4234 44.796 19.9274 45.156C20.4314 45.508 20.7274 46.06 20.8154 46.812H19.8314C19.6874 45.9 19.1074 45.444 18.0914 45.444C17.5074 45.444 17.0234 45.664 16.6394 46.104C16.2634 46.536 16.0754 47.112 16.0754 47.832V47.928C16.0754 48.68 16.2594 49.26 16.6274 49.668C17.0034 50.076 17.5034 50.28 18.1274 50.28C18.5994 50.28 19.0034 50.148 19.3394 49.884C19.6834 49.612 19.8794 49.232 19.9274 48.744H20.8514C20.7874 49.432 20.4994 50 19.9874 50.448C19.4834 50.888 18.8594 51.108 18.1154 51.108ZM25.7709 44.724H26.7669V45.78C26.9509 45.46 27.2389 45.188 27.6309 44.964C28.0229 44.732 28.4429 44.616 28.8909 44.616C29.7309 44.616 30.4149 44.9 30.9429 45.468C31.4789 46.036 31.7469 46.804 31.7469 47.772V47.868C31.7469 48.836 31.4829 49.62 30.9549 50.22C30.4349 50.812 29.7469 51.108 28.8909 51.108C27.9309 51.108 27.2229 50.728 26.7669 49.968V53.184H25.7709V44.724ZM28.7949 50.28C29.4189 50.28 29.8949 50.08 30.2229 49.68C30.5509 49.272 30.7149 48.684 30.7149 47.916V47.82C30.7149 47.06 30.5309 46.476 30.1629 46.068C29.8029 45.652 29.3429 45.444 28.7829 45.444C28.1749 45.444 27.6789 45.648 27.2949 46.056C26.9189 46.456 26.7309 47.044 26.7309 47.82V47.916C26.7309 48.692 26.9149 49.28 27.2829 49.68C27.6589 50.08 28.1629 50.28 28.7949 50.28ZM35.0492 50.352L32.5892 44.724H33.6572L35.5772 49.224L37.3172 44.724H38.3372L34.8692 53.184H33.8612L35.0492 50.352ZM42.3968 51.108C41.4528 51.108 40.7048 50.804 40.1528 50.196C39.6008 49.588 39.3248 48.664 39.3248 47.424V47.04C39.3248 46.448 39.3488 45.924 39.3968 45.468C39.4448 45.004 39.5448 44.54 39.6968 44.076C39.8488 43.604 40.0488 43.212 40.2968 42.9C40.5448 42.588 40.8808 42.328 41.3048 42.12C41.7368 41.912 42.2448 41.792 42.8288 41.76L43.0688 41.748C43.9488 41.7 44.5448 41.612 44.8568 41.484L44.9888 42.324C44.5808 42.5 43.9448 42.608 43.0808 42.648L42.9008 42.66C41.9328 42.708 41.2408 43.024 40.8248 43.608C40.4168 44.184 40.1768 45.08 40.1048 46.296H40.1528C40.3688 45.856 40.6888 45.508 41.1128 45.252C41.5448 44.988 42.0448 44.856 42.6128 44.856C43.4848 44.856 44.1808 45.14 44.7008 45.708C45.2288 46.268 45.4928 46.996 45.4928 47.892V47.94C45.4928 48.908 45.2008 49.68 44.6168 50.256C44.0408 50.824 43.3008 51.108 42.3968 51.108ZM40.8968 49.668C41.2648 50.076 41.7688 50.28 42.4088 50.28C43.0488 50.28 43.5488 50.08 43.9088 49.68C44.2768 49.272 44.4608 48.696 44.4608 47.952V47.928C44.4608 47.232 44.2928 46.684 43.9568 46.284C43.6288 45.884 43.1488 45.684 42.5168 45.684C41.8528 45.684 41.3248 45.892 40.9328 46.308C40.5488 46.724 40.3568 47.292 40.3568 48.012V48.036C40.3568 48.716 40.5368 49.26 40.8968 49.668Z" fill="white"/>
<path d="M23.416 27.68H17.608V26.56H25.144V26.752L20.856 38H19.432L23.416 27.68ZM30.3457 38.144C29.1617 38.144 28.2551 37.856 27.6257 37.28C26.9964 36.6933 26.6337 35.904 26.5377 34.912H27.8657C27.9937 35.6053 28.2337 36.1333 28.5857 36.496C28.9377 36.848 29.5191 37.024 30.3298 37.024C31.1084 37.024 31.7218 36.7787 32.1698 36.288C32.6178 35.7973 32.8418 35.12 32.8418 34.256C32.8418 33.4453 32.6231 32.8 32.1858 32.32C31.7591 31.8293 31.1778 31.584 30.4418 31.584C29.8018 31.584 29.2737 31.6747 28.8577 31.856C28.4417 32.0373 28.0684 32.3147 27.7377 32.688H27.2257V26.56H33.6578V27.76H28.3777V31.248C28.9431 30.7253 29.7217 30.464 30.7137 30.464C31.7591 30.464 32.6124 30.8107 33.2738 31.504C33.9351 32.1867 34.2657 33.104 34.2657 34.256C34.2657 35.44 33.8924 36.384 33.1458 37.088C32.3991 37.792 31.4658 38.144 30.3457 38.144ZM41.0138 36.992C43.0298 36.992 44.0378 35.5147 44.0378 32.56V31.92C44.0378 30.5867 43.7658 29.5253 43.2218 28.736C42.6777 27.936 41.9311 27.536 40.9818 27.536C40.0111 27.536 39.2537 27.92 38.7097 28.688C38.1657 29.456 37.8937 30.544 37.8937 31.952V32.592C37.8937 34.0107 38.1711 35.0987 38.7257 35.856C39.2804 36.6133 40.0431 36.992 41.0138 36.992ZM41.0138 38.144C39.6484 38.144 38.5497 37.6373 37.7177 36.624C36.8857 35.6107 36.4697 34.272 36.4697 32.608V31.968C36.4697 30.272 36.8697 28.9227 37.6697 27.92C38.4804 26.9173 39.5844 26.416 40.9818 26.416C42.3684 26.416 43.4564 26.9227 44.2458 27.936C45.0458 28.9493 45.4458 30.2827 45.4458 31.936V32.576C45.4458 34.2613 45.0511 35.6107 44.2618 36.624C43.4831 37.6373 42.4004 38.144 41.0138 38.144Z" fill="white"/>
<rect opacity="0.3" x="107" y="274" width="1" height="97" fill="#F1D5C0"/>
<rect opacity="0.3" x="188" y="207" width="1" height="164" fill="#F1D5C0"/>
<rect opacity="0.3" x="269" y="165" width="1" height="206" fill="#F1D5C0"/>
<rect opacity="0.3" x="357" y="126" width="1" height="245" fill="#F1D5C0"/>
<rect opacity="0.3" x="438" y="83" width="1" height="288" fill="#F1D5C0"/>
<rect opacity="0.3" x="522" y="26" width="1" height="345" fill="#F1D5C0"/>
<path d="M69 352L106.752 274.867L187.647 208.046L269.257 164.267L356.952 126.413L438.562 81.9752L522.798 26.2718L571 1" stroke="#F1D5C0"/>
<defs>
<radialGradient id="paint0_radial_718:1212" cx="0" cy="0" r="1" gradientUnits="userSpaceOnUse" gradientTransform="translate(315.304 164.925) rotate(70.1978) scale(210.888 329.091)">
<stop stop-color="#F1D5C0"/>
<stop offset="1" stop-color="#F1D5C0" stop-opacity="0"/>
</radialGradient>
</defs>
</svg>
