<svg width="435" height="331" viewBox="0 0 435 331" fill="none" xmlns="http://www.w3.org/2000/svg">
<path opacity="0.6" d="M4.059 5.923H2.538V10H1.791V5.923H0.27V5.293H4.059V5.923ZM9.22901 5.293H9.97601V10H9.22901V5.293ZM5.17901 5.293H5.92601V6.94H6.76301C7.29701 6.94 7.72901 7.06 8.05901 7.3C8.39501 7.54 8.56301 7.918 8.56301 8.434V8.461C8.56301 8.971 8.39501 9.355 8.05901 9.613C7.72301 9.871 7.29101 10 6.76301 10H5.17901V5.293ZM6.80801 9.406C7.16201 9.406 7.41701 9.331 7.57301 9.181C7.73501 9.025 7.81601 8.785 7.81601 8.461V8.434C7.81601 8.134 7.73801 7.909 7.58201 7.759C7.42601 7.603 7.16801 7.525 6.80801 7.525H5.92601V9.406H6.80801ZM13.5866 10.081C12.9146 10.081 12.3626 9.865 11.9306 9.433C11.4986 8.995 11.2826 8.416 11.2826 7.696V7.624C11.2826 6.916 11.5016 6.337 11.9396 5.887C12.3836 5.437 12.9266 5.212 13.5686 5.212C14.1086 5.212 14.5676 5.347 14.9456 5.617C15.3236 5.881 15.5456 6.295 15.6116 6.859H14.8736C14.7656 6.175 14.3306 5.833 13.5686 5.833C13.1306 5.833 12.7676 5.998 12.4796 6.328C12.1976 6.652 12.0566 7.084 12.0566 7.624V7.696C12.0566 8.26 12.1946 8.695 12.4706 9.001C12.7526 9.307 13.1276 9.46 13.5956 9.46C13.9496 9.46 14.2526 9.361 14.5046 9.163C14.7626 8.959 14.9096 8.674 14.9456 8.308H15.6386C15.5906 8.824 15.3746 9.25 14.9906 9.586C14.6126 9.916 14.1446 10.081 13.5866 10.081ZM19.3282 5.293H20.0752V6.085C20.2132 5.845 20.4292 5.641 20.7232 5.473C21.0172 5.299 21.3322 5.212 21.6682 5.212C22.2982 5.212 22.8112 5.425 23.2072 5.851C23.6092 6.277 23.8102 6.853 23.8102 7.579V7.651C23.8102 8.377 23.6122 8.965 23.2162 9.415C22.8262 9.859 22.3102 10.081 21.6682 10.081C20.9482 10.081 20.4172 9.796 20.0752 9.226V11.638H19.3282V5.293ZM21.5962 9.46C22.0642 9.46 22.4212 9.31 22.6672 9.01C22.9132 8.704 23.0362 8.263 23.0362 7.687V7.615C23.0362 7.045 22.8982 6.607 22.6222 6.301C22.3522 5.989 22.0072 5.833 21.5872 5.833C21.1312 5.833 20.7592 5.986 20.4712 6.292C20.1892 6.592 20.0482 7.033 20.0482 7.615V7.687C20.0482 8.269 20.1862 8.71 20.4622 9.01C20.7442 9.31 21.1222 9.46 21.5962 9.46ZM26.2869 9.514L24.4419 5.293H25.2429L26.6829 8.668L27.9879 5.293H28.7529L26.1519 11.638H25.3959L26.2869 9.514ZM31.7976 10.081C31.0896 10.081 30.5286 9.853 30.1146 9.397C29.7006 8.941 29.4936 8.248 29.4936 7.318V7.03C29.4936 6.586 29.5116 6.193 29.5476 5.851C29.5836 5.503 29.6586 5.155 29.7726 4.807C29.8866 4.453 30.0366 4.159 30.2226 3.925C30.4086 3.691 30.6606 3.496 30.9786 3.34C31.3026 3.184 31.6836 3.094 32.1216 3.07L32.3016 3.061C32.9616 3.025 33.4086 2.959 33.6426 2.863L33.7416 3.493C33.4356 3.625 32.9586 3.706 32.3106 3.736L32.1756 3.745C31.4496 3.781 30.9306 4.018 30.6186 4.456C30.3126 4.888 30.1326 5.56 30.0786 6.472H30.1146C30.2766 6.142 30.5166 5.881 30.8346 5.689C31.1586 5.491 31.5336 5.392 31.9596 5.392C32.6136 5.392 33.1356 5.605 33.5256 6.031C33.9216 6.451 34.1196 6.997 34.1196 7.669V7.705C34.1196 8.431 33.9006 9.01 33.4626 9.442C33.0306 9.868 32.4756 10.081 31.7976 10.081ZM30.6726 9.001C30.9486 9.307 31.3266 9.46 31.8066 9.46C32.2866 9.46 32.6616 9.31 32.9316 9.01C33.2076 8.704 33.3456 8.272 33.3456 7.714V7.696C33.3456 7.174 33.2196 6.763 32.9676 6.463C32.7216 6.163 32.3616 6.013 31.8876 6.013C31.3896 6.013 30.9936 6.169 30.6996 6.481C30.4116 6.793 30.2676 7.219 30.2676 7.759V7.777C30.2676 8.287 30.4026 8.695 30.6726 9.001Z" fill="white"/>
<path d="M3.23 175.09C1.51667 175.09 0.66 174.007 0.66 171.84V171.67C0.66 170.417 0.913333 169.453 1.42 168.78C1.93333 168.1 2.61333 167.76 3.46 167.76C4.03333 167.76 4.5 167.907 4.86 168.2C5.22667 168.493 5.45667 168.923 5.55 169.49H4.72C4.64 169.143 4.49667 168.887 4.29 168.72C4.08333 168.553 3.78667 168.47 3.4 168.47C2.84667 168.47 2.4 168.717 2.06 169.21C1.72 169.703 1.54 170.41 1.52 171.33C1.90667 170.683 2.52 170.36 3.36 170.36C4.06 170.36 4.62333 170.583 5.05 171.03C5.48333 171.47 5.7 172.027 5.7 172.7C5.7 173.42 5.47667 174 5.03 174.44C4.58333 174.873 3.98333 175.09 3.23 175.09ZM3.23 174.41C3.69667 174.41 4.07667 174.257 4.37 173.95C4.66333 173.643 4.81 173.24 4.81 172.74C4.81 172.22 4.66667 171.807 4.38 171.5C4.09333 171.193 3.70667 171.04 3.22 171.04C2.74 171.04 2.34667 171.187 2.04 171.48C1.73333 171.773 1.58 172.153 1.58 172.62C1.58 173.187 1.73 173.627 2.03 173.94C2.33667 174.253 2.73667 174.41 3.23 174.41ZM9.85977 174.37C11.1198 174.37 11.7498 173.447 11.7498 171.6V171.2C11.7498 170.367 11.5798 169.703 11.2398 169.21C10.8998 168.71 10.4331 168.46 9.83977 168.46C9.2331 168.46 8.75977 168.7 8.41977 169.18C8.07977 169.66 7.90977 170.34 7.90977 171.22V171.62C7.90977 172.507 8.0831 173.187 8.42977 173.66C8.77643 174.133 9.2531 174.37 9.85977 174.37ZM9.85977 175.09C9.00643 175.09 8.31977 174.773 7.79977 174.14C7.27977 173.507 7.01977 172.67 7.01977 171.63V171.23C7.01977 170.17 7.26977 169.327 7.76977 168.7C8.27643 168.073 8.96643 167.76 9.83977 167.76C10.7064 167.76 11.3864 168.077 11.8798 168.71C12.3798 169.343 12.6298 170.177 12.6298 171.21V171.61C12.6298 172.663 12.3831 173.507 11.8898 174.14C11.4031 174.773 10.7264 175.09 9.85977 175.09ZM16.8934 174.37C18.1534 174.37 18.7834 173.447 18.7834 171.6V171.2C18.7834 170.367 18.6134 169.703 18.2734 169.21C17.9334 168.71 17.4667 168.46 16.8734 168.46C16.2667 168.46 15.7934 168.7 15.4534 169.18C15.1134 169.66 14.9434 170.34 14.9434 171.22V171.62C14.9434 172.507 15.1167 173.187 15.4634 173.66C15.81 174.133 16.2867 174.37 16.8934 174.37ZM16.8934 175.09C16.04 175.09 15.3534 174.773 14.8334 174.14C14.3134 173.507 14.0534 172.67 14.0534 171.63V171.23C14.0534 170.17 14.3034 169.327 14.8034 168.7C15.31 168.073 16 167.76 16.8734 167.76C17.74 167.76 18.42 168.077 18.9134 168.71C19.4134 169.343 19.6634 170.177 19.6634 171.21V171.61C19.6634 172.663 19.4167 173.507 18.9234 174.14C18.4367 174.773 17.76 175.09 16.8934 175.09Z" fill="white"/>
<path d="M3.23 139.09C1.51667 139.09 0.66 138.007 0.66 135.84V135.67C0.66 134.417 0.913333 133.453 1.42 132.78C1.93333 132.1 2.61333 131.76 3.46 131.76C4.03333 131.76 4.5 131.907 4.86 132.2C5.22667 132.493 5.45667 132.923 5.55 133.49H4.72C4.64 133.143 4.49667 132.887 4.29 132.72C4.08333 132.553 3.78667 132.47 3.4 132.47C2.84667 132.47 2.4 132.717 2.06 133.21C1.72 133.703 1.54 134.41 1.52 135.33C1.90667 134.683 2.52 134.36 3.36 134.36C4.06 134.36 4.62333 134.583 5.05 135.03C5.48333 135.47 5.7 136.027 5.7 136.7C5.7 137.42 5.47667 138 5.03 138.44C4.58333 138.873 3.98333 139.09 3.23 139.09ZM3.23 138.41C3.69667 138.41 4.07667 138.257 4.37 137.95C4.66333 137.643 4.81 137.24 4.81 136.74C4.81 136.22 4.66667 135.807 4.38 135.5C4.09333 135.193 3.70667 135.04 3.22 135.04C2.74 135.04 2.34667 135.187 2.04 135.48C1.73333 135.773 1.58 136.153 1.58 136.62C1.58 137.187 1.73 137.627 2.03 137.94C2.33667 138.253 2.73667 138.41 3.23 138.41ZM9.27859 139.09C8.53859 139.09 7.97193 138.91 7.57859 138.55C7.18526 138.183 6.95859 137.69 6.89859 137.07H7.72859C7.80859 137.503 7.95859 137.833 8.17859 138.06C8.39859 138.28 8.76193 138.39 9.26859 138.39C9.75526 138.39 10.1386 138.237 10.4186 137.93C10.6986 137.623 10.8386 137.2 10.8386 136.66C10.8386 136.153 10.7019 135.75 10.4286 135.45C10.1619 135.143 9.79859 134.99 9.33859 134.99C8.93859 134.99 8.60859 135.047 8.34859 135.16C8.08859 135.273 7.85526 135.447 7.64859 135.68H7.32859V131.85H11.3486V132.6H8.04859V134.78C8.40193 134.453 8.88859 134.29 9.50859 134.29C10.1619 134.29 10.6953 134.507 11.1086 134.94C11.5219 135.367 11.7286 135.94 11.7286 136.66C11.7286 137.4 11.4953 137.99 11.0286 138.43C10.5619 138.87 9.97859 139.09 9.27859 139.09ZM15.9461 138.37C17.2061 138.37 17.8361 137.447 17.8361 135.6V135.2C17.8361 134.367 17.6661 133.703 17.3261 133.21C16.9861 132.71 16.5194 132.46 15.9261 132.46C15.3194 132.46 14.8461 132.7 14.5061 133.18C14.1661 133.66 13.9961 134.34 13.9961 135.22V135.62C13.9961 136.507 14.1694 137.187 14.5161 137.66C14.8628 138.133 15.3394 138.37 15.9461 138.37ZM15.9461 139.09C15.0928 139.09 14.4061 138.773 13.8861 138.14C13.3661 137.507 13.1061 136.67 13.1061 135.63V135.23C13.1061 134.17 13.3561 133.327 13.8561 132.7C14.3628 132.073 15.0528 131.76 15.9261 131.76C16.7928 131.76 17.4728 132.077 17.9661 132.71C18.4661 133.343 18.7161 134.177 18.7161 135.21V135.61C18.7161 136.663 18.4694 137.507 17.9761 138.14C17.4894 138.773 16.8128 139.09 15.9461 139.09Z" fill="white"/>
<path d="M4.03 288.5H0.45V288.22L3.72 282.85H4.88V287.79H5.87V288.5H4.88V290H4.03V288.5ZM4.03 287.79V283.51L1.55 287.79H4.03ZM9.25906 290.09C8.51906 290.09 7.9524 289.91 7.55906 289.55C7.16573 289.183 6.93906 288.69 6.87906 288.07H7.70906C7.78906 288.503 7.93906 288.833 8.15906 289.06C8.37906 289.28 8.7424 289.39 9.24906 289.39C9.73573 289.39 10.1191 289.237 10.3991 288.93C10.6791 288.623 10.8191 288.2 10.8191 287.66C10.8191 287.153 10.6824 286.75 10.4091 286.45C10.1424 286.143 9.77906 285.99 9.31906 285.99C8.91906 285.99 8.58906 286.047 8.32906 286.16C8.06906 286.273 7.83573 286.447 7.62906 286.68H7.30906V282.85H11.3291V283.6H8.02906V285.78C8.3824 285.453 8.86906 285.29 9.48906 285.29C10.1424 285.29 10.6757 285.507 11.0891 285.94C11.5024 286.367 11.7091 286.94 11.7091 287.66C11.7091 288.4 11.4757 288.99 11.0091 289.43C10.5424 289.87 9.95906 290.09 9.25906 290.09ZM15.9266 289.37C17.1866 289.37 17.8166 288.447 17.8166 286.6V286.2C17.8166 285.367 17.6466 284.703 17.3066 284.21C16.9666 283.71 16.4999 283.46 15.9066 283.46C15.2999 283.46 14.8266 283.7 14.4866 284.18C14.1466 284.66 13.9766 285.34 13.9766 286.22V286.62C13.9766 287.507 14.1499 288.187 14.4966 288.66C14.8432 289.133 15.3199 289.37 15.9266 289.37ZM15.9266 290.09C15.0732 290.09 14.3866 289.773 13.8666 289.14C13.3466 288.507 13.0866 287.67 13.0866 286.63V286.23C13.0866 285.17 13.3366 284.327 13.8366 283.7C14.3432 283.073 15.0332 282.76 15.9066 282.76C16.7732 282.76 17.4532 283.077 17.9466 283.71C18.4466 284.343 18.6966 285.177 18.6966 286.21V286.61C18.6966 287.663 18.4499 288.507 17.9566 289.14C17.4699 289.773 16.7932 290.09 15.9266 290.09Z" fill="white"/>
<path opacity="0.6" d="M205.305 309.903H202.992V312H202.245V307.293H202.992V309.273H205.305V307.293H206.052V312H205.305V309.903ZM209.669 311.46C210.137 311.46 210.509 311.298 210.785 310.974C211.067 310.65 211.208 310.221 211.208 309.687V309.624C211.208 309.078 211.067 308.643 210.785 308.319C210.509 307.995 210.137 307.833 209.669 307.833C209.195 307.833 208.82 307.995 208.544 308.319C208.268 308.643 208.13 309.075 208.13 309.615V309.687C208.13 310.233 208.265 310.665 208.535 310.983C208.811 311.301 209.189 311.46 209.669 311.46ZM209.66 312.081C208.994 312.081 208.442 311.856 208.004 311.406C207.572 310.95 207.356 310.377 207.356 309.687V309.615C207.356 308.913 207.572 308.337 208.004 307.887C208.442 307.437 208.997 307.212 209.669 307.212C210.341 307.212 210.893 307.437 211.325 307.887C211.763 308.331 211.982 308.904 211.982 309.606V309.678C211.982 310.386 211.763 310.965 211.325 311.415C210.887 311.859 210.332 312.081 209.66 312.081ZM214.74 307.887C214.068 307.887 213.732 308.172 213.732 308.742V308.769C213.732 309.039 213.81 309.243 213.966 309.381C214.122 309.519 214.38 309.588 214.74 309.588H215.622V307.887H214.74ZM213.498 312H212.643L214.074 310.029C213.348 309.879 212.985 309.459 212.985 308.769V308.742C212.985 308.25 213.153 307.887 213.489 307.653C213.825 307.413 214.257 307.293 214.785 307.293H216.369V312H215.622V310.155H214.812L213.498 312ZM220 312.081C219.292 312.081 218.731 311.853 218.317 311.397C217.903 310.941 217.696 310.248 217.696 309.318V309.03C217.696 308.586 217.714 308.193 217.75 307.851C217.786 307.503 217.861 307.155 217.975 306.807C218.089 306.453 218.239 306.159 218.425 305.925C218.611 305.691 218.863 305.496 219.181 305.34C219.505 305.184 219.886 305.094 220.324 305.07L220.504 305.061C221.164 305.025 221.611 304.959 221.845 304.863L221.944 305.493C221.638 305.625 221.161 305.706 220.513 305.736L220.378 305.745C219.652 305.781 219.133 306.018 218.821 306.456C218.515 306.888 218.335 307.56 218.281 308.472H218.317C218.479 308.142 218.719 307.881 219.037 307.689C219.361 307.491 219.736 307.392 220.162 307.392C220.816 307.392 221.338 307.605 221.728 308.031C222.124 308.451 222.322 308.997 222.322 309.669V309.705C222.322 310.431 222.103 311.01 221.665 311.442C221.233 311.868 220.678 312.081 220 312.081ZM218.875 311.001C219.151 311.307 219.529 311.46 220.009 311.46C220.489 311.46 220.864 311.31 221.134 311.01C221.41 310.704 221.548 310.272 221.548 309.714V309.696C221.548 309.174 221.422 308.763 221.17 308.463C220.924 308.163 220.564 308.013 220.09 308.013C219.592 308.013 219.196 308.169 218.902 308.481C218.614 308.793 218.47 309.219 218.47 309.759V309.777C218.47 310.287 218.605 310.695 218.875 311.001ZM223.63 307.293H224.377V308.085C224.515 307.845 224.731 307.641 225.025 307.473C225.319 307.299 225.634 307.212 225.97 307.212C226.6 307.212 227.113 307.425 227.509 307.851C227.911 308.277 228.112 308.853 228.112 309.579V309.651C228.112 310.377 227.914 310.965 227.518 311.415C227.128 311.859 226.612 312.081 225.97 312.081C225.25 312.081 224.719 311.796 224.377 311.226V313.638H223.63V307.293ZM225.898 311.46C226.366 311.46 226.723 311.31 226.969 311.01C227.215 310.704 227.338 310.263 227.338 309.687V309.615C227.338 309.045 227.2 308.607 226.924 308.301C226.654 307.989 226.309 307.833 225.889 307.833C225.433 307.833 225.061 307.986 224.773 308.292C224.491 308.592 224.35 309.033 224.35 309.615V309.687C224.35 310.269 224.488 310.71 224.764 311.01C225.046 311.31 225.424 311.46 225.898 311.46ZM229.309 307.293H230.056V308.94H230.893C231.421 308.94 231.853 309.069 232.189 309.327C232.525 309.585 232.693 309.969 232.693 310.479V310.506C232.693 311.022 232.525 311.4 232.189 311.64C231.859 311.88 231.427 312 230.893 312H229.309V307.293ZM230.938 311.415C231.298 311.415 231.556 311.34 231.712 311.19C231.868 311.034 231.946 310.806 231.946 310.506V310.479C231.946 310.155 231.865 309.918 231.703 309.768C231.547 309.612 231.292 309.534 230.938 309.534H230.056V311.415H230.938Z" fill="white"/>
<path d="M202.069 325.8L204.909 322.81C205.596 322.083 205.939 321.393 205.939 320.74C205.939 320.34 205.826 320.027 205.599 319.8C205.379 319.573 205.066 319.46 204.659 319.46C203.792 319.46 203.289 319.99 203.149 321.05H202.339C202.392 320.343 202.622 319.787 203.029 319.38C203.442 318.967 203.986 318.76 204.659 318.76C205.319 318.76 205.842 318.943 206.229 319.31C206.622 319.67 206.819 320.157 206.819 320.77C206.819 321.557 206.339 322.423 205.379 323.37L203.409 325.29H206.859V326H202.069V325.8ZM211.034 325.37C212.294 325.37 212.924 324.447 212.924 322.6V322.2C212.924 321.367 212.754 320.703 212.414 320.21C212.074 319.71 211.608 319.46 211.014 319.46C210.408 319.46 209.934 319.7 209.594 320.18C209.254 320.66 209.084 321.34 209.084 322.22V322.62C209.084 323.507 209.258 324.187 209.604 324.66C209.951 325.133 210.428 325.37 211.034 325.37ZM211.034 326.09C210.181 326.09 209.494 325.773 208.974 325.14C208.454 324.507 208.194 323.67 208.194 322.63V322.23C208.194 321.17 208.444 320.327 208.944 319.7C209.451 319.073 210.141 318.76 211.014 318.76C211.881 318.76 212.561 319.077 213.054 319.71C213.554 320.343 213.804 321.177 213.804 322.21V322.61C213.804 323.663 213.558 324.507 213.064 325.14C212.578 325.773 211.901 326.09 211.034 326.09ZM216.558 319.71L214.958 320.86V320.05L216.618 318.85H217.428V326H216.558V319.71ZM221.642 326.08C220.988 326.08 220.465 325.92 220.072 325.6C219.678 325.28 219.435 324.827 219.342 324.24H220.182C220.268 324.613 220.425 324.897 220.652 325.09C220.885 325.277 221.222 325.37 221.662 325.37C222.242 325.37 222.688 325.133 223.002 324.66C223.315 324.187 223.478 323.477 223.492 322.53C223.312 322.83 223.062 323.063 222.742 323.23C222.422 323.397 222.055 323.48 221.642 323.48C220.948 323.48 220.382 323.26 219.942 322.82C219.508 322.38 219.292 321.82 219.292 321.14C219.292 320.42 219.515 319.843 219.962 319.41C220.408 318.97 221.008 318.75 221.762 318.75C222.608 318.75 223.248 319.023 223.682 319.57C224.115 320.117 224.332 320.91 224.332 321.95V322.4C224.332 323.593 224.098 324.507 223.632 325.14C223.172 325.767 222.508 326.08 221.642 326.08ZM221.772 322.8C222.252 322.8 222.645 322.657 222.952 322.37C223.258 322.083 223.412 321.71 223.412 321.25C223.412 320.677 223.258 320.23 222.952 319.91C222.652 319.59 222.255 319.43 221.762 319.43C221.295 319.43 220.915 319.583 220.622 319.89C220.328 320.197 220.182 320.6 220.182 321.1C220.182 321.62 220.325 322.033 220.612 322.34C220.898 322.647 221.285 322.8 221.772 322.8Z" fill="white"/>
<path opacity="0.6" d="M331.713 312.081C331.251 312.081 330.873 311.967 330.579 311.739C330.291 311.505 330.147 311.157 330.147 310.695C330.147 310.437 330.21 310.212 330.336 310.02C330.468 309.822 330.648 309.669 330.876 309.561C331.104 309.447 331.353 309.366 331.623 309.318C331.893 309.264 332.187 309.237 332.505 309.237H333.18V308.895C333.18 308.517 333.102 308.247 332.946 308.085C332.79 307.917 332.532 307.833 332.172 307.833C331.524 307.833 331.164 308.115 331.092 308.679H330.345C330.393 308.175 330.588 307.806 330.93 307.572C331.278 307.332 331.704 307.212 332.208 307.212C333.354 307.212 333.927 307.773 333.927 308.895V312H333.18V311.406C332.82 311.856 332.331 312.081 331.713 312.081ZM331.785 311.487C332.193 311.487 332.526 311.388 332.784 311.19C333.048 310.986 333.18 310.707 333.18 310.353V309.768H332.532C331.44 309.768 330.894 310.077 330.894 310.695C330.894 311.223 331.191 311.487 331.785 311.487ZM335.43 307.293H337.077C338.181 307.293 338.733 307.692 338.733 308.49V308.517C338.733 308.745 338.67 308.955 338.544 309.147C338.418 309.333 338.229 309.459 337.977 309.525C338.631 309.669 338.958 310.023 338.958 310.587V310.614C338.958 311.07 338.808 311.415 338.508 311.649C338.214 311.883 337.803 312 337.275 312H335.43V307.293ZM336.177 307.887V309.282H337.077C337.389 309.282 337.611 309.225 337.743 309.111C337.881 308.997 337.95 308.811 337.95 308.553V308.526C337.95 308.286 337.878 308.121 337.734 308.031C337.596 307.935 337.374 307.887 337.068 307.887H336.177ZM336.177 309.876V311.406H337.203C337.533 311.406 337.776 311.349 337.932 311.235C338.094 311.115 338.175 310.923 338.175 310.659V310.632C338.175 310.368 338.094 310.176 337.932 310.056C337.776 309.936 337.533 309.876 337.203 309.876H336.177ZM340.987 307.923V312H340.24V307.293H343.228V307.923H340.987ZM345.846 311.514L344.001 307.293H344.802L346.242 310.668L347.547 307.293H348.312L345.711 313.638H344.955L345.846 311.514ZM351.207 312.081C350.535 312.081 349.983 311.865 349.551 311.433C349.119 310.995 348.903 310.416 348.903 309.696V309.624C348.903 308.916 349.122 308.337 349.56 307.887C350.004 307.437 350.547 307.212 351.189 307.212C351.729 307.212 352.188 307.347 352.566 307.617C352.944 307.881 353.166 308.295 353.232 308.859H352.494C352.386 308.175 351.951 307.833 351.189 307.833C350.751 307.833 350.388 307.998 350.1 308.328C349.818 308.652 349.677 309.084 349.677 309.624V309.696C349.677 310.26 349.815 310.695 350.091 311.001C350.373 311.307 350.748 311.46 351.216 311.46C351.57 311.46 351.873 311.361 352.125 311.163C352.383 310.959 352.53 310.674 352.566 310.308H353.259C353.211 310.824 352.995 311.25 352.611 311.586C352.233 311.916 351.765 312.081 351.207 312.081ZM357.726 307.923H356.205V312H355.458V307.923H353.937V307.293H357.726V307.923Z" fill="white"/>
<path d="M329.852 325.8L332.692 322.81C333.379 322.083 333.722 321.393 333.722 320.74C333.722 320.34 333.609 320.027 333.382 319.8C333.162 319.573 332.849 319.46 332.442 319.46C331.576 319.46 331.072 319.99 330.932 321.05H330.122C330.176 320.343 330.406 319.787 330.812 319.38C331.226 318.967 331.769 318.76 332.442 318.76C333.102 318.76 333.626 318.943 334.012 319.31C334.406 319.67 334.602 320.157 334.602 320.77C334.602 321.557 334.122 322.423 333.162 323.37L331.192 325.29H334.642V326H329.852V325.8ZM338.818 325.37C340.078 325.37 340.708 324.447 340.708 322.6V322.2C340.708 321.367 340.538 320.703 340.198 320.21C339.858 319.71 339.391 319.46 338.798 319.46C338.191 319.46 337.718 319.7 337.378 320.18C337.038 320.66 336.868 321.34 336.868 322.22V322.62C336.868 323.507 337.041 324.187 337.388 324.66C337.734 325.133 338.211 325.37 338.818 325.37ZM338.818 326.09C337.964 326.09 337.278 325.773 336.758 325.14C336.238 324.507 335.978 323.67 335.978 322.63V322.23C335.978 321.17 336.228 320.327 336.728 319.7C337.234 319.073 337.924 318.76 338.798 318.76C339.664 318.76 340.344 319.077 340.838 319.71C341.338 320.343 341.588 321.177 341.588 322.21V322.61C341.588 323.663 341.341 324.507 340.848 325.14C340.361 325.773 339.684 326.09 338.818 326.09ZM342.601 325.8L345.441 322.81C346.128 322.083 346.471 321.393 346.471 320.74C346.471 320.34 346.358 320.027 346.131 319.8C345.911 319.573 345.598 319.46 345.191 319.46C344.325 319.46 343.821 319.99 343.681 321.05H342.871C342.925 320.343 343.155 319.787 343.561 319.38C343.975 318.967 344.518 318.76 345.191 318.76C345.851 318.76 346.375 318.943 346.761 319.31C347.155 319.67 347.351 320.157 347.351 320.77C347.351 321.557 346.871 322.423 345.911 323.37L343.941 325.29H347.391V326H342.601V325.8ZM351.566 325.37C352.826 325.37 353.456 324.447 353.456 322.6V322.2C353.456 321.367 353.286 320.703 352.946 320.21C352.606 319.71 352.14 319.46 351.546 319.46C350.94 319.46 350.466 319.7 350.126 320.18C349.786 320.66 349.616 321.34 349.616 322.22V322.62C349.616 323.507 349.79 324.187 350.136 324.66C350.483 325.133 350.96 325.37 351.566 325.37ZM351.566 326.09C350.713 326.09 350.026 325.773 349.506 325.14C348.986 324.507 348.726 323.67 348.726 322.63V322.23C348.726 321.17 348.976 320.327 349.476 319.7C349.983 319.073 350.673 318.76 351.546 318.76C352.413 318.76 353.093 319.077 353.586 319.71C354.086 320.343 354.336 321.177 354.336 322.21V322.61C354.336 323.663 354.09 324.507 353.596 325.14C353.11 325.773 352.433 326.09 351.566 326.09Z" fill="white"/>
<path opacity="0.6" d="M138.346 312V307.293H139.093V310.92L141.496 307.293H142.243V312H141.496V308.373L139.093 312H138.346ZM147.417 312.081C146.817 312.081 146.319 311.895 145.923 311.523C145.533 311.151 145.302 310.662 145.23 310.056C145.218 309.972 145.212 309.921 145.212 309.903H144.501V312H143.754V307.293H144.501V309.273H145.221C145.293 308.649 145.524 308.151 145.914 307.779C146.31 307.401 146.814 307.212 147.426 307.212C148.092 307.212 148.629 307.434 149.037 307.878C149.445 308.322 149.649 308.898 149.649 309.606V309.678C149.649 310.392 149.442 310.971 149.028 311.415C148.62 311.859 148.083 312.081 147.417 312.081ZM147.426 311.46C147.888 311.46 148.245 311.301 148.497 310.983C148.749 310.665 148.875 310.233 148.875 309.687V309.624C148.875 309.072 148.749 308.637 148.497 308.319C148.245 307.995 147.888 307.833 147.426 307.833C146.958 307.833 146.598 307.992 146.346 308.31C146.1 308.628 145.977 309.063 145.977 309.615V309.687C145.977 310.239 146.1 310.674 146.346 310.992C146.592 311.304 146.952 311.46 147.426 311.46ZM153.961 309.903H151.648V312H150.901V307.293H151.648V309.273H153.961V307.293H154.708V312H153.961V309.903ZM156.309 307.293H157.056V308.94H157.893C158.421 308.94 158.853 309.069 159.189 309.327C159.525 309.585 159.693 309.969 159.693 310.479V310.506C159.693 311.022 159.525 311.4 159.189 311.64C158.859 311.88 158.427 312 157.893 312H156.309V307.293ZM157.938 311.415C158.298 311.415 158.556 311.34 158.712 311.19C158.868 311.034 158.946 310.806 158.946 310.506V310.479C158.946 310.155 158.865 309.918 158.703 309.768C158.547 309.612 158.292 309.534 157.938 309.534H157.056V311.415H157.938Z" fill="white"/>
<path d="M138.069 325.8L140.909 322.81C141.596 322.083 141.939 321.393 141.939 320.74C141.939 320.34 141.826 320.027 141.599 319.8C141.379 319.573 141.066 319.46 140.659 319.46C139.792 319.46 139.289 319.99 139.149 321.05H138.339C138.392 320.343 138.622 319.787 139.029 319.38C139.442 318.967 139.986 318.76 140.659 318.76C141.319 318.76 141.842 318.943 142.229 319.31C142.622 319.67 142.819 320.157 142.819 320.77C142.819 321.557 142.339 322.423 141.379 323.37L139.409 325.29H142.859V326H138.069V325.8ZM147.034 325.37C148.294 325.37 148.924 324.447 148.924 322.6V322.2C148.924 321.367 148.754 320.703 148.414 320.21C148.074 319.71 147.608 319.46 147.014 319.46C146.408 319.46 145.934 319.7 145.594 320.18C145.254 320.66 145.084 321.34 145.084 322.22V322.62C145.084 323.507 145.258 324.187 145.604 324.66C145.951 325.133 146.428 325.37 147.034 325.37ZM147.034 326.09C146.181 326.09 145.494 325.773 144.974 325.14C144.454 324.507 144.194 323.67 144.194 322.63V322.23C144.194 321.17 144.444 320.327 144.944 319.7C145.451 319.073 146.141 318.76 147.014 318.76C147.881 318.76 148.561 319.077 149.054 319.71C149.554 320.343 149.804 321.177 149.804 322.21V322.61C149.804 323.663 149.558 324.507 149.064 325.14C148.578 325.773 147.901 326.09 147.034 326.09ZM152.558 319.71L150.958 320.86V320.05L152.618 318.85H153.428V326H152.558V319.71ZM157.642 326.08C156.988 326.08 156.465 325.92 156.072 325.6C155.678 325.28 155.435 324.827 155.342 324.24H156.182C156.268 324.613 156.425 324.897 156.652 325.09C156.885 325.277 157.222 325.37 157.662 325.37C158.242 325.37 158.688 325.133 159.002 324.66C159.315 324.187 159.478 323.477 159.492 322.53C159.312 322.83 159.062 323.063 158.742 323.23C158.422 323.397 158.055 323.48 157.642 323.48C156.948 323.48 156.382 323.26 155.942 322.82C155.508 322.38 155.292 321.82 155.292 321.14C155.292 320.42 155.515 319.843 155.962 319.41C156.408 318.97 157.008 318.75 157.762 318.75C158.608 318.75 159.248 319.023 159.682 319.57C160.115 320.117 160.332 320.91 160.332 321.95V322.4C160.332 323.593 160.098 324.507 159.632 325.14C159.172 325.767 158.508 326.08 157.642 326.08ZM157.772 322.8C158.252 322.8 158.645 322.657 158.952 322.37C159.258 322.083 159.412 321.71 159.412 321.25C159.412 320.677 159.258 320.23 158.952 319.91C158.652 319.59 158.255 319.43 157.762 319.43C157.295 319.43 156.915 319.583 156.622 319.89C156.328 320.197 156.182 320.6 156.182 321.1C156.182 321.62 156.325 322.033 156.612 322.34C156.898 322.647 157.285 322.8 157.772 322.8Z" fill="white"/>
<path opacity="0.6" d="M77.7001 308.031V312H77.0791V307.293H78.1321L79.4731 310.83L80.8501 307.293H81.8761V312H81.1381V308.031L79.5811 312H79.2391L77.7001 308.031ZM84.7213 312.081C84.2593 312.081 83.8813 311.967 83.5873 311.739C83.2993 311.505 83.1553 311.157 83.1553 310.695C83.1553 310.437 83.2183 310.212 83.3443 310.02C83.4763 309.822 83.6563 309.669 83.8843 309.561C84.1123 309.447 84.3613 309.366 84.6313 309.318C84.9013 309.264 85.1953 309.237 85.5133 309.237H86.1883V308.895C86.1883 308.517 86.1103 308.247 85.9543 308.085C85.7983 307.917 85.5403 307.833 85.1803 307.833C84.5323 307.833 84.1723 308.115 84.1003 308.679H83.3533C83.4013 308.175 83.5963 307.806 83.9383 307.572C84.2863 307.332 84.7123 307.212 85.2163 307.212C86.3623 307.212 86.9353 307.773 86.9353 308.895V312H86.1883V311.406C85.8283 311.856 85.3393 312.081 84.7213 312.081ZM84.7933 311.487C85.2013 311.487 85.5343 311.388 85.7923 311.19C86.0563 310.986 86.1883 310.707 86.1883 310.353V309.768H85.5403C84.4483 309.768 83.9023 310.077 83.9023 310.695C83.9023 311.223 84.1993 311.487 84.7933 311.487ZM90.3736 306.429C90.0496 306.429 89.7736 306.318 89.5456 306.096C89.3176 305.868 89.1976 305.583 89.1856 305.241H89.8336C89.8696 305.685 90.0496 305.907 90.3736 305.907C90.7276 305.907 90.9256 305.685 90.9676 305.241H91.5976C91.5736 305.583 91.4446 305.868 91.2106 306.096C90.9826 306.318 90.7036 306.429 90.3736 306.429ZM88.4386 312V307.293H89.1856V310.92L91.5886 307.293H92.3356V312H91.5886V308.373L89.1856 312H88.4386Z" fill="white"/>
<path d="M77.0691 325.8L79.9091 322.81C80.5958 322.083 80.9391 321.393 80.9391 320.74C80.9391 320.34 80.8258 320.027 80.5991 319.8C80.3791 319.573 80.0658 319.46 79.6591 319.46C78.7925 319.46 78.2891 319.99 78.1491 321.05H77.3391C77.3925 320.343 77.6225 319.787 78.0291 319.38C78.4425 318.967 78.9858 318.76 79.6591 318.76C80.3191 318.76 80.8425 318.943 81.2291 319.31C81.6225 319.67 81.8191 320.157 81.8191 320.77C81.8191 321.557 81.3391 322.423 80.3791 323.37L78.4091 325.29H81.8591V326H77.0691V325.8ZM86.0344 325.37C87.2944 325.37 87.9244 324.447 87.9244 322.6V322.2C87.9244 321.367 87.7544 320.703 87.4144 320.21C87.0744 319.71 86.6077 319.46 86.0144 319.46C85.4077 319.46 84.9344 319.7 84.5944 320.18C84.2544 320.66 84.0844 321.34 84.0844 322.22V322.62C84.0844 323.507 84.2577 324.187 84.6044 324.66C84.951 325.133 85.4277 325.37 86.0344 325.37ZM86.0344 326.09C85.181 326.09 84.4944 325.773 83.9744 325.14C83.4544 324.507 83.1944 323.67 83.1944 322.63V322.23C83.1944 321.17 83.4444 320.327 83.9444 319.7C84.451 319.073 85.141 318.76 86.0144 318.76C86.881 318.76 87.561 319.077 88.0544 319.71C88.5544 320.343 88.8044 321.177 88.8044 322.21V322.61C88.8044 323.663 88.5577 324.507 88.0644 325.14C87.5777 325.773 86.901 326.09 86.0344 326.09ZM91.558 319.71L89.958 320.86V320.05L91.618 318.85H92.428V326H91.558V319.71ZM96.6416 326.08C95.9883 326.08 95.465 325.92 95.0716 325.6C94.6783 325.28 94.435 324.827 94.3416 324.24H95.1816C95.2683 324.613 95.425 324.897 95.6516 325.09C95.885 325.277 96.2216 325.37 96.6616 325.37C97.2416 325.37 97.6883 325.133 98.0016 324.66C98.315 324.187 98.4783 323.477 98.4916 322.53C98.3116 322.83 98.0616 323.063 97.7416 323.23C97.4216 323.397 97.055 323.48 96.6416 323.48C95.9483 323.48 95.3816 323.26 94.9416 322.82C94.5083 322.38 94.2916 321.82 94.2916 321.14C94.2916 320.42 94.515 319.843 94.9616 319.41C95.4083 318.97 96.0083 318.75 96.7616 318.75C97.6083 318.75 98.2483 319.023 98.6816 319.57C99.115 320.117 99.3316 320.91 99.3316 321.95V322.4C99.3316 323.593 99.0983 324.507 98.6316 325.14C98.1716 325.767 97.5083 326.08 96.6416 326.08ZM96.7716 322.8C97.2516 322.8 97.645 322.657 97.9516 322.37C98.2583 322.083 98.4116 321.71 98.4116 321.25C98.4116 320.677 98.2583 320.23 97.9516 319.91C97.6516 319.59 97.255 319.43 96.7616 319.43C96.295 319.43 95.915 319.583 95.6216 319.89C95.3283 320.197 95.1816 320.6 95.1816 321.1C95.1816 321.62 95.325 322.033 95.6116 322.34C95.8983 322.647 96.285 322.8 96.7716 322.8Z" fill="white"/>
<path opacity="0.6" d="M266.742 312V307.293H267.489V310.92L269.892 307.293H270.639V312H269.892V308.373L267.489 312H266.742ZM275.812 312.081C275.212 312.081 274.714 311.895 274.318 311.523C273.928 311.151 273.697 310.662 273.625 310.056C273.613 309.972 273.607 309.921 273.607 309.903H272.896V312H272.149V307.293H272.896V309.273H273.616C273.688 308.649 273.919 308.151 274.309 307.779C274.705 307.401 275.209 307.212 275.821 307.212C276.487 307.212 277.024 307.434 277.432 307.878C277.84 308.322 278.044 308.898 278.044 309.606V309.678C278.044 310.392 277.837 310.971 277.423 311.415C277.015 311.859 276.478 312.081 275.812 312.081ZM275.821 311.46C276.283 311.46 276.64 311.301 276.892 310.983C277.144 310.665 277.27 310.233 277.27 309.687V309.624C277.27 309.072 277.144 308.637 276.892 308.319C276.64 307.995 276.283 307.833 275.821 307.833C275.353 307.833 274.993 307.992 274.741 308.31C274.495 308.628 274.372 309.063 274.372 309.615V309.687C274.372 310.239 274.495 310.674 274.741 310.992C274.987 311.304 275.347 311.46 275.821 311.46ZM280.153 310.182C280.099 310.83 279.985 311.304 279.811 311.604C279.637 311.898 279.364 312.045 278.992 312.045C278.914 312.045 278.833 312.039 278.749 312.027L278.677 312V311.289L278.74 311.307C278.8 311.319 278.863 311.325 278.929 311.325C279.025 311.325 279.103 311.298 279.163 311.244C279.229 311.184 279.28 311.091 279.316 310.965C279.358 310.839 279.388 310.722 279.406 310.614C279.424 310.5 279.445 310.341 279.469 310.137C279.493 309.921 279.529 309.309 279.577 308.301L279.604 307.293H282.709V312H281.962V307.923H280.27C280.216 309.219 280.177 309.972 280.153 310.182ZM284.309 307.293H285.056V308.94H285.893C286.421 308.94 286.853 309.069 287.189 309.327C287.525 309.585 287.693 309.969 287.693 310.479V310.506C287.693 311.022 287.525 311.4 287.189 311.64C286.859 311.88 286.427 312 285.893 312H284.309V307.293ZM285.938 311.415C286.298 311.415 286.556 311.34 286.712 311.19C286.868 311.034 286.946 310.806 286.946 310.506V310.479C286.946 310.155 286.865 309.918 286.703 309.768C286.547 309.612 286.292 309.534 285.938 309.534H285.056V311.415H285.938Z" fill="white"/>
<path d="M265.852 325.8L268.692 322.81C269.379 322.083 269.722 321.393 269.722 320.74C269.722 320.34 269.609 320.027 269.382 319.8C269.162 319.573 268.849 319.46 268.442 319.46C267.576 319.46 267.072 319.99 266.932 321.05H266.122C266.176 320.343 266.406 319.787 266.812 319.38C267.226 318.967 267.769 318.76 268.442 318.76C269.102 318.76 269.626 318.943 270.012 319.31C270.406 319.67 270.602 320.157 270.602 320.77C270.602 321.557 270.122 322.423 269.162 323.37L267.192 325.29H270.642V326H265.852V325.8ZM274.818 325.37C276.078 325.37 276.708 324.447 276.708 322.6V322.2C276.708 321.367 276.538 320.703 276.198 320.21C275.858 319.71 275.391 319.46 274.798 319.46C274.191 319.46 273.718 319.7 273.378 320.18C273.038 320.66 272.868 321.34 272.868 322.22V322.62C272.868 323.507 273.041 324.187 273.388 324.66C273.734 325.133 274.211 325.37 274.818 325.37ZM274.818 326.09C273.964 326.09 273.278 325.773 272.758 325.14C272.238 324.507 271.978 323.67 271.978 322.63V322.23C271.978 321.17 272.228 320.327 272.728 319.7C273.234 319.073 273.924 318.76 274.798 318.76C275.664 318.76 276.344 319.077 276.838 319.71C277.338 320.343 277.588 321.177 277.588 322.21V322.61C277.588 323.663 277.341 324.507 276.848 325.14C276.361 325.773 275.684 326.09 274.818 326.09ZM278.601 325.8L281.441 322.81C282.128 322.083 282.471 321.393 282.471 320.74C282.471 320.34 282.358 320.027 282.131 319.8C281.911 319.573 281.598 319.46 281.191 319.46C280.325 319.46 279.821 319.99 279.681 321.05H278.871C278.925 320.343 279.155 319.787 279.561 319.38C279.975 318.967 280.518 318.76 281.191 318.76C281.851 318.76 282.375 318.943 282.761 319.31C283.155 319.67 283.351 320.157 283.351 320.77C283.351 321.557 282.871 322.423 281.911 323.37L279.941 325.29H283.391V326H278.601V325.8ZM287.566 325.37C288.826 325.37 289.456 324.447 289.456 322.6V322.2C289.456 321.367 289.286 320.703 288.946 320.21C288.606 319.71 288.14 319.46 287.546 319.46C286.94 319.46 286.466 319.7 286.126 320.18C285.786 320.66 285.616 321.34 285.616 322.22V322.62C285.616 323.507 285.79 324.187 286.136 324.66C286.483 325.133 286.96 325.37 287.566 325.37ZM287.566 326.09C286.713 326.09 286.026 325.773 285.506 325.14C284.986 324.507 284.726 323.67 284.726 322.63V322.23C284.726 321.17 284.976 320.327 285.476 319.7C285.983 319.073 286.673 318.76 287.546 318.76C288.413 318.76 289.093 319.077 289.586 319.71C290.086 320.343 290.336 321.177 290.336 322.21V322.61C290.336 323.663 290.09 324.507 289.596 325.14C289.11 325.773 288.433 326.09 287.566 326.09Z" fill="white"/>
<path opacity="0.6" d="M396.923 313.081C396.251 313.081 395.699 312.865 395.267 312.433C394.835 311.995 394.619 311.416 394.619 310.696V310.624C394.619 309.916 394.838 309.337 395.276 308.887C395.72 308.437 396.263 308.212 396.905 308.212C397.445 308.212 397.904 308.347 398.282 308.617C398.66 308.881 398.882 309.295 398.948 309.859H398.21C398.102 309.175 397.667 308.833 396.905 308.833C396.467 308.833 396.104 308.998 395.816 309.328C395.534 309.652 395.393 310.084 395.393 310.624V310.696C395.393 311.26 395.531 311.695 395.807 312.001C396.089 312.307 396.464 312.46 396.932 312.46C397.286 312.46 397.589 312.361 397.841 312.163C398.099 311.959 398.246 311.674 398.282 311.308H398.975C398.927 311.824 398.711 312.25 398.327 312.586C397.949 312.916 397.481 313.081 396.923 313.081ZM402.119 313.081C401.447 313.081 400.898 312.862 400.472 312.424C400.052 311.986 399.842 311.41 399.842 310.696V310.624C399.842 309.916 400.046 309.337 400.454 308.887C400.868 308.437 401.399 308.212 402.047 308.212C402.647 308.212 403.148 308.407 403.55 308.797C403.958 309.181 404.162 309.766 404.162 310.552V310.795H400.616C400.652 311.905 401.156 312.46 402.128 312.46C402.866 312.46 403.283 312.187 403.379 311.641H404.126C404.042 312.109 403.823 312.466 403.469 312.712C403.115 312.958 402.665 313.081 402.119 313.081ZM403.397 310.192C403.331 309.286 402.881 308.833 402.047 308.833C401.669 308.833 401.357 308.953 401.111 309.193C400.865 309.433 400.709 309.766 400.643 310.192H403.397ZM408.404 310.903H406.091V313H405.344V308.293H406.091V310.273H408.404V308.293H409.151V313H408.404V310.903ZM414.054 308.923H412.533V313H411.786V308.923H410.265V308.293H414.054V308.923ZM416.74 308.887C416.068 308.887 415.732 309.172 415.732 309.742V309.769C415.732 310.039 415.81 310.243 415.966 310.381C416.122 310.519 416.38 310.588 416.74 310.588H417.622V308.887H416.74ZM415.498 313H414.643L416.074 311.029C415.348 310.879 414.985 310.459 414.985 309.769V309.742C414.985 309.25 415.153 308.887 415.489 308.653C415.825 308.413 416.257 308.293 416.785 308.293H418.369V313H417.622V311.155H416.812L415.498 313ZM422 313.081C421.292 313.081 420.731 312.853 420.317 312.397C419.903 311.941 419.696 311.248 419.696 310.318V310.03C419.696 309.586 419.714 309.193 419.75 308.851C419.786 308.503 419.861 308.155 419.975 307.807C420.089 307.453 420.239 307.159 420.425 306.925C420.611 306.691 420.863 306.496 421.181 306.34C421.505 306.184 421.886 306.094 422.324 306.07L422.504 306.061C423.164 306.025 423.611 305.959 423.845 305.863L423.944 306.493C423.638 306.625 423.161 306.706 422.513 306.736L422.378 306.745C421.652 306.781 421.133 307.018 420.821 307.456C420.515 307.888 420.335 308.56 420.281 309.472H420.317C420.479 309.142 420.719 308.881 421.037 308.689C421.361 308.491 421.736 308.392 422.162 308.392C422.816 308.392 423.338 308.605 423.728 309.031C424.124 309.451 424.322 309.997 424.322 310.669V310.705C424.322 311.431 424.103 312.01 423.665 312.442C423.233 312.868 422.678 313.081 422 313.081ZM420.875 312.001C421.151 312.307 421.529 312.46 422.009 312.46C422.489 312.46 422.864 312.31 423.134 312.01C423.41 311.704 423.548 311.272 423.548 310.714V310.696C423.548 310.174 423.422 309.763 423.17 309.463C422.924 309.163 422.564 309.013 422.09 309.013C421.592 309.013 421.196 309.169 420.902 309.481C420.614 309.793 420.47 310.219 420.47 310.759V310.777C420.47 311.287 420.605 311.695 420.875 312.001ZM425.63 308.293H426.377V309.085C426.515 308.845 426.731 308.641 427.025 308.473C427.319 308.299 427.634 308.212 427.97 308.212C428.6 308.212 429.113 308.425 429.509 308.851C429.911 309.277 430.112 309.853 430.112 310.579V310.651C430.112 311.377 429.914 311.965 429.518 312.415C429.128 312.859 428.612 313.081 427.97 313.081C427.25 313.081 426.719 312.796 426.377 312.226V314.638H425.63V308.293ZM427.898 312.46C428.366 312.46 428.723 312.31 428.969 312.01C429.215 311.704 429.338 311.263 429.338 310.687V310.615C429.338 310.045 429.2 309.607 428.924 309.301C428.654 308.989 428.309 308.833 427.889 308.833C427.433 308.833 427.061 308.986 426.773 309.292C426.491 309.592 426.35 310.033 426.35 310.615V310.687C426.35 311.269 426.488 311.71 426.764 312.01C427.046 312.31 427.424 312.46 427.898 312.46ZM431.309 308.293H432.056V309.94H432.893C433.421 309.94 433.853 310.069 434.189 310.327C434.525 310.585 434.693 310.969 434.693 311.479V311.506C434.693 312.022 434.525 312.4 434.189 312.64C433.859 312.88 433.427 313 432.893 313H431.309V308.293ZM432.938 312.415C433.298 312.415 433.556 312.34 433.712 312.19C433.868 312.034 433.946 311.806 433.946 311.506V311.479C433.946 311.155 433.865 310.918 433.703 310.768C433.547 310.612 433.292 310.534 432.938 310.534H432.056V312.415H432.938Z" fill="white"/>
<path d="M394.852 326.8L397.692 323.81C398.379 323.083 398.722 322.393 398.722 321.74C398.722 321.34 398.609 321.027 398.382 320.8C398.162 320.573 397.849 320.46 397.442 320.46C396.576 320.46 396.072 320.99 395.932 322.05H395.122C395.176 321.343 395.406 320.787 395.812 320.38C396.226 319.967 396.769 319.76 397.442 319.76C398.102 319.76 398.626 319.943 399.012 320.31C399.406 320.67 399.602 321.157 399.602 321.77C399.602 322.557 399.122 323.423 398.162 324.37L396.192 326.29H399.642V327H394.852V326.8ZM403.818 326.37C405.078 326.37 405.708 325.447 405.708 323.6V323.2C405.708 322.367 405.538 321.703 405.198 321.21C404.858 320.71 404.391 320.46 403.798 320.46C403.191 320.46 402.718 320.7 402.378 321.18C402.038 321.66 401.868 322.34 401.868 323.22V323.62C401.868 324.507 402.041 325.187 402.388 325.66C402.734 326.133 403.211 326.37 403.818 326.37ZM403.818 327.09C402.964 327.09 402.278 326.773 401.758 326.14C401.238 325.507 400.978 324.67 400.978 323.63V323.23C400.978 322.17 401.228 321.327 401.728 320.7C402.234 320.073 402.924 319.76 403.798 319.76C404.664 319.76 405.344 320.077 405.838 320.71C406.338 321.343 406.588 322.177 406.588 323.21V323.61C406.588 324.663 406.341 325.507 405.848 326.14C405.361 326.773 404.684 327.09 403.818 327.09ZM407.601 326.8L410.441 323.81C411.128 323.083 411.471 322.393 411.471 321.74C411.471 321.34 411.358 321.027 411.131 320.8C410.911 320.573 410.598 320.46 410.191 320.46C409.325 320.46 408.821 320.99 408.681 322.05H407.871C407.925 321.343 408.155 320.787 408.561 320.38C408.975 319.967 409.518 319.76 410.191 319.76C410.851 319.76 411.375 319.943 411.761 320.31C412.155 320.67 412.351 321.157 412.351 321.77C412.351 322.557 411.871 323.423 410.911 324.37L408.941 326.29H412.391V327H407.601V326.8ZM416.566 326.37C417.826 326.37 418.456 325.447 418.456 323.6V323.2C418.456 322.367 418.286 321.703 417.946 321.21C417.606 320.71 417.14 320.46 416.546 320.46C415.94 320.46 415.466 320.7 415.126 321.18C414.786 321.66 414.616 322.34 414.616 323.22V323.62C414.616 324.507 414.79 325.187 415.136 325.66C415.483 326.133 415.96 326.37 416.566 326.37ZM416.566 327.09C415.713 327.09 415.026 326.773 414.506 326.14C413.986 325.507 413.726 324.67 413.726 323.63V323.23C413.726 322.17 413.976 321.327 414.476 320.7C414.983 320.073 415.673 319.76 416.546 319.76C417.413 319.76 418.093 320.077 418.586 320.71C419.086 321.343 419.336 322.177 419.336 323.21V323.61C419.336 324.663 419.09 325.507 418.596 326.14C418.11 326.773 417.433 327.09 416.566 327.09Z" fill="white"/>
<path d="M2.87 251.07C2.13 251.07 1.56333 250.89 1.17 250.53C0.776667 250.164 0.55 249.67 0.49 249.05H1.32C1.4 249.484 1.55 249.814 1.77 250.04C1.99 250.26 2.35333 250.37 2.86 250.37C3.34667 250.37 3.73 250.217 4.01 249.91C4.29 249.604 4.43 249.18 4.43 248.64C4.43 248.134 4.29333 247.73 4.02 247.43C3.75333 247.124 3.39 246.97 2.93 246.97C2.53 246.97 2.2 247.027 1.94 247.14C1.68 247.254 1.44667 247.427 1.24 247.66H0.92V243.83H4.94V244.58H1.64V246.76C1.99333 246.434 2.48 246.27 3.1 246.27C3.75333 246.27 4.28667 246.487 4.7 246.92C5.11333 247.347 5.32 247.92 5.32 248.64C5.32 249.38 5.08667 249.97 4.62 250.41C4.15333 250.85 3.57 251.07 2.87 251.07ZM9.5375 250.35C10.7975 250.35 11.4275 249.427 11.4275 247.58V247.18C11.4275 246.347 11.2575 245.684 10.9175 245.19C10.5775 244.69 10.1108 244.44 9.5175 244.44C8.91083 244.44 8.4375 244.68 8.0975 245.16C7.7575 245.64 7.5875 246.32 7.5875 247.2V247.6C7.5875 248.487 7.76083 249.167 8.1075 249.64C8.45417 250.114 8.93083 250.35 9.5375 250.35ZM9.5375 251.07C8.68417 251.07 7.9975 250.754 7.4775 250.12C6.9575 249.487 6.6975 248.65 6.6975 247.61V247.21C6.6975 246.15 6.9475 245.307 7.4475 244.68C7.95417 244.054 8.64417 243.74 9.5175 243.74C10.3842 243.74 11.0642 244.057 11.5575 244.69C12.0575 245.324 12.3075 246.157 12.3075 247.19V247.59C12.3075 248.644 12.0608 249.487 11.5675 250.12C11.0808 250.754 10.4042 251.07 9.5375 251.07ZM16.5711 250.35C17.8311 250.35 18.4611 249.427 18.4611 247.58V247.18C18.4611 246.347 18.2911 245.684 17.9511 245.19C17.6111 244.69 17.1444 244.44 16.5511 244.44C15.9444 244.44 15.4711 244.68 15.1311 245.16C14.7911 245.64 14.6211 246.32 14.6211 247.2V247.6C14.6211 248.487 14.7944 249.167 15.1411 249.64C15.4878 250.114 15.9644 250.35 16.5711 250.35ZM16.5711 251.07C15.7178 251.07 15.0311 250.754 14.5111 250.12C13.9911 249.487 13.7311 248.65 13.7311 247.61V247.21C13.7311 246.15 13.9811 245.307 14.4811 244.68C14.9878 244.054 15.6778 243.74 16.5511 243.74C17.4178 243.74 18.0978 244.057 18.5911 244.69C19.0911 245.324 19.3411 246.157 19.3411 247.19V247.59C19.3411 248.644 19.0944 249.487 18.6011 250.12C18.1144 250.754 17.4378 251.07 16.5711 251.07Z" fill="white"/>
<path d="M2.87 213.571C2.13 213.571 1.56333 213.391 1.17 213.031C0.776667 212.665 0.55 212.171 0.49 211.551H1.32C1.4 211.985 1.55 212.315 1.77 212.541C1.99 212.761 2.35333 212.871 2.86 212.871C3.34667 212.871 3.73 212.718 4.01 212.411C4.29 212.105 4.43 211.681 4.43 211.141C4.43 210.635 4.29333 210.231 4.02 209.931C3.75333 209.625 3.39 209.471 2.93 209.471C2.53 209.471 2.2 209.528 1.94 209.641C1.68 209.755 1.44667 209.928 1.24 210.161H0.92V206.331H4.94V207.081H1.64V209.261C1.99333 208.935 2.48 208.771 3.1 208.771C3.75333 208.771 4.28667 208.988 4.7 209.421C5.11333 209.848 5.32 210.421 5.32 211.141C5.32 211.881 5.08667 212.471 4.62 212.911C4.15333 213.351 3.57 213.571 2.87 213.571ZM8.85867 213.571C8.11867 213.571 7.55201 213.391 7.15867 213.031C6.76534 212.665 6.53867 212.171 6.47867 211.551H7.30867C7.38867 211.985 7.53867 212.315 7.75867 212.541C7.97867 212.761 8.34201 212.871 8.84867 212.871C9.33534 212.871 9.71867 212.718 9.99867 212.411C10.2787 212.105 10.4187 211.681 10.4187 211.141C10.4187 210.635 10.282 210.231 10.0087 209.931C9.74201 209.625 9.37867 209.471 8.91867 209.471C8.51867 209.471 8.18867 209.528 7.92867 209.641C7.66867 209.755 7.43534 209.928 7.22867 210.161H6.90867V206.331H10.9287V207.081H7.62867V209.261C7.98201 208.935 8.46867 208.771 9.08867 208.771C9.74201 208.771 10.2753 208.988 10.6887 209.421C11.102 209.848 11.3087 210.421 11.3087 211.141C11.3087 211.881 11.0753 212.471 10.6087 212.911C10.142 213.351 9.55867 213.571 8.85867 213.571ZM15.5262 212.851C16.7862 212.851 17.4162 211.928 17.4162 210.081V209.681C17.4162 208.848 17.2462 208.185 16.9062 207.691C16.5662 207.191 16.0995 206.941 15.5062 206.941C14.8995 206.941 14.4262 207.181 14.0862 207.661C13.7462 208.141 13.5762 208.821 13.5762 209.701V210.101C13.5762 210.988 13.7495 211.668 14.0962 212.141C14.4428 212.615 14.9195 212.851 15.5262 212.851ZM15.5262 213.571C14.6728 213.571 13.9862 213.255 13.4662 212.621C12.9462 211.988 12.6862 211.151 12.6862 210.111V209.711C12.6862 208.651 12.9362 207.808 13.4362 207.181C13.9428 206.555 14.6328 206.241 15.5062 206.241C16.3728 206.241 17.0528 206.558 17.5462 207.191C18.0462 207.825 18.2962 208.658 18.2962 209.691V210.091C18.2962 211.145 18.0495 211.988 17.5562 212.621C17.0695 213.255 16.3928 213.571 15.5262 213.571Z" fill="white"/>
<circle cx="130" cy="201" r="3" fill="#F1D5C0"/>
<circle cx="69" cy="252" r="3" fill="#F1D5C0"/>
<circle cx="195" cy="167" r="3" fill="#F1D5C0"/>
<circle cx="258" cy="138" r="3" fill="#F1D5C0"/>
<circle cx="322" cy="103" r="3" fill="#F1D5C0"/>
<circle cx="387" cy="62" r="3" fill="#F1D5C0"/>
<path d="M4.01 96.55H0.38V95.85H5.09V95.97L2.41 103H1.52L4.01 96.55ZM8.82461 102.37C10.0846 102.37 10.7146 101.447 10.7146 99.6V99.2C10.7146 98.3667 10.5446 97.7033 10.2046 97.21C9.86461 96.71 9.39794 96.46 8.80461 96.46C8.19794 96.46 7.72461 96.7 7.38461 97.18C7.04461 97.66 6.87461 98.34 6.87461 99.22V99.62C6.87461 100.507 7.04794 101.187 7.39461 101.66C7.74128 102.133 8.21794 102.37 8.82461 102.37ZM8.82461 103.09C7.97128 103.09 7.28461 102.773 6.76461 102.14C6.24461 101.507 5.98461 100.67 5.98461 99.63V99.23C5.98461 98.17 6.23461 97.3267 6.73461 96.7C7.24128 96.0733 7.93128 95.76 8.80461 95.76C9.67128 95.76 10.3513 96.0767 10.8446 96.71C11.3446 97.3433 11.5946 98.1767 11.5946 99.21V99.61C11.5946 100.663 11.3479 101.507 10.8546 102.14C10.3679 102.773 9.69128 103.09 8.82461 103.09ZM15.8582 102.37C17.1182 102.37 17.7482 101.447 17.7482 99.6V99.2C17.7482 98.3667 17.5782 97.7033 17.2382 97.21C16.8982 96.71 16.4315 96.46 15.8382 96.46C15.2315 96.46 14.7582 96.7 14.4182 97.18C14.0782 97.66 13.9082 98.34 13.9082 99.22V99.62C13.9082 100.507 14.0815 101.187 14.4282 101.66C14.7749 102.133 15.2515 102.37 15.8582 102.37ZM15.8582 103.09C15.0049 103.09 14.3182 102.773 13.7982 102.14C13.2782 101.507 13.0182 100.67 13.0182 99.63V99.23C13.0182 98.17 13.2682 97.3267 13.7682 96.7C14.2749 96.0733 14.9649 95.76 15.8382 95.76C16.7049 95.76 17.3849 96.0767 17.8782 96.71C18.3782 97.3433 18.6282 98.1767 18.6282 99.21V99.61C18.6282 100.663 18.3815 101.507 17.8882 102.14C17.4015 102.773 16.7249 103.09 15.8582 103.09Z" fill="white"/>
<path d="M4.01 59.55H0.38V58.85H5.09V58.97L2.41 66H1.52L4.01 59.55ZM8.34109 66.09C7.60109 66.09 7.03443 65.91 6.64109 65.55C6.24776 65.1833 6.02109 64.69 5.96109 64.07H6.79109C6.87109 64.5033 7.02109 64.8333 7.24109 65.06C7.46109 65.28 7.82443 65.39 8.33109 65.39C8.81776 65.39 9.20109 65.2367 9.48109 64.93C9.76109 64.6233 9.90109 64.2 9.90109 63.66C9.90109 63.1533 9.76443 62.75 9.49109 62.45C9.22443 62.1433 8.86109 61.99 8.40109 61.99C8.00109 61.99 7.67109 62.0467 7.41109 62.16C7.15109 62.2733 6.91776 62.4467 6.71109 62.68H6.39109V58.85H10.4111V59.6H7.11109V61.78C7.46443 61.4533 7.95109 61.29 8.57109 61.29C9.22443 61.29 9.75776 61.5067 10.1711 61.94C10.5844 62.3667 10.7911 62.94 10.7911 63.66C10.7911 64.4 10.5578 64.99 10.0911 65.43C9.62443 65.87 9.04109 66.09 8.34109 66.09ZM15.0086 65.37C16.2686 65.37 16.8986 64.4467 16.8986 62.6V62.2C16.8986 61.3667 16.7286 60.7033 16.3886 60.21C16.0486 59.71 15.5819 59.46 14.9886 59.46C14.3819 59.46 13.9086 59.7 13.5686 60.18C13.2286 60.66 13.0586 61.34 13.0586 62.22V62.62C13.0586 63.5067 13.2319 64.1867 13.5786 64.66C13.9253 65.1333 14.4019 65.37 15.0086 65.37ZM15.0086 66.09C14.1553 66.09 13.4686 65.7733 12.9486 65.14C12.4286 64.5067 12.1686 63.67 12.1686 62.63V62.23C12.1686 61.17 12.4186 60.3267 12.9186 59.7C13.4253 59.0733 14.1153 58.76 14.9886 58.76C15.8553 58.76 16.5353 59.0767 17.0286 59.71C17.5286 60.3433 17.7786 61.1767 17.7786 62.21V62.61C17.7786 63.6633 17.5319 64.5067 17.0386 65.14C16.5519 65.7733 15.8753 66.09 15.0086 66.09Z" fill="white"/>
<rect opacity="0.3" x="69" y="251" width="1" height="77" fill="#F1D5C0"/>
<rect opacity="0.3" x="130" y="199" width="1" height="129" fill="#F1D5C0"/>
<rect opacity="0.3" x="194" y="167" width="1" height="161" fill="#F1D5C0"/>
<rect opacity="0.3" x="258" y="137" width="1" height="191" fill="#F1D5C0"/>
<rect opacity="0.3" x="322" y="103" width="1" height="225" fill="#F1D5C0"/>
<rect opacity="0.3" x="387" y="59" width="1" height="269" fill="#F1D5C0"/>
<path d="M38 309L68.9618 252.375L131.001 201.045L193.589 167.416L257.402 138.12L323.432 104.202L388.033 61.4129L425 42" stroke="url(#paint0_radial)"/>
<defs>
<radialGradient id="paint0_radial" cx="0" cy="0" r="1" gradientUnits="userSpaceOnUse" gradientTransform="translate(228.903 167.921) rotate(70.2275) scale(161.966 252.432)">
<stop stop-color="#F1D5C0"/>
<stop offset="1" stop-color="#F1D5C0" stop-opacity="0"/>
</radialGradient>
</defs>
</svg>
