<svg width="883" height="548" viewBox="0 0 883 548" fill="none" xmlns="http://www.w3.org/2000/svg">
<path d="M19.8277 255.252C17.0863 255.252 15.7157 253.519 15.7157 250.052V249.78C15.7157 247.775 16.121 246.234 16.9317 245.156C17.753 244.068 18.841 243.524 20.1957 243.524C21.113 243.524 21.8597 243.759 22.4357 244.228C23.0223 244.698 23.3903 245.386 23.5397 246.292H22.2117C22.0837 245.738 21.8543 245.327 21.5237 245.06C21.193 244.794 20.7183 244.66 20.0997 244.66C19.2143 244.66 18.4997 245.055 17.9557 245.844C17.4117 246.634 17.1237 247.764 17.0917 249.236C17.7103 248.202 18.6917 247.684 20.0357 247.684C21.1557 247.684 22.057 248.042 22.7397 248.756C23.433 249.46 23.7797 250.351 23.7797 251.428C23.7797 252.58 23.4223 253.508 22.7077 254.212C21.993 254.906 21.033 255.252 19.8277 255.252ZM19.8277 254.164C20.5743 254.164 21.1823 253.919 21.6517 253.428C22.121 252.938 22.3557 252.292 22.3557 251.492C22.3557 250.66 22.1263 249.999 21.6677 249.508C21.209 249.018 20.5903 248.772 19.8117 248.772C19.0437 248.772 18.4143 249.007 17.9237 249.476C17.433 249.946 17.1877 250.554 17.1877 251.3C17.1877 252.207 17.4277 252.911 17.9077 253.412C18.3983 253.914 19.0383 254.164 19.8277 254.164ZM30.4353 254.1C32.4513 254.1 33.4593 252.623 33.4593 249.668V249.028C33.4593 247.695 33.1873 246.634 32.6433 245.844C32.0993 245.044 31.3526 244.644 30.4033 244.644C29.4326 244.644 28.6753 245.028 28.1313 245.796C27.5873 246.564 27.3153 247.652 27.3153 249.06V249.7C27.3153 251.119 27.5926 252.207 28.1473 252.964C28.702 253.722 29.4646 254.1 30.4353 254.1ZM30.4353 255.252C29.07 255.252 27.9713 254.746 27.1393 253.732C26.3073 252.719 25.8913 251.38 25.8913 249.716V249.076C25.8913 247.38 26.2913 246.031 27.0913 245.028C27.902 244.026 29.006 243.524 30.4033 243.524C31.79 243.524 32.878 244.031 33.6673 245.044C34.4673 246.058 34.8673 247.391 34.8673 249.044V249.684C34.8673 251.37 34.4726 252.719 33.6833 253.732C32.9046 254.746 31.822 255.252 30.4353 255.252ZM41.689 254.1C43.705 254.1 44.713 252.623 44.713 249.668V249.028C44.713 247.695 44.441 246.634 43.897 245.844C43.353 245.044 42.6064 244.644 41.657 244.644C40.6864 244.644 39.929 245.028 39.385 245.796C38.841 246.564 38.569 247.652 38.569 249.06V249.7C38.569 251.119 38.8464 252.207 39.401 252.964C39.9557 253.722 40.7184 254.1 41.689 254.1ZM41.689 255.252C40.3237 255.252 39.225 254.746 38.393 253.732C37.561 252.719 37.145 251.38 37.145 249.716V249.076C37.145 247.38 37.545 246.031 38.345 245.028C39.1557 244.026 40.2597 243.524 41.657 243.524C43.0437 243.524 44.1317 244.031 44.921 245.044C45.721 246.058 46.121 247.391 46.121 249.044V249.684C46.121 251.37 45.7264 252.719 44.937 253.732C44.1584 254.746 43.0757 255.252 41.689 255.252Z" fill="white"/>
<path opacity="0.6" d="M5.412 270.733H3.384V276.169H2.388V270.733H0.36V269.893H5.412V270.733ZM12.3053 269.893H13.3013V276.169H12.3053V269.893ZM6.90534 269.893H7.90134V272.089H9.01734C9.72934 272.089 10.3053 272.249 10.7453 272.569C11.1933 272.889 11.4173 273.393 11.4173 274.081V274.117C11.4173 274.797 11.1933 275.309 10.7453 275.653C10.2973 275.997 9.72134 276.169 9.01734 276.169H6.90534V269.893ZM9.07734 275.377C9.54934 275.377 9.88934 275.277 10.0973 275.077C10.3133 274.869 10.4213 274.549 10.4213 274.117V274.081C10.4213 273.681 10.3173 273.381 10.1093 273.181C9.90134 272.973 9.55734 272.869 9.07734 272.869H7.90134V275.377H9.07734ZM18.1154 276.277C17.2194 276.277 16.4834 275.989 15.9074 275.413C15.3314 274.829 15.0434 274.057 15.0434 273.097V273.001C15.0434 272.057 15.3354 271.285 15.9194 270.685C16.5114 270.085 17.2354 269.785 18.0914 269.785C18.8114 269.785 19.4234 269.965 19.9274 270.325C20.4314 270.677 20.7274 271.229 20.8154 271.981H19.8314C19.6874 271.069 19.1074 270.613 18.0914 270.613C17.5074 270.613 17.0234 270.833 16.6394 271.273C16.2634 271.705 16.0754 272.281 16.0754 273.001V273.097C16.0754 273.849 16.2594 274.429 16.6274 274.837C17.0034 275.245 17.5034 275.449 18.1274 275.449C18.5994 275.449 19.0034 275.317 19.3394 275.053C19.6834 274.781 19.8794 274.401 19.9274 273.913H20.8514C20.7874 274.601 20.4994 275.169 19.9874 275.617C19.4834 276.057 18.8594 276.277 18.1154 276.277ZM25.7709 269.893H26.7669V270.949C26.9509 270.629 27.2389 270.357 27.6309 270.133C28.0229 269.901 28.4429 269.785 28.8909 269.785C29.7309 269.785 30.4149 270.069 30.9429 270.637C31.4789 271.205 31.7469 271.973 31.7469 272.941V273.037C31.7469 274.005 31.4829 274.789 30.9549 275.389C30.4349 275.981 29.7469 276.277 28.8909 276.277C27.9309 276.277 27.2229 275.897 26.7669 275.137V278.353H25.7709V269.893ZM28.7949 275.449C29.4189 275.449 29.8949 275.249 30.2229 274.849C30.5509 274.441 30.7149 273.853 30.7149 273.085V272.989C30.7149 272.229 30.5309 271.645 30.1629 271.237C29.8029 270.821 29.3429 270.613 28.7829 270.613C28.1749 270.613 27.6789 270.817 27.2949 271.225C26.9189 271.625 26.7309 272.213 26.7309 272.989V273.085C26.7309 273.861 26.9149 274.449 27.2829 274.849C27.6589 275.249 28.1629 275.449 28.7949 275.449ZM35.0492 275.521L32.5892 269.893H33.6572L35.5772 274.393L37.3172 269.893H38.3372L34.8692 278.353H33.8612L35.0492 275.521ZM42.3968 276.277C41.4528 276.277 40.7048 275.973 40.1528 275.365C39.6008 274.757 39.3248 273.833 39.3248 272.593V272.209C39.3248 271.617 39.3488 271.093 39.3968 270.637C39.4448 270.173 39.5448 269.709 39.6968 269.245C39.8488 268.773 40.0488 268.381 40.2968 268.069C40.5448 267.757 40.8808 267.497 41.3048 267.289C41.7368 267.081 42.2448 266.961 42.8288 266.929L43.0688 266.917C43.9488 266.869 44.5448 266.781 44.8568 266.653L44.9888 267.493C44.5808 267.669 43.9448 267.777 43.0808 267.817L42.9008 267.829C41.9328 267.877 41.2408 268.193 40.8248 268.777C40.4168 269.353 40.1768 270.249 40.1048 271.465H40.1528C40.3688 271.025 40.6888 270.677 41.1128 270.421C41.5448 270.157 42.0448 270.025 42.6128 270.025C43.4848 270.025 44.1808 270.309 44.7008 270.877C45.2288 271.437 45.4928 272.165 45.4928 273.061V273.109C45.4928 274.077 45.2008 274.849 44.6168 275.425C44.0408 275.993 43.3008 276.277 42.3968 276.277ZM40.8968 274.837C41.2648 275.245 41.7688 275.449 42.4088 275.449C43.0488 275.449 43.5488 275.249 43.9088 274.849C44.2768 274.441 44.4608 273.865 44.4608 273.121V273.097C44.4608 272.401 44.2928 271.853 43.9568 271.453C43.6288 271.053 43.1488 270.853 42.5168 270.853C41.8528 270.853 41.3248 271.061 40.9328 271.477C40.5488 271.893 40.3568 272.461 40.3568 273.181V273.205C40.3568 273.885 40.5368 274.429 40.8968 274.837Z" fill="white"/>
<path d="M22.9688 183.927C20.2274 183.927 18.8568 182.194 18.8568 178.727V178.455C18.8568 176.45 19.2621 174.909 20.0728 173.831C20.8941 172.743 21.9821 172.199 23.3368 172.199C24.2541 172.199 25.0008 172.434 25.5768 172.903C26.1634 173.373 26.5314 174.061 26.6808 174.967H25.3528C25.2248 174.413 24.9954 174.002 24.6648 173.735C24.3341 173.469 23.8594 173.335 23.2408 173.335C22.3554 173.335 21.6408 173.73 21.0968 174.519C20.5528 175.309 20.2648 176.439 20.2328 177.911C20.8514 176.877 21.8328 176.359 23.1768 176.359C24.2968 176.359 25.1981 176.717 25.8808 177.431C26.5741 178.135 26.9208 179.026 26.9208 180.103C26.9208 181.255 26.5634 182.183 25.8488 182.887C25.1341 183.581 24.1741 183.927 22.9688 183.927ZM22.9688 182.839C23.7154 182.839 24.3234 182.594 24.7928 182.103C25.2621 181.613 25.4968 180.967 25.4968 180.167C25.4968 179.335 25.2674 178.674 24.8088 178.183C24.3501 177.693 23.7314 177.447 22.9528 177.447C22.1848 177.447 21.5554 177.682 21.0648 178.151C20.5741 178.621 20.3288 179.229 20.3288 179.975C20.3288 180.882 20.5688 181.586 21.0488 182.087C21.5394 182.589 22.1794 182.839 22.9688 182.839ZM32.6465 183.927C31.4625 183.927 30.5559 183.639 29.9265 183.063C29.2972 182.477 28.9345 181.687 28.8385 180.695H30.1665C30.2945 181.389 30.5345 181.917 30.8865 182.279C31.2385 182.631 31.8199 182.807 32.6305 182.807C33.4092 182.807 34.0225 182.562 34.4705 182.071C34.9185 181.581 35.1425 180.903 35.1425 180.039C35.1425 179.229 34.9239 178.583 34.4865 178.103C34.0599 177.613 33.4785 177.367 32.7425 177.367C32.1025 177.367 31.5745 177.458 31.1585 177.639C30.7425 177.821 30.3692 178.098 30.0385 178.471H29.5265V172.343H35.9585V173.543H30.6785V177.031C31.2439 176.509 32.0225 176.247 33.0145 176.247C34.0599 176.247 34.9132 176.594 35.5745 177.287C36.2359 177.97 36.5665 178.887 36.5665 180.039C36.5665 181.223 36.1932 182.167 35.4465 182.871C34.6999 183.575 33.7665 183.927 32.6465 183.927ZM43.3145 182.775C45.3305 182.775 46.3385 181.298 46.3385 178.343V177.703C46.3385 176.37 46.0665 175.309 45.5225 174.519C44.9785 173.719 44.2319 173.319 43.2825 173.319C42.3119 173.319 41.5545 173.703 41.0105 174.471C40.4665 175.239 40.1945 176.327 40.1945 177.735V178.375C40.1945 179.794 40.4719 180.882 41.0265 181.639C41.5812 182.397 42.3439 182.775 43.3145 182.775ZM43.3145 183.927C41.9492 183.927 40.8505 183.421 40.0185 182.407C39.1865 181.394 38.7705 180.055 38.7705 178.391V177.751C38.7705 176.055 39.1705 174.706 39.9705 173.703C40.7812 172.701 41.8852 172.199 43.2825 172.199C44.6692 172.199 45.7572 172.706 46.5465 173.719C47.3465 174.733 47.7465 176.066 47.7465 177.719V178.359C47.7465 180.045 47.3519 181.394 46.5625 182.407C45.7839 183.421 44.7012 183.927 43.3145 183.927Z" fill="white"/>
<path opacity="0.6" d="M5.412 199.408H3.384V204.844H2.388V199.408H0.36V198.568H5.412V199.408ZM12.3053 198.568H13.3013V204.844H12.3053V198.568ZM6.90534 198.568H7.90134V200.764H9.01734C9.72934 200.764 10.3053 200.924 10.7453 201.244C11.1933 201.564 11.4173 202.068 11.4173 202.756V202.792C11.4173 203.472 11.1933 203.984 10.7453 204.328C10.2973 204.672 9.72134 204.844 9.01734 204.844H6.90534V198.568ZM9.07734 204.052C9.54934 204.052 9.88934 203.952 10.0973 203.752C10.3133 203.544 10.4213 203.224 10.4213 202.792V202.756C10.4213 202.356 10.3173 202.056 10.1093 201.856C9.90134 201.648 9.55734 201.544 9.07734 201.544H7.90134V204.052H9.07734ZM18.1154 204.952C17.2194 204.952 16.4834 204.664 15.9074 204.088C15.3314 203.504 15.0434 202.732 15.0434 201.772V201.676C15.0434 200.732 15.3354 199.96 15.9194 199.36C16.5114 198.76 17.2354 198.46 18.0914 198.46C18.8114 198.46 19.4234 198.64 19.9274 199C20.4314 199.352 20.7274 199.904 20.8154 200.656H19.8314C19.6874 199.744 19.1074 199.288 18.0914 199.288C17.5074 199.288 17.0234 199.508 16.6394 199.948C16.2634 200.38 16.0754 200.956 16.0754 201.676V201.772C16.0754 202.524 16.2594 203.104 16.6274 203.512C17.0034 203.92 17.5034 204.124 18.1274 204.124C18.5994 204.124 19.0034 203.992 19.3394 203.728C19.6834 203.456 19.8794 203.076 19.9274 202.588H20.8514C20.7874 203.276 20.4994 203.844 19.9874 204.292C19.4834 204.732 18.8594 204.952 18.1154 204.952ZM25.7709 198.568H26.7669V199.624C26.9509 199.304 27.2389 199.032 27.6309 198.808C28.0229 198.576 28.4429 198.46 28.8909 198.46C29.7309 198.46 30.4149 198.744 30.9429 199.312C31.4789 199.88 31.7469 200.648 31.7469 201.616V201.712C31.7469 202.68 31.4829 203.464 30.9549 204.064C30.4349 204.656 29.7469 204.952 28.8909 204.952C27.9309 204.952 27.2229 204.572 26.7669 203.812V207.028H25.7709V198.568ZM28.7949 204.124C29.4189 204.124 29.8949 203.924 30.2229 203.524C30.5509 203.116 30.7149 202.528 30.7149 201.76V201.664C30.7149 200.904 30.5309 200.32 30.1629 199.912C29.8029 199.496 29.3429 199.288 28.7829 199.288C28.1749 199.288 27.6789 199.492 27.2949 199.9C26.9189 200.3 26.7309 200.888 26.7309 201.664V201.76C26.7309 202.536 26.9149 203.124 27.2829 203.524C27.6589 203.924 28.1629 204.124 28.7949 204.124ZM35.0492 204.196L32.5892 198.568H33.6572L35.5772 203.068L37.3172 198.568H38.3372L34.8692 207.028H33.8612L35.0492 204.196ZM42.3968 204.952C41.4528 204.952 40.7048 204.648 40.1528 204.04C39.6008 203.432 39.3248 202.508 39.3248 201.268V200.884C39.3248 200.292 39.3488 199.768 39.3968 199.312C39.4448 198.848 39.5448 198.384 39.6968 197.92C39.8488 197.448 40.0488 197.056 40.2968 196.744C40.5448 196.432 40.8808 196.172 41.3048 195.964C41.7368 195.756 42.2448 195.636 42.8288 195.604L43.0688 195.592C43.9488 195.544 44.5448 195.456 44.8568 195.328L44.9888 196.168C44.5808 196.344 43.9448 196.452 43.0808 196.492L42.9008 196.504C41.9328 196.552 41.2408 196.868 40.8248 197.452C40.4168 198.028 40.1768 198.924 40.1048 200.14H40.1528C40.3688 199.7 40.6888 199.352 41.1128 199.096C41.5448 198.832 42.0448 198.7 42.6128 198.7C43.4848 198.7 44.1808 198.984 44.7008 199.552C45.2288 200.112 45.4928 200.84 45.4928 201.736V201.784C45.4928 202.752 45.2008 203.524 44.6168 204.1C44.0408 204.668 43.3008 204.952 42.3968 204.952ZM40.8968 203.512C41.2648 203.92 41.7688 204.124 42.4088 204.124C43.0488 204.124 43.5488 203.924 43.9088 203.524C44.2768 203.116 44.4608 202.54 44.4608 201.796V201.772C44.4608 201.076 44.2928 200.528 43.9568 200.128C43.6288 199.728 43.1488 199.528 42.5168 199.528C41.8528 199.528 41.3248 199.736 40.9328 200.152C40.5488 200.568 40.3568 201.136 40.3568 201.856V201.88C40.3568 202.56 40.5368 203.104 40.8968 203.512Z" fill="white"/>
<path d="M25.2961 466.684H19.5681V466.236L24.8001 457.644H26.6561V465.548H28.2401V466.684H26.6561V469.084H25.2961V466.684ZM25.2961 465.548V458.7L21.3281 465.548H25.2961ZM33.6626 469.228C32.4786 469.228 31.572 468.94 30.9426 468.364C30.3133 467.777 29.9506 466.988 29.8546 465.996H31.1826C31.3106 466.689 31.5506 467.217 31.9026 467.58C32.2546 467.932 32.836 468.108 33.6466 468.108C34.4253 468.108 35.0386 467.863 35.4866 467.372C35.9346 466.881 36.1586 466.204 36.1586 465.34C36.1586 464.529 35.94 463.884 35.5026 463.404C35.076 462.913 34.4946 462.668 33.7586 462.668C33.1186 462.668 32.5906 462.759 32.1746 462.94C31.7586 463.121 31.3853 463.399 31.0546 463.772H30.5426V457.644H36.9746V458.844H31.6946V462.332C32.26 461.809 33.0386 461.548 34.0306 461.548C35.076 461.548 35.9293 461.895 36.5906 462.588C37.252 463.271 37.5826 464.188 37.5826 465.34C37.5826 466.524 37.2093 467.468 36.4626 468.172C35.716 468.876 34.7826 469.228 33.6626 469.228ZM44.3306 468.076C46.3466 468.076 47.3546 466.599 47.3546 463.644V463.004C47.3546 461.671 47.0826 460.609 46.5386 459.82C45.9946 459.02 45.248 458.62 44.2986 458.62C43.328 458.62 42.5706 459.004 42.0266 459.772C41.4826 460.54 41.2106 461.628 41.2106 463.036V463.676C41.2106 465.095 41.488 466.183 42.0426 466.94C42.5973 467.697 43.36 468.076 44.3306 468.076ZM44.3306 469.228C42.9653 469.228 41.8666 468.721 41.0346 467.708C40.2026 466.695 39.7866 465.356 39.7866 463.692V463.052C39.7866 461.356 40.1866 460.007 40.9866 459.004C41.7973 458.001 42.9013 457.5 44.2986 457.5C45.6853 457.5 46.7733 458.007 47.5626 459.02C48.3626 460.033 48.7626 461.367 48.7626 463.02V463.66C48.7626 465.345 48.368 466.695 47.5786 467.708C46.8 468.721 45.7173 469.228 44.3306 469.228Z" fill="white"/>
<path opacity="0.6" d="M5.412 484.709H3.384V490.145H2.388V484.709H0.36V483.869H5.412V484.709ZM12.3053 483.869H13.3013V490.145H12.3053V483.869ZM6.90534 483.869H7.90134V486.065H9.01734C9.72934 486.065 10.3053 486.225 10.7453 486.545C11.1933 486.865 11.4173 487.369 11.4173 488.057V488.093C11.4173 488.773 11.1933 489.285 10.7453 489.629C10.2973 489.973 9.72134 490.145 9.01734 490.145H6.90534V483.869ZM9.07734 489.353C9.54934 489.353 9.88934 489.253 10.0973 489.053C10.3133 488.845 10.4213 488.525 10.4213 488.093V488.057C10.4213 487.657 10.3173 487.357 10.1093 487.157C9.90134 486.949 9.55734 486.845 9.07734 486.845H7.90134V489.353H9.07734ZM18.1154 490.253C17.2194 490.253 16.4834 489.965 15.9074 489.389C15.3314 488.805 15.0434 488.033 15.0434 487.073V486.977C15.0434 486.033 15.3354 485.261 15.9194 484.661C16.5114 484.061 17.2354 483.761 18.0914 483.761C18.8114 483.761 19.4234 483.941 19.9274 484.301C20.4314 484.653 20.7274 485.205 20.8154 485.957H19.8314C19.6874 485.045 19.1074 484.589 18.0914 484.589C17.5074 484.589 17.0234 484.809 16.6394 485.249C16.2634 485.681 16.0754 486.257 16.0754 486.977V487.073C16.0754 487.825 16.2594 488.405 16.6274 488.813C17.0034 489.221 17.5034 489.425 18.1274 489.425C18.5994 489.425 19.0034 489.293 19.3394 489.029C19.6834 488.757 19.8794 488.377 19.9274 487.889H20.8514C20.7874 488.577 20.4994 489.145 19.9874 489.593C19.4834 490.033 18.8594 490.253 18.1154 490.253ZM25.7709 483.869H26.7669V484.925C26.9509 484.605 27.2389 484.333 27.6309 484.109C28.0229 483.877 28.4429 483.761 28.8909 483.761C29.7309 483.761 30.4149 484.045 30.9429 484.613C31.4789 485.181 31.7469 485.949 31.7469 486.917V487.013C31.7469 487.981 31.4829 488.765 30.9549 489.365C30.4349 489.957 29.7469 490.253 28.8909 490.253C27.9309 490.253 27.2229 489.873 26.7669 489.113V492.329H25.7709V483.869ZM28.7949 489.425C29.4189 489.425 29.8949 489.225 30.2229 488.825C30.5509 488.417 30.7149 487.829 30.7149 487.061V486.965C30.7149 486.205 30.5309 485.621 30.1629 485.213C29.8029 484.797 29.3429 484.589 28.7829 484.589C28.1749 484.589 27.6789 484.793 27.2949 485.201C26.9189 485.601 26.7309 486.189 26.7309 486.965V487.061C26.7309 487.837 26.9149 488.425 27.2829 488.825C27.6589 489.225 28.1629 489.425 28.7949 489.425ZM35.0492 489.497L32.5892 483.869H33.6572L35.5772 488.369L37.3172 483.869H38.3372L34.8692 492.329H33.8612L35.0492 489.497ZM42.3968 490.253C41.4528 490.253 40.7048 489.949 40.1528 489.341C39.6008 488.733 39.3248 487.809 39.3248 486.569V486.185C39.3248 485.593 39.3488 485.069 39.3968 484.613C39.4448 484.149 39.5448 483.685 39.6968 483.221C39.8488 482.749 40.0488 482.357 40.2968 482.045C40.5448 481.733 40.8808 481.473 41.3048 481.265C41.7368 481.057 42.2448 480.937 42.8288 480.905L43.0688 480.893C43.9488 480.845 44.5448 480.757 44.8568 480.629L44.9888 481.469C44.5808 481.645 43.9448 481.753 43.0808 481.793L42.9008 481.805C41.9328 481.853 41.2408 482.169 40.8248 482.753C40.4168 483.329 40.1768 484.225 40.1048 485.441H40.1528C40.3688 485.001 40.6888 484.653 41.1128 484.397C41.5448 484.133 42.0448 484.001 42.6128 484.001C43.4848 484.001 44.1808 484.285 44.7008 484.853C45.2288 485.413 45.4928 486.141 45.4928 487.037V487.085C45.4928 488.053 45.2008 488.825 44.6168 489.401C44.0408 489.969 43.3008 490.253 42.3968 490.253ZM40.8968 488.813C41.2648 489.221 41.7688 489.425 42.4088 489.425C43.0488 489.425 43.5488 489.225 43.9088 488.825C44.2768 488.417 44.4608 487.841 44.4608 487.097V487.073C44.4608 486.377 44.2928 485.829 43.9568 485.429C43.6288 485.029 43.1488 484.829 42.5168 484.829C41.8528 484.829 41.3248 485.037 40.9328 485.453C40.5488 485.869 40.3568 486.437 40.3568 487.157V487.181C40.3568 487.861 40.5368 488.405 40.8968 488.813Z" fill="white"/>
<path opacity="0.6" d="M461.088 519.204H458.004V522H457.008V515.724H458.004V518.364H461.088V515.724H462.084V522H461.088V519.204ZM466.906 521.28C467.53 521.28 468.026 521.064 468.394 520.632C468.77 520.2 468.958 519.628 468.958 518.916V518.832C468.958 518.104 468.77 517.524 468.394 517.092C468.026 516.66 467.53 516.444 466.906 516.444C466.274 516.444 465.774 516.66 465.406 517.092C465.038 517.524 464.854 518.1 464.854 518.82V518.916C464.854 519.644 465.034 520.22 465.394 520.644C465.762 521.068 466.266 521.28 466.906 521.28ZM466.894 522.108C466.006 522.108 465.27 521.808 464.686 521.208C464.11 520.6 463.822 519.836 463.822 518.916V518.82C463.822 517.884 464.11 517.116 464.686 516.516C465.27 515.916 466.01 515.616 466.906 515.616C467.802 515.616 468.538 515.916 469.114 516.516C469.698 517.108 469.99 517.872 469.99 518.808V518.904C469.99 519.848 469.698 520.62 469.114 521.22C468.53 521.812 467.79 522.108 466.894 522.108ZM473.668 516.516C472.772 516.516 472.324 516.896 472.324 517.656V517.692C472.324 518.052 472.428 518.324 472.636 518.508C472.844 518.692 473.188 518.784 473.668 518.784H474.844V516.516H473.668ZM472.012 522H470.872L472.78 519.372C471.812 519.172 471.328 518.612 471.328 517.692V517.656C471.328 517 471.552 516.516 472 516.204C472.448 515.884 473.024 515.724 473.728 515.724H475.84V522H474.844V519.54H473.764L472.012 522ZM480.681 522.108C479.737 522.108 478.989 521.804 478.437 521.196C477.885 520.588 477.609 519.664 477.609 518.424V518.04C477.609 517.448 477.633 516.924 477.681 516.468C477.729 516.004 477.829 515.54 477.981 515.076C478.133 514.604 478.333 514.212 478.581 513.9C478.829 513.588 479.165 513.328 479.589 513.12C480.021 512.912 480.529 512.792 481.113 512.76L481.353 512.748C482.233 512.7 482.829 512.612 483.141 512.484L483.273 513.324C482.865 513.5 482.229 513.608 481.365 513.648L481.185 513.66C480.217 513.708 479.525 514.024 479.109 514.608C478.701 515.184 478.461 516.08 478.389 517.296H478.437C478.653 516.856 478.973 516.508 479.397 516.252C479.829 515.988 480.329 515.856 480.897 515.856C481.769 515.856 482.465 516.14 482.985 516.708C483.513 517.268 483.777 517.996 483.777 518.892V518.94C483.777 519.908 483.485 520.68 482.901 521.256C482.325 521.824 481.585 522.108 480.681 522.108ZM479.181 520.668C479.549 521.076 480.053 521.28 480.693 521.28C481.333 521.28 481.833 521.08 482.193 520.68C482.561 520.272 482.745 519.696 482.745 518.952V518.928C482.745 518.232 482.577 517.684 482.241 517.284C481.913 516.884 481.433 516.684 480.801 516.684C480.137 516.684 479.609 516.892 479.217 517.308C478.833 517.724 478.641 518.292 478.641 519.012V519.036C478.641 519.716 478.821 520.26 479.181 520.668ZM485.521 515.724H486.517V516.78C486.701 516.46 486.989 516.188 487.381 515.964C487.773 515.732 488.193 515.616 488.641 515.616C489.481 515.616 490.165 515.9 490.693 516.468C491.229 517.036 491.497 517.804 491.497 518.772V518.868C491.497 519.836 491.233 520.62 490.705 521.22C490.185 521.812 489.497 522.108 488.641 522.108C487.681 522.108 486.973 521.728 486.517 520.968V524.184H485.521V515.724ZM488.545 521.28C489.169 521.28 489.645 521.08 489.973 520.68C490.301 520.272 490.465 519.684 490.465 518.916V518.82C490.465 518.06 490.281 517.476 489.913 517.068C489.553 516.652 489.093 516.444 488.533 516.444C487.925 516.444 487.429 516.648 487.045 517.056C486.669 517.456 486.481 518.044 486.481 518.82V518.916C486.481 519.692 486.665 520.28 487.033 520.68C487.409 521.08 487.913 521.28 488.545 521.28ZM493.092 515.724H494.088V517.92H495.204C495.908 517.92 496.484 518.092 496.932 518.436C497.38 518.78 497.604 519.292 497.604 519.972V520.008C497.604 520.696 497.38 521.2 496.932 521.52C496.492 521.84 495.916 522 495.204 522H493.092V515.724ZM495.264 521.22C495.744 521.22 496.088 521.12 496.296 520.92C496.504 520.712 496.608 520.408 496.608 520.008V519.972C496.608 519.54 496.5 519.224 496.284 519.024C496.076 518.816 495.736 518.712 495.264 518.712H494.088V521.22H495.264Z" fill="white"/>
<path d="M456.35 542.553L460.326 538.367C461.287 537.35 461.768 536.384 461.768 535.469C461.768 534.909 461.609 534.47 461.292 534.153C460.984 533.836 460.545 533.677 459.976 533.677C458.763 533.677 458.058 534.419 457.862 535.903H456.728C456.803 534.914 457.125 534.134 457.694 533.565C458.273 532.986 459.033 532.697 459.976 532.697C460.9 532.697 461.633 532.954 462.174 533.467C462.725 533.971 463 534.652 463 535.511C463 536.612 462.328 537.826 460.984 539.151L458.226 541.839H463.056V542.833H456.35V542.553ZM468.901 541.951C470.665 541.951 471.547 540.658 471.547 538.073V537.513C471.547 536.346 471.309 535.418 470.833 534.727C470.357 534.027 469.704 533.677 468.873 533.677C468.024 533.677 467.361 534.013 466.885 534.685C466.409 535.357 466.171 536.309 466.171 537.541V538.101C466.171 539.342 466.414 540.294 466.899 540.957C467.385 541.62 468.052 541.951 468.901 541.951ZM468.901 542.959C467.707 542.959 466.745 542.516 466.017 541.629C465.289 540.742 464.925 539.571 464.925 538.115V537.555C464.925 536.071 465.275 534.89 465.975 534.013C466.685 533.136 467.651 532.697 468.873 532.697C470.087 532.697 471.039 533.14 471.729 534.027C472.429 534.914 472.779 536.08 472.779 537.527V538.087C472.779 539.562 472.434 540.742 471.743 541.629C471.062 542.516 470.115 542.959 468.901 542.959ZM476.634 534.027L474.394 535.637V534.503L476.718 532.823H477.852V542.833H476.634V534.027ZM483.752 542.945C482.837 542.945 482.104 542.721 481.554 542.273C481.003 541.825 480.662 541.19 480.532 540.369H481.708C481.829 540.892 482.048 541.288 482.366 541.559C482.692 541.82 483.164 541.951 483.78 541.951C484.592 541.951 485.217 541.62 485.656 540.957C486.094 540.294 486.323 539.3 486.342 537.975C486.09 538.395 485.74 538.722 485.292 538.955C484.844 539.188 484.33 539.305 483.752 539.305C482.781 539.305 481.988 538.997 481.372 538.381C480.765 537.765 480.462 536.981 480.462 536.029C480.462 535.021 480.774 534.214 481.4 533.607C482.025 532.991 482.865 532.683 483.92 532.683C485.105 532.683 486.001 533.066 486.608 533.831C487.214 534.596 487.518 535.707 487.518 537.163V537.793C487.518 539.464 487.191 540.742 486.538 541.629C485.894 542.506 484.965 542.945 483.752 542.945ZM483.934 538.353C484.606 538.353 485.156 538.152 485.586 537.751C486.015 537.35 486.23 536.827 486.23 536.183C486.23 535.38 486.015 534.755 485.586 534.307C485.166 533.859 484.61 533.635 483.92 533.635C483.266 533.635 482.734 533.85 482.324 534.279C481.913 534.708 481.708 535.273 481.708 535.973C481.708 536.701 481.908 537.28 482.31 537.709C482.711 538.138 483.252 538.353 483.934 538.353Z" fill="white"/>
<path opacity="0.6" d="M701.652 522.108C701.036 522.108 700.532 521.956 700.14 521.652C699.756 521.34 699.564 520.876 699.564 520.26C699.564 519.916 699.648 519.616 699.816 519.36C699.992 519.096 700.232 518.892 700.536 518.748C700.84 518.596 701.172 518.488 701.532 518.424C701.892 518.352 702.284 518.316 702.708 518.316H703.608V517.86C703.608 517.356 703.504 516.996 703.296 516.78C703.088 516.556 702.744 516.444 702.264 516.444C701.4 516.444 700.92 516.82 700.824 517.572H699.828C699.892 516.9 700.152 516.408 700.608 516.096C701.072 515.776 701.64 515.616 702.312 515.616C703.84 515.616 704.604 516.364 704.604 517.86V522H703.608V521.208C703.128 521.808 702.476 522.108 701.652 522.108ZM701.748 521.316C702.292 521.316 702.736 521.184 703.08 520.92C703.432 520.648 703.608 520.276 703.608 519.804V519.024H702.744C701.288 519.024 700.56 519.436 700.56 520.26C700.56 520.964 700.956 521.316 701.748 521.316ZM706.608 515.724H708.804C710.276 515.724 711.012 516.256 711.012 517.32V517.356C711.012 517.66 710.928 517.94 710.76 518.196C710.592 518.444 710.34 518.612 710.004 518.7C710.876 518.892 711.312 519.364 711.312 520.116V520.152C711.312 520.76 711.112 521.22 710.712 521.532C710.32 521.844 709.772 522 709.068 522H706.608V515.724ZM707.604 516.516V518.376H708.804C709.22 518.376 709.516 518.3 709.692 518.148C709.876 517.996 709.968 517.748 709.968 517.404V517.368C709.968 517.048 709.872 516.828 709.68 516.708C709.496 516.58 709.2 516.516 708.792 516.516H707.604ZM707.604 519.168V521.208H708.972C709.412 521.208 709.736 521.132 709.944 520.98C710.16 520.82 710.268 520.564 710.268 520.212V520.176C710.268 519.824 710.16 519.568 709.944 519.408C709.736 519.248 709.412 519.168 708.972 519.168H707.604ZM714.017 516.564V522H713.021V515.724H717.005V516.564H714.017ZM720.497 521.352L718.037 515.724H719.105L721.025 520.224L722.765 515.724H723.785L720.317 524.184H719.309L720.497 521.352ZM727.644 522.108C726.748 522.108 726.012 521.82 725.436 521.244C724.86 520.66 724.572 519.888 724.572 518.928V518.832C724.572 517.888 724.864 517.116 725.448 516.516C726.04 515.916 726.764 515.616 727.62 515.616C728.34 515.616 728.952 515.796 729.456 516.156C729.96 516.508 730.256 517.06 730.344 517.812H729.36C729.216 516.9 728.636 516.444 727.62 516.444C727.036 516.444 726.552 516.664 726.168 517.104C725.792 517.536 725.604 518.112 725.604 518.832V518.928C725.604 519.68 725.788 520.26 726.156 520.668C726.532 521.076 727.032 521.28 727.656 521.28C728.128 521.28 728.532 521.148 728.868 520.884C729.212 520.612 729.408 520.232 729.456 519.744H730.38C730.316 520.432 730.028 521 729.516 521.448C729.012 521.888 728.388 522.108 727.644 522.108ZM736.336 516.564H734.308V522H733.312V516.564H731.284V515.724H736.336V516.564Z" fill="white"/>
<path d="M699.35 542.553L703.326 538.367C704.287 537.35 704.768 536.384 704.768 535.469C704.768 534.909 704.609 534.47 704.292 534.153C703.984 533.836 703.545 533.677 702.976 533.677C701.763 533.677 701.058 534.419 700.862 535.903H699.728C699.803 534.914 700.125 534.134 700.694 533.565C701.273 532.986 702.033 532.697 702.976 532.697C703.9 532.697 704.633 532.954 705.174 533.467C705.725 533.971 706 534.652 706 535.511C706 536.612 705.328 537.826 703.984 539.151L701.226 541.839H706.056V542.833H699.35V542.553ZM711.901 541.951C713.665 541.951 714.547 540.658 714.547 538.073V537.513C714.547 536.346 714.309 535.418 713.833 534.727C713.357 534.027 712.704 533.677 711.873 533.677C711.024 533.677 710.361 534.013 709.885 534.685C709.409 535.357 709.171 536.309 709.171 537.541V538.101C709.171 539.342 709.414 540.294 709.899 540.957C710.385 541.62 711.052 541.951 711.901 541.951ZM711.901 542.959C710.707 542.959 709.745 542.516 709.017 541.629C708.289 540.742 707.925 539.571 707.925 538.115V537.555C707.925 536.071 708.275 534.89 708.975 534.013C709.685 533.136 710.651 532.697 711.873 532.697C713.087 532.697 714.039 533.14 714.729 534.027C715.429 534.914 715.779 536.08 715.779 537.527V538.087C715.779 539.562 715.434 540.742 714.743 541.629C714.062 542.516 713.115 542.959 711.901 542.959ZM717.198 542.553L721.174 538.367C722.136 537.35 722.616 536.384 722.616 535.469C722.616 534.909 722.458 534.47 722.14 534.153C721.832 533.836 721.394 533.677 720.824 533.677C719.611 533.677 718.906 534.419 718.71 535.903H717.576C717.651 534.914 717.973 534.134 718.542 533.565C719.121 532.986 719.882 532.697 720.824 532.697C721.748 532.697 722.481 532.954 723.022 533.467C723.573 533.971 723.848 534.652 723.848 535.511C723.848 536.612 723.176 537.826 721.832 539.151L719.074 541.839H723.904V542.833H717.198V542.553ZM729.75 541.951C731.514 541.951 732.396 540.658 732.396 538.073V537.513C732.396 536.346 732.158 535.418 731.682 534.727C731.206 534.027 730.552 533.677 729.722 533.677C728.872 533.677 728.21 534.013 727.734 534.685C727.258 535.357 727.02 536.309 727.02 537.541V538.101C727.02 539.342 727.262 540.294 727.748 540.957C728.233 541.62 728.9 541.951 729.75 541.951ZM729.75 542.959C728.555 542.959 727.594 542.516 726.866 541.629C726.138 540.742 725.774 539.571 725.774 538.115V537.555C725.774 536.071 726.124 534.89 726.824 534.013C727.533 533.136 728.499 532.697 729.722 532.697C730.935 532.697 731.887 533.14 732.578 534.027C733.278 534.914 733.628 536.08 733.628 537.527V538.087C733.628 539.562 733.282 540.742 732.592 541.629C731.91 542.516 730.963 542.959 729.75 542.959Z" fill="white"/>
<path opacity="0.6" d="M338.008 522V515.724H339.004V520.56L342.208 515.724H343.204V522H342.208V517.164L339.004 522H338.008ZM350.102 522.108C349.302 522.108 348.638 521.86 348.11 521.364C347.59 520.868 347.282 520.216 347.186 519.408C347.17 519.296 347.162 519.228 347.162 519.204H346.214V522H345.218V515.724H346.214V518.364H347.174C347.27 517.532 347.578 516.868 348.098 516.372C348.626 515.868 349.298 515.616 350.114 515.616C351.002 515.616 351.718 515.912 352.262 516.504C352.806 517.096 353.078 517.864 353.078 518.808V518.904C353.078 519.856 352.802 520.628 352.25 521.22C351.706 521.812 350.99 522.108 350.102 522.108ZM350.114 521.28C350.73 521.28 351.206 521.068 351.542 520.644C351.878 520.22 352.046 519.644 352.046 518.916V518.832C352.046 518.096 351.878 517.516 351.542 517.092C351.206 516.66 350.73 516.444 350.114 516.444C349.49 516.444 349.01 516.656 348.674 517.08C348.346 517.504 348.182 518.084 348.182 518.82V518.916C348.182 519.652 348.346 520.232 348.674 520.656C349.002 521.072 349.482 521.28 350.114 521.28ZM358.828 519.204H355.744V522H354.748V515.724H355.744V518.364H358.828V515.724H359.824V522H358.828V519.204ZM361.958 515.724H362.954V517.92H364.07C364.774 517.92 365.35 518.092 365.798 518.436C366.246 518.78 366.47 519.292 366.47 519.972V520.008C366.47 520.696 366.246 521.2 365.798 521.52C365.358 521.84 364.782 522 364.07 522H361.958V515.724ZM364.13 521.22C364.61 521.22 364.954 521.12 365.162 520.92C365.37 520.712 365.474 520.408 365.474 520.008V519.972C365.474 519.54 365.366 519.224 365.15 519.024C364.942 518.816 364.602 518.712 364.13 518.712H362.954V521.22H364.13Z" fill="white"/>
<path d="M337.35 542.553L341.326 538.367C342.287 537.35 342.768 536.384 342.768 535.469C342.768 534.909 342.609 534.47 342.292 534.153C341.984 533.836 341.545 533.677 340.976 533.677C339.763 533.677 339.058 534.419 338.862 535.903H337.728C337.803 534.914 338.125 534.134 338.694 533.565C339.273 532.986 340.033 532.697 340.976 532.697C341.9 532.697 342.633 532.954 343.174 533.467C343.725 533.971 344 534.652 344 535.511C344 536.612 343.328 537.826 341.984 539.151L339.226 541.839H344.056V542.833H337.35V542.553ZM349.901 541.951C351.665 541.951 352.547 540.658 352.547 538.073V537.513C352.547 536.346 352.309 535.418 351.833 534.727C351.357 534.027 350.704 533.677 349.873 533.677C349.024 533.677 348.361 534.013 347.885 534.685C347.409 535.357 347.171 536.309 347.171 537.541V538.101C347.171 539.342 347.414 540.294 347.899 540.957C348.385 541.62 349.052 541.951 349.901 541.951ZM349.901 542.959C348.707 542.959 347.745 542.516 347.017 541.629C346.289 540.742 345.925 539.571 345.925 538.115V537.555C345.925 536.071 346.275 534.89 346.975 534.013C347.685 533.136 348.651 532.697 349.873 532.697C351.087 532.697 352.039 533.14 352.729 534.027C353.429 534.914 353.779 536.08 353.779 537.527V538.087C353.779 539.562 353.434 540.742 352.743 541.629C352.062 542.516 351.115 542.959 349.901 542.959ZM357.634 534.027L355.394 535.637V534.503L357.718 532.823H358.852V542.833H357.634V534.027ZM364.752 542.945C363.837 542.945 363.104 542.721 362.554 542.273C362.003 541.825 361.662 541.19 361.532 540.369H362.708C362.829 540.892 363.048 541.288 363.366 541.559C363.692 541.82 364.164 541.951 364.78 541.951C365.592 541.951 366.217 541.62 366.656 540.957C367.094 540.294 367.323 539.3 367.342 537.975C367.09 538.395 366.74 538.722 366.292 538.955C365.844 539.188 365.33 539.305 364.752 539.305C363.781 539.305 362.988 538.997 362.372 538.381C361.765 537.765 361.462 536.981 361.462 536.029C361.462 535.021 361.774 534.214 362.4 533.607C363.025 532.991 363.865 532.683 364.92 532.683C366.105 532.683 367.001 533.066 367.608 533.831C368.214 534.596 368.518 535.707 368.518 537.163V537.793C368.518 539.464 368.191 540.742 367.538 541.629C366.894 542.506 365.965 542.945 364.752 542.945ZM364.934 538.353C365.606 538.353 366.156 538.152 366.586 537.751C367.015 537.35 367.23 536.827 367.23 536.183C367.23 535.38 367.015 534.755 366.586 534.307C366.166 533.859 365.61 533.635 364.92 533.635C364.266 533.635 363.734 533.85 363.324 534.279C362.913 534.708 362.708 535.273 362.708 535.973C362.708 536.701 362.908 537.28 363.31 537.709C363.711 538.138 364.252 538.353 364.934 538.353Z" fill="white"/>
<path opacity="0.6" d="M216.848 516.708V522H216.02V515.724H217.424L219.212 520.44L221.048 515.724H222.416V522H221.432V516.708L219.356 522H218.9L216.848 516.708ZM226.21 522.108C225.594 522.108 225.089 521.956 224.697 521.652C224.313 521.34 224.121 520.876 224.121 520.26C224.121 519.916 224.205 519.616 224.373 519.36C224.549 519.096 224.789 518.892 225.093 518.748C225.397 518.596 225.729 518.488 226.09 518.424C226.45 518.352 226.842 518.316 227.266 518.316H228.165V517.86C228.165 517.356 228.061 516.996 227.854 516.78C227.646 516.556 227.302 516.444 226.822 516.444C225.957 516.444 225.477 516.82 225.382 517.572H224.385C224.449 516.9 224.709 516.408 225.165 516.096C225.629 515.776 226.197 515.616 226.87 515.616C228.398 515.616 229.161 516.364 229.161 517.86V522H228.165V521.208C227.685 521.808 227.033 522.108 226.21 522.108ZM226.306 521.316C226.85 521.316 227.294 521.184 227.637 520.92C227.989 520.648 228.165 520.276 228.165 519.804V519.024H227.301C225.845 519.024 225.118 519.436 225.118 520.26C225.118 520.964 225.514 521.316 226.306 521.316ZM233.746 514.572C233.314 514.572 232.946 514.424 232.642 514.128C232.338 513.824 232.178 513.444 232.162 512.988H233.026C233.074 513.58 233.314 513.876 233.746 513.876C234.218 513.876 234.482 513.58 234.538 512.988H235.378C235.346 513.444 235.174 513.824 234.862 514.128C234.558 514.424 234.186 514.572 233.746 514.572ZM231.166 522V515.724H232.162V520.56L235.366 515.724H236.362V522H235.366V517.164L232.162 522H231.166Z" fill="white"/>
<path d="M215.35 542.553L219.326 538.367C220.287 537.35 220.768 536.384 220.768 535.469C220.768 534.909 220.609 534.47 220.292 534.153C219.984 533.836 219.545 533.677 218.976 533.677C217.763 533.677 217.058 534.419 216.862 535.903H215.728C215.803 534.914 216.125 534.134 216.694 533.565C217.273 532.986 218.033 532.697 218.976 532.697C219.9 532.697 220.633 532.954 221.174 533.467C221.725 533.971 222 534.652 222 535.511C222 536.612 221.328 537.826 219.984 539.151L217.226 541.839H222.056V542.833H215.35V542.553ZM227.901 541.951C229.665 541.951 230.547 540.658 230.547 538.073V537.513C230.547 536.346 230.309 535.418 229.833 534.727C229.357 534.027 228.704 533.677 227.873 533.677C227.024 533.677 226.361 534.013 225.885 534.685C225.409 535.357 225.171 536.309 225.171 537.541V538.101C225.171 539.342 225.414 540.294 225.899 540.957C226.385 541.62 227.052 541.951 227.901 541.951ZM227.901 542.959C226.707 542.959 225.745 542.516 225.017 541.629C224.289 540.742 223.925 539.571 223.925 538.115V537.555C223.925 536.071 224.275 534.89 224.975 534.013C225.685 533.136 226.651 532.697 227.873 532.697C229.087 532.697 230.039 533.14 230.729 534.027C231.429 534.914 231.779 536.08 231.779 537.527V538.087C231.779 539.562 231.434 540.742 230.743 541.629C230.062 542.516 229.115 542.959 227.901 542.959ZM235.634 534.027L233.394 535.637V534.503L235.718 532.823H236.852V542.833H235.634V534.027ZM242.752 542.945C241.837 542.945 241.104 542.721 240.554 542.273C240.003 541.825 239.662 541.19 239.532 540.369H240.708C240.829 540.892 241.048 541.288 241.366 541.559C241.692 541.82 242.164 541.951 242.78 541.951C243.592 541.951 244.217 541.62 244.656 540.957C245.094 540.294 245.323 539.3 245.342 537.975C245.09 538.395 244.74 538.722 244.292 538.955C243.844 539.188 243.33 539.305 242.752 539.305C241.781 539.305 240.988 538.997 240.372 538.381C239.765 537.765 239.462 536.981 239.462 536.029C239.462 535.021 239.774 534.214 240.4 533.607C241.025 532.991 241.865 532.683 242.92 532.683C244.105 532.683 245.001 533.066 245.608 533.831C246.214 534.596 246.518 535.707 246.518 537.163V537.793C246.518 539.464 246.191 540.742 245.538 541.629C244.894 542.506 243.965 542.945 242.752 542.945ZM242.934 538.353C243.606 538.353 244.156 538.152 244.586 537.751C245.015 537.35 245.23 536.827 245.23 536.183C245.23 535.38 245.015 534.755 244.586 534.307C244.166 533.859 243.61 533.635 242.92 533.635C242.266 533.635 241.734 533.85 241.324 534.279C240.913 534.708 240.708 535.273 240.708 535.973C240.708 536.701 240.908 537.28 241.31 537.709C241.711 538.138 242.252 538.353 242.934 538.353Z" fill="white"/>
<path opacity="0.6" d="M577.008 522V515.724H578.004V520.56L581.208 515.724H582.204V522H581.208V517.164L578.004 522H577.008ZM589.102 522.108C588.302 522.108 587.638 521.86 587.11 521.364C586.59 520.868 586.282 520.216 586.186 519.408C586.17 519.296 586.162 519.228 586.162 519.204H585.214V522H584.218V515.724H585.214V518.364H586.174C586.27 517.532 586.578 516.868 587.098 516.372C587.626 515.868 588.298 515.616 589.114 515.616C590.002 515.616 590.718 515.912 591.262 516.504C591.806 517.096 592.078 517.864 592.078 518.808V518.904C592.078 519.856 591.802 520.628 591.25 521.22C590.706 521.812 589.99 522.108 589.102 522.108ZM589.114 521.28C589.73 521.28 590.206 521.068 590.542 520.644C590.878 520.22 591.046 519.644 591.046 518.916V518.832C591.046 518.096 590.878 517.516 590.542 517.092C590.206 516.66 589.73 516.444 589.114 516.444C588.49 516.444 588.01 516.656 587.674 517.08C587.346 517.504 587.182 518.084 587.182 518.82V518.916C587.182 519.652 587.346 520.232 587.674 520.656C588.002 521.072 588.482 521.28 589.114 521.28ZM594.889 519.576C594.817 520.44 594.665 521.072 594.433 521.472C594.201 521.864 593.837 522.06 593.341 522.06C593.237 522.06 593.129 522.052 593.017 522.036L592.921 522V521.052L593.005 521.076C593.085 521.092 593.169 521.1 593.257 521.1C593.385 521.1 593.489 521.064 593.569 520.992C593.657 520.912 593.725 520.788 593.773 520.62C593.829 520.452 593.869 520.296 593.893 520.152C593.917 520 593.945 519.788 593.977 519.516C594.009 519.228 594.057 518.412 594.121 517.068L594.157 515.724H598.297V522H597.301V516.564H595.045C594.973 518.292 594.921 519.296 594.889 519.576ZM600.431 515.724H601.427V517.92H602.543C603.247 517.92 603.823 518.092 604.271 518.436C604.719 518.78 604.943 519.292 604.943 519.972V520.008C604.943 520.696 604.719 521.2 604.271 521.52C603.831 521.84 603.255 522 602.543 522H600.431V515.724ZM602.603 521.22C603.083 521.22 603.427 521.12 603.635 520.92C603.843 520.712 603.947 520.408 603.947 520.008V519.972C603.947 519.54 603.839 519.224 603.623 519.024C603.415 518.816 603.075 518.712 602.603 518.712H601.427V521.22H602.603Z" fill="white"/>
<path d="M576.35 542.553L580.326 538.367C581.287 537.35 581.768 536.384 581.768 535.469C581.768 534.909 581.609 534.47 581.292 534.153C580.984 533.836 580.545 533.677 579.976 533.677C578.763 533.677 578.058 534.419 577.862 535.903H576.728C576.803 534.914 577.125 534.134 577.694 533.565C578.273 532.986 579.033 532.697 579.976 532.697C580.9 532.697 581.633 532.954 582.174 533.467C582.725 533.971 583 534.652 583 535.511C583 536.612 582.328 537.826 580.984 539.151L578.226 541.839H583.056V542.833H576.35V542.553ZM588.901 541.951C590.665 541.951 591.547 540.658 591.547 538.073V537.513C591.547 536.346 591.309 535.418 590.833 534.727C590.357 534.027 589.704 533.677 588.873 533.677C588.024 533.677 587.361 534.013 586.885 534.685C586.409 535.357 586.171 536.309 586.171 537.541V538.101C586.171 539.342 586.414 540.294 586.899 540.957C587.385 541.62 588.052 541.951 588.901 541.951ZM588.901 542.959C587.707 542.959 586.745 542.516 586.017 541.629C585.289 540.742 584.925 539.571 584.925 538.115V537.555C584.925 536.071 585.275 534.89 585.975 534.013C586.685 533.136 587.651 532.697 588.873 532.697C590.087 532.697 591.039 533.14 591.729 534.027C592.429 534.914 592.779 536.08 592.779 537.527V538.087C592.779 539.562 592.434 540.742 591.743 541.629C591.062 542.516 590.115 542.959 588.901 542.959ZM594.198 542.553L598.174 538.367C599.136 537.35 599.616 536.384 599.616 535.469C599.616 534.909 599.458 534.47 599.14 534.153C598.832 533.836 598.394 533.677 597.824 533.677C596.611 533.677 595.906 534.419 595.71 535.903H594.576C594.651 534.914 594.973 534.134 595.542 533.565C596.121 532.986 596.882 532.697 597.824 532.697C598.748 532.697 599.481 532.954 600.022 533.467C600.573 533.971 600.848 534.652 600.848 535.511C600.848 536.612 600.176 537.826 598.832 539.151L596.074 541.839H600.904V542.833H594.198V542.553ZM606.75 541.951C608.514 541.951 609.396 540.658 609.396 538.073V537.513C609.396 536.346 609.158 535.418 608.682 534.727C608.206 534.027 607.552 533.677 606.722 533.677C605.872 533.677 605.21 534.013 604.734 534.685C604.258 535.357 604.02 536.309 604.02 537.541V538.101C604.02 539.342 604.262 540.294 604.748 540.957C605.233 541.62 605.9 541.951 606.75 541.951ZM606.75 542.959C605.555 542.959 604.594 542.516 603.866 541.629C603.138 540.742 602.774 539.571 602.774 538.115V537.555C602.774 536.071 603.124 534.89 603.824 534.013C604.533 533.136 605.499 532.697 606.722 532.697C607.935 532.697 608.887 533.14 609.578 534.027C610.278 534.914 610.628 536.08 610.628 537.527V538.087C610.628 539.562 610.282 540.742 609.592 541.629C608.91 542.516 607.963 542.959 606.75 542.959Z" fill="white"/>
<path opacity="0.6" d="M825.684 522.108C824.788 522.108 824.052 521.82 823.476 521.244C822.9 520.66 822.612 519.888 822.612 518.928V518.832C822.612 517.888 822.904 517.116 823.488 516.516C824.08 515.916 824.804 515.616 825.66 515.616C826.38 515.616 826.992 515.796 827.496 516.156C828 516.508 828.296 517.06 828.384 517.812H827.4C827.256 516.9 826.676 516.444 825.66 516.444C825.076 516.444 824.592 516.664 824.208 517.104C823.832 517.536 823.644 518.112 823.644 518.832V518.928C823.644 519.68 823.828 520.26 824.196 520.668C824.572 521.076 825.072 521.28 825.696 521.28C826.168 521.28 826.572 521.148 826.908 520.884C827.252 520.612 827.448 520.232 827.496 519.744H828.42C828.356 520.432 828.068 521 827.556 521.448C827.052 521.888 826.428 522.108 825.684 522.108ZM832.612 522.108C831.716 522.108 830.984 521.816 830.416 521.232C829.856 520.648 829.576 519.88 829.576 518.928V518.832C829.576 517.888 829.848 517.116 830.392 516.516C830.944 515.916 831.652 515.616 832.516 515.616C833.316 515.616 833.984 515.876 834.52 516.396C835.064 516.908 835.336 517.688 835.336 518.736V519.06H830.608C830.656 520.54 831.328 521.28 832.624 521.28C833.608 521.28 834.164 520.916 834.292 520.188H835.288C835.176 520.812 834.884 521.288 834.412 521.616C833.94 521.944 833.34 522.108 832.612 522.108ZM834.316 518.256C834.228 517.048 833.628 516.444 832.516 516.444C832.012 516.444 831.596 516.604 831.268 516.924C830.94 517.244 830.732 517.688 830.644 518.256H834.316ZM840.992 519.204H837.908V522H836.912V515.724H837.908V518.364H840.992V515.724H841.988V522H840.992V519.204ZM848.526 516.564H846.498V522H845.502V516.564H843.474V515.724H848.526V516.564ZM852.107 516.516C851.211 516.516 850.763 516.896 850.763 517.656V517.692C850.763 518.052 850.867 518.324 851.075 518.508C851.283 518.692 851.627 518.784 852.107 518.784H853.283V516.516H852.107ZM850.451 522H849.311L851.219 519.372C850.251 519.172 849.767 518.612 849.767 517.692V517.656C849.767 517 849.991 516.516 850.439 516.204C850.887 515.884 851.463 515.724 852.167 515.724H854.279V522H853.283V519.54H852.203L850.451 522ZM859.12 522.108C858.176 522.108 857.428 521.804 856.876 521.196C856.324 520.588 856.048 519.664 856.048 518.424V518.04C856.048 517.448 856.072 516.924 856.12 516.468C856.168 516.004 856.268 515.54 856.42 515.076C856.572 514.604 856.772 514.212 857.02 513.9C857.268 513.588 857.604 513.328 858.028 513.12C858.46 512.912 858.968 512.792 859.552 512.76L859.792 512.748C860.672 512.7 861.268 512.612 861.58 512.484L861.712 513.324C861.304 513.5 860.668 513.608 859.804 513.648L859.624 513.66C858.656 513.708 857.964 514.024 857.548 514.608C857.14 515.184 856.9 516.08 856.828 517.296H856.876C857.092 516.856 857.412 516.508 857.836 516.252C858.268 515.988 858.768 515.856 859.336 515.856C860.208 515.856 860.904 516.14 861.424 516.708C861.952 517.268 862.216 517.996 862.216 518.892V518.94C862.216 519.908 861.924 520.68 861.34 521.256C860.764 521.824 860.024 522.108 859.12 522.108ZM857.62 520.668C857.988 521.076 858.492 521.28 859.132 521.28C859.772 521.28 860.272 521.08 860.632 520.68C861 520.272 861.184 519.696 861.184 518.952V518.928C861.184 518.232 861.016 517.684 860.68 517.284C860.352 516.884 859.872 516.684 859.24 516.684C858.576 516.684 858.048 516.892 857.656 517.308C857.272 517.724 857.08 518.292 857.08 519.012V519.036C857.08 519.716 857.26 520.26 857.62 520.668ZM863.96 515.724H864.956V516.78C865.14 516.46 865.428 516.188 865.82 515.964C866.212 515.732 866.632 515.616 867.08 515.616C867.92 515.616 868.604 515.9 869.132 516.468C869.668 517.036 869.936 517.804 869.936 518.772V518.868C869.936 519.836 869.672 520.62 869.144 521.22C868.624 521.812 867.936 522.108 867.08 522.108C866.12 522.108 865.412 521.728 864.956 520.968V524.184H863.96V515.724ZM866.984 521.28C867.608 521.28 868.084 521.08 868.412 520.68C868.74 520.272 868.904 519.684 868.904 518.916V518.82C868.904 518.06 868.72 517.476 868.352 517.068C867.992 516.652 867.532 516.444 866.972 516.444C866.364 516.444 865.868 516.648 865.484 517.056C865.108 517.456 864.92 518.044 864.92 518.82V518.916C864.92 519.692 865.104 520.28 865.472 520.68C865.848 521.08 866.352 521.28 866.984 521.28ZM871.532 515.724H872.528V517.92H873.644C874.348 517.92 874.924 518.092 875.372 518.436C875.82 518.78 876.044 519.292 876.044 519.972V520.008C876.044 520.696 875.82 521.2 875.372 521.52C874.932 521.84 874.356 522 873.644 522H871.532V515.724ZM873.704 521.22C874.184 521.22 874.528 521.12 874.736 520.92C874.944 520.712 875.048 520.408 875.048 520.008V519.972C875.048 519.54 874.94 519.224 874.724 519.024C874.516 518.816 874.176 518.712 873.704 518.712H872.528V521.22H873.704Z" fill="white"/>
<path d="M822.35 542.553L826.326 538.367C827.287 537.35 827.768 536.384 827.768 535.469C827.768 534.909 827.609 534.47 827.292 534.153C826.984 533.836 826.545 533.677 825.976 533.677C824.763 533.677 824.058 534.419 823.862 535.903H822.728C822.803 534.914 823.125 534.134 823.694 533.565C824.273 532.986 825.033 532.697 825.976 532.697C826.9 532.697 827.633 532.954 828.174 533.467C828.725 533.971 829 534.652 829 535.511C829 536.612 828.328 537.826 826.984 539.151L824.226 541.839H829.056V542.833H822.35V542.553ZM834.901 541.951C836.665 541.951 837.547 540.658 837.547 538.073V537.513C837.547 536.346 837.309 535.418 836.833 534.727C836.357 534.027 835.704 533.677 834.873 533.677C834.024 533.677 833.361 534.013 832.885 534.685C832.409 535.357 832.171 536.309 832.171 537.541V538.101C832.171 539.342 832.414 540.294 832.899 540.957C833.385 541.62 834.052 541.951 834.901 541.951ZM834.901 542.959C833.707 542.959 832.745 542.516 832.017 541.629C831.289 540.742 830.925 539.571 830.925 538.115V537.555C830.925 536.071 831.275 534.89 831.975 534.013C832.685 533.136 833.651 532.697 834.873 532.697C836.087 532.697 837.039 533.14 837.729 534.027C838.429 534.914 838.779 536.08 838.779 537.527V538.087C838.779 539.562 838.434 540.742 837.743 541.629C837.062 542.516 836.115 542.959 834.901 542.959ZM840.198 542.553L844.174 538.367C845.136 537.35 845.616 536.384 845.616 535.469C845.616 534.909 845.458 534.47 845.14 534.153C844.832 533.836 844.394 533.677 843.824 533.677C842.611 533.677 841.906 534.419 841.71 535.903H840.576C840.651 534.914 840.973 534.134 841.542 533.565C842.121 532.986 842.882 532.697 843.824 532.697C844.748 532.697 845.481 532.954 846.022 533.467C846.573 533.971 846.848 534.652 846.848 535.511C846.848 536.612 846.176 537.826 844.832 539.151L842.074 541.839H846.904V542.833H840.198V542.553ZM852.75 541.951C854.514 541.951 855.396 540.658 855.396 538.073V537.513C855.396 536.346 855.158 535.418 854.682 534.727C854.206 534.027 853.552 533.677 852.722 533.677C851.872 533.677 851.21 534.013 850.734 534.685C850.258 535.357 850.02 536.309 850.02 537.541V538.101C850.02 539.342 850.262 540.294 850.748 540.957C851.233 541.62 851.9 541.951 852.75 541.951ZM852.75 542.959C851.555 542.959 850.594 542.516 849.866 541.629C849.138 540.742 848.774 539.571 848.774 538.115V537.555C848.774 536.071 849.124 534.89 849.824 534.013C850.533 533.136 851.499 532.697 852.722 532.697C853.935 532.697 854.887 533.14 855.578 534.027C856.278 534.914 856.628 536.08 856.628 537.527V538.087C856.628 539.562 856.282 540.742 855.592 541.629C854.91 542.516 853.963 542.959 852.75 542.959Z" fill="white"/>
<path opacity="0.6" d="M5.412 413.383H3.384V418.819H2.388V413.383H0.36V412.543H5.412V413.383ZM12.3053 412.543H13.3013V418.819H12.3053V412.543ZM6.90534 412.543H7.90134V414.739H9.01734C9.72934 414.739 10.3053 414.899 10.7453 415.219C11.1933 415.539 11.4173 416.043 11.4173 416.731V416.767C11.4173 417.447 11.1933 417.959 10.7453 418.303C10.2973 418.647 9.72134 418.819 9.01734 418.819H6.90534V412.543ZM9.07734 418.027C9.54934 418.027 9.88934 417.927 10.0973 417.727C10.3133 417.519 10.4213 417.199 10.4213 416.767V416.731C10.4213 416.331 10.3173 416.031 10.1093 415.831C9.90134 415.623 9.55734 415.519 9.07734 415.519H7.90134V418.027H9.07734ZM18.1154 418.927C17.2194 418.927 16.4834 418.639 15.9074 418.063C15.3314 417.479 15.0434 416.707 15.0434 415.747V415.651C15.0434 414.707 15.3354 413.935 15.9194 413.335C16.5114 412.735 17.2354 412.435 18.0914 412.435C18.8114 412.435 19.4234 412.615 19.9274 412.975C20.4314 413.327 20.7274 413.879 20.8154 414.631H19.8314C19.6874 413.719 19.1074 413.263 18.0914 413.263C17.5074 413.263 17.0234 413.483 16.6394 413.923C16.2634 414.355 16.0754 414.931 16.0754 415.651V415.747C16.0754 416.499 16.2594 417.079 16.6274 417.487C17.0034 417.895 17.5034 418.099 18.1274 418.099C18.5994 418.099 19.0034 417.967 19.3394 417.703C19.6834 417.431 19.8794 417.051 19.9274 416.563H20.8514C20.7874 417.251 20.4994 417.819 19.9874 418.267C19.4834 418.707 18.8594 418.927 18.1154 418.927ZM25.7709 412.543H26.7669V413.599C26.9509 413.279 27.2389 413.007 27.6309 412.783C28.0229 412.551 28.4429 412.435 28.8909 412.435C29.7309 412.435 30.4149 412.719 30.9429 413.287C31.4789 413.855 31.7469 414.623 31.7469 415.591V415.687C31.7469 416.655 31.4829 417.439 30.9549 418.039C30.4349 418.631 29.7469 418.927 28.8909 418.927C27.9309 418.927 27.2229 418.547 26.7669 417.787V421.003H25.7709V412.543ZM28.7949 418.099C29.4189 418.099 29.8949 417.899 30.2229 417.499C30.5509 417.091 30.7149 416.503 30.7149 415.735V415.639C30.7149 414.879 30.5309 414.295 30.1629 413.887C29.8029 413.471 29.3429 413.263 28.7829 413.263C28.1749 413.263 27.6789 413.467 27.2949 413.875C26.9189 414.275 26.7309 414.863 26.7309 415.639V415.735C26.7309 416.511 26.9149 417.099 27.2829 417.499C27.6589 417.899 28.1629 418.099 28.7949 418.099ZM35.0492 418.171L32.5892 412.543H33.6572L35.5772 417.043L37.3172 412.543H38.3372L34.8692 421.003H33.8612L35.0492 418.171ZM42.3968 418.927C41.4528 418.927 40.7048 418.623 40.1528 418.015C39.6008 417.407 39.3248 416.483 39.3248 415.243V414.859C39.3248 414.267 39.3488 413.743 39.3968 413.287C39.4448 412.823 39.5448 412.359 39.6968 411.895C39.8488 411.423 40.0488 411.031 40.2968 410.719C40.5448 410.407 40.8808 410.147 41.3048 409.939C41.7368 409.731 42.2448 409.611 42.8288 409.579L43.0688 409.567C43.9488 409.519 44.5448 409.431 44.8568 409.303L44.9888 410.143C44.5808 410.319 43.9448 410.427 43.0808 410.467L42.9008 410.479C41.9328 410.527 41.2408 410.843 40.8248 411.427C40.4168 412.003 40.1768 412.899 40.1048 414.115H40.1528C40.3688 413.675 40.6888 413.327 41.1128 413.071C41.5448 412.807 42.0448 412.675 42.6128 412.675C43.4848 412.675 44.1808 412.959 44.7008 413.527C45.2288 414.087 45.4928 414.815 45.4928 415.711V415.759C45.4928 416.727 45.2008 417.499 44.6168 418.075C44.0408 418.643 43.3008 418.927 42.3968 418.927ZM40.8968 417.487C41.2648 417.895 41.7688 418.099 42.4088 418.099C43.0488 418.099 43.5488 417.899 43.9088 417.499C44.2768 417.091 44.4608 416.515 44.4608 415.771V415.747C44.4608 415.051 44.2928 414.503 43.9568 414.103C43.6288 413.703 43.1488 413.503 42.5168 413.503C41.8528 413.503 41.3248 413.711 40.9328 414.127C40.5488 414.543 40.3568 415.111 40.3568 415.831V415.855C40.3568 416.535 40.5368 417.079 40.8968 417.487Z" fill="white"/>
<path d="M20.2985 397.903C19.1145 397.903 18.2079 397.615 17.5785 397.039C16.9492 396.452 16.5865 395.663 16.4905 394.671H17.8185C17.9465 395.364 18.1865 395.892 18.5385 396.255C18.8905 396.607 19.4719 396.783 20.2825 396.783C21.0612 396.783 21.6745 396.537 22.1225 396.047C22.5705 395.556 22.7945 394.879 22.7945 394.015C22.7945 393.204 22.5759 392.559 22.1385 392.079C21.7119 391.588 21.1305 391.343 20.3945 391.343C19.7545 391.343 19.2265 391.433 18.8105 391.615C18.3945 391.796 18.0212 392.073 17.6905 392.447H17.1785V386.319H23.6105V387.519H18.3305V391.007C18.8959 390.484 19.6745 390.223 20.6665 390.223C21.7119 390.223 22.5652 390.569 23.2265 391.263C23.8879 391.945 24.2185 392.863 24.2185 394.015C24.2185 395.199 23.8452 396.143 23.0985 396.847C22.3519 397.551 21.4185 397.903 20.2985 397.903ZM30.9665 396.751C32.9825 396.751 33.9905 395.273 33.9905 392.319V391.679C33.9905 390.345 33.7185 389.284 33.1745 388.495C32.6305 387.695 31.8839 387.295 30.9345 387.295C29.9639 387.295 29.2065 387.679 28.6625 388.447C28.1185 389.215 27.8465 390.303 27.8465 391.711V392.351C27.8465 393.769 28.1239 394.857 28.6785 395.615C29.2332 396.372 29.9959 396.751 30.9665 396.751ZM30.9665 397.903C29.6012 397.903 28.5025 397.396 27.6705 396.383C26.8385 395.369 26.4225 394.031 26.4225 392.367V391.727C26.4225 390.031 26.8225 388.681 27.6225 387.679C28.4332 386.676 29.5372 386.175 30.9345 386.175C32.3212 386.175 33.4092 386.681 34.1985 387.695C34.9985 388.708 35.3985 390.041 35.3985 391.695V392.335C35.3985 394.02 35.0039 395.369 34.2145 396.383C33.4359 397.396 32.3532 397.903 30.9665 397.903ZM42.2203 396.751C44.2363 396.751 45.2443 395.273 45.2443 392.319V391.679C45.2443 390.345 44.9723 389.284 44.4283 388.495C43.8843 387.695 43.1376 387.295 42.1883 387.295C41.2176 387.295 40.4603 387.679 39.9163 388.447C39.3723 389.215 39.1003 390.303 39.1003 391.711V392.351C39.1003 393.769 39.3776 394.857 39.9323 395.615C40.487 396.372 41.2496 396.751 42.2203 396.751ZM42.2203 397.903C40.855 397.903 39.7563 397.396 38.9243 396.383C38.0923 395.369 37.6763 394.031 37.6763 392.367V391.727C37.6763 390.031 38.0763 388.681 38.8763 387.679C39.687 386.676 40.791 386.175 42.1883 386.175C43.575 386.175 44.663 386.681 45.4523 387.695C46.2523 388.708 46.6523 390.041 46.6523 391.695V392.335C46.6523 394.02 46.2576 395.369 45.4683 396.383C44.6896 397.396 43.607 397.903 42.2203 397.903Z" fill="white"/>
<path opacity="0.6" d="M5.412 342.058H3.384V347.494H2.388V342.058H0.36V341.218H5.412V342.058ZM12.3053 341.218H13.3013V347.494H12.3053V341.218ZM6.90534 341.218H7.90134V343.414H9.01734C9.72934 343.414 10.3053 343.574 10.7453 343.894C11.1933 344.214 11.4173 344.718 11.4173 345.406V345.442C11.4173 346.122 11.1933 346.634 10.7453 346.978C10.2973 347.322 9.72134 347.494 9.01734 347.494H6.90534V341.218ZM9.07734 346.702C9.54934 346.702 9.88934 346.602 10.0973 346.402C10.3133 346.194 10.4213 345.874 10.4213 345.442V345.406C10.4213 345.006 10.3173 344.706 10.1093 344.506C9.90134 344.298 9.55734 344.194 9.07734 344.194H7.90134V346.702H9.07734ZM18.1154 347.602C17.2194 347.602 16.4834 347.314 15.9074 346.738C15.3314 346.154 15.0434 345.382 15.0434 344.422V344.326C15.0434 343.382 15.3354 342.61 15.9194 342.01C16.5114 341.41 17.2354 341.11 18.0914 341.11C18.8114 341.11 19.4234 341.29 19.9274 341.65C20.4314 342.002 20.7274 342.554 20.8154 343.306H19.8314C19.6874 342.394 19.1074 341.938 18.0914 341.938C17.5074 341.938 17.0234 342.158 16.6394 342.598C16.2634 343.03 16.0754 343.606 16.0754 344.326V344.422C16.0754 345.174 16.2594 345.754 16.6274 346.162C17.0034 346.57 17.5034 346.774 18.1274 346.774C18.5994 346.774 19.0034 346.642 19.3394 346.378C19.6834 346.106 19.8794 345.726 19.9274 345.238H20.8514C20.7874 345.926 20.4994 346.494 19.9874 346.942C19.4834 347.382 18.8594 347.602 18.1154 347.602ZM25.7709 341.218H26.7669V342.274C26.9509 341.954 27.2389 341.682 27.6309 341.458C28.0229 341.226 28.4429 341.11 28.8909 341.11C29.7309 341.11 30.4149 341.394 30.9429 341.962C31.4789 342.53 31.7469 343.298 31.7469 344.266V344.362C31.7469 345.33 31.4829 346.114 30.9549 346.714C30.4349 347.306 29.7469 347.602 28.8909 347.602C27.9309 347.602 27.2229 347.222 26.7669 346.462V349.678H25.7709V341.218ZM28.7949 346.774C29.4189 346.774 29.8949 346.574 30.2229 346.174C30.5509 345.766 30.7149 345.178 30.7149 344.41V344.314C30.7149 343.554 30.5309 342.97 30.1629 342.562C29.8029 342.146 29.3429 341.938 28.7829 341.938C28.1749 341.938 27.6789 342.142 27.2949 342.55C26.9189 342.95 26.7309 343.538 26.7309 344.314V344.41C26.7309 345.186 26.9149 345.774 27.2829 346.174C27.6589 346.574 28.1629 346.774 28.7949 346.774ZM35.0492 346.846L32.5892 341.218H33.6572L35.5772 345.718L37.3172 341.218H38.3372L34.8692 349.678H33.8612L35.0492 346.846ZM42.3968 347.602C41.4528 347.602 40.7048 347.298 40.1528 346.69C39.6008 346.082 39.3248 345.158 39.3248 343.918V343.534C39.3248 342.942 39.3488 342.418 39.3968 341.962C39.4448 341.498 39.5448 341.034 39.6968 340.57C39.8488 340.098 40.0488 339.706 40.2968 339.394C40.5448 339.082 40.8808 338.822 41.3048 338.614C41.7368 338.406 42.2448 338.286 42.8288 338.254L43.0688 338.242C43.9488 338.194 44.5448 338.106 44.8568 337.978L44.9888 338.818C44.5808 338.994 43.9448 339.102 43.0808 339.142L42.9008 339.154C41.9328 339.202 41.2408 339.518 40.8248 340.102C40.4168 340.678 40.1768 341.574 40.1048 342.79H40.1528C40.3688 342.35 40.6888 342.002 41.1128 341.746C41.5448 341.482 42.0448 341.35 42.6128 341.35C43.4848 341.35 44.1808 341.634 44.7008 342.202C45.2288 342.762 45.4928 343.49 45.4928 344.386V344.434C45.4928 345.402 45.2008 346.174 44.6168 346.75C44.0408 347.318 43.3008 347.602 42.3968 347.602ZM40.8968 346.162C41.2648 346.57 41.7688 346.774 42.4088 346.774C43.0488 346.774 43.5488 346.574 43.9088 346.174C44.2768 345.766 44.4608 345.19 44.4608 344.446V344.422C44.4608 343.726 44.2928 343.178 43.9568 342.778C43.6288 342.378 43.1488 342.178 42.5168 342.178C41.8528 342.178 41.3248 342.386 40.9328 342.802C40.5488 343.218 40.3568 343.786 40.3568 344.506V344.53C40.3568 345.21 40.5368 345.754 40.8968 346.162Z" fill="white"/>
<path d="M22.3928 326.578C21.2088 326.578 20.3021 326.29 19.6728 325.714C19.0434 325.127 18.6808 324.338 18.5848 323.346H19.9128C20.0408 324.039 20.2808 324.567 20.6328 324.93C20.9848 325.282 21.5661 325.458 22.3768 325.458C23.1554 325.458 23.7688 325.212 24.2168 324.722C24.6648 324.231 24.8888 323.554 24.8888 322.69C24.8888 321.879 24.6701 321.234 24.2328 320.754C23.8061 320.263 23.2248 320.018 22.4888 320.018C21.8488 320.018 21.3208 320.108 20.9048 320.29C20.4888 320.471 20.1154 320.748 19.7848 321.122H19.2728V314.994H25.7048V316.194H20.4248V319.682C20.9901 319.159 21.7688 318.898 22.7608 318.898C23.8061 318.898 24.6594 319.244 25.3208 319.938C25.9821 320.62 26.3128 321.538 26.3128 322.69C26.3128 323.874 25.9394 324.818 25.1928 325.522C24.4461 326.226 23.5128 326.578 22.3928 326.578ZM31.9747 326.578C30.7907 326.578 29.884 326.29 29.2547 325.714C28.6253 325.127 28.2627 324.338 28.1667 323.346H29.4947C29.6227 324.039 29.8627 324.567 30.2147 324.93C30.5667 325.282 31.148 325.458 31.9587 325.458C32.7373 325.458 33.3507 325.212 33.7987 324.722C34.2467 324.231 34.4707 323.554 34.4707 322.69C34.4707 321.879 34.252 321.234 33.8147 320.754C33.388 320.263 32.8067 320.018 32.0707 320.018C31.4307 320.018 30.9027 320.108 30.4867 320.29C30.0707 320.471 29.6973 320.748 29.3667 321.122H28.8547V314.994H35.2867V316.194H30.0067V319.682C30.572 319.159 31.3507 318.898 32.3427 318.898C33.388 318.898 34.2413 319.244 34.9027 319.938C35.564 320.62 35.8947 321.538 35.8947 322.69C35.8947 323.874 35.5213 324.818 34.7747 325.522C34.028 326.226 33.0947 326.578 31.9747 326.578ZM42.6427 325.426C44.6587 325.426 45.6667 323.948 45.6667 320.994V320.354C45.6667 319.02 45.3947 317.959 44.8507 317.17C44.3067 316.37 43.56 315.97 42.6107 315.97C41.64 315.97 40.8827 316.354 40.3387 317.122C39.7947 317.89 39.5227 318.978 39.5227 320.386V321.026C39.5227 322.444 39.8 323.532 40.3547 324.29C40.9093 325.047 41.672 325.426 42.6427 325.426ZM42.6427 326.578C41.2773 326.578 40.1787 326.071 39.3467 325.058C38.5147 324.044 38.0987 322.706 38.0987 321.042V320.402C38.0987 318.706 38.4987 317.356 39.2987 316.354C40.1093 315.351 41.2133 314.85 42.6107 314.85C43.9973 314.85 45.0853 315.356 45.8747 316.37C46.6747 317.383 47.0747 318.716 47.0747 320.37V321.01C47.0747 322.695 46.68 324.044 45.8907 325.058C45.112 326.071 44.0293 326.578 42.6427 326.578Z" fill="white"/>
<circle cx="321.54" cy="304.331" r="5.5" fill="#F1D5C0"/>
<circle cx="199.216" cy="404.645" r="5.5" fill="#F1D5C0"/>
<circle cx="439.864" cy="240.717" r="5.5" fill="#F1D5C0"/>
<circle cx="560.659" cy="186.813" r="5.5" fill="#F1D5C0"/>
<circle cx="682.983" cy="121.271" r="5.5" fill="#F1D5C0"/>
<circle cx="806.542" cy="39.5" r="5.5" fill="#F1D5C0"/>
<path opacity="0.6" d="M5.412 128.083H3.384V133.519H2.388V128.083H0.36V127.243H5.412V128.083ZM12.3053 127.243H13.3013V133.519H12.3053V127.243ZM6.90534 127.243H7.90134V129.439H9.01734C9.72934 129.439 10.3053 129.599 10.7453 129.919C11.1933 130.239 11.4173 130.743 11.4173 131.431V131.467C11.4173 132.147 11.1933 132.659 10.7453 133.003C10.2973 133.347 9.72134 133.519 9.01734 133.519H6.90534V127.243ZM9.07734 132.727C9.54934 132.727 9.88934 132.627 10.0973 132.427C10.3133 132.219 10.4213 131.899 10.4213 131.467V131.431C10.4213 131.031 10.3173 130.731 10.1093 130.531C9.90134 130.323 9.55734 130.219 9.07734 130.219H7.90134V132.727H9.07734ZM18.1154 133.627C17.2194 133.627 16.4834 133.339 15.9074 132.763C15.3314 132.179 15.0434 131.407 15.0434 130.447V130.351C15.0434 129.407 15.3354 128.635 15.9194 128.035C16.5114 127.435 17.2354 127.135 18.0914 127.135C18.8114 127.135 19.4234 127.315 19.9274 127.675C20.4314 128.027 20.7274 128.579 20.8154 129.331H19.8314C19.6874 128.419 19.1074 127.963 18.0914 127.963C17.5074 127.963 17.0234 128.183 16.6394 128.623C16.2634 129.055 16.0754 129.631 16.0754 130.351V130.447C16.0754 131.199 16.2594 131.779 16.6274 132.187C17.0034 132.595 17.5034 132.799 18.1274 132.799C18.5994 132.799 19.0034 132.667 19.3394 132.403C19.6834 132.131 19.8794 131.751 19.9274 131.263H20.8514C20.7874 131.951 20.4994 132.519 19.9874 132.967C19.4834 133.407 18.8594 133.627 18.1154 133.627ZM25.7709 127.243H26.7669V128.299C26.9509 127.979 27.2389 127.707 27.6309 127.483C28.0229 127.251 28.4429 127.135 28.8909 127.135C29.7309 127.135 30.4149 127.419 30.9429 127.987C31.4789 128.555 31.7469 129.323 31.7469 130.291V130.387C31.7469 131.355 31.4829 132.139 30.9549 132.739C30.4349 133.331 29.7469 133.627 28.8909 133.627C27.9309 133.627 27.2229 133.247 26.7669 132.487V135.703H25.7709V127.243ZM28.7949 132.799C29.4189 132.799 29.8949 132.599 30.2229 132.199C30.5509 131.791 30.7149 131.203 30.7149 130.435V130.339C30.7149 129.579 30.5309 128.995 30.1629 128.587C29.8029 128.171 29.3429 127.963 28.7829 127.963C28.1749 127.963 27.6789 128.167 27.2949 128.575C26.9189 128.975 26.7309 129.563 26.7309 130.339V130.435C26.7309 131.211 26.9149 131.799 27.2829 132.199C27.6589 132.599 28.1629 132.799 28.7949 132.799ZM35.0492 132.871L32.5892 127.243H33.6572L35.5772 131.743L37.3172 127.243H38.3372L34.8692 135.703H33.8612L35.0492 132.871ZM42.3968 133.627C41.4528 133.627 40.7048 133.323 40.1528 132.715C39.6008 132.107 39.3248 131.183 39.3248 129.943V129.559C39.3248 128.967 39.3488 128.443 39.3968 127.987C39.4448 127.523 39.5448 127.059 39.6968 126.595C39.8488 126.123 40.0488 125.731 40.2968 125.419C40.5448 125.107 40.8808 124.847 41.3048 124.639C41.7368 124.431 42.2448 124.311 42.8288 124.279L43.0688 124.267C43.9488 124.219 44.5448 124.131 44.8568 124.003L44.9888 124.843C44.5808 125.019 43.9448 125.127 43.0808 125.167L42.9008 125.179C41.9328 125.227 41.2408 125.543 40.8248 126.127C40.4168 126.703 40.1768 127.599 40.1048 128.815H40.1528C40.3688 128.375 40.6888 128.027 41.1128 127.771C41.5448 127.507 42.0448 127.375 42.6128 127.375C43.4848 127.375 44.1808 127.659 44.7008 128.227C45.2288 128.787 45.4928 129.515 45.4928 130.411V130.459C45.4928 131.427 45.2008 132.199 44.6168 132.775C44.0408 133.343 43.3008 133.627 42.3968 133.627ZM40.8968 132.187C41.2648 132.595 41.7688 132.799 42.4088 132.799C43.0488 132.799 43.5488 132.599 43.9088 132.199C44.2768 131.791 44.4608 131.215 44.4608 130.471V130.447C44.4608 129.751 44.2928 129.203 43.9568 128.803C43.6288 128.403 43.1488 128.203 42.5168 128.203C41.8528 128.203 41.3248 128.411 40.9328 128.827C40.5488 129.243 40.3568 129.811 40.3568 130.531V130.555C40.3568 131.235 40.5368 131.779 40.8968 132.187Z" fill="white"/>
<path d="M21.0757 104.993H15.2677V103.873H22.8037V104.065L18.5157 115.313H17.0917L21.0757 104.993ZM28.779 114.305C30.795 114.305 31.803 112.828 31.803 109.873V109.233C31.803 107.9 31.531 106.839 30.987 106.049C30.443 105.249 29.6964 104.849 28.747 104.849C27.7764 104.849 27.019 105.233 26.475 106.001C25.931 106.769 25.659 107.857 25.659 109.265V109.905C25.659 111.324 25.9364 112.412 26.491 113.169C27.0457 113.927 27.8084 114.305 28.779 114.305ZM28.779 115.457C27.4137 115.457 26.315 114.951 25.483 113.937C24.651 112.924 24.235 111.585 24.235 109.921V109.281C24.235 107.585 24.635 106.236 25.435 105.233C26.2457 104.231 27.3497 103.729 28.747 103.729C30.1337 103.729 31.2217 104.236 32.011 105.249C32.811 106.263 33.211 107.596 33.211 109.249V109.889C33.211 111.575 32.8164 112.924 32.027 113.937C31.2484 114.951 30.1657 115.457 28.779 115.457ZM40.0328 114.305C42.0488 114.305 43.0568 112.828 43.0568 109.873V109.233C43.0568 107.9 42.7848 106.839 42.2408 106.049C41.6968 105.249 40.9501 104.849 40.0008 104.849C39.0301 104.849 38.2728 105.233 37.7288 106.001C37.1848 106.769 36.9128 107.857 36.9128 109.265V109.905C36.9128 111.324 37.1901 112.412 37.7448 113.169C38.2995 113.927 39.0621 114.305 40.0328 114.305ZM40.0328 115.457C38.6675 115.457 37.5688 114.951 36.7368 113.937C35.9048 112.924 35.4888 111.585 35.4888 109.921V109.281C35.4888 107.585 35.8888 106.236 36.6888 105.233C37.4995 104.231 38.6035 103.729 40.0008 103.729C41.3875 103.729 42.4755 104.236 43.2648 105.249C44.0648 106.263 44.4648 107.596 44.4648 109.249V109.889C44.4648 111.575 44.0701 112.924 43.2808 113.937C42.5021 114.951 41.4195 115.457 40.0328 115.457Z" fill="white"/>
<path opacity="0.6" d="M5.412 60.6119H3.384V66.0479H2.388V60.6119H0.36V59.7719H5.412V60.6119ZM12.3053 59.7719H13.3013V66.0479H12.3053V59.7719ZM6.90534 59.7719H7.90134V61.9679H9.01734C9.72934 61.9679 10.3053 62.1279 10.7453 62.4479C11.1933 62.7679 11.4173 63.2719 11.4173 63.9599V63.9959C11.4173 64.6759 11.1933 65.1879 10.7453 65.5319C10.2973 65.8759 9.72134 66.0479 9.01734 66.0479H6.90534V59.7719ZM9.07734 65.2559C9.54934 65.2559 9.88934 65.1559 10.0973 64.9559C10.3133 64.7479 10.4213 64.4279 10.4213 63.9959V63.9599C10.4213 63.5599 10.3173 63.2599 10.1093 63.0599C9.90134 62.8519 9.55734 62.7479 9.07734 62.7479H7.90134V65.2559H9.07734ZM18.1154 66.1559C17.2194 66.1559 16.4834 65.8679 15.9074 65.2919C15.3314 64.7079 15.0434 63.9359 15.0434 62.9759V62.8799C15.0434 61.9359 15.3354 61.1639 15.9194 60.5639C16.5114 59.9639 17.2354 59.6639 18.0914 59.6639C18.8114 59.6639 19.4234 59.8439 19.9274 60.2039C20.4314 60.5559 20.7274 61.1079 20.8154 61.8599H19.8314C19.6874 60.9479 19.1074 60.4919 18.0914 60.4919C17.5074 60.4919 17.0234 60.7119 16.6394 61.1519C16.2634 61.5839 16.0754 62.1599 16.0754 62.8799V62.9759C16.0754 63.7279 16.2594 64.3079 16.6274 64.7159C17.0034 65.1239 17.5034 65.3279 18.1274 65.3279C18.5994 65.3279 19.0034 65.1959 19.3394 64.9319C19.6834 64.6599 19.8794 64.2799 19.9274 63.7919H20.8514C20.7874 64.4799 20.4994 65.0479 19.9874 65.4959C19.4834 65.9359 18.8594 66.1559 18.1154 66.1559ZM25.7709 59.7719H26.7669V60.8279C26.9509 60.5079 27.2389 60.2359 27.6309 60.0119C28.0229 59.7799 28.4429 59.6639 28.8909 59.6639C29.7309 59.6639 30.4149 59.9479 30.9429 60.5159C31.4789 61.0839 31.7469 61.8519 31.7469 62.8199V62.9159C31.7469 63.8839 31.4829 64.6679 30.9549 65.2679C30.4349 65.8599 29.7469 66.1559 28.8909 66.1559C27.9309 66.1559 27.2229 65.7759 26.7669 65.0159V68.2319H25.7709V59.7719ZM28.7949 65.3279C29.4189 65.3279 29.8949 65.1279 30.2229 64.7279C30.5509 64.3199 30.7149 63.7319 30.7149 62.9639V62.8679C30.7149 62.1079 30.5309 61.5239 30.1629 61.1159C29.8029 60.6999 29.3429 60.4919 28.7829 60.4919C28.1749 60.4919 27.6789 60.6959 27.2949 61.1039C26.9189 61.5039 26.7309 62.0919 26.7309 62.8679V62.9639C26.7309 63.7399 26.9149 64.3279 27.2829 64.7279C27.6589 65.1279 28.1629 65.3279 28.7949 65.3279ZM35.0492 65.3999L32.5892 59.7719H33.6572L35.5772 64.2719L37.3172 59.7719H38.3372L34.8692 68.2319H33.8612L35.0492 65.3999ZM42.3968 66.1559C41.4528 66.1559 40.7048 65.8519 40.1528 65.2439C39.6008 64.6359 39.3248 63.7119 39.3248 62.4719V62.0879C39.3248 61.4959 39.3488 60.9719 39.3968 60.5159C39.4448 60.0519 39.5448 59.5879 39.6968 59.1239C39.8488 58.6519 40.0488 58.2599 40.2968 57.9479C40.5448 57.6359 40.8808 57.3759 41.3048 57.1679C41.7368 56.9599 42.2448 56.8399 42.8288 56.8079L43.0688 56.7959C43.9488 56.7479 44.5448 56.6599 44.8568 56.5319L44.9888 57.3719C44.5808 57.5479 43.9448 57.6559 43.0808 57.6959L42.9008 57.7079C41.9328 57.7559 41.2408 58.0719 40.8248 58.6559C40.4168 59.2319 40.1768 60.1279 40.1048 61.3439H40.1528C40.3688 60.9039 40.6888 60.5559 41.1128 60.2999C41.5448 60.0359 42.0448 59.9039 42.6128 59.9039C43.4848 59.9039 44.1808 60.1879 44.7008 60.7559C45.2288 61.3159 45.4928 62.0439 45.4928 62.9399V62.9879C45.4928 63.9559 45.2008 64.7279 44.6168 65.3039C44.0408 65.8719 43.3008 66.1559 42.3968 66.1559ZM40.8968 64.7159C41.2648 65.1239 41.7688 65.3279 42.4088 65.3279C43.0488 65.3279 43.5488 65.1279 43.9088 64.7279C44.2768 64.3199 44.4608 63.7439 44.4608 62.9999V62.9759C44.4608 62.2799 44.2928 61.7319 43.9568 61.3319C43.6288 60.9319 43.1488 60.7319 42.5168 60.7319C41.8528 60.7319 41.3248 60.9399 40.9328 61.3559C40.5488 61.7719 40.3568 62.3399 40.3568 63.0599V63.0839C40.3568 63.7639 40.5368 64.3079 40.8968 64.7159Z" fill="white"/>
<path d="M21.0757 37.5237H15.2677V36.4037H22.8037V36.5957L18.5157 47.8438H17.0917L21.0757 37.5237ZM28.0054 47.9878C26.8214 47.9878 25.9148 47.6997 25.2854 47.1237C24.6561 46.5371 24.2934 45.7477 24.1974 44.7557H25.5254C25.6534 45.4491 25.8934 45.9771 26.2454 46.3397C26.5974 46.6917 27.1788 46.8677 27.9894 46.8677C28.7681 46.8677 29.3814 46.6224 29.8294 46.1317C30.2774 45.6411 30.5014 44.9637 30.5014 44.0997C30.5014 43.2891 30.2828 42.6437 29.8454 42.1637C29.4188 41.6731 28.8374 41.4277 28.1014 41.4277C27.4614 41.4277 26.9334 41.5184 26.5174 41.6997C26.1014 41.8811 25.7281 42.1584 25.3974 42.5317H24.8854V36.4037H31.3174V37.6037H26.0374V41.0917C26.6028 40.5691 27.3814 40.3077 28.3734 40.3077C29.4188 40.3077 30.2721 40.6544 30.9334 41.3477C31.5948 42.0304 31.9254 42.9477 31.9254 44.0997C31.9254 45.2837 31.5521 46.2277 30.8054 46.9317C30.0588 47.6357 29.1254 47.9878 28.0054 47.9878ZM38.6734 46.8357C40.6894 46.8357 41.6974 45.3584 41.6974 42.4037V41.7637C41.6974 40.4304 41.4254 39.3691 40.8814 38.5797C40.3374 37.7797 39.5908 37.3797 38.6414 37.3797C37.6708 37.3797 36.9134 37.7637 36.3694 38.5317C35.8254 39.2997 35.5534 40.3877 35.5534 41.7957V42.4357C35.5534 43.8544 35.8308 44.9424 36.3854 45.6997C36.9401 46.4571 37.7028 46.8357 38.6734 46.8357ZM38.6734 47.9878C37.3081 47.9878 36.2094 47.4811 35.3774 46.4677C34.5454 45.4544 34.1294 44.1157 34.1294 42.4517V41.8117C34.1294 40.1157 34.5294 38.7664 35.3294 37.7637C36.1401 36.7611 37.2441 36.2597 38.6414 36.2597C40.0281 36.2597 41.1161 36.7664 41.9054 37.7797C42.7054 38.7931 43.1054 40.1264 43.1054 41.7797V42.4197C43.1054 44.1051 42.7108 45.4544 41.9214 46.4677C41.1428 47.4811 40.0601 47.9878 38.6734 47.9878Z" fill="white"/>
<rect opacity="0.3" x="199" y="401" width="1" height="142" fill="#F1D5C0"/>
<rect opacity="0.3" x="321" y="303" width="1" height="240" fill="#F1D5C0"/>
<rect opacity="0.3" x="440" y="241" width="1" height="302" fill="#F1D5C0"/>
<rect opacity="0.3" x="560" y="186" width="1" height="357" fill="#F1D5C0"/>
<rect opacity="0.3" x="683" y="122" width="1" height="421" fill="#F1D5C0"/>
<rect opacity="0.3" x="806" y="39" width="1" height="504" fill="#F1D5C0"/>
<path d="M98 510.5L202.952 401.964L321.276 304.133L440.647 240.036L568.918 184.614L688.289 119.554L811.5 38L882.005 1" stroke="url(#paint0_radial)"/>
<defs>
<radialGradient id="paint0_radial" cx="0" cy="0" r="1" gradientUnits="userSpaceOnUse" gradientTransform="translate(508 241) rotate(70.2151) scale(308.724 481.413)">
<stop stop-color="#F1D5C0"/>
<stop offset="1" stop-color="#F1D5C0" stop-opacity="0"/>
</radialGradient>
</defs>
</svg>
