<svg width="619" height="381" viewBox="0 0 619 381" fill="none" xmlns="http://www.w3.org/2000/svg">
<path opacity="0.6" d="M577.008 357.455V351.179H578.004V356.015L581.208 351.179H582.204V357.455H581.208V352.619L578.004 357.455H577.008ZM589.102 357.563C588.302 357.563 587.638 357.315 587.11 356.819C586.59 356.323 586.282 355.671 586.186 354.863C586.17 354.751 586.162 354.683 586.162 354.659H585.214V357.455H584.218V351.179H585.214V353.819H586.174C586.27 352.987 586.578 352.323 587.098 351.827C587.626 351.323 588.298 351.071 589.114 351.071C590.002 351.071 590.718 351.367 591.262 351.959C591.806 352.551 592.078 353.319 592.078 354.263V354.359C592.078 355.311 591.802 356.083 591.25 356.675C590.706 357.267 589.99 357.563 589.102 357.563ZM589.114 356.735C589.73 356.735 590.206 356.523 590.542 356.099C590.878 355.675 591.046 355.099 591.046 354.371V354.287C591.046 353.551 590.878 352.971 590.542 352.547C590.206 352.115 589.73 351.899 589.114 351.899C588.49 351.899 588.01 352.111 587.674 352.535C587.346 352.959 587.182 353.539 587.182 354.275V354.371C587.182 355.107 587.346 355.687 587.674 356.111C588.002 356.527 588.482 356.735 589.114 356.735ZM594.889 355.031C594.817 355.895 594.665 356.527 594.433 356.927C594.201 357.319 593.837 357.515 593.341 357.515C593.237 357.515 593.129 357.507 593.017 357.491L592.921 357.455V356.507L593.005 356.531C593.085 356.547 593.169 356.555 593.257 356.555C593.385 356.555 593.489 356.519 593.569 356.447C593.657 356.367 593.725 356.243 593.773 356.075C593.829 355.907 593.869 355.751 593.893 355.607C593.917 355.455 593.945 355.243 593.977 354.971C594.009 354.683 594.057 353.867 594.121 352.523L594.157 351.179H598.297V357.455H597.301V352.019H595.045C594.973 353.747 594.921 354.751 594.889 355.031ZM600.431 351.179H601.427V353.375H602.543C603.247 353.375 603.823 353.547 604.271 353.891C604.719 354.235 604.943 354.747 604.943 355.427V355.463C604.943 356.151 604.719 356.655 604.271 356.975C603.831 357.295 603.255 357.455 602.543 357.455H600.431V351.179ZM602.603 356.675C603.083 356.675 603.427 356.575 603.635 356.375C603.843 356.167 603.947 355.863 603.947 355.463V355.427C603.947 354.995 603.839 354.679 603.623 354.479C603.415 354.271 603.075 354.167 602.603 354.167H601.427V356.675H602.603Z" fill="white"/>
<path d="M576.35 375.386L580.326 371.2C581.287 370.183 581.768 369.217 581.768 368.302C581.768 367.742 581.609 367.303 581.292 366.986C580.984 366.669 580.545 366.51 579.976 366.51C578.763 366.51 578.058 367.252 577.862 368.736H576.728C576.803 367.747 577.125 366.967 577.694 366.398C578.273 365.819 579.033 365.53 579.976 365.53C580.9 365.53 581.633 365.787 582.174 366.3C582.725 366.804 583 367.485 583 368.344C583 369.445 582.328 370.659 580.984 371.984L578.226 374.672H583.056V375.666H576.35V375.386ZM588.901 374.784C590.665 374.784 591.547 373.491 591.547 370.906V370.346C591.547 369.179 591.309 368.251 590.833 367.56C590.357 366.86 589.704 366.51 588.873 366.51C588.024 366.51 587.361 366.846 586.885 367.518C586.409 368.19 586.171 369.142 586.171 370.374V370.934C586.171 372.175 586.414 373.127 586.899 373.79C587.385 374.453 588.052 374.784 588.901 374.784ZM588.901 375.792C587.707 375.792 586.745 375.349 586.017 374.462C585.289 373.575 584.925 372.404 584.925 370.948V370.388C584.925 368.904 585.275 367.723 585.975 366.846C586.685 365.969 587.651 365.53 588.873 365.53C590.087 365.53 591.039 365.973 591.729 366.86C592.429 367.747 592.779 368.913 592.779 370.36V370.92C592.779 372.395 592.434 373.575 591.743 374.462C591.062 375.349 590.115 375.792 588.901 375.792ZM594.198 375.386L598.174 371.2C599.136 370.183 599.616 369.217 599.616 368.302C599.616 367.742 599.458 367.303 599.14 366.986C598.832 366.669 598.394 366.51 597.824 366.51C596.611 366.51 595.906 367.252 595.71 368.736H594.576C594.651 367.747 594.973 366.967 595.542 366.398C596.121 365.819 596.882 365.53 597.824 365.53C598.748 365.53 599.481 365.787 600.022 366.3C600.573 366.804 600.848 367.485 600.848 368.344C600.848 369.445 600.176 370.659 598.832 371.984L596.074 374.672H600.904V375.666H594.198V375.386ZM606.75 374.784C608.514 374.784 609.396 373.491 609.396 370.906V370.346C609.396 369.179 609.158 368.251 608.682 367.56C608.206 366.86 607.552 366.51 606.722 366.51C605.872 366.51 605.21 366.846 604.734 367.518C604.258 368.19 604.02 369.142 604.02 370.374V370.934C604.02 372.175 604.262 373.127 604.748 373.79C605.233 374.453 605.9 374.784 606.75 374.784ZM606.75 375.792C605.555 375.792 604.594 375.349 603.866 374.462C603.138 373.575 602.774 372.404 602.774 370.948V370.388C602.774 368.904 603.124 367.723 603.824 366.846C604.533 365.969 605.499 365.53 606.722 365.53C607.935 365.53 608.887 365.973 609.578 366.86C610.278 367.747 610.628 368.913 610.628 370.36V370.92C610.628 372.395 610.282 373.575 609.592 374.462C608.91 375.349 607.963 375.792 606.75 375.792Z" fill="white"/>
<path d="M21.448 191.6H15.72V191.152L20.952 182.56H22.808V190.464H24.392V191.6H22.808V194H21.448V191.6ZM21.448 190.464V183.616L17.48 190.464H21.448ZM30.3905 194.144C27.6492 194.144 26.2785 192.411 26.2785 188.944V188.672C26.2785 186.667 26.6838 185.125 27.4945 184.048C28.3158 182.96 29.4038 182.416 30.7585 182.416C31.6758 182.416 32.4225 182.651 32.9985 183.12C33.5852 183.589 33.9532 184.277 34.1025 185.184H32.7745C32.6465 184.629 32.4172 184.219 32.0865 183.952C31.7558 183.685 31.2812 183.552 30.6625 183.552C29.7772 183.552 29.0625 183.947 28.5185 184.736C27.9745 185.525 27.6865 186.656 27.6545 188.128C28.2732 187.093 29.2545 186.576 30.5985 186.576C31.7185 186.576 32.6198 186.933 33.3025 187.648C33.9958 188.352 34.3425 189.243 34.3425 190.32C34.3425 191.472 33.9852 192.4 33.2705 193.104C32.5558 193.797 31.5958 194.144 30.3905 194.144ZM30.3905 193.056C31.1372 193.056 31.7452 192.811 32.2145 192.32C32.6838 191.829 32.9185 191.184 32.9185 190.384C32.9185 189.552 32.6892 188.891 32.2305 188.4C31.7718 187.909 31.1532 187.664 30.3745 187.664C29.6065 187.664 28.9772 187.899 28.4865 188.368C27.9958 188.837 27.7505 189.445 27.7505 190.192C27.7505 191.099 27.9905 191.803 28.4705 192.304C28.9612 192.805 29.6012 193.056 30.3905 193.056ZM40.9981 192.992C43.0141 192.992 44.0221 191.515 44.0221 188.56V187.92C44.0221 186.587 43.7501 185.525 43.2061 184.736C42.6621 183.936 41.9155 183.536 40.9661 183.536C39.9955 183.536 39.2381 183.92 38.6941 184.688C38.1501 185.456 37.8781 186.544 37.8781 187.952V188.592C37.8781 190.011 38.1555 191.099 38.7101 191.856C39.2648 192.613 40.0275 192.992 40.9981 192.992ZM40.9981 194.144C39.6328 194.144 38.5341 193.637 37.7021 192.624C36.8701 191.611 36.4541 190.272 36.4541 188.608V187.968C36.4541 186.272 36.8541 184.923 37.6541 183.92C38.4648 182.917 39.5688 182.416 40.9661 182.416C42.3528 182.416 43.4408 182.923 44.2301 183.936C45.0301 184.949 45.4301 186.283 45.4301 187.936V188.576C45.4301 190.261 45.0355 191.611 44.2461 192.624C43.4675 193.637 42.3848 194.144 40.9981 194.144Z" fill="white"/>
<path opacity="0.6" d="M5.412 204.564H3.384V210H2.388V204.564H0.36V203.724H5.412V204.564ZM12.3053 203.724H13.3013V210H12.3053V203.724ZM6.90534 203.724H7.90134V205.92H9.01734C9.72934 205.92 10.3053 206.08 10.7453 206.4C11.1933 206.72 11.4173 207.224 11.4173 207.912V207.948C11.4173 208.628 11.1933 209.14 10.7453 209.484C10.2973 209.828 9.72134 210 9.01734 210H6.90534V203.724ZM9.07734 209.208C9.54934 209.208 9.88934 209.108 10.0973 208.908C10.3133 208.7 10.4213 208.38 10.4213 207.948V207.912C10.4213 207.512 10.3173 207.212 10.1093 207.012C9.90134 206.804 9.55734 206.7 9.07734 206.7H7.90134V209.208H9.07734ZM18.1154 210.108C17.2194 210.108 16.4834 209.82 15.9074 209.244C15.3314 208.66 15.0434 207.888 15.0434 206.928V206.832C15.0434 205.888 15.3354 205.116 15.9194 204.516C16.5114 203.916 17.2354 203.616 18.0914 203.616C18.8114 203.616 19.4234 203.796 19.9274 204.156C20.4314 204.508 20.7274 205.06 20.8154 205.812H19.8314C19.6874 204.9 19.1074 204.444 18.0914 204.444C17.5074 204.444 17.0234 204.664 16.6394 205.104C16.2634 205.536 16.0754 206.112 16.0754 206.832V206.928C16.0754 207.68 16.2594 208.26 16.6274 208.668C17.0034 209.076 17.5034 209.28 18.1274 209.28C18.5994 209.28 19.0034 209.148 19.3394 208.884C19.6834 208.612 19.8794 208.232 19.9274 207.744H20.8514C20.7874 208.432 20.4994 209 19.9874 209.448C19.4834 209.888 18.8594 210.108 18.1154 210.108ZM25.7709 203.724H26.7669V204.78C26.9509 204.46 27.2389 204.188 27.6309 203.964C28.0229 203.732 28.4429 203.616 28.8909 203.616C29.7309 203.616 30.4149 203.9 30.9429 204.468C31.4789 205.036 31.7469 205.804 31.7469 206.772V206.868C31.7469 207.836 31.4829 208.62 30.9549 209.22C30.4349 209.812 29.7469 210.108 28.8909 210.108C27.9309 210.108 27.2229 209.728 26.7669 208.968V212.184H25.7709V203.724ZM28.7949 209.28C29.4189 209.28 29.8949 209.08 30.2229 208.68C30.5509 208.272 30.7149 207.684 30.7149 206.916V206.82C30.7149 206.06 30.5309 205.476 30.1629 205.068C29.8029 204.652 29.3429 204.444 28.7829 204.444C28.1749 204.444 27.6789 204.648 27.2949 205.056C26.9189 205.456 26.7309 206.044 26.7309 206.82V206.916C26.7309 207.692 26.9149 208.28 27.2829 208.68C27.6589 209.08 28.1629 209.28 28.7949 209.28ZM35.0492 209.352L32.5892 203.724H33.6572L35.5772 208.224L37.3172 203.724H38.3372L34.8692 212.184H33.8612L35.0492 209.352ZM42.3968 210.108C41.4528 210.108 40.7048 209.804 40.1528 209.196C39.6008 208.588 39.3248 207.664 39.3248 206.424V206.04C39.3248 205.448 39.3488 204.924 39.3968 204.468C39.4448 204.004 39.5448 203.54 39.6968 203.076C39.8488 202.604 40.0488 202.212 40.2968 201.9C40.5448 201.588 40.8808 201.328 41.3048 201.12C41.7368 200.912 42.2448 200.792 42.8288 200.76L43.0688 200.748C43.9488 200.7 44.5448 200.612 44.8568 200.484L44.9888 201.324C44.5808 201.5 43.9448 201.608 43.0808 201.648L42.9008 201.66C41.9328 201.708 41.2408 202.024 40.8248 202.608C40.4168 203.184 40.1768 204.08 40.1048 205.296H40.1528C40.3688 204.856 40.6888 204.508 41.1128 204.252C41.5448 203.988 42.0448 203.856 42.6128 203.856C43.4848 203.856 44.1808 204.14 44.7008 204.708C45.2288 205.268 45.4928 205.996 45.4928 206.892V206.94C45.4928 207.908 45.2008 208.68 44.6168 209.256C44.0408 209.824 43.3008 210.108 42.3968 210.108ZM40.8968 208.668C41.2648 209.076 41.7688 209.28 42.4088 209.28C43.0488 209.28 43.5488 209.08 43.9088 208.68C44.2768 208.272 44.4608 207.696 44.4608 206.952V206.928C44.4608 206.232 44.2928 205.684 43.9568 205.284C43.6288 204.884 43.1488 204.684 42.5168 204.684C41.8528 204.684 41.3248 204.892 40.9328 205.308C40.5488 205.724 40.3568 206.292 40.3568 207.012V207.036C40.3568 207.716 40.5368 208.26 40.8968 208.668Z" fill="white"/>
<path d="M21.448 146.6H15.72V146.152L20.952 137.56H22.808V145.464H24.392V146.6H22.808V149H21.448V146.6ZM21.448 145.464V138.616L17.48 145.464H21.448ZM30.1825 149.144C29.5318 149.144 28.9132 149.027 28.3265 148.792C27.7398 148.547 27.2438 148.157 26.8385 147.624C26.4332 147.091 26.2305 146.467 26.2305 145.752C26.2305 145.016 26.4278 144.397 26.8225 143.896C27.2172 143.395 27.7398 143.027 28.3905 142.792C27.2385 142.333 26.6625 141.533 26.6625 140.392C26.6625 139.517 27.0145 138.803 27.7185 138.248C28.4332 137.693 29.2545 137.416 30.1825 137.416C31.1105 137.416 31.9265 137.693 32.6305 138.248C33.3345 138.792 33.6865 139.496 33.6865 140.36C33.6865 141.459 33.0998 142.264 31.9265 142.776C33.3878 143.32 34.1185 144.301 34.1185 145.72C34.1185 146.797 33.7238 147.64 32.9345 148.248C32.1558 148.845 31.2385 149.144 30.1825 149.144ZM30.1825 148.008C30.9185 148.008 31.5212 147.805 31.9905 147.4C32.4598 146.984 32.6945 146.408 32.6945 145.672C32.6945 144.957 32.4545 144.403 31.9745 144.008C31.5052 143.603 30.9185 143.4 30.2145 143.4C29.4892 143.4 28.8812 143.603 28.3905 144.008C27.8998 144.403 27.6545 144.968 27.6545 145.704C27.6545 146.419 27.8998 146.984 28.3905 147.4C28.8812 147.805 29.4785 148.008 30.1825 148.008ZM30.2305 142.296C30.8492 142.296 31.3452 142.125 31.7185 141.784C32.0918 141.443 32.2785 140.973 32.2785 140.376C32.2785 139.832 32.0812 139.384 31.6865 139.032C31.2918 138.68 30.7905 138.504 30.1825 138.504C29.5638 138.504 29.0572 138.675 28.6625 139.016C28.2678 139.357 28.0705 139.821 28.0705 140.408C28.0705 140.984 28.2785 141.443 28.6945 141.784C29.1105 142.125 29.6225 142.296 30.2305 142.296ZM40.7325 147.992C42.7485 147.992 43.7565 146.515 43.7565 143.56V142.92C43.7565 141.587 43.4845 140.525 42.9405 139.736C42.3965 138.936 41.6498 138.536 40.7005 138.536C39.7298 138.536 38.9725 138.92 38.4285 139.688C37.8845 140.456 37.6125 141.544 37.6125 142.952V143.592C37.6125 145.011 37.8898 146.099 38.4445 146.856C38.9992 147.613 39.7618 147.992 40.7325 147.992ZM40.7325 149.144C39.3672 149.144 38.2685 148.637 37.4365 147.624C36.6045 146.611 36.1885 145.272 36.1885 143.608V142.968C36.1885 141.272 36.5885 139.923 37.3885 138.92C38.1992 137.917 39.3032 137.416 40.7005 137.416C42.0872 137.416 43.1752 137.923 43.9645 138.936C44.7645 139.949 45.1645 141.283 45.1645 142.936V143.576C45.1645 145.261 44.7698 146.611 43.9805 147.624C43.2018 148.637 42.1192 149.144 40.7325 149.144Z" fill="white"/>
<path opacity="0.6" d="M5.412 157.564H3.384V163H2.388V157.564H0.36V156.724H5.412V157.564ZM12.3053 156.724H13.3013V163H12.3053V156.724ZM6.90534 156.724H7.90134V158.92H9.01734C9.72934 158.92 10.3053 159.08 10.7453 159.4C11.1933 159.72 11.4173 160.224 11.4173 160.912V160.948C11.4173 161.628 11.1933 162.14 10.7453 162.484C10.2973 162.828 9.72134 163 9.01734 163H6.90534V156.724ZM9.07734 162.208C9.54934 162.208 9.88934 162.108 10.0973 161.908C10.3133 161.7 10.4213 161.38 10.4213 160.948V160.912C10.4213 160.512 10.3173 160.212 10.1093 160.012C9.90134 159.804 9.55734 159.7 9.07734 159.7H7.90134V162.208H9.07734ZM18.1154 163.108C17.2194 163.108 16.4834 162.82 15.9074 162.244C15.3314 161.66 15.0434 160.888 15.0434 159.928V159.832C15.0434 158.888 15.3354 158.116 15.9194 157.516C16.5114 156.916 17.2354 156.616 18.0914 156.616C18.8114 156.616 19.4234 156.796 19.9274 157.156C20.4314 157.508 20.7274 158.06 20.8154 158.812H19.8314C19.6874 157.9 19.1074 157.444 18.0914 157.444C17.5074 157.444 17.0234 157.664 16.6394 158.104C16.2634 158.536 16.0754 159.112 16.0754 159.832V159.928C16.0754 160.68 16.2594 161.26 16.6274 161.668C17.0034 162.076 17.5034 162.28 18.1274 162.28C18.5994 162.28 19.0034 162.148 19.3394 161.884C19.6834 161.612 19.8794 161.232 19.9274 160.744H20.8514C20.7874 161.432 20.4994 162 19.9874 162.448C19.4834 162.888 18.8594 163.108 18.1154 163.108ZM25.7709 156.724H26.7669V157.78C26.9509 157.46 27.2389 157.188 27.6309 156.964C28.0229 156.732 28.4429 156.616 28.8909 156.616C29.7309 156.616 30.4149 156.9 30.9429 157.468C31.4789 158.036 31.7469 158.804 31.7469 159.772V159.868C31.7469 160.836 31.4829 161.62 30.9549 162.22C30.4349 162.812 29.7469 163.108 28.8909 163.108C27.9309 163.108 27.2229 162.728 26.7669 161.968V165.184H25.7709V156.724ZM28.7949 162.28C29.4189 162.28 29.8949 162.08 30.2229 161.68C30.5509 161.272 30.7149 160.684 30.7149 159.916V159.82C30.7149 159.06 30.5309 158.476 30.1629 158.068C29.8029 157.652 29.3429 157.444 28.7829 157.444C28.1749 157.444 27.6789 157.648 27.2949 158.056C26.9189 158.456 26.7309 159.044 26.7309 159.82V159.916C26.7309 160.692 26.9149 161.28 27.2829 161.68C27.6589 162.08 28.1629 162.28 28.7949 162.28ZM35.0492 162.352L32.5892 156.724H33.6572L35.5772 161.224L37.3172 156.724H38.3372L34.8692 165.184H33.8612L35.0492 162.352ZM42.3968 163.108C41.4528 163.108 40.7048 162.804 40.1528 162.196C39.6008 161.588 39.3248 160.664 39.3248 159.424V159.04C39.3248 158.448 39.3488 157.924 39.3968 157.468C39.4448 157.004 39.5448 156.54 39.6968 156.076C39.8488 155.604 40.0488 155.212 40.2968 154.9C40.5448 154.588 40.8808 154.328 41.3048 154.12C41.7368 153.912 42.2448 153.792 42.8288 153.76L43.0688 153.748C43.9488 153.7 44.5448 153.612 44.8568 153.484L44.9888 154.324C44.5808 154.5 43.9448 154.608 43.0808 154.648L42.9008 154.66C41.9328 154.708 41.2408 155.024 40.8248 155.608C40.4168 156.184 40.1768 157.08 40.1048 158.296H40.1528C40.3688 157.856 40.6888 157.508 41.1128 157.252C41.5448 156.988 42.0448 156.856 42.6128 156.856C43.4848 156.856 44.1808 157.14 44.7008 157.708C45.2288 158.268 45.4928 158.996 45.4928 159.892V159.94C45.4928 160.908 45.2008 161.68 44.6168 162.256C44.0408 162.824 43.3008 163.108 42.3968 163.108ZM40.8968 161.668C41.2648 162.076 41.7688 162.28 42.4088 162.28C43.0488 162.28 43.5488 162.08 43.9088 161.68C44.2768 161.272 44.4608 160.696 44.4608 159.952V159.928C44.4608 159.232 44.2928 158.684 43.9568 158.284C43.6288 157.884 43.1488 157.684 42.5168 157.684C41.8528 157.684 41.3248 157.892 40.9328 158.308C40.5488 158.724 40.3568 159.292 40.3568 160.012V160.036C40.3568 160.716 40.5368 161.26 40.8968 161.668Z" fill="white"/>
<path d="M20.448 331.6H14.72V331.152L19.952 322.56H21.808V330.464H23.392V331.6H21.808V334H20.448V331.6ZM20.448 330.464V323.616L16.48 330.464H20.448ZM29.7444 332.992C31.7604 332.992 32.7684 331.515 32.7684 328.56V327.92C32.7684 326.587 32.4964 325.525 31.9524 324.736C31.4084 323.936 30.6617 323.536 29.7124 323.536C28.7417 323.536 27.9844 323.92 27.4404 324.688C26.8964 325.456 26.6244 326.544 26.6244 327.952V328.592C26.6244 330.011 26.9017 331.099 27.4564 331.856C28.011 332.613 28.7737 332.992 29.7444 332.992ZM29.7444 334.144C28.379 334.144 27.2804 333.637 26.4484 332.624C25.6164 331.611 25.2004 330.272 25.2004 328.608V327.968C25.2004 326.272 25.6004 324.923 26.4004 323.92C27.211 322.917 28.315 322.416 29.7124 322.416C31.099 322.416 32.187 322.923 32.9764 323.936C33.7764 324.949 34.1764 326.283 34.1764 327.936V328.576C34.1764 330.261 33.7817 331.611 32.9924 332.624C32.2137 333.637 31.131 334.144 29.7444 334.144ZM40.9981 332.992C43.0141 332.992 44.0221 331.515 44.0221 328.56V327.92C44.0221 326.587 43.7501 325.525 43.2061 324.736C42.6621 323.936 41.9155 323.536 40.9661 323.536C39.9955 323.536 39.2381 323.92 38.6941 324.688C38.1501 325.456 37.8781 326.544 37.8781 327.952V328.592C37.8781 330.011 38.1555 331.099 38.7101 331.856C39.2648 332.613 40.0275 332.992 40.9981 332.992ZM40.9981 334.144C39.6328 334.144 38.5341 333.637 37.7021 332.624C36.8701 331.611 36.4541 330.272 36.4541 328.608V327.968C36.4541 326.272 36.8541 324.923 37.6541 323.92C38.4648 322.917 39.5688 322.416 40.9661 322.416C42.3528 322.416 43.4408 322.923 44.2301 323.936C45.0301 324.949 45.4301 326.283 45.4301 327.936V328.576C45.4301 330.261 45.0355 331.611 44.2461 332.624C43.4675 333.637 42.3848 334.144 40.9981 334.144Z" fill="white"/>
<path opacity="0.6" d="M5.412 343.564H3.384V349H2.388V343.564H0.36V342.724H5.412V343.564ZM12.3053 342.724H13.3013V349H12.3053V342.724ZM6.90534 342.724H7.90134V344.92H9.01734C9.72934 344.92 10.3053 345.08 10.7453 345.4C11.1933 345.72 11.4173 346.224 11.4173 346.912V346.948C11.4173 347.628 11.1933 348.14 10.7453 348.484C10.2973 348.828 9.72134 349 9.01734 349H6.90534V342.724ZM9.07734 348.208C9.54934 348.208 9.88934 348.108 10.0973 347.908C10.3133 347.7 10.4213 347.38 10.4213 346.948V346.912C10.4213 346.512 10.3173 346.212 10.1093 346.012C9.90134 345.804 9.55734 345.7 9.07734 345.7H7.90134V348.208H9.07734ZM18.1154 349.108C17.2194 349.108 16.4834 348.82 15.9074 348.244C15.3314 347.66 15.0434 346.888 15.0434 345.928V345.832C15.0434 344.888 15.3354 344.116 15.9194 343.516C16.5114 342.916 17.2354 342.616 18.0914 342.616C18.8114 342.616 19.4234 342.796 19.9274 343.156C20.4314 343.508 20.7274 344.06 20.8154 344.812H19.8314C19.6874 343.9 19.1074 343.444 18.0914 343.444C17.5074 343.444 17.0234 343.664 16.6394 344.104C16.2634 344.536 16.0754 345.112 16.0754 345.832V345.928C16.0754 346.68 16.2594 347.26 16.6274 347.668C17.0034 348.076 17.5034 348.28 18.1274 348.28C18.5994 348.28 19.0034 348.148 19.3394 347.884C19.6834 347.612 19.8794 347.232 19.9274 346.744H20.8514C20.7874 347.432 20.4994 348 19.9874 348.448C19.4834 348.888 18.8594 349.108 18.1154 349.108ZM25.7709 342.724H26.7669V343.78C26.9509 343.46 27.2389 343.188 27.6309 342.964C28.0229 342.732 28.4429 342.616 28.8909 342.616C29.7309 342.616 30.4149 342.9 30.9429 343.468C31.4789 344.036 31.7469 344.804 31.7469 345.772V345.868C31.7469 346.836 31.4829 347.62 30.9549 348.22C30.4349 348.812 29.7469 349.108 28.8909 349.108C27.9309 349.108 27.2229 348.728 26.7669 347.968V351.184H25.7709V342.724ZM28.7949 348.28C29.4189 348.28 29.8949 348.08 30.2229 347.68C30.5509 347.272 30.7149 346.684 30.7149 345.916V345.82C30.7149 345.06 30.5309 344.476 30.1629 344.068C29.8029 343.652 29.3429 343.444 28.7829 343.444C28.1749 343.444 27.6789 343.648 27.2949 344.056C26.9189 344.456 26.7309 345.044 26.7309 345.82V345.916C26.7309 346.692 26.9149 347.28 27.2829 347.68C27.6589 348.08 28.1629 348.28 28.7949 348.28ZM35.0492 348.352L32.5892 342.724H33.6572L35.5772 347.224L37.3172 342.724H38.3372L34.8692 351.184H33.8612L35.0492 348.352ZM42.3968 349.108C41.4528 349.108 40.7048 348.804 40.1528 348.196C39.6008 347.588 39.3248 346.664 39.3248 345.424V345.04C39.3248 344.448 39.3488 343.924 39.3968 343.468C39.4448 343.004 39.5448 342.54 39.6968 342.076C39.8488 341.604 40.0488 341.212 40.2968 340.9C40.5448 340.588 40.8808 340.328 41.3048 340.12C41.7368 339.912 42.2448 339.792 42.8288 339.76L43.0688 339.748C43.9488 339.7 44.5448 339.612 44.8568 339.484L44.9888 340.324C44.5808 340.5 43.9448 340.608 43.0808 340.648L42.9008 340.66C41.9328 340.708 41.2408 341.024 40.8248 341.608C40.4168 342.184 40.1768 343.08 40.1048 344.296H40.1528C40.3688 343.856 40.6888 343.508 41.1128 343.252C41.5448 342.988 42.0448 342.856 42.6128 342.856C43.4848 342.856 44.1808 343.14 44.7008 343.708C45.2288 344.268 45.4928 344.996 45.4928 345.892V345.94C45.4928 346.908 45.2008 347.68 44.6168 348.256C44.0408 348.824 43.3008 349.108 42.3968 349.108ZM40.8968 347.668C41.2648 348.076 41.7688 348.28 42.4088 348.28C43.0488 348.28 43.5488 348.08 43.9088 347.68C44.2768 347.272 44.4608 346.696 44.4608 345.952V345.928C44.4608 345.232 44.2928 344.684 43.9568 344.284C43.6288 343.884 43.1488 343.684 42.5168 343.684C41.8528 343.684 41.3248 343.892 40.9328 344.308C40.5488 344.724 40.3568 345.292 40.3568 346.012V346.036C40.3568 346.716 40.5368 347.26 40.8968 347.668Z" fill="white"/>
<path opacity="0.6" d="M299.652 357.562C299.036 357.562 298.532 357.41 298.14 357.106C297.756 356.794 297.564 356.33 297.564 355.714C297.564 355.37 297.648 355.07 297.816 354.814C297.992 354.55 298.232 354.346 298.536 354.202C298.84 354.05 299.172 353.942 299.532 353.878C299.892 353.806 300.284 353.77 300.708 353.77H301.608V353.314C301.608 352.81 301.504 352.45 301.296 352.234C301.088 352.01 300.744 351.898 300.264 351.898C299.4 351.898 298.92 352.274 298.824 353.026H297.828C297.892 352.354 298.152 351.862 298.608 351.55C299.072 351.23 299.64 351.07 300.312 351.07C301.84 351.07 302.604 351.818 302.604 353.314V357.454H301.608V356.662C301.128 357.262 300.476 357.562 299.652 357.562ZM299.748 356.77C300.292 356.77 300.736 356.638 301.08 356.374C301.432 356.102 301.608 355.73 301.608 355.258V354.478H300.744C299.288 354.478 298.56 354.89 298.56 355.714C298.56 356.418 298.956 356.77 299.748 356.77ZM304.608 351.178H306.804C308.276 351.178 309.012 351.71 309.012 352.774V352.81C309.012 353.114 308.928 353.394 308.76 353.65C308.592 353.898 308.34 354.066 308.004 354.154C308.876 354.346 309.312 354.818 309.312 355.57V355.606C309.312 356.214 309.112 356.674 308.712 356.986C308.32 357.298 307.772 357.454 307.068 357.454H304.608V351.178ZM305.604 351.97V353.83H306.804C307.22 353.83 307.516 353.754 307.692 353.602C307.876 353.45 307.968 353.202 307.968 352.858V352.822C307.968 352.502 307.872 352.282 307.68 352.162C307.496 352.034 307.2 351.97 306.792 351.97H305.604ZM305.604 354.622V356.662H306.972C307.412 356.662 307.736 356.586 307.944 356.434C308.16 356.274 308.268 356.018 308.268 355.666V355.63C308.268 355.278 308.16 355.022 307.944 354.862C307.736 354.702 307.412 354.622 306.972 354.622H305.604ZM312.017 352.018V357.454H311.021V351.178H315.005V352.018H312.017ZM318.497 356.806L316.037 351.178H317.105L319.025 355.678L320.765 351.178H321.785L318.317 359.638H317.309L318.497 356.806ZM325.644 357.562C324.748 357.562 324.012 357.274 323.436 356.698C322.86 356.114 322.572 355.342 322.572 354.382V354.286C322.572 353.342 322.864 352.57 323.448 351.97C324.04 351.37 324.764 351.07 325.62 351.07C326.34 351.07 326.952 351.25 327.456 351.61C327.96 351.962 328.256 352.514 328.344 353.266H327.36C327.216 352.354 326.636 351.898 325.62 351.898C325.036 351.898 324.552 352.118 324.168 352.558C323.792 352.99 323.604 353.566 323.604 354.286V354.382C323.604 355.134 323.788 355.714 324.156 356.122C324.532 356.53 325.032 356.734 325.656 356.734C326.128 356.734 326.532 356.602 326.868 356.338C327.212 356.066 327.408 355.686 327.456 355.198H328.38C328.316 355.886 328.028 356.454 327.516 356.902C327.012 357.342 326.388 357.562 325.644 357.562ZM334.336 352.018H332.308V357.454H331.312V352.018H329.284V351.178H334.336V352.018Z" fill="white"/>
<path d="M297.35 375.384L301.326 371.198C302.287 370.181 302.768 369.215 302.768 368.3C302.768 367.74 302.609 367.301 302.292 366.984C301.984 366.667 301.545 366.508 300.976 366.508C299.763 366.508 299.058 367.25 298.862 368.734H297.728C297.803 367.745 298.125 366.965 298.694 366.396C299.273 365.817 300.033 365.528 300.976 365.528C301.9 365.528 302.633 365.785 303.174 366.298C303.725 366.802 304 367.483 304 368.342C304 369.443 303.328 370.657 301.984 371.982L299.226 374.67H304.056V375.664H297.35V375.384ZM309.901 374.782C311.665 374.782 312.547 373.489 312.547 370.904V370.344C312.547 369.177 312.309 368.249 311.833 367.558C311.357 366.858 310.704 366.508 309.873 366.508C309.024 366.508 308.361 366.844 307.885 367.516C307.409 368.188 307.171 369.14 307.171 370.372V370.932C307.171 372.173 307.414 373.125 307.899 373.788C308.385 374.451 309.052 374.782 309.901 374.782ZM309.901 375.79C308.707 375.79 307.745 375.347 307.017 374.46C306.289 373.573 305.925 372.402 305.925 370.946V370.386C305.925 368.902 306.275 367.721 306.975 366.844C307.685 365.967 308.651 365.528 309.873 365.528C311.087 365.528 312.039 365.971 312.729 366.858C313.429 367.745 313.779 368.911 313.779 370.358V370.918C313.779 372.393 313.434 373.573 312.743 374.46C312.062 375.347 311.115 375.79 309.901 375.79ZM317.634 366.858L315.394 368.468V367.334L317.718 365.654H318.852V375.664H317.634V366.858ZM324.752 375.776C323.837 375.776 323.104 375.552 322.554 375.104C322.003 374.656 321.662 374.021 321.532 373.2H322.708C322.829 373.723 323.048 374.119 323.366 374.39C323.692 374.651 324.164 374.782 324.78 374.782C325.592 374.782 326.217 374.451 326.656 373.788C327.094 373.125 327.323 372.131 327.342 370.806C327.09 371.226 326.74 371.553 326.292 371.786C325.844 372.019 325.33 372.136 324.752 372.136C323.781 372.136 322.988 371.828 322.372 371.212C321.765 370.596 321.462 369.812 321.462 368.86C321.462 367.852 321.774 367.045 322.4 366.438C323.025 365.822 323.865 365.514 324.92 365.514C326.105 365.514 327.001 365.897 327.608 366.662C328.214 367.427 328.518 368.538 328.518 369.994V370.624C328.518 372.295 328.191 373.573 327.538 374.46C326.894 375.337 325.965 375.776 324.752 375.776ZM324.934 371.184C325.606 371.184 326.156 370.983 326.586 370.582C327.015 370.181 327.23 369.658 327.23 369.014C327.23 368.211 327.015 367.586 326.586 367.138C326.166 366.69 325.61 366.466 324.92 366.466C324.266 366.466 323.734 366.681 323.324 367.11C322.913 367.539 322.708 368.104 322.708 368.804C322.708 369.532 322.908 370.111 323.31 370.54C323.711 370.969 324.252 371.184 324.934 371.184Z" fill="white"/>
<path opacity="0.6" d="M443.84 351.97C442.944 351.97 442.496 352.35 442.496 353.11V353.146C442.496 353.506 442.6 353.778 442.808 353.962C443.016 354.146 443.36 354.238 443.84 354.238H445.016V351.97H443.84ZM442.184 357.454H441.044L442.952 354.826C441.984 354.626 441.5 354.066 441.5 353.146V353.11C441.5 352.454 441.724 351.97 442.172 351.658C442.62 351.338 443.196 351.178 443.9 351.178H446.012V357.454H445.016V354.994H443.936L442.184 357.454ZM452.233 354.658H449.149V357.454H448.153V351.178H449.149V353.818H452.233V351.178H453.229V357.454H452.233V354.658ZM455.363 351.178H457.559C459.031 351.178 459.767 351.71 459.767 352.774V352.81C459.767 353.114 459.683 353.394 459.515 353.65C459.347 353.898 459.095 354.066 458.759 354.154C459.631 354.346 460.067 354.818 460.067 355.57V355.606C460.067 356.214 459.867 356.674 459.467 356.986C459.075 357.298 458.527 357.454 457.823 357.454H455.363V351.178ZM456.359 351.97V353.83H457.559C457.975 353.83 458.271 353.754 458.447 353.602C458.631 353.45 458.723 353.202 458.723 352.858V352.822C458.723 352.502 458.627 352.282 458.435 352.162C458.251 352.034 457.955 351.97 457.547 351.97H456.359ZM456.359 354.622V356.662H457.727C458.167 356.662 458.491 356.586 458.699 356.434C458.915 356.274 459.023 356.018 459.023 355.666V355.63C459.023 355.278 458.915 355.022 458.699 354.862C458.491 354.702 458.167 354.622 457.727 354.622H456.359ZM463.478 357.562C462.862 357.562 462.358 357.41 461.966 357.106C461.582 356.794 461.39 356.33 461.39 355.714C461.39 355.37 461.474 355.07 461.642 354.814C461.818 354.55 462.058 354.346 462.362 354.202C462.666 354.05 462.998 353.942 463.358 353.878C463.718 353.806 464.11 353.77 464.534 353.77H465.434V353.314C465.434 352.81 465.33 352.45 465.122 352.234C464.914 352.01 464.57 351.898 464.09 351.898C463.226 351.898 462.746 352.274 462.65 353.026H461.654C461.718 352.354 461.978 351.862 462.434 351.55C462.898 351.23 463.466 351.07 464.138 351.07C465.666 351.07 466.43 351.818 466.43 353.314V357.454H465.434V356.662C464.954 357.262 464.302 357.562 463.478 357.562ZM463.574 356.77C464.118 356.77 464.562 356.638 464.906 356.374C465.258 356.102 465.434 355.73 465.434 355.258V354.478H464.57C463.114 354.478 462.386 354.89 462.386 355.714C462.386 356.418 462.782 356.77 463.574 356.77ZM468.507 351.178H469.503V352.234C469.687 351.914 469.975 351.642 470.367 351.418C470.759 351.186 471.179 351.07 471.627 351.07C472.467 351.07 473.151 351.354 473.679 351.922C474.215 352.49 474.483 353.258 474.483 354.226V354.322C474.483 355.29 474.219 356.074 473.691 356.674C473.171 357.266 472.483 357.562 471.627 357.562C470.667 357.562 469.959 357.182 469.503 356.422V359.638H468.507V351.178ZM471.531 356.734C472.155 356.734 472.631 356.534 472.959 356.134C473.287 355.726 473.451 355.138 473.451 354.37V354.274C473.451 353.514 473.267 352.93 472.899 352.522C472.539 352.106 472.079 351.898 471.519 351.898C470.911 351.898 470.415 352.102 470.031 352.51C469.655 352.91 469.467 353.498 469.467 354.274V354.37C469.467 355.146 469.651 355.734 470.019 356.134C470.395 356.534 470.899 356.734 471.531 356.734ZM476.078 351.178H477.074V353.374H478.19C478.894 353.374 479.47 353.546 479.918 353.89C480.366 354.234 480.59 354.746 480.59 355.426V355.462C480.59 356.15 480.366 356.654 479.918 356.974C479.478 357.294 478.902 357.454 478.19 357.454H476.078V351.178ZM478.25 356.674C478.73 356.674 479.074 356.574 479.282 356.374C479.49 356.166 479.594 355.862 479.594 355.462V355.426C479.594 354.994 479.486 354.678 479.27 354.478C479.062 354.27 478.722 354.166 478.25 354.166H477.074V356.674H478.25Z" fill="white"/>
<path d="M440.793 375.384L444.769 371.198C445.731 370.181 446.211 369.215 446.211 368.3C446.211 367.74 446.053 367.301 445.735 366.984C445.427 366.667 444.989 366.508 444.419 366.508C443.206 366.508 442.501 367.25 442.305 368.734H441.171C441.246 367.745 441.568 366.965 442.137 366.396C442.716 365.817 443.477 365.528 444.419 365.528C445.343 365.528 446.076 365.785 446.617 366.298C447.168 366.802 447.443 367.483 447.443 368.342C447.443 369.443 446.771 370.657 445.427 371.982L442.669 374.67H447.499V375.664H440.793V375.384ZM453.345 374.782C455.109 374.782 455.991 373.489 455.991 370.904V370.344C455.991 369.177 455.753 368.249 455.277 367.558C454.801 366.858 454.147 366.508 453.317 366.508C452.467 366.508 451.805 366.844 451.329 367.516C450.853 368.188 450.615 369.14 450.615 370.372V370.932C450.615 372.173 450.857 373.125 451.343 373.788C451.828 374.451 452.495 374.782 453.345 374.782ZM453.345 375.79C452.15 375.79 451.189 375.347 450.461 374.46C449.733 373.573 449.369 372.402 449.369 370.946V370.386C449.369 368.902 449.719 367.721 450.419 366.844C451.128 365.967 452.094 365.528 453.317 365.528C454.53 365.528 455.482 365.971 456.173 366.858C456.873 367.745 457.223 368.911 457.223 370.358V370.918C457.223 372.393 456.877 373.573 456.187 374.46C455.505 375.347 454.558 375.79 453.345 375.79ZM458.642 375.384L462.618 371.198C463.579 370.181 464.06 369.215 464.06 368.3C464.06 367.74 463.901 367.301 463.584 366.984C463.276 366.667 462.837 366.508 462.268 366.508C461.054 366.508 460.35 367.25 460.154 368.734H459.02C459.094 367.745 459.416 366.965 459.986 366.396C460.564 365.817 461.325 365.528 462.268 365.528C463.192 365.528 463.924 365.785 464.466 366.298C465.016 366.802 465.292 367.483 465.292 368.342C465.292 369.443 464.62 370.657 463.276 371.982L460.518 374.67H465.348V375.664H458.642V375.384ZM471.193 374.782C472.957 374.782 473.839 373.489 473.839 370.904V370.344C473.839 369.177 473.601 368.249 473.125 367.558C472.649 366.858 471.996 366.508 471.165 366.508C470.316 366.508 469.653 366.844 469.177 367.516C468.701 368.188 468.463 369.14 468.463 370.372V370.932C468.463 372.173 468.706 373.125 469.191 373.788C469.676 374.451 470.344 374.782 471.193 374.782ZM471.193 375.79C469.998 375.79 469.037 375.347 468.309 374.46C467.581 373.573 467.217 372.402 467.217 370.946V370.386C467.217 368.902 467.567 367.721 468.267 366.844C468.976 365.967 469.942 365.528 471.165 365.528C472.378 365.528 473.33 365.971 474.021 366.858C474.721 367.745 475.071 368.911 475.071 370.358V370.918C475.071 372.393 474.726 373.573 474.035 374.46C473.354 375.347 472.406 375.79 471.193 375.79Z" fill="white"/>
<path opacity="0.6" d="M233.008 357.454V351.178H234.004V356.014L237.208 351.178H238.204V357.454H237.208V352.618L234.004 357.454H233.008ZM245.102 357.562C244.302 357.562 243.638 357.314 243.11 356.818C242.59 356.322 242.282 355.67 242.186 354.862C242.17 354.75 242.162 354.682 242.162 354.658H241.214V357.454H240.218V351.178H241.214V353.818H242.174C242.27 352.986 242.578 352.322 243.098 351.826C243.626 351.322 244.298 351.07 245.114 351.07C246.002 351.07 246.718 351.366 247.262 351.958C247.806 352.55 248.078 353.318 248.078 354.262V354.358C248.078 355.31 247.802 356.082 247.25 356.674C246.706 357.266 245.99 357.562 245.102 357.562ZM245.114 356.734C245.73 356.734 246.206 356.522 246.542 356.098C246.878 355.674 247.046 355.098 247.046 354.37V354.286C247.046 353.55 246.878 352.97 246.542 352.546C246.206 352.114 245.73 351.898 245.114 351.898C244.49 351.898 244.01 352.11 243.674 352.534C243.346 352.958 243.182 353.538 243.182 354.274V354.37C243.182 355.106 243.346 355.686 243.674 356.11C244.002 356.526 244.482 356.734 245.114 356.734ZM250.889 355.03C250.817 355.894 250.665 356.526 250.433 356.926C250.201 357.318 249.837 357.514 249.341 357.514C249.237 357.514 249.129 357.506 249.017 357.49L248.921 357.454V356.506L249.005 356.53C249.085 356.546 249.169 356.554 249.257 356.554C249.385 356.554 249.489 356.518 249.569 356.446C249.657 356.366 249.725 356.242 249.773 356.074C249.829 355.906 249.869 355.75 249.893 355.606C249.917 355.454 249.945 355.242 249.977 354.97C250.009 354.682 250.057 353.866 250.121 352.522L250.157 351.178H254.297V357.454H253.301V352.018H251.045C250.973 353.746 250.921 354.75 250.889 355.03ZM256.431 351.178H257.427V353.374H258.543C259.247 353.374 259.823 353.546 260.271 353.89C260.719 354.234 260.943 354.746 260.943 355.426V355.462C260.943 356.15 260.719 356.654 260.271 356.974C259.831 357.294 259.255 357.454 258.543 357.454H256.431V351.178ZM258.603 356.674C259.083 356.674 259.427 356.574 259.635 356.374C259.843 356.166 259.947 355.862 259.947 355.462V355.426C259.947 354.994 259.839 354.678 259.623 354.478C259.415 354.27 259.075 354.166 258.603 354.166H257.427V356.674H258.603Z" fill="white"/>
<path d="M232.35 375.384L236.326 371.198C237.287 370.181 237.768 369.215 237.768 368.3C237.768 367.74 237.609 367.301 237.292 366.984C236.984 366.667 236.545 366.508 235.976 366.508C234.763 366.508 234.058 367.25 233.862 368.734H232.728C232.803 367.745 233.125 366.965 233.694 366.396C234.273 365.817 235.033 365.528 235.976 365.528C236.9 365.528 237.633 365.785 238.174 366.298C238.725 366.802 239 367.483 239 368.342C239 369.443 238.328 370.657 236.984 371.982L234.226 374.67H239.056V375.664H232.35V375.384ZM244.901 374.782C246.665 374.782 247.547 373.489 247.547 370.904V370.344C247.547 369.177 247.309 368.249 246.833 367.558C246.357 366.858 245.704 366.508 244.873 366.508C244.024 366.508 243.361 366.844 242.885 367.516C242.409 368.188 242.171 369.14 242.171 370.372V370.932C242.171 372.173 242.414 373.125 242.899 373.788C243.385 374.451 244.052 374.782 244.901 374.782ZM244.901 375.79C243.707 375.79 242.745 375.347 242.017 374.46C241.289 373.573 240.925 372.402 240.925 370.946V370.386C240.925 368.902 241.275 367.721 241.975 366.844C242.685 365.967 243.651 365.528 244.873 365.528C246.087 365.528 247.039 365.971 247.729 366.858C248.429 367.745 248.779 368.911 248.779 370.358V370.918C248.779 372.393 248.434 373.573 247.743 374.46C247.062 375.347 246.115 375.79 244.901 375.79ZM252.634 366.858L250.394 368.468V367.334L252.718 365.654H253.852V375.664H252.634V366.858ZM259.752 375.776C258.837 375.776 258.104 375.552 257.554 375.104C257.003 374.656 256.662 374.021 256.532 373.2H257.708C257.829 373.723 258.048 374.119 258.366 374.39C258.692 374.651 259.164 374.782 259.78 374.782C260.592 374.782 261.217 374.451 261.656 373.788C262.094 373.125 262.323 372.131 262.342 370.806C262.09 371.226 261.74 371.553 261.292 371.786C260.844 372.019 260.33 372.136 259.752 372.136C258.781 372.136 257.988 371.828 257.372 371.212C256.765 370.596 256.462 369.812 256.462 368.86C256.462 367.852 256.774 367.045 257.4 366.438C258.025 365.822 258.865 365.514 259.92 365.514C261.105 365.514 262.001 365.897 262.608 366.662C263.214 367.427 263.518 368.538 263.518 369.994V370.624C263.518 372.295 263.191 373.573 262.538 374.46C261.894 375.337 260.965 375.776 259.752 375.776ZM259.934 371.184C260.606 371.184 261.156 370.983 261.586 370.582C262.015 370.181 262.23 369.658 262.23 369.014C262.23 368.211 262.015 367.586 261.586 367.138C261.166 366.69 260.61 366.466 259.92 366.466C259.266 366.466 258.734 366.681 258.324 367.11C257.913 367.539 257.708 368.104 257.708 368.804C257.708 369.532 257.908 370.111 258.31 370.54C258.711 370.969 259.252 371.184 259.934 371.184Z" fill="white"/>
<path opacity="0.6" d="M167.008 357.454V351.178H168.004V356.014L171.208 351.178H172.204V357.454H171.208V352.618L168.004 357.454H167.008ZM179.102 357.562C178.302 357.562 177.638 357.314 177.11 356.818C176.59 356.322 176.282 355.67 176.186 354.862C176.17 354.75 176.162 354.682 176.162 354.658H175.214V357.454H174.218V351.178H175.214V353.818H176.174C176.27 352.986 176.578 352.322 177.098 351.826C177.626 351.322 178.298 351.07 179.114 351.07C180.002 351.07 180.718 351.366 181.262 351.958C181.806 352.55 182.078 353.318 182.078 354.262V354.358C182.078 355.31 181.802 356.082 181.25 356.674C180.706 357.266 179.99 357.562 179.102 357.562ZM179.114 356.734C179.73 356.734 180.206 356.522 180.542 356.098C180.878 355.674 181.046 355.098 181.046 354.37V354.286C181.046 353.55 180.878 352.97 180.542 352.546C180.206 352.114 179.73 351.898 179.114 351.898C178.49 351.898 178.01 352.11 177.674 352.534C177.346 352.958 177.182 353.538 177.182 354.274V354.37C177.182 355.106 177.346 355.686 177.674 356.11C178.002 356.526 178.482 356.734 179.114 356.734ZM187.828 354.658H184.744V357.454H183.748V351.178H184.744V353.818H187.828V351.178H188.824V357.454H187.828V354.658ZM190.958 351.178H191.954V353.374H193.07C193.774 353.374 194.35 353.546 194.798 353.89C195.246 354.234 195.47 354.746 195.47 355.426V355.462C195.47 356.15 195.246 356.654 194.798 356.974C194.358 357.294 193.782 357.454 193.07 357.454H190.958V351.178ZM193.13 356.674C193.61 356.674 193.954 356.574 194.162 356.374C194.37 356.166 194.474 355.862 194.474 355.462V355.426C194.474 354.994 194.366 354.678 194.15 354.478C193.942 354.27 193.602 354.166 193.13 354.166H191.954V356.674H193.13Z" fill="white"/>
<path d="M166.35 375.384L170.326 371.198C171.287 370.181 171.768 369.215 171.768 368.3C171.768 367.74 171.609 367.301 171.292 366.984C170.984 366.667 170.545 366.508 169.976 366.508C168.763 366.508 168.058 367.25 167.862 368.734H166.728C166.803 367.745 167.125 366.965 167.694 366.396C168.273 365.817 169.033 365.528 169.976 365.528C170.9 365.528 171.633 365.785 172.174 366.298C172.725 366.802 173 367.483 173 368.342C173 369.443 172.328 370.657 170.984 371.982L168.226 374.67H173.056V375.664H166.35V375.384ZM178.901 374.782C180.665 374.782 181.547 373.489 181.547 370.904V370.344C181.547 369.177 181.309 368.249 180.833 367.558C180.357 366.858 179.704 366.508 178.873 366.508C178.024 366.508 177.361 366.844 176.885 367.516C176.409 368.188 176.171 369.14 176.171 370.372V370.932C176.171 372.173 176.414 373.125 176.899 373.788C177.385 374.451 178.052 374.782 178.901 374.782ZM178.901 375.79C177.707 375.79 176.745 375.347 176.017 374.46C175.289 373.573 174.925 372.402 174.925 370.946V370.386C174.925 368.902 175.275 367.721 175.975 366.844C176.685 365.967 177.651 365.528 178.873 365.528C180.087 365.528 181.039 365.971 181.729 366.858C182.429 367.745 182.779 368.911 182.779 370.358V370.918C182.779 372.393 182.434 373.573 181.743 374.46C181.062 375.347 180.115 375.79 178.901 375.79ZM186.634 366.858L184.394 368.468V367.334L186.718 365.654H187.852V375.664H186.634V366.858ZM193.752 375.776C192.837 375.776 192.104 375.552 191.554 375.104C191.003 374.656 190.662 374.021 190.532 373.2H191.708C191.829 373.723 192.048 374.119 192.366 374.39C192.692 374.651 193.164 374.782 193.78 374.782C194.592 374.782 195.217 374.451 195.656 373.788C196.094 373.125 196.323 372.131 196.342 370.806C196.09 371.226 195.74 371.553 195.292 371.786C194.844 372.019 194.33 372.136 193.752 372.136C192.781 372.136 191.988 371.828 191.372 371.212C190.765 370.596 190.462 369.812 190.462 368.86C190.462 367.852 190.774 367.045 191.4 366.438C192.025 365.822 192.865 365.514 193.92 365.514C195.105 365.514 196.001 365.897 196.608 366.662C197.214 367.427 197.518 368.538 197.518 369.994V370.624C197.518 372.295 197.191 373.573 196.538 374.46C195.894 375.337 194.965 375.776 193.752 375.776ZM193.934 371.184C194.606 371.184 195.156 370.983 195.586 370.582C196.015 370.181 196.23 369.658 196.23 369.014C196.23 368.211 196.015 367.586 195.586 367.138C195.166 366.69 194.61 366.466 193.92 366.466C193.266 366.466 192.734 366.681 192.324 367.11C191.913 367.539 191.708 368.104 191.708 368.804C191.708 369.532 191.908 370.111 192.31 370.54C192.711 370.969 193.252 371.184 193.934 371.184Z" fill="white"/>
<path opacity="0.6" d="M103.848 352.162V357.454H103.02V351.178H104.424L106.212 355.894L108.048 351.178H109.416V357.454H108.432V352.162L106.356 357.454H105.9L103.848 352.162ZM113.21 357.562C112.594 357.562 112.089 357.41 111.697 357.106C111.313 356.794 111.121 356.33 111.121 355.714C111.121 355.37 111.205 355.07 111.373 354.814C111.549 354.55 111.789 354.346 112.093 354.202C112.397 354.05 112.729 353.942 113.09 353.878C113.45 353.806 113.842 353.77 114.266 353.77H115.165V353.314C115.165 352.81 115.061 352.45 114.854 352.234C114.646 352.01 114.302 351.898 113.822 351.898C112.957 351.898 112.477 352.274 112.382 353.026H111.385C111.449 352.354 111.709 351.862 112.165 351.55C112.629 351.23 113.197 351.07 113.87 351.07C115.398 351.07 116.161 351.818 116.161 353.314V357.454H115.165V356.662C114.685 357.262 114.033 357.562 113.21 357.562ZM113.306 356.77C113.85 356.77 114.294 356.638 114.637 356.374C114.989 356.102 115.165 355.73 115.165 355.258V354.478H114.301C112.845 354.478 112.118 354.89 112.118 355.714C112.118 356.418 112.514 356.77 113.306 356.77ZM120.746 350.026C120.314 350.026 119.946 349.878 119.642 349.582C119.338 349.278 119.178 348.898 119.162 348.442H120.026C120.074 349.034 120.314 349.33 120.746 349.33C121.218 349.33 121.482 349.034 121.538 348.442H122.378C122.346 348.898 122.174 349.278 121.862 349.582C121.558 349.878 121.186 350.026 120.746 350.026ZM118.166 357.454V351.178H119.162V356.014L122.366 351.178H123.362V357.454H122.366V352.618L119.162 357.454H118.166Z" fill="white"/>
<path d="M102.35 375.384L106.326 371.198C107.287 370.181 107.768 369.215 107.768 368.3C107.768 367.74 107.609 367.301 107.292 366.984C106.984 366.667 106.545 366.508 105.976 366.508C104.763 366.508 104.058 367.25 103.862 368.734H102.728C102.803 367.745 103.125 366.965 103.694 366.396C104.273 365.817 105.033 365.528 105.976 365.528C106.9 365.528 107.633 365.785 108.174 366.298C108.725 366.802 109 367.483 109 368.342C109 369.443 108.328 370.657 106.984 371.982L104.226 374.67H109.056V375.664H102.35V375.384ZM114.901 374.782C116.665 374.782 117.547 373.489 117.547 370.904V370.344C117.547 369.177 117.309 368.249 116.833 367.558C116.357 366.858 115.704 366.508 114.873 366.508C114.024 366.508 113.361 366.844 112.885 367.516C112.409 368.188 112.171 369.14 112.171 370.372V370.932C112.171 372.173 112.414 373.125 112.899 373.788C113.385 374.451 114.052 374.782 114.901 374.782ZM114.901 375.79C113.707 375.79 112.745 375.347 112.017 374.46C111.289 373.573 110.925 372.402 110.925 370.946V370.386C110.925 368.902 111.275 367.721 111.975 366.844C112.685 365.967 113.651 365.528 114.873 365.528C116.087 365.528 117.039 365.971 117.729 366.858C118.429 367.745 118.779 368.911 118.779 370.358V370.918C118.779 372.393 118.434 373.573 117.743 374.46C117.062 375.347 116.115 375.79 114.901 375.79ZM122.634 366.858L120.394 368.468V367.334L122.718 365.654H123.852V375.664H122.634V366.858ZM129.752 375.776C128.837 375.776 128.104 375.552 127.554 375.104C127.003 374.656 126.662 374.021 126.532 373.2H127.708C127.829 373.723 128.048 374.119 128.366 374.39C128.692 374.651 129.164 374.782 129.78 374.782C130.592 374.782 131.217 374.451 131.656 373.788C132.094 373.125 132.323 372.131 132.342 370.806C132.09 371.226 131.74 371.553 131.292 371.786C130.844 372.019 130.33 372.136 129.752 372.136C128.781 372.136 127.988 371.828 127.372 371.212C126.765 370.596 126.462 369.812 126.462 368.86C126.462 367.852 126.774 367.045 127.4 366.438C128.025 365.822 128.865 365.514 129.92 365.514C131.105 365.514 132.001 365.897 132.608 366.662C133.214 367.427 133.518 368.538 133.518 369.994V370.624C133.518 372.295 133.191 373.573 132.538 374.46C131.894 375.337 130.965 375.776 129.752 375.776ZM129.934 371.184C130.606 371.184 131.156 370.983 131.586 370.582C132.015 370.181 132.23 369.658 132.23 369.014C132.23 368.211 132.015 367.586 131.586 367.138C131.166 366.69 130.61 366.466 129.92 366.466C129.266 366.466 128.734 366.681 128.324 367.11C127.913 367.539 127.708 368.104 127.708 368.804C127.708 369.532 127.908 370.111 128.31 370.54C128.711 370.969 129.252 371.184 129.934 371.184Z" fill="white"/>
<path opacity="0.6" d="M369.088 354.658H366.004V357.454H365.008V351.178H366.004V353.818H369.088V351.178H370.084V357.454H369.088V354.658ZM374.906 356.734C375.53 356.734 376.026 356.518 376.394 356.086C376.77 355.654 376.958 355.082 376.958 354.37V354.286C376.958 353.558 376.77 352.978 376.394 352.546C376.026 352.114 375.53 351.898 374.906 351.898C374.274 351.898 373.774 352.114 373.406 352.546C373.038 352.978 372.854 353.554 372.854 354.274V354.37C372.854 355.098 373.034 355.674 373.394 356.098C373.762 356.522 374.266 356.734 374.906 356.734ZM374.894 357.562C374.006 357.562 373.27 357.262 372.686 356.662C372.11 356.054 371.822 355.29 371.822 354.37V354.274C371.822 353.338 372.11 352.57 372.686 351.97C373.27 351.37 374.01 351.07 374.906 351.07C375.802 351.07 376.538 351.37 377.114 351.97C377.698 352.562 377.99 353.326 377.99 354.262V354.358C377.99 355.302 377.698 356.074 377.114 356.674C376.53 357.266 375.79 357.562 374.894 357.562ZM381.668 351.97C380.772 351.97 380.324 352.35 380.324 353.11V353.146C380.324 353.506 380.428 353.778 380.636 353.962C380.844 354.146 381.188 354.238 381.668 354.238H382.844V351.97H381.668ZM380.012 357.454H378.872L380.78 354.826C379.812 354.626 379.328 354.066 379.328 353.146V353.11C379.328 352.454 379.552 351.97 380 351.658C380.448 351.338 381.024 351.178 381.728 351.178H383.84V357.454H382.844V354.994H381.764L380.012 357.454ZM388.681 357.562C387.737 357.562 386.989 357.258 386.437 356.65C385.885 356.042 385.609 355.118 385.609 353.878V353.494C385.609 352.902 385.633 352.378 385.681 351.922C385.729 351.458 385.829 350.994 385.981 350.53C386.133 350.058 386.333 349.666 386.581 349.354C386.829 349.042 387.165 348.782 387.589 348.574C388.021 348.366 388.529 348.246 389.113 348.214L389.353 348.202C390.233 348.154 390.829 348.066 391.141 347.938L391.273 348.778C390.865 348.954 390.229 349.062 389.365 349.102L389.185 349.114C388.217 349.162 387.525 349.478 387.109 350.062C386.701 350.638 386.461 351.534 386.389 352.75H386.437C386.653 352.31 386.973 351.962 387.397 351.706C387.829 351.442 388.329 351.31 388.897 351.31C389.769 351.31 390.465 351.594 390.985 352.162C391.513 352.722 391.777 353.45 391.777 354.346V354.394C391.777 355.362 391.485 356.134 390.901 356.71C390.325 357.278 389.585 357.562 388.681 357.562ZM387.181 356.122C387.549 356.53 388.053 356.734 388.693 356.734C389.333 356.734 389.833 356.534 390.193 356.134C390.561 355.726 390.745 355.15 390.745 354.406V354.382C390.745 353.686 390.577 353.138 390.241 352.738C389.913 352.338 389.433 352.138 388.801 352.138C388.137 352.138 387.609 352.346 387.217 352.762C386.833 353.178 386.641 353.746 386.641 354.466V354.49C386.641 355.17 386.821 355.714 387.181 356.122ZM393.521 351.178H394.517V352.234C394.701 351.914 394.989 351.642 395.381 351.418C395.773 351.186 396.193 351.07 396.641 351.07C397.481 351.07 398.165 351.354 398.693 351.922C399.229 352.49 399.497 353.258 399.497 354.226V354.322C399.497 355.29 399.233 356.074 398.705 356.674C398.185 357.266 397.497 357.562 396.641 357.562C395.681 357.562 394.973 357.182 394.517 356.422V359.638H393.521V351.178ZM396.545 356.734C397.169 356.734 397.645 356.534 397.973 356.134C398.301 355.726 398.465 355.138 398.465 354.37V354.274C398.465 353.514 398.281 352.93 397.913 352.522C397.553 352.106 397.093 351.898 396.533 351.898C395.925 351.898 395.429 352.102 395.045 352.51C394.669 352.91 394.481 353.498 394.481 354.274V354.37C394.481 355.146 394.665 355.734 395.033 356.134C395.409 356.534 395.913 356.734 396.545 356.734ZM401.092 351.178H402.088V353.374H403.204C403.908 353.374 404.484 353.546 404.932 353.89C405.38 354.234 405.604 354.746 405.604 355.426V355.462C405.604 356.15 405.38 356.654 404.932 356.974C404.492 357.294 403.916 357.454 403.204 357.454H401.092V351.178ZM403.264 356.674C403.744 356.674 404.088 356.574 404.296 356.374C404.504 356.166 404.608 355.862 404.608 355.462V355.426C404.608 354.994 404.5 354.678 404.284 354.478C404.076 354.27 403.736 354.166 403.264 354.166H402.088V356.674H403.264Z" fill="white"/>
<path d="M364.35 375.384L368.326 371.198C369.287 370.181 369.768 369.215 369.768 368.3C369.768 367.74 369.609 367.301 369.292 366.984C368.984 366.667 368.545 366.508 367.976 366.508C366.763 366.508 366.058 367.25 365.862 368.734H364.728C364.803 367.745 365.125 366.965 365.694 366.396C366.273 365.817 367.033 365.528 367.976 365.528C368.9 365.528 369.633 365.785 370.174 366.298C370.725 366.802 371 367.483 371 368.342C371 369.443 370.328 370.657 368.984 371.982L366.226 374.67H371.056V375.664H364.35V375.384ZM376.901 374.782C378.665 374.782 379.547 373.489 379.547 370.904V370.344C379.547 369.177 379.309 368.249 378.833 367.558C378.357 366.858 377.704 366.508 376.873 366.508C376.024 366.508 375.361 366.844 374.885 367.516C374.409 368.188 374.171 369.14 374.171 370.372V370.932C374.171 372.173 374.414 373.125 374.899 373.788C375.385 374.451 376.052 374.782 376.901 374.782ZM376.901 375.79C375.707 375.79 374.745 375.347 374.017 374.46C373.289 373.573 372.925 372.402 372.925 370.946V370.386C372.925 368.902 373.275 367.721 373.975 366.844C374.685 365.967 375.651 365.528 376.873 365.528C378.087 365.528 379.039 365.971 379.729 366.858C380.429 367.745 380.779 368.911 380.779 370.358V370.918C380.779 372.393 380.434 373.573 379.743 374.46C379.062 375.347 378.115 375.79 376.901 375.79ZM384.634 366.858L382.394 368.468V367.334L384.718 365.654H385.852V375.664H384.634V366.858ZM391.752 375.776C390.837 375.776 390.104 375.552 389.554 375.104C389.003 374.656 388.662 374.021 388.532 373.2H389.708C389.829 373.723 390.048 374.119 390.366 374.39C390.692 374.651 391.164 374.782 391.78 374.782C392.592 374.782 393.217 374.451 393.656 373.788C394.094 373.125 394.323 372.131 394.342 370.806C394.09 371.226 393.74 371.553 393.292 371.786C392.844 372.019 392.33 372.136 391.752 372.136C390.781 372.136 389.988 371.828 389.372 371.212C388.765 370.596 388.462 369.812 388.462 368.86C388.462 367.852 388.774 367.045 389.4 366.438C390.025 365.822 390.865 365.514 391.92 365.514C393.105 365.514 394.001 365.897 394.608 366.662C395.214 367.427 395.518 368.538 395.518 369.994V370.624C395.518 372.295 395.191 373.573 394.538 374.46C393.894 375.337 392.965 375.776 391.752 375.776ZM391.934 371.184C392.606 371.184 393.156 370.983 393.586 370.582C394.015 370.181 394.23 369.658 394.23 369.014C394.23 368.211 394.015 367.586 393.586 367.138C393.166 366.69 392.61 366.466 391.92 366.466C391.266 366.466 390.734 366.681 390.324 367.11C389.913 367.539 389.708 368.104 389.708 368.804C389.708 369.532 389.908 370.111 390.31 370.54C390.711 370.969 391.252 371.184 391.934 371.184Z" fill="white"/>
<path opacity="0.6" d="M510.848 352.162V357.454H510.02V351.178H511.424L513.212 355.894L515.048 351.178H516.416V357.454H515.432V352.162L513.356 357.454H512.9L510.848 352.162ZM520.21 357.562C519.594 357.562 519.089 357.41 518.697 357.106C518.313 356.794 518.121 356.33 518.121 355.714C518.121 355.37 518.205 355.07 518.373 354.814C518.549 354.55 518.789 354.346 519.093 354.202C519.397 354.05 519.729 353.942 520.09 353.878C520.45 353.806 520.842 353.77 521.266 353.77H522.165V353.314C522.165 352.81 522.061 352.45 521.854 352.234C521.646 352.01 521.302 351.898 520.822 351.898C519.957 351.898 519.477 352.274 519.382 353.026H518.385C518.449 352.354 518.709 351.862 519.165 351.55C519.629 351.23 520.197 351.07 520.87 351.07C522.398 351.07 523.161 351.818 523.161 353.314V357.454H522.165V356.662C521.685 357.262 521.033 357.562 520.21 357.562ZM520.306 356.77C520.85 356.77 521.294 356.638 521.637 356.374C521.989 356.102 522.165 355.73 522.165 355.258V354.478H521.301C519.845 354.478 519.118 354.89 519.118 355.714C519.118 356.418 519.514 356.77 520.306 356.77ZM525.238 351.178H526.234V352.234C526.418 351.914 526.706 351.642 527.098 351.418C527.49 351.186 527.91 351.07 528.358 351.07C529.198 351.07 529.882 351.354 530.41 351.922C530.946 352.49 531.214 353.258 531.214 354.226V354.322C531.214 355.29 530.95 356.074 530.422 356.674C529.902 357.266 529.214 357.562 528.358 357.562C527.398 357.562 526.69 357.182 526.234 356.422V359.638H525.238V351.178ZM528.262 356.734C528.886 356.734 529.362 356.534 529.69 356.134C530.018 355.726 530.182 355.138 530.182 354.37V354.274C530.182 353.514 529.998 352.93 529.63 352.522C529.27 352.106 528.81 351.898 528.25 351.898C527.642 351.898 527.146 352.102 526.762 352.51C526.386 352.91 526.198 353.498 526.198 354.274V354.37C526.198 355.146 526.382 355.734 526.75 356.134C527.126 356.534 527.63 356.734 528.262 356.734ZM537.096 352.018H535.068V357.454H534.072V352.018H532.044V351.178H537.096V352.018Z" fill="white"/>
<path d="M509.35 375.384L513.326 371.198C514.287 370.181 514.768 369.215 514.768 368.3C514.768 367.74 514.609 367.301 514.292 366.984C513.984 366.667 513.545 366.508 512.976 366.508C511.763 366.508 511.058 367.25 510.862 368.734H509.728C509.803 367.745 510.125 366.965 510.694 366.396C511.273 365.817 512.033 365.528 512.976 365.528C513.9 365.528 514.633 365.785 515.174 366.298C515.725 366.802 516 367.483 516 368.342C516 369.443 515.328 370.657 513.984 371.982L511.226 374.67H516.056V375.664H509.35V375.384ZM521.901 374.782C523.665 374.782 524.547 373.489 524.547 370.904V370.344C524.547 369.177 524.309 368.249 523.833 367.558C523.357 366.858 522.704 366.508 521.873 366.508C521.024 366.508 520.361 366.844 519.885 367.516C519.409 368.188 519.171 369.14 519.171 370.372V370.932C519.171 372.173 519.414 373.125 519.899 373.788C520.385 374.451 521.052 374.782 521.901 374.782ZM521.901 375.79C520.707 375.79 519.745 375.347 519.017 374.46C518.289 373.573 517.925 372.402 517.925 370.946V370.386C517.925 368.902 518.275 367.721 518.975 366.844C519.685 365.967 520.651 365.528 521.873 365.528C523.087 365.528 524.039 365.971 524.729 366.858C525.429 367.745 525.779 368.911 525.779 370.358V370.918C525.779 372.393 525.434 373.573 524.743 374.46C524.062 375.347 523.115 375.79 521.901 375.79ZM527.198 375.384L531.174 371.198C532.136 370.181 532.616 369.215 532.616 368.3C532.616 367.74 532.458 367.301 532.14 366.984C531.832 366.667 531.394 366.508 530.824 366.508C529.611 366.508 528.906 367.25 528.71 368.734H527.576C527.651 367.745 527.973 366.965 528.542 366.396C529.121 365.817 529.882 365.528 530.824 365.528C531.748 365.528 532.481 365.785 533.022 366.298C533.573 366.802 533.848 367.483 533.848 368.342C533.848 369.443 533.176 370.657 531.832 371.982L529.074 374.67H533.904V375.664H527.198V375.384ZM539.75 374.782C541.514 374.782 542.396 373.489 542.396 370.904V370.344C542.396 369.177 542.158 368.249 541.682 367.558C541.206 366.858 540.552 366.508 539.722 366.508C538.872 366.508 538.21 366.844 537.734 367.516C537.258 368.188 537.02 369.14 537.02 370.372V370.932C537.02 372.173 537.262 373.125 537.748 373.788C538.233 374.451 538.9 374.782 539.75 374.782ZM539.75 375.79C538.555 375.79 537.594 375.347 536.866 374.46C536.138 373.573 535.774 372.402 535.774 370.946V370.386C535.774 368.902 536.124 367.721 536.824 366.844C537.533 365.967 538.499 365.528 539.722 365.528C540.935 365.528 541.887 365.971 542.578 366.858C543.278 367.745 543.628 368.911 543.628 370.358V370.918C543.628 372.393 543.282 373.573 542.592 374.46C541.91 375.347 540.963 375.79 539.75 375.79Z" fill="white"/>
<path opacity="0.6" d="M5.412 297.363H3.384V302.799H2.388V297.363H0.36V296.523H5.412V297.363ZM12.3053 296.523H13.3013V302.799H12.3053V296.523ZM6.90534 296.523H7.90134V298.719H9.01734C9.72934 298.719 10.3053 298.879 10.7453 299.199C11.1933 299.519 11.4173 300.023 11.4173 300.711V300.747C11.4173 301.427 11.1933 301.939 10.7453 302.283C10.2973 302.627 9.72134 302.799 9.01734 302.799H6.90534V296.523ZM9.07734 302.007C9.54934 302.007 9.88934 301.907 10.0973 301.707C10.3133 301.499 10.4213 301.179 10.4213 300.747V300.711C10.4213 300.311 10.3173 300.011 10.1093 299.811C9.90134 299.603 9.55734 299.499 9.07734 299.499H7.90134V302.007H9.07734ZM18.1154 302.907C17.2194 302.907 16.4834 302.619 15.9074 302.043C15.3314 301.459 15.0434 300.687 15.0434 299.727V299.631C15.0434 298.687 15.3354 297.915 15.9194 297.315C16.5114 296.715 17.2354 296.415 18.0914 296.415C18.8114 296.415 19.4234 296.595 19.9274 296.955C20.4314 297.307 20.7274 297.859 20.8154 298.611H19.8314C19.6874 297.699 19.1074 297.243 18.0914 297.243C17.5074 297.243 17.0234 297.463 16.6394 297.903C16.2634 298.335 16.0754 298.911 16.0754 299.631V299.727C16.0754 300.479 16.2594 301.059 16.6274 301.467C17.0034 301.875 17.5034 302.079 18.1274 302.079C18.5994 302.079 19.0034 301.947 19.3394 301.683C19.6834 301.411 19.8794 301.031 19.9274 300.543H20.8514C20.7874 301.231 20.4994 301.799 19.9874 302.247C19.4834 302.687 18.8594 302.907 18.1154 302.907ZM25.7709 296.523H26.7669V297.579C26.9509 297.259 27.2389 296.987 27.6309 296.763C28.0229 296.531 28.4429 296.415 28.8909 296.415C29.7309 296.415 30.4149 296.699 30.9429 297.267C31.4789 297.835 31.7469 298.603 31.7469 299.571V299.667C31.7469 300.635 31.4829 301.419 30.9549 302.019C30.4349 302.611 29.7469 302.907 28.8909 302.907C27.9309 302.907 27.2229 302.527 26.7669 301.767V304.983H25.7709V296.523ZM28.7949 302.079C29.4189 302.079 29.8949 301.879 30.2229 301.479C30.5509 301.071 30.7149 300.483 30.7149 299.715V299.619C30.7149 298.859 30.5309 298.275 30.1629 297.867C29.8029 297.451 29.3429 297.243 28.7829 297.243C28.1749 297.243 27.6789 297.447 27.2949 297.855C26.9189 298.255 26.7309 298.843 26.7309 299.619V299.715C26.7309 300.491 26.9149 301.079 27.2829 301.479C27.6589 301.879 28.1629 302.079 28.7949 302.079ZM35.0492 302.151L32.5892 296.523H33.6572L35.5772 301.023L37.3172 296.523H38.3372L34.8692 304.983H33.8612L35.0492 302.151ZM42.3968 302.907C41.4528 302.907 40.7048 302.603 40.1528 301.995C39.6008 301.387 39.3248 300.463 39.3248 299.223V298.839C39.3248 298.247 39.3488 297.723 39.3968 297.267C39.4448 296.803 39.5448 296.339 39.6968 295.875C39.8488 295.403 40.0488 295.011 40.2968 294.699C40.5448 294.387 40.8808 294.127 41.3048 293.919C41.7368 293.711 42.2448 293.591 42.8288 293.559L43.0688 293.547C43.9488 293.499 44.5448 293.411 44.8568 293.283L44.9888 294.123C44.5808 294.299 43.9448 294.407 43.0808 294.447L42.9008 294.459C41.9328 294.507 41.2408 294.823 40.8248 295.407C40.4168 295.983 40.1768 296.879 40.1048 298.095H40.1528C40.3688 297.655 40.6888 297.307 41.1128 297.051C41.5448 296.787 42.0448 296.655 42.6128 296.655C43.4848 296.655 44.1808 296.939 44.7008 297.507C45.2288 298.067 45.4928 298.795 45.4928 299.691V299.739C45.4928 300.707 45.2008 301.479 44.6168 302.055C44.0408 302.623 43.3008 302.907 42.3968 302.907ZM40.8968 301.467C41.2648 301.875 41.7688 302.079 42.4088 302.079C43.0488 302.079 43.5488 301.879 43.9088 301.479C44.2768 301.071 44.4608 300.495 44.4608 299.751V299.727C44.4608 299.031 44.2928 298.483 43.9568 298.083C43.6288 297.683 43.1488 297.483 42.5168 297.483C41.8528 297.483 41.3248 297.691 40.9328 298.107C40.5488 298.523 40.3568 299.091 40.3568 299.811V299.835C40.3568 300.515 40.5368 301.059 40.8968 301.467Z" fill="white"/>
<path d="M20.9705 285.152H15.2425V284.704L20.4745 276.112H22.3305V284.016H23.9145V285.152H22.3305V287.552H20.9705V285.152ZM20.9705 284.016V277.168L17.0025 284.016H20.9705ZM25.145 287.232L29.689 282.448C30.7876 281.285 31.337 280.181 31.337 279.136C31.337 278.496 31.1556 277.994 30.793 277.632C30.441 277.269 29.9396 277.088 29.289 277.088C27.9023 277.088 27.097 277.936 26.873 279.632H25.577C25.6623 278.501 26.0303 277.61 26.681 276.96C27.3423 276.298 28.2116 275.968 29.289 275.968C30.345 275.968 31.1823 276.261 31.801 276.848C32.4303 277.424 32.745 278.202 32.745 279.184C32.745 280.442 31.977 281.829 30.441 283.344L27.289 286.416H32.809V287.552H25.145V287.232ZM39.4893 286.544C41.5053 286.544 42.5133 285.066 42.5133 282.112V281.472C42.5133 280.138 42.2413 279.077 41.6973 278.288C41.1533 277.488 40.4067 277.088 39.4573 277.088C38.4867 277.088 37.7293 277.472 37.1853 278.24C36.6413 279.008 36.3693 280.096 36.3693 281.504V282.144C36.3693 283.562 36.6467 284.65 37.2013 285.408C37.756 286.165 38.5187 286.544 39.4893 286.544ZM39.4893 287.696C38.124 287.696 37.0253 287.189 36.1933 286.176C35.3613 285.162 34.9453 283.824 34.9453 282.16V281.52C34.9453 279.824 35.3453 278.474 36.1453 277.472C36.956 276.469 38.06 275.968 39.4573 275.968C40.844 275.968 41.932 276.474 42.7213 277.488C43.5213 278.501 43.9213 279.834 43.9213 281.488V282.128C43.9213 283.813 43.5267 285.162 42.7373 286.176C41.9587 287.189 40.876 287.696 39.4893 287.696Z" fill="white"/>
<path opacity="0.6" d="M5.412 250.564H3.384V256H2.388V250.564H0.36V249.724H5.412V250.564ZM12.3053 249.724H13.3013V256H12.3053V249.724ZM6.90534 249.724H7.90134V251.92H9.01734C9.72934 251.92 10.3053 252.08 10.7453 252.4C11.1933 252.72 11.4173 253.224 11.4173 253.912V253.948C11.4173 254.628 11.1933 255.14 10.7453 255.484C10.2973 255.828 9.72134 256 9.01734 256H6.90534V249.724ZM9.07734 255.208C9.54934 255.208 9.88934 255.108 10.0973 254.908C10.3133 254.7 10.4213 254.38 10.4213 253.948V253.912C10.4213 253.512 10.3173 253.212 10.1093 253.012C9.90134 252.804 9.55734 252.7 9.07734 252.7H7.90134V255.208H9.07734ZM18.1154 256.108C17.2194 256.108 16.4834 255.82 15.9074 255.244C15.3314 254.66 15.0434 253.888 15.0434 252.928V252.832C15.0434 251.888 15.3354 251.116 15.9194 250.516C16.5114 249.916 17.2354 249.616 18.0914 249.616C18.8114 249.616 19.4234 249.796 19.9274 250.156C20.4314 250.508 20.7274 251.06 20.8154 251.812H19.8314C19.6874 250.9 19.1074 250.444 18.0914 250.444C17.5074 250.444 17.0234 250.664 16.6394 251.104C16.2634 251.536 16.0754 252.112 16.0754 252.832V252.928C16.0754 253.68 16.2594 254.26 16.6274 254.668C17.0034 255.076 17.5034 255.28 18.1274 255.28C18.5994 255.28 19.0034 255.148 19.3394 254.884C19.6834 254.612 19.8794 254.232 19.9274 253.744H20.8514C20.7874 254.432 20.4994 255 19.9874 255.448C19.4834 255.888 18.8594 256.108 18.1154 256.108ZM25.7709 249.724H26.7669V250.78C26.9509 250.46 27.2389 250.188 27.6309 249.964C28.0229 249.732 28.4429 249.616 28.8909 249.616C29.7309 249.616 30.4149 249.9 30.9429 250.468C31.4789 251.036 31.7469 251.804 31.7469 252.772V252.868C31.7469 253.836 31.4829 254.62 30.9549 255.22C30.4349 255.812 29.7469 256.108 28.8909 256.108C27.9309 256.108 27.2229 255.728 26.7669 254.968V258.184H25.7709V249.724ZM28.7949 255.28C29.4189 255.28 29.8949 255.08 30.2229 254.68C30.5509 254.272 30.7149 253.684 30.7149 252.916V252.82C30.7149 252.06 30.5309 251.476 30.1629 251.068C29.8029 250.652 29.3429 250.444 28.7829 250.444C28.1749 250.444 27.6789 250.648 27.2949 251.056C26.9189 251.456 26.7309 252.044 26.7309 252.82V252.916C26.7309 253.692 26.9149 254.28 27.2829 254.68C27.6589 255.08 28.1629 255.28 28.7949 255.28ZM35.0492 255.352L32.5892 249.724H33.6572L35.5772 254.224L37.3172 249.724H38.3372L34.8692 258.184H33.8612L35.0492 255.352ZM42.3968 256.108C41.4528 256.108 40.7048 255.804 40.1528 255.196C39.6008 254.588 39.3248 253.664 39.3248 252.424V252.04C39.3248 251.448 39.3488 250.924 39.3968 250.468C39.4448 250.004 39.5448 249.54 39.6968 249.076C39.8488 248.604 40.0488 248.212 40.2968 247.9C40.5448 247.588 40.8808 247.328 41.3048 247.12C41.7368 246.912 42.2448 246.792 42.8288 246.76L43.0688 246.748C43.9488 246.7 44.5448 246.612 44.8568 246.484L44.9888 247.324C44.5808 247.5 43.9448 247.608 43.0808 247.648L42.9008 247.66C41.9328 247.708 41.2408 248.024 40.8248 248.608C40.4168 249.184 40.1768 250.08 40.1048 251.296H40.1528C40.3688 250.856 40.6888 250.508 41.1128 250.252C41.5448 249.988 42.0448 249.856 42.6128 249.856C43.4848 249.856 44.1808 250.14 44.7008 250.708C45.2288 251.268 45.4928 251.996 45.4928 252.892V252.94C45.4928 253.908 45.2008 254.68 44.6168 255.256C44.0408 255.824 43.3008 256.108 42.3968 256.108ZM40.8968 254.668C41.2648 255.076 41.7688 255.28 42.4088 255.28C43.0488 255.28 43.5488 255.08 43.9088 254.68C44.2768 254.272 44.4608 253.696 44.4608 252.952V252.928C44.4608 252.232 44.2928 251.684 43.9568 251.284C43.6288 250.884 43.1488 250.684 42.5168 250.684C41.8528 250.684 41.3248 250.892 40.9328 251.308C40.5488 251.724 40.3568 252.292 40.3568 253.012V253.036C40.3568 253.716 40.5368 254.26 40.8968 254.668Z" fill="white"/>
<path d="M21.448 239.6H15.72V239.152L20.952 230.56H22.808V238.464H24.392V239.6H22.808V242H21.448V239.6ZM21.448 238.464V231.616L17.48 238.464H21.448ZM31.6705 239.6H25.9425V239.152L31.1745 230.56H33.0305V238.464H34.6145V239.6H33.0305V242H31.6705V239.6ZM31.6705 238.464V231.616L27.7025 238.464H31.6705ZM40.9669 240.992C42.9829 240.992 43.9909 239.515 43.9909 236.56V235.92C43.9909 234.587 43.7189 233.525 43.1749 232.736C42.6309 231.936 41.8842 231.536 40.9349 231.536C39.9642 231.536 39.2069 231.92 38.6629 232.688C38.1189 233.456 37.8469 234.544 37.8469 235.952V236.592C37.8469 238.011 38.1242 239.099 38.6789 239.856C39.2335 240.613 39.9962 240.992 40.9669 240.992ZM40.9669 242.144C39.6015 242.144 38.5029 241.637 37.6709 240.624C36.8389 239.611 36.4229 238.272 36.4229 236.608V235.968C36.4229 234.272 36.8229 232.923 37.6229 231.92C38.4335 230.917 39.5375 230.416 40.9349 230.416C42.3215 230.416 43.4095 230.923 44.1989 231.936C44.9989 232.949 45.3989 234.283 45.3989 235.936V236.576C45.3989 238.261 45.0042 239.611 44.2149 240.624C43.4362 241.637 42.3535 242.144 40.9669 242.144Z" fill="white"/>
<circle cx="221" cy="150" r="4" fill="#F1D5C0"/>
<circle cx="155" cy="240" r="4" fill="#F1D5C0"/>
<circle cx="92" cy="308" r="4" fill="#F1D5C0"/>
<circle cx="286" cy="65" r="4" fill="#F1D5C0"/>
<circle cx="566" cy="44" r="4" fill="#F1D5C0"/>
<circle cx="499" cy="44" r="4" fill="#F1D5C0"/>
<circle cx="429" cy="44" r="4" fill="#F1D5C0"/>
<circle cx="354" cy="44" r="4" fill="#F1D5C0"/>
<path opacity="0.6" d="M5.412 111.564H3.384V117H2.388V111.564H0.36V110.724H5.412V111.564ZM12.3053 110.724H13.3013V117H12.3053V110.724ZM6.90534 110.724H7.90134V112.92H9.01734C9.72934 112.92 10.3053 113.08 10.7453 113.4C11.1933 113.72 11.4173 114.224 11.4173 114.912V114.948C11.4173 115.628 11.1933 116.14 10.7453 116.484C10.2973 116.828 9.72134 117 9.01734 117H6.90534V110.724ZM9.07734 116.208C9.54934 116.208 9.88934 116.108 10.0973 115.908C10.3133 115.7 10.4213 115.38 10.4213 114.948V114.912C10.4213 114.512 10.3173 114.212 10.1093 114.012C9.90134 113.804 9.55734 113.7 9.07734 113.7H7.90134V116.208H9.07734ZM18.1154 117.108C17.2194 117.108 16.4834 116.82 15.9074 116.244C15.3314 115.66 15.0434 114.888 15.0434 113.928V113.832C15.0434 112.888 15.3354 112.116 15.9194 111.516C16.5114 110.916 17.2354 110.616 18.0914 110.616C18.8114 110.616 19.4234 110.796 19.9274 111.156C20.4314 111.508 20.7274 112.06 20.8154 112.812H19.8314C19.6874 111.9 19.1074 111.444 18.0914 111.444C17.5074 111.444 17.0234 111.664 16.6394 112.104C16.2634 112.536 16.0754 113.112 16.0754 113.832V113.928C16.0754 114.68 16.2594 115.26 16.6274 115.668C17.0034 116.076 17.5034 116.28 18.1274 116.28C18.5994 116.28 19.0034 116.148 19.3394 115.884C19.6834 115.612 19.8794 115.232 19.9274 114.744H20.8514C20.7874 115.432 20.4994 116 19.9874 116.448C19.4834 116.888 18.8594 117.108 18.1154 117.108ZM25.7709 110.724H26.7669V111.78C26.9509 111.46 27.2389 111.188 27.6309 110.964C28.0229 110.732 28.4429 110.616 28.8909 110.616C29.7309 110.616 30.4149 110.9 30.9429 111.468C31.4789 112.036 31.7469 112.804 31.7469 113.772V113.868C31.7469 114.836 31.4829 115.62 30.9549 116.22C30.4349 116.812 29.7469 117.108 28.8909 117.108C27.9309 117.108 27.2229 116.728 26.7669 115.968V119.184H25.7709V110.724ZM28.7949 116.28C29.4189 116.28 29.8949 116.08 30.2229 115.68C30.5509 115.272 30.7149 114.684 30.7149 113.916V113.82C30.7149 113.06 30.5309 112.476 30.1629 112.068C29.8029 111.652 29.3429 111.444 28.7829 111.444C28.1749 111.444 27.6789 111.648 27.2949 112.056C26.9189 112.456 26.7309 113.044 26.7309 113.82V113.916C26.7309 114.692 26.9149 115.28 27.2829 115.68C27.6589 116.08 28.1629 116.28 28.7949 116.28ZM35.0492 116.352L32.5892 110.724H33.6572L35.5772 115.224L37.3172 110.724H38.3372L34.8692 119.184H33.8612L35.0492 116.352ZM42.3968 117.108C41.4528 117.108 40.7048 116.804 40.1528 116.196C39.6008 115.588 39.3248 114.664 39.3248 113.424V113.04C39.3248 112.448 39.3488 111.924 39.3968 111.468C39.4448 111.004 39.5448 110.54 39.6968 110.076C39.8488 109.604 40.0488 109.212 40.2968 108.9C40.5448 108.588 40.8808 108.328 41.3048 108.12C41.7368 107.912 42.2448 107.792 42.8288 107.76L43.0688 107.748C43.9488 107.7 44.5448 107.612 44.8568 107.484L44.9888 108.324C44.5808 108.5 43.9448 108.608 43.0808 108.648L42.9008 108.66C41.9328 108.708 41.2408 109.024 40.8248 109.608C40.4168 110.184 40.1768 111.08 40.1048 112.296H40.1528C40.3688 111.856 40.6888 111.508 41.1128 111.252C41.5448 110.988 42.0448 110.856 42.6128 110.856C43.4848 110.856 44.1808 111.14 44.7008 111.708C45.2288 112.268 45.4928 112.996 45.4928 113.892V113.94C45.4928 114.908 45.2008 115.68 44.6168 116.256C44.0408 116.824 43.3008 117.108 42.3968 117.108ZM40.8968 115.668C41.2648 116.076 41.7688 116.28 42.4088 116.28C43.0488 116.28 43.5488 116.08 43.9088 115.68C44.2768 115.272 44.4608 114.696 44.4608 113.952V113.928C44.4608 113.232 44.2928 112.684 43.9568 112.284C43.6288 111.884 43.1488 111.684 42.5168 111.684C41.8528 111.684 41.3248 111.892 40.9328 112.308C40.5488 112.724 40.3568 113.292 40.3568 114.012V114.036C40.3568 114.716 40.5368 115.26 40.8968 115.668Z" fill="white"/>
<path d="M18.592 104.144C17.408 104.144 16.5013 103.856 15.872 103.28C15.2427 102.693 14.88 101.904 14.784 100.912H16.112C16.24 101.605 16.48 102.133 16.832 102.496C17.184 102.848 17.7653 103.024 18.576 103.024C19.3547 103.024 19.968 102.779 20.416 102.288C20.864 101.797 21.088 101.12 21.088 100.256C21.088 99.4453 20.8693 98.8 20.432 98.32C20.0053 97.8293 19.424 97.584 18.688 97.584C18.048 97.584 17.52 97.6747 17.104 97.856C16.688 98.0373 16.3147 98.3147 15.984 98.688H15.472V92.56H21.904V93.76H16.624V97.248C17.1893 96.7253 17.968 96.464 18.96 96.464C20.0053 96.464 20.8587 96.8107 21.52 97.504C22.1813 98.1867 22.512 99.104 22.512 100.256C22.512 101.44 22.1387 102.384 21.392 103.088C20.6453 103.792 19.712 104.144 18.592 104.144ZM29.26 102.992C31.276 102.992 32.284 101.515 32.284 98.56V97.92C32.284 96.5867 32.012 95.5253 31.468 94.736C30.924 93.936 30.1773 93.536 29.228 93.536C28.2573 93.536 27.5 93.92 26.956 94.688C26.412 95.456 26.14 96.544 26.14 97.952V98.592C26.14 100.011 26.4173 101.099 26.972 101.856C27.5267 102.613 28.2893 102.992 29.26 102.992ZM29.26 104.144C27.8947 104.144 26.796 103.637 25.964 102.624C25.132 101.611 24.716 100.272 24.716 98.608V97.968C24.716 96.272 25.116 94.9227 25.916 93.92C26.7267 92.9173 27.8307 92.416 29.228 92.416C30.6147 92.416 31.7027 92.9227 32.492 93.936C33.292 94.9493 33.692 96.2827 33.692 97.936V98.576C33.692 100.261 33.2973 101.611 32.508 102.624C31.7293 103.637 30.6467 104.144 29.26 104.144ZM40.5138 102.992C42.5298 102.992 43.5378 101.515 43.5378 98.56V97.92C43.5378 96.5867 43.2658 95.5253 42.7218 94.736C42.1777 93.936 41.4311 93.536 40.4818 93.536C39.5111 93.536 38.7537 93.92 38.2097 94.688C37.6657 95.456 37.3937 96.544 37.3937 97.952V98.592C37.3937 100.011 37.6711 101.099 38.2257 101.856C38.7804 102.613 39.5431 102.992 40.5138 102.992ZM40.5138 104.144C39.1484 104.144 38.0497 103.637 37.2177 102.624C36.3857 101.611 35.9697 100.272 35.9697 98.608V97.968C35.9697 96.272 36.3697 94.9227 37.1697 93.92C37.9804 92.9173 39.0844 92.416 40.4818 92.416C41.8684 92.416 42.9564 92.9227 43.7458 93.936C44.5458 94.9493 44.9458 96.2827 44.9458 97.936V98.576C44.9458 100.261 44.5511 101.611 43.7618 102.624C42.9831 103.637 41.9004 104.144 40.5138 104.144Z" fill="white"/>
<path opacity="0.6" d="M5.412 69.564H3.384V75H2.388V69.564H0.36V68.724H5.412V69.564ZM12.3053 68.724H13.3013V75H12.3053V68.724ZM6.90534 68.724H7.90134V70.92H9.01734C9.72934 70.92 10.3053 71.08 10.7453 71.4C11.1933 71.72 11.4173 72.224 11.4173 72.912V72.948C11.4173 73.628 11.1933 74.14 10.7453 74.484C10.2973 74.828 9.72134 75 9.01734 75H6.90534V68.724ZM9.07734 74.208C9.54934 74.208 9.88934 74.108 10.0973 73.908C10.3133 73.7 10.4213 73.38 10.4213 72.948V72.912C10.4213 72.512 10.3173 72.212 10.1093 72.012C9.90134 71.804 9.55734 71.7 9.07734 71.7H7.90134V74.208H9.07734ZM18.1154 75.108C17.2194 75.108 16.4834 74.82 15.9074 74.244C15.3314 73.66 15.0434 72.888 15.0434 71.928V71.832C15.0434 70.888 15.3354 70.116 15.9194 69.516C16.5114 68.916 17.2354 68.616 18.0914 68.616C18.8114 68.616 19.4234 68.796 19.9274 69.156C20.4314 69.508 20.7274 70.06 20.8154 70.812H19.8314C19.6874 69.9 19.1074 69.444 18.0914 69.444C17.5074 69.444 17.0234 69.664 16.6394 70.104C16.2634 70.536 16.0754 71.112 16.0754 71.832V71.928C16.0754 72.68 16.2594 73.26 16.6274 73.668C17.0034 74.076 17.5034 74.28 18.1274 74.28C18.5994 74.28 19.0034 74.148 19.3394 73.884C19.6834 73.612 19.8794 73.232 19.9274 72.744H20.8514C20.7874 73.432 20.4994 74 19.9874 74.448C19.4834 74.888 18.8594 75.108 18.1154 75.108ZM25.7709 68.724H26.7669V69.78C26.9509 69.46 27.2389 69.188 27.6309 68.964C28.0229 68.732 28.4429 68.616 28.8909 68.616C29.7309 68.616 30.4149 68.9 30.9429 69.468C31.4789 70.036 31.7469 70.804 31.7469 71.772V71.868C31.7469 72.836 31.4829 73.62 30.9549 74.22C30.4349 74.812 29.7469 75.108 28.8909 75.108C27.9309 75.108 27.2229 74.728 26.7669 73.968V77.184H25.7709V68.724ZM28.7949 74.28C29.4189 74.28 29.8949 74.08 30.2229 73.68C30.5509 73.272 30.7149 72.684 30.7149 71.916V71.82C30.7149 71.06 30.5309 70.476 30.1629 70.068C29.8029 69.652 29.3429 69.444 28.7829 69.444C28.1749 69.444 27.6789 69.648 27.2949 70.056C26.9189 70.456 26.7309 71.044 26.7309 71.82V71.916C26.7309 72.692 26.9149 73.28 27.2829 73.68C27.6589 74.08 28.1629 74.28 28.7949 74.28ZM35.0492 74.352L32.5892 68.724H33.6572L35.5772 73.224L37.3172 68.724H38.3372L34.8692 77.184H33.8612L35.0492 74.352ZM42.3968 75.108C41.4528 75.108 40.7048 74.804 40.1528 74.196C39.6008 73.588 39.3248 72.664 39.3248 71.424V71.04C39.3248 70.448 39.3488 69.924 39.3968 69.468C39.4448 69.004 39.5448 68.54 39.6968 68.076C39.8488 67.604 40.0488 67.212 40.2968 66.9C40.5448 66.588 40.8808 66.328 41.3048 66.12C41.7368 65.912 42.2448 65.792 42.8288 65.76L43.0688 65.748C43.9488 65.7 44.5448 65.612 44.8568 65.484L44.9888 66.324C44.5808 66.5 43.9448 66.608 43.0808 66.648L42.9008 66.66C41.9328 66.708 41.2408 67.024 40.8248 67.608C40.4168 68.184 40.1768 69.08 40.1048 70.296H40.1528C40.3688 69.856 40.6888 69.508 41.1128 69.252C41.5448 68.988 42.0448 68.856 42.6128 68.856C43.4848 68.856 44.1808 69.14 44.7008 69.708C45.2288 70.268 45.4928 70.996 45.4928 71.892V71.94C45.4928 72.908 45.2008 73.68 44.6168 74.256C44.0408 74.824 43.3008 75.108 42.3968 75.108ZM40.8968 73.668C41.2648 74.076 41.7688 74.28 42.4088 74.28C43.0488 74.28 43.5488 74.08 43.9088 73.68C44.2768 73.272 44.4608 72.696 44.4608 71.952V71.928C44.4608 71.232 44.2928 70.684 43.9568 70.284C43.6288 69.884 43.1488 69.684 42.5168 69.684C41.8528 69.684 41.3248 69.892 40.9328 70.308C40.5488 70.724 40.3568 71.292 40.3568 72.012V72.036C40.3568 72.716 40.5368 73.26 40.8968 73.668Z" fill="white"/>
<path d="M21.592 60.144C20.408 60.144 19.5013 59.856 18.872 59.28C18.2427 58.6933 17.88 57.904 17.784 56.912H19.112C19.24 57.6053 19.48 58.1333 19.832 58.496C20.184 58.848 20.7653 59.024 21.576 59.024C22.3547 59.024 22.968 58.7787 23.416 58.288C23.864 57.7973 24.088 57.12 24.088 56.256C24.088 55.4453 23.8693 54.8 23.432 54.32C23.0053 53.8293 22.424 53.584 21.688 53.584C21.048 53.584 20.52 53.6747 20.104 53.856C19.688 54.0373 19.3147 54.3147 18.984 54.688H18.472V48.56H24.904V49.76H19.624V53.248C20.1893 52.7253 20.968 52.464 21.96 52.464C23.0053 52.464 23.8587 52.8107 24.52 53.504C25.1813 54.1867 25.512 55.104 25.512 56.256C25.512 57.44 25.1387 58.384 24.392 59.088C23.6453 59.792 22.712 60.144 21.592 60.144ZM27.1381 59.68L31.6821 54.896C32.7808 53.7333 33.3301 52.6293 33.3301 51.584C33.3301 50.944 33.1488 50.4427 32.7861 50.08C32.4341 49.7173 31.9328 49.536 31.2821 49.536C29.8955 49.536 29.0901 50.384 28.8661 52.08H27.5701C27.6555 50.9493 28.0235 50.0587 28.6741 49.408C29.3355 48.7467 30.2048 48.416 31.2821 48.416C32.3381 48.416 33.1755 48.7093 33.7941 49.296C34.4235 49.872 34.7381 50.6507 34.7381 51.632C34.7381 52.8907 33.9701 54.2773 32.4341 55.792L29.2821 58.864H34.8021V60H27.1381V59.68ZM41.4825 58.992C43.4985 58.992 44.5065 57.5147 44.5065 54.56V53.92C44.5065 52.5867 44.2345 51.5253 43.6905 50.736C43.1465 49.936 42.3998 49.536 41.4505 49.536C40.4798 49.536 39.7225 49.92 39.1785 50.688C38.6345 51.456 38.3625 52.544 38.3625 53.952V54.592C38.3625 56.0107 38.6398 57.0987 39.1945 57.856C39.7492 58.6133 40.5118 58.992 41.4825 58.992ZM41.4825 60.144C40.1172 60.144 39.0185 59.6373 38.1865 58.624C37.3545 57.6107 36.9385 56.272 36.9385 54.608V53.968C36.9385 52.272 37.3385 50.9227 38.1385 49.92C38.9492 48.9173 40.0532 48.416 41.4505 48.416C42.8372 48.416 43.9252 48.9227 44.7145 49.936C45.5145 50.9493 45.9145 52.2827 45.9145 53.936V54.576C45.9145 56.2613 45.5198 57.6107 44.7305 58.624C43.9518 59.6373 42.8692 60.144 41.4825 60.144Z" fill="white"/>
<path opacity="0.6" d="M5.412 24.564H3.384V30H2.388V24.564H0.36V23.724H5.412V24.564ZM12.3053 23.724H13.3013V30H12.3053V23.724ZM6.90534 23.724H7.90134V25.92H9.01734C9.72934 25.92 10.3053 26.08 10.7453 26.4C11.1933 26.72 11.4173 27.224 11.4173 27.912V27.948C11.4173 28.628 11.1933 29.14 10.7453 29.484C10.2973 29.828 9.72134 30 9.01734 30H6.90534V23.724ZM9.07734 29.208C9.54934 29.208 9.88934 29.108 10.0973 28.908C10.3133 28.7 10.4213 28.38 10.4213 27.948V27.912C10.4213 27.512 10.3173 27.212 10.1093 27.012C9.90134 26.804 9.55734 26.7 9.07734 26.7H7.90134V29.208H9.07734ZM18.1154 30.108C17.2194 30.108 16.4834 29.82 15.9074 29.244C15.3314 28.66 15.0434 27.888 15.0434 26.928V26.832C15.0434 25.888 15.3354 25.116 15.9194 24.516C16.5114 23.916 17.2354 23.616 18.0914 23.616C18.8114 23.616 19.4234 23.796 19.9274 24.156C20.4314 24.508 20.7274 25.06 20.8154 25.812H19.8314C19.6874 24.9 19.1074 24.444 18.0914 24.444C17.5074 24.444 17.0234 24.664 16.6394 25.104C16.2634 25.536 16.0754 26.112 16.0754 26.832V26.928C16.0754 27.68 16.2594 28.26 16.6274 28.668C17.0034 29.076 17.5034 29.28 18.1274 29.28C18.5994 29.28 19.0034 29.148 19.3394 28.884C19.6834 28.612 19.8794 28.232 19.9274 27.744H20.8514C20.7874 28.432 20.4994 29 19.9874 29.448C19.4834 29.888 18.8594 30.108 18.1154 30.108ZM25.7709 23.724H26.7669V24.78C26.9509 24.46 27.2389 24.188 27.6309 23.964C28.0229 23.732 28.4429 23.616 28.8909 23.616C29.7309 23.616 30.4149 23.9 30.9429 24.468C31.4789 25.036 31.7469 25.804 31.7469 26.772V26.868C31.7469 27.836 31.4829 28.62 30.9549 29.22C30.4349 29.812 29.7469 30.108 28.8909 30.108C27.9309 30.108 27.2229 29.728 26.7669 28.968V32.184H25.7709V23.724ZM28.7949 29.28C29.4189 29.28 29.8949 29.08 30.2229 28.68C30.5509 28.272 30.7149 27.684 30.7149 26.916V26.82C30.7149 26.06 30.5309 25.476 30.1629 25.068C29.8029 24.652 29.3429 24.444 28.7829 24.444C28.1749 24.444 27.6789 24.648 27.2949 25.056C26.9189 25.456 26.7309 26.044 26.7309 26.82V26.916C26.7309 27.692 26.9149 28.28 27.2829 28.68C27.6589 29.08 28.1629 29.28 28.7949 29.28ZM35.0492 29.352L32.5892 23.724H33.6572L35.5772 28.224L37.3172 23.724H38.3372L34.8692 32.184H33.8612L35.0492 29.352ZM42.3968 30.108C41.4528 30.108 40.7048 29.804 40.1528 29.196C39.6008 28.588 39.3248 27.664 39.3248 26.424V26.04C39.3248 25.448 39.3488 24.924 39.3968 24.468C39.4448 24.004 39.5448 23.54 39.6968 23.076C39.8488 22.604 40.0488 22.212 40.2968 21.9C40.5448 21.588 40.8808 21.328 41.3048 21.12C41.7368 20.912 42.2448 20.792 42.8288 20.76L43.0688 20.748C43.9488 20.7 44.5448 20.612 44.8568 20.484L44.9888 21.324C44.5808 21.5 43.9448 21.608 43.0808 21.648L42.9008 21.66C41.9328 21.708 41.2408 22.024 40.8248 22.608C40.4168 23.184 40.1768 24.08 40.1048 25.296H40.1528C40.3688 24.856 40.6888 24.508 41.1128 24.252C41.5448 23.988 42.0448 23.856 42.6128 23.856C43.4848 23.856 44.1808 24.14 44.7008 24.708C45.2288 25.268 45.4928 25.996 45.4928 26.892V26.94C45.4928 27.908 45.2008 28.68 44.6168 29.256C44.0408 29.824 43.3008 30.108 42.3968 30.108ZM40.8968 28.668C41.2648 29.076 41.7688 29.28 42.4088 29.28C43.0488 29.28 43.5488 29.08 43.9088 28.68C44.2768 28.272 44.4608 27.696 44.4608 26.952V26.928C44.4608 26.232 44.2928 25.684 43.9568 25.284C43.6288 24.884 43.1488 24.684 42.5168 24.684C41.8528 24.684 41.3248 24.892 40.9328 25.308C40.5488 25.724 40.3568 26.292 40.3568 27.012V27.036C40.3568 27.716 40.5368 28.26 40.8968 28.668Z" fill="white"/>
<path d="M20.592 16.144C19.408 16.144 18.5013 15.856 17.872 15.28C17.2427 14.6933 16.88 13.904 16.784 12.912H18.112C18.24 13.6053 18.48 14.1333 18.832 14.496C19.184 14.848 19.7653 15.024 20.576 15.024C21.3547 15.024 21.968 14.7787 22.416 14.288C22.864 13.7973 23.088 13.12 23.088 12.256C23.088 11.4453 22.8693 10.8 22.432 10.32C22.0053 9.82933 21.424 9.584 20.688 9.584C20.048 9.584 19.52 9.67467 19.104 9.856C18.688 10.0373 18.3147 10.3147 17.984 10.688H17.472V4.56H23.904V5.76H18.624V9.248C19.1893 8.72533 19.968 8.464 20.96 8.464C22.0053 8.464 22.8587 8.81067 23.52 9.504C24.1813 10.1867 24.512 11.104 24.512 12.256C24.512 13.44 24.1387 14.384 23.392 15.088C22.6453 15.792 21.712 16.144 20.592 16.144ZM31.9518 13.6H26.2237V13.152L31.4557 4.56H33.3118V12.464H34.8958V13.6H33.3118V16H31.9518V13.6ZM31.9518 12.464V5.616L27.9837 12.464H31.9518ZM41.2481 14.992C43.2641 14.992 44.2721 13.5147 44.2721 10.56V9.92C44.2721 8.58667 44.0001 7.52533 43.4561 6.736C42.9121 5.936 42.1655 5.536 41.2161 5.536C40.2455 5.536 39.4881 5.92 38.9441 6.688C38.4001 7.456 38.1281 8.544 38.1281 9.952V10.592C38.1281 12.0107 38.4055 13.0987 38.9601 13.856C39.5148 14.6133 40.2775 14.992 41.2481 14.992ZM41.2481 16.144C39.8828 16.144 38.7841 15.6373 37.9521 14.624C37.1201 13.6107 36.7041 12.272 36.7041 10.608V9.968C36.7041 8.272 37.1041 6.92267 37.9041 5.92C38.7148 4.91733 39.8188 4.416 41.2161 4.416C42.6028 4.416 43.6908 4.92267 44.4801 5.936C45.2801 6.94933 45.6801 8.28267 45.6801 9.936V10.576C45.6801 12.2613 45.2855 13.6107 44.4961 14.624C43.7175 15.6373 42.6348 16.144 41.2481 16.144Z" fill="white"/>
<rect opacity="0.3" x="155" y="240" width="1" height="136" fill="#F1D5C0"/>
<rect opacity="0.3" x="91" y="307" width="1" height="69" fill="#F1D5C0"/>
<rect opacity="0.3" width="1" height="225" transform="matrix(-1 0 0 1 222 151)" fill="#F1D5C0"/>
<rect opacity="0.3" x="286" y="66" width="1" height="310" fill="#F1D5C0"/>
<rect opacity="0.3" x="353" y="44" width="1" height="332" fill="#F1D5C0"/>
<rect opacity="0.3" x="429" y="44" width="1" height="332" fill="#F1D5C0"/>
<rect opacity="0.3" x="565" y="44" width="1" height="332" rx="0.5" fill="#F1D5C0"/>
<rect opacity="0.3" x="498" y="44" width="1" height="332" fill="#F1D5C0"/>
<path d="M52.5 370L92.2177 307.235L155.887 238.509L221.568 147.812L285.907 63.4509L353.933 44H428.326H499.033H566.054H619" stroke="#F1D5C0"/>
<defs>
<radialGradient id="paint0_radial_718:1213" cx="0" cy="0" r="1" gradientUnits="userSpaceOnUse" gradientTransform="translate(314.391 134.771) rotate(52.9606) scale(213.624 336.329)">
<stop stop-color="#F1D5C0"/>
<stop offset="1" stop-color="#F1D5C0" stop-opacity="0"/>
</radialGradient>
</defs>
</svg>
