<svg width="458" height="343" viewBox="0 0 458 343" fill="none" xmlns="http://www.w3.org/2000/svg">
<path opacity="0.6" d="M4.059 5.923H2.538V10H1.791V5.923H0.27V5.293H4.059V5.923ZM9.22901 5.293H9.97601V10H9.22901V5.293ZM5.17901 5.293H5.92601V6.94H6.76301C7.29701 6.94 7.72901 7.06 8.05901 7.3C8.39501 7.54 8.56301 7.918 8.56301 8.434V8.461C8.56301 8.971 8.39501 9.355 8.05901 9.613C7.72301 9.871 7.29101 10 6.76301 10H5.17901V5.293ZM6.80801 9.406C7.16201 9.406 7.41701 9.331 7.57301 9.181C7.73501 9.025 7.81601 8.785 7.81601 8.461V8.434C7.81601 8.134 7.73801 7.909 7.58201 7.759C7.42601 7.603 7.16801 7.525 6.80801 7.525H5.92601V9.406H6.80801ZM13.5866 10.081C12.9146 10.081 12.3626 9.865 11.9306 9.433C11.4986 8.995 11.2826 8.416 11.2826 7.696V7.624C11.2826 6.916 11.5016 6.337 11.9396 5.887C12.3836 5.437 12.9266 5.212 13.5686 5.212C14.1086 5.212 14.5676 5.347 14.9456 5.617C15.3236 5.881 15.5456 6.295 15.6116 6.859H14.8736C14.7656 6.175 14.3306 5.833 13.5686 5.833C13.1306 5.833 12.7676 5.998 12.4796 6.328C12.1976 6.652 12.0566 7.084 12.0566 7.624V7.696C12.0566 8.26 12.1946 8.695 12.4706 9.001C12.7526 9.307 13.1276 9.46 13.5956 9.46C13.9496 9.46 14.2526 9.361 14.5046 9.163C14.7626 8.959 14.9096 8.674 14.9456 8.308H15.6386C15.5906 8.824 15.3746 9.25 14.9906 9.586C14.6126 9.916 14.1446 10.081 13.5866 10.081ZM19.3282 5.293H20.0752V6.085C20.2132 5.845 20.4292 5.641 20.7232 5.473C21.0172 5.299 21.3322 5.212 21.6682 5.212C22.2982 5.212 22.8112 5.425 23.2072 5.851C23.6092 6.277 23.8102 6.853 23.8102 7.579V7.651C23.8102 8.377 23.6122 8.965 23.2162 9.415C22.8262 9.859 22.3102 10.081 21.6682 10.081C20.9482 10.081 20.4172 9.796 20.0752 9.226V11.638H19.3282V5.293ZM21.5962 9.46C22.0642 9.46 22.4212 9.31 22.6672 9.01C22.9132 8.704 23.0362 8.263 23.0362 7.687V7.615C23.0362 7.045 22.8982 6.607 22.6222 6.301C22.3522 5.989 22.0072 5.833 21.5872 5.833C21.1312 5.833 20.7592 5.986 20.4712 6.292C20.1892 6.592 20.0482 7.033 20.0482 7.615V7.687C20.0482 8.269 20.1862 8.71 20.4622 9.01C20.7442 9.31 21.1222 9.46 21.5962 9.46ZM26.2869 9.514L24.4419 5.293H25.2429L26.6829 8.668L27.9879 5.293H28.7529L26.1519 11.638H25.3959L26.2869 9.514ZM31.7976 10.081C31.0896 10.081 30.5286 9.853 30.1146 9.397C29.7006 8.941 29.4936 8.248 29.4936 7.318V7.03C29.4936 6.586 29.5116 6.193 29.5476 5.851C29.5836 5.503 29.6586 5.155 29.7726 4.807C29.8866 4.453 30.0366 4.159 30.2226 3.925C30.4086 3.691 30.6606 3.496 30.9786 3.34C31.3026 3.184 31.6836 3.094 32.1216 3.07L32.3016 3.061C32.9616 3.025 33.4086 2.959 33.6426 2.863L33.7416 3.493C33.4356 3.625 32.9586 3.706 32.3106 3.736L32.1756 3.745C31.4496 3.781 30.9306 4.018 30.6186 4.456C30.3126 4.888 30.1326 5.56 30.0786 6.472H30.1146C30.2766 6.142 30.5166 5.881 30.8346 5.689C31.1586 5.491 31.5336 5.392 31.9596 5.392C32.6136 5.392 33.1356 5.605 33.5256 6.031C33.9216 6.451 34.1196 6.997 34.1196 7.669V7.705C34.1196 8.431 33.9006 9.01 33.4626 9.442C33.0306 9.868 32.4756 10.081 31.7976 10.081ZM30.6726 9.001C30.9486 9.307 31.3266 9.46 31.8066 9.46C32.2866 9.46 32.6616 9.31 32.9316 9.01C33.2076 8.704 33.3456 8.272 33.3456 7.714V7.696C33.3456 7.174 33.2196 6.763 32.9676 6.463C32.7216 6.163 32.3616 6.013 31.8876 6.013C31.3896 6.013 30.9936 6.169 30.6996 6.481C30.4116 6.793 30.2676 7.219 30.2676 7.759V7.777C30.2676 8.287 30.4026 8.695 30.6726 9.001Z" fill="white"/>
<path opacity="0.6" d="M415.756 321V316.293H416.503V319.92L418.906 316.293H419.653V321H418.906V317.373L416.503 321H415.756ZM424.826 321.081C424.226 321.081 423.728 320.895 423.332 320.523C422.942 320.151 422.711 319.662 422.639 319.056C422.627 318.972 422.621 318.921 422.621 318.903H421.91V321H421.163V316.293H421.91V318.273H422.63C422.702 317.649 422.933 317.151 423.323 316.779C423.719 316.401 424.223 316.212 424.835 316.212C425.501 316.212 426.038 316.434 426.446 316.878C426.854 317.322 427.058 317.898 427.058 318.606V318.678C427.058 319.392 426.851 319.971 426.437 320.415C426.029 320.859 425.492 321.081 424.826 321.081ZM424.835 320.46C425.297 320.46 425.654 320.301 425.906 319.983C426.158 319.665 426.284 319.233 426.284 318.687V318.624C426.284 318.072 426.158 317.637 425.906 317.319C425.654 316.995 425.297 316.833 424.835 316.833C424.367 316.833 424.007 316.992 423.755 317.31C423.509 317.628 423.386 318.063 423.386 318.615V318.687C423.386 319.239 423.509 319.674 423.755 319.992C424.001 320.304 424.361 320.46 424.835 320.46ZM429.167 319.182C429.113 319.83 428.999 320.304 428.825 320.604C428.651 320.898 428.378 321.045 428.006 321.045C427.928 321.045 427.847 321.039 427.763 321.027L427.691 321V320.289L427.754 320.307C427.814 320.319 427.877 320.325 427.943 320.325C428.039 320.325 428.117 320.298 428.177 320.244C428.243 320.184 428.294 320.091 428.33 319.965C428.372 319.839 428.402 319.722 428.42 319.614C428.438 319.5 428.459 319.341 428.483 319.137C428.507 318.921 428.543 318.309 428.591 317.301L428.618 316.293H431.723V321H430.976V316.923H429.284C429.23 318.219 429.191 318.972 429.167 319.182ZM433.323 316.293H434.07V317.94H434.907C435.435 317.94 435.867 318.069 436.203 318.327C436.539 318.585 436.707 318.969 436.707 319.479V319.506C436.707 320.022 436.539 320.4 436.203 320.64C435.873 320.88 435.441 321 434.907 321H433.323V316.293ZM434.952 320.415C435.312 320.415 435.57 320.34 435.726 320.19C435.882 320.034 435.96 319.806 435.96 319.506V319.479C435.96 319.155 435.879 318.918 435.717 318.768C435.561 318.612 435.306 318.534 434.952 318.534H434.07V320.415H434.952Z" fill="white"/>
<path d="M415.25 335.8L418.09 332.81C418.777 332.083 419.12 331.393 419.12 330.74C419.12 330.34 419.007 330.027 418.78 329.8C418.56 329.573 418.247 329.46 417.84 329.46C416.973 329.46 416.47 329.99 416.33 331.05H415.52C415.573 330.343 415.803 329.787 416.21 329.38C416.623 328.967 417.167 328.76 417.84 328.76C418.5 328.76 419.023 328.943 419.41 329.31C419.803 329.67 420 330.157 420 330.77C420 331.557 419.52 332.423 418.56 333.37L416.59 335.29H420.04V336H415.25V335.8ZM424.215 335.37C425.475 335.37 426.105 334.447 426.105 332.6V332.2C426.105 331.367 425.935 330.703 425.595 330.21C425.255 329.71 424.789 329.46 424.195 329.46C423.589 329.46 423.115 329.7 422.775 330.18C422.435 330.66 422.265 331.34 422.265 332.22V332.62C422.265 333.507 422.439 334.187 422.785 334.66C423.132 335.133 423.609 335.37 424.215 335.37ZM424.215 336.09C423.362 336.09 422.675 335.773 422.155 335.14C421.635 334.507 421.375 333.67 421.375 332.63V332.23C421.375 331.17 421.625 330.327 422.125 329.7C422.632 329.073 423.322 328.76 424.195 328.76C425.062 328.76 425.742 329.077 426.235 329.71C426.735 330.343 426.985 331.177 426.985 332.21V332.61C426.985 333.663 426.739 334.507 426.245 335.14C425.759 335.773 425.082 336.09 424.215 336.09ZM427.999 335.8L430.839 332.81C431.525 332.083 431.869 331.393 431.869 330.74C431.869 330.34 431.755 330.027 431.529 329.8C431.309 329.573 430.995 329.46 430.589 329.46C429.722 329.46 429.219 329.99 429.079 331.05H428.269C428.322 330.343 428.552 329.787 428.959 329.38C429.372 328.967 429.915 328.76 430.589 328.76C431.249 328.76 431.772 328.943 432.159 329.31C432.552 329.67 432.749 330.157 432.749 330.77C432.749 331.557 432.269 332.423 431.309 333.37L429.339 335.29H432.789V336H427.999V335.8ZM436.964 335.37C438.224 335.37 438.854 334.447 438.854 332.6V332.2C438.854 331.367 438.684 330.703 438.344 330.21C438.004 329.71 437.537 329.46 436.944 329.46C436.337 329.46 435.864 329.7 435.524 330.18C435.184 330.66 435.014 331.34 435.014 332.22V332.62C435.014 333.507 435.187 334.187 435.534 334.66C435.881 335.133 436.357 335.37 436.964 335.37ZM436.964 336.09C436.111 336.09 435.424 335.773 434.904 335.14C434.384 334.507 434.124 333.67 434.124 332.63V332.23C434.124 331.17 434.374 330.327 434.874 329.7C435.381 329.073 436.071 328.76 436.944 328.76C437.811 328.76 438.491 329.077 438.984 329.71C439.484 330.343 439.734 331.177 439.734 332.21V332.61C439.734 333.663 439.487 334.507 438.994 335.14C438.507 335.773 437.831 336.09 436.964 336.09Z" fill="white"/>
<path d="M4.03 196.5H0.45V196.22L3.72 190.85H4.88V195.79H5.87V196.5H4.88V198H4.03V196.5ZM4.03 195.79V191.51L1.55 195.79H4.03ZM9.61906 198.09C7.90573 198.09 7.04906 197.007 7.04906 194.84V194.67C7.04906 193.417 7.3024 192.453 7.80906 191.78C8.3224 191.1 9.0024 190.76 9.84906 190.76C10.4224 190.76 10.8891 190.907 11.2491 191.2C11.6157 191.493 11.8457 191.923 11.9391 192.49H11.1091C11.0291 192.143 10.8857 191.887 10.6791 191.72C10.4724 191.553 10.1757 191.47 9.78906 191.47C9.23573 191.47 8.78906 191.717 8.44906 192.21C8.10906 192.703 7.92906 193.41 7.90906 194.33C8.29573 193.683 8.90906 193.36 9.74906 193.36C10.4491 193.36 11.0124 193.583 11.4391 194.03C11.8724 194.47 12.0891 195.027 12.0891 195.7C12.0891 196.42 11.8657 197 11.4191 197.44C10.9724 197.873 10.3724 198.09 9.61906 198.09ZM9.61906 197.41C10.0857 197.41 10.4657 197.257 10.7591 196.95C11.0524 196.643 11.1991 196.24 11.1991 195.74C11.1991 195.22 11.0557 194.807 10.7691 194.5C10.4824 194.193 10.0957 194.04 9.60906 194.04C9.12906 194.04 8.73573 194.187 8.42906 194.48C8.1224 194.773 7.96906 195.153 7.96906 195.62C7.96906 196.187 8.11906 196.627 8.41906 196.94C8.72573 197.253 9.12573 197.41 9.61906 197.41ZM16.2488 197.37C17.5088 197.37 18.1388 196.447 18.1388 194.6V194.2C18.1388 193.367 17.9688 192.703 17.6288 192.21C17.2888 191.71 16.8222 191.46 16.2288 191.46C15.6222 191.46 15.1488 191.7 14.8088 192.18C14.4688 192.66 14.2988 193.34 14.2988 194.22V194.62C14.2988 195.507 14.4722 196.187 14.8188 196.66C15.1655 197.133 15.6422 197.37 16.2488 197.37ZM16.2488 198.09C15.3955 198.09 14.7088 197.773 14.1888 197.14C13.6688 196.507 13.4088 195.67 13.4088 194.63V194.23C13.4088 193.17 13.6588 192.327 14.1588 191.7C14.6655 191.073 15.3555 190.76 16.2288 190.76C17.0955 190.76 17.7755 191.077 18.2688 191.71C18.7688 192.343 19.0188 193.177 19.0188 194.21V194.61C19.0188 195.663 18.7722 196.507 18.2788 197.14C17.7922 197.773 17.1155 198.09 16.2488 198.09Z" fill="white"/>
<path d="M4.03 164.5H0.45V164.22L3.72 158.85H4.88V163.79H5.87V164.5H4.88V166H4.03V164.5ZM4.03 163.79V159.51L1.55 163.79H4.03ZM9.48906 166.09C9.0824 166.09 8.69573 166.017 8.32906 165.87C7.9624 165.717 7.6524 165.473 7.39906 165.14C7.14573 164.807 7.01906 164.417 7.01906 163.97C7.01906 163.51 7.1424 163.123 7.38906 162.81C7.63573 162.497 7.9624 162.267 8.36906 162.12C7.64906 161.833 7.28906 161.333 7.28906 160.62C7.28906 160.073 7.50906 159.627 7.94906 159.28C8.39573 158.933 8.90906 158.76 9.48906 158.76C10.0691 158.76 10.5791 158.933 11.0191 159.28C11.4591 159.62 11.6791 160.06 11.6791 160.6C11.6791 161.287 11.3124 161.79 10.5791 162.11C11.4924 162.45 11.9491 163.063 11.9491 163.95C11.9491 164.623 11.7024 165.15 11.2091 165.53C10.7224 165.903 10.1491 166.09 9.48906 166.09ZM9.48906 165.38C9.94906 165.38 10.3257 165.253 10.6191 165C10.9124 164.74 11.0591 164.38 11.0591 163.92C11.0591 163.473 10.9091 163.127 10.6091 162.88C10.3157 162.627 9.94906 162.5 9.50906 162.5C9.05573 162.5 8.67573 162.627 8.36906 162.88C8.0624 163.127 7.90906 163.48 7.90906 163.94C7.90906 164.387 8.0624 164.74 8.36906 165C8.67573 165.253 9.04906 165.38 9.48906 165.38ZM9.51906 161.81C9.90573 161.81 10.2157 161.703 10.4491 161.49C10.6824 161.277 10.7991 160.983 10.7991 160.61C10.7991 160.27 10.6757 159.99 10.4291 159.77C10.1824 159.55 9.86906 159.44 9.48906 159.44C9.1024 159.44 8.78573 159.547 8.53906 159.76C8.2924 159.973 8.16906 160.263 8.16906 160.63C8.16906 160.99 8.29906 161.277 8.55906 161.49C8.81906 161.703 9.13906 161.81 9.51906 161.81ZM16.0828 165.37C17.3428 165.37 17.9728 164.447 17.9728 162.6V162.2C17.9728 161.367 17.8028 160.703 17.4628 160.21C17.1228 159.71 16.6561 159.46 16.0628 159.46C15.4561 159.46 14.9828 159.7 14.6428 160.18C14.3028 160.66 14.1328 161.34 14.1328 162.22V162.62C14.1328 163.507 14.3061 164.187 14.6528 164.66C14.9995 165.133 15.4761 165.37 16.0828 165.37ZM16.0828 166.09C15.2295 166.09 14.5428 165.773 14.0228 165.14C13.5028 164.507 13.2428 163.67 13.2428 162.63V162.23C13.2428 161.17 13.4928 160.327 13.9928 159.7C14.4995 159.073 15.1895 158.76 16.0628 158.76C16.9295 158.76 17.6095 159.077 18.1028 159.71C18.6028 160.343 18.8528 161.177 18.8528 162.21V162.61C18.8528 163.663 18.6061 164.507 18.1128 165.14C17.6261 165.773 16.9495 166.09 16.0828 166.09Z" fill="white"/>
<path d="M4.03 301.5H0.45V301.22L3.72 295.85H4.88V300.79H5.87V301.5H4.88V303H4.03V301.5ZM4.03 300.79V296.51L1.55 300.79H4.03ZM9.84023 302.37C11.1002 302.37 11.7302 301.447 11.7302 299.6V299.2C11.7302 298.367 11.5602 297.703 11.2202 297.21C10.8802 296.71 10.4136 296.46 9.82023 296.46C9.21357 296.46 8.74023 296.7 8.40023 297.18C8.06023 297.66 7.89023 298.34 7.89023 299.22V299.62C7.89023 300.507 8.06357 301.187 8.41023 301.66C8.7569 302.133 9.23357 302.37 9.84023 302.37ZM9.84023 303.09C8.9869 303.09 8.30023 302.773 7.78023 302.14C7.26023 301.507 7.00023 300.67 7.00023 299.63V299.23C7.00023 298.17 7.25023 297.327 7.75023 296.7C8.2569 296.073 8.9469 295.76 9.82023 295.76C10.6869 295.76 11.3669 296.077 11.8602 296.71C12.3602 297.343 12.6102 298.177 12.6102 299.21V299.61C12.6102 300.663 12.3636 301.507 11.8702 302.14C11.3836 302.773 10.7069 303.09 9.84023 303.09ZM16.8738 302.37C18.1338 302.37 18.7638 301.447 18.7638 299.6V299.2C18.7638 298.367 18.5938 297.703 18.2538 297.21C17.9138 296.71 17.4472 296.46 16.8538 296.46C16.2472 296.46 15.7738 296.7 15.4338 297.18C15.0938 297.66 14.9238 298.34 14.9238 299.22V299.62C14.9238 300.507 15.0972 301.187 15.4438 301.66C15.7905 302.133 16.2672 302.37 16.8738 302.37ZM16.8738 303.09C16.0205 303.09 15.3338 302.773 14.8138 302.14C14.2938 301.507 14.0338 300.67 14.0338 299.63V299.23C14.0338 298.17 14.2838 297.327 14.7838 296.7C15.2905 296.073 15.9805 295.76 16.8538 295.76C17.7205 295.76 18.4005 296.077 18.8938 296.71C19.3938 297.343 19.6438 298.177 19.6438 299.21V299.61C19.6438 300.663 19.3972 301.507 18.9038 302.14C18.4172 302.773 17.7405 303.09 16.8738 303.09Z" fill="white"/>
<path opacity="0.6" d="M244.989 321.081C244.527 321.081 244.149 320.967 243.855 320.739C243.567 320.505 243.423 320.157 243.423 319.695C243.423 319.437 243.486 319.212 243.612 319.02C243.744 318.822 243.924 318.669 244.152 318.561C244.38 318.447 244.629 318.366 244.899 318.318C245.169 318.264 245.463 318.237 245.781 318.237H246.456V317.895C246.456 317.517 246.378 317.247 246.222 317.085C246.066 316.917 245.808 316.833 245.448 316.833C244.8 316.833 244.44 317.115 244.368 317.679H243.621C243.669 317.175 243.864 316.806 244.206 316.572C244.554 316.332 244.98 316.212 245.484 316.212C246.63 316.212 247.203 316.773 247.203 317.895V321H246.456V320.406C246.096 320.856 245.607 321.081 244.989 321.081ZM245.061 320.487C245.469 320.487 245.802 320.388 246.06 320.19C246.324 319.986 246.456 319.707 246.456 319.353V318.768H245.808C244.716 318.768 244.17 319.077 244.17 319.695C244.17 320.223 244.467 320.487 245.061 320.487ZM248.706 316.293H250.353C251.457 316.293 252.009 316.692 252.009 317.49V317.517C252.009 317.745 251.946 317.955 251.82 318.147C251.694 318.333 251.505 318.459 251.253 318.525C251.907 318.669 252.234 319.023 252.234 319.587V319.614C252.234 320.07 252.084 320.415 251.784 320.649C251.49 320.883 251.079 321 250.551 321H248.706V316.293ZM249.453 316.887V318.282H250.353C250.665 318.282 250.887 318.225 251.019 318.111C251.157 317.997 251.226 317.811 251.226 317.553V317.526C251.226 317.286 251.154 317.121 251.01 317.031C250.872 316.935 250.65 316.887 250.344 316.887H249.453ZM249.453 318.876V320.406H250.479C250.809 320.406 251.052 320.349 251.208 320.235C251.37 320.115 251.451 319.923 251.451 319.659V319.632C251.451 319.368 251.37 319.176 251.208 319.056C251.052 318.936 250.809 318.876 250.479 318.876H249.453ZM254.263 316.923V321H253.516V316.293H256.504V316.923H254.263ZM259.123 320.514L257.278 316.293H258.079L259.519 319.668L260.824 316.293H261.589L258.988 322.638H258.232L259.123 320.514ZM264.483 321.081C263.811 321.081 263.259 320.865 262.827 320.433C262.395 319.995 262.179 319.416 262.179 318.696V318.624C262.179 317.916 262.398 317.337 262.836 316.887C263.28 316.437 263.823 316.212 264.465 316.212C265.005 316.212 265.464 316.347 265.842 316.617C266.22 316.881 266.442 317.295 266.508 317.859H265.77C265.662 317.175 265.227 316.833 264.465 316.833C264.027 316.833 263.664 316.998 263.376 317.328C263.094 317.652 262.953 318.084 262.953 318.624V318.696C262.953 319.26 263.091 319.695 263.367 320.001C263.649 320.307 264.024 320.46 264.492 320.46C264.846 320.46 265.149 320.361 265.401 320.163C265.659 319.959 265.806 319.674 265.842 319.308H266.535C266.487 319.824 266.271 320.25 265.887 320.586C265.509 320.916 265.041 321.081 264.483 321.081ZM271.002 316.923H269.481V321H268.734V316.923H267.213V316.293H271.002V316.923Z" fill="white"/>
<path d="M243.25 335.8L246.09 332.81C246.777 332.083 247.12 331.393 247.12 330.74C247.12 330.34 247.007 330.027 246.78 329.8C246.56 329.573 246.247 329.46 245.84 329.46C244.973 329.46 244.47 329.99 244.33 331.05H243.52C243.573 330.343 243.803 329.787 244.21 329.38C244.623 328.967 245.167 328.76 245.84 328.76C246.5 328.76 247.023 328.943 247.41 329.31C247.803 329.67 248 330.157 248 330.77C248 331.557 247.52 332.423 246.56 333.37L244.59 335.29H248.04V336H243.25V335.8ZM252.215 335.37C253.475 335.37 254.105 334.447 254.105 332.6V332.2C254.105 331.367 253.935 330.703 253.595 330.21C253.255 329.71 252.789 329.46 252.195 329.46C251.589 329.46 251.115 329.7 250.775 330.18C250.435 330.66 250.265 331.34 250.265 332.22V332.62C250.265 333.507 250.439 334.187 250.785 334.66C251.132 335.133 251.609 335.37 252.215 335.37ZM252.215 336.09C251.362 336.09 250.675 335.773 250.155 335.14C249.635 334.507 249.375 333.67 249.375 332.63V332.23C249.375 331.17 249.625 330.327 250.125 329.7C250.632 329.073 251.322 328.76 252.195 328.76C253.062 328.76 253.742 329.077 254.235 329.71C254.735 330.343 254.985 331.177 254.985 332.21V332.61C254.985 333.663 254.739 334.507 254.245 335.14C253.759 335.773 253.082 336.09 252.215 336.09ZM257.739 329.71L256.139 330.86V330.05L257.799 328.85H258.609V336H257.739V329.71ZM262.822 336.08C262.169 336.08 261.646 335.92 261.252 335.6C260.859 335.28 260.616 334.827 260.522 334.24H261.362C261.449 334.613 261.606 334.897 261.832 335.09C262.066 335.277 262.402 335.37 262.842 335.37C263.422 335.37 263.869 335.133 264.182 334.66C264.496 334.187 264.659 333.477 264.672 332.53C264.492 332.83 264.242 333.063 263.922 333.23C263.602 333.397 263.236 333.48 262.822 333.48C262.129 333.48 261.562 333.26 261.122 332.82C260.689 332.38 260.472 331.82 260.472 331.14C260.472 330.42 260.696 329.843 261.142 329.41C261.589 328.97 262.189 328.75 262.942 328.75C263.789 328.75 264.429 329.023 264.862 329.57C265.296 330.117 265.512 330.91 265.512 331.95V332.4C265.512 333.593 265.279 334.507 264.812 335.14C264.352 335.767 263.689 336.08 262.822 336.08ZM262.952 332.8C263.432 332.8 263.826 332.657 264.132 332.37C264.439 332.083 264.592 331.71 264.592 331.25C264.592 330.677 264.439 330.23 264.132 329.91C263.832 329.59 263.436 329.43 262.942 329.43C262.476 329.43 262.096 329.583 261.802 329.89C261.509 330.197 261.362 330.6 261.362 331.1C261.362 331.62 261.506 332.033 261.792 332.34C262.079 332.647 262.466 332.8 262.952 332.8Z" fill="white"/>
<path opacity="0.6" d="M361.13 316.887C360.458 316.887 360.122 317.172 360.122 317.742V317.769C360.122 318.039 360.2 318.243 360.356 318.381C360.512 318.519 360.77 318.588 361.13 318.588H362.012V316.887H361.13ZM359.888 321H359.033L360.464 319.029C359.738 318.879 359.375 318.459 359.375 317.769V317.742C359.375 317.25 359.543 316.887 359.879 316.653C360.215 316.413 360.647 316.293 361.175 316.293H362.759V321H362.012V319.155H361.202L359.888 321ZM367.425 318.903H365.112V321H364.365V316.293H365.112V318.273H367.425V316.293H368.172V321H367.425V318.903ZM369.772 316.293H371.419C372.523 316.293 373.075 316.692 373.075 317.49V317.517C373.075 317.745 373.012 317.955 372.886 318.147C372.76 318.333 372.571 318.459 372.319 318.525C372.973 318.669 373.3 319.023 373.3 319.587V319.614C373.3 320.07 373.15 320.415 372.85 320.649C372.556 320.883 372.145 321 371.617 321H369.772V316.293ZM370.519 316.887V318.282H371.419C371.731 318.282 371.953 318.225 372.085 318.111C372.223 317.997 372.292 317.811 372.292 317.553V317.526C372.292 317.286 372.22 317.121 372.076 317.031C371.938 316.935 371.716 316.887 371.41 316.887H370.519ZM370.519 318.876V320.406H371.545C371.875 320.406 372.118 320.349 372.274 320.235C372.436 320.115 372.517 319.923 372.517 319.659V319.632C372.517 319.368 372.436 319.176 372.274 319.056C372.118 318.936 371.875 318.876 371.545 318.876H370.519ZM375.859 321.081C375.397 321.081 375.019 320.967 374.725 320.739C374.437 320.505 374.293 320.157 374.293 319.695C374.293 319.437 374.356 319.212 374.482 319.02C374.614 318.822 374.794 318.669 375.022 318.561C375.25 318.447 375.499 318.366 375.769 318.318C376.039 318.264 376.333 318.237 376.651 318.237H377.326V317.895C377.326 317.517 377.248 317.247 377.092 317.085C376.936 316.917 376.678 316.833 376.318 316.833C375.67 316.833 375.31 317.115 375.238 317.679H374.491C374.539 317.175 374.734 316.806 375.076 316.572C375.424 316.332 375.85 316.212 376.354 316.212C377.5 316.212 378.073 316.773 378.073 317.895V321H377.326V320.406C376.966 320.856 376.477 321.081 375.859 321.081ZM375.931 320.487C376.339 320.487 376.672 320.388 376.93 320.19C377.194 319.986 377.326 319.707 377.326 319.353V318.768H376.678C375.586 318.768 375.04 319.077 375.04 319.695C375.04 320.223 375.337 320.487 375.931 320.487ZM379.63 316.293H380.377V317.085C380.515 316.845 380.731 316.641 381.025 316.473C381.319 316.299 381.634 316.212 381.97 316.212C382.6 316.212 383.113 316.425 383.509 316.851C383.911 317.277 384.112 317.853 384.112 318.579V318.651C384.112 319.377 383.914 319.965 383.518 320.415C383.128 320.859 382.612 321.081 381.97 321.081C381.25 321.081 380.719 320.796 380.377 320.226V322.638H379.63V316.293ZM381.898 320.46C382.366 320.46 382.723 320.31 382.969 320.01C383.215 319.704 383.338 319.263 383.338 318.687V318.615C383.338 318.045 383.2 317.607 382.924 317.301C382.654 316.989 382.309 316.833 381.889 316.833C381.433 316.833 381.061 316.986 380.773 317.292C380.491 317.592 380.35 318.033 380.35 318.615V318.687C380.35 319.269 380.488 319.71 380.764 320.01C381.046 320.31 381.424 320.46 381.898 320.46ZM385.309 316.293H386.056V317.94H386.893C387.421 317.94 387.853 318.069 388.189 318.327C388.525 318.585 388.693 318.969 388.693 319.479V319.506C388.693 320.022 388.525 320.4 388.189 320.64C387.859 320.88 387.427 321 386.893 321H385.309V316.293ZM386.938 320.415C387.298 320.415 387.556 320.34 387.712 320.19C387.868 320.034 387.946 319.806 387.946 319.506V319.479C387.946 319.155 387.865 318.918 387.703 318.768C387.547 318.612 387.292 318.534 386.938 318.534H386.056V320.415H386.938Z" fill="white"/>
<path d="M358.852 335.8L361.692 332.81C362.379 332.083 362.722 331.393 362.722 330.74C362.722 330.34 362.609 330.027 362.382 329.8C362.162 329.573 361.849 329.46 361.442 329.46C360.576 329.46 360.072 329.99 359.932 331.05H359.122C359.176 330.343 359.406 329.787 359.812 329.38C360.226 328.967 360.769 328.76 361.442 328.76C362.102 328.76 362.626 328.943 363.012 329.31C363.406 329.67 363.602 330.157 363.602 330.77C363.602 331.557 363.122 332.423 362.162 333.37L360.192 335.29H363.642V336H358.852V335.8ZM367.818 335.37C369.078 335.37 369.708 334.447 369.708 332.6V332.2C369.708 331.367 369.538 330.703 369.198 330.21C368.858 329.71 368.391 329.46 367.798 329.46C367.191 329.46 366.718 329.7 366.378 330.18C366.038 330.66 365.868 331.34 365.868 332.22V332.62C365.868 333.507 366.041 334.187 366.388 334.66C366.734 335.133 367.211 335.37 367.818 335.37ZM367.818 336.09C366.964 336.09 366.278 335.773 365.758 335.14C365.238 334.507 364.978 333.67 364.978 332.63V332.23C364.978 331.17 365.228 330.327 365.728 329.7C366.234 329.073 366.924 328.76 367.798 328.76C368.664 328.76 369.344 329.077 369.838 329.71C370.338 330.343 370.588 331.177 370.588 332.21V332.61C370.588 333.663 370.341 334.507 369.848 335.14C369.361 335.773 368.684 336.09 367.818 336.09ZM371.601 335.8L374.441 332.81C375.128 332.083 375.471 331.393 375.471 330.74C375.471 330.34 375.358 330.027 375.131 329.8C374.911 329.573 374.598 329.46 374.191 329.46C373.325 329.46 372.821 329.99 372.681 331.05H371.871C371.925 330.343 372.155 329.787 372.561 329.38C372.975 328.967 373.518 328.76 374.191 328.76C374.851 328.76 375.375 328.943 375.761 329.31C376.155 329.67 376.351 330.157 376.351 330.77C376.351 331.557 375.871 332.423 374.911 333.37L372.941 335.29H376.391V336H371.601V335.8ZM380.566 335.37C381.826 335.37 382.456 334.447 382.456 332.6V332.2C382.456 331.367 382.286 330.703 381.946 330.21C381.606 329.71 381.14 329.46 380.546 329.46C379.94 329.46 379.466 329.7 379.126 330.18C378.786 330.66 378.616 331.34 378.616 332.22V332.62C378.616 333.507 378.79 334.187 379.136 334.66C379.483 335.133 379.96 335.37 380.566 335.37ZM380.566 336.09C379.713 336.09 379.026 335.773 378.506 335.14C377.986 334.507 377.726 333.67 377.726 332.63V332.23C377.726 331.17 377.976 330.327 378.476 329.7C378.983 329.073 379.673 328.76 380.546 328.76C381.413 328.76 382.093 329.077 382.586 329.71C383.086 330.343 383.336 331.177 383.336 332.21V332.61C383.336 333.663 383.09 334.507 382.596 335.14C382.11 335.773 381.433 336.09 380.566 336.09Z" fill="white"/>
<path opacity="0.6" d="M187.756 321V316.293H188.503V319.92L190.906 316.293H191.653V321H190.906V317.373L188.503 321H187.756ZM196.826 321.081C196.226 321.081 195.728 320.895 195.332 320.523C194.942 320.151 194.711 319.662 194.639 319.056C194.627 318.972 194.621 318.921 194.621 318.903H193.91V321H193.163V316.293H193.91V318.273H194.63C194.702 317.649 194.933 317.151 195.323 316.779C195.719 316.401 196.223 316.212 196.835 316.212C197.501 316.212 198.038 316.434 198.446 316.878C198.854 317.322 199.058 317.898 199.058 318.606V318.678C199.058 319.392 198.851 319.971 198.437 320.415C198.029 320.859 197.492 321.081 196.826 321.081ZM196.835 320.46C197.297 320.46 197.654 320.301 197.906 319.983C198.158 319.665 198.284 319.233 198.284 318.687V318.624C198.284 318.072 198.158 317.637 197.906 317.319C197.654 316.995 197.297 316.833 196.835 316.833C196.367 316.833 196.007 316.992 195.755 317.31C195.509 317.628 195.386 318.063 195.386 318.615V318.687C195.386 319.239 195.509 319.674 195.755 319.992C196.001 320.304 196.361 320.46 196.835 320.46ZM201.167 319.182C201.113 319.83 200.999 320.304 200.825 320.604C200.651 320.898 200.378 321.045 200.006 321.045C199.928 321.045 199.847 321.039 199.763 321.027L199.691 321V320.289L199.754 320.307C199.814 320.319 199.877 320.325 199.943 320.325C200.039 320.325 200.117 320.298 200.177 320.244C200.243 320.184 200.294 320.091 200.33 319.965C200.372 319.839 200.402 319.722 200.42 319.614C200.438 319.5 200.459 319.341 200.483 319.137C200.507 318.921 200.543 318.309 200.591 317.301L200.618 316.293H203.723V321H202.976V316.923H201.284C201.23 318.219 201.191 318.972 201.167 319.182ZM205.323 316.293H206.07V317.94H206.907C207.435 317.94 207.867 318.069 208.203 318.327C208.539 318.585 208.707 318.969 208.707 319.479V319.506C208.707 320.022 208.539 320.4 208.203 320.64C207.873 320.88 207.441 321 206.907 321H205.323V316.293ZM206.952 320.415C207.312 320.415 207.57 320.34 207.726 320.19C207.882 320.034 207.96 319.806 207.96 319.506V319.479C207.96 319.155 207.879 318.918 207.717 318.768C207.561 318.612 207.306 318.534 206.952 318.534H206.07V320.415H206.952Z" fill="white"/>
<path d="M187.25 335.8L190.09 332.81C190.777 332.083 191.12 331.393 191.12 330.74C191.12 330.34 191.007 330.027 190.78 329.8C190.56 329.573 190.247 329.46 189.84 329.46C188.973 329.46 188.47 329.99 188.33 331.05H187.52C187.573 330.343 187.803 329.787 188.21 329.38C188.623 328.967 189.167 328.76 189.84 328.76C190.5 328.76 191.023 328.943 191.41 329.31C191.803 329.67 192 330.157 192 330.77C192 331.557 191.52 332.423 190.56 333.37L188.59 335.29H192.04V336H187.25V335.8ZM196.215 335.37C197.475 335.37 198.105 334.447 198.105 332.6V332.2C198.105 331.367 197.935 330.703 197.595 330.21C197.255 329.71 196.789 329.46 196.195 329.46C195.589 329.46 195.115 329.7 194.775 330.18C194.435 330.66 194.265 331.34 194.265 332.22V332.62C194.265 333.507 194.439 334.187 194.785 334.66C195.132 335.133 195.609 335.37 196.215 335.37ZM196.215 336.09C195.362 336.09 194.675 335.773 194.155 335.14C193.635 334.507 193.375 333.67 193.375 332.63V332.23C193.375 331.17 193.625 330.327 194.125 329.7C194.632 329.073 195.322 328.76 196.195 328.76C197.062 328.76 197.742 329.077 198.235 329.71C198.735 330.343 198.985 331.177 198.985 332.21V332.61C198.985 333.663 198.739 334.507 198.245 335.14C197.759 335.773 197.082 336.09 196.215 336.09ZM201.739 329.71L200.139 330.86V330.05L201.799 328.85H202.609V336H201.739V329.71ZM206.822 336.08C206.169 336.08 205.646 335.92 205.252 335.6C204.859 335.28 204.616 334.827 204.522 334.24H205.362C205.449 334.613 205.606 334.897 205.832 335.09C206.066 335.277 206.402 335.37 206.842 335.37C207.422 335.37 207.869 335.133 208.182 334.66C208.496 334.187 208.659 333.477 208.672 332.53C208.492 332.83 208.242 333.063 207.922 333.23C207.602 333.397 207.236 333.48 206.822 333.48C206.129 333.48 205.562 333.26 205.122 332.82C204.689 332.38 204.472 331.82 204.472 331.14C204.472 330.42 204.696 329.843 205.142 329.41C205.589 328.97 206.189 328.75 206.942 328.75C207.789 328.75 208.429 329.023 208.862 329.57C209.296 330.117 209.512 330.91 209.512 331.95V332.4C209.512 333.593 209.279 334.507 208.812 335.14C208.352 335.767 207.689 336.08 206.822 336.08ZM206.952 332.8C207.432 332.8 207.826 332.657 208.132 332.37C208.439 332.083 208.592 331.71 208.592 331.25C208.592 330.677 208.439 330.23 208.132 329.91C207.832 329.59 207.436 329.43 206.942 329.43C206.476 329.43 206.096 329.583 205.802 329.89C205.509 330.197 205.362 330.6 205.362 331.1C205.362 331.62 205.506 332.033 205.792 332.34C206.079 332.647 206.466 332.8 206.952 332.8Z" fill="white"/>
<path opacity="0.6" d="M131.756 321V316.293H132.503V319.92L134.906 316.293H135.653V321H134.906V317.373L132.503 321H131.756ZM140.826 321.081C140.226 321.081 139.728 320.895 139.332 320.523C138.942 320.151 138.711 319.662 138.639 319.056C138.627 318.972 138.621 318.921 138.621 318.903H137.91V321H137.163V316.293H137.91V318.273H138.63C138.702 317.649 138.933 317.151 139.323 316.779C139.719 316.401 140.223 316.212 140.835 316.212C141.501 316.212 142.038 316.434 142.446 316.878C142.854 317.322 143.058 317.898 143.058 318.606V318.678C143.058 319.392 142.851 319.971 142.437 320.415C142.029 320.859 141.492 321.081 140.826 321.081ZM140.835 320.46C141.297 320.46 141.654 320.301 141.906 319.983C142.158 319.665 142.284 319.233 142.284 318.687V318.624C142.284 318.072 142.158 317.637 141.906 317.319C141.654 316.995 141.297 316.833 140.835 316.833C140.367 316.833 140.007 316.992 139.755 317.31C139.509 317.628 139.386 318.063 139.386 318.615V318.687C139.386 319.239 139.509 319.674 139.755 319.992C140.001 320.304 140.361 320.46 140.835 320.46ZM147.371 318.903H145.058V321H144.311V316.293H145.058V318.273H147.371V316.293H148.118V321H147.371V318.903ZM149.718 316.293H150.465V317.94H151.302C151.83 317.94 152.262 318.069 152.598 318.327C152.934 318.585 153.102 318.969 153.102 319.479V319.506C153.102 320.022 152.934 320.4 152.598 320.64C152.268 320.88 151.836 321 151.302 321H149.718V316.293ZM151.347 320.415C151.707 320.415 151.965 320.34 152.121 320.19C152.277 320.034 152.355 319.806 152.355 319.506V319.479C152.355 319.155 152.274 318.918 152.112 318.768C151.956 318.612 151.701 318.534 151.347 318.534H150.465V320.415H151.347Z" fill="white"/>
<path d="M131.25 335.8L134.09 332.81C134.777 332.083 135.12 331.393 135.12 330.74C135.12 330.34 135.007 330.027 134.78 329.8C134.56 329.573 134.247 329.46 133.84 329.46C132.973 329.46 132.47 329.99 132.33 331.05H131.52C131.573 330.343 131.803 329.787 132.21 329.38C132.623 328.967 133.167 328.76 133.84 328.76C134.5 328.76 135.023 328.943 135.41 329.31C135.803 329.67 136 330.157 136 330.77C136 331.557 135.52 332.423 134.56 333.37L132.59 335.29H136.04V336H131.25V335.8ZM140.215 335.37C141.475 335.37 142.105 334.447 142.105 332.6V332.2C142.105 331.367 141.935 330.703 141.595 330.21C141.255 329.71 140.789 329.46 140.195 329.46C139.589 329.46 139.115 329.7 138.775 330.18C138.435 330.66 138.265 331.34 138.265 332.22V332.62C138.265 333.507 138.439 334.187 138.785 334.66C139.132 335.133 139.609 335.37 140.215 335.37ZM140.215 336.09C139.362 336.09 138.675 335.773 138.155 335.14C137.635 334.507 137.375 333.67 137.375 332.63V332.23C137.375 331.17 137.625 330.327 138.125 329.7C138.632 329.073 139.322 328.76 140.195 328.76C141.062 328.76 141.742 329.077 142.235 329.71C142.735 330.343 142.985 331.177 142.985 332.21V332.61C142.985 333.663 142.739 334.507 142.245 335.14C141.759 335.773 141.082 336.09 140.215 336.09ZM145.739 329.71L144.139 330.86V330.05L145.799 328.85H146.609V336H145.739V329.71ZM150.822 336.08C150.169 336.08 149.646 335.92 149.252 335.6C148.859 335.28 148.616 334.827 148.522 334.24H149.362C149.449 334.613 149.606 334.897 149.832 335.09C150.066 335.277 150.402 335.37 150.842 335.37C151.422 335.37 151.869 335.133 152.182 334.66C152.496 334.187 152.659 333.477 152.672 332.53C152.492 332.83 152.242 333.063 151.922 333.23C151.602 333.397 151.236 333.48 150.822 333.48C150.129 333.48 149.562 333.26 149.122 332.82C148.689 332.38 148.472 331.82 148.472 331.14C148.472 330.42 148.696 329.843 149.142 329.41C149.589 328.97 150.189 328.75 150.942 328.75C151.789 328.75 152.429 329.023 152.862 329.57C153.296 330.117 153.512 330.91 153.512 331.95V332.4C153.512 333.593 153.279 334.507 152.812 335.14C152.352 335.767 151.689 336.08 150.822 336.08ZM150.952 332.8C151.432 332.8 151.826 332.657 152.132 332.37C152.439 332.083 152.592 331.71 152.592 331.25C152.592 330.677 152.439 330.23 152.132 329.91C151.832 329.59 151.436 329.43 150.942 329.43C150.476 329.43 150.096 329.583 149.802 329.89C149.509 330.197 149.362 330.6 149.362 331.1C149.362 331.62 149.506 332.033 149.792 332.34C150.079 332.647 150.466 332.8 150.952 332.8Z" fill="white"/>
<path opacity="0.6" d="M77.386 317.031V321H76.765V316.293H77.818L79.159 319.83L80.536 316.293H81.562V321H80.824V317.031L79.267 321H78.925L77.386 317.031ZM84.4071 321.081C83.9451 321.081 83.5671 320.967 83.2731 320.739C82.9851 320.505 82.8411 320.157 82.8411 319.695C82.8411 319.437 82.9041 319.212 83.0301 319.02C83.1621 318.822 83.3421 318.669 83.5701 318.561C83.7981 318.447 84.0471 318.366 84.3171 318.318C84.5871 318.264 84.8811 318.237 85.1991 318.237H85.8741V317.895C85.8741 317.517 85.7961 317.247 85.6401 317.085C85.4841 316.917 85.2261 316.833 84.8661 316.833C84.2181 316.833 83.8581 317.115 83.7861 317.679H83.0391C83.0871 317.175 83.2821 316.806 83.6241 316.572C83.9721 316.332 84.3981 316.212 84.9021 316.212C86.0481 316.212 86.6211 316.773 86.6211 317.895V321H85.8741V320.406C85.5141 320.856 85.0251 321.081 84.4071 321.081ZM84.4791 320.487C84.8871 320.487 85.2201 320.388 85.4781 320.19C85.7421 319.986 85.8741 319.707 85.8741 319.353V318.768H85.2261C84.1341 318.768 83.5881 319.077 83.5881 319.695C83.5881 320.223 83.8851 320.487 84.4791 320.487ZM90.0595 315.429C89.7355 315.429 89.4595 315.318 89.2315 315.096C89.0035 314.868 88.8835 314.583 88.8715 314.241H89.5195C89.5555 314.685 89.7355 314.907 90.0595 314.907C90.4135 314.907 90.6115 314.685 90.6535 314.241H91.2835C91.2595 314.583 91.1305 314.868 90.8965 315.096C90.6685 315.318 90.3895 315.429 90.0595 315.429ZM88.1245 321V316.293H88.8715V319.92L91.2745 316.293H92.0215V321H91.2745V317.373L88.8715 321H88.1245Z" fill="white"/>
<path d="M76.25 335.8L79.09 332.81C79.7767 332.083 80.12 331.393 80.12 330.74C80.12 330.34 80.0067 330.027 79.78 329.8C79.56 329.573 79.2467 329.46 78.84 329.46C77.9733 329.46 77.47 329.99 77.33 331.05H76.52C76.5733 330.343 76.8033 329.787 77.21 329.38C77.6233 328.967 78.1667 328.76 78.84 328.76C79.5 328.76 80.0233 328.943 80.41 329.31C80.8033 329.67 81 330.157 81 330.77C81 331.557 80.52 332.423 79.56 333.37L77.59 335.29H81.04V336H76.25V335.8ZM85.2152 335.37C86.4752 335.37 87.1052 334.447 87.1052 332.6V332.2C87.1052 331.367 86.9352 330.703 86.5952 330.21C86.2552 329.71 85.7886 329.46 85.1952 329.46C84.5886 329.46 84.1152 329.7 83.7752 330.18C83.4352 330.66 83.2652 331.34 83.2652 332.22V332.62C83.2652 333.507 83.4386 334.187 83.7852 334.66C84.1319 335.133 84.6086 335.37 85.2152 335.37ZM85.2152 336.09C84.3619 336.09 83.6752 335.773 83.1552 335.14C82.6352 334.507 82.3752 333.67 82.3752 332.63V332.23C82.3752 331.17 82.6252 330.327 83.1252 329.7C83.6319 329.073 84.3219 328.76 85.1952 328.76C86.0619 328.76 86.7419 329.077 87.2352 329.71C87.7352 330.343 87.9852 331.177 87.9852 332.21V332.61C87.9852 333.663 87.7386 334.507 87.2452 335.14C86.7586 335.773 86.0819 336.09 85.2152 336.09ZM90.7388 329.71L89.1388 330.86V330.05L90.7988 328.85H91.6088V336H90.7388V329.71ZM95.8225 336.08C95.1692 336.08 94.6458 335.92 94.2525 335.6C93.8592 335.28 93.6158 334.827 93.5225 334.24H94.3625C94.4492 334.613 94.6058 334.897 94.8325 335.09C95.0658 335.277 95.4025 335.37 95.8425 335.37C96.4225 335.37 96.8692 335.133 97.1825 334.66C97.4958 334.187 97.6592 333.477 97.6725 332.53C97.4925 332.83 97.2425 333.063 96.9225 333.23C96.6025 333.397 96.2358 333.48 95.8225 333.48C95.1292 333.48 94.5625 333.26 94.1225 332.82C93.6892 332.38 93.4725 331.82 93.4725 331.14C93.4725 330.42 93.6958 329.843 94.1425 329.41C94.5892 328.97 95.1892 328.75 95.9425 328.75C96.7892 328.75 97.4292 329.023 97.8625 329.57C98.2958 330.117 98.5125 330.91 98.5125 331.95V332.4C98.5125 333.593 98.2792 334.507 97.8125 335.14C97.3525 335.767 96.6892 336.08 95.8225 336.08ZM95.9525 332.8C96.4325 332.8 96.8258 332.657 97.1325 332.37C97.4392 332.083 97.5925 331.71 97.5925 331.25C97.5925 330.677 97.4392 330.23 97.1325 329.91C96.8325 329.59 96.4358 329.43 95.9425 329.43C95.4758 329.43 95.0958 329.583 94.8025 329.89C94.5092 330.197 94.3625 330.6 94.3625 331.1C94.3625 331.62 94.5058 332.033 94.7925 332.34C95.0792 332.647 95.4658 332.8 95.9525 332.8Z" fill="white"/>
<path opacity="0.6" d="M303.816 318.903H301.503V321H300.756V316.293H301.503V318.273H303.816V316.293H304.563V321H303.816V318.903ZM308.179 320.46C308.647 320.46 309.019 320.298 309.295 319.974C309.577 319.65 309.718 319.221 309.718 318.687V318.624C309.718 318.078 309.577 317.643 309.295 317.319C309.019 316.995 308.647 316.833 308.179 316.833C307.705 316.833 307.33 316.995 307.054 317.319C306.778 317.643 306.64 318.075 306.64 318.615V318.687C306.64 319.233 306.775 319.665 307.045 319.983C307.321 320.301 307.699 320.46 308.179 320.46ZM308.17 321.081C307.504 321.081 306.952 320.856 306.514 320.406C306.082 319.95 305.866 319.377 305.866 318.687V318.615C305.866 317.913 306.082 317.337 306.514 316.887C306.952 316.437 307.507 316.212 308.179 316.212C308.851 316.212 309.403 316.437 309.835 316.887C310.273 317.331 310.492 317.904 310.492 318.606V318.678C310.492 319.386 310.273 319.965 309.835 320.415C309.397 320.859 308.842 321.081 308.17 321.081ZM313.251 316.887C312.579 316.887 312.243 317.172 312.243 317.742V317.769C312.243 318.039 312.321 318.243 312.477 318.381C312.633 318.519 312.891 318.588 313.251 318.588H314.133V316.887H313.251ZM312.009 321H311.154L312.585 319.029C311.859 318.879 311.496 318.459 311.496 317.769V317.742C311.496 317.25 311.664 316.887 312 316.653C312.336 316.413 312.768 316.293 313.296 316.293H314.88V321H314.133V319.155H313.323L312.009 321ZM318.511 321.081C317.803 321.081 317.242 320.853 316.828 320.397C316.414 319.941 316.207 319.248 316.207 318.318V318.03C316.207 317.586 316.225 317.193 316.261 316.851C316.297 316.503 316.372 316.155 316.486 315.807C316.6 315.453 316.75 315.159 316.936 314.925C317.122 314.691 317.374 314.496 317.692 314.34C318.016 314.184 318.397 314.094 318.835 314.07L319.015 314.061C319.675 314.025 320.122 313.959 320.356 313.863L320.455 314.493C320.149 314.625 319.672 314.706 319.024 314.736L318.889 314.745C318.163 314.781 317.644 315.018 317.332 315.456C317.026 315.888 316.846 316.56 316.792 317.472H316.828C316.99 317.142 317.23 316.881 317.548 316.689C317.872 316.491 318.247 316.392 318.673 316.392C319.327 316.392 319.849 316.605 320.239 317.031C320.635 317.451 320.833 317.997 320.833 318.669V318.705C320.833 319.431 320.614 320.01 320.176 320.442C319.744 320.868 319.189 321.081 318.511 321.081ZM317.386 320.001C317.662 320.307 318.04 320.46 318.52 320.46C319 320.46 319.375 320.31 319.645 320.01C319.921 319.704 320.059 319.272 320.059 318.714V318.696C320.059 318.174 319.933 317.763 319.681 317.463C319.435 317.163 319.075 317.013 318.601 317.013C318.103 317.013 317.707 317.169 317.413 317.481C317.125 317.793 316.981 318.219 316.981 318.759V318.777C316.981 319.287 317.116 319.695 317.386 320.001ZM322.141 316.293H322.888V317.085C323.026 316.845 323.242 316.641 323.536 316.473C323.83 316.299 324.145 316.212 324.481 316.212C325.111 316.212 325.624 316.425 326.02 316.851C326.422 317.277 326.623 317.853 326.623 318.579V318.651C326.623 319.377 326.425 319.965 326.029 320.415C325.639 320.859 325.123 321.081 324.481 321.081C323.761 321.081 323.23 320.796 322.888 320.226V322.638H322.141V316.293ZM324.409 320.46C324.877 320.46 325.234 320.31 325.48 320.01C325.726 319.704 325.849 319.263 325.849 318.687V318.615C325.849 318.045 325.711 317.607 325.435 317.301C325.165 316.989 324.82 316.833 324.4 316.833C323.944 316.833 323.572 316.986 323.284 317.292C323.002 317.592 322.861 318.033 322.861 318.615V318.687C322.861 319.269 322.999 319.71 323.275 320.01C323.557 320.31 323.935 320.46 324.409 320.46ZM327.819 316.293H328.566V317.94H329.403C329.931 317.94 330.363 318.069 330.699 318.327C331.035 318.585 331.203 318.969 331.203 319.479V319.506C331.203 320.022 331.035 320.4 330.699 320.64C330.369 320.88 329.937 321 329.403 321H327.819V316.293ZM329.448 320.415C329.808 320.415 330.066 320.34 330.222 320.19C330.378 320.034 330.456 319.806 330.456 319.506V319.479C330.456 319.155 330.375 318.918 330.213 318.768C330.057 318.612 329.802 318.534 329.448 318.534H328.566V320.415H329.448Z" fill="white"/>
<path d="M300.25 335.8L303.09 332.81C303.777 332.083 304.12 331.393 304.12 330.74C304.12 330.34 304.007 330.027 303.78 329.8C303.56 329.573 303.247 329.46 302.84 329.46C301.973 329.46 301.47 329.99 301.33 331.05H300.52C300.573 330.343 300.803 329.787 301.21 329.38C301.623 328.967 302.167 328.76 302.84 328.76C303.5 328.76 304.023 328.943 304.41 329.31C304.803 329.67 305 330.157 305 330.77C305 331.557 304.52 332.423 303.56 333.37L301.59 335.29H305.04V336H300.25V335.8ZM309.215 335.37C310.475 335.37 311.105 334.447 311.105 332.6V332.2C311.105 331.367 310.935 330.703 310.595 330.21C310.255 329.71 309.789 329.46 309.195 329.46C308.589 329.46 308.115 329.7 307.775 330.18C307.435 330.66 307.265 331.34 307.265 332.22V332.62C307.265 333.507 307.439 334.187 307.785 334.66C308.132 335.133 308.609 335.37 309.215 335.37ZM309.215 336.09C308.362 336.09 307.675 335.773 307.155 335.14C306.635 334.507 306.375 333.67 306.375 332.63V332.23C306.375 331.17 306.625 330.327 307.125 329.7C307.632 329.073 308.322 328.76 309.195 328.76C310.062 328.76 310.742 329.077 311.235 329.71C311.735 330.343 311.985 331.177 311.985 332.21V332.61C311.985 333.663 311.739 334.507 311.245 335.14C310.759 335.773 310.082 336.09 309.215 336.09ZM314.739 329.71L313.139 330.86V330.05L314.799 328.85H315.609V336H314.739V329.71ZM319.822 336.08C319.169 336.08 318.646 335.92 318.252 335.6C317.859 335.28 317.616 334.827 317.522 334.24H318.362C318.449 334.613 318.606 334.897 318.832 335.09C319.066 335.277 319.402 335.37 319.842 335.37C320.422 335.37 320.869 335.133 321.182 334.66C321.496 334.187 321.659 333.477 321.672 332.53C321.492 332.83 321.242 333.063 320.922 333.23C320.602 333.397 320.236 333.48 319.822 333.48C319.129 333.48 318.562 333.26 318.122 332.82C317.689 332.38 317.472 331.82 317.472 331.14C317.472 330.42 317.696 329.843 318.142 329.41C318.589 328.97 319.189 328.75 319.942 328.75C320.789 328.75 321.429 329.023 321.862 329.57C322.296 330.117 322.512 330.91 322.512 331.95V332.4C322.512 333.593 322.279 334.507 321.812 335.14C321.352 335.767 320.689 336.08 319.822 336.08ZM319.952 332.8C320.432 332.8 320.826 332.657 321.132 332.37C321.439 332.083 321.592 331.71 321.592 331.25C321.592 330.677 321.439 330.23 321.132 329.91C320.832 329.59 320.436 329.43 319.942 329.43C319.476 329.43 319.096 329.583 318.802 329.89C318.509 330.197 318.362 330.6 318.362 331.1C318.362 331.62 318.506 332.033 318.792 332.34C319.079 332.647 319.466 332.8 319.952 332.8Z" fill="white"/>
<path d="M4.03 266.5H0.45V266.22L3.72 260.85H4.88V265.79H5.87V266.5H4.88V268H4.03V266.5ZM4.03 265.79V261.51L1.55 265.79H4.03ZM6.63906 267.8L9.47906 264.81C10.1657 264.083 10.5091 263.393 10.5091 262.74C10.5091 262.34 10.3957 262.027 10.1691 261.8C9.94906 261.573 9.63573 261.46 9.22906 261.46C8.3624 261.46 7.85906 261.99 7.71906 263.05H6.90906C6.9624 262.343 7.1924 261.787 7.59906 261.38C8.0124 260.967 8.55573 260.76 9.22906 260.76C9.88906 260.76 10.4124 260.943 10.7991 261.31C11.1924 261.67 11.3891 262.157 11.3891 262.77C11.3891 263.557 10.9091 264.423 9.94906 265.37L7.97906 267.29H11.4291V268H6.63906V267.8ZM15.6043 267.37C16.8643 267.37 17.4943 266.447 17.4943 264.6V264.2C17.4943 263.367 17.3243 262.703 16.9843 262.21C16.6443 261.71 16.1776 261.46 15.5843 261.46C14.9776 261.46 14.5043 261.7 14.1643 262.18C13.8243 262.66 13.6543 263.34 13.6543 264.22V264.62C13.6543 265.507 13.8276 266.187 14.1743 266.66C14.521 267.133 14.9976 267.37 15.6043 267.37ZM15.6043 268.09C14.751 268.09 14.0643 267.773 13.5443 267.14C13.0243 266.507 12.7643 265.67 12.7643 264.63V264.23C12.7643 263.17 13.0143 262.327 13.5143 261.7C14.021 261.073 14.711 260.76 15.5843 260.76C16.451 260.76 17.131 261.077 17.6243 261.71C18.1243 262.343 18.3743 263.177 18.3743 264.21V264.61C18.3743 265.663 18.1276 266.507 17.6343 267.14C17.1476 267.773 16.471 268.09 15.6043 268.09Z" fill="white"/>
<path d="M4.03 233.5H0.45V233.22L3.72 227.85H4.88V232.79H5.87V233.5H4.88V235H4.03V233.5ZM4.03 232.79V228.51L1.55 232.79H4.03ZM10.4191 233.5H6.83906V233.22L10.1091 227.85H11.2691V232.79H12.2591V233.5H11.2691V235H10.4191V233.5ZM10.4191 232.79V228.51L7.93906 232.79H10.4191ZM16.2293 234.37C17.4893 234.37 18.1193 233.447 18.1193 231.6V231.2C18.1193 230.367 17.9493 229.703 17.6093 229.21C17.2693 228.71 16.8026 228.46 16.2093 228.46C15.6026 228.46 15.1293 228.7 14.7893 229.18C14.4493 229.66 14.2793 230.34 14.2793 231.22V231.62C14.2793 232.507 14.4526 233.187 14.7993 233.66C15.146 234.133 15.6226 234.37 16.2293 234.37ZM16.2293 235.09C15.376 235.09 14.6893 234.773 14.1693 234.14C13.6493 233.507 13.3893 232.67 13.3893 231.63V231.23C13.3893 230.17 13.6393 229.327 14.1393 228.7C14.646 228.073 15.336 227.76 16.2093 227.76C17.076 227.76 17.756 228.077 18.2493 228.71C18.7493 229.343 18.9993 230.177 18.9993 231.21V231.61C18.9993 232.663 18.7526 233.507 18.2593 234.14C17.7726 234.773 17.096 235.09 16.2293 235.09Z" fill="white"/>
<circle cx="179" cy="164" r="3" fill="#F1D5C0"/>
<circle cx="123" cy="232" r="3" fill="#F1D5C0"/>
<circle cx="68" cy="282" r="3" fill="#F1D5C0"/>
<circle cx="235" cy="105" r="3" fill="#F1D5C0"/>
<circle cx="407" cy="89" r="3" fill="#F1D5C0"/>
<circle cx="350" cy="89" r="3" fill="#F1D5C0"/>
<circle cx="292" cy="89" r="3" fill="#F1D5C0"/>
<path d="M2.87 132.09C2.13 132.09 1.56333 131.91 1.17 131.55C0.776667 131.183 0.55 130.69 0.49 130.07H1.32C1.4 130.503 1.55 130.833 1.77 131.06C1.99 131.28 2.35333 131.39 2.86 131.39C3.34667 131.39 3.73 131.237 4.01 130.93C4.29 130.623 4.43 130.2 4.43 129.66C4.43 129.153 4.29333 128.75 4.02 128.45C3.75333 128.143 3.39 127.99 2.93 127.99C2.53 127.99 2.2 128.047 1.94 128.16C1.68 128.273 1.44667 128.447 1.24 128.68H0.92V124.85H4.94V125.6H1.64V127.78C1.99333 127.453 2.48 127.29 3.1 127.29C3.75333 127.29 4.28667 127.507 4.7 127.94C5.11333 128.367 5.32 128.94 5.32 129.66C5.32 130.4 5.08667 130.99 4.62 131.43C4.15333 131.87 3.57 132.09 2.87 132.09ZM9.5375 131.37C10.7975 131.37 11.4275 130.447 11.4275 128.6V128.2C11.4275 127.367 11.2575 126.703 10.9175 126.21C10.5775 125.71 10.1108 125.46 9.5175 125.46C8.91083 125.46 8.4375 125.7 8.0975 126.18C7.7575 126.66 7.5875 127.34 7.5875 128.22V128.62C7.5875 129.507 7.76083 130.187 8.1075 130.66C8.45417 131.133 8.93083 131.37 9.5375 131.37ZM9.5375 132.09C8.68417 132.09 7.9975 131.773 7.4775 131.14C6.9575 130.507 6.6975 129.67 6.6975 128.63V128.23C6.6975 127.17 6.9475 126.327 7.4475 125.7C7.95417 125.073 8.64417 124.76 9.5175 124.76C10.3842 124.76 11.0642 125.077 11.5575 125.71C12.0575 126.343 12.3075 127.177 12.3075 128.21V128.61C12.3075 129.663 12.0608 130.507 11.5675 131.14C11.0808 131.773 10.4042 132.09 9.5375 132.09ZM16.5711 131.37C17.8311 131.37 18.4611 130.447 18.4611 128.6V128.2C18.4611 127.367 18.2911 126.703 17.9511 126.21C17.6111 125.71 17.1444 125.46 16.5511 125.46C15.9444 125.46 15.4711 125.7 15.1311 126.18C14.7911 126.66 14.6211 127.34 14.6211 128.22V128.62C14.6211 129.507 14.7944 130.187 15.1411 130.66C15.4878 131.133 15.9644 131.37 16.5711 131.37ZM16.5711 132.09C15.7178 132.09 15.0311 131.773 14.5111 131.14C13.9911 130.507 13.7311 129.67 13.7311 128.63V128.23C13.7311 127.17 13.9811 126.327 14.4811 125.7C14.9878 125.073 15.6778 124.76 16.5511 124.76C17.4178 124.76 18.0978 125.077 18.5911 125.71C19.0911 126.343 19.3411 127.177 19.3411 128.21V128.61C19.3411 129.663 19.0944 130.507 18.6011 131.14C18.1144 131.773 17.4378 132.09 16.5711 132.09Z" fill="white"/>
<path d="M2.87 99.09C2.13 99.09 1.56333 98.91 1.17 98.55C0.776667 98.1833 0.55 97.69 0.49 97.07H1.32C1.4 97.5033 1.55 97.8333 1.77 98.06C1.99 98.28 2.35333 98.39 2.86 98.39C3.34667 98.39 3.73 98.2367 4.01 97.93C4.29 97.6233 4.43 97.2 4.43 96.66C4.43 96.1533 4.29333 95.75 4.02 95.45C3.75333 95.1433 3.39 94.99 2.93 94.99C2.53 94.99 2.2 95.0467 1.94 95.16C1.68 95.2733 1.44667 95.4467 1.24 95.68H0.92V91.85H4.94V92.6H1.64V94.78C1.99333 94.4533 2.48 94.29 3.1 94.29C3.75333 94.29 4.28667 94.5067 4.7 94.94C5.11333 95.3667 5.32 95.94 5.32 96.66C5.32 97.4 5.08667 97.99 4.62 98.43C4.15333 98.87 3.57 99.09 2.87 99.09ZM6.33633 98.8L9.17633 95.81C9.86299 95.0833 10.2063 94.3933 10.2063 93.74C10.2063 93.34 10.093 93.0267 9.86633 92.8C9.64633 92.5733 9.33299 92.46 8.92633 92.46C8.05966 92.46 7.55633 92.99 7.41633 94.05H6.60633C6.65966 93.3433 6.88966 92.7867 7.29633 92.38C7.70966 91.9667 8.25299 91.76 8.92633 91.76C9.58633 91.76 10.1097 91.9433 10.4963 92.31C10.8897 92.67 11.0863 93.1567 11.0863 93.77C11.0863 94.5567 10.6063 95.4233 9.64633 96.37L7.67633 98.29H11.1263V99H6.33633V98.8ZM15.3016 98.37C16.5616 98.37 17.1916 97.4467 17.1916 95.6V95.2C17.1916 94.3667 17.0216 93.7033 16.6816 93.21C16.3416 92.71 15.8749 92.46 15.2816 92.46C14.6749 92.46 14.2016 92.7 13.8616 93.18C13.5216 93.66 13.3516 94.34 13.3516 95.22V95.62C13.3516 96.5067 13.5249 97.1867 13.8716 97.66C14.2182 98.1333 14.6949 98.37 15.3016 98.37ZM15.3016 99.09C14.4482 99.09 13.7616 98.7733 13.2416 98.14C12.7216 97.5067 12.4616 96.67 12.4616 95.63V95.23C12.4616 94.17 12.7116 93.3267 13.2116 92.7C13.7182 92.0733 14.4082 91.76 15.2816 91.76C16.1482 91.76 16.8282 92.0767 17.3216 92.71C17.8216 93.3433 18.0716 94.1767 18.0716 95.21V95.61C18.0716 96.6633 17.8249 97.5067 17.3316 98.14C16.8449 98.7733 16.1682 99.09 15.3016 99.09Z" fill="white"/>
<path d="M2.87 67.09C2.13 67.09 1.56333 66.91 1.17 66.55C0.776667 66.1833 0.55 65.69 0.49 65.07H1.32C1.4 65.5033 1.55 65.8333 1.77 66.06C1.99 66.28 2.35333 66.39 2.86 66.39C3.34667 66.39 3.73 66.2367 4.01 65.93C4.29 65.6233 4.43 65.2 4.43 64.66C4.43 64.1533 4.29333 63.75 4.02 63.45C3.75333 63.1433 3.39 62.99 2.93 62.99C2.53 62.99 2.2 63.0467 1.94 63.16C1.68 63.2733 1.44667 63.4467 1.24 63.68H0.92V59.85H4.94V60.6H1.64V62.78C1.99333 62.4533 2.48 62.29 3.1 62.29C3.75333 62.29 4.28667 62.5067 4.7 62.94C5.11333 63.3667 5.32 63.94 5.32 64.66C5.32 65.4 5.08667 65.99 4.62 66.43C4.15333 66.87 3.57 67.09 2.87 67.09ZM9.96984 65.5H6.38984V65.22L9.65984 59.85H10.8198V64.79H11.8098V65.5H10.8198V67H9.96984V65.5ZM9.96984 64.79V60.51L7.48984 64.79H9.96984ZM15.7801 66.37C17.0401 66.37 17.6701 65.4467 17.6701 63.6V63.2C17.6701 62.3667 17.5001 61.7033 17.1601 61.21C16.8201 60.71 16.3534 60.46 15.7601 60.46C15.1534 60.46 14.6801 60.7 14.3401 61.18C14.0001 61.66 13.8301 62.34 13.8301 63.22V63.62C13.8301 64.5067 14.0034 65.1867 14.3501 65.66C14.6967 66.1333 15.1734 66.37 15.7801 66.37ZM15.7801 67.09C14.9267 67.09 14.2401 66.7733 13.7201 66.14C13.2001 65.5067 12.9401 64.67 12.9401 63.63V63.23C12.9401 62.17 13.1901 61.3267 13.6901 60.7C14.1967 60.0733 14.8867 59.76 15.7601 59.76C16.6267 59.76 17.3067 60.0767 17.8001 60.71C18.3001 61.3433 18.5501 62.1767 18.5501 63.21V63.61C18.5501 64.6633 18.3034 65.5067 17.8101 66.14C17.3234 66.7733 16.6467 67.09 15.7801 67.09Z" fill="white"/>
<rect opacity="0.3" x="123" y="234" width="1" height="102" fill="#F1D5C0"/>
<rect opacity="0.3" x="68" y="284" width="1" height="52" fill="#F1D5C0"/>
<rect opacity="0.3" width="1" height="172" transform="matrix(-1 0 0 1 180 164)" fill="#F1D5C0"/>
<rect opacity="0.3" x="235" y="106" width="1" height="230" fill="#F1D5C0"/>
<rect opacity="0.3" x="292" y="89" width="1" height="247" fill="#F1D5C0"/>
<rect opacity="0.3" x="350" y="89" width="1" height="247" fill="#F1D5C0"/>
<rect opacity="0.3" x="407" y="89" width="1" height="247" fill="#F1D5C0"/>
<path d="M33 317L65.1867 284.497L119.631 233.604L175.074 167.04L233 104.5L292 89H327.652H382.867H435.203H458" stroke="url(#paint0_radial)"/>
<defs>
<radialGradient id="paint0_radial" cx="0" cy="0" r="1" gradientUnits="userSpaceOnUse" gradientTransform="translate(238.681 156.413) rotate(51.569) scale(161.663 257.747)">
<stop stop-color="#F1D5C0"/>
<stop offset="1" stop-color="#F1D5C0" stop-opacity="0"/>
</radialGradient>
</defs>
</svg>
