<svg width="923" height="585" viewBox="0 0 923 585" fill="none" xmlns="http://www.w3.org/2000/svg">
<path d="M21.1077 288.708H15.3797V288.26L20.6117 279.668H22.4677V287.572H24.0517V288.708H22.4677V291.108H21.1077V288.708ZM21.1077 287.572V280.724L17.1397 287.572H21.1077ZM30.0502 291.252C27.3088 291.252 25.9382 289.519 25.9382 286.052V285.78C25.9382 283.775 26.3435 282.234 27.1542 281.156C27.9755 280.068 29.0635 279.524 30.4182 279.524C31.3355 279.524 32.0822 279.759 32.6582 280.228C33.2448 280.698 33.6128 281.386 33.7622 282.292H32.4342C32.3062 281.738 32.0768 281.327 31.7462 281.06C31.4155 280.794 30.9408 280.66 30.3222 280.66C29.4368 280.66 28.7222 281.055 28.1782 281.844C27.6342 282.634 27.3462 283.764 27.3142 285.236C27.9328 284.202 28.9142 283.684 30.2582 283.684C31.3782 283.684 32.2795 284.042 32.9622 284.756C33.6555 285.46 34.0022 286.351 34.0022 287.428C34.0022 288.58 33.6448 289.508 32.9302 290.212C32.2155 290.906 31.2555 291.252 30.0502 291.252ZM30.0502 290.164C30.7968 290.164 31.4048 289.919 31.8742 289.428C32.3435 288.938 32.5782 288.292 32.5782 287.492C32.5782 286.66 32.3488 285.999 31.8902 285.508C31.4315 285.018 30.8128 284.772 30.0342 284.772C29.2662 284.772 28.6368 285.007 28.1462 285.476C27.6555 285.946 27.4102 286.554 27.4102 287.3C27.4102 288.207 27.6502 288.911 28.1302 289.412C28.6208 289.914 29.2608 290.164 30.0502 290.164ZM40.6578 290.1C42.6738 290.1 43.6818 288.623 43.6818 285.668V285.028C43.6818 283.695 43.4098 282.634 42.8658 281.844C42.3218 281.044 41.5751 280.644 40.6258 280.644C39.6551 280.644 38.8978 281.028 38.3538 281.796C37.8098 282.564 37.5378 283.652 37.5378 285.06V285.7C37.5378 287.119 37.8151 288.207 38.3698 288.964C38.9245 289.722 39.6871 290.1 40.6578 290.1ZM40.6578 291.252C39.2925 291.252 38.1938 290.746 37.3618 289.732C36.5298 288.719 36.1138 287.38 36.1138 285.716V285.076C36.1138 283.38 36.5138 282.031 37.3138 281.028C38.1245 280.026 39.2285 279.524 40.6258 279.524C42.0125 279.524 43.1005 280.031 43.8898 281.044C44.6898 282.058 45.0898 283.391 45.0898 285.044V285.684C45.0898 287.37 44.6951 288.719 43.9058 289.732C43.1271 290.746 42.0445 291.252 40.6578 291.252Z" fill="white"/>
<path opacity="0.6" d="M5.412 306.733H3.384V312.169H2.388V306.733H0.36V305.893H5.412V306.733ZM12.3053 305.893H13.3013V312.169H12.3053V305.893ZM6.90534 305.893H7.90134V308.089H9.01734C9.72934 308.089 10.3053 308.249 10.7453 308.569C11.1933 308.889 11.4173 309.393 11.4173 310.081V310.117C11.4173 310.797 11.1933 311.309 10.7453 311.653C10.2973 311.997 9.72134 312.169 9.01734 312.169H6.90534V305.893ZM9.07734 311.377C9.54934 311.377 9.88934 311.277 10.0973 311.077C10.3133 310.869 10.4213 310.549 10.4213 310.117V310.081C10.4213 309.681 10.3173 309.381 10.1093 309.181C9.90134 308.973 9.55734 308.869 9.07734 308.869H7.90134V311.377H9.07734ZM18.1154 312.277C17.2194 312.277 16.4834 311.989 15.9074 311.413C15.3314 310.829 15.0434 310.057 15.0434 309.097V309.001C15.0434 308.057 15.3354 307.285 15.9194 306.685C16.5114 306.085 17.2354 305.785 18.0914 305.785C18.8114 305.785 19.4234 305.965 19.9274 306.325C20.4314 306.677 20.7274 307.229 20.8154 307.981H19.8314C19.6874 307.069 19.1074 306.613 18.0914 306.613C17.5074 306.613 17.0234 306.833 16.6394 307.273C16.2634 307.705 16.0754 308.281 16.0754 309.001V309.097C16.0754 309.849 16.2594 310.429 16.6274 310.837C17.0034 311.245 17.5034 311.449 18.1274 311.449C18.5994 311.449 19.0034 311.317 19.3394 311.053C19.6834 310.781 19.8794 310.401 19.9274 309.913H20.8514C20.7874 310.601 20.4994 311.169 19.9874 311.617C19.4834 312.057 18.8594 312.277 18.1154 312.277ZM25.7709 305.893H26.7669V306.949C26.9509 306.629 27.2389 306.357 27.6309 306.133C28.0229 305.901 28.4429 305.785 28.8909 305.785C29.7309 305.785 30.4149 306.069 30.9429 306.637C31.4789 307.205 31.7469 307.973 31.7469 308.941V309.037C31.7469 310.005 31.4829 310.789 30.9549 311.389C30.4349 311.981 29.7469 312.277 28.8909 312.277C27.9309 312.277 27.2229 311.897 26.7669 311.137V314.353H25.7709V305.893ZM28.7949 311.449C29.4189 311.449 29.8949 311.249 30.2229 310.849C30.5509 310.441 30.7149 309.853 30.7149 309.085V308.989C30.7149 308.229 30.5309 307.645 30.1629 307.237C29.8029 306.821 29.3429 306.613 28.7829 306.613C28.1749 306.613 27.6789 306.817 27.2949 307.225C26.9189 307.625 26.7309 308.213 26.7309 308.989V309.085C26.7309 309.861 26.9149 310.449 27.2829 310.849C27.6589 311.249 28.1629 311.449 28.7949 311.449ZM35.0492 311.521L32.5892 305.893H33.6572L35.5772 310.393L37.3172 305.893H38.3372L34.8692 314.353H33.8612L35.0492 311.521ZM42.3968 312.277C41.4528 312.277 40.7048 311.973 40.1528 311.365C39.6008 310.757 39.3248 309.833 39.3248 308.593V308.209C39.3248 307.617 39.3488 307.093 39.3968 306.637C39.4448 306.173 39.5448 305.709 39.6968 305.245C39.8488 304.773 40.0488 304.381 40.2968 304.069C40.5448 303.757 40.8808 303.497 41.3048 303.289C41.7368 303.081 42.2448 302.961 42.8288 302.929L43.0688 302.917C43.9488 302.869 44.5448 302.781 44.8568 302.653L44.9888 303.493C44.5808 303.669 43.9448 303.777 43.0808 303.817L42.9008 303.829C41.9328 303.877 41.2408 304.193 40.8248 304.777C40.4168 305.353 40.1768 306.249 40.1048 307.465H40.1528C40.3688 307.025 40.6888 306.677 41.1128 306.421C41.5448 306.157 42.0448 306.025 42.6128 306.025C43.4848 306.025 44.1808 306.309 44.7008 306.877C45.2288 307.437 45.4928 308.165 45.4928 309.061V309.109C45.4928 310.077 45.2008 310.849 44.6168 311.425C44.0408 311.993 43.3008 312.277 42.3968 312.277ZM40.8968 310.837C41.2648 311.245 41.7688 311.449 42.4088 311.449C43.0488 311.449 43.5488 311.249 43.9088 310.849C44.2768 310.441 44.4608 309.865 44.4608 309.121V309.097C44.4608 308.401 44.2928 307.853 43.9568 307.453C43.6288 307.053 43.1488 306.853 42.5168 306.853C41.8528 306.853 41.3248 307.061 40.9328 307.477C40.5488 307.893 40.3568 308.461 40.3568 309.181V309.205C40.3568 309.885 40.5368 310.429 40.8968 310.837Z" fill="white"/>
<path d="M24.2488 217.383H18.5208V216.935L23.7528 208.343H25.6088V216.247H27.1928V217.383H25.6088V219.783H24.2488V217.383ZM24.2488 216.247V209.399L20.2808 216.247H24.2488ZM32.9833 219.927C32.3326 219.927 31.7139 219.81 31.1273 219.575C30.5406 219.33 30.0446 218.941 29.6393 218.407C29.2339 217.874 29.0313 217.25 29.0313 216.535C29.0313 215.799 29.2286 215.181 29.6233 214.679C30.0179 214.178 30.5406 213.81 31.1913 213.575C30.0393 213.117 29.4633 212.317 29.4633 211.175C29.4633 210.301 29.8153 209.586 30.5193 209.031C31.2339 208.477 32.0553 208.199 32.9833 208.199C33.9113 208.199 34.7273 208.477 35.4313 209.031C36.1353 209.575 36.4873 210.279 36.4873 211.143C36.4873 212.242 35.9006 213.047 34.7273 213.559C36.1886 214.103 36.9193 215.085 36.9193 216.503C36.9193 217.581 36.5246 218.423 35.7353 219.031C34.9566 219.629 34.0393 219.927 32.9833 219.927ZM32.9833 218.791C33.7193 218.791 34.3219 218.589 34.7913 218.183C35.2606 217.767 35.4953 217.191 35.4953 216.455C35.4953 215.741 35.2553 215.186 34.7753 214.791C34.3059 214.386 33.7193 214.183 33.0153 214.183C32.2899 214.183 31.6819 214.386 31.1913 214.791C30.7006 215.186 30.4553 215.751 30.4553 216.487C30.4553 217.202 30.7006 217.767 31.1913 218.183C31.6819 218.589 32.2793 218.791 32.9833 218.791ZM33.0313 213.079C33.6499 213.079 34.1459 212.909 34.5193 212.567C34.8926 212.226 35.0793 211.757 35.0793 211.159C35.0793 210.615 34.8819 210.167 34.4873 209.815C34.0926 209.463 33.5913 209.287 32.9833 209.287C32.3646 209.287 31.8579 209.458 31.4633 209.799C31.0686 210.141 30.8713 210.605 30.8713 211.191C30.8713 211.767 31.0793 212.226 31.4953 212.567C31.9113 212.909 32.4233 213.079 33.0313 213.079ZM43.5333 218.775C45.5493 218.775 46.5573 217.298 46.5573 214.343V213.703C46.5573 212.37 46.2853 211.309 45.7413 210.519C45.1973 209.719 44.4506 209.319 43.5013 209.319C42.5306 209.319 41.7733 209.703 41.2293 210.471C40.6853 211.239 40.4133 212.327 40.4133 213.735V214.375C40.4133 215.794 40.6906 216.882 41.2453 217.639C41.7999 218.397 42.5626 218.775 43.5333 218.775ZM43.5333 219.927C42.1679 219.927 41.0693 219.421 40.2373 218.407C39.4053 217.394 38.9893 216.055 38.9893 214.391V213.751C38.9893 212.055 39.3893 210.706 40.1893 209.703C40.9999 208.701 42.1039 208.199 43.5013 208.199C44.8879 208.199 45.9759 208.706 46.7653 209.719C47.5653 210.733 47.9653 212.066 47.9653 213.719V214.359C47.9653 216.045 47.5706 217.394 46.7813 218.407C46.0026 219.421 44.9199 219.927 43.5333 219.927Z" fill="white"/>
<path opacity="0.6" d="M5.412 235.408H3.384V240.844H2.388V235.408H0.36V234.568H5.412V235.408ZM12.3053 234.568H13.3013V240.844H12.3053V234.568ZM6.90534 234.568H7.90134V236.764H9.01734C9.72934 236.764 10.3053 236.924 10.7453 237.244C11.1933 237.564 11.4173 238.068 11.4173 238.756V238.792C11.4173 239.472 11.1933 239.984 10.7453 240.328C10.2973 240.672 9.72134 240.844 9.01734 240.844H6.90534V234.568ZM9.07734 240.052C9.54934 240.052 9.88934 239.952 10.0973 239.752C10.3133 239.544 10.4213 239.224 10.4213 238.792V238.756C10.4213 238.356 10.3173 238.056 10.1093 237.856C9.90134 237.648 9.55734 237.544 9.07734 237.544H7.90134V240.052H9.07734ZM18.1154 240.952C17.2194 240.952 16.4834 240.664 15.9074 240.088C15.3314 239.504 15.0434 238.732 15.0434 237.772V237.676C15.0434 236.732 15.3354 235.96 15.9194 235.36C16.5114 234.76 17.2354 234.46 18.0914 234.46C18.8114 234.46 19.4234 234.64 19.9274 235C20.4314 235.352 20.7274 235.904 20.8154 236.656H19.8314C19.6874 235.744 19.1074 235.288 18.0914 235.288C17.5074 235.288 17.0234 235.508 16.6394 235.948C16.2634 236.38 16.0754 236.956 16.0754 237.676V237.772C16.0754 238.524 16.2594 239.104 16.6274 239.512C17.0034 239.92 17.5034 240.124 18.1274 240.124C18.5994 240.124 19.0034 239.992 19.3394 239.728C19.6834 239.456 19.8794 239.076 19.9274 238.588H20.8514C20.7874 239.276 20.4994 239.844 19.9874 240.292C19.4834 240.732 18.8594 240.952 18.1154 240.952ZM25.7709 234.568H26.7669V235.624C26.9509 235.304 27.2389 235.032 27.6309 234.808C28.0229 234.576 28.4429 234.46 28.8909 234.46C29.7309 234.46 30.4149 234.744 30.9429 235.312C31.4789 235.88 31.7469 236.648 31.7469 237.616V237.712C31.7469 238.68 31.4829 239.464 30.9549 240.064C30.4349 240.656 29.7469 240.952 28.8909 240.952C27.9309 240.952 27.2229 240.572 26.7669 239.812V243.028H25.7709V234.568ZM28.7949 240.124C29.4189 240.124 29.8949 239.924 30.2229 239.524C30.5509 239.116 30.7149 238.528 30.7149 237.76V237.664C30.7149 236.904 30.5309 236.32 30.1629 235.912C29.8029 235.496 29.3429 235.288 28.7829 235.288C28.1749 235.288 27.6789 235.492 27.2949 235.9C26.9189 236.3 26.7309 236.888 26.7309 237.664V237.76C26.7309 238.536 26.9149 239.124 27.2829 239.524C27.6589 239.924 28.1629 240.124 28.7949 240.124ZM35.0492 240.196L32.5892 234.568H33.6572L35.5772 239.068L37.3172 234.568H38.3372L34.8692 243.028H33.8612L35.0492 240.196ZM42.3968 240.952C41.4528 240.952 40.7048 240.648 40.1528 240.04C39.6008 239.432 39.3248 238.508 39.3248 237.268V236.884C39.3248 236.292 39.3488 235.768 39.3968 235.312C39.4448 234.848 39.5448 234.384 39.6968 233.92C39.8488 233.448 40.0488 233.056 40.2968 232.744C40.5448 232.432 40.8808 232.172 41.3048 231.964C41.7368 231.756 42.2448 231.636 42.8288 231.604L43.0688 231.592C43.9488 231.544 44.5448 231.456 44.8568 231.328L44.9888 232.168C44.5808 232.344 43.9448 232.452 43.0808 232.492L42.9008 232.504C41.9328 232.552 41.2408 232.868 40.8248 233.452C40.4168 234.028 40.1768 234.924 40.1048 236.14H40.1528C40.3688 235.7 40.6888 235.352 41.1128 235.096C41.5448 234.832 42.0448 234.7 42.6128 234.7C43.4848 234.7 44.1808 234.984 44.7008 235.552C45.2288 236.112 45.4928 236.84 45.4928 237.736V237.784C45.4928 238.752 45.2008 239.524 44.6168 240.1C44.0408 240.668 43.3008 240.952 42.3968 240.952ZM40.8968 239.512C41.2648 239.92 41.7688 240.124 42.4088 240.124C43.0488 240.124 43.5488 239.924 43.9088 239.524C44.2768 239.116 44.4608 238.54 44.4608 237.796V237.772C44.4608 237.076 44.2928 236.528 43.9568 236.128C43.6288 235.728 43.1488 235.528 42.5168 235.528C41.8528 235.528 41.3248 235.736 40.9328 236.152C40.5488 236.568 40.3568 237.136 40.3568 237.856V237.88C40.3568 238.56 40.5368 239.104 40.8968 239.512Z" fill="white"/>
<path d="M25.2961 502.684H19.5681V502.236L24.8001 493.644H26.6561V501.548H28.2401V502.684H26.6561V505.084H25.2961V502.684ZM25.2961 501.548V494.7L21.3281 501.548H25.2961ZM34.5925 504.076C36.6085 504.076 37.6165 502.599 37.6165 499.644V499.004C37.6165 497.671 37.3445 496.609 36.8005 495.82C36.2565 495.02 35.5099 494.62 34.5605 494.62C33.5899 494.62 32.8325 495.004 32.2885 495.772C31.7445 496.54 31.4725 497.628 31.4725 499.036V499.676C31.4725 501.095 31.7499 502.183 32.3045 502.94C32.8592 503.697 33.6219 504.076 34.5925 504.076ZM34.5925 505.228C33.2272 505.228 32.1285 504.721 31.2965 503.708C30.4645 502.695 30.0485 501.356 30.0485 499.692V499.052C30.0485 497.356 30.4485 496.007 31.2485 495.004C32.0592 494.001 33.1632 493.5 34.5605 493.5C35.9472 493.5 37.0352 494.007 37.8245 495.02C38.6245 496.033 39.0245 497.367 39.0245 499.02V499.66C39.0245 501.345 38.6299 502.695 37.8405 503.708C37.0619 504.721 35.9792 505.228 34.5925 505.228ZM45.8463 504.076C47.8623 504.076 48.8703 502.599 48.8703 499.644V499.004C48.8703 497.671 48.5983 496.609 48.0543 495.82C47.5103 495.02 46.7636 494.62 45.8143 494.62C44.8436 494.62 44.0863 495.004 43.5423 495.772C42.9983 496.54 42.7263 497.628 42.7263 499.036V499.676C42.7263 501.095 43.0036 502.183 43.5583 502.94C44.1129 503.697 44.8756 504.076 45.8463 504.076ZM45.8463 505.228C44.4809 505.228 43.3823 504.721 42.5503 503.708C41.7183 502.695 41.3023 501.356 41.3023 499.692V499.052C41.3023 497.356 41.7023 496.007 42.5023 495.004C43.3129 494.001 44.4169 493.5 45.8143 493.5C47.2009 493.5 48.2889 494.007 49.0783 495.02C49.8783 496.033 50.2783 497.367 50.2783 499.02V499.66C50.2783 501.345 49.8836 502.695 49.0943 503.708C48.3156 504.721 47.2329 505.228 45.8463 505.228Z" fill="white"/>
<path opacity="0.6" d="M5.412 520.709H3.384V526.145H2.388V520.709H0.36V519.869H5.412V520.709ZM12.3053 519.869H13.3013V526.145H12.3053V519.869ZM6.90534 519.869H7.90134V522.065H9.01734C9.72934 522.065 10.3053 522.225 10.7453 522.545C11.1933 522.865 11.4173 523.369 11.4173 524.057V524.093C11.4173 524.773 11.1933 525.285 10.7453 525.629C10.2973 525.973 9.72134 526.145 9.01734 526.145H6.90534V519.869ZM9.07734 525.353C9.54934 525.353 9.88934 525.253 10.0973 525.053C10.3133 524.845 10.4213 524.525 10.4213 524.093V524.057C10.4213 523.657 10.3173 523.357 10.1093 523.157C9.90134 522.949 9.55734 522.845 9.07734 522.845H7.90134V525.353H9.07734ZM18.1154 526.253C17.2194 526.253 16.4834 525.965 15.9074 525.389C15.3314 524.805 15.0434 524.033 15.0434 523.073V522.977C15.0434 522.033 15.3354 521.261 15.9194 520.661C16.5114 520.061 17.2354 519.761 18.0914 519.761C18.8114 519.761 19.4234 519.941 19.9274 520.301C20.4314 520.653 20.7274 521.205 20.8154 521.957H19.8314C19.6874 521.045 19.1074 520.589 18.0914 520.589C17.5074 520.589 17.0234 520.809 16.6394 521.249C16.2634 521.681 16.0754 522.257 16.0754 522.977V523.073C16.0754 523.825 16.2594 524.405 16.6274 524.813C17.0034 525.221 17.5034 525.425 18.1274 525.425C18.5994 525.425 19.0034 525.293 19.3394 525.029C19.6834 524.757 19.8794 524.377 19.9274 523.889H20.8514C20.7874 524.577 20.4994 525.145 19.9874 525.593C19.4834 526.033 18.8594 526.253 18.1154 526.253ZM25.7709 519.869H26.7669V520.925C26.9509 520.605 27.2389 520.333 27.6309 520.109C28.0229 519.877 28.4429 519.761 28.8909 519.761C29.7309 519.761 30.4149 520.045 30.9429 520.613C31.4789 521.181 31.7469 521.949 31.7469 522.917V523.013C31.7469 523.981 31.4829 524.765 30.9549 525.365C30.4349 525.957 29.7469 526.253 28.8909 526.253C27.9309 526.253 27.2229 525.873 26.7669 525.113V528.329H25.7709V519.869ZM28.7949 525.425C29.4189 525.425 29.8949 525.225 30.2229 524.825C30.5509 524.417 30.7149 523.829 30.7149 523.061V522.965C30.7149 522.205 30.5309 521.621 30.1629 521.213C29.8029 520.797 29.3429 520.589 28.7829 520.589C28.1749 520.589 27.6789 520.793 27.2949 521.201C26.9189 521.601 26.7309 522.189 26.7309 522.965V523.061C26.7309 523.837 26.9149 524.425 27.2829 524.825C27.6589 525.225 28.1629 525.425 28.7949 525.425ZM35.0492 525.497L32.5892 519.869H33.6572L35.5772 524.369L37.3172 519.869H38.3372L34.8692 528.329H33.8612L35.0492 525.497ZM42.3968 526.253C41.4528 526.253 40.7048 525.949 40.1528 525.341C39.6008 524.733 39.3248 523.809 39.3248 522.569V522.185C39.3248 521.593 39.3488 521.069 39.3968 520.613C39.4448 520.149 39.5448 519.685 39.6968 519.221C39.8488 518.749 40.0488 518.357 40.2968 518.045C40.5448 517.733 40.8808 517.473 41.3048 517.265C41.7368 517.057 42.2448 516.937 42.8288 516.905L43.0688 516.893C43.9488 516.845 44.5448 516.757 44.8568 516.629L44.9888 517.469C44.5808 517.645 43.9448 517.753 43.0808 517.793L42.9008 517.805C41.9328 517.853 41.2408 518.169 40.8248 518.753C40.4168 519.329 40.1768 520.225 40.1048 521.441H40.1528C40.3688 521.001 40.6888 520.653 41.1128 520.397C41.5448 520.133 42.0448 520.001 42.6128 520.001C43.4848 520.001 44.1808 520.285 44.7008 520.853C45.2288 521.413 45.4928 522.141 45.4928 523.037V523.085C45.4928 524.053 45.2008 524.825 44.6168 525.401C44.0408 525.969 43.3008 526.253 42.3968 526.253ZM40.8968 524.813C41.2648 525.221 41.7688 525.425 42.4088 525.425C43.0488 525.425 43.5488 525.225 43.9088 524.825C44.2768 524.417 44.4608 523.841 44.4608 523.097V523.073C44.4608 522.377 44.2928 521.829 43.9568 521.429C43.6288 521.029 43.1488 520.829 42.5168 520.829C41.8528 520.829 41.3248 521.037 40.9328 521.453C40.5488 521.869 40.3568 522.437 40.3568 523.157V523.181C40.3568 523.861 40.5368 524.405 40.8968 524.813Z" fill="white"/>
<path opacity="0.6" d="M443.652 558.108C443.036 558.108 442.532 557.956 442.14 557.652C441.756 557.34 441.564 556.876 441.564 556.26C441.564 555.916 441.648 555.616 441.816 555.36C441.992 555.096 442.232 554.892 442.536 554.748C442.84 554.596 443.172 554.488 443.532 554.424C443.892 554.352 444.284 554.316 444.708 554.316H445.608V553.86C445.608 553.356 445.504 552.996 445.296 552.78C445.088 552.556 444.744 552.444 444.264 552.444C443.4 552.444 442.92 552.82 442.824 553.572H441.828C441.892 552.9 442.152 552.408 442.608 552.096C443.072 551.776 443.64 551.616 444.312 551.616C445.84 551.616 446.604 552.364 446.604 553.86V558H445.608V557.208C445.128 557.808 444.476 558.108 443.652 558.108ZM443.748 557.316C444.292 557.316 444.736 557.184 445.08 556.92C445.432 556.648 445.608 556.276 445.608 555.804V555.024H444.744C443.288 555.024 442.56 555.436 442.56 556.26C442.56 556.964 442.956 557.316 443.748 557.316ZM448.608 551.724H450.804C452.276 551.724 453.012 552.256 453.012 553.32V553.356C453.012 553.66 452.928 553.94 452.76 554.196C452.592 554.444 452.34 554.612 452.004 554.7C452.876 554.892 453.312 555.364 453.312 556.116V556.152C453.312 556.76 453.112 557.22 452.712 557.532C452.32 557.844 451.772 558 451.068 558H448.608V551.724ZM449.604 552.516V554.376H450.804C451.22 554.376 451.516 554.3 451.692 554.148C451.876 553.996 451.968 553.748 451.968 553.404V553.368C451.968 553.048 451.872 552.828 451.68 552.708C451.496 552.58 451.2 552.516 450.792 552.516H449.604ZM449.604 555.168V557.208H450.972C451.412 557.208 451.736 557.132 451.944 556.98C452.16 556.82 452.268 556.564 452.268 556.212V556.176C452.268 555.824 452.16 555.568 451.944 555.408C451.736 555.248 451.412 555.168 450.972 555.168H449.604ZM456.017 552.564V558H455.021V551.724H459.005V552.564H456.017ZM462.497 557.352L460.037 551.724H461.105L463.025 556.224L464.765 551.724H465.785L462.317 560.184H461.309L462.497 557.352ZM469.644 558.108C468.748 558.108 468.012 557.82 467.436 557.244C466.86 556.66 466.572 555.888 466.572 554.928V554.832C466.572 553.888 466.864 553.116 467.448 552.516C468.04 551.916 468.764 551.616 469.62 551.616C470.34 551.616 470.952 551.796 471.456 552.156C471.96 552.508 472.256 553.06 472.344 553.812H471.36C471.216 552.9 470.636 552.444 469.62 552.444C469.036 552.444 468.552 552.664 468.168 553.104C467.792 553.536 467.604 554.112 467.604 554.832V554.928C467.604 555.68 467.788 556.26 468.156 556.668C468.532 557.076 469.032 557.28 469.656 557.28C470.128 557.28 470.532 557.148 470.868 556.884C471.212 556.612 471.408 556.232 471.456 555.744H472.38C472.316 556.432 472.028 557 471.516 557.448C471.012 557.888 470.388 558.108 469.644 558.108ZM478.336 552.564H476.308V558H475.312V552.564H473.284V551.724H478.336V552.564Z" fill="white"/>
<path d="M441.35 578.553L445.326 574.367C446.287 573.35 446.768 572.384 446.768 571.469C446.768 570.909 446.609 570.47 446.292 570.153C445.984 569.836 445.545 569.677 444.976 569.677C443.763 569.677 443.058 570.419 442.862 571.903H441.728C441.803 570.914 442.125 570.134 442.694 569.565C443.273 568.986 444.033 568.697 444.976 568.697C445.9 568.697 446.633 568.954 447.174 569.467C447.725 569.971 448 570.652 448 571.511C448 572.612 447.328 573.826 445.984 575.151L443.226 577.839H448.056V578.833H441.35V578.553ZM453.901 577.951C455.665 577.951 456.547 576.658 456.547 574.073V573.513C456.547 572.346 456.309 571.418 455.833 570.727C455.357 570.027 454.704 569.677 453.873 569.677C453.024 569.677 452.361 570.013 451.885 570.685C451.409 571.357 451.171 572.309 451.171 573.541V574.101C451.171 575.342 451.414 576.294 451.899 576.957C452.385 577.62 453.052 577.951 453.901 577.951ZM453.901 578.959C452.707 578.959 451.745 578.516 451.017 577.629C450.289 576.742 449.925 575.571 449.925 574.115V573.555C449.925 572.071 450.275 570.89 450.975 570.013C451.685 569.136 452.651 568.697 453.873 568.697C455.087 568.697 456.039 569.14 456.729 570.027C457.429 570.914 457.779 572.08 457.779 573.527V574.087C457.779 575.562 457.434 576.742 456.743 577.629C456.062 578.516 455.115 578.959 453.901 578.959ZM461.634 570.027L459.394 571.637V570.503L461.718 568.823H462.852V578.833H461.634V570.027ZM468.752 578.945C467.837 578.945 467.104 578.721 466.554 578.273C466.003 577.825 465.662 577.19 465.532 576.369H466.708C466.829 576.892 467.048 577.288 467.366 577.559C467.692 577.82 468.164 577.951 468.78 577.951C469.592 577.951 470.217 577.62 470.656 576.957C471.094 576.294 471.323 575.3 471.342 573.975C471.09 574.395 470.74 574.722 470.292 574.955C469.844 575.188 469.33 575.305 468.752 575.305C467.781 575.305 466.988 574.997 466.372 574.381C465.765 573.765 465.462 572.981 465.462 572.029C465.462 571.021 465.774 570.214 466.4 569.607C467.025 568.991 467.865 568.683 468.92 568.683C470.105 568.683 471.001 569.066 471.608 569.831C472.214 570.596 472.518 571.707 472.518 573.163V573.793C472.518 575.464 472.191 576.742 471.538 577.629C470.894 578.506 469.965 578.945 468.752 578.945ZM468.934 574.353C469.606 574.353 470.156 574.152 470.586 573.751C471.015 573.35 471.23 572.827 471.23 572.183C471.23 571.38 471.015 570.755 470.586 570.307C470.166 569.859 469.61 569.635 468.92 569.635C468.266 569.635 467.734 569.85 467.324 570.279C466.913 570.708 466.708 571.273 466.708 571.973C466.708 572.701 466.908 573.28 467.31 573.709C467.711 574.138 468.252 574.353 468.934 574.353Z" fill="white"/>
<path opacity="0.6" d="M648.84 552.516C647.944 552.516 647.496 552.896 647.496 553.656V553.692C647.496 554.052 647.6 554.324 647.808 554.508C648.016 554.692 648.36 554.784 648.84 554.784H650.016V552.516H648.84ZM647.184 558H646.044L647.952 555.372C646.984 555.172 646.5 554.612 646.5 553.692V553.656C646.5 553 646.724 552.516 647.172 552.204C647.62 551.884 648.196 551.724 648.9 551.724H651.012V558H650.016V555.54H648.936L647.184 558ZM657.233 555.204H654.149V558H653.153V551.724H654.149V554.364H657.233V551.724H658.229V558H657.233V555.204ZM660.363 551.724H662.559C664.031 551.724 664.767 552.256 664.767 553.32V553.356C664.767 553.66 664.683 553.94 664.515 554.196C664.347 554.444 664.095 554.612 663.759 554.7C664.631 554.892 665.067 555.364 665.067 556.116V556.152C665.067 556.76 664.867 557.22 664.467 557.532C664.075 557.844 663.527 558 662.823 558H660.363V551.724ZM661.359 552.516V554.376H662.559C662.975 554.376 663.271 554.3 663.447 554.148C663.631 553.996 663.723 553.748 663.723 553.404V553.368C663.723 553.048 663.627 552.828 663.435 552.708C663.251 552.58 662.955 552.516 662.547 552.516H661.359ZM661.359 555.168V557.208H662.727C663.167 557.208 663.491 557.132 663.699 556.98C663.915 556.82 664.023 556.564 664.023 556.212V556.176C664.023 555.824 663.915 555.568 663.699 555.408C663.491 555.248 663.167 555.168 662.727 555.168H661.359ZM668.478 558.108C667.862 558.108 667.358 557.956 666.966 557.652C666.582 557.34 666.39 556.876 666.39 556.26C666.39 555.916 666.474 555.616 666.642 555.36C666.818 555.096 667.058 554.892 667.362 554.748C667.666 554.596 667.998 554.488 668.358 554.424C668.718 554.352 669.11 554.316 669.534 554.316H670.434V553.86C670.434 553.356 670.33 552.996 670.122 552.78C669.914 552.556 669.57 552.444 669.09 552.444C668.226 552.444 667.746 552.82 667.65 553.572H666.654C666.718 552.9 666.978 552.408 667.434 552.096C667.898 551.776 668.466 551.616 669.138 551.616C670.666 551.616 671.43 552.364 671.43 553.86V558H670.434V557.208C669.954 557.808 669.302 558.108 668.478 558.108ZM668.574 557.316C669.118 557.316 669.562 557.184 669.906 556.92C670.258 556.648 670.434 556.276 670.434 555.804V555.024H669.57C668.114 555.024 667.386 555.436 667.386 556.26C667.386 556.964 667.782 557.316 668.574 557.316ZM673.507 551.724H674.503V552.78C674.687 552.46 674.975 552.188 675.367 551.964C675.759 551.732 676.179 551.616 676.627 551.616C677.467 551.616 678.151 551.9 678.679 552.468C679.215 553.036 679.483 553.804 679.483 554.772V554.868C679.483 555.836 679.219 556.62 678.691 557.22C678.171 557.812 677.483 558.108 676.627 558.108C675.667 558.108 674.959 557.728 674.503 556.968V560.184H673.507V551.724ZM676.531 557.28C677.155 557.28 677.631 557.08 677.959 556.68C678.287 556.272 678.451 555.684 678.451 554.916V554.82C678.451 554.06 678.267 553.476 677.899 553.068C677.539 552.652 677.079 552.444 676.519 552.444C675.911 552.444 675.415 552.648 675.031 553.056C674.655 553.456 674.467 554.044 674.467 554.82V554.916C674.467 555.692 674.651 556.28 675.019 556.68C675.395 557.08 675.899 557.28 676.531 557.28ZM681.078 551.724H682.074V553.92H683.19C683.894 553.92 684.47 554.092 684.918 554.436C685.366 554.78 685.59 555.292 685.59 555.972V556.008C685.59 556.696 685.366 557.2 684.918 557.52C684.478 557.84 683.902 558 683.19 558H681.078V551.724ZM683.25 557.22C683.73 557.22 684.074 557.12 684.282 556.92C684.49 556.712 684.594 556.408 684.594 556.008V555.972C684.594 555.54 684.486 555.224 684.27 555.024C684.062 554.816 683.722 554.712 683.25 554.712H682.074V557.22H683.25Z" fill="white"/>
<path d="M647.489 578.553L651.465 574.367C652.427 573.35 652.907 572.384 652.907 571.469C652.907 570.909 652.749 570.47 652.431 570.153C652.123 569.836 651.685 569.677 651.115 569.677C649.902 569.677 649.197 570.419 649.001 571.903H647.867C647.942 570.914 648.264 570.134 648.833 569.565C649.412 568.986 650.173 568.697 651.115 568.697C652.039 568.697 652.772 568.954 653.313 569.467C653.864 569.971 654.139 570.652 654.139 571.511C654.139 572.612 653.467 573.826 652.123 575.151L649.365 577.839H654.195V578.833H647.489V578.553ZM660.041 577.951C661.805 577.951 662.687 576.658 662.687 574.073V573.513C662.687 572.346 662.449 571.418 661.973 570.727C661.497 570.027 660.843 569.677 660.013 569.677C659.163 569.677 658.501 570.013 658.025 570.685C657.549 571.357 657.311 572.309 657.311 573.541V574.101C657.311 575.342 657.553 576.294 658.039 576.957C658.524 577.62 659.191 577.951 660.041 577.951ZM660.041 578.959C658.846 578.959 657.885 578.516 657.157 577.629C656.429 576.742 656.065 575.571 656.065 574.115V573.555C656.065 572.071 656.415 570.89 657.115 570.013C657.824 569.136 658.79 568.697 660.013 568.697C661.226 568.697 662.178 569.14 662.869 570.027C663.569 570.914 663.919 572.08 663.919 573.527V574.087C663.919 575.562 663.573 576.742 662.883 577.629C662.201 578.516 661.254 578.959 660.041 578.959ZM665.338 578.553L669.314 574.367C670.275 573.35 670.756 572.384 670.756 571.469C670.756 570.909 670.597 570.47 670.28 570.153C669.972 569.836 669.533 569.677 668.964 569.677C667.75 569.677 667.046 570.419 666.85 571.903H665.716C665.79 570.914 666.112 570.134 666.682 569.565C667.26 568.986 668.021 568.697 668.964 568.697C669.888 568.697 670.62 568.954 671.162 569.467C671.712 569.971 671.988 570.652 671.988 571.511C671.988 572.612 671.316 573.826 669.972 575.151L667.214 577.839H672.044V578.833H665.338V578.553ZM677.889 577.951C679.653 577.951 680.535 576.658 680.535 574.073V573.513C680.535 572.346 680.297 571.418 679.821 570.727C679.345 570.027 678.692 569.677 677.861 569.677C677.012 569.677 676.349 570.013 675.873 570.685C675.397 571.357 675.159 572.309 675.159 573.541V574.101C675.159 575.342 675.402 576.294 675.887 576.957C676.372 577.62 677.04 577.951 677.889 577.951ZM677.889 578.959C676.694 578.959 675.733 578.516 675.005 577.629C674.277 576.742 673.913 575.571 673.913 574.115V573.555C673.913 572.071 674.263 570.89 674.963 570.013C675.672 569.136 676.638 568.697 677.861 568.697C679.074 568.697 680.026 569.14 680.717 570.027C681.417 570.914 681.767 572.08 681.767 573.527V574.087C681.767 575.562 681.422 576.742 680.731 577.629C680.05 578.516 679.102 578.959 677.889 578.959Z" fill="white"/>
<path opacity="0.6" d="M346.008 558V551.724H347.004V556.56L350.208 551.724H351.204V558H350.208V553.164L347.004 558H346.008ZM358.102 558.108C357.302 558.108 356.638 557.86 356.11 557.364C355.59 556.868 355.282 556.216 355.186 555.408C355.17 555.296 355.162 555.228 355.162 555.204H354.214V558H353.218V551.724H354.214V554.364H355.174C355.27 553.532 355.578 552.868 356.098 552.372C356.626 551.868 357.298 551.616 358.114 551.616C359.002 551.616 359.718 551.912 360.262 552.504C360.806 553.096 361.078 553.864 361.078 554.808V554.904C361.078 555.856 360.802 556.628 360.25 557.22C359.706 557.812 358.99 558.108 358.102 558.108ZM358.114 557.28C358.73 557.28 359.206 557.068 359.542 556.644C359.878 556.22 360.046 555.644 360.046 554.916V554.832C360.046 554.096 359.878 553.516 359.542 553.092C359.206 552.66 358.73 552.444 358.114 552.444C357.49 552.444 357.01 552.656 356.674 553.08C356.346 553.504 356.182 554.084 356.182 554.82V554.916C356.182 555.652 356.346 556.232 356.674 556.656C357.002 557.072 357.482 557.28 358.114 557.28ZM363.889 555.576C363.817 556.44 363.665 557.072 363.433 557.472C363.201 557.864 362.837 558.06 362.341 558.06C362.237 558.06 362.129 558.052 362.017 558.036L361.921 558V557.052L362.005 557.076C362.085 557.092 362.169 557.1 362.257 557.1C362.385 557.1 362.489 557.064 362.569 556.992C362.657 556.912 362.725 556.788 362.773 556.62C362.829 556.452 362.869 556.296 362.893 556.152C362.917 556 362.945 555.788 362.977 555.516C363.009 555.228 363.057 554.412 363.121 553.068L363.157 551.724H367.297V558H366.301V552.564H364.045C363.973 554.292 363.921 555.296 363.889 555.576ZM369.431 551.724H370.427V553.92H371.543C372.247 553.92 372.823 554.092 373.271 554.436C373.719 554.78 373.943 555.292 373.943 555.972V556.008C373.943 556.696 373.719 557.2 373.271 557.52C372.831 557.84 372.255 558 371.543 558H369.431V551.724ZM371.603 557.22C372.083 557.22 372.427 557.12 372.635 556.92C372.843 556.712 372.947 556.408 372.947 556.008V555.972C372.947 555.54 372.839 555.224 372.623 555.024C372.415 554.816 372.075 554.712 371.603 554.712H370.427V557.22H371.603Z" fill="white"/>
<path d="M345.35 578.553L349.326 574.367C350.287 573.35 350.768 572.384 350.768 571.469C350.768 570.909 350.609 570.47 350.292 570.153C349.984 569.836 349.545 569.677 348.976 569.677C347.763 569.677 347.058 570.419 346.862 571.903H345.728C345.803 570.914 346.125 570.134 346.694 569.565C347.273 568.986 348.033 568.697 348.976 568.697C349.9 568.697 350.633 568.954 351.174 569.467C351.725 569.971 352 570.652 352 571.511C352 572.612 351.328 573.826 349.984 575.151L347.226 577.839H352.056V578.833H345.35V578.553ZM357.901 577.951C359.665 577.951 360.547 576.658 360.547 574.073V573.513C360.547 572.346 360.309 571.418 359.833 570.727C359.357 570.027 358.704 569.677 357.873 569.677C357.024 569.677 356.361 570.013 355.885 570.685C355.409 571.357 355.171 572.309 355.171 573.541V574.101C355.171 575.342 355.414 576.294 355.899 576.957C356.385 577.62 357.052 577.951 357.901 577.951ZM357.901 578.959C356.707 578.959 355.745 578.516 355.017 577.629C354.289 576.742 353.925 575.571 353.925 574.115V573.555C353.925 572.071 354.275 570.89 354.975 570.013C355.685 569.136 356.651 568.697 357.873 568.697C359.087 568.697 360.039 569.14 360.729 570.027C361.429 570.914 361.779 572.08 361.779 573.527V574.087C361.779 575.562 361.434 576.742 360.743 577.629C360.062 578.516 359.115 578.959 357.901 578.959ZM365.634 570.027L363.394 571.637V570.503L365.718 568.823H366.852V578.833H365.634V570.027ZM372.752 578.945C371.837 578.945 371.104 578.721 370.554 578.273C370.003 577.825 369.662 577.19 369.532 576.369H370.708C370.829 576.892 371.048 577.288 371.366 577.559C371.692 577.82 372.164 577.951 372.78 577.951C373.592 577.951 374.217 577.62 374.656 576.957C375.094 576.294 375.323 575.3 375.342 573.975C375.09 574.395 374.74 574.722 374.292 574.955C373.844 575.188 373.33 575.305 372.752 575.305C371.781 575.305 370.988 574.997 370.372 574.381C369.765 573.765 369.462 572.981 369.462 572.029C369.462 571.021 369.774 570.214 370.4 569.607C371.025 568.991 371.865 568.683 372.92 568.683C374.105 568.683 375.001 569.066 375.608 569.831C376.214 570.596 376.518 571.707 376.518 573.163V573.793C376.518 575.464 376.191 576.742 375.538 577.629C374.894 578.506 373.965 578.945 372.752 578.945ZM372.934 574.353C373.606 574.353 374.156 574.152 374.586 573.751C375.015 573.35 375.23 572.827 375.23 572.183C375.23 571.38 375.015 570.755 374.586 570.307C374.166 569.859 373.61 569.635 372.92 569.635C372.266 569.635 371.734 569.85 371.324 570.279C370.913 570.708 370.708 571.273 370.708 571.973C370.708 572.701 370.908 573.28 371.31 573.709C371.711 574.138 372.252 574.353 372.934 574.353Z" fill="white"/>
<path opacity="0.6" d="M248.008 558V551.724H249.004V556.56L252.208 551.724H253.204V558H252.208V553.164L249.004 558H248.008ZM260.102 558.108C259.302 558.108 258.638 557.86 258.11 557.364C257.59 556.868 257.282 556.216 257.186 555.408C257.17 555.296 257.162 555.228 257.162 555.204H256.214V558H255.218V551.724H256.214V554.364H257.174C257.27 553.532 257.578 552.868 258.098 552.372C258.626 551.868 259.298 551.616 260.114 551.616C261.002 551.616 261.718 551.912 262.262 552.504C262.806 553.096 263.078 553.864 263.078 554.808V554.904C263.078 555.856 262.802 556.628 262.25 557.22C261.706 557.812 260.99 558.108 260.102 558.108ZM260.114 557.28C260.73 557.28 261.206 557.068 261.542 556.644C261.878 556.22 262.046 555.644 262.046 554.916V554.832C262.046 554.096 261.878 553.516 261.542 553.092C261.206 552.66 260.73 552.444 260.114 552.444C259.49 552.444 259.01 552.656 258.674 553.08C258.346 553.504 258.182 554.084 258.182 554.82V554.916C258.182 555.652 258.346 556.232 258.674 556.656C259.002 557.072 259.482 557.28 260.114 557.28ZM268.828 555.204H265.744V558H264.748V551.724H265.744V554.364H268.828V551.724H269.824V558H268.828V555.204ZM271.958 551.724H272.954V553.92H274.07C274.774 553.92 275.35 554.092 275.798 554.436C276.246 554.78 276.47 555.292 276.47 555.972V556.008C276.47 556.696 276.246 557.2 275.798 557.52C275.358 557.84 274.782 558 274.07 558H271.958V551.724ZM274.13 557.22C274.61 557.22 274.954 557.12 275.162 556.92C275.37 556.712 275.474 556.408 275.474 556.008V555.972C275.474 555.54 275.366 555.224 275.15 555.024C274.942 554.816 274.602 554.712 274.13 554.712H272.954V557.22H274.13Z" fill="white"/>
<path d="M247.35 578.553L251.326 574.367C252.287 573.35 252.768 572.384 252.768 571.469C252.768 570.909 252.609 570.47 252.292 570.153C251.984 569.836 251.545 569.677 250.976 569.677C249.763 569.677 249.058 570.419 248.862 571.903H247.728C247.803 570.914 248.125 570.134 248.694 569.565C249.273 568.986 250.033 568.697 250.976 568.697C251.9 568.697 252.633 568.954 253.174 569.467C253.725 569.971 254 570.652 254 571.511C254 572.612 253.328 573.826 251.984 575.151L249.226 577.839H254.056V578.833H247.35V578.553ZM259.901 577.951C261.665 577.951 262.547 576.658 262.547 574.073V573.513C262.547 572.346 262.309 571.418 261.833 570.727C261.357 570.027 260.704 569.677 259.873 569.677C259.024 569.677 258.361 570.013 257.885 570.685C257.409 571.357 257.171 572.309 257.171 573.541V574.101C257.171 575.342 257.414 576.294 257.899 576.957C258.385 577.62 259.052 577.951 259.901 577.951ZM259.901 578.959C258.707 578.959 257.745 578.516 257.017 577.629C256.289 576.742 255.925 575.571 255.925 574.115V573.555C255.925 572.071 256.275 570.89 256.975 570.013C257.685 569.136 258.651 568.697 259.873 568.697C261.087 568.697 262.039 569.14 262.729 570.027C263.429 570.914 263.779 572.08 263.779 573.527V574.087C263.779 575.562 263.434 576.742 262.743 577.629C262.062 578.516 261.115 578.959 259.901 578.959ZM267.634 570.027L265.394 571.637V570.503L267.718 568.823H268.852V578.833H267.634V570.027ZM274.752 578.945C273.837 578.945 273.104 578.721 272.554 578.273C272.003 577.825 271.662 577.19 271.532 576.369H272.708C272.829 576.892 273.048 577.288 273.366 577.559C273.692 577.82 274.164 577.951 274.78 577.951C275.592 577.951 276.217 577.62 276.656 576.957C277.094 576.294 277.323 575.3 277.342 573.975C277.09 574.395 276.74 574.722 276.292 574.955C275.844 575.188 275.33 575.305 274.752 575.305C273.781 575.305 272.988 574.997 272.372 574.381C271.765 573.765 271.462 572.981 271.462 572.029C271.462 571.021 271.774 570.214 272.4 569.607C273.025 568.991 273.865 568.683 274.92 568.683C276.105 568.683 277.001 569.066 277.608 569.831C278.214 570.596 278.518 571.707 278.518 573.163V573.793C278.518 575.464 278.191 576.742 277.538 577.629C276.894 578.506 275.965 578.945 274.752 578.945ZM274.934 574.353C275.606 574.353 276.156 574.152 276.586 573.751C277.015 573.35 277.23 572.827 277.23 572.183C277.23 571.38 277.015 570.755 276.586 570.307C276.166 569.859 275.61 569.635 274.92 569.635C274.266 569.635 273.734 569.85 273.324 570.279C272.913 570.708 272.708 571.273 272.708 571.973C272.708 572.701 272.908 573.28 273.31 573.709C273.711 574.138 274.252 574.353 274.934 574.353Z" fill="white"/>
<path opacity="0.6" d="M152.848 552.708V558H152.02V551.724H153.424L155.212 556.44L157.048 551.724H158.416V558H157.432V552.708L155.356 558H154.9L152.848 552.708ZM162.21 558.108C161.594 558.108 161.089 557.956 160.697 557.652C160.313 557.34 160.121 556.876 160.121 556.26C160.121 555.916 160.205 555.616 160.373 555.36C160.549 555.096 160.789 554.892 161.093 554.748C161.397 554.596 161.729 554.488 162.09 554.424C162.45 554.352 162.842 554.316 163.266 554.316H164.165V553.86C164.165 553.356 164.061 552.996 163.854 552.78C163.646 552.556 163.302 552.444 162.822 552.444C161.957 552.444 161.477 552.82 161.382 553.572H160.385C160.449 552.9 160.709 552.408 161.165 552.096C161.629 551.776 162.197 551.616 162.87 551.616C164.398 551.616 165.161 552.364 165.161 553.86V558H164.165V557.208C163.685 557.808 163.033 558.108 162.21 558.108ZM162.306 557.316C162.85 557.316 163.294 557.184 163.637 556.92C163.989 556.648 164.165 556.276 164.165 555.804V555.024H163.301C161.845 555.024 161.118 555.436 161.118 556.26C161.118 556.964 161.514 557.316 162.306 557.316ZM169.746 550.572C169.314 550.572 168.946 550.424 168.642 550.128C168.338 549.824 168.178 549.444 168.162 548.988H169.026C169.074 549.58 169.314 549.876 169.746 549.876C170.218 549.876 170.482 549.58 170.538 548.988H171.378C171.346 549.444 171.174 549.824 170.862 550.128C170.558 550.424 170.186 550.572 169.746 550.572ZM167.166 558V551.724H168.162V556.56L171.366 551.724H172.362V558H171.366V553.164L168.162 558H167.166Z" fill="white"/>
<path d="M151.35 578.553L155.326 574.367C156.287 573.35 156.768 572.384 156.768 571.469C156.768 570.909 156.609 570.47 156.292 570.153C155.984 569.836 155.545 569.677 154.976 569.677C153.763 569.677 153.058 570.419 152.862 571.903H151.728C151.803 570.914 152.125 570.134 152.694 569.565C153.273 568.986 154.033 568.697 154.976 568.697C155.9 568.697 156.633 568.954 157.174 569.467C157.725 569.971 158 570.652 158 571.511C158 572.612 157.328 573.826 155.984 575.151L153.226 577.839H158.056V578.833H151.35V578.553ZM163.901 577.951C165.665 577.951 166.547 576.658 166.547 574.073V573.513C166.547 572.346 166.309 571.418 165.833 570.727C165.357 570.027 164.704 569.677 163.873 569.677C163.024 569.677 162.361 570.013 161.885 570.685C161.409 571.357 161.171 572.309 161.171 573.541V574.101C161.171 575.342 161.414 576.294 161.899 576.957C162.385 577.62 163.052 577.951 163.901 577.951ZM163.901 578.959C162.707 578.959 161.745 578.516 161.017 577.629C160.289 576.742 159.925 575.571 159.925 574.115V573.555C159.925 572.071 160.275 570.89 160.975 570.013C161.685 569.136 162.651 568.697 163.873 568.697C165.087 568.697 166.039 569.14 166.729 570.027C167.429 570.914 167.779 572.08 167.779 573.527V574.087C167.779 575.562 167.434 576.742 166.743 577.629C166.062 578.516 165.115 578.959 163.901 578.959ZM171.634 570.027L169.394 571.637V570.503L171.718 568.823H172.852V578.833H171.634V570.027ZM178.752 578.945C177.837 578.945 177.104 578.721 176.554 578.273C176.003 577.825 175.662 577.19 175.532 576.369H176.708C176.829 576.892 177.048 577.288 177.366 577.559C177.692 577.82 178.164 577.951 178.78 577.951C179.592 577.951 180.217 577.62 180.656 576.957C181.094 576.294 181.323 575.3 181.342 573.975C181.09 574.395 180.74 574.722 180.292 574.955C179.844 575.188 179.33 575.305 178.752 575.305C177.781 575.305 176.988 574.997 176.372 574.381C175.765 573.765 175.462 572.981 175.462 572.029C175.462 571.021 175.774 570.214 176.4 569.607C177.025 568.991 177.865 568.683 178.92 568.683C180.105 568.683 181.001 569.066 181.608 569.831C182.214 570.596 182.518 571.707 182.518 573.163V573.793C182.518 575.464 182.191 576.742 181.538 577.629C180.894 578.506 179.965 578.945 178.752 578.945ZM178.934 574.353C179.606 574.353 180.156 574.152 180.586 573.751C181.015 573.35 181.23 572.827 181.23 572.183C181.23 571.38 181.015 570.755 180.586 570.307C180.166 569.859 179.61 569.635 178.92 569.635C178.266 569.635 177.734 569.85 177.324 570.279C176.913 570.708 176.708 571.273 176.708 571.973C176.708 572.701 176.908 573.28 177.31 573.709C177.711 574.138 178.252 574.353 178.934 574.353Z" fill="white"/>
<path opacity="0.6" d="M547.088 555.204H544.004V558H543.008V551.724H544.004V554.364H547.088V551.724H548.084V558H547.088V555.204ZM552.906 557.28C553.53 557.28 554.026 557.064 554.394 556.632C554.77 556.2 554.958 555.628 554.958 554.916V554.832C554.958 554.104 554.77 553.524 554.394 553.092C554.026 552.66 553.53 552.444 552.906 552.444C552.274 552.444 551.774 552.66 551.406 553.092C551.038 553.524 550.854 554.1 550.854 554.82V554.916C550.854 555.644 551.034 556.22 551.394 556.644C551.762 557.068 552.266 557.28 552.906 557.28ZM552.894 558.108C552.006 558.108 551.27 557.808 550.686 557.208C550.11 556.6 549.822 555.836 549.822 554.916V554.82C549.822 553.884 550.11 553.116 550.686 552.516C551.27 551.916 552.01 551.616 552.906 551.616C553.802 551.616 554.538 551.916 555.114 552.516C555.698 553.108 555.99 553.872 555.99 554.808V554.904C555.99 555.848 555.698 556.62 555.114 557.22C554.53 557.812 553.79 558.108 552.894 558.108ZM559.668 552.516C558.772 552.516 558.324 552.896 558.324 553.656V553.692C558.324 554.052 558.428 554.324 558.636 554.508C558.844 554.692 559.188 554.784 559.668 554.784H560.844V552.516H559.668ZM558.012 558H556.872L558.78 555.372C557.812 555.172 557.328 554.612 557.328 553.692V553.656C557.328 553 557.552 552.516 558 552.204C558.448 551.884 559.024 551.724 559.728 551.724H561.84V558H560.844V555.54H559.764L558.012 558ZM566.681 558.108C565.737 558.108 564.989 557.804 564.437 557.196C563.885 556.588 563.609 555.664 563.609 554.424V554.04C563.609 553.448 563.633 552.924 563.681 552.468C563.729 552.004 563.829 551.54 563.981 551.076C564.133 550.604 564.333 550.212 564.581 549.9C564.829 549.588 565.165 549.328 565.589 549.12C566.021 548.912 566.529 548.792 567.113 548.76L567.353 548.748C568.233 548.7 568.829 548.612 569.141 548.484L569.273 549.324C568.865 549.5 568.229 549.608 567.365 549.648L567.185 549.66C566.217 549.708 565.525 550.024 565.109 550.608C564.701 551.184 564.461 552.08 564.389 553.296H564.437C564.653 552.856 564.973 552.508 565.397 552.252C565.829 551.988 566.329 551.856 566.897 551.856C567.769 551.856 568.465 552.14 568.985 552.708C569.513 553.268 569.777 553.996 569.777 554.892V554.94C569.777 555.908 569.485 556.68 568.901 557.256C568.325 557.824 567.585 558.108 566.681 558.108ZM565.181 556.668C565.549 557.076 566.053 557.28 566.693 557.28C567.333 557.28 567.833 557.08 568.193 556.68C568.561 556.272 568.745 555.696 568.745 554.952V554.928C568.745 554.232 568.577 553.684 568.241 553.284C567.913 552.884 567.433 552.684 566.801 552.684C566.137 552.684 565.609 552.892 565.217 553.308C564.833 553.724 564.641 554.292 564.641 555.012V555.036C564.641 555.716 564.821 556.26 565.181 556.668ZM571.521 551.724H572.517V552.78C572.701 552.46 572.989 552.188 573.381 551.964C573.773 551.732 574.193 551.616 574.641 551.616C575.481 551.616 576.165 551.9 576.693 552.468C577.229 553.036 577.497 553.804 577.497 554.772V554.868C577.497 555.836 577.233 556.62 576.705 557.22C576.185 557.812 575.497 558.108 574.641 558.108C573.681 558.108 572.973 557.728 572.517 556.968V560.184H571.521V551.724ZM574.545 557.28C575.169 557.28 575.645 557.08 575.973 556.68C576.301 556.272 576.465 555.684 576.465 554.916V554.82C576.465 554.06 576.281 553.476 575.913 553.068C575.553 552.652 575.093 552.444 574.533 552.444C573.925 552.444 573.429 552.648 573.045 553.056C572.669 553.456 572.481 554.044 572.481 554.82V554.916C572.481 555.692 572.665 556.28 573.033 556.68C573.409 557.08 573.913 557.28 574.545 557.28ZM579.092 551.724H580.088V553.92H581.204C581.908 553.92 582.484 554.092 582.932 554.436C583.38 554.78 583.604 555.292 583.604 555.972V556.008C583.604 556.696 583.38 557.2 582.932 557.52C582.492 557.84 581.916 558 581.204 558H579.092V551.724ZM581.264 557.22C581.744 557.22 582.088 557.12 582.296 556.92C582.504 556.712 582.608 556.408 582.608 556.008V555.972C582.608 555.54 582.5 555.224 582.284 555.024C582.076 554.816 581.736 554.712 581.264 554.712H580.088V557.22H581.264Z" fill="white"/>
<path d="M542.35 578.553L546.326 574.367C547.287 573.35 547.768 572.384 547.768 571.469C547.768 570.909 547.609 570.47 547.292 570.153C546.984 569.836 546.545 569.677 545.976 569.677C544.763 569.677 544.058 570.419 543.862 571.903H542.728C542.803 570.914 543.125 570.134 543.694 569.565C544.273 568.986 545.033 568.697 545.976 568.697C546.9 568.697 547.633 568.954 548.174 569.467C548.725 569.971 549 570.652 549 571.511C549 572.612 548.328 573.826 546.984 575.151L544.226 577.839H549.056V578.833H542.35V578.553ZM554.901 577.951C556.665 577.951 557.547 576.658 557.547 574.073V573.513C557.547 572.346 557.309 571.418 556.833 570.727C556.357 570.027 555.704 569.677 554.873 569.677C554.024 569.677 553.361 570.013 552.885 570.685C552.409 571.357 552.171 572.309 552.171 573.541V574.101C552.171 575.342 552.414 576.294 552.899 576.957C553.385 577.62 554.052 577.951 554.901 577.951ZM554.901 578.959C553.707 578.959 552.745 578.516 552.017 577.629C551.289 576.742 550.925 575.571 550.925 574.115V573.555C550.925 572.071 551.275 570.89 551.975 570.013C552.685 569.136 553.651 568.697 554.873 568.697C556.087 568.697 557.039 569.14 557.729 570.027C558.429 570.914 558.779 572.08 558.779 573.527V574.087C558.779 575.562 558.434 576.742 557.743 577.629C557.062 578.516 556.115 578.959 554.901 578.959ZM562.634 570.027L560.394 571.637V570.503L562.718 568.823H563.852V578.833H562.634V570.027ZM569.752 578.945C568.837 578.945 568.104 578.721 567.554 578.273C567.003 577.825 566.662 577.19 566.532 576.369H567.708C567.829 576.892 568.048 577.288 568.366 577.559C568.692 577.82 569.164 577.951 569.78 577.951C570.592 577.951 571.217 577.62 571.656 576.957C572.094 576.294 572.323 575.3 572.342 573.975C572.09 574.395 571.74 574.722 571.292 574.955C570.844 575.188 570.33 575.305 569.752 575.305C568.781 575.305 567.988 574.997 567.372 574.381C566.765 573.765 566.462 572.981 566.462 572.029C566.462 571.021 566.774 570.214 567.4 569.607C568.025 568.991 568.865 568.683 569.92 568.683C571.105 568.683 572.001 569.066 572.608 569.831C573.214 570.596 573.518 571.707 573.518 573.163V573.793C573.518 575.464 573.191 576.742 572.538 577.629C571.894 578.506 570.965 578.945 569.752 578.945ZM569.934 574.353C570.606 574.353 571.156 574.152 571.586 573.751C572.015 573.35 572.23 572.827 572.23 572.183C572.23 571.38 572.015 570.755 571.586 570.307C571.166 569.859 570.61 569.635 569.92 569.635C569.266 569.635 568.734 569.85 568.324 570.279C567.913 570.708 567.708 571.273 567.708 571.973C567.708 572.701 567.908 573.28 568.31 573.709C568.711 574.138 569.252 574.353 569.934 574.353Z" fill="white"/>
<path opacity="0.6" d="M749.848 552.708V558H749.02V551.724H750.424L752.212 556.44L754.048 551.724H755.416V558H754.432V552.708L752.356 558H751.9L749.848 552.708ZM759.21 558.108C758.594 558.108 758.089 557.956 757.697 557.652C757.313 557.34 757.121 556.876 757.121 556.26C757.121 555.916 757.205 555.616 757.373 555.36C757.549 555.096 757.789 554.892 758.093 554.748C758.397 554.596 758.729 554.488 759.09 554.424C759.45 554.352 759.842 554.316 760.266 554.316H761.165V553.86C761.165 553.356 761.061 552.996 760.854 552.78C760.646 552.556 760.302 552.444 759.822 552.444C758.957 552.444 758.477 552.82 758.382 553.572H757.385C757.449 552.9 757.709 552.408 758.165 552.096C758.629 551.776 759.197 551.616 759.87 551.616C761.398 551.616 762.161 552.364 762.161 553.86V558H761.165V557.208C760.685 557.808 760.033 558.108 759.21 558.108ZM759.306 557.316C759.85 557.316 760.294 557.184 760.637 556.92C760.989 556.648 761.165 556.276 761.165 555.804V555.024H760.301C758.845 555.024 758.118 555.436 758.118 556.26C758.118 556.964 758.514 557.316 759.306 557.316ZM764.238 551.724H765.234V552.78C765.418 552.46 765.706 552.188 766.098 551.964C766.49 551.732 766.91 551.616 767.358 551.616C768.198 551.616 768.882 551.9 769.41 552.468C769.946 553.036 770.214 553.804 770.214 554.772V554.868C770.214 555.836 769.95 556.62 769.422 557.22C768.902 557.812 768.214 558.108 767.358 558.108C766.398 558.108 765.69 557.728 765.234 556.968V560.184H764.238V551.724ZM767.262 557.28C767.886 557.28 768.362 557.08 768.69 556.68C769.018 556.272 769.182 555.684 769.182 554.916V554.82C769.182 554.06 768.998 553.476 768.63 553.068C768.27 552.652 767.81 552.444 767.25 552.444C766.642 552.444 766.146 552.648 765.762 553.056C765.386 553.456 765.198 554.044 765.198 554.82V554.916C765.198 555.692 765.382 556.28 765.75 556.68C766.126 557.08 766.63 557.28 767.262 557.28ZM776.096 552.564H774.068V558H773.072V552.564H771.044V551.724H776.096V552.564Z" fill="white"/>
<path d="M748.35 578.553L752.326 574.367C753.287 573.35 753.768 572.384 753.768 571.469C753.768 570.909 753.609 570.47 753.292 570.153C752.984 569.836 752.545 569.677 751.976 569.677C750.763 569.677 750.058 570.419 749.862 571.903H748.728C748.803 570.914 749.125 570.134 749.694 569.565C750.273 568.986 751.033 568.697 751.976 568.697C752.9 568.697 753.633 568.954 754.174 569.467C754.725 569.971 755 570.652 755 571.511C755 572.612 754.328 573.826 752.984 575.151L750.226 577.839H755.056V578.833H748.35V578.553ZM760.901 577.951C762.665 577.951 763.547 576.658 763.547 574.073V573.513C763.547 572.346 763.309 571.418 762.833 570.727C762.357 570.027 761.704 569.677 760.873 569.677C760.024 569.677 759.361 570.013 758.885 570.685C758.409 571.357 758.171 572.309 758.171 573.541V574.101C758.171 575.342 758.414 576.294 758.899 576.957C759.385 577.62 760.052 577.951 760.901 577.951ZM760.901 578.959C759.707 578.959 758.745 578.516 758.017 577.629C757.289 576.742 756.925 575.571 756.925 574.115V573.555C756.925 572.071 757.275 570.89 757.975 570.013C758.685 569.136 759.651 568.697 760.873 568.697C762.087 568.697 763.039 569.14 763.729 570.027C764.429 570.914 764.779 572.08 764.779 573.527V574.087C764.779 575.562 764.434 576.742 763.743 577.629C763.062 578.516 762.115 578.959 760.901 578.959ZM766.198 578.553L770.174 574.367C771.136 573.35 771.616 572.384 771.616 571.469C771.616 570.909 771.458 570.47 771.14 570.153C770.832 569.836 770.394 569.677 769.824 569.677C768.611 569.677 767.906 570.419 767.71 571.903H766.576C766.651 570.914 766.973 570.134 767.542 569.565C768.121 568.986 768.882 568.697 769.824 568.697C770.748 568.697 771.481 568.954 772.022 569.467C772.573 569.971 772.848 570.652 772.848 571.511C772.848 572.612 772.176 573.826 770.832 575.151L768.074 577.839H772.904V578.833H766.198V578.553ZM778.75 577.951C780.514 577.951 781.396 576.658 781.396 574.073V573.513C781.396 572.346 781.158 571.418 780.682 570.727C780.206 570.027 779.552 569.677 778.722 569.677C777.872 569.677 777.21 570.013 776.734 570.685C776.258 571.357 776.02 572.309 776.02 573.541V574.101C776.02 575.342 776.262 576.294 776.748 576.957C777.233 577.62 777.9 577.951 778.75 577.951ZM778.75 578.959C777.555 578.959 776.594 578.516 775.866 577.629C775.138 576.742 774.774 575.571 774.774 574.115V573.555C774.774 572.071 775.124 570.89 775.824 570.013C776.533 569.136 777.499 568.697 778.722 568.697C779.935 568.697 780.887 569.14 781.578 570.027C782.278 570.914 782.628 572.08 782.628 573.527V574.087C782.628 575.562 782.282 576.742 781.592 577.629C780.91 578.516 779.963 578.959 778.75 578.959Z" fill="white"/>
<path opacity="0.6" d="M856.008 558V551.724H857.004V556.56L860.208 551.724H861.204V558H860.208V553.164L857.004 558H856.008ZM868.102 558.108C867.302 558.108 866.638 557.86 866.11 557.364C865.59 556.868 865.282 556.216 865.186 555.408C865.17 555.296 865.162 555.228 865.162 555.204H864.214V558H863.218V551.724H864.214V554.364H865.174C865.27 553.532 865.578 552.868 866.098 552.372C866.626 551.868 867.298 551.616 868.114 551.616C869.002 551.616 869.718 551.912 870.262 552.504C870.806 553.096 871.078 553.864 871.078 554.808V554.904C871.078 555.856 870.802 556.628 870.25 557.22C869.706 557.812 868.99 558.108 868.102 558.108ZM868.114 557.28C868.73 557.28 869.206 557.068 869.542 556.644C869.878 556.22 870.046 555.644 870.046 554.916V554.832C870.046 554.096 869.878 553.516 869.542 553.092C869.206 552.66 868.73 552.444 868.114 552.444C867.49 552.444 867.01 552.656 866.674 553.08C866.346 553.504 866.182 554.084 866.182 554.82V554.916C866.182 555.652 866.346 556.232 866.674 556.656C867.002 557.072 867.482 557.28 868.114 557.28ZM873.889 555.576C873.817 556.44 873.665 557.072 873.433 557.472C873.201 557.864 872.837 558.06 872.341 558.06C872.237 558.06 872.129 558.052 872.017 558.036L871.921 558V557.052L872.005 557.076C872.085 557.092 872.169 557.1 872.257 557.1C872.385 557.1 872.489 557.064 872.569 556.992C872.657 556.912 872.725 556.788 872.773 556.62C872.829 556.452 872.869 556.296 872.893 556.152C872.917 556 872.945 555.788 872.977 555.516C873.009 555.228 873.057 554.412 873.121 553.068L873.157 551.724H877.297V558H876.301V552.564H874.045C873.973 554.292 873.921 555.296 873.889 555.576ZM879.431 551.724H880.427V553.92H881.543C882.247 553.92 882.823 554.092 883.271 554.436C883.719 554.78 883.943 555.292 883.943 555.972V556.008C883.943 556.696 883.719 557.2 883.271 557.52C882.831 557.84 882.255 558 881.543 558H879.431V551.724ZM881.603 557.22C882.083 557.22 882.427 557.12 882.635 556.92C882.843 556.712 882.947 556.408 882.947 556.008V555.972C882.947 555.54 882.839 555.224 882.623 555.024C882.415 554.816 882.075 554.712 881.603 554.712H880.427V557.22H881.603Z" fill="white"/>
<path d="M855.35 578.553L859.326 574.367C860.287 573.35 860.768 572.384 860.768 571.469C860.768 570.909 860.609 570.47 860.292 570.153C859.984 569.836 859.545 569.677 858.976 569.677C857.763 569.677 857.058 570.419 856.862 571.903H855.728C855.803 570.914 856.125 570.134 856.694 569.565C857.273 568.986 858.033 568.697 858.976 568.697C859.9 568.697 860.633 568.954 861.174 569.467C861.725 569.971 862 570.652 862 571.511C862 572.612 861.328 573.826 859.984 575.151L857.226 577.839H862.056V578.833H855.35V578.553ZM867.901 577.951C869.665 577.951 870.547 576.658 870.547 574.073V573.513C870.547 572.346 870.309 571.418 869.833 570.727C869.357 570.027 868.704 569.677 867.873 569.677C867.024 569.677 866.361 570.013 865.885 570.685C865.409 571.357 865.171 572.309 865.171 573.541V574.101C865.171 575.342 865.414 576.294 865.899 576.957C866.385 577.62 867.052 577.951 867.901 577.951ZM867.901 578.959C866.707 578.959 865.745 578.516 865.017 577.629C864.289 576.742 863.925 575.571 863.925 574.115V573.555C863.925 572.071 864.275 570.89 864.975 570.013C865.685 569.136 866.651 568.697 867.873 568.697C869.087 568.697 870.039 569.14 870.729 570.027C871.429 570.914 871.779 572.08 871.779 573.527V574.087C871.779 575.562 871.434 576.742 870.743 577.629C870.062 578.516 869.115 578.959 867.901 578.959ZM873.198 578.553L877.174 574.367C878.136 573.35 878.616 572.384 878.616 571.469C878.616 570.909 878.458 570.47 878.14 570.153C877.832 569.836 877.394 569.677 876.824 569.677C875.611 569.677 874.906 570.419 874.71 571.903H873.576C873.651 570.914 873.973 570.134 874.542 569.565C875.121 568.986 875.882 568.697 876.824 568.697C877.748 568.697 878.481 568.954 879.022 569.467C879.573 569.971 879.848 570.652 879.848 571.511C879.848 572.612 879.176 573.826 877.832 575.151L875.074 577.839H879.904V578.833H873.198V578.553ZM885.75 577.951C887.514 577.951 888.396 576.658 888.396 574.073V573.513C888.396 572.346 888.158 571.418 887.682 570.727C887.206 570.027 886.552 569.677 885.722 569.677C884.872 569.677 884.21 570.013 883.734 570.685C883.258 571.357 883.02 572.309 883.02 573.541V574.101C883.02 575.342 883.262 576.294 883.748 576.957C884.233 577.62 884.9 577.951 885.75 577.951ZM885.75 578.959C884.555 578.959 883.594 578.516 882.866 577.629C882.138 576.742 881.774 575.571 881.774 574.115V573.555C881.774 572.071 882.124 570.89 882.824 570.013C883.533 569.136 884.499 568.697 885.722 568.697C886.935 568.697 887.887 569.14 888.578 570.027C889.278 570.914 889.628 572.08 889.628 573.527V574.087C889.628 575.562 889.282 576.742 888.592 577.629C887.91 578.516 886.963 578.959 885.75 578.959Z" fill="white"/>
<path opacity="0.6" d="M5.412 449.383H3.384V454.819H2.388V449.383H0.36V448.543H5.412V449.383ZM12.3053 448.543H13.3013V454.819H12.3053V448.543ZM6.90534 448.543H7.90134V450.739H9.01734C9.72934 450.739 10.3053 450.899 10.7453 451.219C11.1933 451.539 11.4173 452.043 11.4173 452.731V452.767C11.4173 453.447 11.1933 453.959 10.7453 454.303C10.2973 454.647 9.72134 454.819 9.01734 454.819H6.90534V448.543ZM9.07734 454.027C9.54934 454.027 9.88934 453.927 10.0973 453.727C10.3133 453.519 10.4213 453.199 10.4213 452.767V452.731C10.4213 452.331 10.3173 452.031 10.1093 451.831C9.90134 451.623 9.55734 451.519 9.07734 451.519H7.90134V454.027H9.07734ZM18.1154 454.927C17.2194 454.927 16.4834 454.639 15.9074 454.063C15.3314 453.479 15.0434 452.707 15.0434 451.747V451.651C15.0434 450.707 15.3354 449.935 15.9194 449.335C16.5114 448.735 17.2354 448.435 18.0914 448.435C18.8114 448.435 19.4234 448.615 19.9274 448.975C20.4314 449.327 20.7274 449.879 20.8154 450.631H19.8314C19.6874 449.719 19.1074 449.263 18.0914 449.263C17.5074 449.263 17.0234 449.483 16.6394 449.923C16.2634 450.355 16.0754 450.931 16.0754 451.651V451.747C16.0754 452.499 16.2594 453.079 16.6274 453.487C17.0034 453.895 17.5034 454.099 18.1274 454.099C18.5994 454.099 19.0034 453.967 19.3394 453.703C19.6834 453.431 19.8794 453.051 19.9274 452.563H20.8514C20.7874 453.251 20.4994 453.819 19.9874 454.267C19.4834 454.707 18.8594 454.927 18.1154 454.927ZM25.7709 448.543H26.7669V449.599C26.9509 449.279 27.2389 449.007 27.6309 448.783C28.0229 448.551 28.4429 448.435 28.8909 448.435C29.7309 448.435 30.4149 448.719 30.9429 449.287C31.4789 449.855 31.7469 450.623 31.7469 451.591V451.687C31.7469 452.655 31.4829 453.439 30.9549 454.039C30.4349 454.631 29.7469 454.927 28.8909 454.927C27.9309 454.927 27.2229 454.547 26.7669 453.787V457.003H25.7709V448.543ZM28.7949 454.099C29.4189 454.099 29.8949 453.899 30.2229 453.499C30.5509 453.091 30.7149 452.503 30.7149 451.735V451.639C30.7149 450.879 30.5309 450.295 30.1629 449.887C29.8029 449.471 29.3429 449.263 28.7829 449.263C28.1749 449.263 27.6789 449.467 27.2949 449.875C26.9189 450.275 26.7309 450.863 26.7309 451.639V451.735C26.7309 452.511 26.9149 453.099 27.2829 453.499C27.6589 453.899 28.1629 454.099 28.7949 454.099ZM35.0492 454.171L32.5892 448.543H33.6572L35.5772 453.043L37.3172 448.543H38.3372L34.8692 457.003H33.8612L35.0492 454.171ZM42.3968 454.927C41.4528 454.927 40.7048 454.623 40.1528 454.015C39.6008 453.407 39.3248 452.483 39.3248 451.243V450.859C39.3248 450.267 39.3488 449.743 39.3968 449.287C39.4448 448.823 39.5448 448.359 39.6968 447.895C39.8488 447.423 40.0488 447.031 40.2968 446.719C40.5448 446.407 40.8808 446.147 41.3048 445.939C41.7368 445.731 42.2448 445.611 42.8288 445.579L43.0688 445.567C43.9488 445.519 44.5448 445.431 44.8568 445.303L44.9888 446.143C44.5808 446.319 43.9448 446.427 43.0808 446.467L42.9008 446.479C41.9328 446.527 41.2408 446.843 40.8248 447.427C40.4168 448.003 40.1768 448.899 40.1048 450.115H40.1528C40.3688 449.675 40.6888 449.327 41.1128 449.071C41.5448 448.807 42.0448 448.675 42.6128 448.675C43.4848 448.675 44.1808 448.959 44.7008 449.527C45.2288 450.087 45.4928 450.815 45.4928 451.711V451.759C45.4928 452.727 45.2008 453.499 44.6168 454.075C44.0408 454.643 43.3008 454.927 42.3968 454.927ZM40.8968 453.487C41.2648 453.895 41.7688 454.099 42.4088 454.099C43.0488 454.099 43.5488 453.899 43.9088 453.499C44.2768 453.091 44.4608 452.515 44.4608 451.771V451.747C44.4608 451.051 44.2928 450.503 43.9568 450.103C43.6288 449.703 43.1488 449.503 42.5168 449.503C41.8528 449.503 41.3248 449.711 40.9328 450.127C40.5488 450.543 40.3568 451.111 40.3568 451.831V451.855C40.3568 452.535 40.5368 453.079 40.8968 453.487Z" fill="white"/>
<path d="M22.1545 431.359H16.4265V430.911L21.6585 422.319H23.5145V430.223H25.0985V431.359H23.5145V433.759H22.1545V431.359ZM22.1545 430.223V423.375L18.1865 430.223H22.1545ZM26.329 433.439L30.873 428.655C31.9717 427.492 32.521 426.388 32.521 425.343C32.521 424.703 32.3397 424.201 31.977 423.839C31.625 423.476 31.1237 423.295 30.473 423.295C29.0864 423.295 28.281 424.143 28.057 425.839H26.761C26.8464 424.708 27.2144 423.817 27.865 423.167C28.5264 422.505 29.3957 422.175 30.473 422.175C31.529 422.175 32.3664 422.468 32.985 423.055C33.6144 423.631 33.929 424.409 33.929 425.391C33.929 426.649 33.161 428.036 31.625 429.551L28.473 432.623H33.993V433.759H26.329V433.439ZM40.6734 432.751C42.6894 432.751 43.6974 431.273 43.6974 428.319V427.679C43.6974 426.345 43.4254 425.284 42.8814 424.495C42.3374 423.695 41.5908 423.295 40.6414 423.295C39.6708 423.295 38.9134 423.679 38.3694 424.447C37.8254 425.215 37.5534 426.303 37.5534 427.711V428.351C37.5534 429.769 37.8308 430.857 38.3854 431.615C38.9401 432.372 39.7028 432.751 40.6734 432.751ZM40.6734 433.903C39.3081 433.903 38.2094 433.396 37.3774 432.383C36.5454 431.369 36.1294 430.031 36.1294 428.367V427.727C36.1294 426.031 36.5294 424.681 37.3294 423.679C38.1401 422.676 39.2441 422.175 40.6414 422.175C42.0281 422.175 43.1161 422.681 43.9054 423.695C44.7054 424.708 45.1054 426.041 45.1054 427.695V428.335C45.1054 430.02 44.7108 431.369 43.9214 432.383C43.1428 433.396 42.0601 433.903 40.6734 433.903Z" fill="white"/>
<path opacity="0.6" d="M5.412 378.058H3.384V383.494H2.388V378.058H0.36V377.218H5.412V378.058ZM12.3053 377.218H13.3013V383.494H12.3053V377.218ZM6.90534 377.218H7.90134V379.414H9.01734C9.72934 379.414 10.3053 379.574 10.7453 379.894C11.1933 380.214 11.4173 380.718 11.4173 381.406V381.442C11.4173 382.122 11.1933 382.634 10.7453 382.978C10.2973 383.322 9.72134 383.494 9.01734 383.494H6.90534V377.218ZM9.07734 382.702C9.54934 382.702 9.88934 382.602 10.0973 382.402C10.3133 382.194 10.4213 381.874 10.4213 381.442V381.406C10.4213 381.006 10.3173 380.706 10.1093 380.506C9.90134 380.298 9.55734 380.194 9.07734 380.194H7.90134V382.702H9.07734ZM18.1154 383.602C17.2194 383.602 16.4834 383.314 15.9074 382.738C15.3314 382.154 15.0434 381.382 15.0434 380.422V380.326C15.0434 379.382 15.3354 378.61 15.9194 378.01C16.5114 377.41 17.2354 377.11 18.0914 377.11C18.8114 377.11 19.4234 377.29 19.9274 377.65C20.4314 378.002 20.7274 378.554 20.8154 379.306H19.8314C19.6874 378.394 19.1074 377.938 18.0914 377.938C17.5074 377.938 17.0234 378.158 16.6394 378.598C16.2634 379.03 16.0754 379.606 16.0754 380.326V380.422C16.0754 381.174 16.2594 381.754 16.6274 382.162C17.0034 382.57 17.5034 382.774 18.1274 382.774C18.5994 382.774 19.0034 382.642 19.3394 382.378C19.6834 382.106 19.8794 381.726 19.9274 381.238H20.8514C20.7874 381.926 20.4994 382.494 19.9874 382.942C19.4834 383.382 18.8594 383.602 18.1154 383.602ZM25.7709 377.218H26.7669V378.274C26.9509 377.954 27.2389 377.682 27.6309 377.458C28.0229 377.226 28.4429 377.11 28.8909 377.11C29.7309 377.11 30.4149 377.394 30.9429 377.962C31.4789 378.53 31.7469 379.298 31.7469 380.266V380.362C31.7469 381.33 31.4829 382.114 30.9549 382.714C30.4349 383.306 29.7469 383.602 28.8909 383.602C27.9309 383.602 27.2229 383.222 26.7669 382.462V385.678H25.7709V377.218ZM28.7949 382.774C29.4189 382.774 29.8949 382.574 30.2229 382.174C30.5509 381.766 30.7149 381.178 30.7149 380.41V380.314C30.7149 379.554 30.5309 378.97 30.1629 378.562C29.8029 378.146 29.3429 377.938 28.7829 377.938C28.1749 377.938 27.6789 378.142 27.2949 378.55C26.9189 378.95 26.7309 379.538 26.7309 380.314V380.41C26.7309 381.186 26.9149 381.774 27.2829 382.174C27.6589 382.574 28.1629 382.774 28.7949 382.774ZM35.0492 382.846L32.5892 377.218H33.6572L35.5772 381.718L37.3172 377.218H38.3372L34.8692 385.678H33.8612L35.0492 382.846ZM42.3968 383.602C41.4528 383.602 40.7048 383.298 40.1528 382.69C39.6008 382.082 39.3248 381.158 39.3248 379.918V379.534C39.3248 378.942 39.3488 378.418 39.3968 377.962C39.4448 377.498 39.5448 377.034 39.6968 376.57C39.8488 376.098 40.0488 375.706 40.2968 375.394C40.5448 375.082 40.8808 374.822 41.3048 374.614C41.7368 374.406 42.2448 374.286 42.8288 374.254L43.0688 374.242C43.9488 374.194 44.5448 374.106 44.8568 373.978L44.9888 374.818C44.5808 374.994 43.9448 375.102 43.0808 375.142L42.9008 375.154C41.9328 375.202 41.2408 375.518 40.8248 376.102C40.4168 376.678 40.1768 377.574 40.1048 378.79H40.1528C40.3688 378.35 40.6888 378.002 41.1128 377.746C41.5448 377.482 42.0448 377.35 42.6128 377.35C43.4848 377.35 44.1808 377.634 44.7008 378.202C45.2288 378.762 45.4928 379.49 45.4928 380.386V380.434C45.4928 381.402 45.2008 382.174 44.6168 382.75C44.0408 383.318 43.3008 383.602 42.3968 383.602ZM40.8968 382.162C41.2648 382.57 41.7688 382.774 42.4088 382.774C43.0488 382.774 43.5488 382.574 43.9088 382.174C44.2768 381.766 44.4608 381.19 44.4608 380.446V380.422C44.4608 379.726 44.2928 379.178 43.9568 378.778C43.6288 378.378 43.1488 378.178 42.5168 378.178C41.8528 378.178 41.3248 378.386 40.9328 378.802C40.5488 379.218 40.3568 379.786 40.3568 380.506V380.53C40.3568 381.21 40.5368 381.754 40.8968 382.162Z" fill="white"/>
<path d="M24.2488 360.034H18.5208V359.586L23.7528 350.994H25.6088V358.898H27.1928V360.034H25.6088V362.434H24.2488V360.034ZM24.2488 358.898V352.05L20.2808 358.898H24.2488ZM34.4713 360.034H28.7433V359.586L33.9753 350.994H35.8313V358.898H37.4153V360.034H35.8313V362.434H34.4713V360.034ZM34.4713 358.898V352.05L30.5033 358.898H34.4713ZM43.7677 361.426C45.7837 361.426 46.7917 359.948 46.7917 356.994V356.354C46.7917 355.02 46.5197 353.959 45.9757 353.17C45.4317 352.37 44.685 351.97 43.7357 351.97C42.765 351.97 42.0077 352.354 41.4637 353.122C40.9197 353.89 40.6477 354.978 40.6477 356.386V357.026C40.6477 358.444 40.925 359.532 41.4797 360.29C42.0343 361.047 42.797 361.426 43.7677 361.426ZM43.7677 362.578C42.4023 362.578 41.3037 362.071 40.4717 361.058C39.6397 360.044 39.2237 358.706 39.2237 357.042V356.402C39.2237 354.706 39.6237 353.356 40.4237 352.354C41.2343 351.351 42.3383 350.85 43.7357 350.85C45.1223 350.85 46.2103 351.356 46.9997 352.37C47.7997 353.383 48.1997 354.716 48.1997 356.37V357.01C48.1997 358.695 47.805 360.044 47.0157 361.058C46.237 362.071 45.1543 362.578 43.7677 362.578Z" fill="white"/>
<circle cx="329.5" cy="231.5" r="5.5" fill="#F1D5C0"/>
<circle cx="230.5" cy="367.5" r="5.5" fill="#F1D5C0"/>
<circle cx="135.5" cy="473.5" r="5.5" fill="#F1D5C0"/>
<circle cx="425.5" cy="97.5" r="5.5" fill="#F1D5C0"/>
<circle cx="839.5" cy="67.5" r="5.5" fill="#F1D5C0"/>
<circle cx="732.5" cy="67.5" r="5.5" fill="#F1D5C0"/>
<circle cx="629.5" cy="67.5" r="5.5" fill="#F1D5C0"/>
<circle cx="526.5" cy="67.5" r="5.5" fill="#F1D5C0"/>
<path opacity="0.6" d="M5.412 164.083H3.384V169.519H2.388V164.083H0.36V163.243H5.412V164.083ZM12.3053 163.243H13.3013V169.519H12.3053V163.243ZM6.90534 163.243H7.90134V165.439H9.01734C9.72934 165.439 10.3053 165.599 10.7453 165.919C11.1933 166.239 11.4173 166.743 11.4173 167.431V167.467C11.4173 168.147 11.1933 168.659 10.7453 169.003C10.2973 169.347 9.72134 169.519 9.01734 169.519H6.90534V163.243ZM9.07734 168.727C9.54934 168.727 9.88934 168.627 10.0973 168.427C10.3133 168.219 10.4213 167.899 10.4213 167.467V167.431C10.4213 167.031 10.3173 166.731 10.1093 166.531C9.90134 166.323 9.55734 166.219 9.07734 166.219H7.90134V168.727H9.07734ZM18.1154 169.627C17.2194 169.627 16.4834 169.339 15.9074 168.763C15.3314 168.179 15.0434 167.407 15.0434 166.447V166.351C15.0434 165.407 15.3354 164.635 15.9194 164.035C16.5114 163.435 17.2354 163.135 18.0914 163.135C18.8114 163.135 19.4234 163.315 19.9274 163.675C20.4314 164.027 20.7274 164.579 20.8154 165.331H19.8314C19.6874 164.419 19.1074 163.963 18.0914 163.963C17.5074 163.963 17.0234 164.183 16.6394 164.623C16.2634 165.055 16.0754 165.631 16.0754 166.351V166.447C16.0754 167.199 16.2594 167.779 16.6274 168.187C17.0034 168.595 17.5034 168.799 18.1274 168.799C18.5994 168.799 19.0034 168.667 19.3394 168.403C19.6834 168.131 19.8794 167.751 19.9274 167.263H20.8514C20.7874 167.951 20.4994 168.519 19.9874 168.967C19.4834 169.407 18.8594 169.627 18.1154 169.627ZM25.7709 163.243H26.7669V164.299C26.9509 163.979 27.2389 163.707 27.6309 163.483C28.0229 163.251 28.4429 163.135 28.8909 163.135C29.7309 163.135 30.4149 163.419 30.9429 163.987C31.4789 164.555 31.7469 165.323 31.7469 166.291V166.387C31.7469 167.355 31.4829 168.139 30.9549 168.739C30.4349 169.331 29.7469 169.627 28.8909 169.627C27.9309 169.627 27.2229 169.247 26.7669 168.487V171.703H25.7709V163.243ZM28.7949 168.799C29.4189 168.799 29.8949 168.599 30.2229 168.199C30.5509 167.791 30.7149 167.203 30.7149 166.435V166.339C30.7149 165.579 30.5309 164.995 30.1629 164.587C29.8029 164.171 29.3429 163.963 28.7829 163.963C28.1749 163.963 27.6789 164.167 27.2949 164.575C26.9189 164.975 26.7309 165.563 26.7309 166.339V166.435C26.7309 167.211 26.9149 167.799 27.2829 168.199C27.6589 168.599 28.1629 168.799 28.7949 168.799ZM35.0492 168.871L32.5892 163.243H33.6572L35.5772 167.743L37.3172 163.243H38.3372L34.8692 171.703H33.8612L35.0492 168.871ZM42.3968 169.627C41.4528 169.627 40.7048 169.323 40.1528 168.715C39.6008 168.107 39.3248 167.183 39.3248 165.943V165.559C39.3248 164.967 39.3488 164.443 39.3968 163.987C39.4448 163.523 39.5448 163.059 39.6968 162.595C39.8488 162.123 40.0488 161.731 40.2968 161.419C40.5448 161.107 40.8808 160.847 41.3048 160.639C41.7368 160.431 42.2448 160.311 42.8288 160.279L43.0688 160.267C43.9488 160.219 44.5448 160.131 44.8568 160.003L44.9888 160.843C44.5808 161.019 43.9448 161.127 43.0808 161.167L42.9008 161.179C41.9328 161.227 41.2408 161.543 40.8248 162.127C40.4168 162.703 40.1768 163.599 40.1048 164.815H40.1528C40.3688 164.375 40.6888 164.027 41.1128 163.771C41.5448 163.507 42.0448 163.375 42.6128 163.375C43.4848 163.375 44.1808 163.659 44.7008 164.227C45.2288 164.787 45.4928 165.515 45.4928 166.411V166.459C45.4928 167.427 45.2008 168.199 44.6168 168.775C44.0408 169.343 43.3008 169.627 42.3968 169.627ZM40.8968 168.187C41.2648 168.595 41.7688 168.799 42.4088 168.799C43.0488 168.799 43.5488 168.599 43.9088 168.199C44.2768 167.791 44.4608 167.215 44.4608 166.471V166.447C44.4608 165.751 44.2928 165.203 43.9568 164.803C43.6288 164.403 43.1488 164.203 42.5168 164.203C41.8528 164.203 41.3248 164.411 40.9328 164.827C40.5488 165.243 40.3568 165.811 40.3568 166.531V166.555C40.3568 167.235 40.5368 167.779 40.8968 168.187Z" fill="white"/>
<path d="M19.2517 151.457C18.0677 151.457 17.161 151.169 16.5317 150.593C15.9023 150.007 15.5397 149.217 15.4437 148.225H16.7717C16.8997 148.919 17.1397 149.447 17.4917 149.809C17.8437 150.161 18.425 150.337 19.2357 150.337C20.0143 150.337 20.6277 150.092 21.0757 149.601C21.5237 149.111 21.7477 148.433 21.7477 147.569C21.7477 146.759 21.529 146.113 21.0917 145.633C20.665 145.143 20.0837 144.897 19.3477 144.897C18.7077 144.897 18.1797 144.988 17.7637 145.169C17.3477 145.351 16.9743 145.628 16.6437 146.001H16.1317V139.873H22.5637V141.073H17.2837V144.561C17.849 144.039 18.6277 143.777 19.6197 143.777C20.665 143.777 21.5183 144.124 22.1797 144.817C22.841 145.5 23.1717 146.417 23.1717 147.569C23.1717 148.753 22.7983 149.697 22.0517 150.401C21.305 151.105 20.3717 151.457 19.2517 151.457ZM29.9197 150.305C31.9357 150.305 32.9437 148.828 32.9437 145.873V145.233C32.9437 143.9 32.6717 142.839 32.1277 142.049C31.5837 141.249 30.837 140.849 29.8877 140.849C28.917 140.849 28.1597 141.233 27.6157 142.001C27.0717 142.769 26.7997 143.857 26.7997 145.265V145.905C26.7997 147.324 27.077 148.412 27.6317 149.169C28.1863 149.927 28.949 150.305 29.9197 150.305ZM29.9197 151.457C28.5543 151.457 27.4557 150.951 26.6237 149.937C25.7917 148.924 25.3757 147.585 25.3757 145.921V145.281C25.3757 143.585 25.7757 142.236 26.5757 141.233C27.3863 140.231 28.4903 139.729 29.8877 139.729C31.2743 139.729 32.3623 140.236 33.1517 141.249C33.9517 142.263 34.3517 143.596 34.3517 145.249V145.889C34.3517 147.575 33.957 148.924 33.1677 149.937C32.389 150.951 31.3063 151.457 29.9197 151.457ZM41.1734 150.305C43.1894 150.305 44.1974 148.828 44.1974 145.873V145.233C44.1974 143.9 43.9254 142.839 43.3814 142.049C42.8374 141.249 42.0908 140.849 41.1414 140.849C40.1708 140.849 39.4134 141.233 38.8694 142.001C38.3254 142.769 38.0534 143.857 38.0534 145.265V145.905C38.0534 147.324 38.3308 148.412 38.8854 149.169C39.4401 149.927 40.2028 150.305 41.1734 150.305ZM41.1734 151.457C39.8081 151.457 38.7094 150.951 37.8774 149.937C37.0454 148.924 36.6294 147.585 36.6294 145.921V145.281C36.6294 143.585 37.0294 142.236 37.8294 141.233C38.6401 140.231 39.7441 139.729 41.1414 139.729C42.5281 139.729 43.6161 140.236 44.4054 141.249C45.2054 142.263 45.6054 143.596 45.6054 145.249V145.889C45.6054 147.575 45.2108 148.924 44.4214 149.937C43.6428 150.951 42.5601 151.457 41.1734 151.457Z" fill="white"/>
<path opacity="0.6" d="M5.412 96.6119H3.384V102.048H2.388V96.6119H0.36V95.7719H5.412V96.6119ZM12.3053 95.7719H13.3013V102.048H12.3053V95.7719ZM6.90534 95.7719H7.90134V97.9679H9.01734C9.72934 97.9679 10.3053 98.1279 10.7453 98.4479C11.1933 98.7679 11.4173 99.2719 11.4173 99.9599V99.9959C11.4173 100.676 11.1933 101.188 10.7453 101.532C10.2973 101.876 9.72134 102.048 9.01734 102.048H6.90534V95.7719ZM9.07734 101.256C9.54934 101.256 9.88934 101.156 10.0973 100.956C10.3133 100.748 10.4213 100.428 10.4213 99.9959V99.9599C10.4213 99.5599 10.3173 99.2599 10.1093 99.0599C9.90134 98.8519 9.55734 98.7479 9.07734 98.7479H7.90134V101.256H9.07734ZM18.1154 102.156C17.2194 102.156 16.4834 101.868 15.9074 101.292C15.3314 100.708 15.0434 99.9359 15.0434 98.9759V98.8799C15.0434 97.9359 15.3354 97.1639 15.9194 96.5639C16.5114 95.9639 17.2354 95.6639 18.0914 95.6639C18.8114 95.6639 19.4234 95.8439 19.9274 96.2039C20.4314 96.5559 20.7274 97.1079 20.8154 97.8599H19.8314C19.6874 96.9479 19.1074 96.4919 18.0914 96.4919C17.5074 96.4919 17.0234 96.7119 16.6394 97.1519C16.2634 97.5839 16.0754 98.1599 16.0754 98.8799V98.9759C16.0754 99.7279 16.2594 100.308 16.6274 100.716C17.0034 101.124 17.5034 101.328 18.1274 101.328C18.5994 101.328 19.0034 101.196 19.3394 100.932C19.6834 100.66 19.8794 100.28 19.9274 99.7919H20.8514C20.7874 100.48 20.4994 101.048 19.9874 101.496C19.4834 101.936 18.8594 102.156 18.1154 102.156ZM25.7709 95.7719H26.7669V96.8279C26.9509 96.5079 27.2389 96.2359 27.6309 96.0119C28.0229 95.7799 28.4429 95.6639 28.8909 95.6639C29.7309 95.6639 30.4149 95.9479 30.9429 96.5159C31.4789 97.0839 31.7469 97.8519 31.7469 98.8199V98.9159C31.7469 99.8839 31.4829 100.668 30.9549 101.268C30.4349 101.86 29.7469 102.156 28.8909 102.156C27.9309 102.156 27.2229 101.776 26.7669 101.016V104.232H25.7709V95.7719ZM28.7949 101.328C29.4189 101.328 29.8949 101.128 30.2229 100.728C30.5509 100.32 30.7149 99.7319 30.7149 98.9639V98.8679C30.7149 98.1079 30.5309 97.5239 30.1629 97.1159C29.8029 96.6999 29.3429 96.4919 28.7829 96.4919C28.1749 96.4919 27.6789 96.6959 27.2949 97.1039C26.9189 97.5039 26.7309 98.0919 26.7309 98.8679V98.9639C26.7309 99.7399 26.9149 100.328 27.2829 100.728C27.6589 101.128 28.1629 101.328 28.7949 101.328ZM35.0492 101.4L32.5892 95.7719H33.6572L35.5772 100.272L37.3172 95.7719H38.3372L34.8692 104.232H33.8612L35.0492 101.4ZM42.3968 102.156C41.4528 102.156 40.7048 101.852 40.1528 101.244C39.6008 100.636 39.3248 99.7119 39.3248 98.4719V98.0879C39.3248 97.4959 39.3488 96.9719 39.3968 96.5159C39.4448 96.0519 39.5448 95.5879 39.6968 95.1239C39.8488 94.6519 40.0488 94.2599 40.2968 93.9479C40.5448 93.6359 40.8808 93.3759 41.3048 93.1679C41.7368 92.9599 42.2448 92.8399 42.8288 92.8079L43.0688 92.7959C43.9488 92.7479 44.5448 92.6599 44.8568 92.5319L44.9888 93.3719C44.5808 93.5479 43.9448 93.6559 43.0808 93.6959L42.9008 93.7079C41.9328 93.7559 41.2408 94.0719 40.8248 94.6559C40.4168 95.2319 40.1768 96.1279 40.1048 97.3439H40.1528C40.3688 96.9039 40.6888 96.5559 41.1128 96.2999C41.5448 96.0359 42.0448 95.9039 42.6128 95.9039C43.4848 95.9039 44.1808 96.1879 44.7008 96.7559C45.2288 97.3159 45.4928 98.0439 45.4928 98.9399V98.9879C45.4928 99.9559 45.2008 100.728 44.6168 101.304C44.0408 101.872 43.3008 102.156 42.3968 102.156ZM40.8968 100.716C41.2648 101.124 41.7688 101.328 42.4088 101.328C43.0488 101.328 43.5488 101.128 43.9088 100.728C44.2768 100.32 44.4608 99.7439 44.4608 98.9999V98.9759C44.4608 98.2799 44.2928 97.7319 43.9568 97.3319C43.6288 96.9319 43.1488 96.7319 42.5168 96.7319C41.8528 96.7319 41.3248 96.9399 40.9328 97.3559C40.5488 97.7719 40.3568 98.3399 40.3568 99.0599V99.0839C40.3568 99.7639 40.5368 100.308 40.8968 100.716Z" fill="white"/>
<path d="M19.2517 83.9878C18.0677 83.9878 17.161 83.6997 16.5317 83.1237C15.9023 82.5371 15.5397 81.7477 15.4437 80.7557H16.7717C16.8997 81.4491 17.1397 81.9771 17.4917 82.3397C17.8437 82.6917 18.425 82.8677 19.2357 82.8677C20.0143 82.8677 20.6277 82.6224 21.0757 82.1317C21.5237 81.6411 21.7477 80.9637 21.7477 80.0997C21.7477 79.2891 21.529 78.6437 21.0917 78.1637C20.665 77.6731 20.0837 77.4277 19.3477 77.4277C18.7077 77.4277 18.1797 77.5184 17.7637 77.6997C17.3477 77.8811 16.9743 78.1584 16.6437 78.5317H16.1317V72.4037H22.5637V73.6037H17.2837V77.0917C17.849 76.5691 18.6277 76.3077 19.6197 76.3077C20.665 76.3077 21.5183 76.6544 22.1797 77.3477C22.841 78.0304 23.1717 78.9477 23.1717 80.0997C23.1717 81.2837 22.7983 82.2277 22.0517 82.9317C21.305 83.6357 20.3717 83.9878 19.2517 83.9878ZM24.7978 83.5237L29.3418 78.7397C30.4405 77.5771 30.9898 76.4731 30.9898 75.4277C30.9898 74.7877 30.8085 74.2864 30.4458 73.9237C30.0938 73.5611 29.5925 73.3797 28.9418 73.3797C27.5551 73.3797 26.7498 74.2277 26.5258 75.9237H25.2298C25.3151 74.7931 25.6831 73.9024 26.3338 73.2517C26.9951 72.5904 27.8645 72.2597 28.9418 72.2597C29.9978 72.2597 30.8351 72.5531 31.4538 73.1397C32.0831 73.7157 32.3978 74.4944 32.3978 75.4757C32.3978 76.7344 31.6298 78.1211 30.0938 79.6357L26.9418 82.7077H32.4618V83.8438H24.7978V83.5237ZM39.1422 82.8357C41.1582 82.8357 42.1662 81.3584 42.1662 78.4037V77.7637C42.1662 76.4304 41.8942 75.3691 41.3502 74.5797C40.8062 73.7797 40.0595 73.3797 39.1102 73.3797C38.1395 73.3797 37.3822 73.7637 36.8382 74.5317C36.2942 75.2997 36.0222 76.3877 36.0222 77.7957V78.4357C36.0222 79.8544 36.2995 80.9424 36.8542 81.6997C37.4088 82.4571 38.1715 82.8357 39.1422 82.8357ZM39.1422 83.9878C37.7768 83.9878 36.6782 83.4811 35.8462 82.4677C35.0142 81.4544 34.5982 80.1157 34.5982 78.4517V77.8117C34.5982 76.1157 34.9982 74.7664 35.7982 73.7637C36.6088 72.7611 37.7128 72.2597 39.1102 72.2597C40.4968 72.2597 41.5848 72.7664 42.3742 73.7797C43.1742 74.7931 43.5742 76.1264 43.5742 77.7797V78.4197C43.5742 80.1051 43.1795 81.4544 42.3902 82.4677C41.6115 83.4811 40.5288 83.9878 39.1422 83.9878Z" fill="white"/>
<path opacity="0.6" d="M5.412 28.7681H3.384V34.2041H2.388V28.7681H0.36V27.9281H5.412V28.7681ZM12.3053 27.9281H13.3013V34.2041H12.3053V27.9281ZM6.90534 27.9281H7.90134V30.1241H9.01734C9.72934 30.1241 10.3053 30.2841 10.7453 30.6041C11.1933 30.9241 11.4173 31.4281 11.4173 32.1161V32.1521C11.4173 32.8321 11.1933 33.3441 10.7453 33.6881C10.2973 34.0321 9.72134 34.2041 9.01734 34.2041H6.90534V27.9281ZM9.07734 33.4121C9.54934 33.4121 9.88934 33.3121 10.0973 33.1121C10.3133 32.9041 10.4213 32.5841 10.4213 32.1521V32.1161C10.4213 31.7161 10.3173 31.4161 10.1093 31.2161C9.90134 31.0081 9.55734 30.9041 9.07734 30.9041H7.90134V33.4121H9.07734ZM18.1154 34.3121C17.2194 34.3121 16.4834 34.0241 15.9074 33.4481C15.3314 32.8641 15.0434 32.0921 15.0434 31.1321V31.0361C15.0434 30.0921 15.3354 29.3201 15.9194 28.7201C16.5114 28.1201 17.2354 27.8201 18.0914 27.8201C18.8114 27.8201 19.4234 28.0001 19.9274 28.3601C20.4314 28.7121 20.7274 29.2641 20.8154 30.0161H19.8314C19.6874 29.1041 19.1074 28.6481 18.0914 28.6481C17.5074 28.6481 17.0234 28.8681 16.6394 29.3081C16.2634 29.7401 16.0754 30.3161 16.0754 31.0361V31.1321C16.0754 31.8841 16.2594 32.4641 16.6274 32.8721C17.0034 33.2801 17.5034 33.4841 18.1274 33.4841C18.5994 33.4841 19.0034 33.3521 19.3394 33.0881C19.6834 32.8161 19.8794 32.4361 19.9274 31.9481H20.8514C20.7874 32.6361 20.4994 33.2041 19.9874 33.6521C19.4834 34.0921 18.8594 34.3121 18.1154 34.3121ZM25.7709 27.9281H26.7669V28.9841C26.9509 28.6641 27.2389 28.3921 27.6309 28.1681C28.0229 27.9361 28.4429 27.8201 28.8909 27.8201C29.7309 27.8201 30.4149 28.1041 30.9429 28.6721C31.4789 29.2401 31.7469 30.0081 31.7469 30.9761V31.0721C31.7469 32.0401 31.4829 32.8241 30.9549 33.4241C30.4349 34.0161 29.7469 34.3121 28.8909 34.3121C27.9309 34.3121 27.2229 33.9321 26.7669 33.1721V36.3881H25.7709V27.9281ZM28.7949 33.4841C29.4189 33.4841 29.8949 33.2841 30.2229 32.8841C30.5509 32.4761 30.7149 31.8881 30.7149 31.1201V31.0241C30.7149 30.2641 30.5309 29.6801 30.1629 29.2721C29.8029 28.8561 29.3429 28.6481 28.7829 28.6481C28.1749 28.6481 27.6789 28.8521 27.2949 29.2601C26.9189 29.6601 26.7309 30.2481 26.7309 31.0241V31.1201C26.7309 31.8961 26.9149 32.4841 27.2829 32.8841C27.6589 33.2841 28.1629 33.4841 28.7949 33.4841ZM35.0492 33.5561L32.5892 27.9281H33.6572L35.5772 32.4281L37.3172 27.9281H38.3372L34.8692 36.3881H33.8612L35.0492 33.5561ZM42.3968 34.3121C41.4528 34.3121 40.7048 34.0081 40.1528 33.4001C39.6008 32.7921 39.3248 31.8681 39.3248 30.6281V30.2441C39.3248 29.6521 39.3488 29.1281 39.3968 28.6721C39.4448 28.2081 39.5448 27.7441 39.6968 27.2801C39.8488 26.8081 40.0488 26.4161 40.2968 26.1041C40.5448 25.7921 40.8808 25.5321 41.3048 25.3241C41.7368 25.1161 42.2448 24.9961 42.8288 24.9641L43.0688 24.9521C43.9488 24.9041 44.5448 24.8161 44.8568 24.6881L44.9888 25.5281C44.5808 25.7041 43.9448 25.8121 43.0808 25.8521L42.9008 25.8641C41.9328 25.9121 41.2408 26.2281 40.8248 26.8121C40.4168 27.3881 40.1768 28.2841 40.1048 29.5001H40.1528C40.3688 29.0601 40.6888 28.7121 41.1128 28.4561C41.5448 28.1921 42.0448 28.0601 42.6128 28.0601C43.4848 28.0601 44.1808 28.3441 44.7008 28.9121C45.2288 29.4721 45.4928 30.2001 45.4928 31.0961V31.1441C45.4928 32.1121 45.2008 32.8841 44.6168 33.4601C44.0408 34.0281 43.3008 34.3121 42.3968 34.3121ZM40.8968 32.8721C41.2648 33.2801 41.7688 33.4841 42.4088 33.4841C43.0488 33.4841 43.5488 33.2841 43.9088 32.8841C44.2768 32.4761 44.4608 31.9001 44.4608 31.1561V31.1321C44.4608 30.4361 44.2928 29.8881 43.9568 29.4881C43.6288 29.0881 43.1488 28.8881 42.5168 28.8881C41.8528 28.8881 41.3248 29.0961 40.9328 29.5121C40.5488 29.9281 40.3568 30.4961 40.3568 31.2161V31.2401C40.3568 31.9201 40.5368 32.4641 40.8968 32.8721Z" fill="white"/>
<path d="M19.2517 16.144C18.0677 16.144 17.161 15.856 16.5317 15.28C15.9023 14.6933 15.5397 13.904 15.4437 12.912H16.7717C16.8997 13.6053 17.1397 14.1333 17.4917 14.496C17.8437 14.848 18.425 15.024 19.2357 15.024C20.0143 15.024 20.6277 14.7787 21.0757 14.288C21.5237 13.7973 21.7477 13.12 21.7477 12.256C21.7477 11.4453 21.529 10.8 21.0917 10.32C20.665 9.82933 20.0837 9.584 19.3477 9.584C18.7077 9.584 18.1797 9.67467 17.7637 9.856C17.3477 10.0373 16.9743 10.3147 16.6437 10.688H16.1317V4.56H22.5637V5.76H17.2837V9.248C17.849 8.72533 18.6277 8.464 19.6197 8.464C20.665 8.464 21.5183 8.81067 22.1797 9.504C22.841 10.1867 23.1717 11.104 23.1717 12.256C23.1717 13.44 22.7983 14.384 22.0517 15.088C21.305 15.792 20.3717 16.144 19.2517 16.144ZM30.6114 13.6H24.8834V13.152L30.1154 4.56H31.9714V12.464H33.5554V13.6H31.9714V16H30.6114V13.6ZM30.6114 12.464V5.616L26.6434 12.464H30.6114ZM39.9078 14.992C41.9238 14.992 42.9318 13.5147 42.9318 10.56V9.92C42.9318 8.58667 42.6598 7.52533 42.1158 6.736C41.5718 5.936 40.8251 5.536 39.8758 5.536C38.9051 5.536 38.1478 5.92 37.6038 6.688C37.0598 7.456 36.7878 8.544 36.7878 9.952V10.592C36.7878 12.0107 37.0651 13.0987 37.6198 13.856C38.1745 14.6133 38.9371 14.992 39.9078 14.992ZM39.9078 16.144C38.5425 16.144 37.4438 15.6373 36.6118 14.624C35.7798 13.6107 35.3638 12.272 35.3638 10.608V9.968C35.3638 8.272 35.7638 6.92267 36.5638 5.92C37.3745 4.91733 38.4785 4.416 39.8758 4.416C41.2625 4.416 42.3505 4.92267 43.1398 5.936C43.9398 6.94933 44.3398 8.28267 44.3398 9.936V10.576C44.3398 12.2613 43.9451 13.6107 43.1558 14.624C42.3771 15.6373 41.2945 16.144 39.9078 16.144Z" fill="white"/>
<rect opacity="0.3" x="231" y="368" width="1" height="211" fill="#F1D5C0"/>
<rect opacity="0.3" x="135" y="473" width="1" height="106" fill="#F1D5C0"/>
<rect opacity="0.3" width="1" height="347" transform="matrix(-1 0 0 1 330 232)" fill="#F1D5C0"/>
<rect opacity="0.3" x="425" y="101" width="1" height="478" fill="#F1D5C0"/>
<rect opacity="0.3" x="526" y="68" width="1" height="511" fill="#F1D5C0"/>
<rect opacity="0.3" x="629" y="68" width="1" height="511" fill="#F1D5C0"/>
<rect opacity="0.3" x="839" y="68" width="1" height="511" fill="#F1D5C0"/>
<rect opacity="0.3" x="732" y="68" width="1" height="511" fill="#F1D5C0"/>
<path d="M75 541L136.5 473.5L231.5 367.5L329.5 227.614L425.5 97.5L527 67.5H638H743.5H843.5H922.5" stroke="url(#paint0_radial)"/>
<defs>
<radialGradient id="paint0_radial" cx="0" cy="0" r="1" gradientUnits="userSpaceOnUse" gradientTransform="translate(468 207.5) rotate(53.8691) scale(325.627 507.771)">
<stop stop-color="#F1D5C0"/>
<stop offset="1" stop-color="#F1D5C0" stop-opacity="0"/>
</radialGradient>
</defs>
</svg>
