<svg width="591" height="381" viewBox="0 0 591 381" fill="none" xmlns="http://www.w3.org/2000/svg">
<path d="M16.8144 179.68L21.3584 174.896C22.457 173.733 23.0064 172.629 23.0064 171.584C23.0064 170.944 22.825 170.443 22.4624 170.08C22.1104 169.717 21.609 169.536 20.9584 169.536C19.5717 169.536 18.7664 170.384 18.5424 172.08H17.2464C17.3317 170.949 17.6997 170.059 18.3504 169.408C19.0117 168.747 19.881 168.416 20.9584 168.416C22.0144 168.416 22.8517 168.709 23.4704 169.296C24.0997 169.872 24.4144 170.651 24.4144 171.632C24.4144 172.891 23.6464 174.277 22.1104 175.792L18.9584 178.864H24.4784V180H16.8144V179.68ZM30.3729 180.128C29.3275 180.128 28.4902 179.872 27.8609 179.36C27.2315 178.848 26.8422 178.123 26.6929 177.184H28.0369C28.1755 177.781 28.4262 178.235 28.7889 178.544C29.1622 178.843 29.7009 178.992 30.4049 178.992C31.3329 178.992 32.0475 178.613 32.5489 177.856C33.0502 177.099 33.3115 175.963 33.3329 174.448C33.0449 174.928 32.6449 175.301 32.1329 175.568C31.6209 175.835 31.0342 175.968 30.3729 175.968C29.2635 175.968 28.3569 175.616 27.6529 174.912C26.9595 174.208 26.6129 173.312 26.6129 172.224C26.6129 171.072 26.9702 170.149 27.6849 169.456C28.3995 168.752 29.3595 168.4 30.5649 168.4C31.9195 168.4 32.9435 168.837 33.6369 169.712C34.3302 170.587 34.6769 171.856 34.6769 173.52V174.24C34.6769 176.149 34.3035 177.611 33.5569 178.624C32.8209 179.627 31.7595 180.128 30.3729 180.128ZM30.5809 174.88C31.3489 174.88 31.9782 174.651 32.4689 174.192C32.9595 173.733 33.2049 173.136 33.2049 172.4C33.2049 171.483 32.9595 170.768 32.4689 170.256C31.9889 169.744 31.3542 169.488 30.5649 169.488C29.8182 169.488 29.2102 169.733 28.7409 170.224C28.2715 170.715 28.0369 171.36 28.0369 172.16C28.0369 172.992 28.2662 173.653 28.7249 174.144C29.1835 174.635 29.8022 174.88 30.5809 174.88ZM41.5063 178.992C43.5223 178.992 44.5303 177.515 44.5303 174.56V173.92C44.5303 172.587 44.2583 171.525 43.7143 170.736C43.1703 169.936 42.4236 169.536 41.4743 169.536C40.5036 169.536 39.7463 169.92 39.2023 170.688C38.6583 171.456 38.3863 172.544 38.3863 173.952V174.592C38.3863 176.011 38.6636 177.099 39.2183 177.856C39.7729 178.613 40.5356 178.992 41.5063 178.992ZM41.5063 180.144C40.1409 180.144 39.0423 179.637 38.2103 178.624C37.3783 177.611 36.9622 176.272 36.9622 174.608V173.968C36.9622 172.272 37.3623 170.923 38.1623 169.92C38.9729 168.917 40.0769 168.416 41.4743 168.416C42.8609 168.416 43.9489 168.923 44.7383 169.936C45.5383 170.949 45.9383 172.283 45.9383 173.936V174.576C45.9383 176.261 45.5436 177.611 44.7543 178.624C43.9756 179.637 42.8929 180.144 41.5063 180.144Z" fill="white"/>
<path opacity="0.6" d="M6.37559 191.564H4.34759V197H3.35159V191.564H1.32359V190.724H6.37559V191.564ZM13.2689 190.724H14.2649V197H13.2689V190.724ZM7.86894 190.724H8.86494V192.92H9.98094C10.6929 192.92 11.2689 193.08 11.7089 193.4C12.1569 193.72 12.3809 194.224 12.3809 194.912V194.948C12.3809 195.628 12.1569 196.14 11.7089 196.484C11.2609 196.828 10.6849 197 9.98094 197H7.86894V190.724ZM10.0409 196.208C10.5129 196.208 10.8529 196.108 11.0609 195.908C11.2769 195.7 11.3849 195.38 11.3849 194.948V194.912C11.3849 194.512 11.2809 194.212 11.0729 194.012C10.8649 193.804 10.5209 193.7 10.0409 193.7H8.86494V196.208H10.0409ZM19.079 197.108C18.183 197.108 17.447 196.82 16.871 196.244C16.295 195.66 16.007 194.888 16.007 193.928V193.832C16.007 192.888 16.299 192.116 16.883 191.516C17.475 190.916 18.199 190.616 19.055 190.616C19.775 190.616 20.387 190.796 20.891 191.156C21.395 191.508 21.691 192.06 21.779 192.812H20.795C20.651 191.9 20.071 191.444 19.055 191.444C18.471 191.444 17.987 191.664 17.603 192.104C17.227 192.536 17.039 193.112 17.039 193.832V193.928C17.039 194.68 17.223 195.26 17.591 195.668C17.967 196.076 18.467 196.28 19.091 196.28C19.563 196.28 19.967 196.148 20.303 195.884C20.647 195.612 20.843 195.232 20.891 194.744H21.815C21.751 195.432 21.463 196 20.951 196.448C20.447 196.888 19.823 197.108 19.079 197.108ZM26.7345 190.724H27.7305V191.78C27.9145 191.46 28.2025 191.188 28.5945 190.964C28.9865 190.732 29.4065 190.616 29.8545 190.616C30.6945 190.616 31.3785 190.9 31.9065 191.468C32.4425 192.036 32.7105 192.804 32.7105 193.772V193.868C32.7105 194.836 32.4465 195.62 31.9185 196.22C31.3985 196.812 30.7105 197.108 29.8545 197.108C28.8945 197.108 28.1865 196.728 27.7305 195.968V199.184H26.7345V190.724ZM29.7585 196.28C30.3825 196.28 30.8585 196.08 31.1865 195.68C31.5145 195.272 31.6785 194.684 31.6785 193.916V193.82C31.6785 193.06 31.4945 192.476 31.1265 192.068C30.7665 191.652 30.3065 191.444 29.7465 191.444C29.1385 191.444 28.6425 191.648 28.2585 192.056C27.8825 192.456 27.6945 193.044 27.6945 193.82V193.916C27.6945 194.692 27.8785 195.28 28.2465 195.68C28.6225 196.08 29.1265 196.28 29.7585 196.28ZM36.0128 196.352L33.5528 190.724H34.6208L36.5408 195.224L38.2808 190.724H39.3008L35.8328 199.184H34.8248L36.0128 196.352ZM43.3603 197.108C42.4163 197.108 41.6683 196.804 41.1163 196.196C40.5643 195.588 40.2883 194.664 40.2883 193.424V193.04C40.2883 192.448 40.3123 191.924 40.3603 191.468C40.4083 191.004 40.5083 190.54 40.6603 190.076C40.8123 189.604 41.0123 189.212 41.2603 188.9C41.5083 188.588 41.8443 188.328 42.2683 188.12C42.7003 187.912 43.2083 187.792 43.7923 187.76L44.0323 187.748C44.9123 187.7 45.5083 187.612 45.8203 187.484L45.9523 188.324C45.5443 188.5 44.9083 188.608 44.0443 188.648L43.8643 188.66C42.8963 188.708 42.2043 189.024 41.7883 189.608C41.3803 190.184 41.1403 191.08 41.0683 192.296H41.1163C41.3323 191.856 41.6523 191.508 42.0763 191.252C42.5083 190.988 43.0083 190.856 43.5763 190.856C44.4483 190.856 45.1443 191.14 45.6643 191.708C46.1923 192.268 46.4563 192.996 46.4563 193.892V193.94C46.4563 194.908 46.1643 195.68 45.5803 196.256C45.0043 196.824 44.2643 197.108 43.3603 197.108ZM41.8603 195.668C42.2283 196.076 42.7323 196.28 43.3723 196.28C44.0123 196.28 44.5123 196.08 44.8723 195.68C45.2403 195.272 45.4243 194.696 45.4243 193.952V193.928C45.4243 193.232 45.2563 192.684 44.9203 192.284C44.5923 191.884 44.1123 191.684 43.4803 191.684C42.8163 191.684 42.2883 191.892 41.8963 192.308C41.5123 192.724 41.3203 193.292 41.3203 194.012V194.036C41.3203 194.716 41.5003 195.26 41.8603 195.668Z" fill="white"/>
<path d="M17.7263 130.333C16.5423 130.333 15.5876 130.003 14.8623 129.341C14.1476 128.68 13.7689 127.837 13.7263 126.813H15.0063C15.0703 127.539 15.3316 128.12 15.7903 128.557C16.2489 128.995 16.9049 129.213 17.7583 129.213C18.6329 129.213 19.2836 129.021 19.7103 128.637C20.1476 128.243 20.3663 127.699 20.3663 127.005C20.3663 125.523 19.5609 124.781 17.9503 124.781H17.0863V123.613H17.8863C19.3156 123.613 20.0303 122.963 20.0303 121.661C20.0303 121.096 19.8543 120.637 19.5023 120.285C19.1503 119.923 18.6329 119.741 17.9503 119.741C17.2463 119.741 16.6649 119.939 16.2063 120.333C15.7583 120.728 15.4969 121.251 15.4223 121.901H14.2063C14.2489 120.984 14.6169 120.205 15.3103 119.565C16.0036 118.925 16.8836 118.605 17.9503 118.605C18.9956 118.605 19.8276 118.904 20.4463 119.501C21.0756 120.088 21.3903 120.797 21.3903 121.629C21.3903 122.792 20.7876 123.624 19.5823 124.125C21.0543 124.531 21.7903 125.491 21.7903 127.005C21.7903 128.04 21.4116 128.856 20.6543 129.453C19.9076 130.04 18.9316 130.333 17.7263 130.333ZM28.6096 129.181C30.6256 129.181 31.6336 127.704 31.6336 124.749V124.109C31.6336 122.776 31.3616 121.715 30.8176 120.925C30.2736 120.125 29.527 119.725 28.5776 119.725C27.607 119.725 26.8496 120.109 26.3056 120.877C25.7616 121.645 25.4896 122.733 25.4896 124.141V124.781C25.4896 126.2 25.767 127.288 26.3216 128.045C26.8763 128.803 27.639 129.181 28.6096 129.181ZM28.6096 130.333C27.2443 130.333 26.1456 129.827 25.3136 128.813C24.4816 127.8 24.0656 126.461 24.0656 124.797V124.157C24.0656 122.461 24.4656 121.112 25.2656 120.109C26.0763 119.107 27.1803 118.605 28.5776 118.605C29.9643 118.605 31.0523 119.112 31.8416 120.125C32.6416 121.139 33.0416 122.472 33.0416 124.125V124.765C33.0416 126.451 32.647 127.8 31.8576 128.813C31.079 129.827 29.9963 130.333 28.6096 130.333ZM39.8634 129.181C41.8794 129.181 42.8874 127.704 42.8874 124.749V124.109C42.8874 122.776 42.6154 121.715 42.0714 120.925C41.5274 120.125 40.7807 119.725 39.8314 119.725C38.8607 119.725 38.1034 120.109 37.5594 120.877C37.0154 121.645 36.7434 122.733 36.7434 124.141V124.781C36.7434 126.2 37.0207 127.288 37.5754 128.045C38.1301 128.803 38.8927 129.181 39.8634 129.181ZM39.8634 130.333C38.4981 130.333 37.3994 129.827 36.5674 128.813C35.7354 127.8 35.3194 126.461 35.3194 124.797V124.157C35.3194 122.461 35.7194 121.112 36.5194 120.109C37.3301 119.107 38.4341 118.605 39.8314 118.605C41.2181 118.605 42.3061 119.112 43.0954 120.125C43.8954 121.139 44.2954 122.472 44.2954 124.125V124.765C44.2954 126.451 43.9007 127.8 43.1114 128.813C42.3327 129.827 41.2501 130.333 39.8634 130.333Z" fill="white"/>
<path opacity="0.6" d="M6.37559 142.12H4.34759V147.556H3.35159V142.12H1.32359V141.28H6.37559V142.12ZM13.2689 141.28H14.2649V147.556H13.2689V141.28ZM7.86894 141.28H8.86494V143.476H9.98094C10.6929 143.476 11.2689 143.636 11.7089 143.956C12.1569 144.276 12.3809 144.78 12.3809 145.468V145.504C12.3809 146.184 12.1569 146.696 11.7089 147.04C11.2609 147.384 10.6849 147.556 9.98094 147.556H7.86894V141.28ZM10.0409 146.764C10.5129 146.764 10.8529 146.664 11.0609 146.464C11.2769 146.256 11.3849 145.936 11.3849 145.504V145.468C11.3849 145.068 11.2809 144.768 11.0729 144.568C10.8649 144.36 10.5209 144.256 10.0409 144.256H8.86494V146.764H10.0409ZM19.079 147.664C18.183 147.664 17.447 147.376 16.871 146.8C16.295 146.216 16.007 145.444 16.007 144.484V144.388C16.007 143.444 16.299 142.672 16.883 142.072C17.475 141.472 18.199 141.172 19.055 141.172C19.775 141.172 20.387 141.352 20.891 141.712C21.395 142.064 21.691 142.616 21.779 143.368H20.795C20.651 142.456 20.071 142 19.055 142C18.471 142 17.987 142.22 17.603 142.66C17.227 143.092 17.039 143.668 17.039 144.388V144.484C17.039 145.236 17.223 145.816 17.591 146.224C17.967 146.632 18.467 146.836 19.091 146.836C19.563 146.836 19.967 146.704 20.303 146.44C20.647 146.168 20.843 145.788 20.891 145.3H21.815C21.751 145.988 21.463 146.556 20.951 147.004C20.447 147.444 19.823 147.664 19.079 147.664ZM26.7345 141.28H27.7305V142.336C27.9145 142.016 28.2025 141.744 28.5945 141.52C28.9865 141.288 29.4065 141.172 29.8545 141.172C30.6945 141.172 31.3785 141.456 31.9065 142.024C32.4425 142.592 32.7105 143.36 32.7105 144.328V144.424C32.7105 145.392 32.4465 146.176 31.9185 146.776C31.3985 147.368 30.7105 147.664 29.8545 147.664C28.8945 147.664 28.1865 147.284 27.7305 146.524V149.74H26.7345V141.28ZM29.7585 146.836C30.3825 146.836 30.8585 146.636 31.1865 146.236C31.5145 145.828 31.6785 145.24 31.6785 144.472V144.376C31.6785 143.616 31.4945 143.032 31.1265 142.624C30.7665 142.208 30.3065 142 29.7465 142C29.1385 142 28.6425 142.204 28.2585 142.612C27.8825 143.012 27.6945 143.6 27.6945 144.376V144.472C27.6945 145.248 27.8785 145.836 28.2465 146.236C28.6225 146.636 29.1265 146.836 29.7585 146.836ZM36.0128 146.908L33.5528 141.28H34.6208L36.5408 145.78L38.2808 141.28H39.3008L35.8328 149.74H34.8248L36.0128 146.908ZM43.3603 147.664C42.4163 147.664 41.6683 147.36 41.1163 146.752C40.5643 146.144 40.2883 145.22 40.2883 143.98V143.596C40.2883 143.004 40.3123 142.48 40.3603 142.024C40.4083 141.56 40.5083 141.096 40.6603 140.632C40.8123 140.16 41.0123 139.768 41.2603 139.456C41.5083 139.144 41.8443 138.884 42.2683 138.676C42.7003 138.468 43.2083 138.348 43.7923 138.316L44.0323 138.304C44.9123 138.256 45.5083 138.168 45.8203 138.04L45.9523 138.88C45.5443 139.056 44.9083 139.164 44.0443 139.204L43.8643 139.216C42.8963 139.264 42.2043 139.58 41.7883 140.164C41.3803 140.74 41.1403 141.636 41.0683 142.852H41.1163C41.3323 142.412 41.6523 142.064 42.0763 141.808C42.5083 141.544 43.0083 141.412 43.5763 141.412C44.4483 141.412 45.1443 141.696 45.6643 142.264C46.1923 142.824 46.4563 143.552 46.4563 144.448V144.496C46.4563 145.464 46.1643 146.236 45.5803 146.812C45.0043 147.38 44.2643 147.664 43.3603 147.664ZM41.8603 146.224C42.2283 146.632 42.7323 146.836 43.3723 146.836C44.0123 146.836 44.5123 146.636 44.8723 146.236C45.2403 145.828 45.4243 145.252 45.4243 144.508V144.484C45.4243 143.788 45.2563 143.24 44.9203 142.84C44.5923 142.44 44.1123 142.24 43.4803 142.24C42.8163 142.24 42.2883 142.448 41.8963 142.864C41.5123 143.28 41.3203 143.848 41.3203 144.568V144.592C41.3203 145.272 41.5003 145.816 41.8603 146.224Z" fill="white"/>
<path d="M14.1476 327.582L18.6916 322.798C19.7903 321.636 20.3396 320.532 20.3396 319.486C20.3396 318.846 20.1583 318.345 19.7956 317.982C19.4436 317.62 18.9423 317.438 18.2916 317.438C16.905 317.438 16.0996 318.286 15.8756 319.982H14.5796C14.665 318.852 15.033 317.961 15.6836 317.31C16.345 316.649 17.2143 316.318 18.2916 316.318C19.3476 316.318 20.185 316.612 20.8036 317.198C21.433 317.774 21.7476 318.553 21.7476 319.534C21.7476 320.793 20.9796 322.18 19.4436 323.694L16.2916 326.766H21.8116V327.902H14.1476V327.582ZM27.9819 328.046C25.2405 328.046 23.8699 326.313 23.8699 322.846V322.574C23.8699 320.569 24.2752 319.028 25.0859 317.95C25.9072 316.862 26.9952 316.318 28.3499 316.318C29.2672 316.318 30.0139 316.553 30.5899 317.022C31.1765 317.492 31.5445 318.18 31.6939 319.086H30.3659C30.2379 318.532 30.0085 318.121 29.6779 317.854C29.3472 317.588 28.8725 317.454 28.2539 317.454C27.3685 317.454 26.6539 317.849 26.1099 318.638C25.5659 319.428 25.2779 320.558 25.2459 322.03C25.8645 320.996 26.8459 320.478 28.1899 320.478C29.3099 320.478 30.2112 320.836 30.8939 321.55C31.5872 322.254 31.9339 323.145 31.9339 324.222C31.9339 325.374 31.5765 326.302 30.8619 327.006C30.1472 327.7 29.1872 328.046 27.9819 328.046ZM27.9819 326.958C28.7285 326.958 29.3365 326.713 29.8059 326.222C30.2752 325.732 30.5099 325.086 30.5099 324.286C30.5099 323.454 30.2805 322.793 29.8219 322.302C29.3632 321.812 28.7445 321.566 27.9659 321.566C27.1979 321.566 26.5685 321.801 26.0779 322.27C25.5872 322.74 25.3419 323.348 25.3419 324.094C25.3419 325.001 25.5819 325.705 26.0619 326.206C26.5525 326.708 27.1925 326.958 27.9819 326.958ZM38.5895 326.894C40.6055 326.894 41.6135 325.417 41.6135 322.462V321.822C41.6135 320.489 41.3415 319.428 40.7975 318.638C40.2535 317.838 39.5068 317.438 38.5575 317.438C37.5868 317.438 36.8295 317.822 36.2855 318.59C35.7415 319.358 35.4695 320.446 35.4695 321.854V322.494C35.4695 323.913 35.7468 325.001 36.3015 325.758C36.8562 326.516 37.6188 326.894 38.5895 326.894ZM38.5895 328.046C37.2242 328.046 36.1255 327.54 35.2935 326.526C34.4615 325.513 34.0455 324.174 34.0455 322.51V321.87C34.0455 320.174 34.4455 318.825 35.2455 317.822C36.0562 316.82 37.1602 316.318 38.5575 316.318C39.9442 316.318 41.0322 316.825 41.8215 317.838C42.6215 318.852 43.0215 320.185 43.0215 321.838V322.478C43.0215 324.164 42.6268 325.513 41.8375 326.526C41.0588 327.54 39.9762 328.046 38.5895 328.046Z" fill="white"/>
<path opacity="0.6" d="M6.37559 339.834H4.34759V345.27H3.35159V339.834H1.32359V338.994H6.37559V339.834ZM13.2689 338.994H14.2649V345.27H13.2689V338.994ZM7.86894 338.994H8.86494V341.19H9.98094C10.6929 341.19 11.2689 341.35 11.7089 341.67C12.1569 341.99 12.3809 342.494 12.3809 343.182V343.218C12.3809 343.898 12.1569 344.41 11.7089 344.754C11.2609 345.098 10.6849 345.27 9.98094 345.27H7.86894V338.994ZM10.0409 344.478C10.5129 344.478 10.8529 344.378 11.0609 344.178C11.2769 343.97 11.3849 343.65 11.3849 343.218V343.182C11.3849 342.782 11.2809 342.482 11.0729 342.282C10.8649 342.074 10.5209 341.97 10.0409 341.97H8.86494V344.478H10.0409ZM19.079 345.378C18.183 345.378 17.447 345.09 16.871 344.514C16.295 343.93 16.007 343.158 16.007 342.198V342.102C16.007 341.158 16.299 340.386 16.883 339.786C17.475 339.186 18.199 338.886 19.055 338.886C19.775 338.886 20.387 339.066 20.891 339.426C21.395 339.778 21.691 340.33 21.779 341.082H20.795C20.651 340.17 20.071 339.714 19.055 339.714C18.471 339.714 17.987 339.934 17.603 340.374C17.227 340.806 17.039 341.382 17.039 342.102V342.198C17.039 342.95 17.223 343.53 17.591 343.938C17.967 344.346 18.467 344.55 19.091 344.55C19.563 344.55 19.967 344.418 20.303 344.154C20.647 343.882 20.843 343.502 20.891 343.014H21.815C21.751 343.702 21.463 344.27 20.951 344.718C20.447 345.158 19.823 345.378 19.079 345.378ZM26.7345 338.994H27.7305V340.05C27.9145 339.73 28.2025 339.458 28.5945 339.234C28.9865 339.002 29.4065 338.886 29.8545 338.886C30.6945 338.886 31.3785 339.17 31.9065 339.738C32.4425 340.306 32.7105 341.074 32.7105 342.042V342.138C32.7105 343.106 32.4465 343.89 31.9185 344.49C31.3985 345.082 30.7105 345.378 29.8545 345.378C28.8945 345.378 28.1865 344.998 27.7305 344.238V347.454H26.7345V338.994ZM29.7585 344.55C30.3825 344.55 30.8585 344.35 31.1865 343.95C31.5145 343.542 31.6785 342.954 31.6785 342.186V342.09C31.6785 341.33 31.4945 340.746 31.1265 340.338C30.7665 339.922 30.3065 339.714 29.7465 339.714C29.1385 339.714 28.6425 339.918 28.2585 340.326C27.8825 340.726 27.6945 341.314 27.6945 342.09V342.186C27.6945 342.962 27.8785 343.55 28.2465 343.95C28.6225 344.35 29.1265 344.55 29.7585 344.55ZM36.0128 344.622L33.5528 338.994H34.6208L36.5408 343.494L38.2808 338.994H39.3008L35.8328 347.454H34.8248L36.0128 344.622ZM43.3603 345.378C42.4163 345.378 41.6683 345.074 41.1163 344.466C40.5643 343.858 40.2883 342.934 40.2883 341.694V341.31C40.2883 340.718 40.3123 340.194 40.3603 339.738C40.4083 339.274 40.5083 338.81 40.6603 338.346C40.8123 337.874 41.0123 337.482 41.2603 337.17C41.5083 336.858 41.8443 336.598 42.2683 336.39C42.7003 336.182 43.2083 336.062 43.7923 336.03L44.0323 336.018C44.9123 335.97 45.5083 335.882 45.8203 335.754L45.9523 336.594C45.5443 336.77 44.9083 336.878 44.0443 336.918L43.8643 336.93C42.8963 336.978 42.2043 337.294 41.7883 337.878C41.3803 338.454 41.1403 339.35 41.0683 340.566H41.1163C41.3323 340.126 41.6523 339.778 42.0763 339.522C42.5083 339.258 43.0083 339.126 43.5763 339.126C44.4483 339.126 45.1443 339.41 45.6643 339.978C46.1923 340.538 46.4563 341.266 46.4563 342.162V342.21C46.4563 343.178 46.1643 343.95 45.5803 344.526C45.0043 345.094 44.2643 345.378 43.3603 345.378ZM41.8603 343.938C42.2283 344.346 42.7323 344.55 43.3723 344.55C44.0123 344.55 44.5123 344.35 44.8723 343.95C45.2403 343.542 45.4243 342.966 45.4243 342.222V342.198C45.4243 341.502 45.2563 340.954 44.9203 340.554C44.5923 340.154 44.1123 339.954 43.4803 339.954C42.8163 339.954 42.2883 340.162 41.8963 340.578C41.5123 340.994 41.3203 341.562 41.3203 342.282V342.306C41.3203 342.986 41.5003 343.53 41.8603 343.938Z" fill="white"/>
<path opacity="0.6" d="M282.652 356.108C282.036 356.108 281.532 355.956 281.14 355.652C280.756 355.34 280.564 354.876 280.564 354.26C280.564 353.916 280.648 353.616 280.816 353.36C280.992 353.096 281.232 352.892 281.536 352.748C281.84 352.596 282.172 352.488 282.532 352.424C282.892 352.352 283.284 352.316 283.708 352.316H284.608V351.86C284.608 351.356 284.504 350.996 284.296 350.78C284.088 350.556 283.744 350.444 283.264 350.444C282.4 350.444 281.92 350.82 281.824 351.572H280.828C280.892 350.9 281.152 350.408 281.608 350.096C282.072 349.776 282.64 349.616 283.312 349.616C284.84 349.616 285.604 350.364 285.604 351.86V356H284.608V355.208C284.128 355.808 283.476 356.108 282.652 356.108ZM282.748 355.316C283.292 355.316 283.736 355.184 284.08 354.92C284.432 354.648 284.608 354.276 284.608 353.804V353.024H283.744C282.288 353.024 281.56 353.436 281.56 354.26C281.56 354.964 281.956 355.316 282.748 355.316ZM291.568 350.564H288.604V356H287.608V349.724H292.564V356H291.568V350.564ZM294.773 349.724H295.769V350.78C295.953 350.46 296.241 350.188 296.633 349.964C297.025 349.732 297.445 349.616 297.893 349.616C298.733 349.616 299.417 349.9 299.945 350.468C300.481 351.036 300.749 351.804 300.749 352.772V352.868C300.749 353.836 300.485 354.62 299.957 355.22C299.437 355.812 298.749 356.108 297.893 356.108C296.933 356.108 296.225 355.728 295.769 354.968V358.184H294.773V349.724ZM297.797 355.28C298.421 355.28 298.897 355.08 299.225 354.68C299.553 354.272 299.717 353.684 299.717 352.916V352.82C299.717 352.06 299.533 351.476 299.165 351.068C298.805 350.652 298.345 350.444 297.785 350.444C297.177 350.444 296.681 350.648 296.297 351.056C295.921 351.456 295.733 352.044 295.733 352.82V352.916C295.733 353.692 295.917 354.28 296.285 354.68C296.661 355.08 297.165 355.28 297.797 355.28ZM304.985 356.108C304.089 356.108 303.357 355.816 302.789 355.232C302.229 354.648 301.949 353.88 301.949 352.928V352.832C301.949 351.888 302.221 351.116 302.765 350.516C303.317 349.916 304.025 349.616 304.889 349.616C305.689 349.616 306.357 349.876 306.893 350.396C307.437 350.908 307.709 351.688 307.709 352.736V353.06H302.981C303.029 354.54 303.701 355.28 304.997 355.28C305.981 355.28 306.537 354.916 306.665 354.188H307.661C307.549 354.812 307.257 355.288 306.785 355.616C306.313 355.944 305.713 356.108 304.985 356.108ZM306.689 352.256C306.601 351.048 306.001 350.444 304.889 350.444C304.385 350.444 303.969 350.604 303.641 350.924C303.313 351.244 303.105 351.688 303.017 352.256H306.689ZM310.543 353.576C310.471 354.44 310.319 355.072 310.087 355.472C309.855 355.864 309.491 356.06 308.995 356.06C308.891 356.06 308.783 356.052 308.671 356.036L308.575 356V355.052L308.659 355.076C308.739 355.092 308.823 355.1 308.911 355.1C309.039 355.1 309.143 355.064 309.223 354.992C309.311 354.912 309.379 354.788 309.427 354.62C309.483 354.452 309.523 354.296 309.547 354.152C309.571 354 309.599 353.788 309.631 353.516C309.663 353.228 309.711 352.412 309.775 351.068L309.811 349.724H313.951V356H312.955V350.564H310.699C310.627 352.292 310.575 353.296 310.543 353.576ZM316.085 349.724H317.081V351.92H318.197C318.901 351.92 319.477 352.092 319.925 352.436C320.373 352.78 320.597 353.292 320.597 353.972V354.008C320.597 354.696 320.373 355.2 319.925 355.52C319.485 355.84 318.909 356 318.197 356H316.085V349.724ZM318.257 355.22C318.737 355.22 319.081 355.12 319.289 354.92C319.497 354.712 319.601 354.408 319.601 354.008V353.972C319.601 353.54 319.493 353.224 319.277 353.024C319.069 352.816 318.729 352.712 318.257 352.712H317.081V355.22H318.257Z" fill="white"/>
<path d="M280.35 373.771L284.326 369.585C285.287 368.567 285.768 367.601 285.768 366.687C285.768 366.127 285.609 365.688 285.292 365.371C284.984 365.053 284.545 364.895 283.976 364.895C282.763 364.895 282.058 365.637 281.862 367.121H280.728C280.803 366.131 281.125 365.352 281.694 364.783C282.273 364.204 283.033 363.915 283.976 363.915C284.9 363.915 285.633 364.171 286.174 364.685C286.725 365.189 287 365.87 287 366.729C287 367.83 286.328 369.043 284.984 370.369L282.226 373.057H287.056V374.051H280.35V373.771ZM292.901 373.169C294.665 373.169 295.547 371.876 295.547 369.291V368.731C295.547 367.564 295.309 366.635 294.833 365.945C294.357 365.245 293.704 364.895 292.873 364.895C292.024 364.895 291.361 365.231 290.885 365.903C290.409 366.575 290.171 367.527 290.171 368.759V369.319C290.171 370.56 290.414 371.512 290.899 372.175C291.385 372.837 292.052 373.169 292.901 373.169ZM292.901 374.177C291.707 374.177 290.745 373.733 290.017 372.847C289.289 371.96 288.925 370.789 288.925 369.333V368.773C288.925 367.289 289.275 366.108 289.975 365.231C290.685 364.353 291.651 363.915 292.873 363.915C294.087 363.915 295.039 364.358 295.729 365.245C296.429 366.131 296.779 367.298 296.779 368.745V369.305C296.779 370.779 296.434 371.96 295.743 372.847C295.062 373.733 294.115 374.177 292.901 374.177ZM298.198 373.771L302.174 369.585C303.136 368.567 303.616 367.601 303.616 366.687C303.616 366.127 303.458 365.688 303.14 365.371C302.832 365.053 302.394 364.895 301.824 364.895C300.611 364.895 299.906 365.637 299.71 367.121H298.576C298.651 366.131 298.973 365.352 299.542 364.783C300.121 364.204 300.882 363.915 301.824 363.915C302.748 363.915 303.481 364.171 304.022 364.685C304.573 365.189 304.848 365.87 304.848 366.729C304.848 367.83 304.176 369.043 302.832 370.369L300.074 373.057H304.904V374.051H298.198V373.771ZM310.75 373.169C312.514 373.169 313.396 371.876 313.396 369.291V368.731C313.396 367.564 313.158 366.635 312.682 365.945C312.206 365.245 311.552 364.895 310.722 364.895C309.872 364.895 309.21 365.231 308.734 365.903C308.258 366.575 308.02 367.527 308.02 368.759V369.319C308.02 370.56 308.262 371.512 308.748 372.175C309.233 372.837 309.9 373.169 310.75 373.169ZM310.75 374.177C309.555 374.177 308.594 373.733 307.866 372.847C307.138 371.96 306.774 370.789 306.774 369.333V368.773C306.774 367.289 307.124 366.108 307.824 365.231C308.533 364.353 309.499 363.915 310.722 363.915C311.935 363.915 312.887 364.358 313.578 365.245C314.278 366.131 314.628 367.298 314.628 368.745V369.305C314.628 370.779 314.282 371.96 313.592 372.847C312.91 373.733 311.963 374.177 310.75 374.177Z" fill="white"/>
<path opacity="0.6" d="M453.652 356.108C453.036 356.108 452.532 355.956 452.14 355.652C451.756 355.34 451.564 354.876 451.564 354.26C451.564 353.916 451.648 353.616 451.816 353.36C451.992 353.096 452.232 352.892 452.536 352.748C452.84 352.596 453.172 352.488 453.532 352.424C453.892 352.352 454.284 352.316 454.708 352.316H455.608V351.86C455.608 351.356 455.504 350.996 455.296 350.78C455.088 350.556 454.744 350.444 454.264 350.444C453.4 350.444 452.92 350.82 452.824 351.572H451.828C451.892 350.9 452.152 350.408 452.608 350.096C453.072 349.776 453.64 349.616 454.312 349.616C455.84 349.616 456.604 350.364 456.604 351.86V356H455.608V355.208C455.128 355.808 454.476 356.108 453.652 356.108ZM453.748 355.316C454.292 355.316 454.736 355.184 455.08 354.92C455.432 354.648 455.608 354.276 455.608 353.804V353.024H454.744C453.288 353.024 452.56 353.436 452.56 354.26C452.56 354.964 452.956 355.316 453.748 355.316ZM458.608 349.724H460.804C462.276 349.724 463.012 350.256 463.012 351.32V351.356C463.012 351.66 462.928 351.94 462.76 352.196C462.592 352.444 462.34 352.612 462.004 352.7C462.876 352.892 463.312 353.364 463.312 354.116V354.152C463.312 354.76 463.112 355.22 462.712 355.532C462.32 355.844 461.772 356 461.068 356H458.608V349.724ZM459.604 350.516V352.376H460.804C461.22 352.376 461.516 352.3 461.692 352.148C461.876 351.996 461.968 351.748 461.968 351.404V351.368C461.968 351.048 461.872 350.828 461.68 350.708C461.496 350.58 461.2 350.516 460.792 350.516H459.604ZM459.604 353.168V355.208H460.972C461.412 355.208 461.736 355.132 461.944 354.98C462.16 354.82 462.268 354.564 462.268 354.212V354.176C462.268 353.824 462.16 353.568 461.944 353.408C461.736 353.248 461.412 353.168 460.972 353.168H459.604ZM466.017 350.564V356H465.021V349.724H469.005V350.564H466.017ZM472.497 355.352L470.037 349.724H471.105L473.025 354.224L474.765 349.724H475.785L472.317 358.184H471.309L472.497 355.352ZM479.644 356.108C478.748 356.108 478.012 355.82 477.436 355.244C476.86 354.66 476.572 353.888 476.572 352.928V352.832C476.572 351.888 476.864 351.116 477.448 350.516C478.04 349.916 478.764 349.616 479.62 349.616C480.34 349.616 480.952 349.796 481.456 350.156C481.96 350.508 482.256 351.06 482.344 351.812H481.36C481.216 350.9 480.636 350.444 479.62 350.444C479.036 350.444 478.552 350.664 478.168 351.104C477.792 351.536 477.604 352.112 477.604 352.832V352.928C477.604 353.68 477.788 354.26 478.156 354.668C478.532 355.076 479.032 355.28 479.656 355.28C480.128 355.28 480.532 355.148 480.868 354.884C481.212 354.612 481.408 354.232 481.456 353.744H482.38C482.316 354.432 482.028 355 481.516 355.448C481.012 355.888 480.388 356.108 479.644 356.108ZM488.336 350.564H486.308V356H485.312V350.564H483.284V349.724H488.336V350.564Z" fill="white"/>
<path d="M451.35 373.771L455.326 369.585C456.287 368.567 456.768 367.601 456.768 366.687C456.768 366.127 456.609 365.688 456.292 365.371C455.984 365.053 455.545 364.895 454.976 364.895C453.763 364.895 453.058 365.637 452.862 367.121H451.728C451.803 366.131 452.125 365.352 452.694 364.783C453.273 364.204 454.033 363.915 454.976 363.915C455.9 363.915 456.633 364.171 457.174 364.685C457.725 365.189 458 365.87 458 366.729C458 367.83 457.328 369.043 455.984 370.369L453.226 373.057H458.056V374.051H451.35V373.771ZM463.901 373.169C465.665 373.169 466.547 371.876 466.547 369.291V368.731C466.547 367.564 466.309 366.635 465.833 365.945C465.357 365.245 464.704 364.895 463.873 364.895C463.024 364.895 462.361 365.231 461.885 365.903C461.409 366.575 461.171 367.527 461.171 368.759V369.319C461.171 370.56 461.414 371.512 461.899 372.175C462.385 372.837 463.052 373.169 463.901 373.169ZM463.901 374.177C462.707 374.177 461.745 373.733 461.017 372.847C460.289 371.96 459.925 370.789 459.925 369.333V368.773C459.925 367.289 460.275 366.108 460.975 365.231C461.685 364.353 462.651 363.915 463.873 363.915C465.087 363.915 466.039 364.358 466.729 365.245C467.429 366.131 467.779 367.298 467.779 368.745V369.305C467.779 370.779 467.434 371.96 466.743 372.847C466.062 373.733 465.115 374.177 463.901 374.177ZM469.198 373.771L473.174 369.585C474.136 368.567 474.616 367.601 474.616 366.687C474.616 366.127 474.458 365.688 474.14 365.371C473.832 365.053 473.394 364.895 472.824 364.895C471.611 364.895 470.906 365.637 470.71 367.121H469.576C469.651 366.131 469.973 365.352 470.542 364.783C471.121 364.204 471.882 363.915 472.824 363.915C473.748 363.915 474.481 364.171 475.022 364.685C475.573 365.189 475.848 365.87 475.848 366.729C475.848 367.83 475.176 369.043 473.832 370.369L471.074 373.057H475.904V374.051H469.198V373.771ZM481.75 373.169C483.514 373.169 484.396 371.876 484.396 369.291V368.731C484.396 367.564 484.158 366.635 483.682 365.945C483.206 365.245 482.552 364.895 481.722 364.895C480.872 364.895 480.21 365.231 479.734 365.903C479.258 366.575 479.02 367.527 479.02 368.759V369.319C479.02 370.56 479.262 371.512 479.748 372.175C480.233 372.837 480.9 373.169 481.75 373.169ZM481.75 374.177C480.555 374.177 479.594 373.733 478.866 372.847C478.138 371.96 477.774 370.789 477.774 369.333V368.773C477.774 367.289 478.124 366.108 478.824 365.231C479.533 364.353 480.499 363.915 481.722 363.915C482.935 363.915 483.887 364.358 484.578 365.245C485.278 366.131 485.628 367.298 485.628 368.745V369.305C485.628 370.779 485.282 371.96 484.592 372.847C483.91 373.733 482.963 374.177 481.75 374.177Z" fill="white"/>
<path opacity="0.6" d="M198.096 350.516C197.2 350.516 196.752 350.896 196.752 351.656V351.692C196.752 352.052 196.856 352.324 197.064 352.508C197.272 352.692 197.616 352.784 198.096 352.784H199.272V350.516H198.096ZM196.44 356H195.3L197.208 353.372C196.24 353.172 195.756 352.612 195.756 351.692V351.656C195.756 351 195.98 350.516 196.428 350.204C196.876 349.884 197.452 349.724 198.156 349.724H200.268V356H199.272V353.54H198.192L196.44 356ZM206.489 353.204H203.405V356H202.409V349.724H203.405V352.364H206.489V349.724H207.485V356H206.489V353.204ZM209.619 349.724H211.815C213.287 349.724 214.023 350.256 214.023 351.32V351.356C214.023 351.66 213.939 351.94 213.771 352.196C213.603 352.444 213.351 352.612 213.015 352.7C213.887 352.892 214.323 353.364 214.323 354.116V354.152C214.323 354.76 214.123 355.22 213.723 355.532C213.331 355.844 212.783 356 212.079 356H209.619V349.724ZM210.615 350.516V352.376H211.815C212.231 352.376 212.527 352.3 212.703 352.148C212.887 351.996 212.979 351.748 212.979 351.404V351.368C212.979 351.048 212.883 350.828 212.691 350.708C212.507 350.58 212.211 350.516 211.803 350.516H210.615ZM210.615 353.168V355.208H211.983C212.423 355.208 212.747 355.132 212.955 354.98C213.171 354.82 213.279 354.564 213.279 354.212V354.176C213.279 353.824 213.171 353.568 212.955 353.408C212.747 353.248 212.423 353.168 211.983 353.168H210.615ZM217.735 356.108C217.119 356.108 216.615 355.956 216.223 355.652C215.839 355.34 215.647 354.876 215.647 354.26C215.647 353.916 215.731 353.616 215.899 353.36C216.075 353.096 216.315 352.892 216.619 352.748C216.923 352.596 217.255 352.488 217.615 352.424C217.975 352.352 218.367 352.316 218.791 352.316H219.691V351.86C219.691 351.356 219.587 350.996 219.379 350.78C219.171 350.556 218.827 350.444 218.347 350.444C217.483 350.444 217.003 350.82 216.907 351.572H215.911C215.975 350.9 216.235 350.408 216.691 350.096C217.155 349.776 217.723 349.616 218.395 349.616C219.923 349.616 220.687 350.364 220.687 351.86V356H219.691V355.208C219.211 355.808 218.559 356.108 217.735 356.108ZM217.831 355.316C218.375 355.316 218.819 355.184 219.163 354.92C219.515 354.648 219.691 354.276 219.691 353.804V353.024H218.827C217.371 353.024 216.643 353.436 216.643 354.26C216.643 354.964 217.039 355.316 217.831 355.316ZM222.763 349.724H223.759V350.78C223.943 350.46 224.231 350.188 224.623 349.964C225.015 349.732 225.435 349.616 225.883 349.616C226.723 349.616 227.407 349.9 227.935 350.468C228.471 351.036 228.739 351.804 228.739 352.772V352.868C228.739 353.836 228.475 354.62 227.947 355.22C227.427 355.812 226.739 356.108 225.883 356.108C224.923 356.108 224.215 355.728 223.759 354.968V358.184H222.763V349.724ZM225.787 355.28C226.411 355.28 226.887 355.08 227.215 354.68C227.543 354.272 227.707 353.684 227.707 352.916V352.82C227.707 352.06 227.523 351.476 227.155 351.068C226.795 350.652 226.335 350.444 225.775 350.444C225.167 350.444 224.671 350.648 224.287 351.056C223.911 351.456 223.723 352.044 223.723 352.82V352.916C223.723 353.692 223.907 354.28 224.275 354.68C224.651 355.08 225.155 355.28 225.787 355.28ZM230.335 349.724H231.331V351.92H232.447C233.151 351.92 233.727 352.092 234.175 352.436C234.623 352.78 234.847 353.292 234.847 353.972V354.008C234.847 354.696 234.623 355.2 234.175 355.52C233.735 355.84 233.159 356 232.447 356H230.335V349.724ZM232.507 355.22C232.987 355.22 233.331 355.12 233.539 354.92C233.747 354.712 233.851 354.408 233.851 354.008V353.972C233.851 353.54 233.743 353.224 233.527 353.024C233.319 352.816 232.979 352.712 232.507 352.712H231.331V355.22H232.507Z" fill="white"/>
<path d="M195.35 373.771L199.326 369.585C200.287 368.567 200.768 367.601 200.768 366.687C200.768 366.127 200.609 365.688 200.292 365.371C199.984 365.053 199.545 364.895 198.976 364.895C197.763 364.895 197.058 365.637 196.862 367.121H195.728C195.803 366.131 196.125 365.352 196.694 364.783C197.273 364.204 198.033 363.915 198.976 363.915C199.9 363.915 200.633 364.171 201.174 364.685C201.725 365.189 202 365.87 202 366.729C202 367.83 201.328 369.043 199.984 370.369L197.226 373.057H202.056V374.051H195.35V373.771ZM207.901 373.169C209.665 373.169 210.547 371.876 210.547 369.291V368.731C210.547 367.564 210.309 366.635 209.833 365.945C209.357 365.245 208.704 364.895 207.873 364.895C207.024 364.895 206.361 365.231 205.885 365.903C205.409 366.575 205.171 367.527 205.171 368.759V369.319C205.171 370.56 205.414 371.512 205.899 372.175C206.385 372.837 207.052 373.169 207.901 373.169ZM207.901 374.177C206.707 374.177 205.745 373.733 205.017 372.847C204.289 371.96 203.925 370.789 203.925 369.333V368.773C203.925 367.289 204.275 366.108 204.975 365.231C205.685 364.353 206.651 363.915 207.873 363.915C209.087 363.915 210.039 364.358 210.729 365.245C211.429 366.131 211.779 367.298 211.779 368.745V369.305C211.779 370.779 211.434 371.96 210.743 372.847C210.062 373.733 209.115 374.177 207.901 374.177ZM213.198 373.771L217.174 369.585C218.136 368.567 218.616 367.601 218.616 366.687C218.616 366.127 218.458 365.688 218.14 365.371C217.832 365.053 217.394 364.895 216.824 364.895C215.611 364.895 214.906 365.637 214.71 367.121H213.576C213.651 366.131 213.973 365.352 214.542 364.783C215.121 364.204 215.882 363.915 216.824 363.915C217.748 363.915 218.481 364.171 219.022 364.685C219.573 365.189 219.848 365.87 219.848 366.729C219.848 367.83 219.176 369.043 217.832 370.369L215.074 373.057H219.904V374.051H213.198V373.771ZM225.75 373.169C227.514 373.169 228.396 371.876 228.396 369.291V368.731C228.396 367.564 228.158 366.635 227.682 365.945C227.206 365.245 226.552 364.895 225.722 364.895C224.872 364.895 224.21 365.231 223.734 365.903C223.258 366.575 223.02 367.527 223.02 368.759V369.319C223.02 370.56 223.262 371.512 223.748 372.175C224.233 372.837 224.9 373.169 225.75 373.169ZM225.75 374.177C224.555 374.177 223.594 373.733 222.866 372.847C222.138 371.96 221.774 370.789 221.774 369.333V368.773C221.774 367.289 222.124 366.108 222.824 365.231C223.533 364.353 224.499 363.915 225.722 363.915C226.935 363.915 227.887 364.358 228.578 365.245C229.278 366.131 229.628 367.298 229.628 368.745V369.305C229.628 370.779 229.282 371.96 228.592 372.847C227.91 373.733 226.963 374.177 225.75 374.177Z" fill="white"/>
<path opacity="0.6" d="M111.232 353.576C111.144 354.312 111.008 354.84 110.824 355.16H113.764V350.54H111.46C111.42 351.516 111.344 352.528 111.232 353.576ZM109.984 357.524H109.18V355.16H109.624C109.848 355.104 110.004 354.944 110.092 354.68C110.18 354.408 110.256 354.02 110.32 353.516C110.392 352.868 110.46 352.052 110.524 351.068C110.556 350.628 110.58 350.18 110.596 349.724H114.736V355.16H115.696V357.524H114.892L114.82 356H110.056L109.984 357.524ZM119.647 356.108C118.751 356.108 118.019 355.816 117.451 355.232C116.891 354.648 116.611 353.88 116.611 352.928V352.832C116.611 351.888 116.883 351.116 117.427 350.516C117.979 349.916 118.687 349.616 119.551 349.616C120.351 349.616 121.019 349.876 121.555 350.396C122.099 350.908 122.371 351.688 122.371 352.736V353.06H117.643C117.691 354.54 118.363 355.28 119.659 355.28C120.643 355.28 121.199 354.916 121.327 354.188H122.323C122.211 354.812 121.919 355.288 121.447 355.616C120.975 355.944 120.375 356.108 119.647 356.108ZM121.351 352.256C121.263 351.048 120.663 350.444 119.551 350.444C119.047 350.444 118.631 350.604 118.303 350.924C117.975 351.244 117.767 351.688 117.679 352.256H121.351ZM124.943 352.796V356H123.947V349.724H124.943V352.652L127.547 349.724H128.711L126.023 352.676L128.939 356H127.727L124.943 352.796ZM131.84 356.108C131.224 356.108 130.72 355.956 130.328 355.652C129.944 355.34 129.752 354.876 129.752 354.26C129.752 353.916 129.836 353.616 130.004 353.36C130.18 353.096 130.42 352.892 130.724 352.748C131.028 352.596 131.36 352.488 131.72 352.424C132.08 352.352 132.472 352.316 132.896 352.316H133.796V351.86C133.796 351.356 133.692 350.996 133.484 350.78C133.276 350.556 132.932 350.444 132.452 350.444C131.588 350.444 131.108 350.82 131.012 351.572H130.016C130.08 350.9 130.34 350.408 130.796 350.096C131.26 349.776 131.828 349.616 132.5 349.616C134.028 349.616 134.792 350.364 134.792 351.86V356H133.796V355.208C133.316 355.808 132.664 356.108 131.84 356.108ZM131.936 355.316C132.48 355.316 132.924 355.184 133.268 354.92C133.62 354.648 133.796 354.276 133.796 353.804V353.024H132.932C131.476 353.024 130.748 353.436 130.748 354.26C130.748 354.964 131.144 355.316 131.936 355.316ZM139.497 356.108C138.553 356.108 137.805 355.804 137.253 355.196C136.701 354.588 136.425 353.664 136.425 352.424V352.04C136.425 351.448 136.449 350.924 136.497 350.468C136.545 350.004 136.645 349.54 136.797 349.076C136.949 348.604 137.149 348.212 137.397 347.9C137.645 347.588 137.981 347.328 138.405 347.12C138.837 346.912 139.345 346.792 139.929 346.76L140.169 346.748C141.049 346.7 141.645 346.612 141.957 346.484L142.089 347.324C141.681 347.5 141.045 347.608 140.181 347.648L140.001 347.66C139.033 347.708 138.341 348.024 137.925 348.608C137.517 349.184 137.277 350.08 137.205 351.296H137.253C137.469 350.856 137.789 350.508 138.213 350.252C138.645 349.988 139.145 349.856 139.713 349.856C140.585 349.856 141.281 350.14 141.801 350.708C142.329 351.268 142.593 351.996 142.593 352.892V352.94C142.593 353.908 142.301 354.68 141.717 355.256C141.141 355.824 140.401 356.108 139.497 356.108ZM137.997 354.668C138.365 355.076 138.869 355.28 139.509 355.28C140.149 355.28 140.649 355.08 141.009 354.68C141.377 354.272 141.561 353.696 141.561 352.952V352.928C141.561 352.232 141.393 351.684 141.057 351.284C140.729 350.884 140.249 350.684 139.617 350.684C138.953 350.684 138.425 350.892 138.033 351.308C137.649 351.724 137.457 352.292 137.457 353.012V353.036C137.457 353.716 137.637 354.26 137.997 354.668ZM144.336 349.724H145.332V350.78C145.516 350.46 145.804 350.188 146.196 349.964C146.588 349.732 147.008 349.616 147.456 349.616C148.296 349.616 148.98 349.9 149.508 350.468C150.044 351.036 150.312 351.804 150.312 352.772V352.868C150.312 353.836 150.048 354.62 149.52 355.22C149 355.812 148.312 356.108 147.456 356.108C146.496 356.108 145.788 355.728 145.332 354.968V358.184H144.336V349.724ZM147.36 355.28C147.984 355.28 148.46 355.08 148.788 354.68C149.116 354.272 149.28 353.684 149.28 352.916V352.82C149.28 352.06 149.096 351.476 148.728 351.068C148.368 350.652 147.908 350.444 147.348 350.444C146.74 350.444 146.244 350.648 145.86 351.056C145.484 351.456 145.296 352.044 145.296 352.82V352.916C145.296 353.692 145.48 354.28 145.848 354.68C146.224 355.08 146.728 355.28 147.36 355.28ZM151.908 349.724H152.904V351.92H154.02C154.724 351.92 155.3 352.092 155.748 352.436C156.196 352.78 156.42 353.292 156.42 353.972V354.008C156.42 354.696 156.196 355.2 155.748 355.52C155.308 355.84 154.732 356 154.02 356H151.908V349.724ZM154.08 355.22C154.56 355.22 154.904 355.12 155.112 354.92C155.32 354.712 155.424 354.408 155.424 354.008V353.972C155.424 353.54 155.316 353.224 155.1 353.024C154.892 352.816 154.552 352.712 154.08 352.712H152.904V355.22H154.08Z" fill="white"/>
<path d="M109.35 373.771L113.326 369.585C114.287 368.567 114.768 367.601 114.768 366.687C114.768 366.127 114.609 365.688 114.292 365.371C113.984 365.053 113.545 364.895 112.976 364.895C111.763 364.895 111.058 365.637 110.862 367.121H109.728C109.803 366.131 110.125 365.352 110.694 364.783C111.273 364.204 112.033 363.915 112.976 363.915C113.9 363.915 114.633 364.171 115.174 364.685C115.725 365.189 116 365.87 116 366.729C116 367.83 115.328 369.043 113.984 370.369L111.226 373.057H116.056V374.051H109.35V373.771ZM121.901 373.169C123.665 373.169 124.547 371.876 124.547 369.291V368.731C124.547 367.564 124.309 366.635 123.833 365.945C123.357 365.245 122.704 364.895 121.873 364.895C121.024 364.895 120.361 365.231 119.885 365.903C119.409 366.575 119.171 367.527 119.171 368.759V369.319C119.171 370.56 119.414 371.512 119.899 372.175C120.385 372.837 121.052 373.169 121.901 373.169ZM121.901 374.177C120.707 374.177 119.745 373.733 119.017 372.847C118.289 371.96 117.925 370.789 117.925 369.333V368.773C117.925 367.289 118.275 366.108 118.975 365.231C119.685 364.353 120.651 363.915 121.873 363.915C123.087 363.915 124.039 364.358 124.729 365.245C125.429 366.131 125.779 367.298 125.779 368.745V369.305C125.779 370.779 125.434 371.96 124.743 372.847C124.062 373.733 123.115 374.177 121.901 374.177ZM129.634 365.245L127.394 366.855V365.721L129.718 364.041H130.852V374.051H129.634V365.245ZM136.752 374.163C135.837 374.163 135.104 373.939 134.554 373.491C134.003 373.043 133.662 372.408 133.532 371.587H134.708C134.829 372.109 135.048 372.506 135.366 372.777C135.692 373.038 136.164 373.169 136.78 373.169C137.592 373.169 138.217 372.837 138.656 372.175C139.094 371.512 139.323 370.518 139.342 369.193C139.09 369.613 138.74 369.939 138.292 370.173C137.844 370.406 137.33 370.523 136.752 370.523C135.781 370.523 134.988 370.215 134.372 369.599C133.765 368.983 133.462 368.199 133.462 367.247C133.462 366.239 133.774 365.431 134.4 364.825C135.025 364.209 135.865 363.901 136.92 363.901C138.105 363.901 139.001 364.283 139.608 365.049C140.214 365.814 140.518 366.925 140.518 368.381V369.011C140.518 370.681 140.191 371.96 139.538 372.847C138.894 373.724 137.965 374.163 136.752 374.163ZM136.934 369.571C137.606 369.571 138.156 369.37 138.586 368.969C139.015 368.567 139.23 368.045 139.23 367.401C139.23 366.598 139.015 365.973 138.586 365.525C138.166 365.077 137.61 364.853 136.92 364.853C136.266 364.853 135.734 365.067 135.324 365.497C134.913 365.926 134.708 366.491 134.708 367.191C134.708 367.919 134.908 368.497 135.31 368.927C135.711 369.356 136.252 369.571 136.934 369.571Z" fill="white"/>
<path opacity="0.6" d="M369.848 350.708V356H369.02V349.724H370.424L372.212 354.44L374.048 349.724H375.416V356H374.432V350.708L372.356 356H371.9L369.848 350.708ZM379.21 356.108C378.594 356.108 378.089 355.956 377.697 355.652C377.313 355.34 377.121 354.876 377.121 354.26C377.121 353.916 377.205 353.616 377.373 353.36C377.549 353.096 377.789 352.892 378.093 352.748C378.397 352.596 378.729 352.488 379.09 352.424C379.45 352.352 379.842 352.316 380.266 352.316H381.165V351.86C381.165 351.356 381.061 350.996 380.854 350.78C380.646 350.556 380.302 350.444 379.822 350.444C378.957 350.444 378.477 350.82 378.382 351.572H377.385C377.449 350.9 377.709 350.408 378.165 350.096C378.629 349.776 379.197 349.616 379.87 349.616C381.398 349.616 382.161 350.364 382.161 351.86V356H381.165V355.208C380.685 355.808 380.033 356.108 379.21 356.108ZM379.306 355.316C379.85 355.316 380.294 355.184 380.637 354.92C380.989 354.648 381.165 354.276 381.165 353.804V353.024H380.301C378.845 353.024 378.118 353.436 378.118 354.26C378.118 354.964 378.514 355.316 379.306 355.316ZM386.746 348.572C386.314 348.572 385.946 348.424 385.642 348.128C385.338 347.824 385.178 347.444 385.162 346.988H386.026C386.074 347.58 386.314 347.876 386.746 347.876C387.218 347.876 387.482 347.58 387.538 346.988H388.378C388.346 347.444 388.174 347.824 387.862 348.128C387.558 348.424 387.186 348.572 386.746 348.572ZM384.166 356V349.724H385.162V354.56L388.366 349.724H389.362V356H388.366V351.164L385.162 356H384.166Z" fill="white"/>
<path d="M368.35 373.771L372.326 369.585C373.287 368.567 373.768 367.601 373.768 366.687C373.768 366.127 373.609 365.688 373.292 365.371C372.984 365.053 372.545 364.895 371.976 364.895C370.763 364.895 370.058 365.637 369.862 367.121H368.728C368.803 366.131 369.125 365.352 369.694 364.783C370.273 364.204 371.033 363.915 371.976 363.915C372.9 363.915 373.633 364.171 374.174 364.685C374.725 365.189 375 365.87 375 366.729C375 367.83 374.328 369.043 372.984 370.369L370.226 373.057H375.056V374.051H368.35V373.771ZM380.901 373.169C382.665 373.169 383.547 371.876 383.547 369.291V368.731C383.547 367.564 383.309 366.635 382.833 365.945C382.357 365.245 381.704 364.895 380.873 364.895C380.024 364.895 379.361 365.231 378.885 365.903C378.409 366.575 378.171 367.527 378.171 368.759V369.319C378.171 370.56 378.414 371.512 378.899 372.175C379.385 372.837 380.052 373.169 380.901 373.169ZM380.901 374.177C379.707 374.177 378.745 373.733 378.017 372.847C377.289 371.96 376.925 370.789 376.925 369.333V368.773C376.925 367.289 377.275 366.108 377.975 365.231C378.685 364.353 379.651 363.915 380.873 363.915C382.087 363.915 383.039 364.358 383.729 365.245C384.429 366.131 384.779 367.298 384.779 368.745V369.305C384.779 370.779 384.434 371.96 383.743 372.847C383.062 373.733 382.115 374.177 380.901 374.177ZM386.198 373.771L390.174 369.585C391.136 368.567 391.616 367.601 391.616 366.687C391.616 366.127 391.458 365.688 391.14 365.371C390.832 365.053 390.394 364.895 389.824 364.895C388.611 364.895 387.906 365.637 387.71 367.121H386.576C386.651 366.131 386.973 365.352 387.542 364.783C388.121 364.204 388.882 363.915 389.824 363.915C390.748 363.915 391.481 364.171 392.022 364.685C392.573 365.189 392.848 365.87 392.848 366.729C392.848 367.83 392.176 369.043 390.832 370.369L388.074 373.057H392.904V374.051H386.198V373.771ZM398.75 373.169C400.514 373.169 401.396 371.876 401.396 369.291V368.731C401.396 367.564 401.158 366.635 400.682 365.945C400.206 365.245 399.552 364.895 398.722 364.895C397.872 364.895 397.21 365.231 396.734 365.903C396.258 366.575 396.02 367.527 396.02 368.759V369.319C396.02 370.56 396.262 371.512 396.748 372.175C397.233 372.837 397.9 373.169 398.75 373.169ZM398.75 374.177C397.555 374.177 396.594 373.733 395.866 372.847C395.138 371.96 394.774 370.789 394.774 369.333V368.773C394.774 367.289 395.124 366.108 395.824 365.231C396.533 364.353 397.499 363.915 398.722 363.915C399.935 363.915 400.887 364.358 401.578 365.245C402.278 366.131 402.628 367.298 402.628 368.745V369.305C402.628 370.779 402.282 371.96 401.592 372.847C400.91 373.733 399.963 374.177 398.75 374.177Z" fill="white"/>
<path opacity="0.6" d="M539.684 356.108C538.788 356.108 538.052 355.82 537.476 355.244C536.9 354.66 536.612 353.888 536.612 352.928V352.832C536.612 351.888 536.904 351.116 537.488 350.516C538.08 349.916 538.804 349.616 539.66 349.616C540.38 349.616 540.992 349.796 541.496 350.156C542 350.508 542.296 351.06 542.384 351.812H541.4C541.256 350.9 540.676 350.444 539.66 350.444C539.076 350.444 538.592 350.664 538.208 351.104C537.832 351.536 537.644 352.112 537.644 352.832V352.928C537.644 353.68 537.828 354.26 538.196 354.668C538.572 355.076 539.072 355.28 539.696 355.28C540.168 355.28 540.572 355.148 540.908 354.884C541.252 354.612 541.448 354.232 541.496 353.744H542.42C542.356 354.432 542.068 355 541.556 355.448C541.052 355.888 540.428 356.108 539.684 356.108ZM546.612 356.108C545.716 356.108 544.984 355.816 544.416 355.232C543.856 354.648 543.576 353.88 543.576 352.928V352.832C543.576 351.888 543.848 351.116 544.392 350.516C544.944 349.916 545.652 349.616 546.516 349.616C547.316 349.616 547.984 349.876 548.52 350.396C549.064 350.908 549.336 351.688 549.336 352.736V353.06H544.608C544.656 354.54 545.328 355.28 546.624 355.28C547.608 355.28 548.164 354.916 548.292 354.188H549.288C549.176 354.812 548.884 355.288 548.412 355.616C547.94 355.944 547.34 356.108 546.612 356.108ZM548.316 352.256C548.228 351.048 547.628 350.444 546.516 350.444C546.012 350.444 545.596 350.604 545.268 350.924C544.94 351.244 544.732 351.688 544.644 352.256H548.316ZM554.992 353.204H551.908V356H550.912V349.724H551.908V352.364H554.992V349.724H555.988V356H554.992V353.204ZM562.526 350.564H560.498V356H559.502V350.564H557.474V349.724H562.526V350.564ZM566.107 350.516C565.211 350.516 564.763 350.896 564.763 351.656V351.692C564.763 352.052 564.867 352.324 565.075 352.508C565.283 352.692 565.627 352.784 566.107 352.784H567.283V350.516H566.107ZM564.451 356H563.311L565.219 353.372C564.251 353.172 563.767 352.612 563.767 351.692V351.656C563.767 351 563.991 350.516 564.439 350.204C564.887 349.884 565.463 349.724 566.167 349.724H568.279V356H567.283V353.54H566.203L564.451 356ZM573.12 356.108C572.176 356.108 571.428 355.804 570.876 355.196C570.324 354.588 570.048 353.664 570.048 352.424V352.04C570.048 351.448 570.072 350.924 570.12 350.468C570.168 350.004 570.268 349.54 570.42 349.076C570.572 348.604 570.772 348.212 571.02 347.9C571.268 347.588 571.604 347.328 572.028 347.12C572.46 346.912 572.968 346.792 573.552 346.76L573.792 346.748C574.672 346.7 575.268 346.612 575.58 346.484L575.712 347.324C575.304 347.5 574.668 347.608 573.804 347.648L573.624 347.66C572.656 347.708 571.964 348.024 571.548 348.608C571.14 349.184 570.9 350.08 570.828 351.296H570.876C571.092 350.856 571.412 350.508 571.836 350.252C572.268 349.988 572.768 349.856 573.336 349.856C574.208 349.856 574.904 350.14 575.424 350.708C575.952 351.268 576.216 351.996 576.216 352.892V352.94C576.216 353.908 575.924 354.68 575.34 355.256C574.764 355.824 574.024 356.108 573.12 356.108ZM571.62 354.668C571.988 355.076 572.492 355.28 573.132 355.28C573.772 355.28 574.272 355.08 574.632 354.68C575 354.272 575.184 353.696 575.184 352.952V352.928C575.184 352.232 575.016 351.684 574.68 351.284C574.352 350.884 573.872 350.684 573.24 350.684C572.576 350.684 572.048 350.892 571.656 351.308C571.272 351.724 571.08 352.292 571.08 353.012V353.036C571.08 353.716 571.26 354.26 571.62 354.668ZM577.96 349.724H578.956V350.78C579.14 350.46 579.428 350.188 579.82 349.964C580.212 349.732 580.632 349.616 581.08 349.616C581.92 349.616 582.604 349.9 583.132 350.468C583.668 351.036 583.936 351.804 583.936 352.772V352.868C583.936 353.836 583.672 354.62 583.144 355.22C582.624 355.812 581.936 356.108 581.08 356.108C580.12 356.108 579.412 355.728 578.956 354.968V358.184H577.96V349.724ZM580.984 355.28C581.608 355.28 582.084 355.08 582.412 354.68C582.74 354.272 582.904 353.684 582.904 352.916V352.82C582.904 352.06 582.72 351.476 582.352 351.068C581.992 350.652 581.532 350.444 580.972 350.444C580.364 350.444 579.868 350.648 579.484 351.056C579.108 351.456 578.92 352.044 578.92 352.82V352.916C578.92 353.692 579.104 354.28 579.472 354.68C579.848 355.08 580.352 355.28 580.984 355.28ZM585.532 349.724H586.528V351.92H587.644C588.348 351.92 588.924 352.092 589.372 352.436C589.82 352.78 590.044 353.292 590.044 353.972V354.008C590.044 354.696 589.82 355.2 589.372 355.52C588.932 355.84 588.356 356 587.644 356H585.532V349.724ZM587.704 355.22C588.184 355.22 588.528 355.12 588.736 354.92C588.944 354.712 589.048 354.408 589.048 354.008V353.972C589.048 353.54 588.94 353.224 588.724 353.024C588.516 352.816 588.176 352.712 587.704 352.712H586.528V355.22H587.704Z" fill="white"/>
<path d="M536.35 373.771L540.326 369.585C541.287 368.567 541.768 367.601 541.768 366.687C541.768 366.127 541.609 365.688 541.292 365.371C540.984 365.053 540.545 364.895 539.976 364.895C538.763 364.895 538.058 365.637 537.862 367.121H536.728C536.803 366.131 537.125 365.352 537.694 364.783C538.273 364.204 539.033 363.915 539.976 363.915C540.9 363.915 541.633 364.171 542.174 364.685C542.725 365.189 543 365.87 543 366.729C543 367.83 542.328 369.043 540.984 370.369L538.226 373.057H543.056V374.051H536.35V373.771ZM548.901 373.169C550.665 373.169 551.547 371.876 551.547 369.291V368.731C551.547 367.564 551.309 366.635 550.833 365.945C550.357 365.245 549.704 364.895 548.873 364.895C548.024 364.895 547.361 365.231 546.885 365.903C546.409 366.575 546.171 367.527 546.171 368.759V369.319C546.171 370.56 546.414 371.512 546.899 372.175C547.385 372.837 548.052 373.169 548.901 373.169ZM548.901 374.177C547.707 374.177 546.745 373.733 546.017 372.847C545.289 371.96 544.925 370.789 544.925 369.333V368.773C544.925 367.289 545.275 366.108 545.975 365.231C546.685 364.353 547.651 363.915 548.873 363.915C550.087 363.915 551.039 364.358 551.729 365.245C552.429 366.131 552.779 367.298 552.779 368.745V369.305C552.779 370.779 552.434 371.96 551.743 372.847C551.062 373.733 550.115 374.177 548.901 374.177ZM554.198 373.771L558.174 369.585C559.136 368.567 559.616 367.601 559.616 366.687C559.616 366.127 559.458 365.688 559.14 365.371C558.832 365.053 558.394 364.895 557.824 364.895C556.611 364.895 555.906 365.637 555.71 367.121H554.576C554.651 366.131 554.973 365.352 555.542 364.783C556.121 364.204 556.882 363.915 557.824 363.915C558.748 363.915 559.481 364.171 560.022 364.685C560.573 365.189 560.848 365.87 560.848 366.729C560.848 367.83 560.176 369.043 558.832 370.369L556.074 373.057H560.904V374.051H554.198V373.771ZM566.75 373.169C568.514 373.169 569.396 371.876 569.396 369.291V368.731C569.396 367.564 569.158 366.635 568.682 365.945C568.206 365.245 567.552 364.895 566.722 364.895C565.872 364.895 565.21 365.231 564.734 365.903C564.258 366.575 564.02 367.527 564.02 368.759V369.319C564.02 370.56 564.262 371.512 564.748 372.175C565.233 372.837 565.9 373.169 566.75 373.169ZM566.75 374.177C565.555 374.177 564.594 373.733 563.866 372.847C563.138 371.96 562.774 370.789 562.774 369.333V368.773C562.774 367.289 563.124 366.108 563.824 365.231C564.533 364.353 565.499 363.915 566.722 363.915C567.935 363.915 568.887 364.358 569.578 365.245C570.278 366.131 570.628 367.298 570.628 368.745V369.305C570.628 370.779 570.282 371.96 569.592 372.847C568.91 373.733 567.963 374.177 566.75 374.177Z" fill="white"/>
<path opacity="0.6" d="M6.37559 290.406H4.34759V295.842H3.35159V290.406H1.32359V289.566H6.37559V290.406ZM13.2689 289.566H14.2649V295.842H13.2689V289.566ZM7.86894 289.566H8.86494V291.762H9.98094C10.6929 291.762 11.2689 291.922 11.7089 292.242C12.1569 292.562 12.3809 293.066 12.3809 293.754V293.79C12.3809 294.47 12.1569 294.982 11.7089 295.326C11.2609 295.67 10.6849 295.842 9.98094 295.842H7.86894V289.566ZM10.0409 295.05C10.5129 295.05 10.8529 294.95 11.0609 294.75C11.2769 294.542 11.3849 294.222 11.3849 293.79V293.754C11.3849 293.354 11.2809 293.054 11.0729 292.854C10.8649 292.646 10.5209 292.542 10.0409 292.542H8.86494V295.05H10.0409ZM19.079 295.95C18.183 295.95 17.447 295.662 16.871 295.086C16.295 294.502 16.007 293.73 16.007 292.77V292.674C16.007 291.73 16.299 290.958 16.883 290.358C17.475 289.758 18.199 289.458 19.055 289.458C19.775 289.458 20.387 289.638 20.891 289.998C21.395 290.35 21.691 290.902 21.779 291.654H20.795C20.651 290.742 20.071 290.286 19.055 290.286C18.471 290.286 17.987 290.506 17.603 290.946C17.227 291.378 17.039 291.954 17.039 292.674V292.77C17.039 293.522 17.223 294.102 17.591 294.51C17.967 294.918 18.467 295.122 19.091 295.122C19.563 295.122 19.967 294.99 20.303 294.726C20.647 294.454 20.843 294.074 20.891 293.586H21.815C21.751 294.274 21.463 294.842 20.951 295.29C20.447 295.73 19.823 295.95 19.079 295.95ZM26.7345 289.566H27.7305V290.622C27.9145 290.302 28.2025 290.03 28.5945 289.806C28.9865 289.574 29.4065 289.458 29.8545 289.458C30.6945 289.458 31.3785 289.742 31.9065 290.31C32.4425 290.878 32.7105 291.646 32.7105 292.614V292.71C32.7105 293.678 32.4465 294.462 31.9185 295.062C31.3985 295.654 30.7105 295.95 29.8545 295.95C28.8945 295.95 28.1865 295.57 27.7305 294.81V298.026H26.7345V289.566ZM29.7585 295.122C30.3825 295.122 30.8585 294.922 31.1865 294.522C31.5145 294.114 31.6785 293.526 31.6785 292.758V292.662C31.6785 291.902 31.4945 291.318 31.1265 290.91C30.7665 290.494 30.3065 290.286 29.7465 290.286C29.1385 290.286 28.6425 290.49 28.2585 290.898C27.8825 291.298 27.6945 291.886 27.6945 292.662V292.758C27.6945 293.534 27.8785 294.122 28.2465 294.522C28.6225 294.922 29.1265 295.122 29.7585 295.122ZM36.0128 295.194L33.5528 289.566H34.6208L36.5408 294.066L38.2808 289.566H39.3008L35.8328 298.026H34.8248L36.0128 295.194ZM43.3603 295.95C42.4163 295.95 41.6683 295.646 41.1163 295.038C40.5643 294.43 40.2883 293.506 40.2883 292.266V291.882C40.2883 291.29 40.3123 290.766 40.3603 290.31C40.4083 289.846 40.5083 289.382 40.6603 288.918C40.8123 288.446 41.0123 288.054 41.2603 287.742C41.5083 287.43 41.8443 287.17 42.2683 286.962C42.7003 286.754 43.2083 286.634 43.7923 286.602L44.0323 286.59C44.9123 286.542 45.5083 286.454 45.8203 286.326L45.9523 287.166C45.5443 287.342 44.9083 287.45 44.0443 287.49L43.8643 287.502C42.8963 287.55 42.2043 287.866 41.7883 288.45C41.3803 289.026 41.1403 289.922 41.0683 291.138H41.1163C41.3323 290.698 41.6523 290.35 42.0763 290.094C42.5083 289.83 43.0083 289.698 43.5763 289.698C44.4483 289.698 45.1443 289.982 45.6643 290.55C46.1923 291.11 46.4563 291.838 46.4563 292.734V292.782C46.4563 293.75 46.1643 294.522 45.5803 295.098C45.0043 295.666 44.2643 295.95 43.3603 295.95ZM41.8603 294.51C42.2283 294.918 42.7323 295.122 43.3723 295.122C44.0123 295.122 44.5123 294.922 44.8723 294.522C45.2403 294.114 45.4243 293.538 45.4243 292.794V292.77C45.4243 292.074 45.2563 291.526 44.9203 291.126C44.5923 290.726 44.1123 290.526 43.4803 290.526C42.8163 290.526 42.2883 290.734 41.8963 291.15C41.5123 291.566 41.3203 292.134 41.3203 292.854V292.878C41.3203 293.558 41.5003 294.102 41.8603 294.51Z" fill="white"/>
<path d="M18.7206 278.155L23.2646 273.371C24.3633 272.208 24.9126 271.104 24.9126 270.059C24.9126 269.419 24.7313 268.917 24.3686 268.555C24.0166 268.192 23.5153 268.011 22.8646 268.011C21.478 268.011 20.6726 268.859 20.4486 270.555H19.1526C19.238 269.424 19.606 268.533 20.2566 267.883C20.918 267.221 21.7873 266.891 22.8646 266.891C23.9206 266.891 24.758 267.184 25.3766 267.771C26.006 268.347 26.3206 269.125 26.3206 270.107C26.3206 271.365 25.5526 272.752 24.0166 274.267L20.8646 277.339H26.3846V278.475H18.7206V278.155ZM33.8029 268.155H27.9949V267.035H35.5309V267.227L31.2429 278.475H29.8189L33.8029 268.155ZM41.5063 277.467C43.5223 277.467 44.5303 275.989 44.5303 273.035V272.395C44.5303 271.061 44.2583 270 43.7143 269.211C43.1703 268.411 42.4236 268.011 41.4743 268.011C40.5036 268.011 39.7463 268.395 39.2023 269.163C38.6583 269.931 38.3863 271.019 38.3863 272.427V273.067C38.3863 274.485 38.6636 275.573 39.2183 276.331C39.7729 277.088 40.5356 277.467 41.5063 277.467ZM41.5063 278.619C40.1409 278.619 39.0423 278.112 38.2103 277.099C37.3783 276.085 36.9622 274.747 36.9622 273.083V272.443C36.9622 270.747 37.3623 269.397 38.1623 268.395C38.9729 267.392 40.0769 266.891 41.4743 266.891C42.8609 266.891 43.9489 267.397 44.7383 268.411C45.5383 269.424 45.9383 270.757 45.9383 272.411V273.051C45.9383 274.736 45.5436 276.085 44.7543 277.099C43.9756 278.112 42.8929 278.619 41.5063 278.619Z" fill="white"/>
<path opacity="0.6" d="M6.37559 240.977H4.34759V246.413H3.35159V240.977H1.32359V240.137H6.37559V240.977ZM13.2689 240.137H14.2649V246.413H13.2689V240.137ZM7.86894 240.137H8.86494V242.333H9.98094C10.6929 242.333 11.2689 242.493 11.7089 242.813C12.1569 243.133 12.3809 243.637 12.3809 244.325V244.361C12.3809 245.041 12.1569 245.553 11.7089 245.897C11.2609 246.241 10.6849 246.413 9.98094 246.413H7.86894V240.137ZM10.0409 245.621C10.5129 245.621 10.8529 245.521 11.0609 245.321C11.2769 245.113 11.3849 244.793 11.3849 244.361V244.325C11.3849 243.925 11.2809 243.625 11.0729 243.425C10.8649 243.217 10.5209 243.113 10.0409 243.113H8.86494V245.621H10.0409ZM19.079 246.521C18.183 246.521 17.447 246.233 16.871 245.657C16.295 245.073 16.007 244.301 16.007 243.341V243.245C16.007 242.301 16.299 241.529 16.883 240.929C17.475 240.329 18.199 240.029 19.055 240.029C19.775 240.029 20.387 240.209 20.891 240.569C21.395 240.921 21.691 241.473 21.779 242.225H20.795C20.651 241.313 20.071 240.857 19.055 240.857C18.471 240.857 17.987 241.077 17.603 241.517C17.227 241.949 17.039 242.525 17.039 243.245V243.341C17.039 244.093 17.223 244.673 17.591 245.081C17.967 245.489 18.467 245.693 19.091 245.693C19.563 245.693 19.967 245.561 20.303 245.297C20.647 245.025 20.843 244.645 20.891 244.157H21.815C21.751 244.845 21.463 245.413 20.951 245.861C20.447 246.301 19.823 246.521 19.079 246.521ZM26.7345 240.137H27.7305V241.193C27.9145 240.873 28.2025 240.601 28.5945 240.377C28.9865 240.145 29.4065 240.029 29.8545 240.029C30.6945 240.029 31.3785 240.313 31.9065 240.881C32.4425 241.449 32.7105 242.217 32.7105 243.185V243.281C32.7105 244.249 32.4465 245.033 31.9185 245.633C31.3985 246.225 30.7105 246.521 29.8545 246.521C28.8945 246.521 28.1865 246.141 27.7305 245.381V248.597H26.7345V240.137ZM29.7585 245.693C30.3825 245.693 30.8585 245.493 31.1865 245.093C31.5145 244.685 31.6785 244.097 31.6785 243.329V243.233C31.6785 242.473 31.4945 241.889 31.1265 241.481C30.7665 241.065 30.3065 240.857 29.7465 240.857C29.1385 240.857 28.6425 241.061 28.2585 241.469C27.8825 241.869 27.6945 242.457 27.6945 243.233V243.329C27.6945 244.105 27.8785 244.693 28.2465 245.093C28.6225 245.493 29.1265 245.693 29.7585 245.693ZM36.0128 245.765L33.5528 240.137H34.6208L36.5408 244.637L38.2808 240.137H39.3008L35.8328 248.597H34.8248L36.0128 245.765ZM43.3603 246.521C42.4163 246.521 41.6683 246.217 41.1163 245.609C40.5643 245.001 40.2883 244.077 40.2883 242.837V242.453C40.2883 241.861 40.3123 241.337 40.3603 240.881C40.4083 240.417 40.5083 239.953 40.6603 239.489C40.8123 239.017 41.0123 238.625 41.2603 238.313C41.5083 238.001 41.8443 237.741 42.2683 237.533C42.7003 237.325 43.2083 237.205 43.7923 237.173L44.0323 237.161C44.9123 237.113 45.5083 237.025 45.8203 236.897L45.9523 237.737C45.5443 237.913 44.9083 238.021 44.0443 238.061L43.8643 238.073C42.8963 238.121 42.2043 238.437 41.7883 239.021C41.3803 239.597 41.1403 240.493 41.0683 241.709H41.1163C41.3323 241.269 41.6523 240.921 42.0763 240.665C42.5083 240.401 43.0083 240.269 43.5763 240.269C44.4483 240.269 45.1443 240.553 45.6643 241.121C46.1923 241.681 46.4563 242.409 46.4563 243.305V243.353C46.4563 244.321 46.1643 245.093 45.5803 245.669C45.0043 246.237 44.2643 246.521 43.3603 246.521ZM41.8603 245.081C42.2283 245.489 42.7323 245.693 43.3723 245.693C44.0123 245.693 44.5123 245.493 44.8723 245.093C45.2403 244.685 45.4243 244.109 45.4243 243.365V243.341C45.4243 242.645 45.2563 242.097 44.9203 241.697C44.5923 241.297 44.1123 241.097 43.4803 241.097C42.8163 241.097 42.2883 241.305 41.8963 241.721C41.5123 242.137 41.3203 242.705 41.3203 243.425V243.449C41.3203 244.129 41.5003 244.673 41.8603 245.081Z" fill="white"/>
<path d="M17.33 228.726L21.874 223.942C22.9727 222.779 23.522 221.675 23.522 220.63C23.522 219.99 23.3407 219.489 22.978 219.126C22.626 218.763 22.1247 218.582 21.474 218.582C20.0873 218.582 19.282 219.43 19.058 221.126H17.762C17.8473 219.995 18.2153 219.105 18.866 218.454C19.5273 217.793 20.3967 217.462 21.474 217.462C22.53 217.462 23.3673 217.755 23.986 218.342C24.6153 218.918 24.93 219.697 24.93 220.678C24.93 221.937 24.162 223.323 22.626 224.838L19.474 227.91H24.994V229.046H17.33V228.726ZM30.9563 229.19C30.3056 229.19 29.6869 229.073 29.1003 228.838C28.5136 228.593 28.0176 228.203 27.6123 227.67C27.2069 227.137 27.0043 226.513 27.0043 225.798C27.0043 225.062 27.2016 224.443 27.5963 223.942C27.9909 223.441 28.5136 223.073 29.1643 222.838C28.0123 222.379 27.4363 221.579 27.4363 220.438C27.4363 219.563 27.7883 218.849 28.4923 218.294C29.2069 217.739 30.0283 217.462 30.9563 217.462C31.8843 217.462 32.7003 217.739 33.4043 218.294C34.1083 218.838 34.4603 219.542 34.4603 220.406C34.4603 221.505 33.8736 222.31 32.7003 222.822C34.1616 223.366 34.8923 224.347 34.8923 225.766C34.8923 226.843 34.4976 227.686 33.7083 228.294C32.9296 228.891 32.0123 229.19 30.9563 229.19ZM30.9563 228.054C31.6923 228.054 32.2949 227.851 32.7643 227.446C33.2336 227.03 33.4683 226.454 33.4683 225.718C33.4683 225.003 33.2283 224.449 32.7483 224.054C32.2789 223.649 31.6923 223.446 30.9883 223.446C30.2629 223.446 29.6549 223.649 29.1643 224.054C28.6736 224.449 28.4283 225.014 28.4283 225.75C28.4283 226.465 28.6736 227.03 29.1643 227.446C29.6549 227.851 30.2523 228.054 30.9563 228.054ZM31.0043 222.342C31.6229 222.342 32.1189 222.171 32.4923 221.83C32.8656 221.489 33.0523 221.019 33.0523 220.422C33.0523 219.878 32.8549 219.43 32.4603 219.078C32.0656 218.726 31.5643 218.55 30.9563 218.55C30.3376 218.55 29.8309 218.721 29.4363 219.062C29.0416 219.403 28.8443 219.867 28.8443 220.454C28.8443 221.03 29.0523 221.489 29.4683 221.83C29.8843 222.171 30.3963 222.342 31.0043 222.342ZM41.5063 228.038C43.5223 228.038 44.5303 226.561 44.5303 223.606V222.966C44.5303 221.633 44.2583 220.571 43.7143 219.782C43.1703 218.982 42.4236 218.582 41.4743 218.582C40.5036 218.582 39.7463 218.966 39.2023 219.734C38.6583 220.502 38.3863 221.59 38.3863 222.998V223.638C38.3863 225.057 38.6636 226.145 39.2183 226.902C39.7729 227.659 40.5356 228.038 41.5063 228.038ZM41.5063 229.19C40.1409 229.19 39.0423 228.683 38.2103 227.67C37.3783 226.657 36.9622 225.318 36.9622 223.654V223.014C36.9622 221.318 37.3623 219.969 38.1623 218.966C38.9729 217.963 40.0769 217.462 41.4743 217.462C42.8609 217.462 43.9489 217.969 44.7383 218.982C45.5383 219.995 45.9383 221.329 45.9383 222.982V223.622C45.9383 225.307 45.5436 226.657 44.7543 227.67C43.9756 228.683 42.8929 229.19 41.5063 229.19Z" fill="white"/>
<circle cx="184" cy="224" r="4" fill="#F1D5C0"/>
<circle cx="99" cy="321" r="4" fill="#F1D5C0"/>
<circle cx="269" cy="172" r="4" fill="#F1D5C0"/>
<circle cx="358" cy="141" r="4" fill="#F1D5C0"/>
<circle cx="440" cy="80" r="4" fill="#F1D5C0"/>
<circle cx="525" cy="24" r="4" fill="#F1D5C0"/>
<path opacity="0.6" d="M6.37559 92.564H4.34759V98H3.35159V92.564H1.32359V91.724H6.37559V92.564ZM13.2689 91.724H14.2649V98H13.2689V91.724ZM7.86894 91.724H8.86494V93.92H9.98094C10.6929 93.92 11.2689 94.08 11.7089 94.4C12.1569 94.72 12.3809 95.224 12.3809 95.912V95.948C12.3809 96.628 12.1569 97.14 11.7089 97.484C11.2609 97.828 10.6849 98 9.98094 98H7.86894V91.724ZM10.0409 97.208C10.5129 97.208 10.8529 97.108 11.0609 96.908C11.2769 96.7 11.3849 96.38 11.3849 95.948V95.912C11.3849 95.512 11.2809 95.212 11.0729 95.012C10.8649 94.804 10.5209 94.7 10.0409 94.7H8.86494V97.208H10.0409ZM19.079 98.108C18.183 98.108 17.447 97.82 16.871 97.244C16.295 96.66 16.007 95.888 16.007 94.928V94.832C16.007 93.888 16.299 93.116 16.883 92.516C17.475 91.916 18.199 91.616 19.055 91.616C19.775 91.616 20.387 91.796 20.891 92.156C21.395 92.508 21.691 93.06 21.779 93.812H20.795C20.651 92.9 20.071 92.444 19.055 92.444C18.471 92.444 17.987 92.664 17.603 93.104C17.227 93.536 17.039 94.112 17.039 94.832V94.928C17.039 95.68 17.223 96.26 17.591 96.668C17.967 97.076 18.467 97.28 19.091 97.28C19.563 97.28 19.967 97.148 20.303 96.884C20.647 96.612 20.843 96.232 20.891 95.744H21.815C21.751 96.432 21.463 97 20.951 97.448C20.447 97.888 19.823 98.108 19.079 98.108ZM26.7345 91.724H27.7305V92.78C27.9145 92.46 28.2025 92.188 28.5945 91.964C28.9865 91.732 29.4065 91.616 29.8545 91.616C30.6945 91.616 31.3785 91.9 31.9065 92.468C32.4425 93.036 32.7105 93.804 32.7105 94.772V94.868C32.7105 95.836 32.4465 96.62 31.9185 97.22C31.3985 97.812 30.7105 98.108 29.8545 98.108C28.8945 98.108 28.1865 97.728 27.7305 96.968V100.184H26.7345V91.724ZM29.7585 97.28C30.3825 97.28 30.8585 97.08 31.1865 96.68C31.5145 96.272 31.6785 95.684 31.6785 94.916V94.82C31.6785 94.06 31.4945 93.476 31.1265 93.068C30.7665 92.652 30.3065 92.444 29.7465 92.444C29.1385 92.444 28.6425 92.648 28.2585 93.056C27.8825 93.456 27.6945 94.044 27.6945 94.82V94.916C27.6945 95.692 27.8785 96.28 28.2465 96.68C28.6225 97.08 29.1265 97.28 29.7585 97.28ZM36.0128 97.352L33.5528 91.724H34.6208L36.5408 96.224L38.2808 91.724H39.3008L35.8328 100.184H34.8248L36.0128 97.352ZM43.3603 98.108C42.4163 98.108 41.6683 97.804 41.1163 97.196C40.5643 96.588 40.2883 95.664 40.2883 94.424V94.04C40.2883 93.448 40.3123 92.924 40.3603 92.468C40.4083 92.004 40.5083 91.54 40.6603 91.076C40.8123 90.604 41.0123 90.212 41.2603 89.9C41.5083 89.588 41.8443 89.328 42.2683 89.12C42.7003 88.912 43.2083 88.792 43.7923 88.76L44.0323 88.748C44.9123 88.7 45.5083 88.612 45.8203 88.484L45.9523 89.324C45.5443 89.5 44.9083 89.608 44.0443 89.648L43.8643 89.66C42.8963 89.708 42.2043 90.024 41.7883 90.608C41.3803 91.184 41.1403 92.08 41.0683 93.296H41.1163C41.3323 92.856 41.6523 92.508 42.0763 92.252C42.5083 91.988 43.0083 91.856 43.5763 91.856C44.4483 91.856 45.1443 92.14 45.6643 92.708C46.1923 93.268 46.4563 93.996 46.4563 94.892V94.94C46.4563 95.908 46.1643 96.68 45.5803 97.256C45.0043 97.824 44.2643 98.108 43.3603 98.108ZM41.8603 96.668C42.2283 97.076 42.7323 97.28 43.3723 97.28C44.0123 97.28 44.5123 97.08 44.8723 96.68C45.2403 96.272 45.4243 95.696 45.4243 94.952V94.928C45.4243 94.232 45.2563 93.684 44.9203 93.284C44.5923 92.884 44.1123 92.684 43.4803 92.684C42.8163 92.684 42.2883 92.892 41.8963 93.308C41.5123 93.724 41.3203 94.292 41.3203 95.012V95.036C41.3203 95.716 41.5003 96.26 41.8603 96.668Z" fill="white"/>
<path d="M23.9629 82.144C22.7789 82.144 21.8242 81.8133 21.0989 81.152C20.3842 80.4907 20.0055 79.648 19.9629 78.624H21.2429C21.3069 79.3493 21.5682 79.9307 22.0269 80.368C22.4855 80.8053 23.1415 81.024 23.9949 81.024C24.8695 81.024 25.5202 80.832 25.9469 80.448C26.3842 80.0533 26.6029 79.5093 26.6029 78.816C26.6029 77.3333 25.7975 76.592 24.1869 76.592H23.3229V75.424H24.1229C25.5522 75.424 26.2669 74.7733 26.2669 73.472C26.2669 72.9067 26.0909 72.448 25.7389 72.096C25.3869 71.7333 24.8695 71.552 24.1869 71.552C23.4829 71.552 22.9015 71.7493 22.4429 72.144C21.9949 72.5387 21.7335 73.0613 21.6589 73.712H20.4429C20.4855 72.7947 20.8535 72.016 21.5469 71.376C22.2402 70.736 23.1202 70.416 24.1869 70.416C25.2322 70.416 26.0642 70.7147 26.6829 71.312C27.3122 71.8987 27.6269 72.608 27.6269 73.44C27.6269 74.6027 27.0242 75.4347 25.8189 75.936C27.2909 76.3413 28.0269 77.3013 28.0269 78.816C28.0269 79.8507 27.6482 80.6667 26.8909 81.264C26.1442 81.8507 25.1682 82.144 23.9629 82.144ZM32.3521 71.936L29.7921 73.776V72.48L32.4481 70.56H33.7441V82H32.3521V71.936ZM41.5063 80.992C43.5223 80.992 44.5303 79.5147 44.5303 76.56V75.92C44.5303 74.5867 44.2583 73.5253 43.7143 72.736C43.1703 71.936 42.4236 71.536 41.4743 71.536C40.5036 71.536 39.7463 71.92 39.2023 72.688C38.6583 73.456 38.3863 74.544 38.3863 75.952V76.592C38.3863 78.0107 38.6636 79.0987 39.2183 79.856C39.7729 80.6133 40.5356 80.992 41.5063 80.992ZM41.5063 82.144C40.1409 82.144 39.0423 81.6373 38.2103 80.624C37.3783 79.6107 36.9622 78.272 36.9622 76.608V75.968C36.9622 74.272 37.3623 72.9227 38.1623 71.92C38.9729 70.9173 40.0769 70.416 41.4743 70.416C42.8609 70.416 43.9489 70.9227 44.7383 71.936C45.5383 72.9493 45.9383 74.2827 45.9383 75.936V76.576C45.9383 78.2613 45.5436 79.6107 44.7543 80.624C43.9756 81.6373 42.8929 82.144 41.5063 82.144Z" fill="white"/>
<path opacity="0.6" d="M6.37559 45.564H4.34759V51H3.35159V45.564H1.32359V44.724H6.37559V45.564ZM13.2689 44.724H14.2649V51H13.2689V44.724ZM7.86894 44.724H8.86494V46.92H9.98094C10.6929 46.92 11.2689 47.08 11.7089 47.4C12.1569 47.72 12.3809 48.224 12.3809 48.912V48.948C12.3809 49.628 12.1569 50.14 11.7089 50.484C11.2609 50.828 10.6849 51 9.98094 51H7.86894V44.724ZM10.0409 50.208C10.5129 50.208 10.8529 50.108 11.0609 49.908C11.2769 49.7 11.3849 49.38 11.3849 48.948V48.912C11.3849 48.512 11.2809 48.212 11.0729 48.012C10.8649 47.804 10.5209 47.7 10.0409 47.7H8.86494V50.208H10.0409ZM19.079 51.108C18.183 51.108 17.447 50.82 16.871 50.244C16.295 49.66 16.007 48.888 16.007 47.928V47.832C16.007 46.888 16.299 46.116 16.883 45.516C17.475 44.916 18.199 44.616 19.055 44.616C19.775 44.616 20.387 44.796 20.891 45.156C21.395 45.508 21.691 46.06 21.779 46.812H20.795C20.651 45.9 20.071 45.444 19.055 45.444C18.471 45.444 17.987 45.664 17.603 46.104C17.227 46.536 17.039 47.112 17.039 47.832V47.928C17.039 48.68 17.223 49.26 17.591 49.668C17.967 50.076 18.467 50.28 19.091 50.28C19.563 50.28 19.967 50.148 20.303 49.884C20.647 49.612 20.843 49.232 20.891 48.744H21.815C21.751 49.432 21.463 50 20.951 50.448C20.447 50.888 19.823 51.108 19.079 51.108ZM26.7345 44.724H27.7305V45.78C27.9145 45.46 28.2025 45.188 28.5945 44.964C28.9865 44.732 29.4065 44.616 29.8545 44.616C30.6945 44.616 31.3785 44.9 31.9065 45.468C32.4425 46.036 32.7105 46.804 32.7105 47.772V47.868C32.7105 48.836 32.4465 49.62 31.9185 50.22C31.3985 50.812 30.7105 51.108 29.8545 51.108C28.8945 51.108 28.1865 50.728 27.7305 49.968V53.184H26.7345V44.724ZM29.7585 50.28C30.3825 50.28 30.8585 50.08 31.1865 49.68C31.5145 49.272 31.6785 48.684 31.6785 47.916V47.82C31.6785 47.06 31.4945 46.476 31.1265 46.068C30.7665 45.652 30.3065 45.444 29.7465 45.444C29.1385 45.444 28.6425 45.648 28.2585 46.056C27.8825 46.456 27.6945 47.044 27.6945 47.82V47.916C27.6945 48.692 27.8785 49.28 28.2465 49.68C28.6225 50.08 29.1265 50.28 29.7585 50.28ZM36.0128 50.352L33.5528 44.724H34.6208L36.5408 49.224L38.2808 44.724H39.3008L35.8328 53.184H34.8248L36.0128 50.352ZM43.3603 51.108C42.4163 51.108 41.6683 50.804 41.1163 50.196C40.5643 49.588 40.2883 48.664 40.2883 47.424V47.04C40.2883 46.448 40.3123 45.924 40.3603 45.468C40.4083 45.004 40.5083 44.54 40.6603 44.076C40.8123 43.604 41.0123 43.212 41.2603 42.9C41.5083 42.588 41.8443 42.328 42.2683 42.12C42.7003 41.912 43.2083 41.792 43.7923 41.76L44.0323 41.748C44.9123 41.7 45.5083 41.612 45.8203 41.484L45.9523 42.324C45.5443 42.5 44.9083 42.608 44.0443 42.648L43.8643 42.66C42.8963 42.708 42.2043 43.024 41.7883 43.608C41.3803 44.184 41.1403 45.08 41.0683 46.296H41.1163C41.3323 45.856 41.6523 45.508 42.0763 45.252C42.5083 44.988 43.0083 44.856 43.5763 44.856C44.4483 44.856 45.1443 45.14 45.6643 45.708C46.1923 46.268 46.4563 46.996 46.4563 47.892V47.94C46.4563 48.908 46.1643 49.68 45.5803 50.256C45.0043 50.824 44.2643 51.108 43.3603 51.108ZM41.8603 49.668C42.2283 50.076 42.7323 50.28 43.3723 50.28C44.0123 50.28 44.5123 50.08 44.8723 49.68C45.2403 49.272 45.4243 48.696 45.4243 47.952V47.928C45.4243 47.232 45.2563 46.684 44.9203 46.284C44.5923 45.884 44.1123 45.684 43.4803 45.684C42.8163 45.684 42.2883 45.892 41.8963 46.308C41.5123 46.724 41.3203 47.292 41.3203 48.012V48.036C41.3203 48.716 41.5003 49.26 41.8603 49.668Z" fill="white"/>
<path d="M21.4785 36.144C20.2945 36.144 19.3398 35.8133 18.6145 35.152C17.8998 34.4907 17.5212 33.648 17.4785 32.624H18.7585C18.8225 33.3493 19.0838 33.9307 19.5425 34.368C20.0012 34.8053 20.6572 35.024 21.5105 35.024C22.3852 35.024 23.0358 34.832 23.4625 34.448C23.8998 34.0533 24.1185 33.5093 24.1185 32.816C24.1185 31.3333 23.3132 30.592 21.7025 30.592H20.8385V29.424H21.6385C23.0678 29.424 23.7825 28.7733 23.7825 27.472C23.7825 26.9067 23.6065 26.448 23.2545 26.096C22.9025 25.7333 22.3852 25.552 21.7025 25.552C20.9985 25.552 20.4172 25.7493 19.9585 26.144C19.5105 26.5387 19.2492 27.0613 19.1745 27.712H17.9585C18.0012 26.7947 18.3692 26.016 19.0625 25.376C19.7558 24.736 20.6358 24.416 21.7025 24.416C22.7478 24.416 23.5798 24.7147 24.1985 25.312C24.8278 25.8987 25.1425 26.608 25.1425 27.44C25.1425 28.6027 24.5398 29.4347 23.3345 29.936C24.8065 30.3413 25.5425 31.3013 25.5425 32.816C25.5425 33.8507 25.1638 34.6667 24.4065 35.264C23.6598 35.8507 22.6838 36.144 21.4785 36.144ZM27.1619 35.68L31.7059 30.896C32.8045 29.7333 33.3539 28.6293 33.3539 27.584C33.3539 26.944 33.1725 26.4427 32.8099 26.08C32.4579 25.7173 31.9565 25.536 31.3059 25.536C29.9192 25.536 29.1139 26.384 28.8899 28.08H27.5939C27.6792 26.9493 28.0472 26.0587 28.6979 25.408C29.3592 24.7467 30.2285 24.416 31.3059 24.416C32.3619 24.416 33.1992 24.7093 33.8179 25.296C34.4472 25.872 34.7619 26.6507 34.7619 27.632C34.7619 28.8907 33.9939 30.2773 32.4579 31.792L29.3059 34.864H34.8259V36H27.1619V35.68ZM41.5063 34.992C43.5223 34.992 44.5303 33.5147 44.5303 30.56V29.92C44.5303 28.5867 44.2583 27.5253 43.7143 26.736C43.1703 25.936 42.4236 25.536 41.4743 25.536C40.5036 25.536 39.7463 25.92 39.2023 26.688C38.6583 27.456 38.3863 28.544 38.3863 29.952V30.592C38.3863 32.0107 38.6636 33.0987 39.2183 33.856C39.7729 34.6133 40.5356 34.992 41.5063 34.992ZM41.5063 36.144C40.1409 36.144 39.0423 35.6373 38.2103 34.624C37.3783 33.6107 36.9622 32.272 36.9622 30.608V29.968C36.9622 28.272 37.3623 26.9227 38.1623 25.92C38.9729 24.9173 40.0769 24.416 41.4743 24.416C42.8609 24.416 43.9489 24.9227 44.7383 25.936C45.5383 26.9493 45.9383 28.2827 45.9383 29.936V30.576C45.9383 32.2613 45.5436 33.6107 44.7543 34.624C43.9756 35.6373 42.8929 36.144 41.5063 36.144Z" fill="white"/>
<rect opacity="0.3" x="98" y="321" width="1" height="53" fill="#F1D5C0"/>
<rect opacity="0.3" x="184" y="222" width="1" height="152" fill="#F1D5C0"/>
<rect opacity="0.3" x="269" y="171" width="1" height="203" fill="#F1D5C0"/>
<rect opacity="0.3" x="357" y="142" width="1" height="232" fill="#F1D5C0"/>
<rect opacity="0.3" x="440" y="82" width="1" height="292" fill="#F1D5C0"/>
<rect opacity="0.3" x="525" y="25" width="1" height="349" fill="#F1D5C0"/>
<path d="M65 358L98.5247 321.018L186.104 222.482L268.445 171.132L357.5 141.5L440.647 80.2667L526.101 23.6749L578.5 1" stroke="#F1D5C0"/>
<defs>
<radialGradient id="paint0_radial_718:1214" cx="0" cy="0" r="1" gradientUnits="userSpaceOnUse" gradientTransform="translate(315.607 164.54) rotate(56.8988) scale(201.29 326.302)">
<stop stop-color="#F1D5C0"/>
<stop offset="1" stop-color="#F1D5C0" stop-opacity="0"/>
</radialGradient>
</defs>
</svg>
