<svg width="440" height="347" viewBox="0 0 440 347" fill="none" xmlns="http://www.w3.org/2000/svg">
<path opacity="0.6" d="M4.059 5.923H2.538V10H1.791V5.923H0.27V5.293H4.059V5.923ZM9.22901 5.293H9.97601V10H9.22901V5.293ZM5.17901 5.293H5.92601V6.94H6.76301C7.29701 6.94 7.72901 7.06 8.05901 7.3C8.39501 7.54 8.56301 7.918 8.56301 8.434V8.461C8.56301 8.971 8.39501 9.355 8.05901 9.613C7.72301 9.871 7.29101 10 6.76301 10H5.17901V5.293ZM6.80801 9.406C7.16201 9.406 7.41701 9.331 7.57301 9.181C7.73501 9.025 7.81601 8.785 7.81601 8.461V8.434C7.81601 8.134 7.73801 7.909 7.58201 7.759C7.42601 7.603 7.16801 7.525 6.80801 7.525H5.92601V9.406H6.80801ZM13.5866 10.081C12.9146 10.081 12.3626 9.865 11.9306 9.433C11.4986 8.995 11.2826 8.416 11.2826 7.696V7.624C11.2826 6.916 11.5016 6.337 11.9396 5.887C12.3836 5.437 12.9266 5.212 13.5686 5.212C14.1086 5.212 14.5676 5.347 14.9456 5.617C15.3236 5.881 15.5456 6.295 15.6116 6.859H14.8736C14.7656 6.175 14.3306 5.833 13.5686 5.833C13.1306 5.833 12.7676 5.998 12.4796 6.328C12.1976 6.652 12.0566 7.084 12.0566 7.624V7.696C12.0566 8.26 12.1946 8.695 12.4706 9.001C12.7526 9.307 13.1276 9.46 13.5956 9.46C13.9496 9.46 14.2526 9.361 14.5046 9.163C14.7626 8.959 14.9096 8.674 14.9456 8.308H15.6386C15.5906 8.824 15.3746 9.25 14.9906 9.586C14.6126 9.916 14.1446 10.081 13.5866 10.081ZM19.3282 5.293H20.0752V6.085C20.2132 5.845 20.4292 5.641 20.7232 5.473C21.0172 5.299 21.3322 5.212 21.6682 5.212C22.2982 5.212 22.8112 5.425 23.2072 5.851C23.6092 6.277 23.8102 6.853 23.8102 7.579V7.651C23.8102 8.377 23.6122 8.965 23.2162 9.415C22.8262 9.859 22.3102 10.081 21.6682 10.081C20.9482 10.081 20.4172 9.796 20.0752 9.226V11.638H19.3282V5.293ZM21.5962 9.46C22.0642 9.46 22.4212 9.31 22.6672 9.01C22.9132 8.704 23.0362 8.263 23.0362 7.687V7.615C23.0362 7.045 22.8982 6.607 22.6222 6.301C22.3522 5.989 22.0072 5.833 21.5872 5.833C21.1312 5.833 20.7592 5.986 20.4712 6.292C20.1892 6.592 20.0482 7.033 20.0482 7.615V7.687C20.0482 8.269 20.1862 8.71 20.4622 9.01C20.7442 9.31 21.1222 9.46 21.5962 9.46ZM26.2869 9.514L24.4419 5.293H25.2429L26.6829 8.668L27.9879 5.293H28.7529L26.1519 11.638H25.3959L26.2869 9.514ZM31.7976 10.081C31.0896 10.081 30.5286 9.853 30.1146 9.397C29.7006 8.941 29.4936 8.248 29.4936 7.318V7.03C29.4936 6.586 29.5116 6.193 29.5476 5.851C29.5836 5.503 29.6586 5.155 29.7726 4.807C29.8866 4.453 30.0366 4.159 30.2226 3.925C30.4086 3.691 30.6606 3.496 30.9786 3.34C31.3026 3.184 31.6836 3.094 32.1216 3.07L32.3016 3.061C32.9616 3.025 33.4086 2.959 33.6426 2.863L33.7416 3.493C33.4356 3.625 32.9586 3.706 32.3106 3.736L32.1756 3.745C31.4496 3.781 30.9306 4.018 30.6186 4.456C30.3126 4.888 30.1326 5.56 30.0786 6.472H30.1146C30.2766 6.142 30.5166 5.881 30.8346 5.689C31.1586 5.491 31.5336 5.392 31.9596 5.392C32.6136 5.392 33.1356 5.605 33.5256 6.031C33.9216 6.451 34.1196 6.997 34.1196 7.669V7.705C34.1196 8.431 33.9006 9.01 33.4626 9.442C33.0306 9.868 32.4756 10.081 31.7976 10.081ZM30.6726 9.001C30.9486 9.307 31.3266 9.46 31.8066 9.46C32.2866 9.46 32.6616 9.31 32.9316 9.01C33.2076 8.704 33.3456 8.272 33.3456 7.714V7.696C33.3456 7.174 33.2196 6.763 32.9676 6.463C32.7216 6.163 32.3616 6.013 31.8876 6.013C31.3896 6.013 30.9936 6.169 30.6996 6.481C30.4116 6.793 30.2676 7.219 30.2676 7.759V7.777C30.2676 8.287 30.4026 8.695 30.6726 9.001Z" fill="white"/>
<path d="M0.25 191.8L3.09 188.81C3.77667 188.083 4.12 187.393 4.12 186.74C4.12 186.34 4.00667 186.027 3.78 185.8C3.56 185.573 3.24667 185.46 2.84 185.46C1.97333 185.46 1.47 185.99 1.33 187.05H0.52C0.573333 186.343 0.803333 185.787 1.21 185.38C1.62333 184.967 2.16667 184.76 2.84 184.76C3.5 184.76 4.02333 184.943 4.41 185.31C4.80333 185.67 5 186.157 5 186.77C5 187.557 4.52 188.423 3.56 189.37L1.59 191.29H5.04V192H0.25V191.8ZM8.72406 192.08C8.07073 192.08 7.5474 191.92 7.15406 191.6C6.76073 191.28 6.5174 190.827 6.42406 190.24H7.26406C7.35073 190.613 7.5074 190.897 7.73406 191.09C7.9674 191.277 8.30406 191.37 8.74406 191.37C9.32406 191.37 9.77073 191.133 10.0841 190.66C10.3974 190.187 10.5607 189.477 10.5741 188.53C10.3941 188.83 10.1441 189.063 9.82406 189.23C9.50406 189.397 9.1374 189.48 8.72406 189.48C8.03073 189.48 7.46406 189.26 7.02406 188.82C6.59073 188.38 6.37406 187.82 6.37406 187.14C6.37406 186.42 6.5974 185.843 7.04406 185.41C7.49073 184.97 8.09073 184.75 8.84406 184.75C9.69073 184.75 10.3307 185.023 10.7641 185.57C11.1974 186.117 11.4141 186.91 11.4141 187.95V188.4C11.4141 189.593 11.1807 190.507 10.7141 191.14C10.2541 191.767 9.59073 192.08 8.72406 192.08ZM8.85406 188.8C9.33406 188.8 9.7274 188.657 10.0341 188.37C10.3407 188.083 10.4941 187.71 10.4941 187.25C10.4941 186.677 10.3407 186.23 10.0341 185.91C9.73406 185.59 9.3374 185.43 8.84406 185.43C8.3774 185.43 7.9974 185.583 7.70406 185.89C7.41073 186.197 7.26406 186.6 7.26406 187.1C7.26406 187.62 7.4074 188.033 7.69406 188.34C7.98073 188.647 8.3674 188.8 8.85406 188.8ZM15.6824 191.37C16.9424 191.37 17.5724 190.447 17.5724 188.6V188.2C17.5724 187.367 17.4024 186.703 17.0624 186.21C16.7224 185.71 16.2558 185.46 15.6624 185.46C15.0558 185.46 14.5824 185.7 14.2424 186.18C13.9024 186.66 13.7324 187.34 13.7324 188.22V188.62C13.7324 189.507 13.9058 190.187 14.2524 190.66C14.5991 191.133 15.0758 191.37 15.6824 191.37ZM15.6824 192.09C14.8291 192.09 14.1424 191.773 13.6224 191.14C13.1024 190.507 12.8424 189.67 12.8424 188.63V188.23C12.8424 187.17 13.0924 186.327 13.5924 185.7C14.0991 185.073 14.7891 184.76 15.6624 184.76C16.5291 184.76 17.2091 185.077 17.7024 185.71C18.2024 186.343 18.4524 187.177 18.4524 188.21V188.61C18.4524 189.663 18.2058 190.507 17.7124 191.14C17.2258 191.773 16.5491 192.09 15.6824 192.09Z" fill="white"/>
<path d="M2.96 154.09C2.22 154.09 1.62333 153.883 1.17 153.47C0.723333 153.057 0.486667 152.53 0.46 151.89H1.26C1.3 152.343 1.46333 152.707 1.75 152.98C2.03667 153.253 2.44667 153.39 2.98 153.39C3.52667 153.39 3.93333 153.27 4.2 153.03C4.47333 152.783 4.61 152.443 4.61 152.01C4.61 151.083 4.10667 150.62 3.1 150.62H2.56V149.89H3.06C3.95333 149.89 4.4 149.483 4.4 148.67C4.4 148.317 4.29 148.03 4.07 147.81C3.85 147.583 3.52667 147.47 3.1 147.47C2.66 147.47 2.29667 147.593 2.01 147.84C1.73 148.087 1.56667 148.413 1.52 148.82H0.76C0.786667 148.247 1.01667 147.76 1.45 147.36C1.88333 146.96 2.43333 146.76 3.1 146.76C3.75333 146.76 4.27333 146.947 4.66 147.32C5.05333 147.687 5.25 148.13 5.25 148.65C5.25 149.377 4.87333 149.897 4.12 150.21C5.04 150.463 5.5 151.063 5.5 152.01C5.5 152.657 5.26333 153.167 4.79 153.54C4.32333 153.907 3.71333 154.09 2.96 154.09ZM9.76211 153.37C11.0221 153.37 11.6521 152.447 11.6521 150.6V150.2C11.6521 149.367 11.4821 148.703 11.1421 148.21C10.8021 147.71 10.3354 147.46 9.74211 147.46C9.13544 147.46 8.66211 147.7 8.32211 148.18C7.98211 148.66 7.81211 149.34 7.81211 150.22V150.62C7.81211 151.507 7.98544 152.187 8.33211 152.66C8.67878 153.133 9.15544 153.37 9.76211 153.37ZM9.76211 154.09C8.90878 154.09 8.22211 153.773 7.70211 153.14C7.18211 152.507 6.92211 151.67 6.92211 150.63V150.23C6.92211 149.17 7.17211 148.327 7.67211 147.7C8.17878 147.073 8.86878 146.76 9.74211 146.76C10.6088 146.76 11.2888 147.077 11.7821 147.71C12.2821 148.343 12.5321 149.177 12.5321 150.21V150.61C12.5321 151.663 12.2854 152.507 11.7921 153.14C11.3054 153.773 10.6288 154.09 9.76211 154.09ZM16.7957 153.37C18.0557 153.37 18.6857 152.447 18.6857 150.6V150.2C18.6857 149.367 18.5157 148.703 18.1757 148.21C17.8357 147.71 17.369 147.46 16.7757 147.46C16.169 147.46 15.6957 147.7 15.3557 148.18C15.0157 148.66 14.8457 149.34 14.8457 150.22V150.62C14.8457 151.507 15.019 152.187 15.3657 152.66C15.7124 153.133 16.189 153.37 16.7957 153.37ZM16.7957 154.09C15.9424 154.09 15.2557 153.773 14.7357 153.14C14.2157 152.507 13.9557 151.67 13.9557 150.63V150.23C13.9557 149.17 14.2057 148.327 14.7057 147.7C15.2124 147.073 15.9024 146.76 16.7757 146.76C17.6424 146.76 18.3224 147.077 18.8157 147.71C19.3157 148.343 19.5657 149.177 19.5657 150.21V150.61C19.5657 151.663 19.319 152.507 18.8257 153.14C18.339 153.773 17.6624 154.09 16.7957 154.09Z" fill="white"/>
<path d="M0.25 304.8L3.09 301.81C3.77667 301.083 4.12 300.393 4.12 299.74C4.12 299.34 4.00667 299.027 3.78 298.8C3.56 298.573 3.24667 298.46 2.84 298.46C1.97333 298.46 1.47 298.99 1.33 300.05H0.52C0.573333 299.343 0.803333 298.787 1.21 298.38C1.62333 297.967 2.16667 297.76 2.84 297.76C3.5 297.76 4.02333 297.943 4.41 298.31C4.80333 298.67 5 299.157 5 299.77C5 300.557 4.52 301.423 3.56 302.37L1.59 304.29H5.04V305H0.25V304.8ZM8.89641 305.09C7.18307 305.09 6.32641 304.007 6.32641 301.84V301.67C6.32641 300.417 6.57974 299.453 7.08641 298.78C7.59974 298.1 8.27974 297.76 9.12641 297.76C9.69974 297.76 10.1664 297.907 10.5264 298.2C10.8931 298.493 11.1231 298.923 11.2164 299.49H10.3864C10.3064 299.143 10.1631 298.887 9.95641 298.72C9.74974 298.553 9.45307 298.47 9.06641 298.47C8.51307 298.47 8.06641 298.717 7.72641 299.21C7.38641 299.703 7.20641 300.41 7.18641 301.33C7.57307 300.683 8.18641 300.36 9.02641 300.36C9.72641 300.36 10.2897 300.583 10.7164 301.03C11.1497 301.47 11.3664 302.027 11.3664 302.7C11.3664 303.42 11.1431 304 10.6964 304.44C10.2497 304.873 9.64974 305.09 8.89641 305.09ZM8.89641 304.41C9.36307 304.41 9.74307 304.257 10.0364 303.95C10.3297 303.643 10.4764 303.24 10.4764 302.74C10.4764 302.22 10.3331 301.807 10.0464 301.5C9.75974 301.193 9.37307 301.04 8.88641 301.04C8.40641 301.04 8.01307 301.187 7.70641 301.48C7.39974 301.773 7.24641 302.153 7.24641 302.62C7.24641 303.187 7.39641 303.627 7.69641 303.94C8.00307 304.253 8.40307 304.41 8.89641 304.41ZM15.5262 304.37C16.7862 304.37 17.4162 303.447 17.4162 301.6V301.2C17.4162 300.367 17.2462 299.703 16.9062 299.21C16.5662 298.71 16.0995 298.46 15.5062 298.46C14.8995 298.46 14.4262 298.7 14.0862 299.18C13.7462 299.66 13.5762 300.34 13.5762 301.22V301.62C13.5762 302.507 13.7495 303.187 14.0962 303.66C14.4428 304.133 14.9195 304.37 15.5262 304.37ZM15.5262 305.09C14.6728 305.09 13.9862 304.773 13.4662 304.14C12.9462 303.507 12.6862 302.67 12.6862 301.63V301.23C12.6862 300.17 12.9362 299.327 13.4362 298.7C13.9428 298.073 14.6328 297.76 15.5062 297.76C16.3728 297.76 17.0528 298.077 17.5462 298.71C18.0462 299.343 18.2962 300.177 18.2962 301.21V301.61C18.2962 302.663 18.0495 303.507 17.5562 304.14C17.0695 304.773 16.3928 305.09 15.5262 305.09Z" fill="white"/>
<path opacity="0.6" d="M205.234 327.081C204.772 327.081 204.394 326.967 204.1 326.739C203.812 326.505 203.668 326.157 203.668 325.695C203.668 325.437 203.731 325.212 203.857 325.02C203.989 324.822 204.169 324.669 204.397 324.561C204.625 324.447 204.874 324.366 205.144 324.318C205.414 324.264 205.708 324.237 206.026 324.237H206.701V323.895C206.701 323.517 206.623 323.247 206.467 323.085C206.311 322.917 206.053 322.833 205.693 322.833C205.045 322.833 204.685 323.115 204.613 323.679H203.866C203.914 323.175 204.109 322.806 204.451 322.572C204.799 322.332 205.225 322.212 205.729 322.212C206.875 322.212 207.448 322.773 207.448 323.895V327H206.701V326.406C206.341 326.856 205.852 327.081 205.234 327.081ZM205.306 326.487C205.714 326.487 206.047 326.388 206.305 326.19C206.569 325.986 206.701 325.707 206.701 325.353V324.768H206.053C204.961 324.768 204.415 325.077 204.415 325.695C204.415 326.223 204.712 326.487 205.306 326.487ZM211.922 322.923H209.699V327H208.952V322.293H212.669V327H211.922V322.923ZM214.325 322.293H215.072V323.085C215.21 322.845 215.426 322.641 215.72 322.473C216.014 322.299 216.329 322.212 216.665 322.212C217.295 322.212 217.808 322.425 218.204 322.851C218.606 323.277 218.807 323.853 218.807 324.579V324.651C218.807 325.377 218.609 325.965 218.213 326.415C217.823 326.859 217.307 327.081 216.665 327.081C215.945 327.081 215.414 326.796 215.072 326.226V328.638H214.325V322.293ZM216.593 326.46C217.061 326.46 217.418 326.31 217.664 326.01C217.91 325.704 218.033 325.263 218.033 324.687V324.615C218.033 324.045 217.895 323.607 217.619 323.301C217.349 322.989 217.004 322.833 216.584 322.833C216.128 322.833 215.756 322.986 215.468 323.292C215.186 323.592 215.045 324.033 215.045 324.615V324.687C215.045 325.269 215.183 325.71 215.459 326.01C215.741 326.31 216.119 326.46 216.593 326.46ZM221.984 327.081C221.312 327.081 220.763 326.862 220.337 326.424C219.917 325.986 219.707 325.41 219.707 324.696V324.624C219.707 323.916 219.911 323.337 220.319 322.887C220.733 322.437 221.264 322.212 221.912 322.212C222.512 322.212 223.013 322.407 223.415 322.797C223.823 323.181 224.027 323.766 224.027 324.552V324.795H220.481C220.517 325.905 221.021 326.46 221.993 326.46C222.731 326.46 223.148 326.187 223.244 325.641H223.991C223.907 326.109 223.688 326.466 223.334 326.712C222.98 326.958 222.53 327.081 221.984 327.081ZM223.262 324.192C223.196 323.286 222.746 322.833 221.912 322.833C221.534 322.833 221.222 322.953 220.976 323.193C220.73 323.433 220.574 323.766 220.508 324.192H223.262ZM226.153 325.182C226.099 325.83 225.985 326.304 225.811 326.604C225.637 326.898 225.364 327.045 224.992 327.045C224.914 327.045 224.833 327.039 224.749 327.027L224.677 327V326.289L224.74 326.307C224.8 326.319 224.863 326.325 224.929 326.325C225.025 326.325 225.103 326.298 225.163 326.244C225.229 326.184 225.28 326.091 225.316 325.965C225.358 325.839 225.388 325.722 225.406 325.614C225.424 325.5 225.445 325.341 225.469 325.137C225.493 324.921 225.529 324.309 225.577 323.301L225.604 322.293H228.709V327H227.962V322.923H226.27C226.216 324.219 226.177 324.972 226.153 325.182ZM230.309 322.293H231.056V323.94H231.893C232.421 323.94 232.853 324.069 233.189 324.327C233.525 324.585 233.693 324.969 233.693 325.479V325.506C233.693 326.022 233.525 326.4 233.189 326.64C232.859 326.88 232.427 327 231.893 327H230.309V322.293ZM231.938 326.415C232.298 326.415 232.556 326.34 232.712 326.19C232.868 326.034 232.946 325.806 232.946 325.506V325.479C232.946 325.155 232.865 324.918 232.703 324.768C232.547 324.612 232.292 324.534 231.938 324.534H231.056V326.415H231.938Z" fill="white"/>
<path d="M203.852 342.8L206.692 339.81C207.379 339.083 207.722 338.393 207.722 337.74C207.722 337.34 207.609 337.027 207.382 336.8C207.162 336.573 206.849 336.46 206.442 336.46C205.576 336.46 205.072 336.99 204.932 338.05H204.122C204.176 337.343 204.406 336.787 204.812 336.38C205.226 335.967 205.769 335.76 206.442 335.76C207.102 335.76 207.626 335.943 208.012 336.31C208.406 336.67 208.602 337.157 208.602 337.77C208.602 338.557 208.122 339.423 207.162 340.37L205.192 342.29H208.642V343H203.852V342.8ZM212.818 342.37C214.078 342.37 214.708 341.447 214.708 339.6V339.2C214.708 338.367 214.538 337.703 214.198 337.21C213.858 336.71 213.391 336.46 212.798 336.46C212.191 336.46 211.718 336.7 211.378 337.18C211.038 337.66 210.868 338.34 210.868 339.22V339.62C210.868 340.507 211.041 341.187 211.388 341.66C211.734 342.133 212.211 342.37 212.818 342.37ZM212.818 343.09C211.964 343.09 211.278 342.773 210.758 342.14C210.238 341.507 209.978 340.67 209.978 339.63V339.23C209.978 338.17 210.228 337.327 210.728 336.7C211.234 336.073 211.924 335.76 212.798 335.76C213.664 335.76 214.344 336.077 214.838 336.71C215.338 337.343 215.588 338.177 215.588 339.21V339.61C215.588 340.663 215.341 341.507 214.848 342.14C214.361 342.773 213.684 343.09 212.818 343.09ZM216.601 342.8L219.441 339.81C220.128 339.083 220.471 338.393 220.471 337.74C220.471 337.34 220.358 337.027 220.131 336.8C219.911 336.573 219.598 336.46 219.191 336.46C218.325 336.46 217.821 336.99 217.681 338.05H216.871C216.925 337.343 217.155 336.787 217.561 336.38C217.975 335.967 218.518 335.76 219.191 335.76C219.851 335.76 220.375 335.943 220.761 336.31C221.155 336.67 221.351 337.157 221.351 337.77C221.351 338.557 220.871 339.423 219.911 340.37L217.941 342.29H221.391V343H216.601V342.8ZM225.566 342.37C226.826 342.37 227.456 341.447 227.456 339.6V339.2C227.456 338.367 227.286 337.703 226.946 337.21C226.606 336.71 226.14 336.46 225.546 336.46C224.94 336.46 224.466 336.7 224.126 337.18C223.786 337.66 223.616 338.34 223.616 339.22V339.62C223.616 340.507 223.79 341.187 224.136 341.66C224.483 342.133 224.96 342.37 225.566 342.37ZM225.566 343.09C224.713 343.09 224.026 342.773 223.506 342.14C222.986 341.507 222.726 340.67 222.726 339.63V339.23C222.726 338.17 222.976 337.327 223.476 336.7C223.983 336.073 224.673 335.76 225.546 335.76C226.413 335.76 227.093 336.077 227.586 336.71C228.086 337.343 228.336 338.177 228.336 339.21V339.61C228.336 340.663 228.09 341.507 227.596 342.14C227.11 342.773 226.433 343.09 225.566 343.09Z" fill="white"/>
<path opacity="0.6" d="M335.713 327.081C335.251 327.081 334.873 326.967 334.579 326.739C334.291 326.505 334.147 326.157 334.147 325.695C334.147 325.437 334.21 325.212 334.336 325.02C334.468 324.822 334.648 324.669 334.876 324.561C335.104 324.447 335.353 324.366 335.623 324.318C335.893 324.264 336.187 324.237 336.505 324.237H337.18V323.895C337.18 323.517 337.102 323.247 336.946 323.085C336.79 322.917 336.532 322.833 336.172 322.833C335.524 322.833 335.164 323.115 335.092 323.679H334.345C334.393 323.175 334.588 322.806 334.93 322.572C335.278 322.332 335.704 322.212 336.208 322.212C337.354 322.212 337.927 322.773 337.927 323.895V327H337.18V326.406C336.82 326.856 336.331 327.081 335.713 327.081ZM335.785 326.487C336.193 326.487 336.526 326.388 336.784 326.19C337.048 325.986 337.18 325.707 337.18 325.353V324.768H336.532C335.44 324.768 334.894 325.077 334.894 325.695C334.894 326.223 335.191 326.487 335.785 326.487ZM339.43 322.293H341.077C342.181 322.293 342.733 322.692 342.733 323.49V323.517C342.733 323.745 342.67 323.955 342.544 324.147C342.418 324.333 342.229 324.459 341.977 324.525C342.631 324.669 342.958 325.023 342.958 325.587V325.614C342.958 326.07 342.808 326.415 342.508 326.649C342.214 326.883 341.803 327 341.275 327H339.43V322.293ZM340.177 322.887V324.282H341.077C341.389 324.282 341.611 324.225 341.743 324.111C341.881 323.997 341.95 323.811 341.95 323.553V323.526C341.95 323.286 341.878 323.121 341.734 323.031C341.596 322.935 341.374 322.887 341.068 322.887H340.177ZM340.177 324.876V326.406H341.203C341.533 326.406 341.776 326.349 341.932 326.235C342.094 326.115 342.175 325.923 342.175 325.659V325.632C342.175 325.368 342.094 325.176 341.932 325.056C341.776 324.936 341.533 324.876 341.203 324.876H340.177ZM344.987 322.923V327H344.24V322.293H347.228V322.923H344.987ZM349.846 326.514L348.001 322.293H348.802L350.242 325.668L351.547 322.293H352.312L349.711 328.638H348.955L349.846 326.514ZM355.207 327.081C354.535 327.081 353.983 326.865 353.551 326.433C353.119 325.995 352.903 325.416 352.903 324.696V324.624C352.903 323.916 353.122 323.337 353.56 322.887C354.004 322.437 354.547 322.212 355.189 322.212C355.729 322.212 356.188 322.347 356.566 322.617C356.944 322.881 357.166 323.295 357.232 323.859H356.494C356.386 323.175 355.951 322.833 355.189 322.833C354.751 322.833 354.388 322.998 354.1 323.328C353.818 323.652 353.677 324.084 353.677 324.624V324.696C353.677 325.26 353.815 325.695 354.091 326.001C354.373 326.307 354.748 326.46 355.216 326.46C355.57 326.46 355.873 326.361 356.125 326.163C356.383 325.959 356.53 325.674 356.566 325.308H357.259C357.211 325.824 356.995 326.25 356.611 326.586C356.233 326.916 355.765 327.081 355.207 327.081ZM361.726 322.923H360.205V327H359.458V322.923H357.937V322.293H361.726V322.923Z" fill="white"/>
<path d="M333.852 342.8L336.692 339.81C337.379 339.083 337.722 338.393 337.722 337.74C337.722 337.34 337.609 337.027 337.382 336.8C337.162 336.573 336.849 336.46 336.442 336.46C335.576 336.46 335.072 336.99 334.932 338.05H334.122C334.176 337.343 334.406 336.787 334.812 336.38C335.226 335.967 335.769 335.76 336.442 335.76C337.102 335.76 337.626 335.943 338.012 336.31C338.406 336.67 338.602 337.157 338.602 337.77C338.602 338.557 338.122 339.423 337.162 340.37L335.192 342.29H338.642V343H333.852V342.8ZM342.818 342.37C344.078 342.37 344.708 341.447 344.708 339.6V339.2C344.708 338.367 344.538 337.703 344.198 337.21C343.858 336.71 343.391 336.46 342.798 336.46C342.191 336.46 341.718 336.7 341.378 337.18C341.038 337.66 340.868 338.34 340.868 339.22V339.62C340.868 340.507 341.041 341.187 341.388 341.66C341.734 342.133 342.211 342.37 342.818 342.37ZM342.818 343.09C341.964 343.09 341.278 342.773 340.758 342.14C340.238 341.507 339.978 340.67 339.978 339.63V339.23C339.978 338.17 340.228 337.327 340.728 336.7C341.234 336.073 341.924 335.76 342.798 335.76C343.664 335.76 344.344 336.077 344.838 336.71C345.338 337.343 345.588 338.177 345.588 339.21V339.61C345.588 340.663 345.341 341.507 344.848 342.14C344.361 342.773 343.684 343.09 342.818 343.09ZM346.601 342.8L349.441 339.81C350.128 339.083 350.471 338.393 350.471 337.74C350.471 337.34 350.358 337.027 350.131 336.8C349.911 336.573 349.598 336.46 349.191 336.46C348.325 336.46 347.821 336.99 347.681 338.05H346.871C346.925 337.343 347.155 336.787 347.561 336.38C347.975 335.967 348.518 335.76 349.191 335.76C349.851 335.76 350.375 335.943 350.761 336.31C351.155 336.67 351.351 337.157 351.351 337.77C351.351 338.557 350.871 339.423 349.911 340.37L347.941 342.29H351.391V343H346.601V342.8ZM355.566 342.37C356.826 342.37 357.456 341.447 357.456 339.6V339.2C357.456 338.367 357.286 337.703 356.946 337.21C356.606 336.71 356.14 336.46 355.546 336.46C354.94 336.46 354.466 336.7 354.126 337.18C353.786 337.66 353.616 338.34 353.616 339.22V339.62C353.616 340.507 353.79 341.187 354.136 341.66C354.483 342.133 354.96 342.37 355.566 342.37ZM355.566 343.09C354.713 343.09 354.026 342.773 353.506 342.14C352.986 341.507 352.726 340.67 352.726 339.63V339.23C352.726 338.17 352.976 337.327 353.476 336.7C353.983 336.073 354.673 335.76 355.546 335.76C356.413 335.76 357.093 336.077 357.586 336.71C358.086 337.343 358.336 338.177 358.336 339.21V339.61C358.336 340.663 358.09 341.507 357.596 342.14C357.11 342.773 356.433 343.09 355.566 343.09Z" fill="white"/>
<path opacity="0.6" d="M140.13 322.887C139.458 322.887 139.122 323.172 139.122 323.742V323.769C139.122 324.039 139.2 324.243 139.356 324.381C139.512 324.519 139.77 324.588 140.13 324.588H141.012V322.887H140.13ZM138.888 327H138.033L139.464 325.029C138.738 324.879 138.375 324.459 138.375 323.769V323.742C138.375 323.25 138.543 322.887 138.879 322.653C139.215 322.413 139.647 322.293 140.175 322.293H141.759V327H141.012V325.155H140.202L138.888 327ZM146.425 324.903H144.112V327H143.365V322.293H144.112V324.273H146.425V322.293H147.172V327H146.425V324.903ZM148.772 322.293H150.419C151.523 322.293 152.075 322.692 152.075 323.49V323.517C152.075 323.745 152.012 323.955 151.886 324.147C151.76 324.333 151.571 324.459 151.319 324.525C151.973 324.669 152.3 325.023 152.3 325.587V325.614C152.3 326.07 152.15 326.415 151.85 326.649C151.556 326.883 151.145 327 150.617 327H148.772V322.293ZM149.519 322.887V324.282H150.419C150.731 324.282 150.953 324.225 151.085 324.111C151.223 323.997 151.292 323.811 151.292 323.553V323.526C151.292 323.286 151.22 323.121 151.076 323.031C150.938 322.935 150.716 322.887 150.41 322.887H149.519ZM149.519 324.876V326.406H150.545C150.875 326.406 151.118 326.349 151.274 326.235C151.436 326.115 151.517 325.923 151.517 325.659V325.632C151.517 325.368 151.436 325.176 151.274 325.056C151.118 324.936 150.875 324.876 150.545 324.876H149.519ZM154.859 327.081C154.397 327.081 154.019 326.967 153.725 326.739C153.437 326.505 153.293 326.157 153.293 325.695C153.293 325.437 153.356 325.212 153.482 325.02C153.614 324.822 153.794 324.669 154.022 324.561C154.25 324.447 154.499 324.366 154.769 324.318C155.039 324.264 155.333 324.237 155.651 324.237H156.326V323.895C156.326 323.517 156.248 323.247 156.092 323.085C155.936 322.917 155.678 322.833 155.318 322.833C154.67 322.833 154.31 323.115 154.238 323.679H153.491C153.539 323.175 153.734 322.806 154.076 322.572C154.424 322.332 154.85 322.212 155.354 322.212C156.5 322.212 157.073 322.773 157.073 323.895V327H156.326V326.406C155.966 326.856 155.477 327.081 154.859 327.081ZM154.931 326.487C155.339 326.487 155.672 326.388 155.93 326.19C156.194 325.986 156.326 325.707 156.326 325.353V324.768H155.678C154.586 324.768 154.04 325.077 154.04 325.695C154.04 326.223 154.337 326.487 154.931 326.487ZM158.63 322.293H159.377V323.085C159.515 322.845 159.731 322.641 160.025 322.473C160.319 322.299 160.634 322.212 160.97 322.212C161.6 322.212 162.113 322.425 162.509 322.851C162.911 323.277 163.112 323.853 163.112 324.579V324.651C163.112 325.377 162.914 325.965 162.518 326.415C162.128 326.859 161.612 327.081 160.97 327.081C160.25 327.081 159.719 326.796 159.377 326.226V328.638H158.63V322.293ZM160.898 326.46C161.366 326.46 161.723 326.31 161.969 326.01C162.215 325.704 162.338 325.263 162.338 324.687V324.615C162.338 324.045 162.2 323.607 161.924 323.301C161.654 322.989 161.309 322.833 160.889 322.833C160.433 322.833 160.061 322.986 159.773 323.292C159.491 323.592 159.35 324.033 159.35 324.615V324.687C159.35 325.269 159.488 325.71 159.764 326.01C160.046 326.31 160.424 326.46 160.898 326.46ZM164.309 322.293H165.056V323.94H165.893C166.421 323.94 166.853 324.069 167.189 324.327C167.525 324.585 167.693 324.969 167.693 325.479V325.506C167.693 326.022 167.525 326.4 167.189 326.64C166.859 326.88 166.427 327 165.893 327H164.309V322.293ZM165.938 326.415C166.298 326.415 166.556 326.34 166.712 326.19C166.868 326.034 166.946 325.806 166.946 325.506V325.479C166.946 325.155 166.865 324.918 166.703 324.768C166.547 324.612 166.292 324.534 165.938 324.534H165.056V326.415H165.938Z" fill="white"/>
<path d="M137.852 342.8L140.692 339.81C141.379 339.083 141.722 338.393 141.722 337.74C141.722 337.34 141.609 337.027 141.382 336.8C141.162 336.573 140.849 336.46 140.442 336.46C139.576 336.46 139.072 336.99 138.932 338.05H138.122C138.176 337.343 138.406 336.787 138.812 336.38C139.226 335.967 139.769 335.76 140.442 335.76C141.102 335.76 141.626 335.943 142.012 336.31C142.406 336.67 142.602 337.157 142.602 337.77C142.602 338.557 142.122 339.423 141.162 340.37L139.192 342.29H142.642V343H137.852V342.8ZM146.818 342.37C148.078 342.37 148.708 341.447 148.708 339.6V339.2C148.708 338.367 148.538 337.703 148.198 337.21C147.858 336.71 147.391 336.46 146.798 336.46C146.191 336.46 145.718 336.7 145.378 337.18C145.038 337.66 144.868 338.34 144.868 339.22V339.62C144.868 340.507 145.041 341.187 145.388 341.66C145.734 342.133 146.211 342.37 146.818 342.37ZM146.818 343.09C145.964 343.09 145.278 342.773 144.758 342.14C144.238 341.507 143.978 340.67 143.978 339.63V339.23C143.978 338.17 144.228 337.327 144.728 336.7C145.234 336.073 145.924 335.76 146.798 335.76C147.664 335.76 148.344 336.077 148.838 336.71C149.338 337.343 149.588 338.177 149.588 339.21V339.61C149.588 340.663 149.341 341.507 148.848 342.14C148.361 342.773 147.684 343.09 146.818 343.09ZM150.601 342.8L153.441 339.81C154.128 339.083 154.471 338.393 154.471 337.74C154.471 337.34 154.358 337.027 154.131 336.8C153.911 336.573 153.598 336.46 153.191 336.46C152.325 336.46 151.821 336.99 151.681 338.05H150.871C150.925 337.343 151.155 336.787 151.561 336.38C151.975 335.967 152.518 335.76 153.191 335.76C153.851 335.76 154.375 335.943 154.761 336.31C155.155 336.67 155.351 337.157 155.351 337.77C155.351 338.557 154.871 339.423 153.911 340.37L151.941 342.29H155.391V343H150.601V342.8ZM159.566 342.37C160.826 342.37 161.456 341.447 161.456 339.6V339.2C161.456 338.367 161.286 337.703 160.946 337.21C160.606 336.71 160.14 336.46 159.546 336.46C158.94 336.46 158.466 336.7 158.126 337.18C157.786 337.66 157.616 338.34 157.616 339.22V339.62C157.616 340.507 157.79 341.187 158.136 341.66C158.483 342.133 158.96 342.37 159.566 342.37ZM159.566 343.09C158.713 343.09 158.026 342.773 157.506 342.14C156.986 341.507 156.726 340.67 156.726 339.63V339.23C156.726 338.17 156.976 337.327 157.476 336.7C157.983 336.073 158.673 335.76 159.546 335.76C160.413 335.76 161.093 336.077 161.586 336.71C162.086 337.343 162.336 338.177 162.336 339.21V339.61C162.336 340.663 162.09 341.507 161.596 342.14C161.11 342.773 160.433 343.09 159.566 343.09Z" fill="white"/>
<path opacity="0.6" d="M71.802 325.182C71.736 325.734 71.634 326.13 71.496 326.37H73.701V322.905H71.973C71.943 323.637 71.886 324.396 71.802 325.182ZM70.866 328.143H70.263V326.37H70.596C70.764 326.328 70.881 326.208 70.947 326.01C71.013 325.806 71.07 325.515 71.118 325.137C71.172 324.651 71.223 324.039 71.271 323.301C71.295 322.971 71.313 322.635 71.325 322.293H74.43V326.37H75.15V328.143H74.547L74.493 327H70.92L70.866 328.143ZM78.1131 327.081C77.4411 327.081 76.8921 326.862 76.4661 326.424C76.0461 325.986 75.8361 325.41 75.8361 324.696V324.624C75.8361 323.916 76.0401 323.337 76.4481 322.887C76.8621 322.437 77.3931 322.212 78.0411 322.212C78.6411 322.212 79.1421 322.407 79.5441 322.797C79.9521 323.181 80.1561 323.766 80.1561 324.552V324.795H76.6101C76.6461 325.905 77.1501 326.46 78.1221 326.46C78.8601 326.46 79.2771 326.187 79.3731 325.641H80.1201C80.0361 326.109 79.8171 326.466 79.4631 326.712C79.1091 326.958 78.6591 327.081 78.1131 327.081ZM79.3911 324.192C79.3251 323.286 78.8751 322.833 78.0411 322.833C77.6631 322.833 77.3511 322.953 77.1051 323.193C76.8591 323.433 76.7031 323.766 76.6371 324.192H79.3911ZM82.0854 324.597V327H81.3384V322.293H82.0854V324.489L84.0384 322.293H84.9114L82.8954 324.507L85.0824 327H84.1734L82.0854 324.597ZM87.2581 327.081C86.7961 327.081 86.4181 326.967 86.1241 326.739C85.8361 326.505 85.6921 326.157 85.6921 325.695C85.6921 325.437 85.7551 325.212 85.8811 325.02C86.0131 324.822 86.1931 324.669 86.4211 324.561C86.6491 324.447 86.8981 324.366 87.1681 324.318C87.4381 324.264 87.7321 324.237 88.0501 324.237H88.7251V323.895C88.7251 323.517 88.6471 323.247 88.4911 323.085C88.3351 322.917 88.0771 322.833 87.7171 322.833C87.0691 322.833 86.7091 323.115 86.6371 323.679H85.8901C85.9381 323.175 86.1331 322.806 86.4751 322.572C86.8231 322.332 87.2491 322.212 87.7531 322.212C88.8991 322.212 89.4721 322.773 89.4721 323.895V327H88.7251V326.406C88.3651 326.856 87.8761 327.081 87.2581 327.081ZM87.3301 326.487C87.7381 326.487 88.0711 326.388 88.3291 326.19C88.5931 325.986 88.7251 325.707 88.7251 325.353V324.768H88.0771C86.9851 324.768 86.4391 325.077 86.4391 325.695C86.4391 326.223 86.7361 326.487 87.3301 326.487ZM93.0004 327.081C92.2924 327.081 91.7314 326.853 91.3174 326.397C90.9034 325.941 90.6964 325.248 90.6964 324.318V324.03C90.6964 323.586 90.7144 323.193 90.7504 322.851C90.7864 322.503 90.8614 322.155 90.9754 321.807C91.0894 321.453 91.2394 321.159 91.4254 320.925C91.6114 320.691 91.8634 320.496 92.1814 320.34C92.5054 320.184 92.8864 320.094 93.3244 320.07L93.5044 320.061C94.1644 320.025 94.6114 319.959 94.8454 319.863L94.9444 320.493C94.6384 320.625 94.1614 320.706 93.5134 320.736L93.3784 320.745C92.6524 320.781 92.1334 321.018 91.8214 321.456C91.5154 321.888 91.3354 322.56 91.2814 323.472H91.3174C91.4794 323.142 91.7194 322.881 92.0374 322.689C92.3614 322.491 92.7364 322.392 93.1624 322.392C93.8164 322.392 94.3384 322.605 94.7284 323.031C95.1244 323.451 95.3224 323.997 95.3224 324.669V324.705C95.3224 325.431 95.1034 326.01 94.6654 326.442C94.2334 326.868 93.6784 327.081 93.0004 327.081ZM91.8754 326.001C92.1514 326.307 92.5294 326.46 93.0094 326.46C93.4894 326.46 93.8644 326.31 94.1344 326.01C94.4104 325.704 94.5484 325.272 94.5484 324.714V324.696C94.5484 324.174 94.4224 323.763 94.1704 323.463C93.9244 323.163 93.5644 323.013 93.0904 323.013C92.5924 323.013 92.1964 323.169 91.9024 323.481C91.6144 323.793 91.4704 324.219 91.4704 324.759V324.777C91.4704 325.287 91.6054 325.695 91.8754 326.001ZM96.6302 322.293H97.3772V323.085C97.5152 322.845 97.7312 322.641 98.0252 322.473C98.3192 322.299 98.6342 322.212 98.9702 322.212C99.6002 322.212 100.113 322.425 100.509 322.851C100.911 323.277 101.112 323.853 101.112 324.579V324.651C101.112 325.377 100.914 325.965 100.518 326.415C100.128 326.859 99.6122 327.081 98.9702 327.081C98.2502 327.081 97.7192 326.796 97.3772 326.226V328.638H96.6302V322.293ZM98.8982 326.46C99.3662 326.46 99.7232 326.31 99.9692 326.01C100.215 325.704 100.338 325.263 100.338 324.687V324.615C100.338 324.045 100.2 323.607 99.9242 323.301C99.6542 322.989 99.3092 322.833 98.8892 322.833C98.4332 322.833 98.0612 322.986 97.7732 323.292C97.4912 323.592 97.3502 324.033 97.3502 324.615V324.687C97.3502 325.269 97.4882 325.71 97.7642 326.01C98.0462 326.31 98.4242 326.46 98.8982 326.46ZM102.309 322.293H103.056V323.94H103.893C104.421 323.94 104.853 324.069 105.189 324.327C105.525 324.585 105.693 324.969 105.693 325.479V325.506C105.693 326.022 105.525 326.4 105.189 326.64C104.859 326.88 104.427 327 103.893 327H102.309V322.293ZM103.938 326.415C104.298 326.415 104.556 326.34 104.712 326.19C104.868 326.034 104.946 325.806 104.946 325.506V325.479C104.946 325.155 104.865 324.918 104.703 324.768C104.547 324.612 104.292 324.534 103.938 324.534H103.056V326.415H103.938Z" fill="white"/>
<path d="M71.0691 342.8L73.9091 339.81C74.5958 339.083 74.9391 338.393 74.9391 337.74C74.9391 337.34 74.8258 337.027 74.5991 336.8C74.3791 336.573 74.0658 336.46 73.6591 336.46C72.7925 336.46 72.2891 336.99 72.1491 338.05H71.3391C71.3925 337.343 71.6225 336.787 72.0291 336.38C72.4425 335.967 72.9858 335.76 73.6591 335.76C74.3191 335.76 74.8425 335.943 75.2291 336.31C75.6225 336.67 75.8191 337.157 75.8191 337.77C75.8191 338.557 75.3391 339.423 74.3791 340.37L72.4091 342.29H75.8591V343H71.0691V342.8ZM80.0344 342.37C81.2944 342.37 81.9244 341.447 81.9244 339.6V339.2C81.9244 338.367 81.7544 337.703 81.4144 337.21C81.0744 336.71 80.6077 336.46 80.0144 336.46C79.4077 336.46 78.9344 336.7 78.5944 337.18C78.2544 337.66 78.0844 338.34 78.0844 339.22V339.62C78.0844 340.507 78.2577 341.187 78.6044 341.66C78.951 342.133 79.4277 342.37 80.0344 342.37ZM80.0344 343.09C79.181 343.09 78.4944 342.773 77.9744 342.14C77.4544 341.507 77.1944 340.67 77.1944 339.63V339.23C77.1944 338.17 77.4444 337.327 77.9444 336.7C78.451 336.073 79.141 335.76 80.0144 335.76C80.881 335.76 81.561 336.077 82.0544 336.71C82.5544 337.343 82.8044 338.177 82.8044 339.21V339.61C82.8044 340.663 82.5577 341.507 82.0644 342.14C81.5777 342.773 80.901 343.09 80.0344 343.09ZM85.558 336.71L83.958 337.86V337.05L85.618 335.85H86.428V343H85.558V336.71ZM90.6416 343.08C89.9883 343.08 89.465 342.92 89.0716 342.6C88.6783 342.28 88.435 341.827 88.3416 341.24H89.1816C89.2683 341.613 89.425 341.897 89.6516 342.09C89.885 342.277 90.2216 342.37 90.6616 342.37C91.2416 342.37 91.6883 342.133 92.0016 341.66C92.315 341.187 92.4783 340.477 92.4916 339.53C92.3116 339.83 92.0616 340.063 91.7416 340.23C91.4216 340.397 91.055 340.48 90.6416 340.48C89.9483 340.48 89.3816 340.26 88.9416 339.82C88.5083 339.38 88.2916 338.82 88.2916 338.14C88.2916 337.42 88.515 336.843 88.9616 336.41C89.4083 335.97 90.0083 335.75 90.7616 335.75C91.6083 335.75 92.2483 336.023 92.6816 336.57C93.115 337.117 93.3316 337.91 93.3316 338.95V339.4C93.3316 340.593 93.0983 341.507 92.6316 342.14C92.1716 342.767 91.5083 343.08 90.6416 343.08ZM90.7716 339.8C91.2516 339.8 91.645 339.657 91.9516 339.37C92.2583 339.083 92.4116 338.71 92.4116 338.25C92.4116 337.677 92.2583 337.23 91.9516 336.91C91.6516 336.59 91.255 336.43 90.7616 336.43C90.295 336.43 89.915 336.583 89.6216 336.89C89.3283 337.197 89.1816 337.6 89.1816 338.1C89.1816 338.62 89.325 339.033 89.6116 339.34C89.8983 339.647 90.285 339.8 90.7716 339.8Z" fill="white"/>
<path opacity="0.6" d="M270.7 323.031V327H270.079V322.293H271.132L272.473 325.83L273.85 322.293H274.876V327H274.138V323.031L272.581 327H272.239L270.7 323.031ZM277.721 327.081C277.259 327.081 276.881 326.967 276.587 326.739C276.299 326.505 276.155 326.157 276.155 325.695C276.155 325.437 276.218 325.212 276.344 325.02C276.476 324.822 276.656 324.669 276.884 324.561C277.112 324.447 277.361 324.366 277.631 324.318C277.901 324.264 278.195 324.237 278.513 324.237H279.188V323.895C279.188 323.517 279.11 323.247 278.954 323.085C278.798 322.917 278.54 322.833 278.18 322.833C277.532 322.833 277.172 323.115 277.1 323.679H276.353C276.401 323.175 276.596 322.806 276.938 322.572C277.286 322.332 277.712 322.212 278.216 322.212C279.362 322.212 279.935 322.773 279.935 323.895V327H279.188V326.406C278.828 326.856 278.339 327.081 277.721 327.081ZM277.793 326.487C278.201 326.487 278.534 326.388 278.792 326.19C279.056 325.986 279.188 325.707 279.188 325.353V324.768H278.54C277.448 324.768 276.902 325.077 276.902 325.695C276.902 326.223 277.199 326.487 277.793 326.487ZM283.374 321.429C283.05 321.429 282.774 321.318 282.546 321.096C282.318 320.868 282.198 320.583 282.186 320.241H282.834C282.87 320.685 283.05 320.907 283.374 320.907C283.728 320.907 283.926 320.685 283.968 320.241H284.598C284.574 320.583 284.445 320.868 284.211 321.096C283.983 321.318 283.704 321.429 283.374 321.429ZM281.439 327V322.293H282.186V325.92L284.589 322.293H285.336V327H284.589V323.373L282.186 327H281.439Z" fill="white"/>
<path d="M269.852 342.8L272.692 339.81C273.379 339.083 273.722 338.393 273.722 337.74C273.722 337.34 273.609 337.027 273.382 336.8C273.162 336.573 272.849 336.46 272.442 336.46C271.576 336.46 271.072 336.99 270.932 338.05H270.122C270.176 337.343 270.406 336.787 270.812 336.38C271.226 335.967 271.769 335.76 272.442 335.76C273.102 335.76 273.626 335.943 274.012 336.31C274.406 336.67 274.602 337.157 274.602 337.77C274.602 338.557 274.122 339.423 273.162 340.37L271.192 342.29H274.642V343H269.852V342.8ZM278.818 342.37C280.078 342.37 280.708 341.447 280.708 339.6V339.2C280.708 338.367 280.538 337.703 280.198 337.21C279.858 336.71 279.391 336.46 278.798 336.46C278.191 336.46 277.718 336.7 277.378 337.18C277.038 337.66 276.868 338.34 276.868 339.22V339.62C276.868 340.507 277.041 341.187 277.388 341.66C277.734 342.133 278.211 342.37 278.818 342.37ZM278.818 343.09C277.964 343.09 277.278 342.773 276.758 342.14C276.238 341.507 275.978 340.67 275.978 339.63V339.23C275.978 338.17 276.228 337.327 276.728 336.7C277.234 336.073 277.924 335.76 278.798 335.76C279.664 335.76 280.344 336.077 280.838 336.71C281.338 337.343 281.588 338.177 281.588 339.21V339.61C281.588 340.663 281.341 341.507 280.848 342.14C280.361 342.773 279.684 343.09 278.818 343.09ZM282.601 342.8L285.441 339.81C286.128 339.083 286.471 338.393 286.471 337.74C286.471 337.34 286.358 337.027 286.131 336.8C285.911 336.573 285.598 336.46 285.191 336.46C284.325 336.46 283.821 336.99 283.681 338.05H282.871C282.925 337.343 283.155 336.787 283.561 336.38C283.975 335.967 284.518 335.76 285.191 335.76C285.851 335.76 286.375 335.943 286.761 336.31C287.155 336.67 287.351 337.157 287.351 337.77C287.351 338.557 286.871 339.423 285.911 340.37L283.941 342.29H287.391V343H282.601V342.8ZM291.566 342.37C292.826 342.37 293.456 341.447 293.456 339.6V339.2C293.456 338.367 293.286 337.703 292.946 337.21C292.606 336.71 292.14 336.46 291.546 336.46C290.94 336.46 290.466 336.7 290.126 337.18C289.786 337.66 289.616 338.34 289.616 339.22V339.62C289.616 340.507 289.79 341.187 290.136 341.66C290.483 342.133 290.96 342.37 291.566 342.37ZM291.566 343.09C290.713 343.09 290.026 342.773 289.506 342.14C288.986 341.507 288.726 340.67 288.726 339.63V339.23C288.726 338.17 288.976 337.327 289.476 336.7C289.983 336.073 290.673 335.76 291.546 335.76C292.413 335.76 293.093 336.077 293.586 336.71C294.086 337.343 294.336 338.177 294.336 339.21V339.61C294.336 340.663 294.09 341.507 293.596 342.14C293.11 342.773 292.433 343.09 291.566 343.09Z" fill="white"/>
<path opacity="0.6" d="M401.923 326.081C401.251 326.081 400.699 325.865 400.267 325.433C399.835 324.995 399.619 324.416 399.619 323.696V323.624C399.619 322.916 399.838 322.337 400.276 321.887C400.72 321.437 401.263 321.212 401.905 321.212C402.445 321.212 402.904 321.347 403.282 321.617C403.66 321.881 403.882 322.295 403.948 322.859H403.21C403.102 322.175 402.667 321.833 401.905 321.833C401.467 321.833 401.104 321.998 400.816 322.328C400.534 322.652 400.393 323.084 400.393 323.624V323.696C400.393 324.26 400.531 324.695 400.807 325.001C401.089 325.307 401.464 325.46 401.932 325.46C402.286 325.46 402.589 325.361 402.841 325.163C403.099 324.959 403.246 324.674 403.282 324.308H403.975C403.927 324.824 403.711 325.25 403.327 325.586C402.949 325.916 402.481 326.081 401.923 326.081ZM407.119 326.081C406.447 326.081 405.898 325.862 405.472 325.424C405.052 324.986 404.842 324.41 404.842 323.696V323.624C404.842 322.916 405.046 322.337 405.454 321.887C405.868 321.437 406.399 321.212 407.047 321.212C407.647 321.212 408.148 321.407 408.55 321.797C408.958 322.181 409.162 322.766 409.162 323.552V323.795H405.616C405.652 324.905 406.156 325.46 407.128 325.46C407.866 325.46 408.283 325.187 408.379 324.641H409.126C409.042 325.109 408.823 325.466 408.469 325.712C408.115 325.958 407.665 326.081 407.119 326.081ZM408.397 323.192C408.331 322.286 407.881 321.833 407.047 321.833C406.669 321.833 406.357 321.953 406.111 322.193C405.865 322.433 405.709 322.766 405.643 323.192H408.397ZM413.404 323.903H411.091V326H410.344V321.293H411.091V323.273H413.404V321.293H414.151V326H413.404V323.903ZM419.054 321.923H417.533V326H416.786V321.923H415.265V321.293H419.054V321.923ZM421.74 321.887C421.068 321.887 420.732 322.172 420.732 322.742V322.769C420.732 323.039 420.81 323.243 420.966 323.381C421.122 323.519 421.38 323.588 421.74 323.588H422.622V321.887H421.74ZM420.498 326H419.643L421.074 324.029C420.348 323.879 419.985 323.459 419.985 322.769V322.742C419.985 322.25 420.153 321.887 420.489 321.653C420.825 321.413 421.257 321.293 421.785 321.293H423.369V326H422.622V324.155H421.812L420.498 326ZM427 326.081C426.292 326.081 425.731 325.853 425.317 325.397C424.903 324.941 424.696 324.248 424.696 323.318V323.03C424.696 322.586 424.714 322.193 424.75 321.851C424.786 321.503 424.861 321.155 424.975 320.807C425.089 320.453 425.239 320.159 425.425 319.925C425.611 319.691 425.863 319.496 426.181 319.34C426.505 319.184 426.886 319.094 427.324 319.07L427.504 319.061C428.164 319.025 428.611 318.959 428.845 318.863L428.944 319.493C428.638 319.625 428.161 319.706 427.513 319.736L427.378 319.745C426.652 319.781 426.133 320.018 425.821 320.456C425.515 320.888 425.335 321.56 425.281 322.472H425.317C425.479 322.142 425.719 321.881 426.037 321.689C426.361 321.491 426.736 321.392 427.162 321.392C427.816 321.392 428.338 321.605 428.728 322.031C429.124 322.451 429.322 322.997 429.322 323.669V323.705C429.322 324.431 429.103 325.01 428.665 325.442C428.233 325.868 427.678 326.081 427 326.081ZM425.875 325.001C426.151 325.307 426.529 325.46 427.009 325.46C427.489 325.46 427.864 325.31 428.134 325.01C428.41 324.704 428.548 324.272 428.548 323.714V323.696C428.548 323.174 428.422 322.763 428.17 322.463C427.924 322.163 427.564 322.013 427.09 322.013C426.592 322.013 426.196 322.169 425.902 322.481C425.614 322.793 425.47 323.219 425.47 323.759V323.777C425.47 324.287 425.605 324.695 425.875 325.001ZM430.63 321.293H431.377V322.085C431.515 321.845 431.731 321.641 432.025 321.473C432.319 321.299 432.634 321.212 432.97 321.212C433.6 321.212 434.113 321.425 434.509 321.851C434.911 322.277 435.112 322.853 435.112 323.579V323.651C435.112 324.377 434.914 324.965 434.518 325.415C434.128 325.859 433.612 326.081 432.97 326.081C432.25 326.081 431.719 325.796 431.377 325.226V327.638H430.63V321.293ZM432.898 325.46C433.366 325.46 433.723 325.31 433.969 325.01C434.215 324.704 434.338 324.263 434.338 323.687V323.615C434.338 323.045 434.2 322.607 433.924 322.301C433.654 321.989 433.309 321.833 432.889 321.833C432.433 321.833 432.061 321.986 431.773 322.292C431.491 322.592 431.35 323.033 431.35 323.615V323.687C431.35 324.269 431.488 324.71 431.764 325.01C432.046 325.31 432.424 325.46 432.898 325.46ZM436.309 321.293H437.056V322.94H437.893C438.421 322.94 438.853 323.069 439.189 323.327C439.525 323.585 439.693 323.969 439.693 324.479V324.506C439.693 325.022 439.525 325.4 439.189 325.64C438.859 325.88 438.427 326 437.893 326H436.309V321.293ZM437.938 325.415C438.298 325.415 438.556 325.34 438.712 325.19C438.868 325.034 438.946 324.806 438.946 324.506V324.479C438.946 324.155 438.865 323.918 438.703 323.768C438.547 323.612 438.292 323.534 437.938 323.534H437.056V325.415H437.938Z" fill="white"/>
<path d="M399.852 341.8L402.692 338.81C403.379 338.083 403.722 337.393 403.722 336.74C403.722 336.34 403.609 336.027 403.382 335.8C403.162 335.573 402.849 335.46 402.442 335.46C401.576 335.46 401.072 335.99 400.932 337.05H400.122C400.176 336.343 400.406 335.787 400.812 335.38C401.226 334.967 401.769 334.76 402.442 334.76C403.102 334.76 403.626 334.943 404.012 335.31C404.406 335.67 404.602 336.157 404.602 336.77C404.602 337.557 404.122 338.423 403.162 339.37L401.192 341.29H404.642V342H399.852V341.8ZM408.818 341.37C410.078 341.37 410.708 340.447 410.708 338.6V338.2C410.708 337.367 410.538 336.703 410.198 336.21C409.858 335.71 409.391 335.46 408.798 335.46C408.191 335.46 407.718 335.7 407.378 336.18C407.038 336.66 406.868 337.34 406.868 338.22V338.62C406.868 339.507 407.041 340.187 407.388 340.66C407.734 341.133 408.211 341.37 408.818 341.37ZM408.818 342.09C407.964 342.09 407.278 341.773 406.758 341.14C406.238 340.507 405.978 339.67 405.978 338.63V338.23C405.978 337.17 406.228 336.327 406.728 335.7C407.234 335.073 407.924 334.76 408.798 334.76C409.664 334.76 410.344 335.077 410.838 335.71C411.338 336.343 411.588 337.177 411.588 338.21V338.61C411.588 339.663 411.341 340.507 410.848 341.14C410.361 341.773 409.684 342.09 408.818 342.09ZM412.601 341.8L415.441 338.81C416.128 338.083 416.471 337.393 416.471 336.74C416.471 336.34 416.358 336.027 416.131 335.8C415.911 335.573 415.598 335.46 415.191 335.46C414.325 335.46 413.821 335.99 413.681 337.05H412.871C412.925 336.343 413.155 335.787 413.561 335.38C413.975 334.967 414.518 334.76 415.191 334.76C415.851 334.76 416.375 334.943 416.761 335.31C417.155 335.67 417.351 336.157 417.351 336.77C417.351 337.557 416.871 338.423 415.911 339.37L413.941 341.29H417.391V342H412.601V341.8ZM421.566 341.37C422.826 341.37 423.456 340.447 423.456 338.6V338.2C423.456 337.367 423.286 336.703 422.946 336.21C422.606 335.71 422.14 335.46 421.546 335.46C420.94 335.46 420.466 335.7 420.126 336.18C419.786 336.66 419.616 337.34 419.616 338.22V338.62C419.616 339.507 419.79 340.187 420.136 340.66C420.483 341.133 420.96 341.37 421.566 341.37ZM421.566 342.09C420.713 342.09 420.026 341.773 419.506 341.14C418.986 340.507 418.726 339.67 418.726 338.63V338.23C418.726 337.17 418.976 336.327 419.476 335.7C419.983 335.073 420.673 334.76 421.546 334.76C422.413 334.76 423.093 335.077 423.586 335.71C424.086 336.343 424.336 337.177 424.336 338.21V338.61C424.336 339.663 424.09 340.507 423.596 341.14C423.11 341.773 422.433 342.09 421.566 342.09Z" fill="white"/>
<path d="M0.25 267.8L3.09 264.81C3.77667 264.083 4.12 263.393 4.12 262.74C4.12 262.34 4.00667 262.027 3.78 261.8C3.56 261.573 3.24667 261.46 2.84 261.46C1.97333 261.46 1.47 261.99 1.33 263.05H0.52C0.573333 262.343 0.803333 261.787 1.21 261.38C1.62333 260.967 2.16667 260.76 2.84 260.76C3.5 260.76 4.02333 260.943 4.41 261.31C4.80333 261.67 5 262.157 5 262.77C5 263.557 4.52 264.423 3.56 265.37L1.59 267.29H5.04V268H0.25V267.8ZM9.67641 261.55H6.04641V260.85H10.7564V260.97L8.07641 268H7.18641L9.67641 261.55ZM14.491 267.37C15.751 267.37 16.381 266.447 16.381 264.6V264.2C16.381 263.367 16.211 262.703 15.871 262.21C15.531 261.71 15.0643 261.46 14.471 261.46C13.8643 261.46 13.391 261.7 13.051 262.18C12.711 262.66 12.541 263.34 12.541 264.22V264.62C12.541 265.507 12.7143 266.187 13.061 266.66C13.4077 267.133 13.8843 267.37 14.491 267.37ZM14.491 268.09C13.6377 268.09 12.951 267.773 12.431 267.14C11.911 266.507 11.651 265.67 11.651 264.63V264.23C11.651 263.17 11.901 262.327 12.401 261.7C12.9077 261.073 13.5977 260.76 14.471 260.76C15.3377 260.76 16.0177 261.077 16.511 261.71C17.011 262.343 17.261 263.177 17.261 264.21V264.61C17.261 265.663 17.0143 266.507 16.521 267.14C16.0343 267.773 15.3577 268.09 14.491 268.09Z" fill="white"/>
<path d="M0.25 229.8L3.09 226.81C3.77667 226.083 4.12 225.393 4.12 224.74C4.12 224.34 4.00667 224.027 3.78 223.8C3.56 223.573 3.24667 223.46 2.84 223.46C1.97333 223.46 1.47 223.99 1.33 225.05H0.52C0.573333 224.343 0.803333 223.787 1.21 223.38C1.62333 222.967 2.16667 222.76 2.84 222.76C3.5 222.76 4.02333 222.943 4.41 223.31C4.80333 223.67 5 224.157 5 224.77C5 225.557 4.52 226.423 3.56 227.37L1.59 229.29H5.04V230H0.25V229.8ZM8.76641 230.09C8.35974 230.09 7.97307 230.017 7.60641 229.87C7.23974 229.717 6.92974 229.473 6.67641 229.14C6.42307 228.807 6.29641 228.417 6.29641 227.97C6.29641 227.51 6.41974 227.123 6.66641 226.81C6.91307 226.497 7.23974 226.267 7.64641 226.12C6.92641 225.833 6.56641 225.333 6.56641 224.62C6.56641 224.073 6.78641 223.627 7.22641 223.28C7.67307 222.933 8.18641 222.76 8.76641 222.76C9.34641 222.76 9.85641 222.933 10.2964 223.28C10.7364 223.62 10.9564 224.06 10.9564 224.6C10.9564 225.287 10.5897 225.79 9.85641 226.11C10.7697 226.45 11.2264 227.063 11.2264 227.95C11.2264 228.623 10.9797 229.15 10.4864 229.53C9.99974 229.903 9.42641 230.09 8.76641 230.09ZM8.76641 229.38C9.22641 229.38 9.60307 229.253 9.89641 229C10.1897 228.74 10.3364 228.38 10.3364 227.92C10.3364 227.473 10.1864 227.127 9.88641 226.88C9.59307 226.627 9.22641 226.5 8.78641 226.5C8.33307 226.5 7.95307 226.627 7.64641 226.88C7.33974 227.127 7.18641 227.48 7.18641 227.94C7.18641 228.387 7.33974 228.74 7.64641 229C7.95307 229.253 8.32641 229.38 8.76641 229.38ZM8.79641 225.81C9.18307 225.81 9.49307 225.703 9.72641 225.49C9.95974 225.277 10.0764 224.983 10.0764 224.61C10.0764 224.27 9.95307 223.99 9.70641 223.77C9.45974 223.55 9.14641 223.44 8.76641 223.44C8.37974 223.44 8.06307 223.547 7.81641 223.76C7.56974 223.973 7.44641 224.263 7.44641 224.63C7.44641 224.99 7.57641 225.277 7.83641 225.49C8.09641 225.703 8.41641 225.81 8.79641 225.81ZM15.3602 229.37C16.6202 229.37 17.2502 228.447 17.2502 226.6V226.2C17.2502 225.367 17.0802 224.703 16.7402 224.21C16.4002 223.71 15.9335 223.46 15.3402 223.46C14.7335 223.46 14.2602 223.7 13.9202 224.18C13.5802 224.66 13.4102 225.34 13.4102 226.22V226.62C13.4102 227.507 13.5835 228.187 13.9302 228.66C14.2768 229.133 14.7535 229.37 15.3602 229.37ZM15.3602 230.09C14.5068 230.09 13.8202 229.773 13.3002 229.14C12.7802 228.507 12.5202 227.67 12.5202 226.63V226.23C12.5202 225.17 12.7702 224.327 13.2702 223.7C13.7768 223.073 14.4668 222.76 15.3402 222.76C16.2068 222.76 16.8868 223.077 17.3802 223.71C17.8802 224.343 18.1302 225.177 18.1302 226.21V226.61C18.1302 227.663 17.8835 228.507 17.3902 229.14C16.9035 229.773 16.2268 230.09 15.3602 230.09Z" fill="white"/>
<ellipse cx="129" cy="228.5" rx="3" ry="3.5" fill="#F1D5C0"/>
<circle cx="64" cy="302" r="3" fill="#F1D5C0"/>
<circle cx="195" cy="187" r="3" fill="#F1D5C0"/>
<circle cx="261" cy="166" r="3" fill="#F1D5C0"/>
<circle cx="326" cy="118" r="3" fill="#F1D5C0"/>
<circle cx="392" cy="74" r="3" fill="#F1D5C0"/>
<path d="M2.96 117.09C2.22 117.09 1.62333 116.883 1.17 116.47C0.723333 116.057 0.486667 115.53 0.46 114.89H1.26C1.3 115.343 1.46333 115.707 1.75 115.98C2.03667 116.253 2.44667 116.39 2.98 116.39C3.52667 116.39 3.93333 116.27 4.2 116.03C4.47333 115.783 4.61 115.443 4.61 115.01C4.61 114.083 4.10667 113.62 3.1 113.62H2.56V112.89H3.06C3.95333 112.89 4.4 112.483 4.4 111.67C4.4 111.317 4.29 111.03 4.07 110.81C3.85 110.583 3.52667 110.47 3.1 110.47C2.66 110.47 2.29667 110.593 2.01 110.84C1.73 111.087 1.56667 111.413 1.52 111.82H0.76C0.786667 111.247 1.01667 110.76 1.45 110.36C1.88333 109.96 2.43333 109.76 3.1 109.76C3.75333 109.76 4.27333 109.947 4.66 110.32C5.05333 110.687 5.25 111.13 5.25 111.65C5.25 112.377 4.87333 112.897 4.12 113.21C5.04 113.463 5.5 114.063 5.5 115.01C5.5 115.657 5.26333 116.167 4.79 116.54C4.32333 116.907 3.71333 117.09 2.96 117.09ZM8.20328 110.71L6.60328 111.86V111.05L8.26328 109.85H9.07328V117H8.20328V110.71ZM13.9246 116.37C15.1846 116.37 15.8146 115.447 15.8146 113.6V113.2C15.8146 112.367 15.6446 111.703 15.3046 111.21C14.9646 110.71 14.4979 110.46 13.9046 110.46C13.2979 110.46 12.8246 110.7 12.4846 111.18C12.1446 111.66 11.9746 112.34 11.9746 113.22V113.62C11.9746 114.507 12.1479 115.187 12.4946 115.66C12.8413 116.133 13.3179 116.37 13.9246 116.37ZM13.9246 117.09C13.0713 117.09 12.3846 116.773 11.8646 116.14C11.3446 115.507 11.0846 114.67 11.0846 113.63V113.23C11.0846 112.17 11.3346 111.327 11.8346 110.7C12.3413 110.073 13.0313 109.76 13.9046 109.76C14.7713 109.76 15.4513 110.077 15.9446 110.71C16.4446 111.343 16.6946 112.177 16.6946 113.21V113.61C16.6946 114.663 16.4479 115.507 15.9546 116.14C15.4679 116.773 14.7913 117.09 13.9246 117.09Z" fill="white"/>
<path d="M2.96 81.09C2.22 81.09 1.62333 80.8833 1.17 80.47C0.723333 80.0567 0.486667 79.53 0.46 78.89H1.26C1.3 79.3433 1.46333 79.7067 1.75 79.98C2.03667 80.2533 2.44667 80.39 2.98 80.39C3.52667 80.39 3.93333 80.27 4.2 80.03C4.47333 79.7833 4.61 79.4433 4.61 79.01C4.61 78.0833 4.10667 77.62 3.1 77.62H2.56V76.89H3.06C3.95333 76.89 4.4 76.4833 4.4 75.67C4.4 75.3167 4.29 75.03 4.07 74.81C3.85 74.5833 3.52667 74.47 3.1 74.47C2.66 74.47 2.29667 74.5933 2.01 74.84C1.73 75.0867 1.56667 75.4133 1.52 75.82H0.76C0.786667 75.2467 1.01667 74.76 1.45 74.36C1.88333 73.96 2.43333 73.76 3.1 73.76C3.75333 73.76 4.27333 73.9467 4.66 74.32C5.05333 74.6867 5.25 75.13 5.25 75.65C5.25 76.3767 4.87333 76.8967 4.12 77.21C5.04 77.4633 5.5 78.0633 5.5 79.01C5.5 79.6567 5.26333 80.1667 4.79 80.54C4.32333 80.9067 3.71333 81.09 2.96 81.09ZM6.51211 80.8L9.35211 77.81C10.0388 77.0833 10.3821 76.3933 10.3821 75.74C10.3821 75.34 10.2688 75.0267 10.0421 74.8C9.82211 74.5733 9.50878 74.46 9.10211 74.46C8.23544 74.46 7.73211 74.99 7.59211 76.05H6.78211C6.83544 75.3433 7.06544 74.7867 7.47211 74.38C7.88544 73.9667 8.42878 73.76 9.10211 73.76C9.76211 73.76 10.2854 73.9433 10.6721 74.31C11.0654 74.67 11.2621 75.1567 11.2621 75.77C11.2621 76.5567 10.7821 77.4233 9.82211 78.37L7.85211 80.29H11.3021V81H6.51211V80.8ZM15.4773 80.37C16.7373 80.37 17.3673 79.4467 17.3673 77.6V77.2C17.3673 76.3667 17.1973 75.7033 16.8573 75.21C16.5173 74.71 16.0507 74.46 15.4573 74.46C14.8507 74.46 14.3773 74.7 14.0373 75.18C13.6973 75.66 13.5273 76.34 13.5273 77.22V77.62C13.5273 78.5067 13.7007 79.1867 14.0473 79.66C14.394 80.1333 14.8707 80.37 15.4773 80.37ZM15.4773 81.09C14.624 81.09 13.9373 80.7733 13.4173 80.14C12.8973 79.5067 12.6373 78.67 12.6373 77.63V77.23C12.6373 76.17 12.8873 75.3267 13.3873 74.7C13.894 74.0733 14.584 73.76 15.4573 73.76C16.324 73.76 17.004 74.0767 17.4973 74.71C17.9973 75.3433 18.2473 76.1767 18.2473 77.21V77.61C18.2473 78.6633 18.0007 79.5067 17.5073 80.14C17.0207 80.7733 16.344 81.09 15.4773 81.09Z" fill="white"/>
<rect opacity="0.3" x="63" y="302" width="1" height="42" fill="#F1D5C0"/>
<rect opacity="0.3" x="129" y="225" width="1" height="119" fill="#F1D5C0"/>
<rect opacity="0.3" x="195" y="187" width="1" height="157" fill="#F1D5C0"/>
<rect opacity="0.3" x="261" y="164" width="1" height="180" fill="#F1D5C0"/>
<rect opacity="0.3" x="325" y="118" width="1" height="226" fill="#F1D5C0"/>
<rect opacity="0.3" x="391" y="75" width="1" height="269" fill="#F1D5C0"/>
<path d="M38 331L63.7229 302.616L130.921 226.989L194.1 187.578L262.43 164.835L326.228 117.838L391.795 74.4031L432 57" stroke="url(#paint0_radial)"/>
<defs>
<radialGradient id="paint0_radial" cx="0" cy="0" r="1" gradientUnits="userSpaceOnUse" gradientTransform="translate(230.287 182.518) rotate(56.9064) scale(154.478 250.388)">
<stop stop-color="#F1D5C0"/>
<stop offset="1" stop-color="#F1D5C0" stop-opacity="0"/>
</radialGradient>
</defs>
</svg>
