<svg width="795" height="521" viewBox="0 0 795 521" fill="none" xmlns="http://www.w3.org/2000/svg">
<path d="M29.1 124.211C31.116 124.211 32.124 122.733 32.124 119.779V119.139C32.124 117.805 31.852 116.744 31.308 115.955C30.764 115.155 30.0173 114.755 29.068 114.755C28.0973 114.755 27.34 115.139 26.796 115.907C26.252 116.675 25.98 117.763 25.98 119.171V119.811C25.98 121.229 26.2573 122.317 26.812 123.075C27.3667 123.832 28.1293 124.211 29.1 124.211ZM29.1 125.363C27.7347 125.363 26.636 124.856 25.804 123.843C24.972 122.829 24.556 121.491 24.556 119.827V119.187C24.556 117.491 24.956 116.141 25.756 115.139C26.5667 114.136 27.6707 113.635 29.068 113.635C30.4547 113.635 31.5427 114.141 32.332 115.155C33.132 116.168 33.532 117.501 33.532 119.155V119.795C33.532 121.48 33.1373 122.829 32.348 123.843C31.5693 124.856 30.4867 125.363 29.1 125.363ZM34.9489 126.739L36.4849 123.235L37.7809 123.843L35.8129 127.187L34.9489 126.739ZM44.0138 125.363C43.3631 125.363 42.7444 125.245 42.1578 125.011C41.5711 124.765 41.0751 124.376 40.6698 123.843C40.2644 123.309 40.0618 122.685 40.0618 121.971C40.0618 121.235 40.2591 120.616 40.6538 120.115C41.0484 119.613 41.5711 119.245 42.2218 119.011C41.0698 118.552 40.4938 117.752 40.4938 116.611C40.4938 115.736 40.8458 115.021 41.5498 114.467C42.2644 113.912 43.0858 113.635 44.0138 113.635C44.9418 113.635 45.7578 113.912 46.4618 114.467C47.1658 115.011 47.5178 115.715 47.5178 116.579C47.5178 117.677 46.9311 118.483 45.7578 118.995C47.2191 119.539 47.9498 120.52 47.9498 121.939C47.9498 123.016 47.5551 123.859 46.7658 124.467C45.9871 125.064 45.0698 125.363 44.0138 125.363ZM44.0138 124.227C44.7498 124.227 45.3524 124.024 45.8218 123.619C46.2911 123.203 46.5258 122.627 46.5258 121.891C46.5258 121.176 46.2858 120.621 45.8058 120.227C45.3364 119.821 44.7498 119.619 44.0458 119.619C43.3204 119.619 42.7124 119.821 42.2218 120.227C41.7311 120.621 41.4858 121.187 41.4858 121.923C41.4858 122.637 41.7311 123.203 42.2218 123.619C42.7124 124.024 43.3098 124.227 44.0138 124.227ZM44.0618 118.515C44.6804 118.515 45.1764 118.344 45.5498 118.003C45.9231 117.661 46.1098 117.192 46.1098 116.595C46.1098 116.051 45.9124 115.603 45.5178 115.251C45.1231 114.899 44.6218 114.723 44.0138 114.723C43.3951 114.723 42.8884 114.893 42.4938 115.235C42.0991 115.576 41.9018 116.04 41.9018 116.627C41.9018 117.203 42.1098 117.661 42.5258 118.003C42.9418 118.344 43.4538 118.515 44.0618 118.515Z" fill="white"/>
<path opacity="0.75" d="M2.348 140.989V146.281H1.52V140.005H2.924L4.712 144.721L6.548 140.005H7.916V146.281H6.932V140.989L4.856 146.281H4.4L2.348 140.989ZM11.5055 143.857C11.4335 144.721 11.2815 145.353 11.0495 145.753C10.8175 146.145 10.4535 146.341 9.9575 146.341C9.8535 146.341 9.7455 146.333 9.6335 146.317L9.5375 146.281V145.333L9.6215 145.357C9.7015 145.373 9.7855 145.381 9.8735 145.381C10.0015 145.381 10.1055 145.345 10.1855 145.273C10.2735 145.193 10.3415 145.069 10.3895 144.901C10.4455 144.733 10.4855 144.577 10.5095 144.433C10.5335 144.281 10.5615 144.069 10.5935 143.797C10.6255 143.509 10.6735 142.693 10.7375 141.349L10.7735 140.005H14.9135V146.281H13.9175V140.845H11.6615C11.5895 142.573 11.5375 143.577 11.5055 143.857ZM21.3666 143.485H18.2826V146.281H17.2866V140.005H18.2826V142.645H21.3666V140.005H22.3626V146.281H21.3666V143.485ZM28.3442 140.005H29.3402V141.061C29.5242 140.741 29.8122 140.469 30.2042 140.245C30.5962 140.013 31.0162 139.897 31.4642 139.897C32.3042 139.897 32.9882 140.181 33.5162 140.749C34.0522 141.317 34.3202 142.085 34.3202 143.053V143.149C34.3202 144.117 34.0562 144.901 33.5282 145.501C33.0082 146.093 32.3202 146.389 31.4642 146.389C30.5042 146.389 29.7962 146.009 29.3402 145.249V148.465H28.3442V140.005ZM31.3682 145.561C31.9922 145.561 32.4682 145.361 32.7962 144.961C33.1242 144.553 33.2882 143.965 33.2882 143.197V143.101C33.2882 142.341 33.1042 141.757 32.7362 141.349C32.3762 140.933 31.9162 140.725 31.3562 140.725C30.7482 140.725 30.2522 140.929 29.8682 141.337C29.4922 141.737 29.3042 142.325 29.3042 143.101V143.197C29.3042 143.973 29.4882 144.561 29.8562 144.961C30.2322 145.361 30.7362 145.561 31.3682 145.561ZM37.8625 145.633L35.4025 140.005H36.4705L38.3905 144.505L40.1305 140.005H41.1505L37.6825 148.465H36.6745L37.8625 145.633ZM45.45 146.389C44.506 146.389 43.758 146.085 43.206 145.477C42.654 144.869 42.378 143.945 42.378 142.705V142.321C42.378 141.729 42.402 141.205 42.45 140.749C42.498 140.285 42.598 139.821 42.75 139.357C42.902 138.885 43.102 138.493 43.35 138.181C43.598 137.869 43.934 137.609 44.358 137.401C44.79 137.193 45.298 137.073 45.882 137.041L46.122 137.029C47.002 136.981 47.598 136.893 47.91 136.765L48.042 137.605C47.634 137.781 46.998 137.889 46.134 137.929L45.954 137.941C44.986 137.989 44.294 138.305 43.878 138.889C43.47 139.465 43.23 140.361 43.158 141.577H43.206C43.422 141.137 43.742 140.789 44.166 140.533C44.598 140.269 45.098 140.137 45.666 140.137C46.538 140.137 47.234 140.421 47.754 140.989C48.282 141.549 48.546 142.277 48.546 143.173V143.221C48.546 144.189 48.254 144.961 47.67 145.537C47.094 146.105 46.354 146.389 45.45 146.389ZM43.95 144.949C44.318 145.357 44.822 145.561 45.462 145.561C46.102 145.561 46.602 145.361 46.962 144.961C47.33 144.553 47.514 143.977 47.514 143.233V143.209C47.514 142.513 47.346 141.965 47.01 141.565C46.682 141.165 46.202 140.965 45.57 140.965C44.906 140.965 44.378 141.173 43.986 141.589C43.602 142.005 43.41 142.573 43.41 143.293V143.317C43.41 143.997 43.59 144.541 43.95 144.949Z" fill="white"/>
<path d="M28.684 7.74069L26.124 9.58069V8.28469L28.78 6.36469H30.076V17.8047H28.684V7.74069ZM32.9176 19.3247L34.4536 15.8207L35.7496 16.4287L33.7816 19.7727L32.9176 19.3247ZM42.2319 16.7967C44.2479 16.7967 45.2559 15.3194 45.2559 12.3647V11.7247C45.2559 10.3914 44.9839 9.33002 44.4399 8.54069C43.8959 7.74069 43.1492 7.34069 42.1999 7.34069C41.2292 7.34069 40.4719 7.72469 39.9279 8.49269C39.3839 9.26069 39.1119 10.3487 39.1119 11.7567V12.3967C39.1119 13.8154 39.3892 14.9034 39.9439 15.6607C40.4985 16.418 41.2612 16.7967 42.2319 16.7967ZM42.2319 17.9487C40.8665 17.9487 39.7679 17.442 38.9359 16.4287C38.1039 15.4154 37.6879 14.0767 37.6879 12.4127V11.7727C37.6879 10.0767 38.0879 8.72735 38.8879 7.72469C39.6985 6.72202 40.8025 6.22069 42.1999 6.22069C43.5865 6.22069 44.6745 6.72735 45.4639 7.74069C46.2639 8.75402 46.6639 10.0874 46.6639 11.7407V12.3807C46.6639 14.066 46.2692 15.4154 45.4799 16.4287C44.7012 17.442 43.6185 17.9487 42.2319 17.9487Z" fill="white"/>
<path opacity="0.75" d="M2.348 33.5752V38.8672H1.52V32.5912H2.924L4.712 37.3072L6.548 32.5912H7.916V38.8672H6.932V33.5752L4.856 38.8672H4.4L2.348 33.5752ZM11.5055 36.4432C11.4335 37.3072 11.2815 37.9392 11.0495 38.3392C10.8175 38.7312 10.4535 38.9272 9.9575 38.9272C9.8535 38.9272 9.7455 38.9192 9.6335 38.9032L9.5375 38.8672V37.9192L9.6215 37.9432C9.7015 37.9592 9.7855 37.9672 9.8735 37.9672C10.0015 37.9672 10.1055 37.9312 10.1855 37.8592C10.2735 37.7792 10.3415 37.6552 10.3895 37.4872C10.4455 37.3192 10.4855 37.1632 10.5095 37.0192C10.5335 36.8672 10.5615 36.6552 10.5935 36.3832C10.6255 36.0952 10.6735 35.2792 10.7375 33.9352L10.7735 32.5912H14.9135V38.8672H13.9175V33.4312H11.6615C11.5895 35.1592 11.5375 36.1632 11.5055 36.4432ZM21.3666 36.0712H18.2826V38.8672H17.2866V32.5912H18.2826V35.2312H21.3666V32.5912H22.3626V38.8672H21.3666V36.0712ZM28.3442 32.5912H29.3402V33.6472C29.5242 33.3272 29.8122 33.0552 30.2042 32.8312C30.5962 32.5992 31.0162 32.4832 31.4642 32.4832C32.3042 32.4832 32.9882 32.7672 33.5162 33.3352C34.0522 33.9032 34.3202 34.6712 34.3202 35.6392V35.7352C34.3202 36.7032 34.0562 37.4872 33.5282 38.0872C33.0082 38.6792 32.3202 38.9752 31.4642 38.9752C30.5042 38.9752 29.7962 38.5952 29.3402 37.8352V41.0512H28.3442V32.5912ZM31.3682 38.1472C31.9922 38.1472 32.4682 37.9472 32.7962 37.5472C33.1242 37.1392 33.2882 36.5512 33.2882 35.7832V35.6872C33.2882 34.9272 33.1042 34.3432 32.7362 33.9352C32.3762 33.5192 31.9162 33.3112 31.3562 33.3112C30.7482 33.3112 30.2522 33.5152 29.8682 33.9232C29.4922 34.3232 29.3042 34.9112 29.3042 35.6872V35.7832C29.3042 36.5592 29.4882 37.1472 29.8562 37.5472C30.2322 37.9472 30.7362 38.1472 31.3682 38.1472ZM37.8625 38.2192L35.4025 32.5912H36.4705L38.3905 37.0912L40.1305 32.5912H41.1505L37.6825 41.0512H36.6745L37.8625 38.2192ZM45.45 38.9752C44.506 38.9752 43.758 38.6712 43.206 38.0632C42.654 37.4552 42.378 36.5312 42.378 35.2912V34.9072C42.378 34.3152 42.402 33.7912 42.45 33.3352C42.498 32.8712 42.598 32.4072 42.75 31.9432C42.902 31.4712 43.102 31.0792 43.35 30.7672C43.598 30.4552 43.934 30.1952 44.358 29.9872C44.79 29.7792 45.298 29.6592 45.882 29.6272L46.122 29.6152C47.002 29.5672 47.598 29.4792 47.91 29.3512L48.042 30.1912C47.634 30.3672 46.998 30.4752 46.134 30.5152L45.954 30.5272C44.986 30.5752 44.294 30.8912 43.878 31.4752C43.47 32.0512 43.23 32.9472 43.158 34.1632H43.206C43.422 33.7232 43.742 33.3752 44.166 33.1192C44.598 32.8552 45.098 32.7232 45.666 32.7232C46.538 32.7232 47.234 33.0072 47.754 33.5752C48.282 34.1352 48.546 34.8632 48.546 35.7592V35.8072C48.546 36.7752 48.254 37.5472 47.67 38.1232C47.094 38.6912 46.354 38.9752 45.45 38.9752ZM43.95 37.5352C44.318 37.9432 44.822 38.1472 45.462 38.1472C46.102 38.1472 46.602 37.9472 46.962 37.5472C47.33 37.1392 47.514 36.5632 47.514 35.8192V35.7952C47.514 35.0992 47.346 34.5512 47.01 34.1512C46.682 33.7512 46.202 33.5512 45.57 33.5512C44.906 33.5512 44.378 33.7592 43.986 34.1752C43.602 34.5912 43.41 35.1592 43.41 35.8792V35.9032C43.41 36.5832 43.59 37.1272 43.95 37.5352Z" fill="white"/>
<path d="M29.1 446.453C31.116 446.453 32.124 444.976 32.124 442.021V441.381C32.124 440.048 31.852 438.986 31.308 438.197C30.764 437.397 30.0173 436.997 29.068 436.997C28.0973 436.997 27.34 437.381 26.796 438.149C26.252 438.917 25.98 440.005 25.98 441.413V442.053C25.98 443.472 26.2573 444.56 26.812 445.317C27.3667 446.074 28.1293 446.453 29.1 446.453ZM29.1 447.605C27.7347 447.605 26.636 447.098 25.804 446.085C24.972 445.072 24.556 443.733 24.556 442.069V441.429C24.556 439.733 24.956 438.384 25.756 437.381C26.5667 436.378 27.6707 435.877 29.068 435.877C30.4547 435.877 31.5427 436.384 32.332 437.397C33.132 438.41 33.532 439.744 33.532 441.397V442.037C33.532 443.722 33.1373 445.072 32.348 446.085C31.5693 447.098 30.4867 447.605 29.1 447.605ZM34.9489 448.981L36.4849 445.477L37.7809 446.085L35.8129 449.429L34.9489 448.981ZM39.86 447.141L44.404 442.357C45.5027 441.194 46.052 440.09 46.052 439.045C46.052 438.405 45.8707 437.904 45.508 437.541C45.156 437.178 44.6547 436.997 44.004 436.997C42.6173 436.997 41.812 437.845 41.588 439.541H40.292C40.3773 438.41 40.7453 437.52 41.396 436.869C42.0573 436.208 42.9267 435.877 44.004 435.877C45.06 435.877 45.8973 436.17 46.516 436.757C47.1453 437.333 47.46 438.112 47.46 439.093C47.46 440.352 46.692 441.738 45.156 443.253L42.004 446.325H47.524V447.461H39.86V447.141Z" fill="white"/>
<path opacity="0.75" d="M2.348 463.231V468.523H1.52V462.247H2.924L4.712 466.963L6.548 462.247H7.916V468.523H6.932V463.231L4.856 468.523H4.4L2.348 463.231ZM11.5055 466.099C11.4335 466.963 11.2815 467.595 11.0495 467.995C10.8175 468.387 10.4535 468.583 9.9575 468.583C9.8535 468.583 9.7455 468.575 9.6335 468.559L9.5375 468.523V467.575L9.6215 467.599C9.7015 467.615 9.7855 467.623 9.8735 467.623C10.0015 467.623 10.1055 467.587 10.1855 467.515C10.2735 467.435 10.3415 467.311 10.3895 467.143C10.4455 466.975 10.4855 466.819 10.5095 466.675C10.5335 466.523 10.5615 466.311 10.5935 466.039C10.6255 465.751 10.6735 464.935 10.7375 463.591L10.7735 462.247H14.9135V468.523H13.9175V463.087H11.6615C11.5895 464.815 11.5375 465.819 11.5055 466.099ZM21.3666 465.727H18.2826V468.523H17.2866V462.247H18.2826V464.887H21.3666V462.247H22.3626V468.523H21.3666V465.727ZM28.3442 462.247H29.3402V463.303C29.5242 462.983 29.8122 462.711 30.2042 462.487C30.5962 462.255 31.0162 462.139 31.4642 462.139C32.3042 462.139 32.9882 462.423 33.5162 462.991C34.0522 463.559 34.3202 464.327 34.3202 465.295V465.391C34.3202 466.359 34.0562 467.143 33.5282 467.743C33.0082 468.335 32.3202 468.631 31.4642 468.631C30.5042 468.631 29.7962 468.251 29.3402 467.491V470.707H28.3442V462.247ZM31.3682 467.803C31.9922 467.803 32.4682 467.603 32.7962 467.203C33.1242 466.795 33.2882 466.207 33.2882 465.439V465.343C33.2882 464.583 33.1042 463.999 32.7362 463.591C32.3762 463.175 31.9162 462.967 31.3562 462.967C30.7482 462.967 30.2522 463.171 29.8682 463.579C29.4922 463.979 29.3042 464.567 29.3042 465.343V465.439C29.3042 466.215 29.4882 466.803 29.8562 467.203C30.2322 467.603 30.7362 467.803 31.3682 467.803ZM37.8625 467.875L35.4025 462.247H36.4705L38.3905 466.747L40.1305 462.247H41.1505L37.6825 470.707H36.6745L37.8625 467.875ZM45.45 468.631C44.506 468.631 43.758 468.327 43.206 467.719C42.654 467.111 42.378 466.187 42.378 464.947V464.563C42.378 463.971 42.402 463.447 42.45 462.991C42.498 462.527 42.598 462.063 42.75 461.599C42.902 461.127 43.102 460.735 43.35 460.423C43.598 460.111 43.934 459.851 44.358 459.643C44.79 459.435 45.298 459.315 45.882 459.283L46.122 459.271C47.002 459.223 47.598 459.135 47.91 459.007L48.042 459.847C47.634 460.023 46.998 460.131 46.134 460.171L45.954 460.183C44.986 460.231 44.294 460.547 43.878 461.131C43.47 461.707 43.23 462.603 43.158 463.819H43.206C43.422 463.379 43.742 463.031 44.166 462.775C44.598 462.511 45.098 462.379 45.666 462.379C46.538 462.379 47.234 462.663 47.754 463.231C48.282 463.791 48.546 464.519 48.546 465.415V465.463C48.546 466.431 48.254 467.203 47.67 467.779C47.094 468.347 46.354 468.631 45.45 468.631ZM43.95 467.191C44.318 467.599 44.822 467.803 45.462 467.803C46.102 467.803 46.602 467.603 46.962 467.203C47.33 466.795 47.514 466.219 47.514 465.475V465.451C47.514 464.755 47.346 464.207 47.01 463.807C46.682 463.407 46.202 463.207 45.57 463.207C44.906 463.207 44.378 463.415 43.986 463.831C43.602 464.247 43.41 464.815 43.41 465.535V465.559C43.41 466.239 43.59 466.783 43.95 467.191Z" fill="white"/>
<path opacity="0.6" d="M453.596 488.321C452.7 488.321 452.252 488.701 452.252 489.461V489.497C452.252 489.857 452.356 490.129 452.564 490.313C452.772 490.497 453.116 490.589 453.596 490.589H454.772V488.321H453.596ZM451.94 493.805H450.8L452.708 491.177C451.74 490.977 451.256 490.417 451.256 489.497V489.461C451.256 488.805 451.48 488.321 451.928 488.009C452.376 487.689 452.952 487.529 453.656 487.529H455.768V493.805H454.772V491.345H453.692L451.94 493.805ZM462.229 491.009H459.145V493.805H458.149V487.529H459.145V490.169H462.229V487.529H463.225V493.805H462.229V491.009ZM465.599 487.529H467.795C469.267 487.529 470.003 488.061 470.003 489.125V489.161C470.003 489.465 469.919 489.745 469.751 490.001C469.583 490.249 469.331 490.417 468.995 490.505C469.867 490.697 470.303 491.169 470.303 491.921V491.957C470.303 492.565 470.103 493.025 469.703 493.337C469.311 493.649 468.763 493.805 468.059 493.805H465.599V487.529ZM466.595 488.321V490.181H467.795C468.211 490.181 468.507 490.105 468.683 489.953C468.867 489.801 468.959 489.553 468.959 489.209V489.173C468.959 488.853 468.863 488.633 468.671 488.513C468.487 488.385 468.191 488.321 467.783 488.321H466.595ZM466.595 490.973V493.013H467.963C468.403 493.013 468.727 492.937 468.935 492.785C469.151 492.625 469.259 492.369 469.259 492.017V491.981C469.259 491.629 469.151 491.373 468.935 491.213C468.727 491.053 468.403 490.973 467.963 490.973H466.595ZM473.955 493.913C473.339 493.913 472.835 493.761 472.443 493.457C472.059 493.145 471.867 492.681 471.867 492.065C471.867 491.721 471.951 491.421 472.119 491.165C472.295 490.901 472.535 490.697 472.839 490.553C473.143 490.401 473.475 490.293 473.835 490.229C474.195 490.157 474.587 490.121 475.011 490.121H475.911V489.665C475.911 489.161 475.807 488.801 475.599 488.585C475.391 488.361 475.047 488.249 474.567 488.249C473.703 488.249 473.223 488.625 473.127 489.377H472.131C472.195 488.705 472.455 488.213 472.911 487.901C473.375 487.581 473.943 487.421 474.615 487.421C476.143 487.421 476.907 488.169 476.907 489.665V493.805H475.911V493.013C475.431 493.613 474.779 493.913 473.955 493.913ZM474.051 493.121C474.595 493.121 475.039 492.989 475.383 492.725C475.735 492.453 475.911 492.081 475.911 491.609V490.829H475.047C473.591 490.829 472.863 491.241 472.863 492.065C472.863 492.769 473.259 493.121 474.051 493.121ZM479.223 487.529H480.219V488.585C480.403 488.265 480.691 487.993 481.083 487.769C481.475 487.537 481.895 487.421 482.343 487.421C483.183 487.421 483.867 487.705 484.395 488.273C484.931 488.841 485.199 489.609 485.199 490.577V490.673C485.199 491.641 484.935 492.425 484.407 493.025C483.887 493.617 483.199 493.913 482.343 493.913C481.383 493.913 480.675 493.533 480.219 492.773V495.989H479.223V487.529ZM482.247 493.085C482.871 493.085 483.347 492.885 483.675 492.485C484.003 492.077 484.167 491.489 484.167 490.721V490.625C484.167 489.865 483.983 489.281 483.615 488.873C483.255 488.457 482.795 488.249 482.235 488.249C481.627 488.249 481.131 488.453 480.747 488.861C480.371 489.261 480.183 489.849 480.183 490.625V490.721C480.183 491.497 480.367 492.085 480.735 492.485C481.111 492.885 481.615 493.085 482.247 493.085ZM487.035 487.529H488.031V489.725H489.147C489.851 489.725 490.427 489.897 490.875 490.241C491.323 490.585 491.547 491.097 491.547 491.777V491.813C491.547 492.501 491.323 493.005 490.875 493.325C490.435 493.645 489.859 493.805 489.147 493.805H487.035V487.529ZM489.207 493.025C489.687 493.025 490.031 492.925 490.239 492.725C490.447 492.517 490.551 492.213 490.551 491.813V491.777C490.551 491.345 490.443 491.029 490.227 490.829C490.019 490.621 489.679 490.517 489.207 490.517H488.031V493.025H489.207Z" fill="white"/>
<path d="M450.85 514.361L454.826 510.175C455.787 509.157 456.268 508.191 456.268 507.277C456.268 506.717 456.109 506.278 455.792 505.961C455.484 505.643 455.045 505.485 454.476 505.485C453.263 505.485 452.558 506.227 452.362 507.711H451.228C451.303 506.721 451.625 505.942 452.194 505.373C452.773 504.794 453.533 504.505 454.476 504.505C455.4 504.505 456.133 504.761 456.674 505.275C457.225 505.779 457.5 506.46 457.5 507.319C457.5 508.42 456.828 509.633 455.484 510.959L452.726 513.647H457.556V514.641H450.85V514.361ZM463.681 513.759C465.445 513.759 466.327 512.466 466.327 509.881V509.321C466.327 508.154 466.089 507.225 465.613 506.535C465.137 505.835 464.484 505.485 463.653 505.485C462.804 505.485 462.141 505.821 461.665 506.493C461.189 507.165 460.951 508.117 460.951 509.349V509.909C460.951 511.15 461.194 512.102 461.679 512.765C462.165 513.427 462.832 513.759 463.681 513.759ZM463.681 514.767C462.487 514.767 461.525 514.323 460.797 513.437C460.069 512.55 459.705 511.379 459.705 509.923V509.363C459.705 507.879 460.055 506.698 460.755 505.821C461.465 504.943 462.431 504.505 463.653 504.505C464.867 504.505 465.819 504.948 466.509 505.835C467.209 506.721 467.559 507.888 467.559 509.335V509.895C467.559 511.369 467.214 512.55 466.523 513.437C465.842 514.323 464.895 514.767 463.681 514.767ZM469.258 514.361L473.234 510.175C474.196 509.157 474.676 508.191 474.676 507.277C474.676 506.717 474.518 506.278 474.2 505.961C473.892 505.643 473.454 505.485 472.884 505.485C471.671 505.485 470.966 506.227 470.77 507.711H469.636C469.711 506.721 470.033 505.942 470.602 505.373C471.181 504.794 471.942 504.505 472.884 504.505C473.808 504.505 474.541 504.761 475.082 505.275C475.633 505.779 475.908 506.46 475.908 507.319C475.908 508.42 475.236 509.633 473.892 510.959L471.134 513.647H475.964V514.641H469.258V514.361ZM480.044 505.835L477.804 507.445V506.311L480.128 504.631H481.262V514.641H480.044V505.835Z" fill="white"/>
<path opacity="0.6" d="M715.596 488.321C714.7 488.321 714.252 488.701 714.252 489.461V489.497C714.252 489.857 714.356 490.129 714.564 490.313C714.772 490.497 715.116 490.589 715.596 490.589H716.772V488.321H715.596ZM713.94 493.805H712.8L714.708 491.177C713.74 490.977 713.256 490.417 713.256 489.497V489.461C713.256 488.805 713.48 488.321 713.928 488.009C714.376 487.689 714.952 487.529 715.656 487.529H717.768V493.805H716.772V491.345H715.692L713.94 493.805ZM724.229 491.009H721.145V493.805H720.149V487.529H721.145V490.169H724.229V487.529H725.225V493.805H724.229V491.009ZM727.599 487.529H729.795C731.267 487.529 732.003 488.061 732.003 489.125V489.161C732.003 489.465 731.919 489.745 731.751 490.001C731.583 490.249 731.331 490.417 730.995 490.505C731.867 490.697 732.303 491.169 732.303 491.921V491.957C732.303 492.565 732.103 493.025 731.703 493.337C731.311 493.649 730.763 493.805 730.059 493.805H727.599V487.529ZM728.595 488.321V490.181H729.795C730.211 490.181 730.507 490.105 730.683 489.953C730.867 489.801 730.959 489.553 730.959 489.209V489.173C730.959 488.853 730.863 488.633 730.671 488.513C730.487 488.385 730.191 488.321 729.783 488.321H728.595ZM728.595 490.973V493.013H729.963C730.403 493.013 730.727 492.937 730.935 492.785C731.151 492.625 731.259 492.369 731.259 492.017V491.981C731.259 491.629 731.151 491.373 730.935 491.213C730.727 491.053 730.403 490.973 729.963 490.973H728.595ZM735.955 493.913C735.339 493.913 734.835 493.761 734.443 493.457C734.059 493.145 733.867 492.681 733.867 492.065C733.867 491.721 733.951 491.421 734.119 491.165C734.295 490.901 734.535 490.697 734.839 490.553C735.143 490.401 735.475 490.293 735.835 490.229C736.195 490.157 736.587 490.121 737.011 490.121H737.911V489.665C737.911 489.161 737.807 488.801 737.599 488.585C737.391 488.361 737.047 488.249 736.567 488.249C735.703 488.249 735.223 488.625 735.127 489.377H734.131C734.195 488.705 734.455 488.213 734.911 487.901C735.375 487.581 735.943 487.421 736.615 487.421C738.143 487.421 738.907 488.169 738.907 489.665V493.805H737.911V493.013C737.431 493.613 736.779 493.913 735.955 493.913ZM736.051 493.121C736.595 493.121 737.039 492.989 737.383 492.725C737.735 492.453 737.911 492.081 737.911 491.609V490.829H737.047C735.591 490.829 734.863 491.241 734.863 492.065C734.863 492.769 735.259 493.121 736.051 493.121ZM741.223 487.529H742.219V488.585C742.403 488.265 742.691 487.993 743.083 487.769C743.475 487.537 743.895 487.421 744.343 487.421C745.183 487.421 745.867 487.705 746.395 488.273C746.931 488.841 747.199 489.609 747.199 490.577V490.673C747.199 491.641 746.935 492.425 746.407 493.025C745.887 493.617 745.199 493.913 744.343 493.913C743.383 493.913 742.675 493.533 742.219 492.773V495.989H741.223V487.529ZM744.247 493.085C744.871 493.085 745.347 492.885 745.675 492.485C746.003 492.077 746.167 491.489 746.167 490.721V490.625C746.167 489.865 745.983 489.281 745.615 488.873C745.255 488.457 744.795 488.249 744.235 488.249C743.627 488.249 743.131 488.453 742.747 488.861C742.371 489.261 742.183 489.849 742.183 490.625V490.721C742.183 491.497 742.367 492.085 742.735 492.485C743.111 492.885 743.615 493.085 744.247 493.085ZM749.035 487.529H750.031V489.725H751.147C751.851 489.725 752.427 489.897 752.875 490.241C753.323 490.585 753.547 491.097 753.547 491.777V491.813C753.547 492.501 753.323 493.005 752.875 493.325C752.435 493.645 751.859 493.805 751.147 493.805H749.035V487.529ZM751.207 493.025C751.687 493.025 752.031 492.925 752.239 492.725C752.447 492.517 752.551 492.213 752.551 491.813V491.777C752.551 491.345 752.443 491.029 752.227 490.829C752.019 490.621 751.679 490.517 751.207 490.517H750.031V493.025H751.207Z" fill="white"/>
<path d="M712.85 514.361L716.826 510.175C717.787 509.157 718.268 508.191 718.268 507.277C718.268 506.717 718.109 506.278 717.792 505.961C717.484 505.643 717.045 505.485 716.476 505.485C715.263 505.485 714.558 506.227 714.362 507.711H713.228C713.303 506.721 713.625 505.942 714.194 505.373C714.773 504.794 715.533 504.505 716.476 504.505C717.4 504.505 718.133 504.761 718.674 505.275C719.225 505.779 719.5 506.46 719.5 507.319C719.5 508.42 718.828 509.633 717.484 510.959L714.726 513.647H719.556V514.641H712.85V514.361ZM725.681 513.759C727.445 513.759 728.327 512.466 728.327 509.881V509.321C728.327 508.154 728.089 507.225 727.613 506.535C727.137 505.835 726.484 505.485 725.653 505.485C724.804 505.485 724.141 505.821 723.665 506.493C723.189 507.165 722.951 508.117 722.951 509.349V509.909C722.951 511.15 723.194 512.102 723.679 512.765C724.165 513.427 724.832 513.759 725.681 513.759ZM725.681 514.767C724.487 514.767 723.525 514.323 722.797 513.437C722.069 512.55 721.705 511.379 721.705 509.923V509.363C721.705 507.879 722.055 506.698 722.755 505.821C723.465 504.943 724.431 504.505 725.653 504.505C726.867 504.505 727.819 504.948 728.509 505.835C729.209 506.721 729.559 507.888 729.559 509.335V509.895C729.559 511.369 729.214 512.55 728.523 513.437C727.842 514.323 726.895 514.767 725.681 514.767ZM731.258 514.361L735.234 510.175C736.196 509.157 736.676 508.191 736.676 507.277C736.676 506.717 736.518 506.278 736.2 505.961C735.892 505.643 735.454 505.485 734.884 505.485C733.671 505.485 732.966 506.227 732.77 507.711H731.636C731.711 506.721 732.033 505.942 732.602 505.373C733.181 504.794 733.942 504.505 734.884 504.505C735.808 504.505 736.541 504.761 737.082 505.275C737.633 505.779 737.908 506.46 737.908 507.319C737.908 508.42 737.236 509.633 735.892 510.959L733.134 513.647H737.964V514.641H731.258V514.361ZM739.608 514.361L743.584 510.175C744.545 509.157 745.026 508.191 745.026 507.277C745.026 506.717 744.867 506.278 744.55 505.961C744.242 505.643 743.803 505.485 743.234 505.485C742.021 505.485 741.316 506.227 741.12 507.711H739.986C740.061 506.721 740.383 505.942 740.952 505.373C741.531 504.794 742.291 504.505 743.234 504.505C744.158 504.505 744.891 504.761 745.432 505.275C745.983 505.779 746.258 506.46 746.258 507.319C746.258 508.42 745.586 509.633 744.242 510.959L741.484 513.647H746.314V514.641H739.608V514.361Z" fill="white"/>
<path opacity="0.6" d="M320.508 493.805V487.529H321.504V492.365L324.708 487.529H325.704V493.805H324.708V488.969L321.504 493.805H320.508ZM332.842 493.913C332.042 493.913 331.378 493.665 330.85 493.169C330.33 492.673 330.022 492.021 329.926 491.213C329.91 491.101 329.902 491.033 329.902 491.009H328.954V493.805H327.958V487.529H328.954V490.169H329.914C330.01 489.337 330.318 488.673 330.838 488.177C331.366 487.673 332.038 487.421 332.854 487.421C333.742 487.421 334.458 487.717 335.002 488.309C335.546 488.901 335.818 489.669 335.818 490.613V490.709C335.818 491.661 335.542 492.433 334.99 493.025C334.446 493.617 333.73 493.913 332.842 493.913ZM332.854 493.085C333.47 493.085 333.946 492.873 334.282 492.449C334.618 492.025 334.786 491.449 334.786 490.721V490.637C334.786 489.901 334.618 489.321 334.282 488.897C333.946 488.465 333.47 488.249 332.854 488.249C332.23 488.249 331.75 488.461 331.414 488.885C331.086 489.309 330.922 489.889 330.922 490.625V490.721C330.922 491.457 331.086 492.037 331.414 492.461C331.742 492.877 332.222 493.085 332.854 493.085ZM338.869 491.381C338.797 492.245 338.645 492.877 338.413 493.277C338.181 493.669 337.817 493.865 337.321 493.865C337.217 493.865 337.109 493.857 336.997 493.841L336.901 493.805V492.857L336.985 492.881C337.065 492.897 337.149 492.905 337.237 492.905C337.365 492.905 337.469 492.869 337.549 492.797C337.637 492.717 337.705 492.593 337.753 492.425C337.809 492.257 337.849 492.101 337.873 491.957C337.897 491.805 337.925 491.593 337.957 491.321C337.989 491.033 338.037 490.217 338.101 488.873L338.137 487.529H342.277V493.805H341.281V488.369H339.025C338.953 490.097 338.901 491.101 338.869 491.381ZM344.65 487.529H345.647V489.725H346.763C347.467 489.725 348.043 489.897 348.491 490.241C348.939 490.585 349.163 491.097 349.163 491.777V491.813C349.163 492.501 348.939 493.005 348.491 493.325C348.051 493.645 347.475 493.805 346.763 493.805H344.65V487.529ZM346.823 493.025C347.303 493.025 347.647 492.925 347.855 492.725C348.062 492.517 348.166 492.213 348.166 491.813V491.777C348.166 491.345 348.059 491.029 347.843 490.829C347.635 490.621 347.294 490.517 346.823 490.517H345.647V493.025H346.823Z" fill="white"/>
<path d="M319.85 514.361L323.826 510.175C324.787 509.157 325.268 508.191 325.268 507.277C325.268 506.717 325.109 506.278 324.792 505.961C324.484 505.643 324.045 505.485 323.476 505.485C322.263 505.485 321.558 506.227 321.362 507.711H320.228C320.303 506.721 320.625 505.942 321.194 505.373C321.773 504.794 322.533 504.505 323.476 504.505C324.4 504.505 325.133 504.761 325.674 505.275C326.225 505.779 326.5 506.46 326.5 507.319C326.5 508.42 325.828 509.633 324.484 510.959L321.726 513.647H326.556V514.641H319.85V514.361ZM332.681 513.759C334.445 513.759 335.327 512.466 335.327 509.881V509.321C335.327 508.154 335.089 507.225 334.613 506.535C334.137 505.835 333.484 505.485 332.653 505.485C331.804 505.485 331.141 505.821 330.665 506.493C330.189 507.165 329.951 508.117 329.951 509.349V509.909C329.951 511.15 330.194 512.102 330.679 512.765C331.165 513.427 331.832 513.759 332.681 513.759ZM332.681 514.767C331.487 514.767 330.525 514.323 329.797 513.437C329.069 512.55 328.705 511.379 328.705 509.923V509.363C328.705 507.879 329.055 506.698 329.755 505.821C330.465 504.943 331.431 504.505 332.653 504.505C333.867 504.505 334.819 504.948 335.509 505.835C336.209 506.721 336.559 507.888 336.559 509.335V509.895C336.559 511.369 336.214 512.55 335.523 513.437C334.842 514.323 333.895 514.767 332.681 514.767ZM338.258 514.361L342.234 510.175C343.196 509.157 343.676 508.191 343.676 507.277C343.676 506.717 343.518 506.278 343.2 505.961C342.892 505.643 342.454 505.485 341.884 505.485C340.671 505.485 339.966 506.227 339.77 507.711H338.636C338.711 506.721 339.033 505.942 339.602 505.373C340.181 504.794 340.942 504.505 341.884 504.505C342.808 504.505 343.541 504.761 344.082 505.275C344.633 505.779 344.908 506.46 344.908 507.319C344.908 508.42 344.236 509.633 342.892 510.959L340.134 513.647H344.964V514.641H338.258V514.361ZM351.09 513.759C352.854 513.759 353.736 512.466 353.736 509.881V509.321C353.736 508.154 353.498 507.225 353.022 506.535C352.546 505.835 351.892 505.485 351.062 505.485C350.212 505.485 349.55 505.821 349.074 506.493C348.598 507.165 348.36 508.117 348.36 509.349V509.909C348.36 511.15 348.602 512.102 349.088 512.765C349.573 513.427 350.24 513.759 351.09 513.759ZM351.09 514.767C349.895 514.767 348.934 514.323 348.206 513.437C347.478 512.55 347.114 511.379 347.114 509.923V509.363C347.114 507.879 347.464 506.698 348.164 505.821C348.873 504.943 349.839 504.505 351.062 504.505C352.275 504.505 353.227 504.948 353.918 505.835C354.618 506.721 354.968 507.888 354.968 509.335V509.895C354.968 511.369 354.622 512.55 353.932 513.437C353.25 514.323 352.303 514.767 351.09 514.767Z" fill="white"/>
<path opacity="0.6" d="M191.596 488.321C190.7 488.321 190.252 488.701 190.252 489.461V489.497C190.252 489.857 190.356 490.129 190.564 490.313C190.772 490.497 191.116 490.589 191.596 490.589H192.772V488.321H191.596ZM189.94 493.805H188.8L190.708 491.177C189.74 490.977 189.256 490.417 189.256 489.497V489.461C189.256 488.805 189.48 488.321 189.928 488.009C190.376 487.689 190.952 487.529 191.656 487.529H193.768V493.805H192.772V491.345H191.692L189.94 493.805ZM200.229 491.009H197.145V493.805H196.149V487.529H197.145V490.169H200.229V487.529H201.225V493.805H200.229V491.009ZM203.599 487.529H205.795C207.267 487.529 208.003 488.061 208.003 489.125V489.161C208.003 489.465 207.919 489.745 207.751 490.001C207.583 490.249 207.331 490.417 206.995 490.505C207.867 490.697 208.303 491.169 208.303 491.921V491.957C208.303 492.565 208.103 493.025 207.703 493.337C207.311 493.649 206.763 493.805 206.059 493.805H203.599V487.529ZM204.595 488.321V490.181H205.795C206.211 490.181 206.507 490.105 206.683 489.953C206.867 489.801 206.959 489.553 206.959 489.209V489.173C206.959 488.853 206.863 488.633 206.671 488.513C206.487 488.385 206.191 488.321 205.783 488.321H204.595ZM204.595 490.973V493.013H205.963C206.403 493.013 206.727 492.937 206.935 492.785C207.151 492.625 207.259 492.369 207.259 492.017V491.981C207.259 491.629 207.151 491.373 206.935 491.213C206.727 491.053 206.403 490.973 205.963 490.973H204.595ZM211.955 493.913C211.339 493.913 210.835 493.761 210.443 493.457C210.059 493.145 209.867 492.681 209.867 492.065C209.867 491.721 209.951 491.421 210.119 491.165C210.295 490.901 210.535 490.697 210.839 490.553C211.143 490.401 211.475 490.293 211.835 490.229C212.195 490.157 212.587 490.121 213.011 490.121H213.911V489.665C213.911 489.161 213.807 488.801 213.599 488.585C213.391 488.361 213.047 488.249 212.567 488.249C211.703 488.249 211.223 488.625 211.127 489.377H210.131C210.195 488.705 210.455 488.213 210.911 487.901C211.375 487.581 211.943 487.421 212.615 487.421C214.143 487.421 214.907 488.169 214.907 489.665V493.805H213.911V493.013C213.431 493.613 212.779 493.913 211.955 493.913ZM212.051 493.121C212.595 493.121 213.039 492.989 213.383 492.725C213.735 492.453 213.911 492.081 213.911 491.609V490.829H213.047C211.591 490.829 210.863 491.241 210.863 492.065C210.863 492.769 211.259 493.121 212.051 493.121ZM217.223 487.529H218.219V488.585C218.403 488.265 218.691 487.993 219.083 487.769C219.475 487.537 219.895 487.421 220.343 487.421C221.183 487.421 221.867 487.705 222.395 488.273C222.931 488.841 223.199 489.609 223.199 490.577V490.673C223.199 491.641 222.935 492.425 222.407 493.025C221.887 493.617 221.199 493.913 220.343 493.913C219.383 493.913 218.675 493.533 218.219 492.773V495.989H217.223V487.529ZM220.247 493.085C220.871 493.085 221.347 492.885 221.675 492.485C222.003 492.077 222.167 491.489 222.167 490.721V490.625C222.167 489.865 221.983 489.281 221.615 488.873C221.255 488.457 220.795 488.249 220.235 488.249C219.627 488.249 219.131 488.453 218.747 488.861C218.371 489.261 218.183 489.849 218.183 490.625V490.721C218.183 491.497 218.367 492.085 218.735 492.485C219.111 492.885 219.615 493.085 220.247 493.085ZM225.035 487.529H226.031V489.725H227.147C227.851 489.725 228.427 489.897 228.875 490.241C229.323 490.585 229.547 491.097 229.547 491.777V491.813C229.547 492.501 229.323 493.005 228.875 493.325C228.435 493.645 227.859 493.805 227.147 493.805H225.035V487.529ZM227.207 493.025C227.687 493.025 228.031 492.925 228.239 492.725C228.447 492.517 228.551 492.213 228.551 491.813V491.777C228.551 491.345 228.443 491.029 228.227 490.829C228.019 490.621 227.679 490.517 227.207 490.517H226.031V493.025H227.207Z" fill="white"/>
<path d="M188.85 514.525L192.826 510.339C193.787 509.321 194.268 508.355 194.268 507.441C194.268 506.881 194.109 506.442 193.792 506.125C193.484 505.807 193.045 505.649 192.476 505.649C191.263 505.649 190.558 506.391 190.362 507.875H189.228C189.303 506.885 189.625 506.106 190.194 505.537C190.773 504.958 191.533 504.669 192.476 504.669C193.4 504.669 194.133 504.925 194.674 505.439C195.225 505.943 195.5 506.624 195.5 507.483C195.5 508.584 194.828 509.797 193.484 511.123L190.726 513.811H195.556V514.805H188.85V514.525ZM201.681 513.923C203.445 513.923 204.327 512.63 204.327 510.045V509.485C204.327 508.318 204.089 507.389 203.613 506.699C203.137 505.999 202.484 505.649 201.653 505.649C200.804 505.649 200.141 505.985 199.665 506.657C199.189 507.329 198.951 508.281 198.951 509.513V510.073C198.951 511.314 199.194 512.266 199.679 512.929C200.165 513.591 200.832 513.923 201.681 513.923ZM201.681 514.931C200.487 514.931 199.525 514.487 198.797 513.601C198.069 512.714 197.705 511.543 197.705 510.087V509.527C197.705 508.043 198.055 506.862 198.755 505.985C199.465 505.107 200.431 504.669 201.653 504.669C202.867 504.669 203.819 505.112 204.509 505.999C205.209 506.885 205.559 508.052 205.559 509.499V510.059C205.559 511.533 205.214 512.714 204.523 513.601C203.842 514.487 202.895 514.931 201.681 514.931ZM207.258 514.525L211.234 510.339C212.196 509.321 212.676 508.355 212.676 507.441C212.676 506.881 212.518 506.442 212.2 506.125C211.892 505.807 211.454 505.649 210.884 505.649C209.671 505.649 208.966 506.391 208.77 507.875H207.636C207.711 506.885 208.033 506.106 208.602 505.537C209.181 504.958 209.942 504.669 210.884 504.669C211.808 504.669 212.541 504.925 213.082 505.439C213.633 505.943 213.908 506.624 213.908 507.483C213.908 508.584 213.236 509.797 211.892 511.123L209.134 513.811H213.964V514.805H207.258V514.525ZM220.09 513.923C221.854 513.923 222.736 512.63 222.736 510.045V509.485C222.736 508.318 222.498 507.389 222.022 506.699C221.546 505.999 220.892 505.649 220.062 505.649C219.212 505.649 218.55 505.985 218.074 506.657C217.598 507.329 217.36 508.281 217.36 509.513V510.073C217.36 511.314 217.602 512.266 218.088 512.929C218.573 513.591 219.24 513.923 220.09 513.923ZM220.09 514.931C218.895 514.931 217.934 514.487 217.206 513.601C216.478 512.714 216.114 511.543 216.114 510.087V509.527C216.114 508.043 216.464 506.862 217.164 505.985C217.873 505.107 218.839 504.669 220.062 504.669C221.275 504.669 222.227 505.112 222.918 505.999C223.618 506.885 223.968 508.052 223.968 509.499V510.059C223.968 511.533 223.622 512.714 222.932 513.601C222.25 514.487 221.303 514.931 220.09 514.931Z" fill="white"/>
<path opacity="0.6" d="M582.508 493.805V487.529H583.504V492.365L586.708 487.529H587.704V493.805H586.708V488.969L583.504 493.805H582.508ZM594.842 493.913C594.042 493.913 593.378 493.665 592.85 493.169C592.33 492.673 592.022 492.021 591.926 491.213C591.91 491.101 591.902 491.033 591.902 491.009H590.954V493.805H589.958V487.529H590.954V490.169H591.914C592.01 489.337 592.318 488.673 592.838 488.177C593.366 487.673 594.038 487.421 594.854 487.421C595.742 487.421 596.458 487.717 597.002 488.309C597.546 488.901 597.818 489.669 597.818 490.613V490.709C597.818 491.661 597.542 492.433 596.99 493.025C596.446 493.617 595.73 493.913 594.842 493.913ZM594.854 493.085C595.47 493.085 595.946 492.873 596.282 492.449C596.618 492.025 596.786 491.449 596.786 490.721V490.637C596.786 489.901 596.618 489.321 596.282 488.897C595.946 488.465 595.47 488.249 594.854 488.249C594.23 488.249 593.75 488.461 593.414 488.885C593.086 489.309 592.922 489.889 592.922 490.625V490.721C592.922 491.457 593.086 492.037 593.414 492.461C593.742 492.877 594.222 493.085 594.854 493.085ZM600.869 491.381C600.797 492.245 600.645 492.877 600.413 493.277C600.181 493.669 599.817 493.865 599.321 493.865C599.217 493.865 599.109 493.857 598.997 493.841L598.901 493.805V492.857L598.985 492.881C599.065 492.897 599.149 492.905 599.237 492.905C599.365 492.905 599.469 492.869 599.549 492.797C599.637 492.717 599.705 492.593 599.753 492.425C599.809 492.257 599.849 492.101 599.873 491.957C599.897 491.805 599.925 491.593 599.957 491.321C599.989 491.033 600.037 490.217 600.101 488.873L600.137 487.529H604.277V493.805H603.281V488.369H601.025C600.953 490.097 600.901 491.101 600.869 491.381ZM606.65 487.529H607.647V489.725H608.763C609.467 489.725 610.043 489.897 610.491 490.241C610.939 490.585 611.163 491.097 611.163 491.777V491.813C611.163 492.501 610.939 493.005 610.491 493.325C610.051 493.645 609.475 493.805 608.763 493.805H606.65V487.529ZM608.823 493.025C609.303 493.025 609.647 492.925 609.855 492.725C610.062 492.517 610.166 492.213 610.166 491.813V491.777C610.166 491.345 610.059 491.029 609.843 490.829C609.635 490.621 609.294 490.517 608.823 490.517H607.647V493.025H608.823Z" fill="white"/>
<path d="M581.85 514.361L585.826 510.175C586.787 509.157 587.268 508.191 587.268 507.277C587.268 506.717 587.109 506.278 586.792 505.961C586.484 505.643 586.045 505.485 585.476 505.485C584.263 505.485 583.558 506.227 583.362 507.711H582.228C582.303 506.721 582.625 505.942 583.194 505.373C583.773 504.794 584.533 504.505 585.476 504.505C586.4 504.505 587.133 504.761 587.674 505.275C588.225 505.779 588.5 506.46 588.5 507.319C588.5 508.42 587.828 509.633 586.484 510.959L583.726 513.647H588.556V514.641H581.85V514.361ZM594.681 513.759C596.445 513.759 597.327 512.466 597.327 509.881V509.321C597.327 508.154 597.089 507.225 596.613 506.535C596.137 505.835 595.484 505.485 594.653 505.485C593.804 505.485 593.141 505.821 592.665 506.493C592.189 507.165 591.951 508.117 591.951 509.349V509.909C591.951 511.15 592.194 512.102 592.679 512.765C593.165 513.427 593.832 513.759 594.681 513.759ZM594.681 514.767C593.487 514.767 592.525 514.323 591.797 513.437C591.069 512.55 590.705 511.379 590.705 509.923V509.363C590.705 507.879 591.055 506.698 591.755 505.821C592.465 504.943 593.431 504.505 594.653 504.505C595.867 504.505 596.819 504.948 597.509 505.835C598.209 506.721 598.559 507.888 598.559 509.335V509.895C598.559 511.369 598.214 512.55 597.523 513.437C596.842 514.323 595.895 514.767 594.681 514.767ZM600.258 514.361L604.234 510.175C605.196 509.157 605.676 508.191 605.676 507.277C605.676 506.717 605.518 506.278 605.2 505.961C604.892 505.643 604.454 505.485 603.884 505.485C602.671 505.485 601.966 506.227 601.77 507.711H600.636C600.711 506.721 601.033 505.942 601.602 505.373C602.181 504.794 602.942 504.505 603.884 504.505C604.808 504.505 605.541 504.761 606.082 505.275C606.633 505.779 606.908 506.46 606.908 507.319C606.908 508.42 606.236 509.633 604.892 510.959L602.134 513.647H606.964V514.641H600.258V514.361ZM611.044 505.835L608.804 507.445V506.311L611.128 504.631H612.262V514.641H611.044V505.835Z" fill="white"/>
<path opacity="0.75" d="M2.348 355.817V361.109H1.52V354.833H2.924L4.712 359.549L6.548 354.833H7.916V361.109H6.932V355.817L4.856 361.109H4.4L2.348 355.817ZM11.5055 358.685C11.4335 359.549 11.2815 360.181 11.0495 360.581C10.8175 360.973 10.4535 361.169 9.9575 361.169C9.8535 361.169 9.7455 361.161 9.6335 361.145L9.5375 361.109V360.161L9.6215 360.185C9.7015 360.201 9.7855 360.209 9.8735 360.209C10.0015 360.209 10.1055 360.173 10.1855 360.101C10.2735 360.021 10.3415 359.897 10.3895 359.729C10.4455 359.561 10.4855 359.405 10.5095 359.261C10.5335 359.109 10.5615 358.897 10.5935 358.625C10.6255 358.337 10.6735 357.521 10.7375 356.177L10.7735 354.833H14.9135V361.109H13.9175V355.673H11.6615C11.5895 357.401 11.5375 358.405 11.5055 358.685ZM21.3666 358.313H18.2826V361.109H17.2866V354.833H18.2826V357.473H21.3666V354.833H22.3626V361.109H21.3666V358.313ZM28.3442 354.833H29.3402V355.889C29.5242 355.569 29.8122 355.297 30.2042 355.073C30.5962 354.841 31.0162 354.725 31.4642 354.725C32.3042 354.725 32.9882 355.009 33.5162 355.577C34.0522 356.145 34.3202 356.913 34.3202 357.881V357.977C34.3202 358.945 34.0562 359.729 33.5282 360.329C33.0082 360.921 32.3202 361.217 31.4642 361.217C30.5042 361.217 29.7962 360.837 29.3402 360.077V363.293H28.3442V354.833ZM31.3682 360.389C31.9922 360.389 32.4682 360.189 32.7962 359.789C33.1242 359.381 33.2882 358.793 33.2882 358.025V357.929C33.2882 357.169 33.1042 356.585 32.7362 356.177C32.3762 355.761 31.9162 355.553 31.3562 355.553C30.7482 355.553 30.2522 355.757 29.8682 356.165C29.4922 356.565 29.3042 357.153 29.3042 357.929V358.025C29.3042 358.801 29.4882 359.389 29.8562 359.789C30.2322 360.189 30.7362 360.389 31.3682 360.389ZM37.8625 360.461L35.4025 354.833H36.4705L38.3905 359.333L40.1305 354.833H41.1505L37.6825 363.293H36.6745L37.8625 360.461ZM45.45 361.217C44.506 361.217 43.758 360.913 43.206 360.305C42.654 359.697 42.378 358.773 42.378 357.533V357.149C42.378 356.557 42.402 356.033 42.45 355.577C42.498 355.113 42.598 354.649 42.75 354.185C42.902 353.713 43.102 353.321 43.35 353.009C43.598 352.697 43.934 352.437 44.358 352.229C44.79 352.021 45.298 351.901 45.882 351.869L46.122 351.857C47.002 351.809 47.598 351.721 47.91 351.593L48.042 352.433C47.634 352.609 46.998 352.717 46.134 352.757L45.954 352.769C44.986 352.817 44.294 353.133 43.878 353.717C43.47 354.293 43.23 355.189 43.158 356.405H43.206C43.422 355.965 43.742 355.617 44.166 355.361C44.598 355.097 45.098 354.965 45.666 354.965C46.538 354.965 47.234 355.249 47.754 355.817C48.282 356.377 48.546 357.105 48.546 358.001V358.049C48.546 359.017 48.254 359.789 47.67 360.365C47.094 360.933 46.354 361.217 45.45 361.217ZM43.95 359.777C44.318 360.185 44.822 360.389 45.462 360.389C46.102 360.389 46.602 360.189 46.962 359.789C47.33 359.381 47.514 358.805 47.514 358.061V358.037C47.514 357.341 47.346 356.793 47.01 356.393C46.682 355.993 46.202 355.793 45.57 355.793C44.906 355.793 44.378 356.001 43.986 356.417C43.602 356.833 43.41 357.401 43.41 358.121V358.145C43.41 358.825 43.59 359.369 43.95 359.777Z" fill="white"/>
<path d="M29.1 339.039C31.116 339.039 32.124 337.562 32.124 334.607V333.967C32.124 332.634 31.852 331.572 31.308 330.783C30.764 329.983 30.0173 329.583 29.068 329.583C28.0973 329.583 27.34 329.967 26.796 330.735C26.252 331.503 25.98 332.591 25.98 333.999V334.639C25.98 336.058 26.2573 337.146 26.812 337.903C27.3667 338.66 28.1293 339.039 29.1 339.039ZM29.1 340.191C27.7347 340.191 26.636 339.684 25.804 338.671C24.972 337.658 24.556 336.319 24.556 334.655V334.015C24.556 332.319 24.956 330.97 25.756 329.967C26.5667 328.964 27.6707 328.463 29.068 328.463C30.4547 328.463 31.5427 328.97 32.332 329.983C33.132 330.996 33.532 332.33 33.532 333.983V334.623C33.532 336.308 33.1373 337.658 32.348 338.671C31.5693 339.684 30.4867 340.191 29.1 340.191ZM34.9489 341.567L36.4849 338.063L37.7809 338.671L35.8129 342.015L34.9489 341.567ZM45.2674 337.647H39.5394V337.199L44.7714 328.607H46.6274V336.511H48.2114V337.647H46.6274V340.047H45.2674V337.647ZM45.2674 336.511V329.663L41.2994 336.511H45.2674Z" fill="white"/>
<path opacity="0.75" d="M2.348 248.403V253.695H1.52V247.419H2.924L4.712 252.135L6.548 247.419H7.916V253.695H6.932V248.403L4.856 253.695H4.4L2.348 248.403ZM11.5055 251.271C11.4335 252.135 11.2815 252.767 11.0495 253.167C10.8175 253.559 10.4535 253.755 9.9575 253.755C9.8535 253.755 9.7455 253.747 9.6335 253.731L9.5375 253.695V252.747L9.6215 252.771C9.7015 252.787 9.7855 252.795 9.8735 252.795C10.0015 252.795 10.1055 252.759 10.1855 252.687C10.2735 252.607 10.3415 252.483 10.3895 252.315C10.4455 252.147 10.4855 251.991 10.5095 251.847C10.5335 251.695 10.5615 251.483 10.5935 251.211C10.6255 250.923 10.6735 250.107 10.7375 248.763L10.7735 247.419H14.9135V253.695H13.9175V248.259H11.6615C11.5895 249.987 11.5375 250.991 11.5055 251.271ZM21.3666 250.899H18.2826V253.695H17.2866V247.419H18.2826V250.059H21.3666V247.419H22.3626V253.695H21.3666V250.899ZM28.3442 247.419H29.3402V248.475C29.5242 248.155 29.8122 247.883 30.2042 247.659C30.5962 247.427 31.0162 247.311 31.4642 247.311C32.3042 247.311 32.9882 247.595 33.5162 248.163C34.0522 248.731 34.3202 249.499 34.3202 250.467V250.563C34.3202 251.531 34.0562 252.315 33.5282 252.915C33.0082 253.507 32.3202 253.803 31.4642 253.803C30.5042 253.803 29.7962 253.423 29.3402 252.663V255.879H28.3442V247.419ZM31.3682 252.975C31.9922 252.975 32.4682 252.775 32.7962 252.375C33.1242 251.967 33.2882 251.379 33.2882 250.611V250.515C33.2882 249.755 33.1042 249.171 32.7362 248.763C32.3762 248.347 31.9162 248.139 31.3562 248.139C30.7482 248.139 30.2522 248.343 29.8682 248.751C29.4922 249.151 29.3042 249.739 29.3042 250.515V250.611C29.3042 251.387 29.4882 251.975 29.8562 252.375C30.2322 252.775 30.7362 252.975 31.3682 252.975ZM37.8625 253.047L35.4025 247.419H36.4705L38.3905 251.919L40.1305 247.419H41.1505L37.6825 255.879H36.6745L37.8625 253.047ZM45.45 253.803C44.506 253.803 43.758 253.499 43.206 252.891C42.654 252.283 42.378 251.359 42.378 250.119V249.735C42.378 249.143 42.402 248.619 42.45 248.163C42.498 247.699 42.598 247.235 42.75 246.771C42.902 246.299 43.102 245.907 43.35 245.595C43.598 245.283 43.934 245.023 44.358 244.815C44.79 244.607 45.298 244.487 45.882 244.455L46.122 244.443C47.002 244.395 47.598 244.307 47.91 244.179L48.042 245.019C47.634 245.195 46.998 245.303 46.134 245.343L45.954 245.355C44.986 245.403 44.294 245.719 43.878 246.303C43.47 246.879 43.23 247.775 43.158 248.991H43.206C43.422 248.551 43.742 248.203 44.166 247.947C44.598 247.683 45.098 247.551 45.666 247.551C46.538 247.551 47.234 247.835 47.754 248.403C48.282 248.963 48.546 249.691 48.546 250.587V250.635C48.546 251.603 48.254 252.375 47.67 252.951C47.094 253.519 46.354 253.803 45.45 253.803ZM43.95 252.363C44.318 252.771 44.822 252.975 45.462 252.975C46.102 252.975 46.602 252.775 46.962 252.375C47.33 251.967 47.514 251.391 47.514 250.647V250.623C47.514 249.927 47.346 249.379 47.01 248.979C46.682 248.579 46.202 248.379 45.57 248.379C44.906 248.379 44.378 248.587 43.986 249.003C43.602 249.419 43.41 249.987 43.41 250.707V250.731C43.41 251.411 43.59 251.955 43.95 252.363Z" fill="white"/>
<path d="M29.1 231.625C31.116 231.625 32.124 230.147 32.124 227.193V226.553C32.124 225.219 31.852 224.158 31.308 223.369C30.764 222.569 30.0173 222.169 29.068 222.169C28.0973 222.169 27.34 222.553 26.796 223.321C26.252 224.089 25.98 225.177 25.98 226.585V227.225C25.98 228.643 26.2573 229.731 26.812 230.489C27.3667 231.246 28.1293 231.625 29.1 231.625ZM29.1 232.777C27.7347 232.777 26.636 232.27 25.804 231.257C24.972 230.243 24.556 228.905 24.556 227.241V226.601C24.556 224.905 24.956 223.555 25.756 222.553C26.5667 221.55 27.6707 221.049 29.068 221.049C30.4547 221.049 31.5427 221.555 32.332 222.569C33.132 223.582 33.532 224.915 33.532 226.569V227.209C33.532 228.894 33.1373 230.243 32.348 231.257C31.5693 232.27 30.4867 232.777 29.1 232.777ZM34.9489 234.153L36.4849 230.649L37.7809 231.257L35.8129 234.601L34.9489 234.153ZM43.8311 232.777C41.0898 232.777 39.7191 231.043 39.7191 227.577V227.305C39.7191 225.299 40.1245 223.758 40.9351 222.681C41.7565 221.593 42.8445 221.049 44.1991 221.049C45.1165 221.049 45.8631 221.283 46.4391 221.753C47.0258 222.222 47.3938 222.91 47.5431 223.817H46.2151C46.0871 223.262 45.8578 222.851 45.5271 222.585C45.1965 222.318 44.7218 222.185 44.1031 222.185C43.2178 222.185 42.5031 222.579 41.9591 223.369C41.4151 224.158 41.1271 225.289 41.0951 226.761C41.7138 225.726 42.6951 225.209 44.0391 225.209C45.1591 225.209 46.0605 225.566 46.7431 226.281C47.4365 226.985 47.7831 227.875 47.7831 228.953C47.7831 230.105 47.4258 231.033 46.7111 231.737C45.9965 232.43 45.0365 232.777 43.8311 232.777ZM43.8311 231.689C44.5778 231.689 45.1858 231.443 45.6551 230.953C46.1245 230.462 46.3591 229.817 46.3591 229.017C46.3591 228.185 46.1298 227.523 45.6711 227.033C45.2125 226.542 44.5938 226.297 43.8151 226.297C43.0471 226.297 42.4178 226.531 41.9271 227.001C41.4365 227.47 41.1911 228.078 41.1911 228.825C41.1911 229.731 41.4311 230.435 41.9111 230.937C42.4018 231.438 43.0418 231.689 43.8311 231.689Z" fill="white"/>
<circle cx="303" cy="397.305" r="5.5" fill="#F1D5C0"/>
<circle cx="172" cy="444.305" r="5.5" fill="#F1D5C0"/>
<circle cx="434" cy="289.305" r="5.5" fill="#F1D5C0"/>
<circle cx="696" cy="201.305" r="5.5" fill="#F1D5C0"/>
<circle cx="789.5" cy="20.3672" r="5.5" fill="#F1D5C0"/>
<circle cx="565" cy="234.305" r="5.5" fill="#F1D5C0"/>
<rect opacity="0.3" x="171.5" y="442.805" width="1" height="77" fill="#F1D5C0"/>
<rect opacity="0.3" x="302.5" y="397.805" width="1" height="122" fill="#F1D5C0"/>
<rect opacity="0.3" x="433.5" y="287.805" width="1" height="232" fill="#F1D5C0"/>
<rect opacity="0.3" x="695.5" y="198.805" width="1" height="321" fill="#F1D5C0"/>
<rect opacity="0.3" x="564.5" y="234.805" width="1" height="285" fill="#F1D5C0"/>
<path d="M90 503.805L171.5 443.305L302.5 398.305L436 287.805L568.5 233.305L701 200.805L789.5 22.8047" stroke="url(#paint0_radial_328_237)"/>
<defs>
<radialGradient id="paint0_radial_328_237" cx="0" cy="0" r="1" gradientUnits="userSpaceOnUse" gradientTransform="translate(484.5 217.805) rotate(56.8851) scale(290.123 470.405)">
<stop stop-color="#F1D5C0"/>
<stop offset="1" stop-color="#F1D5C0" stop-opacity="0"/>
</radialGradient>
</defs>
</svg>
