<svg width="604" height="383" viewBox="0 0 604 383" fill="none" xmlns="http://www.w3.org/2000/svg">
<path d="M25.448 166.6H19.72V166.152L24.952 157.56H26.808V165.464H28.392V166.6H26.808V169H25.448V166.6ZM25.448 165.464V158.616L21.48 165.464H25.448ZM32.2503 158.936L29.6902 160.776V159.48L32.3463 157.56H33.6423V169H32.2503V158.936ZM41.4044 167.992C43.4204 167.992 44.4284 166.515 44.4284 163.56V162.92C44.4284 161.587 44.1564 160.525 43.6124 159.736C43.0684 158.936 42.3217 158.536 41.3724 158.536C40.4017 158.536 39.6444 158.92 39.1004 159.688C38.5564 160.456 38.2844 161.544 38.2844 162.952V163.592C38.2844 165.011 38.5617 166.099 39.1164 166.856C39.671 167.613 40.4337 167.992 41.4044 167.992ZM41.4044 169.144C40.039 169.144 38.9404 168.637 38.1084 167.624C37.2764 166.611 36.8604 165.272 36.8604 163.608V162.968C36.8604 161.272 37.2604 159.923 38.0604 158.92C38.871 157.917 39.975 157.416 41.3724 157.416C42.759 157.416 43.847 157.923 44.6364 158.936C45.4364 159.949 45.8364 161.283 45.8364 162.936V163.576C45.8364 165.261 45.4417 166.611 44.6524 167.624C43.8737 168.637 42.791 169.144 41.4044 169.144Z" fill="white"/>
<path opacity="0.6" d="M5.412 178.564H3.384V184H2.388V178.564H0.36V177.724H5.412V178.564ZM12.3053 177.724H13.3013V184H12.3053V177.724ZM6.90534 177.724H7.90134V179.92H9.01734C9.72934 179.92 10.3053 180.08 10.7453 180.4C11.1933 180.72 11.4173 181.224 11.4173 181.912V181.948C11.4173 182.628 11.1933 183.14 10.7453 183.484C10.2973 183.828 9.72134 184 9.01734 184H6.90534V177.724ZM9.07734 183.208C9.54934 183.208 9.88934 183.108 10.0973 182.908C10.3133 182.7 10.4213 182.38 10.4213 181.948V181.912C10.4213 181.512 10.3173 181.212 10.1093 181.012C9.90134 180.804 9.55734 180.7 9.07734 180.7H7.90134V183.208H9.07734ZM18.1154 184.108C17.2194 184.108 16.4834 183.82 15.9074 183.244C15.3314 182.66 15.0434 181.888 15.0434 180.928V180.832C15.0434 179.888 15.3354 179.116 15.9194 178.516C16.5114 177.916 17.2354 177.616 18.0914 177.616C18.8114 177.616 19.4234 177.796 19.9274 178.156C20.4314 178.508 20.7274 179.06 20.8154 179.812H19.8314C19.6874 178.9 19.1074 178.444 18.0914 178.444C17.5074 178.444 17.0234 178.664 16.6394 179.104C16.2634 179.536 16.0754 180.112 16.0754 180.832V180.928C16.0754 181.68 16.2594 182.26 16.6274 182.668C17.0034 183.076 17.5034 183.28 18.1274 183.28C18.5994 183.28 19.0034 183.148 19.3394 182.884C19.6834 182.612 19.8794 182.232 19.9274 181.744H20.8514C20.7874 182.432 20.4994 183 19.9874 183.448C19.4834 183.888 18.8594 184.108 18.1154 184.108ZM25.7709 177.724H26.7669V178.78C26.9509 178.46 27.2389 178.188 27.6309 177.964C28.0229 177.732 28.4429 177.616 28.8909 177.616C29.7309 177.616 30.4149 177.9 30.9429 178.468C31.4789 179.036 31.7469 179.804 31.7469 180.772V180.868C31.7469 181.836 31.4829 182.62 30.9549 183.22C30.4349 183.812 29.7469 184.108 28.8909 184.108C27.9309 184.108 27.2229 183.728 26.7669 182.968V186.184H25.7709V177.724ZM28.7949 183.28C29.4189 183.28 29.8949 183.08 30.2229 182.68C30.5509 182.272 30.7149 181.684 30.7149 180.916V180.82C30.7149 180.06 30.5309 179.476 30.1629 179.068C29.8029 178.652 29.3429 178.444 28.7829 178.444C28.1749 178.444 27.6789 178.648 27.2949 179.056C26.9189 179.456 26.7309 180.044 26.7309 180.82V180.916C26.7309 181.692 26.9149 182.28 27.2829 182.68C27.6589 183.08 28.1629 183.28 28.7949 183.28ZM35.0492 183.352L32.5892 177.724H33.6572L35.5772 182.224L37.3172 177.724H38.3372L34.8692 186.184H33.8612L35.0492 183.352ZM42.3968 184.108C41.4528 184.108 40.7048 183.804 40.1528 183.196C39.6008 182.588 39.3248 181.664 39.3248 180.424V180.04C39.3248 179.448 39.3488 178.924 39.3968 178.468C39.4448 178.004 39.5448 177.54 39.6968 177.076C39.8488 176.604 40.0488 176.212 40.2968 175.9C40.5448 175.588 40.8808 175.328 41.3048 175.12C41.7368 174.912 42.2448 174.792 42.8288 174.76L43.0688 174.748C43.9488 174.7 44.5448 174.612 44.8568 174.484L44.9888 175.324C44.5808 175.5 43.9448 175.608 43.0808 175.648L42.9008 175.66C41.9328 175.708 41.2408 176.024 40.8248 176.608C40.4168 177.184 40.1768 178.08 40.1048 179.296H40.1528C40.3688 178.856 40.6888 178.508 41.1128 178.252C41.5448 177.988 42.0448 177.856 42.6128 177.856C43.4848 177.856 44.1808 178.14 44.7008 178.708C45.2288 179.268 45.4928 179.996 45.4928 180.892V180.94C45.4928 181.908 45.2008 182.68 44.6168 183.256C44.0408 183.824 43.3008 184.108 42.3968 184.108ZM40.8968 182.668C41.2648 183.076 41.7688 183.28 42.4088 183.28C43.0488 183.28 43.5488 183.08 43.9088 182.68C44.2768 182.272 44.4608 181.696 44.4608 180.952V180.928C44.4608 180.232 44.2928 179.684 43.9568 179.284C43.6288 178.884 43.1488 178.684 42.5168 178.684C41.8528 178.684 41.3248 178.892 40.9328 179.308C40.5488 179.724 40.3568 180.292 40.3568 181.012V181.036C40.3568 181.716 40.5368 182.26 40.8968 182.668Z" fill="white"/>
<path d="M19.632 114.337H13.904V113.889L19.136 105.297H20.992V113.201H22.576V114.337H20.992V116.737H19.632V114.337ZM19.632 113.201V106.353L15.664 113.201H19.632ZM27.9985 116.881C26.8145 116.881 25.9079 116.593 25.2785 116.017C24.6492 115.431 24.2865 114.641 24.1905 113.649H25.5185C25.6465 114.343 25.8865 114.871 26.2385 115.233C26.5905 115.585 27.1719 115.761 27.9825 115.761C28.7612 115.761 29.3745 115.516 29.8225 115.025C30.2705 114.535 30.4945 113.857 30.4945 112.993C30.4945 112.183 30.2759 111.537 29.8385 111.057C29.4119 110.567 28.8305 110.321 28.0945 110.321C27.4545 110.321 26.9265 110.412 26.5105 110.593C26.0945 110.775 25.7212 111.052 25.3905 111.425H24.8785V105.297H31.3105V106.497H26.0305V109.985C26.5959 109.463 27.3745 109.201 28.3665 109.201C29.4119 109.201 30.2652 109.548 30.9265 110.241C31.5879 110.924 31.9185 111.841 31.9185 112.993C31.9185 114.177 31.5452 115.121 30.7985 115.825C30.0519 116.529 29.1185 116.881 27.9985 116.881ZM38.6665 115.729C40.6825 115.729 41.6905 114.252 41.6905 111.297V110.657C41.6905 109.324 41.4185 108.263 40.8745 107.473C40.3305 106.673 39.5839 106.273 38.6345 106.273C37.6639 106.273 36.9065 106.657 36.3625 107.425C35.8185 108.193 35.5465 109.281 35.5465 110.689V111.329C35.5465 112.748 35.8239 113.836 36.3785 114.593C36.9332 115.351 37.6959 115.729 38.6665 115.729ZM38.6665 116.881C37.3012 116.881 36.2025 116.375 35.3705 115.361C34.5385 114.348 34.1225 113.009 34.1225 111.345V110.705C34.1225 109.009 34.5225 107.66 35.3225 106.657C36.1332 105.655 37.2372 105.153 38.6345 105.153C40.0212 105.153 41.1092 105.66 41.8985 106.673C42.6985 107.687 43.0985 109.02 43.0985 110.673V111.313C43.0985 112.999 42.7039 114.348 41.9145 115.361C41.1359 116.375 40.0532 116.881 38.6665 116.881Z" fill="white"/>
<path opacity="0.6" d="M5.412 125.83H3.384V131.266H2.388V125.83H0.36V124.99H5.412V125.83ZM12.3053 124.99H13.3013V131.266H12.3053V124.99ZM6.90534 124.99H7.90134V127.186H9.01734C9.72934 127.186 10.3053 127.346 10.7453 127.666C11.1933 127.986 11.4173 128.49 11.4173 129.178V129.214C11.4173 129.894 11.1933 130.406 10.7453 130.75C10.2973 131.094 9.72134 131.266 9.01734 131.266H6.90534V124.99ZM9.07734 130.474C9.54934 130.474 9.88934 130.374 10.0973 130.174C10.3133 129.966 10.4213 129.646 10.4213 129.214V129.178C10.4213 128.778 10.3173 128.478 10.1093 128.278C9.90134 128.07 9.55734 127.966 9.07734 127.966H7.90134V130.474H9.07734ZM18.1154 131.374C17.2194 131.374 16.4834 131.086 15.9074 130.51C15.3314 129.926 15.0434 129.154 15.0434 128.194V128.098C15.0434 127.154 15.3354 126.382 15.9194 125.782C16.5114 125.182 17.2354 124.882 18.0914 124.882C18.8114 124.882 19.4234 125.062 19.9274 125.422C20.4314 125.774 20.7274 126.326 20.8154 127.078H19.8314C19.6874 126.166 19.1074 125.71 18.0914 125.71C17.5074 125.71 17.0234 125.93 16.6394 126.37C16.2634 126.802 16.0754 127.378 16.0754 128.098V128.194C16.0754 128.946 16.2594 129.526 16.6274 129.934C17.0034 130.342 17.5034 130.546 18.1274 130.546C18.5994 130.546 19.0034 130.414 19.3394 130.15C19.6834 129.878 19.8794 129.498 19.9274 129.01H20.8514C20.7874 129.698 20.4994 130.266 19.9874 130.714C19.4834 131.154 18.8594 131.374 18.1154 131.374ZM25.7709 124.99H26.7669V126.046C26.9509 125.726 27.2389 125.454 27.6309 125.23C28.0229 124.998 28.4429 124.882 28.8909 124.882C29.7309 124.882 30.4149 125.166 30.9429 125.734C31.4789 126.302 31.7469 127.07 31.7469 128.038V128.134C31.7469 129.102 31.4829 129.886 30.9549 130.486C30.4349 131.078 29.7469 131.374 28.8909 131.374C27.9309 131.374 27.2229 130.994 26.7669 130.234V133.45H25.7709V124.99ZM28.7949 130.546C29.4189 130.546 29.8949 130.346 30.2229 129.946C30.5509 129.538 30.7149 128.95 30.7149 128.182V128.086C30.7149 127.326 30.5309 126.742 30.1629 126.334C29.8029 125.918 29.3429 125.71 28.7829 125.71C28.1749 125.71 27.6789 125.914 27.2949 126.322C26.9189 126.722 26.7309 127.31 26.7309 128.086V128.182C26.7309 128.958 26.9149 129.546 27.2829 129.946C27.6589 130.346 28.1629 130.546 28.7949 130.546ZM35.0492 130.618L32.5892 124.99H33.6572L35.5772 129.49L37.3172 124.99H38.3372L34.8692 133.45H33.8612L35.0492 130.618ZM42.3968 131.374C41.4528 131.374 40.7048 131.07 40.1528 130.462C39.6008 129.854 39.3248 128.93 39.3248 127.69V127.306C39.3248 126.714 39.3488 126.19 39.3968 125.734C39.4448 125.27 39.5448 124.806 39.6968 124.342C39.8488 123.87 40.0488 123.478 40.2968 123.166C40.5448 122.854 40.8808 122.594 41.3048 122.386C41.7368 122.178 42.2448 122.058 42.8288 122.026L43.0688 122.014C43.9488 121.966 44.5448 121.878 44.8568 121.75L44.9888 122.59C44.5808 122.766 43.9448 122.874 43.0808 122.914L42.9008 122.926C41.9328 122.974 41.2408 123.29 40.8248 123.874C40.4168 124.45 40.1768 125.346 40.1048 126.562H40.1528C40.3688 126.122 40.6888 125.774 41.1128 125.518C41.5448 125.254 42.0448 125.122 42.6128 125.122C43.4848 125.122 44.1808 125.406 44.7008 125.974C45.2288 126.534 45.4928 127.262 45.4928 128.158V128.206C45.4928 129.174 45.2008 129.946 44.6168 130.522C44.0408 131.09 43.3008 131.374 42.3968 131.374ZM40.8968 129.934C41.2648 130.342 41.7688 130.546 42.4088 130.546C43.0488 130.546 43.5488 130.346 43.9088 129.946C44.2768 129.538 44.4608 128.962 44.4608 128.218V128.194C44.4608 127.498 44.2928 126.95 43.9568 126.55C43.6288 126.15 43.1488 125.95 42.5168 125.95C41.8528 125.95 41.3248 126.158 40.9328 126.574C40.5488 126.99 40.3568 127.558 40.3568 128.278V128.302C40.3568 128.982 40.5368 129.526 40.8968 129.934Z" fill="white"/>
<path d="M18.6947 327.824C17.5107 327.824 16.556 327.493 15.8307 326.832C15.116 326.17 14.7374 325.328 14.6947 324.304H15.9747C16.0387 325.029 16.3 325.61 16.7587 326.048C17.2174 326.485 17.8734 326.704 18.7267 326.704C19.6014 326.704 20.252 326.512 20.6787 326.128C21.116 325.733 21.3347 325.189 21.3347 324.496C21.3347 323.013 20.5294 322.272 18.9187 322.272H18.0547V321.104H18.8547C20.284 321.104 20.9987 320.453 20.9987 319.152C20.9987 318.586 20.8227 318.128 20.4707 317.776C20.1187 317.413 19.6014 317.232 18.9187 317.232C18.2147 317.232 17.6334 317.429 17.1747 317.824C16.7267 318.218 16.4654 318.741 16.3907 319.392H15.1747C15.2174 318.474 15.5854 317.696 16.2787 317.056C16.972 316.416 17.852 316.096 18.9187 316.096C19.964 316.096 20.796 316.394 21.4147 316.992C22.044 317.578 22.3587 318.288 22.3587 319.12C22.3587 320.282 21.756 321.114 20.5507 321.616C22.0227 322.021 22.7587 322.981 22.7587 324.496C22.7587 325.53 22.38 326.346 21.6227 326.944C20.876 327.53 19.9 327.824 18.6947 327.824ZM28.5701 327.824C27.3861 327.824 26.4794 327.536 25.8501 326.96C25.2208 326.373 24.8581 325.584 24.7621 324.592H26.0901C26.2181 325.285 26.4581 325.813 26.8101 326.176C27.1621 326.528 27.7434 326.704 28.5541 326.704C29.3328 326.704 29.9461 326.458 30.3941 325.968C30.8421 325.477 31.0661 324.8 31.0661 323.936C31.0661 323.125 30.8474 322.48 30.4101 322C29.9834 321.509 29.4021 321.264 28.6661 321.264C28.0261 321.264 27.4981 321.354 27.0821 321.536C26.6661 321.717 26.2928 321.994 25.9621 322.368H25.4501V316.24H31.8821V317.44H26.6021V320.928C27.1674 320.405 27.9461 320.144 28.9381 320.144C29.9834 320.144 30.8368 320.49 31.4981 321.184C32.1594 321.866 32.4901 322.784 32.4901 323.936C32.4901 325.12 32.1168 326.064 31.3701 326.768C30.6234 327.472 29.6901 327.824 28.5701 327.824ZM39.2381 326.672C41.2541 326.672 42.2621 325.194 42.2621 322.24V321.6C42.2621 320.266 41.9901 319.205 41.4461 318.416C40.9021 317.616 40.1554 317.216 39.2061 317.216C38.2354 317.216 37.4781 317.6 36.9341 318.368C36.3901 319.136 36.1181 320.224 36.1181 321.632V322.272C36.1181 323.69 36.3954 324.778 36.9501 325.536C37.5048 326.293 38.2674 326.672 39.2381 326.672ZM39.2381 327.824C37.8728 327.824 36.7741 327.317 35.9421 326.304C35.1101 325.29 34.6941 323.952 34.6941 322.288V321.648C34.6941 319.952 35.0941 318.602 35.8941 317.6C36.7048 316.597 37.8088 316.096 39.2061 316.096C40.5928 316.096 41.6808 316.602 42.4701 317.616C43.2701 318.629 43.6701 319.962 43.6701 321.616V322.256C43.6701 323.941 43.2754 325.29 42.4861 326.304C41.7074 327.317 40.6248 327.824 39.2381 327.824Z" fill="white"/>
<path opacity="0.6" d="M5.412 336.773H3.384V342.209H2.388V336.773H0.36V335.933H5.412V336.773ZM12.3053 335.933H13.3013V342.209H12.3053V335.933ZM6.90534 335.933H7.90134V338.129H9.01734C9.72934 338.129 10.3053 338.289 10.7453 338.609C11.1933 338.929 11.4173 339.433 11.4173 340.121V340.157C11.4173 340.837 11.1933 341.349 10.7453 341.693C10.2973 342.037 9.72134 342.209 9.01734 342.209H6.90534V335.933ZM9.07734 341.417C9.54934 341.417 9.88934 341.317 10.0973 341.117C10.3133 340.909 10.4213 340.589 10.4213 340.157V340.121C10.4213 339.721 10.3173 339.421 10.1093 339.221C9.90134 339.013 9.55734 338.909 9.07734 338.909H7.90134V341.417H9.07734ZM18.1154 342.317C17.2194 342.317 16.4834 342.029 15.9074 341.453C15.3314 340.869 15.0434 340.097 15.0434 339.137V339.041C15.0434 338.097 15.3354 337.325 15.9194 336.725C16.5114 336.125 17.2354 335.825 18.0914 335.825C18.8114 335.825 19.4234 336.005 19.9274 336.365C20.4314 336.717 20.7274 337.269 20.8154 338.021H19.8314C19.6874 337.109 19.1074 336.653 18.0914 336.653C17.5074 336.653 17.0234 336.873 16.6394 337.313C16.2634 337.745 16.0754 338.321 16.0754 339.041V339.137C16.0754 339.889 16.2594 340.469 16.6274 340.877C17.0034 341.285 17.5034 341.489 18.1274 341.489C18.5994 341.489 19.0034 341.357 19.3394 341.093C19.6834 340.821 19.8794 340.441 19.9274 339.953H20.8514C20.7874 340.641 20.4994 341.209 19.9874 341.657C19.4834 342.097 18.8594 342.317 18.1154 342.317ZM25.7709 335.933H26.7669V336.989C26.9509 336.669 27.2389 336.397 27.6309 336.173C28.0229 335.941 28.4429 335.825 28.8909 335.825C29.7309 335.825 30.4149 336.109 30.9429 336.677C31.4789 337.245 31.7469 338.013 31.7469 338.981V339.077C31.7469 340.045 31.4829 340.829 30.9549 341.429C30.4349 342.021 29.7469 342.317 28.8909 342.317C27.9309 342.317 27.2229 341.937 26.7669 341.177V344.393H25.7709V335.933ZM28.7949 341.489C29.4189 341.489 29.8949 341.289 30.2229 340.889C30.5509 340.481 30.7149 339.893 30.7149 339.125V339.029C30.7149 338.269 30.5309 337.685 30.1629 337.277C29.8029 336.861 29.3429 336.653 28.7829 336.653C28.1749 336.653 27.6789 336.857 27.2949 337.265C26.9189 337.665 26.7309 338.253 26.7309 339.029V339.125C26.7309 339.901 26.9149 340.489 27.2829 340.889C27.6589 341.289 28.1629 341.489 28.7949 341.489ZM35.0492 341.561L32.5892 335.933H33.6572L35.5772 340.433L37.3172 335.933H38.3372L34.8692 344.393H33.8612L35.0492 341.561ZM42.3968 342.317C41.4528 342.317 40.7048 342.013 40.1528 341.405C39.6008 340.797 39.3248 339.873 39.3248 338.633V338.249C39.3248 337.657 39.3488 337.133 39.3968 336.677C39.4448 336.213 39.5448 335.749 39.6968 335.285C39.8488 334.813 40.0488 334.421 40.2968 334.109C40.5448 333.797 40.8808 333.537 41.3048 333.329C41.7368 333.121 42.2448 333.001 42.8288 332.969L43.0688 332.957C43.9488 332.909 44.5448 332.821 44.8568 332.693L44.9888 333.533C44.5808 333.709 43.9448 333.817 43.0808 333.857L42.9008 333.869C41.9328 333.917 41.2408 334.233 40.8248 334.817C40.4168 335.393 40.1768 336.289 40.1048 337.505H40.1528C40.3688 337.065 40.6888 336.717 41.1128 336.461C41.5448 336.197 42.0448 336.065 42.6128 336.065C43.4848 336.065 44.1808 336.349 44.7008 336.917C45.2288 337.477 45.4928 338.205 45.4928 339.101V339.149C45.4928 340.117 45.2008 340.889 44.6168 341.465C44.0408 342.033 43.3008 342.317 42.3968 342.317ZM40.8968 340.877C41.2648 341.285 41.7688 341.489 42.4088 341.489C43.0488 341.489 43.5488 341.289 43.9088 340.889C44.2768 340.481 44.4608 339.905 44.4608 339.161V339.137C44.4608 338.441 44.2928 337.893 43.9568 337.493C43.6288 337.093 43.1488 336.893 42.5168 336.893C41.8528 336.893 41.3248 337.101 40.9328 337.517C40.5488 337.933 40.3568 338.501 40.3568 339.221V339.245C40.3568 339.925 40.5368 340.469 40.8968 340.877Z" fill="white"/>
<path opacity="0.6" d="M395.231 361.174C394.335 361.174 393.599 360.886 393.023 360.31C392.447 359.726 392.159 358.954 392.159 357.994V357.898C392.159 356.954 392.451 356.182 393.035 355.582C393.627 354.982 394.351 354.682 395.207 354.682C395.927 354.682 396.539 354.862 397.043 355.222C397.547 355.574 397.843 356.126 397.931 356.878H396.947C396.803 355.966 396.223 355.51 395.207 355.51C394.623 355.51 394.139 355.73 393.755 356.17C393.379 356.602 393.191 357.178 393.191 357.898V357.994C393.191 358.746 393.375 359.326 393.743 359.734C394.119 360.142 394.619 360.346 395.243 360.346C395.715 360.346 396.119 360.214 396.455 359.95C396.799 359.678 396.995 359.298 397.043 358.81H397.967C397.903 359.498 397.615 360.066 397.103 360.514C396.599 360.954 395.975 361.174 395.231 361.174ZM402.158 361.174C401.262 361.174 400.53 360.882 399.962 360.298C399.402 359.714 399.122 358.946 399.122 357.994V357.898C399.122 356.954 399.394 356.182 399.938 355.582C400.49 354.982 401.198 354.682 402.062 354.682C402.862 354.682 403.53 354.942 404.066 355.462C404.61 355.974 404.882 356.754 404.882 357.802V358.126H400.154C400.202 359.606 400.874 360.346 402.17 360.346C403.154 360.346 403.71 359.982 403.838 359.254H404.834C404.722 359.878 404.43 360.354 403.958 360.682C403.486 361.01 402.886 361.174 402.158 361.174ZM403.862 357.322C403.774 356.114 403.174 355.51 402.062 355.51C401.558 355.51 401.142 355.67 400.814 355.99C400.486 356.31 400.278 356.754 400.19 357.322H403.862ZM410.539 358.27H407.455V361.066H406.459V354.79H407.455V357.43H410.539V354.79H411.535V361.066H410.539V358.27ZM418.073 355.63H416.045V361.066H415.049V355.63H413.021V354.79H418.073V355.63ZM421.654 355.582C420.758 355.582 420.31 355.962 420.31 356.722V356.758C420.31 357.118 420.414 357.39 420.622 357.574C420.83 357.758 421.174 357.85 421.654 357.85H422.83V355.582H421.654ZM419.998 361.066H418.858L420.766 358.438C419.798 358.238 419.314 357.678 419.314 356.758V356.722C419.314 356.066 419.538 355.582 419.986 355.27C420.434 354.95 421.01 354.79 421.714 354.79H423.826V361.066H422.83V358.606H421.75L419.998 361.066ZM428.667 361.174C427.723 361.174 426.975 360.87 426.423 360.262C425.871 359.654 425.595 358.73 425.595 357.49V357.106C425.595 356.514 425.619 355.99 425.667 355.534C425.715 355.07 425.815 354.606 425.967 354.142C426.119 353.67 426.319 353.278 426.567 352.966C426.815 352.654 427.151 352.394 427.575 352.186C428.007 351.978 428.515 351.858 429.099 351.826L429.339 351.814C430.219 351.766 430.815 351.678 431.127 351.55L431.259 352.39C430.851 352.566 430.215 352.674 429.351 352.714L429.171 352.726C428.203 352.774 427.511 353.09 427.095 353.674C426.687 354.25 426.447 355.146 426.375 356.362H426.423C426.639 355.922 426.959 355.574 427.383 355.318C427.815 355.054 428.315 354.922 428.883 354.922C429.755 354.922 430.451 355.206 430.971 355.774C431.499 356.334 431.763 357.062 431.763 357.958V358.006C431.763 358.974 431.471 359.746 430.887 360.322C430.311 360.89 429.571 361.174 428.667 361.174ZM427.167 359.734C427.535 360.142 428.039 360.346 428.679 360.346C429.319 360.346 429.819 360.146 430.179 359.746C430.547 359.338 430.731 358.762 430.731 358.018V357.994C430.731 357.298 430.563 356.75 430.227 356.35C429.899 355.95 429.419 355.75 428.787 355.75C428.123 355.75 427.595 355.958 427.203 356.374C426.819 356.79 426.627 357.358 426.627 358.078V358.102C426.627 358.782 426.807 359.326 427.167 359.734ZM433.507 354.79H434.503V355.846C434.687 355.526 434.975 355.254 435.367 355.03C435.759 354.798 436.179 354.682 436.627 354.682C437.467 354.682 438.151 354.966 438.679 355.534C439.215 356.102 439.483 356.87 439.483 357.838V357.934C439.483 358.902 439.219 359.686 438.691 360.286C438.171 360.878 437.483 361.174 436.627 361.174C435.667 361.174 434.959 360.794 434.503 360.034V363.25H433.507V354.79ZM436.531 360.346C437.155 360.346 437.631 360.146 437.959 359.746C438.287 359.338 438.451 358.75 438.451 357.982V357.886C438.451 357.126 438.267 356.542 437.899 356.134C437.539 355.718 437.079 355.51 436.519 355.51C435.911 355.51 435.415 355.714 435.031 356.122C434.655 356.522 434.467 357.11 434.467 357.886V357.982C434.467 358.758 434.651 359.346 435.019 359.746C435.395 360.146 435.899 360.346 436.531 360.346ZM441.078 354.79H442.074V356.986H443.19C443.894 356.986 444.47 357.158 444.918 357.502C445.366 357.846 445.59 358.358 445.59 359.038V359.074C445.59 359.762 445.366 360.266 444.918 360.586C444.478 360.906 443.902 361.066 443.19 361.066H441.078V354.79ZM443.25 360.286C443.73 360.286 444.074 360.186 444.282 359.986C444.49 359.778 444.594 359.474 444.594 359.074V359.038C444.594 358.606 444.486 358.29 444.27 358.09C444.062 357.882 443.722 357.778 443.25 357.778H442.074V360.286H443.25Z" fill="white"/>
<path d="M391.793 376.71L395.769 372.524C396.731 371.507 397.211 370.541 397.211 369.626C397.211 369.066 397.053 368.628 396.735 368.31C396.427 367.993 395.989 367.834 395.419 367.834C394.206 367.834 393.501 368.576 393.305 370.06H392.171C392.246 369.071 392.568 368.292 393.137 367.722C393.716 367.144 394.477 366.854 395.419 366.854C396.343 366.854 397.076 367.111 397.617 367.624C398.168 368.128 398.443 368.81 398.443 369.668C398.443 370.77 397.771 371.983 396.427 373.308L393.669 375.996H398.499V376.99H391.793V376.71ZM404.345 376.108C406.109 376.108 406.991 374.816 406.991 372.23V371.67C406.991 370.504 406.753 369.575 406.277 368.884C405.801 368.184 405.147 367.834 404.317 367.834C403.467 367.834 402.805 368.17 402.329 368.842C401.853 369.514 401.615 370.466 401.615 371.698V372.258C401.615 373.5 401.857 374.452 402.343 375.114C402.828 375.777 403.495 376.108 404.345 376.108ZM404.345 377.116C403.15 377.116 402.189 376.673 401.461 375.786C400.733 374.9 400.369 373.728 400.369 372.272V371.712C400.369 370.228 400.719 369.048 401.419 368.17C402.128 367.293 403.094 366.854 404.317 366.854C405.53 366.854 406.482 367.298 407.173 368.184C407.873 369.071 408.223 370.238 408.223 371.684V372.244C408.223 373.719 407.877 374.9 407.187 375.786C406.505 376.673 405.558 377.116 404.345 377.116ZM409.642 376.71L413.618 372.524C414.579 371.507 415.06 370.541 415.06 369.626C415.06 369.066 414.901 368.628 414.584 368.31C414.276 367.993 413.837 367.834 413.268 367.834C412.054 367.834 411.35 368.576 411.154 370.06H410.02C410.094 369.071 410.416 368.292 410.986 367.722C411.564 367.144 412.325 366.854 413.268 366.854C414.192 366.854 414.924 367.111 415.466 367.624C416.016 368.128 416.292 368.81 416.292 369.668C416.292 370.77 415.62 371.983 414.276 373.308L411.518 375.996H416.348V376.99H409.642V376.71ZM422.193 376.108C423.957 376.108 424.839 374.816 424.839 372.23V371.67C424.839 370.504 424.601 369.575 424.125 368.884C423.649 368.184 422.996 367.834 422.165 367.834C421.316 367.834 420.653 368.17 420.177 368.842C419.701 369.514 419.463 370.466 419.463 371.698V372.258C419.463 373.5 419.706 374.452 420.191 375.114C420.676 375.777 421.344 376.108 422.193 376.108ZM422.193 377.116C420.998 377.116 420.037 376.673 419.309 375.786C418.581 374.9 418.217 373.728 418.217 372.272V371.712C418.217 370.228 418.567 369.048 419.267 368.17C419.976 367.293 420.942 366.854 422.165 366.854C423.378 366.854 424.33 367.298 425.021 368.184C425.721 369.071 426.071 370.238 426.071 371.684V372.244C426.071 373.719 425.726 374.9 425.035 375.786C424.354 376.673 423.406 377.116 422.193 377.116Z" fill="white"/>
<path opacity="0.6" d="M271.95 361.174C271.334 361.174 270.83 361.022 270.438 360.718C270.054 360.406 269.862 359.942 269.862 359.326C269.862 358.982 269.946 358.682 270.114 358.426C270.29 358.162 270.53 357.958 270.834 357.814C271.138 357.662 271.47 357.554 271.83 357.49C272.19 357.418 272.582 357.382 273.006 357.382H273.906V356.926C273.906 356.422 273.802 356.062 273.594 355.846C273.386 355.622 273.042 355.51 272.562 355.51C271.698 355.51 271.218 355.886 271.122 356.638H270.126C270.19 355.966 270.45 355.474 270.906 355.162C271.37 354.842 271.938 354.682 272.61 354.682C274.138 354.682 274.902 355.43 274.902 356.926V361.066H273.906V360.274C273.426 360.874 272.774 361.174 271.95 361.174ZM272.046 360.382C272.59 360.382 273.034 360.25 273.378 359.986C273.73 359.714 273.906 359.342 273.906 358.87V358.09H273.042C271.586 358.09 270.858 358.502 270.858 359.326C270.858 360.03 271.254 360.382 272.046 360.382ZM276.907 354.79H279.103C280.575 354.79 281.311 355.322 281.311 356.386V356.422C281.311 356.726 281.227 357.006 281.059 357.262C280.891 357.51 280.639 357.678 280.303 357.766C281.175 357.958 281.611 358.43 281.611 359.182V359.218C281.611 359.826 281.411 360.286 281.011 360.598C280.619 360.91 280.071 361.066 279.367 361.066H276.907V354.79ZM277.903 355.582V357.442H279.103C279.519 357.442 279.815 357.366 279.991 357.214C280.175 357.062 280.267 356.814 280.267 356.47V356.434C280.267 356.114 280.171 355.894 279.979 355.774C279.795 355.646 279.499 355.582 279.091 355.582H277.903ZM277.903 358.234V360.274H279.271C279.711 360.274 280.035 360.198 280.243 360.046C280.459 359.886 280.567 359.63 280.567 359.278V359.242C280.567 358.89 280.459 358.634 280.243 358.474C280.035 358.314 279.711 358.234 279.271 358.234H277.903ZM284.316 355.63V361.066H283.32V354.79H287.304V355.63H284.316ZM290.795 360.418L288.335 354.79H289.403L291.323 359.29L293.063 354.79H294.083L290.615 363.25H289.607L290.795 360.418ZM297.943 361.174C297.047 361.174 296.311 360.886 295.735 360.31C295.159 359.726 294.871 358.954 294.871 357.994V357.898C294.871 356.954 295.163 356.182 295.747 355.582C296.339 354.982 297.063 354.682 297.919 354.682C298.639 354.682 299.251 354.862 299.755 355.222C300.259 355.574 300.555 356.126 300.643 356.878H299.659C299.515 355.966 298.935 355.51 297.919 355.51C297.335 355.51 296.851 355.73 296.467 356.17C296.091 356.602 295.903 357.178 295.903 357.898V357.994C295.903 358.746 296.087 359.326 296.455 359.734C296.831 360.142 297.331 360.346 297.955 360.346C298.427 360.346 298.831 360.214 299.167 359.95C299.511 359.678 299.707 359.298 299.755 358.81H300.679C300.615 359.498 300.327 360.066 299.815 360.514C299.311 360.954 298.687 361.174 297.943 361.174ZM306.635 355.63H304.607V361.066H303.611V355.63H301.583V354.79H306.635V355.63Z" fill="white"/>
<path d="M269.793 376.71L273.769 372.524C274.731 371.507 275.211 370.541 275.211 369.626C275.211 369.066 275.053 368.628 274.735 368.31C274.427 367.993 273.989 367.834 273.419 367.834C272.206 367.834 271.501 368.576 271.305 370.06H270.171C270.246 369.071 270.568 368.292 271.137 367.722C271.716 367.144 272.477 366.854 273.419 366.854C274.343 366.854 275.076 367.111 275.617 367.624C276.168 368.128 276.443 368.81 276.443 369.668C276.443 370.77 275.771 371.983 274.427 373.308L271.669 375.996H276.499V376.99H269.793V376.71ZM282.345 376.108C284.109 376.108 284.991 374.816 284.991 372.23V371.67C284.991 370.504 284.753 369.575 284.277 368.884C283.801 368.184 283.147 367.834 282.317 367.834C281.467 367.834 280.805 368.17 280.329 368.842C279.853 369.514 279.615 370.466 279.615 371.698V372.258C279.615 373.5 279.857 374.452 280.343 375.114C280.828 375.777 281.495 376.108 282.345 376.108ZM282.345 377.116C281.15 377.116 280.189 376.673 279.461 375.786C278.733 374.9 278.369 373.728 278.369 372.272V371.712C278.369 370.228 278.719 369.048 279.419 368.17C280.128 367.293 281.094 366.854 282.317 366.854C283.53 366.854 284.482 367.298 285.173 368.184C285.873 369.071 286.223 370.238 286.223 371.684V372.244C286.223 373.719 285.877 374.9 285.187 375.786C284.505 376.673 283.558 377.116 282.345 377.116ZM287.642 376.71L291.618 372.524C292.579 371.507 293.06 370.541 293.06 369.626C293.06 369.066 292.901 368.628 292.584 368.31C292.276 367.993 291.837 367.834 291.268 367.834C290.054 367.834 289.35 368.576 289.154 370.06H288.02C288.094 369.071 288.416 368.292 288.986 367.722C289.564 367.144 290.325 366.854 291.268 366.854C292.192 366.854 292.924 367.111 293.466 367.624C294.016 368.128 294.292 368.81 294.292 369.668C294.292 370.77 293.62 371.983 292.276 373.308L289.518 375.996H294.348V376.99H287.642V376.71ZM300.193 376.108C301.957 376.108 302.839 374.816 302.839 372.23V371.67C302.839 370.504 302.601 369.575 302.125 368.884C301.649 368.184 300.996 367.834 300.165 367.834C299.316 367.834 298.653 368.17 298.177 368.842C297.701 369.514 297.463 370.466 297.463 371.698V372.258C297.463 373.5 297.706 374.452 298.191 375.114C298.676 375.777 299.344 376.108 300.193 376.108ZM300.193 377.116C298.998 377.116 298.037 376.673 297.309 375.786C296.581 374.9 296.217 373.728 296.217 372.272V371.712C296.217 370.228 296.567 369.048 297.267 368.17C297.976 367.293 298.942 366.854 300.165 366.854C301.378 366.854 302.33 367.298 303.021 368.184C303.721 369.071 304.071 370.238 304.071 371.684V372.244C304.071 373.719 303.726 374.9 303.035 375.786C302.354 376.673 301.406 377.116 300.193 377.116Z" fill="white"/>
<path opacity="0.6" d="M142.684 361.174C141.788 361.174 141.052 360.886 140.476 360.31C139.9 359.726 139.612 358.954 139.612 357.994V357.898C139.612 356.954 139.904 356.182 140.488 355.582C141.08 354.982 141.804 354.682 142.66 354.682C143.38 354.682 143.992 354.862 144.496 355.222C145 355.574 145.296 356.126 145.384 356.878H144.4C144.256 355.966 143.676 355.51 142.66 355.51C142.076 355.51 141.592 355.73 141.208 356.17C140.832 356.602 140.644 357.178 140.644 357.898V357.994C140.644 358.746 140.828 359.326 141.196 359.734C141.572 360.142 142.072 360.346 142.696 360.346C143.168 360.346 143.572 360.214 143.908 359.95C144.252 359.678 144.448 359.298 144.496 358.81H145.42C145.356 359.498 145.068 360.066 144.556 360.514C144.052 360.954 143.428 361.174 142.684 361.174ZM151.376 355.63H149.348V361.066H148.352V355.63H146.324V354.79H151.376V355.63ZM154.454 361.174C153.838 361.174 153.334 361.022 152.942 360.718C152.558 360.406 152.366 359.942 152.366 359.326C152.366 358.982 152.45 358.682 152.618 358.426C152.794 358.162 153.034 357.958 153.338 357.814C153.642 357.662 153.974 357.554 154.334 357.49C154.694 357.418 155.086 357.382 155.51 357.382H156.41V356.926C156.41 356.422 156.306 356.062 156.098 355.846C155.89 355.622 155.546 355.51 155.066 355.51C154.202 355.51 153.722 355.886 153.626 356.638H152.63C152.694 355.966 152.954 355.474 153.41 355.162C153.874 354.842 154.442 354.682 155.115 354.682C156.642 354.682 157.406 355.43 157.406 356.926V361.066H156.41V360.274C155.93 360.874 155.278 361.174 154.454 361.174ZM154.55 360.382C155.095 360.382 155.538 360.25 155.882 359.986C156.234 359.714 156.41 359.342 156.41 358.87V358.09H155.546C154.09 358.09 153.362 358.502 153.362 359.326C153.362 360.03 153.758 360.382 154.55 360.382ZM159.483 354.79H160.479V355.846C160.663 355.526 160.951 355.254 161.343 355.03C161.735 354.798 162.155 354.682 162.603 354.682C163.443 354.682 164.127 354.966 164.655 355.534C165.191 356.102 165.459 356.87 165.459 357.838V357.934C165.459 358.902 165.195 359.686 164.667 360.286C164.147 360.878 163.459 361.174 162.603 361.174C161.643 361.174 160.935 360.794 160.479 360.034V363.25H159.483V354.79ZM162.507 360.346C163.131 360.346 163.607 360.146 163.935 359.746C164.263 359.338 164.427 358.75 164.427 357.982V357.886C164.427 357.126 164.243 356.542 163.875 356.134C163.515 355.718 163.055 355.51 162.495 355.51C161.887 355.51 161.391 355.714 161.007 356.122C160.631 356.522 160.443 357.11 160.443 357.886V357.982C160.443 358.758 160.627 359.346 160.995 359.746C161.371 360.146 161.875 360.346 162.507 360.346ZM171.341 355.63H169.313V361.066H168.317V355.63H166.289V354.79H171.341V355.63Z" fill="white"/>
<path d="M144.796 370.648H141.338V376.99H140.176V369.668H145.958V376.99H144.796V370.648ZM148.535 369.668H149.697V370.9C149.911 370.527 150.247 370.21 150.705 369.948C151.162 369.678 151.652 369.542 152.175 369.542C153.155 369.542 153.953 369.874 154.569 370.536C155.194 371.199 155.507 372.095 155.507 373.224V373.336C155.507 374.466 155.199 375.38 154.583 376.08C153.976 376.771 153.173 377.116 152.175 377.116C151.055 377.116 150.229 376.673 149.697 375.786V379.538H148.535V369.668ZM152.063 376.15C152.791 376.15 153.346 375.917 153.729 375.45C154.111 374.974 154.303 374.288 154.303 373.392V373.28C154.303 372.394 154.088 371.712 153.659 371.236C153.239 370.751 152.702 370.508 152.049 370.508C151.339 370.508 150.761 370.746 150.313 371.222C149.874 371.689 149.655 372.375 149.655 373.28V373.392C149.655 374.298 149.869 374.984 150.299 375.45C150.737 375.917 151.325 376.15 152.063 376.15ZM160.504 376.15C161.232 376.15 161.811 375.898 162.24 375.394C162.679 374.89 162.898 374.223 162.898 373.392V373.294C162.898 372.445 162.679 371.768 162.24 371.264C161.811 370.76 161.232 370.508 160.504 370.508C159.767 370.508 159.183 370.76 158.754 371.264C158.325 371.768 158.11 372.44 158.11 373.28V373.392C158.11 374.242 158.32 374.914 158.74 375.408C159.169 375.903 159.757 376.15 160.504 376.15ZM160.49 377.116C159.454 377.116 158.595 376.766 157.914 376.066C157.242 375.357 156.906 374.466 156.906 373.392V373.28C156.906 372.188 157.242 371.292 157.914 370.592C158.595 369.892 159.459 369.542 160.504 369.542C161.549 369.542 162.408 369.892 163.08 370.592C163.761 371.283 164.102 372.174 164.102 373.266V373.378C164.102 374.48 163.761 375.38 163.08 376.08C162.399 376.771 161.535 377.116 160.49 377.116ZM167.18 374.162C167.078 375.021 166.919 375.637 166.704 376.01H170.134V370.62H167.446C167.4 371.759 167.311 372.94 167.18 374.162ZM165.724 378.768H164.786V376.01H165.304C165.566 375.945 165.748 375.758 165.85 375.45C165.953 375.133 166.042 374.68 166.116 374.092C166.2 373.336 166.28 372.384 166.354 371.236C166.392 370.723 166.42 370.2 166.438 369.668H171.268V376.01H172.388V378.768H171.45L171.366 376.99H165.808L165.724 378.768ZM175.904 377.116C175.185 377.116 174.597 376.939 174.14 376.584C173.692 376.22 173.468 375.679 173.468 374.96C173.468 374.559 173.566 374.209 173.762 373.91C173.967 373.602 174.247 373.364 174.602 373.196C174.957 373.019 175.344 372.893 175.764 372.818C176.184 372.734 176.641 372.692 177.136 372.692H178.186V372.16C178.186 371.572 178.065 371.152 177.822 370.9C177.579 370.639 177.178 370.508 176.618 370.508C175.61 370.508 175.05 370.947 174.938 371.824H173.776C173.851 371.04 174.154 370.466 174.686 370.102C175.227 369.729 175.89 369.542 176.674 369.542C178.457 369.542 179.348 370.415 179.348 372.16V376.99H178.186V376.066C177.626 376.766 176.865 377.116 175.904 377.116ZM176.016 376.192C176.651 376.192 177.169 376.038 177.57 375.73C177.981 375.413 178.186 374.979 178.186 374.428V373.518H177.178C175.479 373.518 174.63 373.999 174.63 374.96C174.63 375.782 175.092 376.192 176.016 376.192ZM184.907 373.224L182.079 376.99H180.777L183.759 373.098L181.043 369.668H182.289L184.907 373.112V369.668H186.041V373.112L188.659 369.668H189.919L187.203 373.098L190.185 376.99H188.869L186.041 373.224V376.99H184.907V373.224Z" fill="white"/>
<path opacity="0.6" d="M527.687 360.346C528.311 360.346 528.807 360.13 529.175 359.698C529.551 359.266 529.739 358.694 529.739 357.982V357.898C529.739 357.17 529.551 356.59 529.175 356.158C528.807 355.726 528.311 355.51 527.687 355.51C527.055 355.51 526.555 355.726 526.187 356.158C525.819 356.59 525.635 357.166 525.635 357.886V357.982C525.635 358.71 525.815 359.286 526.175 359.71C526.543 360.134 527.047 360.346 527.687 360.346ZM527.675 361.174C526.787 361.174 526.051 360.874 525.467 360.274C524.891 359.666 524.603 358.902 524.603 357.982V357.886C524.603 356.95 524.891 356.182 525.467 355.582C526.051 354.982 526.791 354.682 527.687 354.682C528.583 354.682 529.319 354.982 529.895 355.582C530.479 356.174 530.771 356.938 530.771 357.874V357.97C530.771 358.914 530.479 359.686 529.895 360.286C529.311 360.878 528.571 361.174 527.675 361.174ZM533.357 357.862V361.066H532.361V354.79H533.357V357.718L535.961 354.79H537.125L534.437 357.742L537.353 361.066H536.141L533.357 357.862ZM543.073 355.63H541.045V361.066H540.049V355.63H538.021V354.79H543.073V355.63ZM546.654 355.582C545.758 355.582 545.31 355.962 545.31 356.722V356.758C545.31 357.118 545.414 357.39 545.622 357.574C545.83 357.758 546.174 357.85 546.654 357.85H547.83V355.582H546.654ZM544.998 361.066H543.858L545.766 358.438C544.798 358.238 544.314 357.678 544.314 356.758V356.722C544.314 356.066 544.538 355.582 544.986 355.27C545.434 354.95 546.01 354.79 546.714 354.79H548.826V361.066H547.83V358.606H546.75L544.998 361.066ZM553.667 361.174C552.723 361.174 551.975 360.87 551.423 360.262C550.871 359.654 550.595 358.73 550.595 357.49V357.106C550.595 356.514 550.619 355.99 550.667 355.534C550.715 355.07 550.815 354.606 550.967 354.142C551.119 353.67 551.319 353.278 551.567 352.966C551.815 352.654 552.151 352.394 552.575 352.186C553.007 351.978 553.515 351.858 554.099 351.826L554.339 351.814C555.219 351.766 555.815 351.678 556.127 351.55L556.259 352.39C555.851 352.566 555.215 352.674 554.351 352.714L554.171 352.726C553.203 352.774 552.511 353.09 552.095 353.674C551.687 354.25 551.447 355.146 551.375 356.362H551.423C551.639 355.922 551.959 355.574 552.383 355.318C552.815 355.054 553.315 354.922 553.883 354.922C554.755 354.922 555.451 355.206 555.971 355.774C556.499 356.334 556.763 357.062 556.763 357.958V358.006C556.763 358.974 556.471 359.746 555.887 360.322C555.311 360.89 554.571 361.174 553.667 361.174ZM552.167 359.734C552.535 360.142 553.039 360.346 553.679 360.346C554.319 360.346 554.819 360.146 555.179 359.746C555.547 359.338 555.731 358.762 555.731 358.018V357.994C555.731 357.298 555.563 356.75 555.227 356.35C554.899 355.95 554.419 355.75 553.787 355.75C553.123 355.75 552.595 355.958 552.203 356.374C551.819 356.79 551.627 357.358 551.627 358.078V358.102C551.627 358.782 551.807 359.326 552.167 359.734ZM558.507 354.79H559.503V355.846C559.687 355.526 559.975 355.254 560.367 355.03C560.759 354.798 561.179 354.682 561.627 354.682C562.467 354.682 563.151 354.966 563.679 355.534C564.215 356.102 564.483 356.87 564.483 357.838V357.934C564.483 358.902 564.219 359.686 563.691 360.286C563.171 360.878 562.483 361.174 561.627 361.174C560.667 361.174 559.959 360.794 559.503 360.034V363.25H558.507V354.79ZM561.531 360.346C562.155 360.346 562.631 360.146 562.959 359.746C563.287 359.338 563.451 358.75 563.451 357.982V357.886C563.451 357.126 563.267 356.542 562.899 356.134C562.539 355.718 562.079 355.51 561.519 355.51C560.911 355.51 560.415 355.714 560.031 356.122C559.655 356.522 559.467 357.11 559.467 357.886V357.982C559.467 358.758 559.651 359.346 560.019 359.746C560.395 360.146 560.899 360.346 561.531 360.346ZM566.078 354.79H567.074V356.986H568.19C568.894 356.986 569.47 357.158 569.918 357.502C570.366 357.846 570.59 358.358 570.59 359.038V359.074C570.59 359.762 570.366 360.266 569.918 360.586C569.478 360.906 568.902 361.066 568.19 361.066H566.078V354.79ZM568.25 360.286C568.73 360.286 569.074 360.186 569.282 359.986C569.49 359.778 569.594 359.474 569.594 359.074V359.038C569.594 358.606 569.486 358.29 569.27 358.09C569.062 357.882 568.722 357.778 568.25 357.778H567.074V360.286H568.25Z" fill="white"/>
<path d="M523.793 376.71L527.769 372.524C528.731 371.507 529.211 370.541 529.211 369.626C529.211 369.066 529.053 368.628 528.735 368.31C528.427 367.993 527.989 367.834 527.419 367.834C526.206 367.834 525.501 368.576 525.305 370.06H524.171C524.246 369.071 524.568 368.292 525.137 367.722C525.716 367.144 526.477 366.854 527.419 366.854C528.343 366.854 529.076 367.111 529.617 367.624C530.168 368.128 530.443 368.81 530.443 369.668C530.443 370.77 529.771 371.983 528.427 373.308L525.669 375.996H530.499V376.99H523.793V376.71ZM536.345 376.108C538.109 376.108 538.991 374.816 538.991 372.23V371.67C538.991 370.504 538.753 369.575 538.277 368.884C537.801 368.184 537.147 367.834 536.317 367.834C535.467 367.834 534.805 368.17 534.329 368.842C533.853 369.514 533.615 370.466 533.615 371.698V372.258C533.615 373.5 533.857 374.452 534.343 375.114C534.828 375.777 535.495 376.108 536.345 376.108ZM536.345 377.116C535.15 377.116 534.189 376.673 533.461 375.786C532.733 374.9 532.369 373.728 532.369 372.272V371.712C532.369 370.228 532.719 369.048 533.419 368.17C534.128 367.293 535.094 366.854 536.317 366.854C537.53 366.854 538.482 367.298 539.173 368.184C539.873 369.071 540.223 370.238 540.223 371.684V372.244C540.223 373.719 539.877 374.9 539.187 375.786C538.505 376.673 537.558 377.116 536.345 377.116ZM541.642 376.71L545.618 372.524C546.579 371.507 547.06 370.541 547.06 369.626C547.06 369.066 546.901 368.628 546.584 368.31C546.276 367.993 545.837 367.834 545.268 367.834C544.054 367.834 543.35 368.576 543.154 370.06H542.02C542.094 369.071 542.416 368.292 542.986 367.722C543.564 367.144 544.325 366.854 545.268 366.854C546.192 366.854 546.924 367.111 547.466 367.624C548.016 368.128 548.292 368.81 548.292 369.668C548.292 370.77 547.62 371.983 546.276 373.308L543.518 375.996H548.348V376.99H541.642V376.71ZM554.193 376.108C555.957 376.108 556.839 374.816 556.839 372.23V371.67C556.839 370.504 556.601 369.575 556.125 368.884C555.649 368.184 554.996 367.834 554.165 367.834C553.316 367.834 552.653 368.17 552.177 368.842C551.701 369.514 551.463 370.466 551.463 371.698V372.258C551.463 373.5 551.706 374.452 552.191 375.114C552.676 375.777 553.344 376.108 554.193 376.108ZM554.193 377.116C552.998 377.116 552.037 376.673 551.309 375.786C550.581 374.9 550.217 373.728 550.217 372.272V371.712C550.217 370.228 550.567 369.048 551.267 368.17C551.976 367.293 552.942 366.854 554.165 366.854C555.378 366.854 556.33 367.298 557.021 368.184C557.721 369.071 558.071 370.238 558.071 371.684V372.244C558.071 373.719 557.726 374.9 557.035 375.786C556.354 376.673 555.406 377.116 554.193 377.116Z" fill="white"/>
<path opacity="0.6" d="M5.412 284.036H3.384V289.472H2.388V284.036H0.36V283.196H5.412V284.036ZM12.3053 283.196H13.3013V289.472H12.3053V283.196ZM6.90534 283.196H7.90134V285.392H9.01734C9.72934 285.392 10.3053 285.552 10.7453 285.872C11.1933 286.192 11.4173 286.696 11.4173 287.384V287.42C11.4173 288.1 11.1933 288.612 10.7453 288.956C10.2973 289.3 9.72134 289.472 9.01734 289.472H6.90534V283.196ZM9.07734 288.68C9.54934 288.68 9.88934 288.58 10.0973 288.38C10.3133 288.172 10.4213 287.852 10.4213 287.42V287.384C10.4213 286.984 10.3173 286.684 10.1093 286.484C9.90134 286.276 9.55734 286.172 9.07734 286.172H7.90134V288.68H9.07734ZM18.1154 289.58C17.2194 289.58 16.4834 289.292 15.9074 288.716C15.3314 288.132 15.0434 287.36 15.0434 286.4V286.304C15.0434 285.36 15.3354 284.588 15.9194 283.988C16.5114 283.388 17.2354 283.088 18.0914 283.088C18.8114 283.088 19.4234 283.268 19.9274 283.628C20.4314 283.98 20.7274 284.532 20.8154 285.284H19.8314C19.6874 284.372 19.1074 283.916 18.0914 283.916C17.5074 283.916 17.0234 284.136 16.6394 284.576C16.2634 285.008 16.0754 285.584 16.0754 286.304V286.4C16.0754 287.152 16.2594 287.732 16.6274 288.14C17.0034 288.548 17.5034 288.752 18.1274 288.752C18.5994 288.752 19.0034 288.62 19.3394 288.356C19.6834 288.084 19.8794 287.704 19.9274 287.216H20.8514C20.7874 287.904 20.4994 288.472 19.9874 288.92C19.4834 289.36 18.8594 289.58 18.1154 289.58ZM25.7709 283.196H26.7669V284.252C26.9509 283.932 27.2389 283.66 27.6309 283.436C28.0229 283.204 28.4429 283.088 28.8909 283.088C29.7309 283.088 30.4149 283.372 30.9429 283.94C31.4789 284.508 31.7469 285.276 31.7469 286.244V286.34C31.7469 287.308 31.4829 288.092 30.9549 288.692C30.4349 289.284 29.7469 289.58 28.8909 289.58C27.9309 289.58 27.2229 289.2 26.7669 288.44V291.656H25.7709V283.196ZM28.7949 288.752C29.4189 288.752 29.8949 288.552 30.2229 288.152C30.5509 287.744 30.7149 287.156 30.7149 286.388V286.292C30.7149 285.532 30.5309 284.948 30.1629 284.54C29.8029 284.124 29.3429 283.916 28.7829 283.916C28.1749 283.916 27.6789 284.12 27.2949 284.528C26.9189 284.928 26.7309 285.516 26.7309 286.292V286.388C26.7309 287.164 26.9149 287.752 27.2829 288.152C27.6589 288.552 28.1629 288.752 28.7949 288.752ZM35.0492 288.824L32.5892 283.196H33.6572L35.5772 287.696L37.3172 283.196H38.3372L34.8692 291.656H33.8612L35.0492 288.824ZM42.3968 289.58C41.4528 289.58 40.7048 289.276 40.1528 288.668C39.6008 288.06 39.3248 287.136 39.3248 285.896V285.512C39.3248 284.92 39.3488 284.396 39.3968 283.94C39.4448 283.476 39.5448 283.012 39.6968 282.548C39.8488 282.076 40.0488 281.684 40.2968 281.372C40.5448 281.06 40.8808 280.8 41.3048 280.592C41.7368 280.384 42.2448 280.264 42.8288 280.232L43.0688 280.22C43.9488 280.172 44.5448 280.084 44.8568 279.956L44.9888 280.796C44.5808 280.972 43.9448 281.08 43.0808 281.12L42.9008 281.132C41.9328 281.18 41.2408 281.496 40.8248 282.08C40.4168 282.656 40.1768 283.552 40.1048 284.768H40.1528C40.3688 284.328 40.6888 283.98 41.1128 283.724C41.5448 283.46 42.0448 283.328 42.6128 283.328C43.4848 283.328 44.1808 283.612 44.7008 284.18C45.2288 284.74 45.4928 285.468 45.4928 286.364V286.412C45.4928 287.38 45.2008 288.152 44.6168 288.728C44.0408 289.296 43.3008 289.58 42.3968 289.58ZM40.8968 288.14C41.2648 288.548 41.7688 288.752 42.4088 288.752C43.0488 288.752 43.5488 288.552 43.9088 288.152C44.2768 287.744 44.4608 287.168 44.4608 286.424V286.4C44.4608 285.704 44.2928 285.156 43.9568 284.756C43.6288 284.356 43.1488 284.156 42.5168 284.156C41.8528 284.156 41.3248 284.364 40.9328 284.78C40.5488 285.196 40.3568 285.764 40.3568 286.484V286.508C40.3568 287.188 40.5368 287.732 40.8968 288.14Z" fill="white"/>
<path d="M16.3698 275.087C15.1858 275.087 14.2312 274.757 13.5058 274.095C12.7912 273.434 12.4125 272.591 12.3698 271.567H13.6498C13.7138 272.293 13.9752 272.874 14.4338 273.311C14.8925 273.749 15.5485 273.967 16.4018 273.967C17.2765 273.967 17.9272 273.775 18.3538 273.391C18.7912 272.997 19.0098 272.453 19.0098 271.759C19.0098 270.277 18.2045 269.535 16.5938 269.535H15.7298V268.367H16.5298C17.9592 268.367 18.6738 267.717 18.6738 266.415C18.6738 265.85 18.4978 265.391 18.1458 265.039C17.7938 264.677 17.2765 264.495 16.5938 264.495C15.8898 264.495 15.3085 264.693 14.8498 265.087C14.4018 265.482 14.1405 266.005 14.0658 266.655H12.8498C12.8925 265.738 13.2605 264.959 13.9538 264.319C14.6472 263.679 15.5272 263.359 16.5938 263.359C17.6392 263.359 18.4712 263.658 19.0898 264.255C19.7192 264.842 20.0338 265.551 20.0338 266.383C20.0338 267.546 19.4312 268.378 18.2258 268.879C19.6978 269.285 20.4338 270.245 20.4338 271.759C20.4338 272.794 20.0552 273.61 19.2978 274.207C18.5512 274.794 17.5752 275.087 16.3698 275.087ZM27.6629 264.623H21.8549V263.503H29.3909V263.695L25.1029 274.943H23.6789L27.6629 264.623ZM35.3663 273.935C37.3823 273.935 38.3903 272.458 38.3903 269.503V268.863C38.3903 267.53 38.1183 266.469 37.5743 265.679C37.0303 264.879 36.2837 264.479 35.3343 264.479C34.3637 264.479 33.6063 264.863 33.0623 265.631C32.5183 266.399 32.2463 267.487 32.2463 268.895V269.535C32.2463 270.954 32.5237 272.042 33.0783 272.799C33.633 273.557 34.3957 273.935 35.3663 273.935ZM35.3663 275.087C34.001 275.087 32.9023 274.581 32.0703 273.567C31.2383 272.554 30.8223 271.215 30.8223 269.551V268.911C30.8223 267.215 31.2223 265.866 32.0223 264.863C32.833 263.861 33.937 263.359 35.3343 263.359C36.721 263.359 37.809 263.866 38.5983 264.879C39.3983 265.893 39.7983 267.226 39.7983 268.879V269.519C39.7983 271.205 39.4037 272.554 38.6143 273.567C37.8357 274.581 36.753 275.087 35.3663 275.087Z" fill="white"/>
<path opacity="0.6" d="M5.412 231.301H3.384V236.737H2.388V231.301H0.36V230.461H5.412V231.301ZM12.3053 230.461H13.3013V236.737H12.3053V230.461ZM6.90534 230.461H7.90134V232.657H9.01734C9.72934 232.657 10.3053 232.817 10.7453 233.137C11.1933 233.457 11.4173 233.961 11.4173 234.649V234.685C11.4173 235.365 11.1933 235.877 10.7453 236.221C10.2973 236.565 9.72134 236.737 9.01734 236.737H6.90534V230.461ZM9.07734 235.945C9.54934 235.945 9.88934 235.845 10.0973 235.645C10.3133 235.437 10.4213 235.117 10.4213 234.685V234.649C10.4213 234.249 10.3173 233.949 10.1093 233.749C9.90134 233.541 9.55734 233.437 9.07734 233.437H7.90134V235.945H9.07734ZM18.1154 236.845C17.2194 236.845 16.4834 236.557 15.9074 235.981C15.3314 235.397 15.0434 234.625 15.0434 233.665V233.569C15.0434 232.625 15.3354 231.853 15.9194 231.253C16.5114 230.653 17.2354 230.353 18.0914 230.353C18.8114 230.353 19.4234 230.533 19.9274 230.893C20.4314 231.245 20.7274 231.797 20.8154 232.549H19.8314C19.6874 231.637 19.1074 231.181 18.0914 231.181C17.5074 231.181 17.0234 231.401 16.6394 231.841C16.2634 232.273 16.0754 232.849 16.0754 233.569V233.665C16.0754 234.417 16.2594 234.997 16.6274 235.405C17.0034 235.813 17.5034 236.017 18.1274 236.017C18.5994 236.017 19.0034 235.885 19.3394 235.621C19.6834 235.349 19.8794 234.969 19.9274 234.481H20.8514C20.7874 235.169 20.4994 235.737 19.9874 236.185C19.4834 236.625 18.8594 236.845 18.1154 236.845ZM25.7709 230.461H26.7669V231.517C26.9509 231.197 27.2389 230.925 27.6309 230.701C28.0229 230.469 28.4429 230.353 28.8909 230.353C29.7309 230.353 30.4149 230.637 30.9429 231.205C31.4789 231.773 31.7469 232.541 31.7469 233.509V233.605C31.7469 234.573 31.4829 235.357 30.9549 235.957C30.4349 236.549 29.7469 236.845 28.8909 236.845C27.9309 236.845 27.2229 236.465 26.7669 235.705V238.921H25.7709V230.461ZM28.7949 236.017C29.4189 236.017 29.8949 235.817 30.2229 235.417C30.5509 235.009 30.7149 234.421 30.7149 233.653V233.557C30.7149 232.797 30.5309 232.213 30.1629 231.805C29.8029 231.389 29.3429 231.181 28.7829 231.181C28.1749 231.181 27.6789 231.385 27.2949 231.793C26.9189 232.193 26.7309 232.781 26.7309 233.557V233.653C26.7309 234.429 26.9149 235.017 27.2829 235.417C27.6589 235.817 28.1629 236.017 28.7949 236.017ZM35.0492 236.089L32.5892 230.461H33.6572L35.5772 234.961L37.3172 230.461H38.3372L34.8692 238.921H33.8612L35.0492 236.089ZM42.3968 236.845C41.4528 236.845 40.7048 236.541 40.1528 235.933C39.6008 235.325 39.3248 234.401 39.3248 233.161V232.777C39.3248 232.185 39.3488 231.661 39.3968 231.205C39.4448 230.741 39.5448 230.277 39.6968 229.813C39.8488 229.341 40.0488 228.949 40.2968 228.637C40.5448 228.325 40.8808 228.065 41.3048 227.857C41.7368 227.649 42.2448 227.529 42.8288 227.497L43.0688 227.485C43.9488 227.437 44.5448 227.349 44.8568 227.221L44.9888 228.061C44.5808 228.237 43.9448 228.345 43.0808 228.385L42.9008 228.397C41.9328 228.445 41.2408 228.761 40.8248 229.345C40.4168 229.921 40.1768 230.817 40.1048 232.033H40.1528C40.3688 231.593 40.6888 231.245 41.1128 230.989C41.5448 230.725 42.0448 230.593 42.6128 230.593C43.4848 230.593 44.1808 230.877 44.7008 231.445C45.2288 232.005 45.4928 232.733 45.4928 233.629V233.677C45.4928 234.645 45.2008 235.417 44.6168 235.993C44.0408 236.561 43.3008 236.845 42.3968 236.845ZM40.8968 235.405C41.2648 235.813 41.7688 236.017 42.4088 236.017C43.0488 236.017 43.5488 235.817 43.9088 235.417C44.2768 235.009 44.4608 234.433 44.4608 233.689V233.665C44.4608 232.969 44.2928 232.421 43.9568 232.021C43.6288 231.621 43.1488 231.421 42.5168 231.421C41.8528 231.421 41.3248 231.629 40.9328 232.045C40.5488 232.461 40.3568 233.029 40.3568 233.749V233.773C40.3568 234.453 40.5368 234.997 40.8968 235.405Z" fill="white"/>
<path d="M17.92 222.352C16.736 222.352 15.7814 222.021 15.056 221.36C14.3414 220.699 13.9627 219.856 13.92 218.832H15.2C15.264 219.557 15.5254 220.139 15.984 220.576C16.4427 221.013 17.0987 221.232 17.952 221.232C18.8267 221.232 19.4774 221.04 19.904 220.656C20.3414 220.261 20.56 219.717 20.56 219.024C20.56 217.541 19.7547 216.8 18.144 216.8H17.28V215.632H18.08C19.5094 215.632 20.224 214.981 20.224 213.68C20.224 213.115 20.048 212.656 19.696 212.304C19.344 211.941 18.8267 211.76 18.144 211.76C17.44 211.76 16.8587 211.957 16.4 212.352C15.952 212.747 15.6907 213.269 15.616 213.92H14.4C14.4427 213.003 14.8107 212.224 15.504 211.584C16.1974 210.944 17.0774 210.624 18.144 210.624C19.1894 210.624 20.0214 210.923 20.64 211.52C21.2694 212.107 21.584 212.816 21.584 213.648C21.584 214.811 20.9814 215.643 19.776 216.144C21.248 216.549 21.984 217.509 21.984 219.024C21.984 220.059 21.6054 220.875 20.848 221.472C20.1014 222.059 19.1254 222.352 17.92 222.352ZM27.9394 222.336C26.8941 222.336 26.0567 222.08 25.4274 221.568C24.7981 221.056 24.4087 220.331 24.2594 219.392H25.6034C25.7421 219.989 25.9927 220.443 26.3554 220.752C26.7287 221.051 27.2674 221.2 27.9714 221.2C28.8994 221.2 29.6141 220.821 30.1154 220.064C30.6167 219.307 30.8781 218.171 30.8994 216.656C30.6114 217.136 30.2114 217.509 29.6994 217.776C29.1874 218.043 28.6007 218.176 27.9394 218.176C26.8301 218.176 25.9234 217.824 25.2194 217.12C24.5261 216.416 24.1794 215.52 24.1794 214.432C24.1794 213.28 24.5367 212.357 25.2514 211.664C25.9661 210.96 26.9261 210.608 28.1314 210.608C29.4861 210.608 30.5101 211.045 31.2034 211.92C31.8967 212.795 32.2434 214.064 32.2434 215.728V216.448C32.2434 218.357 31.8701 219.819 31.1234 220.832C30.3874 221.835 29.3261 222.336 27.9394 222.336ZM28.1474 217.088C28.9154 217.088 29.5447 216.859 30.0354 216.4C30.5261 215.941 30.7714 215.344 30.7714 214.608C30.7714 213.691 30.5261 212.976 30.0354 212.464C29.5554 211.952 28.9207 211.696 28.1314 211.696C27.3847 211.696 26.7767 211.941 26.3074 212.432C25.8381 212.923 25.6034 213.568 25.6034 214.368C25.6034 215.2 25.8327 215.861 26.2914 216.352C26.7501 216.843 27.3687 217.088 28.1474 217.088ZM39.0728 221.2C41.0888 221.2 42.0968 219.723 42.0968 216.768V216.128C42.0968 214.795 41.8248 213.733 41.2808 212.944C40.7368 212.144 39.9901 211.744 39.0408 211.744C38.0701 211.744 37.3128 212.128 36.7688 212.896C36.2248 213.664 35.9528 214.752 35.9528 216.16V216.8C35.9528 218.219 36.2301 219.307 36.7848 220.064C37.3394 220.821 38.1021 221.2 39.0728 221.2ZM39.0728 222.352C37.7074 222.352 36.6088 221.845 35.7768 220.832C34.9448 219.819 34.5288 218.48 34.5288 216.816V216.176C34.5288 214.48 34.9288 213.131 35.7288 212.128C36.5394 211.125 37.6434 210.624 39.0408 210.624C40.4274 210.624 41.5154 211.131 42.3048 212.144C43.1048 213.157 43.5048 214.491 43.5048 216.144V216.784C43.5048 218.469 43.1101 219.819 42.3208 220.832C41.5421 221.845 40.4594 222.352 39.0728 222.352Z" fill="white"/>
<circle cx="259" cy="234" r="4" fill="#F1D5C0"/>
<circle cx="129" cy="289" r="4" fill="#F1D5C0"/>
<circle cx="381" cy="195" r="4" fill="#F1D5C0"/>
<circle cx="513" cy="47" r="4" fill="#F1D5C0"/>
<path opacity="0.6" d="M5.412 73.564H3.384V79H2.388V73.564H0.36V72.724H5.412V73.564ZM12.3053 72.724H13.3013V79H12.3053V72.724ZM6.90534 72.724H7.90134V74.92H9.01734C9.72934 74.92 10.3053 75.08 10.7453 75.4C11.1933 75.72 11.4173 76.224 11.4173 76.912V76.948C11.4173 77.628 11.1933 78.14 10.7453 78.484C10.2973 78.828 9.72134 79 9.01734 79H6.90534V72.724ZM9.07734 78.208C9.54934 78.208 9.88934 78.108 10.0973 77.908C10.3133 77.7 10.4213 77.38 10.4213 76.948V76.912C10.4213 76.512 10.3173 76.212 10.1093 76.012C9.90134 75.804 9.55734 75.7 9.07734 75.7H7.90134V78.208H9.07734ZM18.1154 79.108C17.2194 79.108 16.4834 78.82 15.9074 78.244C15.3314 77.66 15.0434 76.888 15.0434 75.928V75.832C15.0434 74.888 15.3354 74.116 15.9194 73.516C16.5114 72.916 17.2354 72.616 18.0914 72.616C18.8114 72.616 19.4234 72.796 19.9274 73.156C20.4314 73.508 20.7274 74.06 20.8154 74.812H19.8314C19.6874 73.9 19.1074 73.444 18.0914 73.444C17.5074 73.444 17.0234 73.664 16.6394 74.104C16.2634 74.536 16.0754 75.112 16.0754 75.832V75.928C16.0754 76.68 16.2594 77.26 16.6274 77.668C17.0034 78.076 17.5034 78.28 18.1274 78.28C18.5994 78.28 19.0034 78.148 19.3394 77.884C19.6834 77.612 19.8794 77.232 19.9274 76.744H20.8514C20.7874 77.432 20.4994 78 19.9874 78.448C19.4834 78.888 18.8594 79.108 18.1154 79.108ZM25.7709 72.724H26.7669V73.78C26.9509 73.46 27.2389 73.188 27.6309 72.964C28.0229 72.732 28.4429 72.616 28.8909 72.616C29.7309 72.616 30.4149 72.9 30.9429 73.468C31.4789 74.036 31.7469 74.804 31.7469 75.772V75.868C31.7469 76.836 31.4829 77.62 30.9549 78.22C30.4349 78.812 29.7469 79.108 28.8909 79.108C27.9309 79.108 27.2229 78.728 26.7669 77.968V81.184H25.7709V72.724ZM28.7949 78.28C29.4189 78.28 29.8949 78.08 30.2229 77.68C30.5509 77.272 30.7149 76.684 30.7149 75.916V75.82C30.7149 75.06 30.5309 74.476 30.1629 74.068C29.8029 73.652 29.3429 73.444 28.7829 73.444C28.1749 73.444 27.6789 73.648 27.2949 74.056C26.9189 74.456 26.7309 75.044 26.7309 75.82V75.916C26.7309 76.692 26.9149 77.28 27.2829 77.68C27.6589 78.08 28.1629 78.28 28.7949 78.28ZM35.0492 78.352L32.5892 72.724H33.6572L35.5772 77.224L37.3172 72.724H38.3372L34.8692 81.184H33.8612L35.0492 78.352ZM42.3968 79.108C41.4528 79.108 40.7048 78.804 40.1528 78.196C39.6008 77.588 39.3248 76.664 39.3248 75.424V75.04C39.3248 74.448 39.3488 73.924 39.3968 73.468C39.4448 73.004 39.5448 72.54 39.6968 72.076C39.8488 71.604 40.0488 71.212 40.2968 70.9C40.5448 70.588 40.8808 70.328 41.3048 70.12C41.7368 69.912 42.2448 69.792 42.8288 69.76L43.0688 69.748C43.9488 69.7 44.5448 69.612 44.8568 69.484L44.9888 70.324C44.5808 70.5 43.9448 70.608 43.0808 70.648L42.9008 70.66C41.9328 70.708 41.2408 71.024 40.8248 71.608C40.4168 72.184 40.1768 73.08 40.1048 74.296H40.1528C40.3688 73.856 40.6888 73.508 41.1128 73.252C41.5448 72.988 42.0448 72.856 42.6128 72.856C43.4848 72.856 44.1808 73.14 44.7008 73.708C45.2288 74.268 45.4928 74.996 45.4928 75.892V75.94C45.4928 76.908 45.2008 77.68 44.6168 78.256C44.0408 78.824 43.3008 79.108 42.3968 79.108ZM40.8968 77.668C41.2648 78.076 41.7688 78.28 42.4088 78.28C43.0488 78.28 43.5488 78.08 43.9088 77.68C44.2768 77.272 44.4608 76.696 44.4608 75.952V75.928C44.4608 75.232 44.2928 74.684 43.9568 74.284C43.6288 73.884 43.1488 73.684 42.5168 73.684C41.8528 73.684 41.3248 73.892 40.9328 74.308C40.5488 74.724 40.3568 75.292 40.3568 76.012V76.036C40.3568 76.716 40.5368 77.26 40.8968 77.668Z" fill="white"/>
<path d="M21.448 63.6H15.72V63.152L20.952 54.56H22.808V62.464H24.392V63.6H22.808V66H21.448V63.6ZM21.448 62.464V55.616L17.48 62.464H21.448ZM30.3905 66.144C27.6492 66.144 26.2785 64.4107 26.2785 60.944V60.672C26.2785 58.6667 26.6838 57.1253 27.4945 56.048C28.3158 54.96 29.4038 54.416 30.7585 54.416C31.6758 54.416 32.4225 54.6507 32.9985 55.12C33.5852 55.5893 33.9532 56.2773 34.1025 57.184H32.7745C32.6465 56.6293 32.4172 56.2187 32.0865 55.952C31.7558 55.6853 31.2812 55.552 30.6625 55.552C29.7772 55.552 29.0625 55.9467 28.5185 56.736C27.9745 57.5253 27.6865 58.656 27.6545 60.128C28.2732 59.0933 29.2545 58.576 30.5985 58.576C31.7185 58.576 32.6198 58.9333 33.3025 59.648C33.9958 60.352 34.3425 61.2427 34.3425 62.32C34.3425 63.472 33.9852 64.4 33.2705 65.104C32.5558 65.7973 31.5958 66.144 30.3905 66.144ZM30.3905 65.056C31.1372 65.056 31.7452 64.8107 32.2145 64.32C32.6838 63.8293 32.9185 63.184 32.9185 62.384C32.9185 61.552 32.6892 60.8907 32.2305 60.4C31.7718 59.9093 31.1532 59.664 30.3745 59.664C29.6065 59.664 28.9772 59.8987 28.4865 60.368C27.9958 60.8373 27.7505 61.4453 27.7505 62.192C27.7505 63.0987 27.9905 63.8027 28.4705 64.304C28.9612 64.8053 29.6012 65.056 30.3905 65.056ZM40.9981 64.992C43.0141 64.992 44.0221 63.5147 44.0221 60.56V59.92C44.0221 58.5867 43.7501 57.5253 43.2061 56.736C42.6621 55.936 41.9155 55.536 40.9661 55.536C39.9955 55.536 39.2381 55.92 38.6941 56.688C38.1501 57.456 37.8781 58.544 37.8781 59.952V60.592C37.8781 62.0107 38.1555 63.0987 38.7101 63.856C39.2648 64.6133 40.0275 64.992 40.9981 64.992ZM40.9981 66.144C39.6328 66.144 38.5341 65.6373 37.7021 64.624C36.8701 63.6107 36.4541 62.272 36.4541 60.608V59.968C36.4541 58.272 36.8541 56.9227 37.6541 55.92C38.4648 54.9173 39.5688 54.416 40.9661 54.416C42.3528 54.416 43.4408 54.9227 44.2301 55.936C45.0301 56.9493 45.4301 58.2827 45.4301 59.936V60.576C45.4301 62.2613 45.0355 63.6107 44.2461 64.624C43.4675 65.6373 42.3848 66.144 40.9981 66.144Z" fill="white"/>
<path opacity="0.6" d="M5.412 23.564H3.384V29H2.388V23.564H0.36V22.724H5.412V23.564ZM12.3053 22.724H13.3013V29H12.3053V22.724ZM6.90534 22.724H7.90134V24.92H9.01734C9.72934 24.92 10.3053 25.08 10.7453 25.4C11.1933 25.72 11.4173 26.224 11.4173 26.912V26.948C11.4173 27.628 11.1933 28.14 10.7453 28.484C10.2973 28.828 9.72134 29 9.01734 29H6.90534V22.724ZM9.07734 28.208C9.54934 28.208 9.88934 28.108 10.0973 27.908C10.3133 27.7 10.4213 27.38 10.4213 26.948V26.912C10.4213 26.512 10.3173 26.212 10.1093 26.012C9.90134 25.804 9.55734 25.7 9.07734 25.7H7.90134V28.208H9.07734ZM18.1154 29.108C17.2194 29.108 16.4834 28.82 15.9074 28.244C15.3314 27.66 15.0434 26.888 15.0434 25.928V25.832C15.0434 24.888 15.3354 24.116 15.9194 23.516C16.5114 22.916 17.2354 22.616 18.0914 22.616C18.8114 22.616 19.4234 22.796 19.9274 23.156C20.4314 23.508 20.7274 24.06 20.8154 24.812H19.8314C19.6874 23.9 19.1074 23.444 18.0914 23.444C17.5074 23.444 17.0234 23.664 16.6394 24.104C16.2634 24.536 16.0754 25.112 16.0754 25.832V25.928C16.0754 26.68 16.2594 27.26 16.6274 27.668C17.0034 28.076 17.5034 28.28 18.1274 28.28C18.5994 28.28 19.0034 28.148 19.3394 27.884C19.6834 27.612 19.8794 27.232 19.9274 26.744H20.8514C20.7874 27.432 20.4994 28 19.9874 28.448C19.4834 28.888 18.8594 29.108 18.1154 29.108ZM25.7709 22.724H26.7669V23.78C26.9509 23.46 27.2389 23.188 27.6309 22.964C28.0229 22.732 28.4429 22.616 28.8909 22.616C29.7309 22.616 30.4149 22.9 30.9429 23.468C31.4789 24.036 31.7469 24.804 31.7469 25.772V25.868C31.7469 26.836 31.4829 27.62 30.9549 28.22C30.4349 28.812 29.7469 29.108 28.8909 29.108C27.9309 29.108 27.2229 28.728 26.7669 27.968V31.184H25.7709V22.724ZM28.7949 28.28C29.4189 28.28 29.8949 28.08 30.2229 27.68C30.5509 27.272 30.7149 26.684 30.7149 25.916V25.82C30.7149 25.06 30.5309 24.476 30.1629 24.068C29.8029 23.652 29.3429 23.444 28.7829 23.444C28.1749 23.444 27.6789 23.648 27.2949 24.056C26.9189 24.456 26.7309 25.044 26.7309 25.82V25.916C26.7309 26.692 26.9149 27.28 27.2829 27.68C27.6589 28.08 28.1629 28.28 28.7949 28.28ZM35.0492 28.352L32.5892 22.724H33.6572L35.5772 27.224L37.3172 22.724H38.3372L34.8692 31.184H33.8612L35.0492 28.352ZM42.3968 29.108C41.4528 29.108 40.7048 28.804 40.1528 28.196C39.6008 27.588 39.3248 26.664 39.3248 25.424V25.04C39.3248 24.448 39.3488 23.924 39.3968 23.468C39.4448 23.004 39.5448 22.54 39.6968 22.076C39.8488 21.604 40.0488 21.212 40.2968 20.9C40.5448 20.588 40.8808 20.328 41.3048 20.12C41.7368 19.912 42.2448 19.792 42.8288 19.76L43.0688 19.748C43.9488 19.7 44.5448 19.612 44.8568 19.484L44.9888 20.324C44.5808 20.5 43.9448 20.608 43.0808 20.648L42.9008 20.66C41.9328 20.708 41.2408 21.024 40.8248 21.608C40.4168 22.184 40.1768 23.08 40.1048 24.296H40.1528C40.3688 23.856 40.6888 23.508 41.1128 23.252C41.5448 22.988 42.0448 22.856 42.6128 22.856C43.4848 22.856 44.1808 23.14 44.7008 23.708C45.2288 24.268 45.4928 24.996 45.4928 25.892V25.94C45.4928 26.908 45.2008 27.68 44.6168 28.256C44.0408 28.824 43.3008 29.108 42.3968 29.108ZM40.8968 27.668C41.2648 28.076 41.7688 28.28 42.4088 28.28C43.0488 28.28 43.5488 28.08 43.9088 27.68C44.2768 27.272 44.4608 26.696 44.4608 25.952V25.928C44.4608 25.232 44.2928 24.684 43.9568 24.284C43.6288 23.884 43.1488 23.684 42.5168 23.684C41.8528 23.684 41.3248 23.892 40.9328 24.308C40.5488 24.724 40.3568 25.292 40.3568 26.012V26.036C40.3568 26.716 40.5368 27.26 40.8968 27.668Z" fill="white"/>
<path d="M18.592 16.144C17.408 16.144 16.5013 15.856 15.872 15.28C15.2427 14.6933 14.88 13.904 14.784 12.912H16.112C16.24 13.6053 16.48 14.1333 16.832 14.496C17.184 14.848 17.7653 15.024 18.576 15.024C19.3547 15.024 19.968 14.7787 20.416 14.288C20.864 13.7973 21.088 13.12 21.088 12.256C21.088 11.4453 20.8693 10.8 20.432 10.32C20.0053 9.82933 19.424 9.584 18.688 9.584C18.048 9.584 17.52 9.67467 17.104 9.856C16.688 10.0373 16.3147 10.3147 15.984 10.688H15.472V4.56H21.904V5.76H16.624V9.248C17.1893 8.72533 17.968 8.464 18.96 8.464C20.0053 8.464 20.8587 8.81067 21.52 9.504C22.1813 10.1867 22.512 11.104 22.512 12.256C22.512 13.44 22.1387 14.384 21.392 15.088C20.6453 15.792 19.712 16.144 18.592 16.144ZM29.26 14.992C31.276 14.992 32.284 13.5147 32.284 10.56V9.92C32.284 8.58667 32.012 7.52533 31.468 6.736C30.924 5.936 30.1773 5.536 29.228 5.536C28.2573 5.536 27.5 5.92 26.956 6.688C26.412 7.456 26.14 8.544 26.14 9.952V10.592C26.14 12.0107 26.4173 13.0987 26.972 13.856C27.5267 14.6133 28.2893 14.992 29.26 14.992ZM29.26 16.144C27.8947 16.144 26.796 15.6373 25.964 14.624C25.132 13.6107 24.716 12.272 24.716 10.608V9.968C24.716 8.272 25.116 6.92267 25.916 5.92C26.7267 4.91733 27.8307 4.416 29.228 4.416C30.6147 4.416 31.7027 4.92267 32.492 5.936C33.292 6.94933 33.692 8.28267 33.692 9.936V10.576C33.692 12.2613 33.2973 13.6107 32.508 14.624C31.7293 15.6373 30.6467 16.144 29.26 16.144ZM40.5138 14.992C42.5298 14.992 43.5378 13.5147 43.5378 10.56V9.92C43.5378 8.58667 43.2658 7.52533 42.7218 6.736C42.1777 5.936 41.4311 5.536 40.4818 5.536C39.5111 5.536 38.7537 5.92 38.2097 6.688C37.6657 7.456 37.3937 8.544 37.3937 9.952V10.592C37.3937 12.0107 37.6711 13.0987 38.2257 13.856C38.7804 14.6133 39.5431 14.992 40.5138 14.992ZM40.5138 16.144C39.1484 16.144 38.0497 15.6373 37.2177 14.624C36.3857 13.6107 35.9697 12.272 35.9697 10.608V9.968C35.9697 8.272 36.3697 6.92267 37.1697 5.92C37.9804 4.91733 39.0844 4.416 40.4818 4.416C41.8684 4.416 42.9564 4.92267 43.7458 5.936C44.5458 6.94933 44.9458 8.28267 44.9458 9.936V10.576C44.9458 12.2613 44.5511 13.6107 43.7618 14.624C42.9831 15.6373 41.9004 16.144 40.5138 16.144Z" fill="white"/>
<rect opacity="0.3" x="128" y="292" width="1" height="86" fill="#F1D5C0"/>
<rect opacity="0.3" x="258" y="235" width="1" height="143" fill="#F1D5C0"/>
<rect opacity="0.3" x="380" y="196" width="1" height="182" fill="#F1D5C0"/>
<rect opacity="0.3" x="512" y="47" width="1" height="331" fill="#F1D5C0"/>
<path d="M45 366L129.495 288.809L258.583 234.351L380.626 195.453L513.706 46.3429L603 4" stroke="#F1D5C0"/>
<defs>
<radialGradient id="paint0_radial_718:1215" cx="0" cy="0" r="1" gradientUnits="userSpaceOnUse" gradientTransform="translate(291.558 157.287) rotate(41.381) scale(225.984 398.592)">
<stop stop-color="#F1D5C0"/>
<stop offset="0.777827" stop-color="#F1D5C0" stop-opacity="0"/>
</radialGradient>
</defs>
</svg>
