<svg width="446" height="288" viewBox="0 0 446 288" fill="none" xmlns="http://www.w3.org/2000/svg">
<path opacity="0.6" d="M5.059 28.923H3.538V33H2.791V28.923H1.27V28.293H5.059V28.923ZM10.229 28.293H10.976V33H10.229V28.293ZM6.17901 28.293H6.92601V29.94H7.76301C8.29701 29.94 8.72901 30.06 9.05901 30.3C9.39501 30.54 9.56301 30.918 9.56301 31.434V31.461C9.56301 31.971 9.39501 32.355 9.05901 32.613C8.72301 32.871 8.29101 33 7.76301 33H6.17901V28.293ZM7.80801 32.406C8.16201 32.406 8.41701 32.331 8.57301 32.181C8.73501 32.025 8.81601 31.785 8.81601 31.461V31.434C8.81601 31.134 8.73801 30.909 8.58201 30.759C8.42601 30.603 8.16801 30.525 7.80801 30.525H6.92601V32.406H7.80801ZM14.5866 33.081C13.9146 33.081 13.3626 32.865 12.9306 32.433C12.4986 31.995 12.2826 31.416 12.2826 30.696V30.624C12.2826 29.916 12.5016 29.337 12.9396 28.887C13.3836 28.437 13.9266 28.212 14.5686 28.212C15.1086 28.212 15.5676 28.347 15.9456 28.617C16.3236 28.881 16.5456 29.295 16.6116 29.859H15.8736C15.7656 29.175 15.3306 28.833 14.5686 28.833C14.1306 28.833 13.7676 28.998 13.4796 29.328C13.1976 29.652 13.0566 30.084 13.0566 30.624V30.696C13.0566 31.26 13.1946 31.695 13.4706 32.001C13.7526 32.307 14.1276 32.46 14.5956 32.46C14.9496 32.46 15.2526 32.361 15.5046 32.163C15.7626 31.959 15.9096 31.674 15.9456 31.308H16.6386C16.5906 31.824 16.3746 32.25 15.9906 32.586C15.6126 32.916 15.1446 33.081 14.5866 33.081ZM20.3282 28.293H21.0752V29.085C21.2132 28.845 21.4292 28.641 21.7232 28.473C22.0172 28.299 22.3322 28.212 22.6682 28.212C23.2982 28.212 23.8112 28.425 24.2072 28.851C24.6092 29.277 24.8102 29.853 24.8102 30.579V30.651C24.8102 31.377 24.6122 31.965 24.2162 32.415C23.8262 32.859 23.3102 33.081 22.6682 33.081C21.9482 33.081 21.4172 32.796 21.0752 32.226V34.638H20.3282V28.293ZM22.5962 32.46C23.0642 32.46 23.4212 32.31 23.6672 32.01C23.9132 31.704 24.0362 31.263 24.0362 30.687V30.615C24.0362 30.045 23.8982 29.607 23.6222 29.301C23.3522 28.989 23.0072 28.833 22.5872 28.833C22.1312 28.833 21.7592 28.986 21.4712 29.292C21.1892 29.592 21.0482 30.033 21.0482 30.615V30.687C21.0482 31.269 21.1862 31.71 21.4622 32.01C21.7442 32.31 22.1222 32.46 22.5962 32.46ZM27.2869 32.514L25.4419 28.293H26.2429L27.6829 31.668L28.9879 28.293H29.7529L27.1519 34.638H26.3959L27.2869 32.514ZM32.7976 33.081C32.0896 33.081 31.5286 32.853 31.1146 32.397C30.7006 31.941 30.4936 31.248 30.4936 30.318V30.03C30.4936 29.586 30.5116 29.193 30.5476 28.851C30.5836 28.503 30.6586 28.155 30.7726 27.807C30.8866 27.453 31.0366 27.159 31.2226 26.925C31.4086 26.691 31.6606 26.496 31.9786 26.34C32.3026 26.184 32.6836 26.094 33.1216 26.07L33.3016 26.061C33.9616 26.025 34.4086 25.959 34.6426 25.863L34.7416 26.493C34.4356 26.625 33.9586 26.706 33.3106 26.736L33.1756 26.745C32.4496 26.781 31.9306 27.018 31.6186 27.456C31.3126 27.888 31.1326 28.56 31.0786 29.472H31.1146C31.2766 29.142 31.5166 28.881 31.8346 28.689C32.1586 28.491 32.5336 28.392 32.9596 28.392C33.6136 28.392 34.1356 28.605 34.5256 29.031C34.9216 29.451 35.1196 29.997 35.1196 30.669V30.705C35.1196 31.431 34.9006 32.01 34.4626 32.442C34.0306 32.868 33.4756 33.081 32.7976 33.081ZM31.6726 32.001C31.9486 32.307 32.3266 32.46 32.8066 32.46C33.2866 32.46 33.6616 32.31 33.9316 32.01C34.2076 31.704 34.3456 31.272 34.3456 30.714V30.696C34.3456 30.174 34.2196 29.763 33.9676 29.463C33.7216 29.163 33.3616 29.013 32.8876 29.013C32.3896 29.013 31.9936 29.169 31.6996 29.481C31.4116 29.793 31.2676 30.219 31.2676 30.759V30.777C31.2676 31.287 31.4026 31.695 31.6726 32.001Z" fill="white"/>
<path d="M7.03 149.5H3.45V149.22L6.72 143.85H7.88V148.79H8.87V149.5H7.88V151H7.03V149.5ZM7.03 148.79V144.51L4.55 148.79H7.03ZM11.2814 144.71L9.68141 145.86V145.05L11.3414 143.85H12.1514V151H11.2814V144.71ZM17.0027 150.37C18.2627 150.37 18.8927 149.447 18.8927 147.6V147.2C18.8927 146.367 18.7227 145.703 18.3827 145.21C18.0427 144.71 17.5761 144.46 16.9827 144.46C16.3761 144.46 15.9027 144.7 15.5627 145.18C15.2227 145.66 15.0527 146.34 15.0527 147.22V147.62C15.0527 148.507 15.2261 149.187 15.5727 149.66C15.9194 150.133 16.3961 150.37 17.0027 150.37ZM17.0027 151.09C16.1494 151.09 15.4627 150.773 14.9427 150.14C14.4227 149.507 14.1627 148.67 14.1627 147.63V147.23C14.1627 146.17 14.4127 145.327 14.9127 144.7C15.4194 144.073 16.1094 143.76 16.9827 143.76C17.8494 143.76 18.5294 144.077 19.0227 144.71C19.5227 145.343 19.7727 146.177 19.7727 147.21V147.61C19.7727 148.663 19.5261 149.507 19.0327 150.14C18.5461 150.773 17.8694 151.09 17.0027 151.09Z" fill="white"/>
<path d="M5.03 124.82H1.45V124.54L4.72 119.17H5.88V124.11H6.87V124.82H5.88V126.32H5.03V124.82ZM5.03 124.11V119.83L2.55 124.11H5.03ZM10.2591 126.41C9.51906 126.41 8.9524 126.23 8.55906 125.87C8.16573 125.504 7.93906 125.01 7.87906 124.39H8.70906C8.78906 124.824 8.93906 125.154 9.15906 125.38C9.37906 125.6 9.7424 125.71 10.2491 125.71C10.7357 125.71 11.1191 125.557 11.3991 125.25C11.6791 124.944 11.8191 124.52 11.8191 123.98C11.8191 123.474 11.6824 123.07 11.4091 122.77C11.1424 122.464 10.7791 122.31 10.3191 122.31C9.91906 122.31 9.58906 122.367 9.32906 122.48C9.06906 122.594 8.83573 122.767 8.62906 123H8.30906V119.17H12.3291V119.92H9.02906V122.1C9.3824 121.774 9.86906 121.61 10.4891 121.61C11.1424 121.61 11.6757 121.827 12.0891 122.26C12.5024 122.687 12.7091 123.26 12.7091 123.98C12.7091 124.72 12.4757 125.31 12.0091 125.75C11.5424 126.19 10.9591 126.41 10.2591 126.41ZM16.9266 125.69C18.1866 125.69 18.8166 124.767 18.8166 122.92V122.52C18.8166 121.687 18.6466 121.024 18.3066 120.53C17.9666 120.03 17.4999 119.78 16.9066 119.78C16.2999 119.78 15.8266 120.02 15.4866 120.5C15.1466 120.98 14.9766 121.66 14.9766 122.54V122.94C14.9766 123.827 15.1499 124.507 15.4966 124.98C15.8432 125.454 16.3199 125.69 16.9266 125.69ZM16.9266 126.41C16.0732 126.41 15.3866 126.094 14.8666 125.46C14.3466 124.827 14.0866 123.99 14.0866 122.95V122.55C14.0866 121.49 14.3366 120.647 14.8366 120.02C15.3432 119.394 16.0332 119.08 16.9066 119.08C17.7732 119.08 18.4532 119.397 18.9466 120.03C19.4466 120.664 19.6966 121.497 19.6966 122.53V122.93C19.6966 123.984 19.4499 124.827 18.9566 125.46C18.4699 126.094 17.7932 126.41 16.9266 126.41Z" fill="white"/>
<path d="M3.96 226.492C3.22 226.492 2.62333 226.286 2.17 225.872C1.72333 225.459 1.48667 224.932 1.46 224.292H2.26C2.3 224.746 2.46333 225.109 2.75 225.382C3.03667 225.656 3.44667 225.792 3.98 225.792C4.52667 225.792 4.93333 225.672 5.2 225.432C5.47333 225.186 5.61 224.846 5.61 224.412C5.61 223.486 5.10667 223.022 4.1 223.022H3.56V222.292H4.06C4.95333 222.292 5.4 221.886 5.4 221.072C5.4 220.719 5.29 220.432 5.07 220.212C4.85 219.986 4.52667 219.872 4.1 219.872C3.66 219.872 3.29667 219.996 3.01 220.242C2.73 220.489 2.56667 220.816 2.52 221.222H1.76C1.78667 220.649 2.01667 220.162 2.45 219.762C2.88333 219.362 3.43333 219.162 4.1 219.162C4.75333 219.162 5.27333 219.349 5.66 219.722C6.05333 220.089 6.25 220.532 6.25 221.052C6.25 221.779 5.87333 222.299 5.12 222.612C6.04 222.866 6.5 223.466 6.5 224.412C6.5 225.059 6.26333 225.569 5.79 225.942C5.32333 226.309 4.71333 226.492 3.96 226.492ZM10.1321 226.492C9.39211 226.492 8.82544 226.312 8.43211 225.952C8.03878 225.586 7.81211 225.092 7.75211 224.472H8.58211C8.66211 224.906 8.81211 225.236 9.03211 225.462C9.25211 225.682 9.61544 225.792 10.1221 225.792C10.6088 225.792 10.9921 225.639 11.2721 225.332C11.5521 225.026 11.6921 224.602 11.6921 224.062C11.6921 223.556 11.5554 223.152 11.2821 222.852C11.0154 222.546 10.6521 222.392 10.1921 222.392C9.79211 222.392 9.46211 222.449 9.20211 222.562C8.94211 222.676 8.70878 222.849 8.50211 223.082H8.18211V219.252H12.2021V220.002H8.90211V222.182C9.25544 221.856 9.74211 221.692 10.3621 221.692C11.0154 221.692 11.5488 221.909 11.9621 222.342C12.3754 222.769 12.5821 223.342 12.5821 224.062C12.5821 224.802 12.3488 225.392 11.8821 225.832C11.4154 226.272 10.8321 226.492 10.1321 226.492ZM16.7996 225.772C18.0596 225.772 18.6896 224.849 18.6896 223.002V222.602C18.6896 221.769 18.5196 221.106 18.1796 220.612C17.8396 220.112 17.3729 219.862 16.7796 219.862C16.1729 219.862 15.6996 220.102 15.3596 220.582C15.0196 221.062 14.8496 221.742 14.8496 222.622V223.022C14.8496 223.909 15.0229 224.589 15.3696 225.062C15.7163 225.536 16.1929 225.772 16.7996 225.772ZM16.7996 226.492C15.9463 226.492 15.2596 226.176 14.7396 225.542C14.2196 224.909 13.9596 224.072 13.9596 223.032V222.632C13.9596 221.572 14.2096 220.729 14.7096 220.102C15.2163 219.476 15.9063 219.162 16.7796 219.162C17.6463 219.162 18.3263 219.479 18.8196 220.112C19.3196 220.746 19.5696 221.579 19.5696 222.612V223.012C19.5696 224.066 19.3229 224.909 18.8296 225.542C18.3429 226.176 17.6663 226.492 16.7996 226.492Z" fill="white"/>
<path d="M4.96 201.472C4.22 201.472 3.62333 201.265 3.17 200.852C2.72333 200.439 2.48667 199.912 2.46 199.272H3.26C3.3 199.725 3.46333 200.089 3.75 200.362C4.03667 200.635 4.44667 200.772 4.98 200.772C5.52667 200.772 5.93333 200.652 6.2 200.412C6.47333 200.165 6.61 199.825 6.61 199.392C6.61 198.465 6.10667 198.002 5.1 198.002H4.56V197.272H5.06C5.95333 197.272 6.4 196.865 6.4 196.052C6.4 195.699 6.29 195.412 6.07 195.192C5.85 194.965 5.52667 194.852 5.1 194.852C4.66 194.852 4.29667 194.975 4.01 195.222C3.73 195.469 3.56667 195.795 3.52 196.202H2.76C2.78667 195.629 3.01667 195.142 3.45 194.742C3.88333 194.342 4.43333 194.142 5.1 194.142C5.75333 194.142 6.27333 194.329 6.66 194.702C7.05333 195.069 7.25 195.512 7.25 196.032C7.25 196.759 6.87333 197.279 6.12 197.592C7.04 197.845 7.5 198.445 7.5 199.392C7.5 200.039 7.26333 200.549 6.79 200.922C6.32333 201.289 5.71333 201.472 4.96 201.472ZM12.0182 194.932H8.3882V194.232H13.0982V194.352L10.4182 201.382H9.5282L12.0182 194.932ZM16.8328 200.752C18.0928 200.752 18.7228 199.829 18.7228 197.982V197.582C18.7228 196.749 18.5528 196.085 18.2128 195.592C17.8728 195.092 17.4061 194.842 16.8128 194.842C16.2061 194.842 15.7328 195.082 15.3928 195.562C15.0528 196.042 14.8828 196.722 14.8828 197.602V198.002C14.8828 198.889 15.0561 199.569 15.4028 200.042C15.7495 200.515 16.2261 200.752 16.8328 200.752ZM16.8328 201.472C15.9795 201.472 15.2928 201.155 14.7728 200.522C14.2528 199.889 13.9928 199.052 13.9928 198.012V197.612C13.9928 196.552 14.2428 195.709 14.7428 195.082C15.2495 194.455 15.9395 194.142 16.8128 194.142C17.6795 194.142 18.3595 194.459 18.8528 195.092C19.3528 195.725 19.6028 196.559 19.6028 197.592V197.992C19.6028 199.045 19.3561 199.889 18.8628 200.522C18.3761 201.155 17.6995 201.472 16.8328 201.472Z" fill="white"/>
<path d="M3.96 176.451C3.22 176.451 2.62333 176.245 2.17 175.831C1.72333 175.418 1.48667 174.891 1.46 174.251H2.26C2.3 174.705 2.46333 175.068 2.75 175.341C3.03667 175.615 3.44667 175.751 3.98 175.751C4.52667 175.751 4.93333 175.631 5.2 175.391C5.47333 175.145 5.61 174.805 5.61 174.371C5.61 173.445 5.10667 172.981 4.1 172.981H3.56V172.251H4.06C4.95333 172.251 5.4 171.845 5.4 171.031C5.4 170.678 5.29 170.391 5.07 170.171C4.85 169.945 4.52667 169.831 4.1 169.831C3.66 169.831 3.29667 169.955 3.01 170.201C2.73 170.448 2.56667 170.775 2.52 171.181H1.76C1.78667 170.608 2.01667 170.121 2.45 169.721C2.88333 169.321 3.43333 169.121 4.1 169.121C4.75333 169.121 5.27333 169.308 5.66 169.681C6.05333 170.048 6.25 170.491 6.25 171.011C6.25 171.738 5.87333 172.258 5.12 172.571C6.04 172.825 6.5 173.425 6.5 174.371C6.5 175.018 6.26333 175.528 5.79 175.901C5.32333 176.268 4.71333 176.451 3.96 176.451ZM10.2221 176.441C9.56878 176.441 9.04544 176.281 8.65211 175.961C8.25878 175.641 8.01544 175.188 7.92211 174.601H8.76211C8.84878 174.975 9.00544 175.258 9.23211 175.451C9.46544 175.638 9.80211 175.731 10.2421 175.731C10.8221 175.731 11.2688 175.495 11.5821 175.021C11.8954 174.548 12.0588 173.838 12.0721 172.891C11.8921 173.191 11.6421 173.425 11.3221 173.591C11.0021 173.758 10.6354 173.841 10.2221 173.841C9.52878 173.841 8.96211 173.621 8.52211 173.181C8.08878 172.741 7.87211 172.181 7.87211 171.501C7.87211 170.781 8.09544 170.205 8.54211 169.771C8.98878 169.331 9.58878 169.111 10.3421 169.111C11.1888 169.111 11.8288 169.385 12.2621 169.931C12.6954 170.478 12.9121 171.271 12.9121 172.311V172.761C12.9121 173.955 12.6788 174.868 12.2121 175.501C11.7521 176.128 11.0888 176.441 10.2221 176.441ZM10.3521 173.161C10.8321 173.161 11.2254 173.018 11.5321 172.731C11.8388 172.445 11.9921 172.071 11.9921 171.611C11.9921 171.038 11.8388 170.591 11.5321 170.271C11.2321 169.951 10.8354 169.791 10.3421 169.791C9.87544 169.791 9.49544 169.945 9.20211 170.251C8.90878 170.558 8.76211 170.961 8.76211 171.461C8.76211 171.981 8.90544 172.395 9.19211 172.701C9.47878 173.008 9.86544 173.161 10.3521 173.161ZM17.1805 175.731C18.4405 175.731 19.0705 174.808 19.0705 172.961V172.561C19.0705 171.728 18.9005 171.065 18.5605 170.571C18.2205 170.071 17.7538 169.821 17.1605 169.821C16.5538 169.821 16.0805 170.061 15.7405 170.541C15.4005 171.021 15.2305 171.701 15.2305 172.581V172.981C15.2305 173.868 15.4038 174.548 15.7505 175.021C16.0971 175.495 16.5738 175.731 17.1805 175.731ZM17.1805 176.451C16.3271 176.451 15.6405 176.135 15.1205 175.501C14.6005 174.868 14.3405 174.031 14.3405 172.991V172.591C14.3405 171.531 14.5905 170.688 15.0905 170.061C15.5971 169.435 16.2871 169.121 17.1605 169.121C18.0271 169.121 18.7071 169.438 19.2005 170.071C19.7005 170.705 19.9505 171.538 19.9505 172.571V172.971C19.9505 174.025 19.7038 174.868 19.2105 175.501C18.7238 176.135 18.0471 176.451 17.1805 176.451Z" fill="white"/>
<path d="M5.03 100.5H1.45V100.22L4.72 94.85H5.88V99.79H6.87V100.5H5.88V102H5.03V100.5ZM5.03 99.79V95.51L2.55 99.79H5.03ZM10.6191 102.09C8.90573 102.09 8.04906 101.007 8.04906 98.84V98.67C8.04906 97.4167 8.3024 96.4533 8.80906 95.78C9.3224 95.1 10.0024 94.76 10.8491 94.76C11.4224 94.76 11.8891 94.9067 12.2491 95.2C12.6157 95.4933 12.8457 95.9233 12.9391 96.49H12.1091C12.0291 96.1433 11.8857 95.8867 11.6791 95.72C11.4724 95.5533 11.1757 95.47 10.7891 95.47C10.2357 95.47 9.78906 95.7167 9.44906 96.21C9.10906 96.7033 8.92906 97.41 8.90906 98.33C9.29573 97.6833 9.90906 97.36 10.7491 97.36C11.4491 97.36 12.0124 97.5833 12.4391 98.03C12.8724 98.47 13.0891 99.0267 13.0891 99.7C13.0891 100.42 12.8657 101 12.4191 101.44C11.9724 101.873 11.3724 102.09 10.6191 102.09ZM10.6191 101.41C11.0857 101.41 11.4657 101.257 11.7591 100.95C12.0524 100.643 12.1991 100.24 12.1991 99.74C12.1991 99.22 12.0557 98.8067 11.7691 98.5C11.4824 98.1933 11.0957 98.04 10.6091 98.04C10.1291 98.04 9.73573 98.1867 9.42906 98.48C9.1224 98.7733 8.96906 99.1533 8.96906 99.62C8.96906 100.187 9.11906 100.627 9.41906 100.94C9.72573 101.253 10.1257 101.41 10.6191 101.41ZM17.2488 101.37C18.5088 101.37 19.1388 100.447 19.1388 98.6V98.2C19.1388 97.3667 18.9688 96.7033 18.6288 96.21C18.2888 95.71 17.8222 95.46 17.2288 95.46C16.6222 95.46 16.1488 95.7 15.8088 96.18C15.4688 96.66 15.2988 97.34 15.2988 98.22V98.62C15.2988 99.5067 15.4722 100.187 15.8188 100.66C16.1655 101.133 16.6422 101.37 17.2488 101.37ZM17.2488 102.09C16.3955 102.09 15.7088 101.773 15.1888 101.14C14.6688 100.507 14.4088 99.67 14.4088 98.63V98.23C14.4088 97.17 14.6588 96.3267 15.1588 95.7C15.6655 95.0733 16.3555 94.76 17.2288 94.76C18.0955 94.76 18.7755 95.0767 19.2688 95.71C19.7688 96.3433 20.0188 97.1767 20.0188 98.21V98.61C20.0188 99.6633 19.7722 100.507 19.2788 101.14C18.7922 101.773 18.1155 102.09 17.2488 102.09Z" fill="white"/>
<path d="M2.87 78.09C2.13 78.09 1.56333 77.91 1.17 77.55C0.776667 77.1833 0.55 76.69 0.49 76.07H1.32C1.4 76.5033 1.55 76.8333 1.77 77.06C1.99 77.28 2.35333 77.39 2.86 77.39C3.34667 77.39 3.73 77.2367 4.01 76.93C4.29 76.6233 4.43 76.2 4.43 75.66C4.43 75.1533 4.29333 74.75 4.02 74.45C3.75333 74.1433 3.39 73.99 2.93 73.99C2.53 73.99 2.2 74.0467 1.94 74.16C1.68 74.2733 1.44667 74.4467 1.24 74.68H0.92V70.85H4.94V71.6H1.64V73.78C1.99333 73.4533 2.48 73.29 3.1 73.29C3.75333 73.29 4.28667 73.5067 4.7 73.94C5.11333 74.3667 5.32 74.94 5.32 75.66C5.32 76.4 5.08667 76.99 4.62 77.43C4.15333 77.87 3.57 78.09 2.87 78.09ZM9.5375 77.37C10.7975 77.37 11.4275 76.4467 11.4275 74.6V74.2C11.4275 73.3667 11.2575 72.7033 10.9175 72.21C10.5775 71.71 10.1108 71.46 9.5175 71.46C8.91083 71.46 8.4375 71.7 8.0975 72.18C7.7575 72.66 7.5875 73.34 7.5875 74.22V74.62C7.5875 75.5067 7.76083 76.1867 8.1075 76.66C8.45417 77.1333 8.93083 77.37 9.5375 77.37ZM9.5375 78.09C8.68417 78.09 7.9975 77.7733 7.4775 77.14C6.9575 76.5067 6.6975 75.67 6.6975 74.63V74.23C6.6975 73.17 6.9475 72.3267 7.4475 71.7C7.95417 71.0733 8.64417 70.76 9.5175 70.76C10.3842 70.76 11.0642 71.0767 11.5575 71.71C12.0575 72.3433 12.3075 73.1767 12.3075 74.21V74.61C12.3075 75.6633 12.0608 76.5067 11.5675 77.14C11.0808 77.7733 10.4042 78.09 9.5375 78.09ZM16.5711 77.37C17.8311 77.37 18.4611 76.4467 18.4611 74.6V74.2C18.4611 73.3667 18.2911 72.7033 17.9511 72.21C17.6111 71.71 17.1444 71.46 16.5511 71.46C15.9444 71.46 15.4711 71.7 15.1311 72.18C14.7911 72.66 14.6211 73.34 14.6211 74.22V74.62C14.6211 75.5067 14.7944 76.1867 15.1411 76.66C15.4878 77.1333 15.9644 77.37 16.5711 77.37ZM16.5711 78.09C15.7178 78.09 15.0311 77.7733 14.5111 77.14C13.9911 76.5067 13.7311 75.67 13.7311 74.63V74.23C13.7311 73.17 13.9811 72.3267 14.4811 71.7C14.9878 71.0733 15.6778 70.76 16.5511 70.76C17.4178 70.76 18.0978 71.0767 18.5911 71.71C19.0911 72.3433 19.3411 73.1767 19.3411 74.21V74.61C19.3411 75.6633 19.0944 76.5067 18.6011 77.14C18.1144 77.7733 17.4378 78.09 16.5711 78.09Z" fill="white"/>
<path opacity="0.6" d="M290.763 269.081C290.091 269.081 289.539 268.865 289.107 268.433C288.675 267.995 288.459 267.416 288.459 266.696V266.624C288.459 265.916 288.678 265.337 289.116 264.887C289.56 264.437 290.103 264.212 290.745 264.212C291.285 264.212 291.744 264.347 292.122 264.617C292.5 264.881 292.722 265.295 292.788 265.859H292.05C291.942 265.175 291.507 264.833 290.745 264.833C290.307 264.833 289.944 264.998 289.656 265.328C289.374 265.652 289.233 266.084 289.233 266.624V266.696C289.233 267.26 289.371 267.695 289.647 268.001C289.929 268.307 290.304 268.46 290.772 268.46C291.126 268.46 291.429 268.361 291.681 268.163C291.939 267.959 292.086 267.674 292.122 267.308H292.815C292.767 267.824 292.551 268.25 292.167 268.586C291.789 268.916 291.321 269.081 290.763 269.081ZM295.959 269.081C295.287 269.081 294.738 268.862 294.312 268.424C293.892 267.986 293.682 267.41 293.682 266.696V266.624C293.682 265.916 293.886 265.337 294.294 264.887C294.708 264.437 295.239 264.212 295.887 264.212C296.487 264.212 296.988 264.407 297.39 264.797C297.798 265.181 298.002 265.766 298.002 266.552V266.795H294.456C294.492 267.905 294.996 268.46 295.968 268.46C296.706 268.46 297.123 268.187 297.219 267.641H297.966C297.882 268.109 297.663 268.466 297.309 268.712C296.955 268.958 296.505 269.081 295.959 269.081ZM297.237 266.192C297.171 265.286 296.721 264.833 295.887 264.833C295.509 264.833 295.197 264.953 294.951 265.193C294.705 265.433 294.549 265.766 294.483 266.192H297.237ZM302.244 266.903H299.931V269H299.184V264.293H299.931V266.273H302.244V264.293H302.991V269H302.244V266.903ZM307.894 264.923H306.373V269H305.626V264.923H304.105V264.293H307.894V264.923ZM310.58 264.887C309.908 264.887 309.572 265.172 309.572 265.742V265.769C309.572 266.039 309.65 266.243 309.806 266.381C309.962 266.519 310.22 266.588 310.58 266.588H311.462V264.887H310.58ZM309.338 269H308.483L309.914 267.029C309.188 266.879 308.825 266.459 308.825 265.769V265.742C308.825 265.25 308.993 264.887 309.329 264.653C309.665 264.413 310.097 264.293 310.625 264.293H312.209V269H311.462V267.155H310.652L309.338 269ZM315.84 269.081C315.132 269.081 314.571 268.853 314.157 268.397C313.743 267.941 313.536 267.248 313.536 266.318V266.03C313.536 265.586 313.554 265.193 313.59 264.851C313.626 264.503 313.701 264.155 313.815 263.807C313.929 263.453 314.079 263.159 314.265 262.925C314.451 262.691 314.703 262.496 315.021 262.34C315.345 262.184 315.726 262.094 316.164 262.07L316.344 262.061C317.004 262.025 317.451 261.959 317.685 261.863L317.784 262.493C317.478 262.625 317.001 262.706 316.353 262.736L316.218 262.745C315.492 262.781 314.973 263.018 314.661 263.456C314.355 263.888 314.175 264.56 314.121 265.472H314.157C314.319 265.142 314.559 264.881 314.877 264.689C315.201 264.491 315.576 264.392 316.002 264.392C316.656 264.392 317.178 264.605 317.568 265.031C317.964 265.451 318.162 265.997 318.162 266.669V266.705C318.162 267.431 317.943 268.01 317.505 268.442C317.073 268.868 316.518 269.081 315.84 269.081ZM314.715 268.001C314.991 268.307 315.369 268.46 315.849 268.46C316.329 268.46 316.704 268.31 316.974 268.01C317.25 267.704 317.388 267.272 317.388 266.714V266.696C317.388 266.174 317.262 265.763 317.01 265.463C316.764 265.163 316.404 265.013 315.93 265.013C315.432 265.013 315.036 265.169 314.742 265.481C314.454 265.793 314.31 266.219 314.31 266.759V266.777C314.31 267.287 314.445 267.695 314.715 268.001ZM319.47 264.293H320.217V265.085C320.355 264.845 320.571 264.641 320.865 264.473C321.159 264.299 321.474 264.212 321.81 264.212C322.44 264.212 322.953 264.425 323.349 264.851C323.751 265.277 323.952 265.853 323.952 266.579V266.651C323.952 267.377 323.754 267.965 323.358 268.415C322.968 268.859 322.452 269.081 321.81 269.081C321.09 269.081 320.559 268.796 320.217 268.226V270.638H319.47V264.293ZM321.738 268.46C322.206 268.46 322.563 268.31 322.809 268.01C323.055 267.704 323.178 267.263 323.178 266.687V266.615C323.178 266.045 323.04 265.607 322.764 265.301C322.494 264.989 322.149 264.833 321.729 264.833C321.273 264.833 320.901 264.986 320.613 265.292C320.331 265.592 320.19 266.033 320.19 266.615V266.687C320.19 267.269 320.328 267.71 320.604 268.01C320.886 268.31 321.264 268.46 321.738 268.46ZM325.149 264.293H325.896V265.94H326.733C327.261 265.94 327.693 266.069 328.029 266.327C328.365 266.585 328.533 266.969 328.533 267.479V267.506C328.533 268.022 328.365 268.4 328.029 268.64C327.699 268.88 327.267 269 326.733 269H325.149V264.293ZM326.778 268.415C327.138 268.415 327.396 268.34 327.552 268.19C327.708 268.034 327.786 267.806 327.786 267.506V267.479C327.786 267.155 327.705 266.918 327.543 266.768C327.387 266.612 327.132 266.534 326.778 266.534H325.896V268.415H326.778Z" fill="white"/>
<path d="M288.25 283.8L291.09 280.81C291.777 280.083 292.12 279.393 292.12 278.74C292.12 278.34 292.007 278.027 291.78 277.8C291.56 277.573 291.247 277.46 290.84 277.46C289.973 277.46 289.47 277.99 289.33 279.05H288.52C288.573 278.343 288.803 277.787 289.21 277.38C289.623 276.967 290.167 276.76 290.84 276.76C291.5 276.76 292.023 276.943 292.41 277.31C292.803 277.67 293 278.157 293 278.77C293 279.557 292.52 280.423 291.56 281.37L289.59 283.29H293.04V284H288.25V283.8ZM297.215 283.37C298.475 283.37 299.105 282.447 299.105 280.6V280.2C299.105 279.367 298.935 278.703 298.595 278.21C298.255 277.71 297.789 277.46 297.195 277.46C296.589 277.46 296.115 277.7 295.775 278.18C295.435 278.66 295.265 279.34 295.265 280.22V280.62C295.265 281.507 295.439 282.187 295.785 282.66C296.132 283.133 296.609 283.37 297.215 283.37ZM297.215 284.09C296.362 284.09 295.675 283.773 295.155 283.14C294.635 282.507 294.375 281.67 294.375 280.63V280.23C294.375 279.17 294.625 278.327 295.125 277.7C295.632 277.073 296.322 276.76 297.195 276.76C298.062 276.76 298.742 277.077 299.235 277.71C299.735 278.343 299.985 279.177 299.985 280.21V280.61C299.985 281.663 299.739 282.507 299.245 283.14C298.759 283.773 298.082 284.09 297.215 284.09ZM300.999 283.8L303.839 280.81C304.525 280.083 304.869 279.393 304.869 278.74C304.869 278.34 304.755 278.027 304.529 277.8C304.309 277.573 303.995 277.46 303.589 277.46C302.722 277.46 302.219 277.99 302.079 279.05H301.269C301.322 278.343 301.552 277.787 301.959 277.38C302.372 276.967 302.915 276.76 303.589 276.76C304.249 276.76 304.772 276.943 305.159 277.31C305.552 277.67 305.749 278.157 305.749 278.77C305.749 279.557 305.269 280.423 304.309 281.37L302.339 283.29H305.789V284H300.999V283.8ZM309.964 283.37C311.224 283.37 311.854 282.447 311.854 280.6V280.2C311.854 279.367 311.684 278.703 311.344 278.21C311.004 277.71 310.537 277.46 309.944 277.46C309.337 277.46 308.864 277.7 308.524 278.18C308.184 278.66 308.014 279.34 308.014 280.22V280.62C308.014 281.507 308.187 282.187 308.534 282.66C308.881 283.133 309.357 283.37 309.964 283.37ZM309.964 284.09C309.111 284.09 308.424 283.773 307.904 283.14C307.384 282.507 307.124 281.67 307.124 280.63V280.23C307.124 279.17 307.374 278.327 307.874 277.7C308.381 277.073 309.071 276.76 309.944 276.76C310.811 276.76 311.491 277.077 311.984 277.71C312.484 278.343 312.734 279.177 312.734 280.21V280.61C312.734 281.663 312.487 282.507 311.994 283.14C311.507 283.773 310.831 284.09 309.964 284.09Z" fill="white"/>
<path opacity="0.6" d="M194.989 269.081C194.527 269.081 194.149 268.967 193.855 268.739C193.567 268.505 193.423 268.157 193.423 267.695C193.423 267.437 193.486 267.212 193.612 267.02C193.744 266.822 193.924 266.669 194.152 266.561C194.38 266.447 194.629 266.366 194.899 266.318C195.169 266.264 195.463 266.237 195.781 266.237H196.456V265.895C196.456 265.517 196.378 265.247 196.222 265.085C196.066 264.917 195.808 264.833 195.448 264.833C194.8 264.833 194.44 265.115 194.368 265.679H193.621C193.669 265.175 193.864 264.806 194.206 264.572C194.554 264.332 194.98 264.212 195.484 264.212C196.63 264.212 197.203 264.773 197.203 265.895V269H196.456V268.406C196.096 268.856 195.607 269.081 194.989 269.081ZM195.061 268.487C195.469 268.487 195.802 268.388 196.06 268.19C196.324 267.986 196.456 267.707 196.456 267.353V266.768H195.808C194.716 266.768 194.17 267.077 194.17 267.695C194.17 268.223 194.467 268.487 195.061 268.487ZM198.706 264.293H200.353C201.457 264.293 202.009 264.692 202.009 265.49V265.517C202.009 265.745 201.946 265.955 201.82 266.147C201.694 266.333 201.505 266.459 201.253 266.525C201.907 266.669 202.234 267.023 202.234 267.587V267.614C202.234 268.07 202.084 268.415 201.784 268.649C201.49 268.883 201.079 269 200.551 269H198.706V264.293ZM199.453 264.887V266.282H200.353C200.665 266.282 200.887 266.225 201.019 266.111C201.157 265.997 201.226 265.811 201.226 265.553V265.526C201.226 265.286 201.154 265.121 201.01 265.031C200.872 264.935 200.65 264.887 200.344 264.887H199.453ZM199.453 266.876V268.406H200.479C200.809 268.406 201.052 268.349 201.208 268.235C201.37 268.115 201.451 267.923 201.451 267.659V267.632C201.451 267.368 201.37 267.176 201.208 267.056C201.052 266.936 200.809 266.876 200.479 266.876H199.453ZM204.263 264.923V269H203.516V264.293H206.504V264.923H204.263ZM209.123 268.514L207.278 264.293H208.079L209.519 267.668L210.824 264.293H211.589L208.988 270.638H208.232L209.123 268.514ZM214.483 269.081C213.811 269.081 213.259 268.865 212.827 268.433C212.395 267.995 212.179 267.416 212.179 266.696V266.624C212.179 265.916 212.398 265.337 212.836 264.887C213.28 264.437 213.823 264.212 214.465 264.212C215.005 264.212 215.464 264.347 215.842 264.617C216.22 264.881 216.442 265.295 216.508 265.859H215.77C215.662 265.175 215.227 264.833 214.465 264.833C214.027 264.833 213.664 264.998 213.376 265.328C213.094 265.652 212.953 266.084 212.953 266.624V266.696C212.953 267.26 213.091 267.695 213.367 268.001C213.649 268.307 214.024 268.46 214.492 268.46C214.846 268.46 215.149 268.361 215.401 268.163C215.659 267.959 215.806 267.674 215.842 267.308H216.535C216.487 267.824 216.271 268.25 215.887 268.586C215.509 268.916 215.041 269.081 214.483 269.081ZM221.002 264.923H219.481V269H218.734V264.923H217.213V264.293H221.002V264.923Z" fill="white"/>
<path d="M193.25 283.8L196.09 280.81C196.777 280.083 197.12 279.393 197.12 278.74C197.12 278.34 197.007 278.027 196.78 277.8C196.56 277.573 196.247 277.46 195.84 277.46C194.973 277.46 194.47 277.99 194.33 279.05H193.52C193.573 278.343 193.803 277.787 194.21 277.38C194.623 276.967 195.167 276.76 195.84 276.76C196.5 276.76 197.023 276.943 197.41 277.31C197.803 277.67 198 278.157 198 278.77C198 279.557 197.52 280.423 196.56 281.37L194.59 283.29H198.04V284H193.25V283.8ZM202.215 283.37C203.475 283.37 204.105 282.447 204.105 280.6V280.2C204.105 279.367 203.935 278.703 203.595 278.21C203.255 277.71 202.789 277.46 202.195 277.46C201.589 277.46 201.115 277.7 200.775 278.18C200.435 278.66 200.265 279.34 200.265 280.22V280.62C200.265 281.507 200.439 282.187 200.785 282.66C201.132 283.133 201.609 283.37 202.215 283.37ZM202.215 284.09C201.362 284.09 200.675 283.773 200.155 283.14C199.635 282.507 199.375 281.67 199.375 280.63V280.23C199.375 279.17 199.625 278.327 200.125 277.7C200.632 277.073 201.322 276.76 202.195 276.76C203.062 276.76 203.742 277.077 204.235 277.71C204.735 278.343 204.985 279.177 204.985 280.21V280.61C204.985 281.663 204.739 282.507 204.245 283.14C203.759 283.773 203.082 284.09 202.215 284.09ZM205.999 283.8L208.839 280.81C209.525 280.083 209.869 279.393 209.869 278.74C209.869 278.34 209.755 278.027 209.529 277.8C209.309 277.573 208.995 277.46 208.589 277.46C207.722 277.46 207.219 277.99 207.079 279.05H206.269C206.322 278.343 206.552 277.787 206.959 277.38C207.372 276.967 207.915 276.76 208.589 276.76C209.249 276.76 209.772 276.943 210.159 277.31C210.552 277.67 210.749 278.157 210.749 278.77C210.749 279.557 210.269 280.423 209.309 281.37L207.339 283.29H210.789V284H205.999V283.8ZM214.964 283.37C216.224 283.37 216.854 282.447 216.854 280.6V280.2C216.854 279.367 216.684 278.703 216.344 278.21C216.004 277.71 215.537 277.46 214.944 277.46C214.337 277.46 213.864 277.7 213.524 278.18C213.184 278.66 213.014 279.34 213.014 280.22V280.62C213.014 281.507 213.187 282.187 213.534 282.66C213.881 283.133 214.357 283.37 214.964 283.37ZM214.964 284.09C214.111 284.09 213.424 283.773 212.904 283.14C212.384 282.507 212.124 281.67 212.124 280.63V280.23C212.124 279.17 212.374 278.327 212.874 277.7C213.381 277.073 214.071 276.76 214.944 276.76C215.811 276.76 216.491 277.077 216.984 277.71C217.484 278.343 217.734 279.177 217.734 280.21V280.61C217.734 281.663 217.487 282.507 216.994 283.14C216.507 283.773 215.831 284.09 214.964 284.09Z" fill="white"/>
<path opacity="0.6" d="M98.763 269.081C98.091 269.081 97.539 268.865 97.107 268.433C96.675 267.995 96.459 267.416 96.459 266.696V266.624C96.459 265.916 96.678 265.337 97.116 264.887C97.56 264.437 98.103 264.212 98.745 264.212C99.285 264.212 99.744 264.347 100.122 264.617C100.5 264.881 100.722 265.295 100.788 265.859H100.05C99.942 265.175 99.507 264.833 98.745 264.833C98.307 264.833 97.944 264.998 97.656 265.328C97.374 265.652 97.233 266.084 97.233 266.624V266.696C97.233 267.26 97.371 267.695 97.647 268.001C97.929 268.307 98.304 268.46 98.772 268.46C99.126 268.46 99.429 268.361 99.681 268.163C99.939 267.959 100.086 267.674 100.122 267.308H100.815C100.767 267.824 100.551 268.25 100.167 268.586C99.789 268.916 99.321 269.081 98.763 269.081ZM105.282 264.923H103.761V269H103.014V264.923H101.493V264.293H105.282V264.923ZM107.591 269.081C107.129 269.081 106.751 268.967 106.457 268.739C106.169 268.505 106.025 268.157 106.025 267.695C106.025 267.437 106.088 267.212 106.214 267.02C106.346 266.822 106.526 266.669 106.754 266.561C106.982 266.447 107.231 266.366 107.501 266.318C107.771 266.264 108.065 266.237 108.383 266.237H109.058V265.895C109.058 265.517 108.98 265.247 108.824 265.085C108.668 264.917 108.41 264.833 108.05 264.833C107.402 264.833 107.042 265.115 106.97 265.679H106.223C106.271 265.175 106.466 264.806 106.808 264.572C107.156 264.332 107.582 264.212 108.086 264.212C109.232 264.212 109.805 264.773 109.805 265.895V269H109.058V268.406C108.698 268.856 108.209 269.081 107.591 269.081ZM107.663 268.487C108.071 268.487 108.404 268.388 108.662 268.19C108.926 267.986 109.058 267.707 109.058 267.353V266.768H108.41C107.318 266.768 106.772 267.077 106.772 267.695C106.772 268.223 107.069 268.487 107.663 268.487ZM111.362 264.293H112.109V265.085C112.247 264.845 112.463 264.641 112.757 264.473C113.051 264.299 113.366 264.212 113.702 264.212C114.332 264.212 114.845 264.425 115.241 264.851C115.643 265.277 115.844 265.853 115.844 266.579V266.651C115.844 267.377 115.646 267.965 115.25 268.415C114.86 268.859 114.344 269.081 113.702 269.081C112.982 269.081 112.451 268.796 112.109 268.226V270.638H111.362V264.293ZM113.63 268.46C114.098 268.46 114.455 268.31 114.701 268.01C114.947 267.704 115.07 267.263 115.07 266.687V266.615C115.07 266.045 114.932 265.607 114.656 265.301C114.386 264.989 114.041 264.833 113.621 264.833C113.165 264.833 112.793 264.986 112.505 265.292C112.223 265.592 112.082 266.033 112.082 266.615V266.687C112.082 267.269 112.22 267.71 112.496 268.01C112.778 268.31 113.156 268.46 113.63 268.46ZM120.256 264.923H118.735V269H117.988V264.923H116.467V264.293H120.256V264.923Z" fill="white"/>
<path d="M100.14 279.47H97.67V284H96.84V278.77H100.97V284H100.14V279.47ZM102.811 278.77H103.641V279.65C103.794 279.383 104.034 279.157 104.361 278.97C104.687 278.777 105.037 278.68 105.411 278.68C106.111 278.68 106.681 278.917 107.121 279.39C107.567 279.863 107.791 280.503 107.791 281.31V281.39C107.791 282.197 107.571 282.85 107.131 283.35C106.697 283.843 106.124 284.09 105.411 284.09C104.611 284.09 104.021 283.773 103.641 283.14V285.82H102.811V278.77ZM105.331 283.4C105.851 283.4 106.247 283.233 106.521 282.9C106.794 282.56 106.931 282.07 106.931 281.43V281.35C106.931 280.717 106.777 280.23 106.471 279.89C106.171 279.543 105.787 279.37 105.321 279.37C104.814 279.37 104.401 279.54 104.081 279.88C103.767 280.213 103.611 280.703 103.611 281.35V281.43C103.611 282.077 103.764 282.567 104.071 282.9C104.384 283.233 104.804 283.4 105.331 283.4ZM111.36 283.4C111.88 283.4 112.293 283.22 112.6 282.86C112.913 282.5 113.07 282.023 113.07 281.43V281.36C113.07 280.753 112.913 280.27 112.6 279.91C112.293 279.55 111.88 279.37 111.36 279.37C110.833 279.37 110.417 279.55 110.11 279.91C109.803 280.27 109.65 280.75 109.65 281.35V281.43C109.65 282.037 109.8 282.517 110.1 282.87C110.407 283.223 110.827 283.4 111.36 283.4ZM111.35 284.09C110.61 284.09 109.997 283.84 109.51 283.34C109.03 282.833 108.79 282.197 108.79 281.43V281.35C108.79 280.57 109.03 279.93 109.51 279.43C109.997 278.93 110.613 278.68 111.36 278.68C112.107 278.68 112.72 278.93 113.2 279.43C113.687 279.923 113.93 280.56 113.93 281.34V281.42C113.93 282.207 113.687 282.85 113.2 283.35C112.713 283.843 112.097 284.09 111.35 284.09ZM116.129 281.98C116.055 282.593 115.942 283.033 115.789 283.3H118.239V279.45H116.319C116.285 280.263 116.222 281.107 116.129 281.98ZM115.089 285.27H114.419V283.3H114.789C114.975 283.253 115.105 283.12 115.179 282.9C115.252 282.673 115.315 282.35 115.369 281.93C115.429 281.39 115.485 280.71 115.539 279.89C115.565 279.523 115.585 279.15 115.599 278.77H119.049V283.3H119.849V285.27H119.179L119.119 284H115.149L115.089 285.27ZM122.36 284.09C121.847 284.09 121.427 283.963 121.1 283.71C120.78 283.45 120.62 283.063 120.62 282.55C120.62 282.263 120.69 282.013 120.83 281.8C120.977 281.58 121.177 281.41 121.43 281.29C121.683 281.163 121.96 281.073 122.26 281.02C122.56 280.96 122.887 280.93 123.24 280.93H123.99V280.55C123.99 280.13 123.903 279.83 123.73 279.65C123.557 279.463 123.27 279.37 122.87 279.37C122.15 279.37 121.75 279.683 121.67 280.31H120.84C120.893 279.75 121.11 279.34 121.49 279.08C121.877 278.813 122.35 278.68 122.91 278.68C124.183 278.68 124.82 279.303 124.82 280.55V284H123.99V283.34C123.59 283.84 123.047 284.09 122.36 284.09ZM122.44 283.43C122.893 283.43 123.263 283.32 123.55 283.1C123.843 282.873 123.99 282.563 123.99 282.17V281.52H123.27C122.057 281.52 121.45 281.863 121.45 282.55C121.45 283.137 121.78 283.43 122.44 283.43ZM128.79 281.31L126.77 284H125.84L127.97 281.22L126.03 278.77H126.92L128.79 281.23V278.77H129.6V281.23L131.47 278.77H132.37L130.43 281.22L132.56 284H131.62L129.6 281.31V284H128.79V281.31Z" fill="white"/>
<path opacity="0.6" d="M388.515 268.52C388.983 268.52 389.355 268.358 389.631 268.034C389.913 267.71 390.054 267.281 390.054 266.747V266.684C390.054 266.138 389.913 265.703 389.631 265.379C389.355 265.055 388.983 264.893 388.515 264.893C388.041 264.893 387.666 265.055 387.39 265.379C387.114 265.703 386.976 266.135 386.976 266.675V266.747C386.976 267.293 387.111 267.725 387.381 268.043C387.657 268.361 388.035 268.52 388.515 268.52ZM388.506 269.141C387.84 269.141 387.288 268.916 386.85 268.466C386.418 268.01 386.202 267.437 386.202 266.747V266.675C386.202 265.973 386.418 265.397 386.85 264.947C387.288 264.497 387.843 264.272 388.515 264.272C389.187 264.272 389.739 264.497 390.171 264.947C390.609 265.391 390.828 265.964 390.828 266.666V266.738C390.828 267.446 390.609 268.025 390.171 268.475C389.733 268.919 389.178 269.141 388.506 269.141ZM392.768 266.657V269.06H392.021V264.353H392.768V266.549L394.721 264.353H395.594L393.578 266.567L395.765 269.06H394.856L392.768 266.657ZM400.054 264.983H398.533V269.06H397.786V264.983H396.265V264.353H400.054V264.983ZM402.74 264.947C402.068 264.947 401.732 265.232 401.732 265.802V265.829C401.732 266.099 401.81 266.303 401.966 266.441C402.122 266.579 402.38 266.648 402.74 266.648H403.622V264.947H402.74ZM401.498 269.06H400.643L402.074 267.089C401.348 266.939 400.985 266.519 400.985 265.829V265.802C400.985 265.31 401.153 264.947 401.489 264.713C401.825 264.473 402.257 264.353 402.785 264.353H404.369V269.06H403.622V267.215H402.812L401.498 269.06ZM408 269.141C407.292 269.141 406.731 268.913 406.317 268.457C405.903 268.001 405.696 267.308 405.696 266.378V266.09C405.696 265.646 405.714 265.253 405.75 264.911C405.786 264.563 405.861 264.215 405.975 263.867C406.089 263.513 406.239 263.219 406.425 262.985C406.611 262.751 406.863 262.556 407.181 262.4C407.505 262.244 407.886 262.154 408.324 262.13L408.504 262.121C409.164 262.085 409.611 262.019 409.845 261.923L409.944 262.553C409.638 262.685 409.161 262.766 408.513 262.796L408.378 262.805C407.652 262.841 407.133 263.078 406.821 263.516C406.515 263.948 406.335 264.62 406.281 265.532H406.317C406.479 265.202 406.719 264.941 407.037 264.749C407.361 264.551 407.736 264.452 408.162 264.452C408.816 264.452 409.338 264.665 409.728 265.091C410.124 265.511 410.322 266.057 410.322 266.729V266.765C410.322 267.491 410.103 268.07 409.665 268.502C409.233 268.928 408.678 269.141 408 269.141ZM406.875 268.061C407.151 268.367 407.529 268.52 408.009 268.52C408.489 268.52 408.864 268.37 409.134 268.07C409.41 267.764 409.548 267.332 409.548 266.774V266.756C409.548 266.234 409.422 265.823 409.17 265.523C408.924 265.223 408.564 265.073 408.09 265.073C407.592 265.073 407.196 265.229 406.902 265.541C406.614 265.853 406.47 266.279 406.47 266.819V266.837C406.47 267.347 406.605 267.755 406.875 268.061ZM411.63 264.353H412.377V265.145C412.515 264.905 412.731 264.701 413.025 264.533C413.319 264.359 413.634 264.272 413.97 264.272C414.6 264.272 415.113 264.485 415.509 264.911C415.911 265.337 416.112 265.913 416.112 266.639V266.711C416.112 267.437 415.914 268.025 415.518 268.475C415.128 268.919 414.612 269.141 413.97 269.141C413.25 269.141 412.719 268.856 412.377 268.286V270.698H411.63V264.353ZM413.898 268.52C414.366 268.52 414.723 268.37 414.969 268.07C415.215 267.764 415.338 267.323 415.338 266.747V266.675C415.338 266.105 415.2 265.667 414.924 265.361C414.654 265.049 414.309 264.893 413.889 264.893C413.433 264.893 413.061 265.046 412.773 265.352C412.491 265.652 412.35 266.093 412.35 266.675V266.747C412.35 267.329 412.488 267.77 412.764 268.07C413.046 268.37 413.424 268.52 413.898 268.52ZM417.309 264.353H418.056V266H418.893C419.421 266 419.853 266.129 420.189 266.387C420.525 266.645 420.693 267.029 420.693 267.539V267.566C420.693 268.082 420.525 268.46 420.189 268.7C419.859 268.94 419.427 269.06 418.893 269.06H417.309V264.353ZM418.938 268.475C419.298 268.475 419.556 268.4 419.712 268.25C419.868 268.094 419.946 267.866 419.946 267.566V267.539C419.946 267.215 419.865 266.978 419.703 266.828C419.547 266.672 419.292 266.594 418.938 266.594H418.056V268.475H418.938Z" fill="white"/>
<path d="M385.852 283.71L388.692 280.72C389.379 279.993 389.722 279.303 389.722 278.65C389.722 278.25 389.609 277.937 389.382 277.71C389.162 277.483 388.849 277.37 388.442 277.37C387.576 277.37 387.072 277.9 386.932 278.96H386.122C386.176 278.253 386.406 277.697 386.812 277.29C387.226 276.877 387.769 276.67 388.442 276.67C389.102 276.67 389.626 276.853 390.012 277.22C390.406 277.58 390.602 278.067 390.602 278.68C390.602 279.467 390.122 280.333 389.162 281.28L387.192 283.2H390.642V283.91H385.852V283.71ZM394.818 283.28C396.078 283.28 396.708 282.357 396.708 280.51V280.11C396.708 279.277 396.538 278.613 396.198 278.12C395.858 277.62 395.391 277.37 394.798 277.37C394.191 277.37 393.718 277.61 393.378 278.09C393.038 278.57 392.868 279.25 392.868 280.13V280.53C392.868 281.417 393.041 282.097 393.388 282.57C393.734 283.043 394.211 283.28 394.818 283.28ZM394.818 284C393.964 284 393.278 283.683 392.758 283.05C392.238 282.417 391.978 281.58 391.978 280.54V280.14C391.978 279.08 392.228 278.237 392.728 277.61C393.234 276.983 393.924 276.67 394.798 276.67C395.664 276.67 396.344 276.987 396.838 277.62C397.338 278.253 397.588 279.087 397.588 280.12V280.52C397.588 281.573 397.341 282.417 396.848 283.05C396.361 283.683 395.684 284 394.818 284ZM398.601 283.71L401.441 280.72C402.128 279.993 402.471 279.303 402.471 278.65C402.471 278.25 402.358 277.937 402.131 277.71C401.911 277.483 401.598 277.37 401.191 277.37C400.325 277.37 399.821 277.9 399.681 278.96H398.871C398.925 278.253 399.155 277.697 399.561 277.29C399.975 276.877 400.518 276.67 401.191 276.67C401.851 276.67 402.375 276.853 402.761 277.22C403.155 277.58 403.351 278.067 403.351 278.68C403.351 279.467 402.871 280.333 401.911 281.28L399.941 283.2H403.391V283.91H398.601V283.71ZM407.566 283.28C408.826 283.28 409.456 282.357 409.456 280.51V280.11C409.456 279.277 409.286 278.613 408.946 278.12C408.606 277.62 408.14 277.37 407.546 277.37C406.94 277.37 406.466 277.61 406.126 278.09C405.786 278.57 405.616 279.25 405.616 280.13V280.53C405.616 281.417 405.79 282.097 406.136 282.57C406.483 283.043 406.96 283.28 407.566 283.28ZM407.566 284C406.713 284 406.026 283.683 405.506 283.05C404.986 282.417 404.726 281.58 404.726 280.54V280.14C404.726 279.08 404.976 278.237 405.476 277.61C405.983 276.983 406.673 276.67 407.546 276.67C408.413 276.67 409.093 276.987 409.586 277.62C410.086 278.253 410.336 279.087 410.336 280.12V280.52C410.336 281.573 410.09 282.417 409.596 283.05C409.11 283.683 408.433 284 407.566 284Z" fill="white"/>
<circle cx="186" cy="176" r="3" fill="#F1D5C0"/>
<circle cx="88" cy="218" r="3" fill="#F1D5C0"/>
<circle cx="280" cy="147" r="3" fill="#F1D5C0"/>
<circle cx="377" cy="35" r="3" fill="#F1D5C0"/>
<rect opacity="0.3" x="88" y="221" width="1" height="63" fill="#F1D5C0"/>
<rect opacity="0.3" x="185" y="176" width="1" height="108" fill="#F1D5C0"/>
<rect opacity="0.3" x="280" y="148" width="1" height="136" fill="#F1D5C0"/>
<rect opacity="0.3" x="377" y="35" width="1" height="249" fill="#F1D5C0"/>
<path d="M24 275L87.75 216.573L185.145 175.354L277.224 145.912L377.63 33.0496L445 1" stroke="url(#paint0_radial)"/>
<defs>
<radialGradient id="paint0_radial" cx="0" cy="0" r="1" gradientUnits="userSpaceOnUse" gradientTransform="translate(210.023 117.024) rotate(41.4723) scale(170.74 301.273)">
<stop stop-color="#F1D5C0"/>
<stop offset="0.777827" stop-color="#F1D5C0" stop-opacity="0"/>
</radialGradient>
</defs>
</svg>
