<svg width="853" height="443" viewBox="0 0 853 443" fill="none" xmlns="http://www.w3.org/2000/svg">
<path d="M18.9988 190.893H13.2708V190.445L18.5028 181.853H20.3588V189.757H21.9428V190.893H20.3588V193.293H18.9988V190.893ZM18.9988 189.757V182.909L15.0308 189.757H18.9988ZM25.801 183.229L23.241 185.069V183.773L25.897 181.853H27.193V193.293H25.801V183.229ZM34.9552 192.285C36.9712 192.285 37.9792 190.808 37.9792 187.853V187.213C37.9792 185.88 37.7072 184.818 37.1632 184.029C36.6192 183.229 35.8725 182.829 34.9232 182.829C33.9525 182.829 33.1952 183.213 32.6512 183.981C32.1072 184.749 31.8352 185.837 31.8352 187.245V187.885C31.8352 189.304 32.1125 190.392 32.6672 191.149C33.2218 191.906 33.9845 192.285 34.9552 192.285ZM34.9552 193.437C33.5898 193.437 32.4912 192.93 31.6592 191.917C30.8272 190.904 30.4112 189.565 30.4112 187.901V187.261C30.4112 185.565 30.8112 184.216 31.6112 183.213C32.4218 182.21 33.5258 181.709 34.9232 181.709C36.3098 181.709 37.3978 182.216 38.1872 183.229C38.9872 184.242 39.3872 185.576 39.3872 187.229V187.869C39.3872 189.554 38.9925 190.904 38.2032 191.917C37.4245 192.93 36.3418 193.437 34.9552 193.437Z" fill="white"/>
<path opacity="0.6" d="M5.412 205.277H3.384V210.713H2.388V205.277H0.36V204.437H5.412V205.277ZM12.3053 204.437H13.3013V210.713H12.3053V204.437ZM6.90534 204.437H7.90134V206.633H9.01734C9.72934 206.633 10.3053 206.793 10.7453 207.113C11.1933 207.433 11.4173 207.937 11.4173 208.625V208.661C11.4173 209.341 11.1933 209.853 10.7453 210.197C10.2973 210.541 9.72134 210.713 9.01734 210.713H6.90534V204.437ZM9.07734 209.921C9.54934 209.921 9.88934 209.821 10.0973 209.621C10.3133 209.413 10.4213 209.093 10.4213 208.661V208.625C10.4213 208.225 10.3173 207.925 10.1093 207.725C9.90134 207.517 9.55734 207.413 9.07734 207.413H7.90134V209.921H9.07734ZM18.1154 210.821C17.2194 210.821 16.4834 210.533 15.9074 209.957C15.3314 209.373 15.0434 208.601 15.0434 207.641V207.545C15.0434 206.601 15.3354 205.829 15.9194 205.229C16.5114 204.629 17.2354 204.329 18.0914 204.329C18.8114 204.329 19.4234 204.509 19.9274 204.869C20.4314 205.221 20.7274 205.773 20.8154 206.525H19.8314C19.6874 205.613 19.1074 205.157 18.0914 205.157C17.5074 205.157 17.0234 205.377 16.6394 205.817C16.2634 206.249 16.0754 206.825 16.0754 207.545V207.641C16.0754 208.393 16.2594 208.973 16.6274 209.381C17.0034 209.789 17.5034 209.993 18.1274 209.993C18.5994 209.993 19.0034 209.861 19.3394 209.597C19.6834 209.325 19.8794 208.945 19.9274 208.457H20.8514C20.7874 209.145 20.4994 209.713 19.9874 210.161C19.4834 210.601 18.8594 210.821 18.1154 210.821ZM25.7709 204.437H26.7669V205.493C26.9509 205.173 27.2389 204.901 27.6309 204.677C28.0229 204.445 28.4429 204.329 28.8909 204.329C29.7309 204.329 30.4149 204.613 30.9429 205.181C31.4789 205.749 31.7469 206.517 31.7469 207.485V207.581C31.7469 208.549 31.4829 209.333 30.9549 209.933C30.4349 210.525 29.7469 210.821 28.8909 210.821C27.9309 210.821 27.2229 210.441 26.7669 209.681V212.897H25.7709V204.437ZM28.7949 209.993C29.4189 209.993 29.8949 209.793 30.2229 209.393C30.5509 208.985 30.7149 208.397 30.7149 207.629V207.533C30.7149 206.773 30.5309 206.189 30.1629 205.781C29.8029 205.365 29.3429 205.157 28.7829 205.157C28.1749 205.157 27.6789 205.361 27.2949 205.769C26.9189 206.169 26.7309 206.757 26.7309 207.533V207.629C26.7309 208.405 26.9149 208.993 27.2829 209.393C27.6589 209.793 28.1629 209.993 28.7949 209.993ZM35.0492 210.065L32.5892 204.437H33.6572L35.5772 208.937L37.3172 204.437H38.3372L34.8692 212.897H33.8612L35.0492 210.065ZM42.3968 210.821C41.4528 210.821 40.7048 210.517 40.1528 209.909C39.6008 209.301 39.3248 208.377 39.3248 207.137V206.753C39.3248 206.161 39.3488 205.637 39.3968 205.181C39.4448 204.717 39.5448 204.253 39.6968 203.789C39.8488 203.317 40.0488 202.925 40.2968 202.613C40.5448 202.301 40.8808 202.041 41.3048 201.833C41.7368 201.625 42.2448 201.505 42.8288 201.473L43.0688 201.461C43.9488 201.413 44.5448 201.325 44.8568 201.197L44.9888 202.037C44.5808 202.213 43.9448 202.321 43.0808 202.361L42.9008 202.373C41.9328 202.421 41.2408 202.737 40.8248 203.321C40.4168 203.897 40.1768 204.793 40.1048 206.009H40.1528C40.3688 205.569 40.6888 205.221 41.1128 204.965C41.5448 204.701 42.0448 204.569 42.6128 204.569C43.4848 204.569 44.1808 204.853 44.7008 205.421C45.2288 205.981 45.4928 206.709 45.4928 207.605V207.653C45.4928 208.621 45.2008 209.393 44.6168 209.969C44.0408 210.537 43.3008 210.821 42.3968 210.821ZM40.8968 209.381C41.2648 209.789 41.7688 209.993 42.4088 209.993C43.0488 209.993 43.5488 209.793 43.9088 209.393C44.2768 208.985 44.4608 208.409 44.4608 207.665V207.641C44.4608 206.945 44.2928 206.397 43.9568 205.997C43.6288 205.597 43.1488 205.397 42.5168 205.397C41.8528 205.397 41.3248 205.605 40.9328 206.021C40.5488 206.437 40.3568 207.005 40.3568 207.725V207.749C40.3568 208.429 40.5368 208.973 40.8968 209.381Z" fill="white"/>
<path d="M21.6882 129.932H15.9602V129.484L21.1922 120.892H23.0482V128.796H24.6322V129.932H23.0482V132.332H21.6882V129.932ZM21.6882 128.796V121.948L17.7202 128.796H21.6882ZM30.0547 132.476C28.8707 132.476 27.9641 132.188 27.3347 131.612C26.7054 131.025 26.3427 130.236 26.2467 129.244H27.5747C27.7027 129.937 27.9427 130.465 28.2947 130.828C28.6467 131.18 29.2281 131.356 30.0387 131.356C30.8174 131.356 31.4307 131.111 31.8787 130.62C32.3267 130.129 32.5507 129.452 32.5507 128.588C32.5507 127.777 32.3321 127.132 31.8947 126.652C31.4681 126.161 30.8867 125.916 30.1507 125.916C29.5107 125.916 28.9827 126.007 28.5667 126.188C28.1507 126.369 27.7774 126.647 27.4467 127.02H26.9347V120.892H33.3667V122.092H28.0867V125.58C28.6521 125.057 29.4307 124.796 30.4227 124.796C31.4681 124.796 32.3214 125.143 32.9827 125.836C33.6441 126.519 33.9747 127.436 33.9747 128.588C33.9747 129.772 33.6014 130.716 32.8547 131.42C32.1081 132.124 31.1747 132.476 30.0547 132.476ZM40.7227 131.324C42.7387 131.324 43.7467 129.847 43.7467 126.892V126.252C43.7467 124.919 43.4747 123.857 42.9307 123.068C42.3867 122.268 41.6401 121.868 40.6907 121.868C39.7201 121.868 38.9627 122.252 38.4187 123.02C37.8747 123.788 37.6027 124.876 37.6027 126.284V126.924C37.6027 128.343 37.8801 129.431 38.4347 130.188C38.9894 130.945 39.7521 131.324 40.7227 131.324ZM40.7227 132.476C39.3574 132.476 38.2587 131.969 37.4267 130.956C36.5947 129.943 36.1787 128.604 36.1787 126.94V126.3C36.1787 124.604 36.5787 123.255 37.3787 122.252C38.1894 121.249 39.2934 120.748 40.6907 120.748C42.0774 120.748 43.1654 121.255 43.9547 122.268C44.7547 123.281 45.1547 124.615 45.1547 126.268V126.908C45.1547 128.593 44.7601 129.943 43.9707 130.956C43.1921 131.969 42.1094 132.476 40.7227 132.476Z" fill="white"/>
<path opacity="0.6" d="M5.412 144.314H3.384V149.75H2.388V144.314H0.36V143.474H5.412V144.314ZM12.3053 143.474H13.3013V149.75H12.3053V143.474ZM6.90534 143.474H7.90134V145.67H9.01734C9.72934 145.67 10.3053 145.83 10.7453 146.15C11.1933 146.47 11.4173 146.974 11.4173 147.662V147.698C11.4173 148.378 11.1933 148.89 10.7453 149.234C10.2973 149.578 9.72134 149.75 9.01734 149.75H6.90534V143.474ZM9.07734 148.958C9.54934 148.958 9.88934 148.858 10.0973 148.658C10.3133 148.45 10.4213 148.13 10.4213 147.698V147.662C10.4213 147.262 10.3173 146.962 10.1093 146.762C9.90134 146.554 9.55734 146.45 9.07734 146.45H7.90134V148.958H9.07734ZM18.1154 149.858C17.2194 149.858 16.4834 149.57 15.9074 148.994C15.3314 148.41 15.0434 147.638 15.0434 146.678V146.582C15.0434 145.638 15.3354 144.866 15.9194 144.266C16.5114 143.666 17.2354 143.366 18.0914 143.366C18.8114 143.366 19.4234 143.546 19.9274 143.906C20.4314 144.258 20.7274 144.81 20.8154 145.562H19.8314C19.6874 144.65 19.1074 144.194 18.0914 144.194C17.5074 144.194 17.0234 144.414 16.6394 144.854C16.2634 145.286 16.0754 145.862 16.0754 146.582V146.678C16.0754 147.43 16.2594 148.01 16.6274 148.418C17.0034 148.826 17.5034 149.03 18.1274 149.03C18.5994 149.03 19.0034 148.898 19.3394 148.634C19.6834 148.362 19.8794 147.982 19.9274 147.494H20.8514C20.7874 148.182 20.4994 148.75 19.9874 149.198C19.4834 149.638 18.8594 149.858 18.1154 149.858ZM25.7709 143.474H26.7669V144.53C26.9509 144.21 27.2389 143.938 27.6309 143.714C28.0229 143.482 28.4429 143.366 28.8909 143.366C29.7309 143.366 30.4149 143.65 30.9429 144.218C31.4789 144.786 31.7469 145.554 31.7469 146.522V146.618C31.7469 147.586 31.4829 148.37 30.9549 148.97C30.4349 149.562 29.7469 149.858 28.8909 149.858C27.9309 149.858 27.2229 149.478 26.7669 148.718V151.934H25.7709V143.474ZM28.7949 149.03C29.4189 149.03 29.8949 148.83 30.2229 148.43C30.5509 148.022 30.7149 147.434 30.7149 146.666V146.57C30.7149 145.81 30.5309 145.226 30.1629 144.818C29.8029 144.402 29.3429 144.194 28.7829 144.194C28.1749 144.194 27.6789 144.398 27.2949 144.806C26.9189 145.206 26.7309 145.794 26.7309 146.57V146.666C26.7309 147.442 26.9149 148.03 27.2829 148.43C27.6589 148.83 28.1629 149.03 28.7949 149.03ZM35.0492 149.102L32.5892 143.474H33.6572L35.5772 147.974L37.3172 143.474H38.3372L34.8692 151.934H33.8612L35.0492 149.102ZM42.3968 149.858C41.4528 149.858 40.7048 149.554 40.1528 148.946C39.6008 148.338 39.3248 147.414 39.3248 146.174V145.79C39.3248 145.198 39.3488 144.674 39.3968 144.218C39.4448 143.754 39.5448 143.29 39.6968 142.826C39.8488 142.354 40.0488 141.962 40.2968 141.65C40.5448 141.338 40.8808 141.078 41.3048 140.87C41.7368 140.662 42.2448 140.542 42.8288 140.51L43.0688 140.498C43.9488 140.45 44.5448 140.362 44.8568 140.234L44.9888 141.074C44.5808 141.25 43.9448 141.358 43.0808 141.398L42.9008 141.41C41.9328 141.458 41.2408 141.774 40.8248 142.358C40.4168 142.934 40.1768 143.83 40.1048 145.046H40.1528C40.3688 144.606 40.6888 144.258 41.1128 144.002C41.5448 143.738 42.0448 143.606 42.6128 143.606C43.4848 143.606 44.1808 143.89 44.7008 144.458C45.2288 145.018 45.4928 145.746 45.4928 146.642V146.69C45.4928 147.658 45.2008 148.43 44.6168 149.006C44.0408 149.574 43.3008 149.858 42.3968 149.858ZM40.8968 148.418C41.2648 148.826 41.7688 149.03 42.4088 149.03C43.0488 149.03 43.5488 148.83 43.9088 148.43C44.2768 148.022 44.4608 147.446 44.4608 146.702V146.678C44.4608 145.982 44.2928 145.434 43.9568 145.034C43.6288 144.634 43.1488 144.434 42.5168 144.434C41.8528 144.434 41.3248 144.642 40.9328 145.058C40.5488 145.474 40.3568 146.042 40.3568 146.762V146.786C40.3568 147.466 40.5368 148.01 40.8968 148.418Z" fill="white"/>
<path d="M20.8722 376.318C19.6882 376.318 18.7336 375.987 18.0082 375.326C17.2936 374.664 16.9149 373.822 16.8722 372.798H18.1522C18.2162 373.523 18.4776 374.104 18.9362 374.542C19.3949 374.979 20.0509 375.198 20.9042 375.198C21.7789 375.198 22.4296 375.006 22.8562 374.622C23.2936 374.227 23.5122 373.683 23.5122 372.99C23.5122 371.507 22.7069 370.766 21.0962 370.766H20.2322V369.598H21.0322C22.4616 369.598 23.1762 368.947 23.1762 367.646C23.1762 367.08 23.0002 366.622 22.6482 366.27C22.2962 365.907 21.7789 365.726 21.0962 365.726C20.3922 365.726 19.8109 365.923 19.3522 366.318C18.9042 366.712 18.6429 367.235 18.5682 367.886H17.3522C17.3949 366.968 17.7629 366.19 18.4562 365.55C19.1496 364.91 20.0296 364.59 21.0962 364.59C22.1416 364.59 22.9736 364.888 23.5922 365.486C24.2216 366.072 24.5362 366.782 24.5362 367.614C24.5362 368.776 23.9336 369.608 22.7282 370.11C24.2002 370.515 24.9362 371.475 24.9362 372.99C24.9362 374.024 24.5576 374.84 23.8002 375.438C23.0536 376.024 22.0776 376.318 20.8722 376.318ZM30.7476 376.318C29.5636 376.318 28.6569 376.03 28.0276 375.454C27.3983 374.867 27.0356 374.078 26.9396 373.086H28.2676C28.3956 373.779 28.6356 374.307 28.9876 374.67C29.3396 375.022 29.9209 375.198 30.7316 375.198C31.5103 375.198 32.1236 374.952 32.5716 374.462C33.0196 373.971 33.2436 373.294 33.2436 372.43C33.2436 371.619 33.0249 370.974 32.5876 370.494C32.1609 370.003 31.5796 369.758 30.8436 369.758C30.2036 369.758 29.6756 369.848 29.2596 370.03C28.8436 370.211 28.4703 370.488 28.1396 370.862H27.6276V364.734H34.0596V365.934H28.7796V369.422C29.3449 368.899 30.1236 368.638 31.1156 368.638C32.1609 368.638 33.0143 368.984 33.6756 369.678C34.3369 370.36 34.6676 371.278 34.6676 372.43C34.6676 373.614 34.2943 374.558 33.5476 375.262C32.8009 375.966 31.8676 376.318 30.7476 376.318ZM41.4156 375.166C43.4316 375.166 44.4396 373.688 44.4396 370.734V370.094C44.4396 368.76 44.1676 367.699 43.6236 366.91C43.0796 366.11 42.3329 365.71 41.3836 365.71C40.4129 365.71 39.6556 366.094 39.1116 366.862C38.5676 367.63 38.2956 368.718 38.2956 370.126V370.766C38.2956 372.184 38.5729 373.272 39.1276 374.03C39.6823 374.787 40.4449 375.166 41.4156 375.166ZM41.4156 376.318C40.0503 376.318 38.9516 375.811 38.1196 374.798C37.2876 373.784 36.8716 372.446 36.8716 370.782V370.142C36.8716 368.446 37.2716 367.096 38.0716 366.094C38.8823 365.091 39.9863 364.59 41.3836 364.59C42.7703 364.59 43.8583 365.096 44.6476 366.11C45.4476 367.123 45.8476 368.456 45.8476 370.11V370.75C45.8476 372.435 45.4529 373.784 44.6636 374.798C43.8849 375.811 42.8023 376.318 41.4156 376.318Z" fill="white"/>
<path opacity="0.6" d="M5.412 388.158H3.384V393.594H2.388V388.158H0.36V387.318H5.412V388.158ZM12.3053 387.318H13.3013V393.594H12.3053V387.318ZM6.90534 387.318H7.90134V389.514H9.01734C9.72934 389.514 10.3053 389.674 10.7453 389.994C11.1933 390.314 11.4173 390.818 11.4173 391.506V391.542C11.4173 392.222 11.1933 392.734 10.7453 393.078C10.2973 393.422 9.72134 393.594 9.01734 393.594H6.90534V387.318ZM9.07734 392.802C9.54934 392.802 9.88934 392.702 10.0973 392.502C10.3133 392.294 10.4213 391.974 10.4213 391.542V391.506C10.4213 391.106 10.3173 390.806 10.1093 390.606C9.90134 390.398 9.55734 390.294 9.07734 390.294H7.90134V392.802H9.07734ZM18.1154 393.702C17.2194 393.702 16.4834 393.414 15.9074 392.838C15.3314 392.254 15.0434 391.482 15.0434 390.522V390.426C15.0434 389.482 15.3354 388.71 15.9194 388.11C16.5114 387.51 17.2354 387.21 18.0914 387.21C18.8114 387.21 19.4234 387.39 19.9274 387.75C20.4314 388.102 20.7274 388.654 20.8154 389.406H19.8314C19.6874 388.494 19.1074 388.038 18.0914 388.038C17.5074 388.038 17.0234 388.258 16.6394 388.698C16.2634 389.13 16.0754 389.706 16.0754 390.426V390.522C16.0754 391.274 16.2594 391.854 16.6274 392.262C17.0034 392.67 17.5034 392.874 18.1274 392.874C18.5994 392.874 19.0034 392.742 19.3394 392.478C19.6834 392.206 19.8794 391.826 19.9274 391.338H20.8514C20.7874 392.026 20.4994 392.594 19.9874 393.042C19.4834 393.482 18.8594 393.702 18.1154 393.702ZM25.7709 387.318H26.7669V388.374C26.9509 388.054 27.2389 387.782 27.6309 387.558C28.0229 387.326 28.4429 387.21 28.8909 387.21C29.7309 387.21 30.4149 387.494 30.9429 388.062C31.4789 388.63 31.7469 389.398 31.7469 390.366V390.462C31.7469 391.43 31.4829 392.214 30.9549 392.814C30.4349 393.406 29.7469 393.702 28.8909 393.702C27.9309 393.702 27.2229 393.322 26.7669 392.562V395.778H25.7709V387.318ZM28.7949 392.874C29.4189 392.874 29.8949 392.674 30.2229 392.274C30.5509 391.866 30.7149 391.278 30.7149 390.51V390.414C30.7149 389.654 30.5309 389.07 30.1629 388.662C29.8029 388.246 29.3429 388.038 28.7829 388.038C28.1749 388.038 27.6789 388.242 27.2949 388.65C26.9189 389.05 26.7309 389.638 26.7309 390.414V390.51C26.7309 391.286 26.9149 391.874 27.2829 392.274C27.6589 392.674 28.1629 392.874 28.7949 392.874ZM35.0492 392.946L32.5892 387.318H33.6572L35.5772 391.818L37.3172 387.318H38.3372L34.8692 395.778H33.8612L35.0492 392.946ZM42.3968 393.702C41.4528 393.702 40.7048 393.398 40.1528 392.79C39.6008 392.182 39.3248 391.258 39.3248 390.018V389.634C39.3248 389.042 39.3488 388.518 39.3968 388.062C39.4448 387.598 39.5448 387.134 39.6968 386.67C39.8488 386.198 40.0488 385.806 40.2968 385.494C40.5448 385.182 40.8808 384.922 41.3048 384.714C41.7368 384.506 42.2448 384.386 42.8288 384.354L43.0688 384.342C43.9488 384.294 44.5448 384.206 44.8568 384.078L44.9888 384.918C44.5808 385.094 43.9448 385.202 43.0808 385.242L42.9008 385.254C41.9328 385.302 41.2408 385.618 40.8248 386.202C40.4168 386.778 40.1768 387.674 40.1048 388.89H40.1528C40.3688 388.45 40.6888 388.102 41.1128 387.846C41.5448 387.582 42.0448 387.45 42.6128 387.45C43.4848 387.45 44.1808 387.734 44.7008 388.302C45.2288 388.862 45.4928 389.59 45.4928 390.486V390.534C45.4928 391.502 45.2008 392.274 44.6168 392.85C44.0408 393.418 43.3008 393.702 42.3968 393.702ZM40.8968 392.262C41.2648 392.67 41.7688 392.874 42.4088 392.874C43.0488 392.874 43.5488 392.674 43.9088 392.274C44.2768 391.866 44.4608 391.29 44.4608 390.546V390.522C44.4608 389.826 44.2928 389.278 43.9568 388.878C43.6288 388.478 43.1488 388.278 42.5168 388.278C41.8528 388.278 41.3248 388.486 40.9328 388.902C40.5488 389.318 40.3568 389.886 40.3568 390.606V390.63C40.3568 391.31 40.5368 391.854 40.8968 392.262Z" fill="white"/>
<path opacity="0.6" d="M613.684 418.655C612.788 418.655 612.052 418.367 611.476 417.791C610.9 417.207 610.612 416.435 610.612 415.475V415.379C610.612 414.435 610.904 413.663 611.488 413.063C612.08 412.463 612.804 412.163 613.66 412.163C614.38 412.163 614.992 412.343 615.496 412.703C616 413.055 616.296 413.607 616.384 414.359H615.4C615.256 413.447 614.676 412.991 613.66 412.991C613.076 412.991 612.592 413.211 612.208 413.651C611.832 414.083 611.644 414.659 611.644 415.379V415.475C611.644 416.227 611.828 416.807 612.196 417.215C612.572 417.623 613.072 417.827 613.696 417.827C614.168 417.827 614.572 417.695 614.908 417.431C615.252 417.159 615.448 416.779 615.496 416.291H616.42C616.356 416.979 616.068 417.547 615.556 417.995C615.052 418.435 614.428 418.655 613.684 418.655ZM620.612 418.655C619.716 418.655 618.984 418.363 618.416 417.779C617.856 417.195 617.576 416.427 617.576 415.475V415.379C617.576 414.435 617.848 413.663 618.392 413.063C618.944 412.463 619.652 412.163 620.516 412.163C621.316 412.163 621.984 412.423 622.52 412.943C623.064 413.455 623.336 414.235 623.336 415.283V415.607H618.608C618.656 417.087 619.328 417.827 620.624 417.827C621.608 417.827 622.164 417.463 622.292 416.735H623.288C623.176 417.359 622.884 417.835 622.412 418.163C621.94 418.491 621.34 418.655 620.612 418.655ZM622.316 414.803C622.228 413.595 621.628 412.991 620.516 412.991C620.012 412.991 619.596 413.151 619.268 413.471C618.94 413.791 618.732 414.235 618.644 414.803H622.316ZM628.992 415.751H625.908V418.547H624.912V412.271H625.908V414.911H628.992V412.271H629.988V418.547H628.992V415.751ZM636.526 413.111H634.498V418.547H633.502V413.111H631.474V412.271H636.526V413.111ZM640.107 413.063C639.211 413.063 638.763 413.443 638.763 414.203V414.239C638.763 414.599 638.867 414.871 639.075 415.055C639.283 415.239 639.627 415.331 640.107 415.331H641.283V413.063H640.107ZM638.451 418.547H637.311L639.219 415.919C638.251 415.719 637.767 415.159 637.767 414.239V414.203C637.767 413.547 637.991 413.063 638.439 412.751C638.887 412.431 639.463 412.271 640.167 412.271H642.279V418.547H641.283V416.087H640.203L638.451 418.547ZM647.12 418.655C646.176 418.655 645.428 418.351 644.876 417.743C644.324 417.135 644.048 416.211 644.048 414.971V414.587C644.048 413.995 644.072 413.471 644.12 413.015C644.168 412.551 644.268 412.087 644.42 411.623C644.572 411.151 644.772 410.759 645.02 410.447C645.268 410.135 645.604 409.875 646.028 409.667C646.46 409.459 646.968 409.339 647.552 409.307L647.792 409.295C648.672 409.247 649.268 409.159 649.58 409.031L649.712 409.871C649.304 410.047 648.668 410.155 647.804 410.195L647.624 410.207C646.656 410.255 645.964 410.571 645.548 411.155C645.14 411.731 644.9 412.627 644.828 413.843H644.876C645.092 413.403 645.412 413.055 645.836 412.799C646.268 412.535 646.768 412.403 647.336 412.403C648.208 412.403 648.904 412.687 649.424 413.255C649.952 413.815 650.216 414.543 650.216 415.439V415.487C650.216 416.455 649.924 417.227 649.34 417.803C648.764 418.371 648.024 418.655 647.12 418.655ZM645.62 417.215C645.988 417.623 646.492 417.827 647.132 417.827C647.772 417.827 648.272 417.627 648.632 417.227C649 416.819 649.184 416.243 649.184 415.499V415.475C649.184 414.779 649.016 414.231 648.68 413.831C648.352 413.431 647.872 413.231 647.24 413.231C646.576 413.231 646.048 413.439 645.656 413.855C645.272 414.271 645.08 414.839 645.08 415.559V415.583C645.08 416.263 645.26 416.807 645.62 417.215ZM651.96 412.271H652.956V413.327C653.14 413.007 653.428 412.735 653.82 412.511C654.212 412.279 654.632 412.163 655.08 412.163C655.92 412.163 656.604 412.447 657.132 413.015C657.668 413.583 657.936 414.351 657.936 415.319V415.415C657.936 416.383 657.672 417.167 657.144 417.767C656.624 418.359 655.936 418.655 655.08 418.655C654.12 418.655 653.412 418.275 652.956 417.515V420.731H651.96V412.271ZM654.984 417.827C655.608 417.827 656.084 417.627 656.412 417.227C656.74 416.819 656.904 416.231 656.904 415.463V415.367C656.904 414.607 656.72 414.023 656.352 413.615C655.992 413.199 655.532 412.991 654.972 412.991C654.364 412.991 653.868 413.195 653.484 413.603C653.108 414.003 652.92 414.591 652.92 415.367V415.463C652.92 416.239 653.104 416.827 653.472 417.227C653.848 417.627 654.352 417.827 654.984 417.827ZM659.532 412.271H660.528V414.467H661.644C662.348 414.467 662.924 414.639 663.372 414.983C663.82 415.327 664.044 415.839 664.044 416.519V416.555C664.044 417.243 663.82 417.747 663.372 418.067C662.932 418.387 662.356 418.547 661.644 418.547H659.532V412.271ZM661.704 417.767C662.184 417.767 662.528 417.667 662.736 417.467C662.944 417.259 663.048 416.955 663.048 416.555V416.519C663.048 416.087 662.94 415.771 662.724 415.571C662.516 415.363 662.176 415.259 661.704 415.259H660.528V417.767H661.704Z" fill="white"/>
<path d="M610.35 436.363L614.326 432.177C615.287 431.159 615.768 430.193 615.768 429.279C615.768 428.719 615.609 428.28 615.292 427.963C614.984 427.645 614.545 427.487 613.976 427.487C612.763 427.487 612.058 428.229 611.862 429.713H610.728C610.803 428.723 611.125 427.944 611.694 427.375C612.273 426.796 613.033 426.507 613.976 426.507C614.9 426.507 615.633 426.763 616.174 427.277C616.725 427.781 617 428.462 617 429.321C617 430.422 616.328 431.635 614.984 432.961L612.226 435.649H617.056V436.643H610.35V436.363ZM622.901 435.761C624.665 435.761 625.547 434.468 625.547 431.883V431.323C625.547 430.156 625.309 429.227 624.833 428.537C624.357 427.837 623.704 427.487 622.873 427.487C622.024 427.487 621.361 427.823 620.885 428.495C620.409 429.167 620.171 430.119 620.171 431.351V431.911C620.171 433.152 620.414 434.104 620.899 434.767C621.385 435.429 622.052 435.761 622.901 435.761ZM622.901 436.769C621.707 436.769 620.745 436.325 620.017 435.439C619.289 434.552 618.925 433.381 618.925 431.925V431.365C618.925 429.881 619.275 428.7 619.975 427.823C620.685 426.945 621.651 426.507 622.873 426.507C624.087 426.507 625.039 426.95 625.729 427.837C626.429 428.723 626.779 429.89 626.779 431.337V431.897C626.779 433.371 626.434 434.552 625.743 435.439C625.062 436.325 624.115 436.769 622.901 436.769ZM628.198 436.363L632.174 432.177C633.136 431.159 633.616 430.193 633.616 429.279C633.616 428.719 633.458 428.28 633.14 427.963C632.832 427.645 632.394 427.487 631.824 427.487C630.611 427.487 629.906 428.229 629.71 429.713H628.576C628.651 428.723 628.973 427.944 629.542 427.375C630.121 426.796 630.882 426.507 631.824 426.507C632.748 426.507 633.481 426.763 634.022 427.277C634.573 427.781 634.848 428.462 634.848 429.321C634.848 430.422 634.176 431.635 632.832 432.961L630.074 435.649H634.904V436.643H628.198V436.363ZM640.75 435.761C642.514 435.761 643.396 434.468 643.396 431.883V431.323C643.396 430.156 643.158 429.227 642.682 428.537C642.206 427.837 641.552 427.487 640.722 427.487C639.872 427.487 639.21 427.823 638.734 428.495C638.258 429.167 638.02 430.119 638.02 431.351V431.911C638.02 433.152 638.262 434.104 638.748 434.767C639.233 435.429 639.9 435.761 640.75 435.761ZM640.75 436.769C639.555 436.769 638.594 436.325 637.866 435.439C637.138 434.552 636.774 433.381 636.774 431.925V431.365C636.774 429.881 637.124 428.7 637.824 427.823C638.533 426.945 639.499 426.507 640.722 426.507C641.935 426.507 642.887 426.95 643.578 427.837C644.278 428.723 644.628 429.89 644.628 431.337V431.897C644.628 433.371 644.282 434.552 643.592 435.439C642.91 436.325 641.963 436.769 640.75 436.769Z" fill="white"/>
<path opacity="0.6" d="M460.652 418.655C460.036 418.655 459.532 418.503 459.14 418.199C458.756 417.887 458.564 417.423 458.564 416.807C458.564 416.463 458.648 416.163 458.816 415.907C458.992 415.643 459.232 415.439 459.536 415.295C459.84 415.143 460.172 415.035 460.532 414.971C460.892 414.899 461.284 414.863 461.708 414.863H462.608V414.407C462.608 413.903 462.504 413.543 462.296 413.327C462.088 413.103 461.744 412.991 461.264 412.991C460.4 412.991 459.92 413.367 459.824 414.119H458.828C458.892 413.447 459.152 412.955 459.608 412.643C460.072 412.323 460.64 412.163 461.312 412.163C462.84 412.163 463.604 412.911 463.604 414.407V418.547H462.608V417.755C462.128 418.355 461.476 418.655 460.652 418.655ZM460.748 417.863C461.292 417.863 461.736 417.731 462.08 417.467C462.432 417.195 462.608 416.823 462.608 416.351V415.571H461.744C460.288 415.571 459.56 415.983 459.56 416.807C459.56 417.511 459.956 417.863 460.748 417.863ZM465.608 412.271H467.804C469.276 412.271 470.012 412.803 470.012 413.867V413.903C470.012 414.207 469.928 414.487 469.76 414.743C469.592 414.991 469.34 415.159 469.004 415.247C469.876 415.439 470.312 415.911 470.312 416.663V416.699C470.312 417.307 470.112 417.767 469.712 418.079C469.32 418.391 468.772 418.547 468.068 418.547H465.608V412.271ZM466.604 413.063V414.923H467.804C468.22 414.923 468.516 414.847 468.692 414.695C468.876 414.543 468.968 414.295 468.968 413.951V413.915C468.968 413.595 468.872 413.375 468.68 413.255C468.496 413.127 468.2 413.063 467.792 413.063H466.604ZM466.604 415.715V417.755H467.972C468.412 417.755 468.736 417.679 468.944 417.527C469.16 417.367 469.268 417.111 469.268 416.759V416.723C469.268 416.371 469.16 416.115 468.944 415.955C468.736 415.795 468.412 415.715 467.972 415.715H466.604ZM473.017 413.111V418.547H472.021V412.271H476.005V413.111H473.017ZM479.497 417.899L477.037 412.271H478.105L480.025 416.771L481.765 412.271H482.785L479.317 420.731H478.309L479.497 417.899ZM486.644 418.655C485.748 418.655 485.012 418.367 484.436 417.791C483.86 417.207 483.572 416.435 483.572 415.475V415.379C483.572 414.435 483.864 413.663 484.448 413.063C485.04 412.463 485.764 412.163 486.62 412.163C487.34 412.163 487.952 412.343 488.456 412.703C488.96 413.055 489.256 413.607 489.344 414.359H488.36C488.216 413.447 487.636 412.991 486.62 412.991C486.036 412.991 485.552 413.211 485.168 413.651C484.792 414.083 484.604 414.659 484.604 415.379V415.475C484.604 416.227 484.788 416.807 485.156 417.215C485.532 417.623 486.032 417.827 486.656 417.827C487.128 417.827 487.532 417.695 487.868 417.431C488.212 417.159 488.408 416.779 488.456 416.291H489.38C489.316 416.979 489.028 417.547 488.516 417.995C488.012 418.435 487.388 418.655 486.644 418.655ZM495.336 413.111H493.308V418.547H492.312V413.111H490.284V412.271H495.336V413.111Z" fill="white"/>
<path d="M458.35 436.363L462.326 432.177C463.287 431.159 463.768 430.193 463.768 429.279C463.768 428.719 463.609 428.28 463.292 427.963C462.984 427.645 462.545 427.487 461.976 427.487C460.763 427.487 460.058 428.229 459.862 429.713H458.728C458.803 428.723 459.125 427.944 459.694 427.375C460.273 426.796 461.033 426.507 461.976 426.507C462.9 426.507 463.633 426.763 464.174 427.277C464.725 427.781 465 428.462 465 429.321C465 430.422 464.328 431.635 462.984 432.961L460.226 435.649H465.056V436.643H458.35V436.363ZM470.901 435.761C472.665 435.761 473.547 434.468 473.547 431.883V431.323C473.547 430.156 473.309 429.227 472.833 428.537C472.357 427.837 471.704 427.487 470.873 427.487C470.024 427.487 469.361 427.823 468.885 428.495C468.409 429.167 468.171 430.119 468.171 431.351V431.911C468.171 433.152 468.414 434.104 468.899 434.767C469.385 435.429 470.052 435.761 470.901 435.761ZM470.901 436.769C469.707 436.769 468.745 436.325 468.017 435.439C467.289 434.552 466.925 433.381 466.925 431.925V431.365C466.925 429.881 467.275 428.7 467.975 427.823C468.685 426.945 469.651 426.507 470.873 426.507C472.087 426.507 473.039 426.95 473.729 427.837C474.429 428.723 474.779 429.89 474.779 431.337V431.897C474.779 433.371 474.434 434.552 473.743 435.439C473.062 436.325 472.115 436.769 470.901 436.769ZM476.198 436.363L480.174 432.177C481.136 431.159 481.616 430.193 481.616 429.279C481.616 428.719 481.458 428.28 481.14 427.963C480.832 427.645 480.394 427.487 479.824 427.487C478.611 427.487 477.906 428.229 477.71 429.713H476.576C476.651 428.723 476.973 427.944 477.542 427.375C478.121 426.796 478.882 426.507 479.824 426.507C480.748 426.507 481.481 426.763 482.022 427.277C482.573 427.781 482.848 428.462 482.848 429.321C482.848 430.422 482.176 431.635 480.832 432.961L478.074 435.649H482.904V436.643H476.198V436.363ZM488.75 435.761C490.514 435.761 491.396 434.468 491.396 431.883V431.323C491.396 430.156 491.158 429.227 490.682 428.537C490.206 427.837 489.552 427.487 488.722 427.487C487.872 427.487 487.21 427.823 486.734 428.495C486.258 429.167 486.02 430.119 486.02 431.351V431.911C486.02 433.152 486.262 434.104 486.748 434.767C487.233 435.429 487.9 435.761 488.75 435.761ZM488.75 436.769C487.555 436.769 486.594 436.325 485.866 435.439C485.138 434.552 484.774 433.381 484.774 431.925V431.365C484.774 429.881 485.124 428.7 485.824 427.823C486.533 426.945 487.499 426.507 488.722 426.507C489.935 426.507 490.887 426.95 491.578 427.837C492.278 428.723 492.628 429.89 492.628 431.337V431.897C492.628 433.371 492.282 434.552 491.592 435.439C490.91 436.325 489.963 436.769 488.75 436.769Z" fill="white"/>
<path opacity="0.6" d="M322.684 418.655C321.788 418.655 321.052 418.367 320.476 417.791C319.9 417.207 319.612 416.435 319.612 415.475V415.379C319.612 414.435 319.904 413.663 320.488 413.063C321.08 412.463 321.804 412.163 322.66 412.163C323.38 412.163 323.992 412.343 324.496 412.703C325 413.055 325.296 413.607 325.384 414.359H324.4C324.256 413.447 323.676 412.991 322.66 412.991C322.076 412.991 321.592 413.211 321.208 413.651C320.832 414.083 320.644 414.659 320.644 415.379V415.475C320.644 416.227 320.828 416.807 321.196 417.215C321.572 417.623 322.072 417.827 322.696 417.827C323.168 417.827 323.572 417.695 323.908 417.431C324.252 417.159 324.448 416.779 324.496 416.291H325.42C325.356 416.979 325.068 417.547 324.556 417.995C324.052 418.435 323.428 418.655 322.684 418.655ZM331.376 413.111H329.348V418.547H328.352V413.111H326.324V412.271H331.376V413.111ZM334.454 418.655C333.838 418.655 333.334 418.503 332.942 418.199C332.558 417.887 332.366 417.423 332.366 416.807C332.366 416.463 332.45 416.163 332.618 415.907C332.794 415.643 333.034 415.439 333.338 415.295C333.642 415.143 333.974 415.035 334.334 414.971C334.694 414.899 335.086 414.863 335.51 414.863H336.41V414.407C336.41 413.903 336.306 413.543 336.098 413.327C335.89 413.103 335.546 412.991 335.066 412.991C334.202 412.991 333.722 413.367 333.626 414.119H332.63C332.694 413.447 332.954 412.955 333.41 412.643C333.874 412.323 334.442 412.163 335.115 412.163C336.642 412.163 337.406 412.911 337.406 414.407V418.547H336.41V417.755C335.93 418.355 335.278 418.655 334.454 418.655ZM334.55 417.863C335.095 417.863 335.538 417.731 335.882 417.467C336.234 417.195 336.41 416.823 336.41 416.351V415.571H335.546C334.09 415.571 333.362 415.983 333.362 416.807C333.362 417.511 333.758 417.863 334.55 417.863ZM339.483 412.271H340.479V413.327C340.663 413.007 340.951 412.735 341.343 412.511C341.735 412.279 342.155 412.163 342.603 412.163C343.443 412.163 344.127 412.447 344.655 413.015C345.191 413.583 345.459 414.351 345.459 415.319V415.415C345.459 416.383 345.195 417.167 344.667 417.767C344.147 418.359 343.459 418.655 342.603 418.655C341.643 418.655 340.935 418.275 340.479 417.515V420.731H339.483V412.271ZM342.507 417.827C343.131 417.827 343.607 417.627 343.935 417.227C344.263 416.819 344.427 416.231 344.427 415.463V415.367C344.427 414.607 344.243 414.023 343.875 413.615C343.515 413.199 343.055 412.991 342.495 412.991C341.887 412.991 341.391 413.195 341.007 413.603C340.631 414.003 340.443 414.591 340.443 415.367V415.463C340.443 416.239 340.627 416.827 340.995 417.227C341.371 417.627 341.875 417.827 342.507 417.827ZM351.341 413.111H349.313V418.547H348.317V413.111H346.289V412.271H351.341V413.111Z" fill="white"/>
<path d="M324.796 430.301H321.338V436.643H320.176V429.321H325.958V436.643H324.796V430.301ZM328.535 429.321H329.697V430.553C329.911 430.179 330.247 429.862 330.705 429.601C331.162 429.33 331.652 429.195 332.175 429.195C333.155 429.195 333.953 429.526 334.569 430.189C335.194 430.851 335.507 431.747 335.507 432.877V432.989C335.507 434.118 335.199 435.033 334.583 435.733C333.976 436.423 333.173 436.769 332.175 436.769C331.055 436.769 330.229 436.325 329.697 435.439V439.191H328.535V429.321ZM332.063 435.803C332.791 435.803 333.346 435.569 333.729 435.103C334.111 434.627 334.303 433.941 334.303 433.045V432.933C334.303 432.046 334.088 431.365 333.659 430.889C333.239 430.403 332.702 430.161 332.049 430.161C331.339 430.161 330.761 430.399 330.313 430.875C329.874 431.341 329.655 432.027 329.655 432.933V433.045C329.655 433.95 329.869 434.636 330.299 435.103C330.737 435.569 331.325 435.803 332.063 435.803ZM340.504 435.803C341.232 435.803 341.811 435.551 342.24 435.047C342.679 434.543 342.898 433.875 342.898 433.045V432.947C342.898 432.097 342.679 431.421 342.24 430.917C341.811 430.413 341.232 430.161 340.504 430.161C339.767 430.161 339.183 430.413 338.754 430.917C338.325 431.421 338.11 432.093 338.11 432.933V433.045C338.11 433.894 338.32 434.566 338.74 435.061C339.169 435.555 339.757 435.803 340.504 435.803ZM340.49 436.769C339.454 436.769 338.595 436.419 337.914 435.719C337.242 435.009 336.906 434.118 336.906 433.045V432.933C336.906 431.841 337.242 430.945 337.914 430.245C338.595 429.545 339.459 429.195 340.504 429.195C341.549 429.195 342.408 429.545 343.08 430.245C343.761 430.935 344.102 431.827 344.102 432.919V433.031C344.102 434.132 343.761 435.033 343.08 435.733C342.399 436.423 341.535 436.769 340.49 436.769ZM347.18 433.815C347.078 434.673 346.919 435.289 346.704 435.663H350.134V430.273H347.446C347.4 431.411 347.311 432.592 347.18 433.815ZM345.724 438.421H344.786V435.663H345.304C345.566 435.597 345.748 435.411 345.85 435.103C345.953 434.785 346.042 434.333 346.116 433.745C346.2 432.989 346.28 432.037 346.354 430.889C346.392 430.375 346.42 429.853 346.438 429.321H351.268V435.663H352.388V438.421H351.45L351.366 436.643H345.808L345.724 438.421ZM355.904 436.769C355.185 436.769 354.597 436.591 354.14 436.237C353.692 435.873 353.468 435.331 353.468 434.613C353.468 434.211 353.566 433.861 353.762 433.563C353.967 433.255 354.247 433.017 354.602 432.849C354.957 432.671 355.344 432.545 355.764 432.471C356.184 432.387 356.641 432.345 357.136 432.345H358.186V431.813C358.186 431.225 358.065 430.805 357.822 430.553C357.579 430.291 357.178 430.161 356.618 430.161C355.61 430.161 355.05 430.599 354.938 431.477H353.776C353.851 430.693 354.154 430.119 354.686 429.755C355.227 429.381 355.89 429.195 356.674 429.195C358.457 429.195 359.348 430.067 359.348 431.813V436.643H358.186V435.719C357.626 436.419 356.865 436.769 355.904 436.769ZM356.016 435.845C356.651 435.845 357.169 435.691 357.57 435.383C357.981 435.065 358.186 434.631 358.186 434.081V433.171H357.178C355.479 433.171 354.63 433.651 354.63 434.613C354.63 435.434 355.092 435.845 356.016 435.845ZM364.907 432.877L362.079 436.643H360.777L363.759 432.751L361.043 429.321H362.289L364.907 432.765V429.321H366.041V432.765L368.659 429.321H369.919L367.203 432.751L370.185 436.643H368.869L366.041 432.877V436.643H364.907V432.877Z" fill="white"/>
<path opacity="0.6" d="M766.696 417.827C767.32 417.827 767.816 417.611 768.184 417.179C768.56 416.747 768.748 416.175 768.748 415.463V415.379C768.748 414.651 768.56 414.071 768.184 413.639C767.816 413.207 767.32 412.991 766.696 412.991C766.064 412.991 765.564 413.207 765.196 413.639C764.828 414.071 764.644 414.647 764.644 415.367V415.463C764.644 416.191 764.824 416.767 765.184 417.191C765.552 417.615 766.056 417.827 766.696 417.827ZM766.684 418.655C765.796 418.655 765.06 418.355 764.476 417.755C763.9 417.147 763.612 416.383 763.612 415.463V415.367C763.612 414.431 763.9 413.663 764.476 413.063C765.06 412.463 765.8 412.163 766.696 412.163C767.592 412.163 768.328 412.463 768.904 413.063C769.488 413.655 769.78 414.419 769.78 415.355V415.451C769.78 416.395 769.488 417.167 768.904 417.767C768.32 418.359 767.58 418.655 766.684 418.655ZM772.366 415.343V418.547H771.37V412.271H772.366V415.199L774.97 412.271H776.134L773.446 415.223L776.362 418.547H775.15L772.366 415.343ZM782.082 413.111H780.054V418.547H779.058V413.111H777.03V412.271H782.082V413.111ZM785.663 413.063C784.767 413.063 784.319 413.443 784.319 414.203V414.239C784.319 414.599 784.423 414.871 784.631 415.055C784.839 415.239 785.183 415.331 785.663 415.331H786.839V413.063H785.663ZM784.007 418.547H782.867L784.775 415.919C783.807 415.719 783.323 415.159 783.323 414.239V414.203C783.323 413.547 783.547 413.063 783.995 412.751C784.443 412.431 785.019 412.271 785.723 412.271H787.835V418.547H786.839V416.087H785.759L784.007 418.547ZM792.676 418.655C791.732 418.655 790.984 418.351 790.432 417.743C789.88 417.135 789.604 416.211 789.604 414.971V414.587C789.604 413.995 789.628 413.471 789.676 413.015C789.724 412.551 789.824 412.087 789.976 411.623C790.128 411.151 790.328 410.759 790.576 410.447C790.824 410.135 791.16 409.875 791.584 409.667C792.016 409.459 792.524 409.339 793.108 409.307L793.348 409.295C794.228 409.247 794.824 409.159 795.136 409.031L795.268 409.871C794.86 410.047 794.224 410.155 793.36 410.195L793.18 410.207C792.212 410.255 791.52 410.571 791.104 411.155C790.696 411.731 790.456 412.627 790.384 413.843H790.432C790.648 413.403 790.968 413.055 791.392 412.799C791.824 412.535 792.324 412.403 792.892 412.403C793.764 412.403 794.46 412.687 794.98 413.255C795.508 413.815 795.772 414.543 795.772 415.439V415.487C795.772 416.455 795.48 417.227 794.896 417.803C794.32 418.371 793.58 418.655 792.676 418.655ZM791.176 417.215C791.544 417.623 792.048 417.827 792.688 417.827C793.328 417.827 793.828 417.627 794.188 417.227C794.556 416.819 794.74 416.243 794.74 415.499V415.475C794.74 414.779 794.572 414.231 794.236 413.831C793.908 413.431 793.428 413.231 792.796 413.231C792.132 413.231 791.604 413.439 791.212 413.855C790.828 414.271 790.636 414.839 790.636 415.559V415.583C790.636 416.263 790.816 416.807 791.176 417.215ZM797.516 412.271H798.512V413.327C798.696 413.007 798.984 412.735 799.376 412.511C799.768 412.279 800.188 412.163 800.636 412.163C801.476 412.163 802.16 412.447 802.688 413.015C803.224 413.583 803.492 414.351 803.492 415.319V415.415C803.492 416.383 803.228 417.167 802.7 417.767C802.18 418.359 801.492 418.655 800.636 418.655C799.676 418.655 798.968 418.275 798.512 417.515V420.731H797.516V412.271ZM800.54 417.827C801.164 417.827 801.64 417.627 801.968 417.227C802.296 416.819 802.46 416.231 802.46 415.463V415.367C802.46 414.607 802.276 414.023 801.908 413.615C801.548 413.199 801.088 412.991 800.528 412.991C799.92 412.991 799.424 413.195 799.04 413.603C798.664 414.003 798.476 414.591 798.476 415.367V415.463C798.476 416.239 798.66 416.827 799.028 417.227C799.404 417.627 799.908 417.827 800.54 417.827ZM805.087 412.271H806.083V414.467H807.199C807.903 414.467 808.479 414.639 808.927 414.983C809.375 415.327 809.599 415.839 809.599 416.519V416.555C809.599 417.243 809.375 417.747 808.927 418.067C808.487 418.387 807.911 418.547 807.199 418.547H805.087V412.271ZM807.259 417.767C807.739 417.767 808.083 417.667 808.291 417.467C808.499 417.259 808.603 416.955 808.603 416.555V416.519C808.603 416.087 808.495 415.771 808.279 415.571C808.071 415.363 807.731 415.259 807.259 415.259H806.083V417.767H807.259Z" fill="white"/>
<path d="M763.35 436.363L767.326 432.177C768.287 431.159 768.768 430.193 768.768 429.279C768.768 428.719 768.609 428.28 768.292 427.963C767.984 427.645 767.545 427.487 766.976 427.487C765.763 427.487 765.058 428.229 764.862 429.713H763.728C763.803 428.723 764.125 427.944 764.694 427.375C765.273 426.796 766.033 426.507 766.976 426.507C767.9 426.507 768.633 426.763 769.174 427.277C769.725 427.781 770 428.462 770 429.321C770 430.422 769.328 431.635 767.984 432.961L765.226 435.649H770.056V436.643H763.35V436.363ZM775.901 435.761C777.665 435.761 778.547 434.468 778.547 431.883V431.323C778.547 430.156 778.309 429.227 777.833 428.537C777.357 427.837 776.704 427.487 775.873 427.487C775.024 427.487 774.361 427.823 773.885 428.495C773.409 429.167 773.171 430.119 773.171 431.351V431.911C773.171 433.152 773.414 434.104 773.899 434.767C774.385 435.429 775.052 435.761 775.901 435.761ZM775.901 436.769C774.707 436.769 773.745 436.325 773.017 435.439C772.289 434.552 771.925 433.381 771.925 431.925V431.365C771.925 429.881 772.275 428.7 772.975 427.823C773.685 426.945 774.651 426.507 775.873 426.507C777.087 426.507 778.039 426.95 778.729 427.837C779.429 428.723 779.779 429.89 779.779 431.337V431.897C779.779 433.371 779.434 434.552 778.743 435.439C778.062 436.325 777.115 436.769 775.901 436.769ZM781.198 436.363L785.174 432.177C786.136 431.159 786.616 430.193 786.616 429.279C786.616 428.719 786.458 428.28 786.14 427.963C785.832 427.645 785.394 427.487 784.824 427.487C783.611 427.487 782.906 428.229 782.71 429.713H781.576C781.651 428.723 781.973 427.944 782.542 427.375C783.121 426.796 783.882 426.507 784.824 426.507C785.748 426.507 786.481 426.763 787.022 427.277C787.573 427.781 787.848 428.462 787.848 429.321C787.848 430.422 787.176 431.635 785.832 432.961L783.074 435.649H787.904V436.643H781.198V436.363ZM793.75 435.761C795.514 435.761 796.396 434.468 796.396 431.883V431.323C796.396 430.156 796.158 429.227 795.682 428.537C795.206 427.837 794.552 427.487 793.722 427.487C792.872 427.487 792.21 427.823 791.734 428.495C791.258 429.167 791.02 430.119 791.02 431.351V431.911C791.02 433.152 791.262 434.104 791.748 434.767C792.233 435.429 792.9 435.761 793.75 435.761ZM793.75 436.769C792.555 436.769 791.594 436.325 790.866 435.439C790.138 434.552 789.774 433.381 789.774 431.925V431.365C789.774 429.881 790.124 428.7 790.824 427.823C791.533 426.945 792.499 426.507 793.722 426.507C794.935 426.507 795.887 426.95 796.578 427.837C797.278 428.723 797.628 429.89 797.628 431.337V431.897C797.628 433.371 797.282 434.552 796.592 435.439C795.91 436.325 794.963 436.769 793.75 436.769Z" fill="white"/>
<path opacity="0.6" d="M5.412 327.197H3.384V332.633H2.388V327.197H0.36V326.357H5.412V327.197ZM12.3053 326.357H13.3013V332.633H12.3053V326.357ZM6.90534 326.357H7.90134V328.553H9.01734C9.72934 328.553 10.3053 328.713 10.7453 329.033C11.1933 329.353 11.4173 329.857 11.4173 330.545V330.581C11.4173 331.261 11.1933 331.773 10.7453 332.117C10.2973 332.461 9.72134 332.633 9.01734 332.633H6.90534V326.357ZM9.07734 331.841C9.54934 331.841 9.88934 331.741 10.0973 331.541C10.3133 331.333 10.4213 331.013 10.4213 330.581V330.545C10.4213 330.145 10.3173 329.845 10.1093 329.645C9.90134 329.437 9.55734 329.333 9.07734 329.333H7.90134V331.841H9.07734ZM18.1154 332.741C17.2194 332.741 16.4834 332.453 15.9074 331.877C15.3314 331.293 15.0434 330.521 15.0434 329.561V329.465C15.0434 328.521 15.3354 327.749 15.9194 327.149C16.5114 326.549 17.2354 326.249 18.0914 326.249C18.8114 326.249 19.4234 326.429 19.9274 326.789C20.4314 327.141 20.7274 327.693 20.8154 328.445H19.8314C19.6874 327.533 19.1074 327.077 18.0914 327.077C17.5074 327.077 17.0234 327.297 16.6394 327.737C16.2634 328.169 16.0754 328.745 16.0754 329.465V329.561C16.0754 330.313 16.2594 330.893 16.6274 331.301C17.0034 331.709 17.5034 331.913 18.1274 331.913C18.5994 331.913 19.0034 331.781 19.3394 331.517C19.6834 331.245 19.8794 330.865 19.9274 330.377H20.8514C20.7874 331.065 20.4994 331.633 19.9874 332.081C19.4834 332.521 18.8594 332.741 18.1154 332.741ZM25.7709 326.357H26.7669V327.413C26.9509 327.093 27.2389 326.821 27.6309 326.597C28.0229 326.365 28.4429 326.249 28.8909 326.249C29.7309 326.249 30.4149 326.533 30.9429 327.101C31.4789 327.669 31.7469 328.437 31.7469 329.405V329.501C31.7469 330.469 31.4829 331.253 30.9549 331.853C30.4349 332.445 29.7469 332.741 28.8909 332.741C27.9309 332.741 27.2229 332.361 26.7669 331.601V334.817H25.7709V326.357ZM28.7949 331.913C29.4189 331.913 29.8949 331.713 30.2229 331.313C30.5509 330.905 30.7149 330.317 30.7149 329.549V329.453C30.7149 328.693 30.5309 328.109 30.1629 327.701C29.8029 327.285 29.3429 327.077 28.7829 327.077C28.1749 327.077 27.6789 327.281 27.2949 327.689C26.9189 328.089 26.7309 328.677 26.7309 329.453V329.549C26.7309 330.325 26.9149 330.913 27.2829 331.313C27.6589 331.713 28.1629 331.913 28.7949 331.913ZM35.0492 331.985L32.5892 326.357H33.6572L35.5772 330.857L37.3172 326.357H38.3372L34.8692 334.817H33.8612L35.0492 331.985ZM42.3968 332.741C41.4528 332.741 40.7048 332.437 40.1528 331.829C39.6008 331.221 39.3248 330.297 39.3248 329.057V328.673C39.3248 328.081 39.3488 327.557 39.3968 327.101C39.4448 326.637 39.5448 326.173 39.6968 325.709C39.8488 325.237 40.0488 324.845 40.2968 324.533C40.5448 324.221 40.8808 323.961 41.3048 323.753C41.7368 323.545 42.2448 323.425 42.8288 323.393L43.0688 323.381C43.9488 323.333 44.5448 323.245 44.8568 323.117L44.9888 323.957C44.5808 324.133 43.9448 324.241 43.0808 324.281L42.9008 324.293C41.9328 324.341 41.2408 324.657 40.8248 325.241C40.4168 325.817 40.1768 326.713 40.1048 327.929H40.1528C40.3688 327.489 40.6888 327.141 41.1128 326.885C41.5448 326.621 42.0448 326.489 42.6128 326.489C43.4848 326.489 44.1808 326.773 44.7008 327.341C45.2288 327.901 45.4928 328.629 45.4928 329.525V329.573C45.4928 330.541 45.2008 331.313 44.6168 331.889C44.0408 332.457 43.3008 332.741 42.3968 332.741ZM40.8968 331.301C41.2648 331.709 41.7688 331.913 42.4088 331.913C43.0488 331.913 43.5488 331.713 43.9088 331.313C44.2768 330.905 44.4608 330.329 44.4608 329.585V329.561C44.4608 328.865 44.2928 328.317 43.9568 327.917C43.6288 327.517 43.1488 327.317 42.5168 327.317C41.8528 327.317 41.3248 327.525 40.9328 327.941C40.5488 328.357 40.3568 328.925 40.3568 329.645V329.669C40.3568 330.349 40.5368 330.893 40.8968 331.301Z" fill="white"/>
<path d="M18.1842 315.357C17.0002 315.357 16.0456 315.026 15.3202 314.365C14.6056 313.704 14.2269 312.861 14.1842 311.837H15.4642C15.5282 312.562 15.7896 313.144 16.2482 313.581C16.7069 314.018 17.3629 314.237 18.2162 314.237C19.0909 314.237 19.7416 314.045 20.1682 313.661C20.6056 313.266 20.8242 312.722 20.8242 312.029C20.8242 310.546 20.0189 309.805 18.4082 309.805H17.5442V308.637H18.3442C19.7736 308.637 20.4882 307.986 20.4882 306.685C20.4882 306.12 20.3122 305.661 19.9602 305.309C19.6082 304.946 19.0909 304.765 18.4082 304.765C17.7042 304.765 17.1229 304.962 16.6642 305.357C16.2162 305.752 15.9549 306.274 15.8802 306.925H14.6642C14.7069 306.008 15.0749 305.229 15.7682 304.589C16.4616 303.949 17.3416 303.629 18.4082 303.629C19.4536 303.629 20.2856 303.928 20.9042 304.525C21.5336 305.112 21.8482 305.821 21.8482 306.653C21.8482 307.816 21.2456 308.648 20.0402 309.149C21.5122 309.554 22.2482 310.514 22.2482 312.029C22.2482 313.064 21.8696 313.88 21.1122 314.477C20.3656 315.064 19.3896 315.357 18.1842 315.357ZM29.4774 304.893H23.6694V303.773H31.2054V303.965L26.9174 315.213H25.4934L29.4774 304.893ZM37.1807 314.205C39.1967 314.205 40.2047 312.728 40.2047 309.773V309.133C40.2047 307.8 39.9327 306.738 39.3887 305.949C38.8447 305.149 38.0981 304.749 37.1487 304.749C36.1781 304.749 35.4207 305.133 34.8767 305.901C34.3327 306.669 34.0607 307.757 34.0607 309.165V309.805C34.0607 311.224 34.3381 312.312 34.8927 313.069C35.4474 313.826 36.2101 314.205 37.1807 314.205ZM37.1807 315.357C35.8154 315.357 34.7167 314.85 33.8847 313.837C33.0527 312.824 32.6367 311.485 32.6367 309.821V309.181C32.6367 307.485 33.0367 306.136 33.8367 305.133C34.6474 304.13 35.7514 303.629 37.1487 303.629C38.5354 303.629 39.6234 304.136 40.4127 305.149C41.2127 306.162 41.6127 307.496 41.6127 309.149V309.789C41.6127 311.474 41.2181 312.824 40.4287 313.837C39.6501 314.85 38.5674 315.357 37.1807 315.357Z" fill="white"/>
<path opacity="0.6" d="M5.412 266.234H3.384V271.67H2.388V266.234H0.36V265.394H5.412V266.234ZM12.3053 265.394H13.3013V271.67H12.3053V265.394ZM6.90534 265.394H7.90134V267.59H9.01734C9.72934 267.59 10.3053 267.75 10.7453 268.07C11.1933 268.39 11.4173 268.894 11.4173 269.582V269.618C11.4173 270.298 11.1933 270.81 10.7453 271.154C10.2973 271.498 9.72134 271.67 9.01734 271.67H6.90534V265.394ZM9.07734 270.878C9.54934 270.878 9.88934 270.778 10.0973 270.578C10.3133 270.37 10.4213 270.05 10.4213 269.618V269.582C10.4213 269.182 10.3173 268.882 10.1093 268.682C9.90134 268.474 9.55734 268.37 9.07734 268.37H7.90134V270.878H9.07734ZM18.1154 271.778C17.2194 271.778 16.4834 271.49 15.9074 270.914C15.3314 270.33 15.0434 269.558 15.0434 268.598V268.502C15.0434 267.558 15.3354 266.786 15.9194 266.186C16.5114 265.586 17.2354 265.286 18.0914 265.286C18.8114 265.286 19.4234 265.466 19.9274 265.826C20.4314 266.178 20.7274 266.73 20.8154 267.482H19.8314C19.6874 266.57 19.1074 266.114 18.0914 266.114C17.5074 266.114 17.0234 266.334 16.6394 266.774C16.2634 267.206 16.0754 267.782 16.0754 268.502V268.598C16.0754 269.35 16.2594 269.93 16.6274 270.338C17.0034 270.746 17.5034 270.95 18.1274 270.95C18.5994 270.95 19.0034 270.818 19.3394 270.554C19.6834 270.282 19.8794 269.902 19.9274 269.414H20.8514C20.7874 270.102 20.4994 270.67 19.9874 271.118C19.4834 271.558 18.8594 271.778 18.1154 271.778ZM25.7709 265.394H26.7669V266.45C26.9509 266.13 27.2389 265.858 27.6309 265.634C28.0229 265.402 28.4429 265.286 28.8909 265.286C29.7309 265.286 30.4149 265.57 30.9429 266.138C31.4789 266.706 31.7469 267.474 31.7469 268.442V268.538C31.7469 269.506 31.4829 270.29 30.9549 270.89C30.4349 271.482 29.7469 271.778 28.8909 271.778C27.9309 271.778 27.2229 271.398 26.7669 270.638V273.854H25.7709V265.394ZM28.7949 270.95C29.4189 270.95 29.8949 270.75 30.2229 270.35C30.5509 269.942 30.7149 269.354 30.7149 268.586V268.49C30.7149 267.73 30.5309 267.146 30.1629 266.738C29.8029 266.322 29.3429 266.114 28.7829 266.114C28.1749 266.114 27.6789 266.318 27.2949 266.726C26.9189 267.126 26.7309 267.714 26.7309 268.49V268.586C26.7309 269.362 26.9149 269.95 27.2829 270.35C27.6589 270.75 28.1629 270.95 28.7949 270.95ZM35.0492 271.022L32.5892 265.394H33.6572L35.5772 269.894L37.3172 265.394H38.3372L34.8692 273.854H33.8612L35.0492 271.022ZM42.3968 271.778C41.4528 271.778 40.7048 271.474 40.1528 270.866C39.6008 270.258 39.3248 269.334 39.3248 268.094V267.71C39.3248 267.118 39.3488 266.594 39.3968 266.138C39.4448 265.674 39.5448 265.21 39.6968 264.746C39.8488 264.274 40.0488 263.882 40.2968 263.57C40.5448 263.258 40.8808 262.998 41.3048 262.79C41.7368 262.582 42.2448 262.462 42.8288 262.43L43.0688 262.418C43.9488 262.37 44.5448 262.282 44.8568 262.154L44.9888 262.994C44.5808 263.17 43.9448 263.278 43.0808 263.318L42.9008 263.33C41.9328 263.378 41.2408 263.694 40.8248 264.278C40.4168 264.854 40.1768 265.75 40.1048 266.966H40.1528C40.3688 266.526 40.6888 266.178 41.1128 265.922C41.5448 265.658 42.0448 265.526 42.6128 265.526C43.4848 265.526 44.1808 265.81 44.7008 266.378C45.2288 266.938 45.4928 267.666 45.4928 268.562V268.61C45.4928 269.578 45.2008 270.35 44.6168 270.926C44.0408 271.494 43.3008 271.778 42.3968 271.778ZM40.8968 270.338C41.2648 270.746 41.7688 270.95 42.4088 270.95C43.0488 270.95 43.5488 270.75 43.9088 270.35C44.2768 269.942 44.4608 269.366 44.4608 268.622V268.598C44.4608 267.902 44.2928 267.354 43.9568 266.954C43.6288 266.554 43.1488 266.354 42.5168 266.354C41.8528 266.354 41.3248 266.562 40.9328 266.978C40.5488 267.394 40.3568 267.962 40.3568 268.682V268.706C40.3568 269.386 40.5368 269.93 40.8968 270.338Z" fill="white"/>
<path d="M19.9762 254.396C18.7922 254.396 17.8376 254.065 17.1122 253.404C16.3976 252.743 16.0189 251.9 15.9762 250.876H17.2562C17.3202 251.601 17.5816 252.183 18.0402 252.62C18.4989 253.057 19.1549 253.276 20.0082 253.276C20.8829 253.276 21.5336 253.084 21.9602 252.7C22.3976 252.305 22.6162 251.761 22.6162 251.068C22.6162 249.585 21.8109 248.844 20.2002 248.844H19.3362V247.676H20.1362C21.5656 247.676 22.2802 247.025 22.2802 245.724C22.2802 245.159 22.1042 244.7 21.7522 244.348C21.4002 243.985 20.8829 243.804 20.2002 243.804C19.4962 243.804 18.9149 244.001 18.4562 244.396C18.0082 244.791 17.7469 245.313 17.6722 245.964H16.4562C16.4989 245.047 16.8669 244.268 17.5602 243.628C18.2536 242.988 19.1336 242.668 20.2002 242.668C21.2456 242.668 22.0776 242.967 22.6962 243.564C23.3256 244.151 23.6402 244.86 23.6402 245.692C23.6402 246.855 23.0376 247.687 21.8322 248.188C23.3042 248.593 24.0402 249.553 24.0402 251.068C24.0402 252.103 23.6616 252.919 22.9042 253.516C22.1576 254.103 21.1816 254.396 19.9762 254.396ZM29.9956 254.38C28.9503 254.38 28.1129 254.124 27.4836 253.612C26.8543 253.1 26.4649 252.375 26.3156 251.436H27.6596C27.7983 252.033 28.0489 252.487 28.4116 252.796C28.7849 253.095 29.3236 253.244 30.0276 253.244C30.9556 253.244 31.6703 252.865 32.1716 252.108C32.6729 251.351 32.9343 250.215 32.9556 248.7C32.6676 249.18 32.2676 249.553 31.7556 249.82C31.2436 250.087 30.6569 250.22 29.9956 250.22C28.8863 250.22 27.9796 249.868 27.2756 249.164C26.5823 248.46 26.2356 247.564 26.2356 246.476C26.2356 245.324 26.5929 244.401 27.3076 243.708C28.0223 243.004 28.9823 242.652 30.1876 242.652C31.5423 242.652 32.5663 243.089 33.2596 243.964C33.9529 244.839 34.2996 246.108 34.2996 247.772V248.492C34.2996 250.401 33.9263 251.863 33.1796 252.876C32.4436 253.879 31.3823 254.38 29.9956 254.38ZM30.2036 249.132C30.9716 249.132 31.6009 248.903 32.0916 248.444C32.5823 247.985 32.8276 247.388 32.8276 246.652C32.8276 245.735 32.5823 245.02 32.0916 244.508C31.6116 243.996 30.9769 243.74 30.1876 243.74C29.4409 243.74 28.8329 243.985 28.3636 244.476C27.8943 244.967 27.6596 245.612 27.6596 246.412C27.6596 247.244 27.8889 247.905 28.3476 248.396C28.8063 248.887 29.4249 249.132 30.2036 249.132ZM41.129 253.244C43.145 253.244 44.153 251.767 44.153 248.812V248.172C44.153 246.839 43.881 245.777 43.337 244.988C42.793 244.188 42.0463 243.788 41.097 243.788C40.1263 243.788 39.369 244.172 38.825 244.94C38.281 245.708 38.009 246.796 38.009 248.204V248.844C38.009 250.263 38.2863 251.351 38.841 252.108C39.3957 252.865 40.1583 253.244 41.129 253.244ZM41.129 254.396C39.7637 254.396 38.665 253.889 37.833 252.876C37.001 251.863 36.585 250.524 36.585 248.86V248.22C36.585 246.524 36.985 245.175 37.785 244.172C38.5957 243.169 39.6997 242.668 41.097 242.668C42.4837 242.668 43.5717 243.175 44.361 244.188C45.161 245.201 45.561 246.535 45.561 248.188V248.828C45.561 250.513 45.1663 251.863 44.377 252.876C43.5983 253.889 42.5157 254.396 41.129 254.396Z" fill="white"/>
<circle cx="443" cy="273.904" r="5" fill="#F1D5C0"/>
<circle cx="304" cy="333.904" r="5" fill="#F1D5C0"/>
<circle cx="595" cy="223.904" r="5" fill="#F1D5C0"/>
<circle cx="747" cy="54.9043" r="5" fill="#F1D5C0"/>
<path opacity="0.6" d="M5.412 83.3531H3.384V88.7891H2.388V83.3531H0.36V82.5131H5.412V83.3531ZM12.3053 82.5131H13.3013V88.7891H12.3053V82.5131ZM6.90534 82.5131H7.90134V84.7091H9.01734C9.72934 84.7091 10.3053 84.8691 10.7453 85.1891C11.1933 85.5091 11.4173 86.0131 11.4173 86.7011V86.7371C11.4173 87.4171 11.1933 87.9291 10.7453 88.2731C10.2973 88.6171 9.72134 88.7891 9.01734 88.7891H6.90534V82.5131ZM9.07734 87.9971C9.54934 87.9971 9.88934 87.8971 10.0973 87.6971C10.3133 87.4891 10.4213 87.1691 10.4213 86.7371V86.7011C10.4213 86.3011 10.3173 86.0011 10.1093 85.8011C9.90134 85.5931 9.55734 85.4891 9.07734 85.4891H7.90134V87.9971H9.07734ZM18.1154 88.8971C17.2194 88.8971 16.4834 88.6091 15.9074 88.0331C15.3314 87.4491 15.0434 86.6771 15.0434 85.7171V85.6211C15.0434 84.6771 15.3354 83.9051 15.9194 83.3051C16.5114 82.7051 17.2354 82.4051 18.0914 82.4051C18.8114 82.4051 19.4234 82.5851 19.9274 82.9451C20.4314 83.2971 20.7274 83.8491 20.8154 84.6011H19.8314C19.6874 83.6891 19.1074 83.2331 18.0914 83.2331C17.5074 83.2331 17.0234 83.4531 16.6394 83.8931C16.2634 84.3251 16.0754 84.9011 16.0754 85.6211V85.7171C16.0754 86.4691 16.2594 87.0491 16.6274 87.4571C17.0034 87.8651 17.5034 88.0691 18.1274 88.0691C18.5994 88.0691 19.0034 87.9371 19.3394 87.6731C19.6834 87.4011 19.8794 87.0211 19.9274 86.5331H20.8514C20.7874 87.2211 20.4994 87.7891 19.9874 88.2371C19.4834 88.6771 18.8594 88.8971 18.1154 88.8971ZM25.7709 82.5131H26.7669V83.5691C26.9509 83.2491 27.2389 82.9771 27.6309 82.7531C28.0229 82.5211 28.4429 82.4051 28.8909 82.4051C29.7309 82.4051 30.4149 82.6891 30.9429 83.2571C31.4789 83.8251 31.7469 84.5931 31.7469 85.5611V85.6571C31.7469 86.6251 31.4829 87.4091 30.9549 88.0091C30.4349 88.6011 29.7469 88.8971 28.8909 88.8971C27.9309 88.8971 27.2229 88.5171 26.7669 87.7571V90.9731H25.7709V82.5131ZM28.7949 88.0691C29.4189 88.0691 29.8949 87.8691 30.2229 87.4691C30.5509 87.0611 30.7149 86.4731 30.7149 85.7051V85.6091C30.7149 84.8491 30.5309 84.2651 30.1629 83.8571C29.8029 83.4411 29.3429 83.2331 28.7829 83.2331C28.1749 83.2331 27.6789 83.4371 27.2949 83.8451C26.9189 84.2451 26.7309 84.8331 26.7309 85.6091V85.7051C26.7309 86.4811 26.9149 87.0691 27.2829 87.4691C27.6589 87.8691 28.1629 88.0691 28.7949 88.0691ZM35.0492 88.1411L32.5892 82.5131H33.6572L35.5772 87.0131L37.3172 82.5131H38.3372L34.8692 90.9731H33.8612L35.0492 88.1411ZM42.3968 88.8971C41.4528 88.8971 40.7048 88.5931 40.1528 87.9851C39.6008 87.3771 39.3248 86.4531 39.3248 85.2131V84.8291C39.3248 84.2371 39.3488 83.7131 39.3968 83.2571C39.4448 82.7931 39.5448 82.3291 39.6968 81.8651C39.8488 81.3931 40.0488 81.0011 40.2968 80.6891C40.5448 80.3771 40.8808 80.1171 41.3048 79.9091C41.7368 79.7011 42.2448 79.5811 42.8288 79.5491L43.0688 79.5371C43.9488 79.4891 44.5448 79.4011 44.8568 79.2731L44.9888 80.1131C44.5808 80.2891 43.9448 80.3971 43.0808 80.4371L42.9008 80.4491C41.9328 80.4971 41.2408 80.8131 40.8248 81.3971C40.4168 81.9731 40.1768 82.8691 40.1048 84.0851H40.1528C40.3688 83.6451 40.6888 83.2971 41.1128 83.0411C41.5448 82.7771 42.0448 82.6451 42.6128 82.6451C43.4848 82.6451 44.1808 82.9291 44.7008 83.4971C45.2288 84.0571 45.4928 84.7851 45.4928 85.6811V85.7291C45.4928 86.6971 45.2008 87.4691 44.6168 88.0451C44.0408 88.6131 43.3008 88.8971 42.3968 88.8971ZM40.8968 87.4571C41.2648 87.8651 41.7688 88.0691 42.4088 88.0691C43.0488 88.0691 43.5488 87.8691 43.9088 87.4691C44.2768 87.0611 44.4608 86.4851 44.4608 85.7411V85.7171C44.4608 85.0211 44.2928 84.4731 43.9568 84.0731C43.6288 83.6731 43.1488 83.4731 42.5168 83.4731C41.8528 83.4731 41.3248 83.6811 40.9328 84.0971C40.5488 84.5131 40.3568 85.0811 40.3568 85.8011V85.8251C40.3568 86.5051 40.5368 87.0491 40.8968 87.4571Z" fill="white"/>
<path d="M18.9988 71.266H13.2708V70.818L18.5028 62.226H20.3588V70.13H21.9428V71.266H20.3588V73.666H18.9988V71.266ZM18.9988 70.13V63.282L15.0308 70.13H18.9988ZM27.9413 73.81C25.1999 73.81 23.8293 72.0767 23.8293 68.61V68.338C23.8293 66.3327 24.2346 64.7913 25.0453 63.714C25.8666 62.626 26.9546 62.082 28.3093 62.082C29.2266 62.082 29.9733 62.3167 30.5493 62.786C31.1359 63.2553 31.5039 63.9433 31.6533 64.85H30.3253C30.1973 64.2953 29.9679 63.8847 29.6373 63.618C29.3066 63.3513 28.8319 63.218 28.2133 63.218C27.3279 63.218 26.6133 63.6127 26.0693 64.402C25.5253 65.1913 25.2373 66.322 25.2053 67.794C25.8239 66.7593 26.8053 66.242 28.1493 66.242C29.2693 66.242 30.1706 66.5993 30.8533 67.314C31.5466 68.018 31.8933 68.9087 31.8933 69.986C31.8933 71.138 31.5359 72.066 30.8213 72.77C30.1066 73.4633 29.1466 73.81 27.9413 73.81ZM27.9413 72.722C28.6879 72.722 29.2959 72.4767 29.7653 71.986C30.2346 71.4953 30.4693 70.85 30.4693 70.05C30.4693 69.218 30.2399 68.5567 29.7813 68.066C29.3226 67.5753 28.7039 67.33 27.9253 67.33C27.1573 67.33 26.5279 67.5647 26.0373 68.034C25.5466 68.5033 25.3013 69.1113 25.3013 69.858C25.3013 70.7647 25.5413 71.4687 26.0213 71.97C26.5119 72.4713 27.1519 72.722 27.9413 72.722ZM38.5489 72.658C40.5649 72.658 41.5729 71.1807 41.5729 68.226V67.586C41.5729 66.2527 41.3009 65.1913 40.7569 64.402C40.2129 63.602 39.4662 63.202 38.5169 63.202C37.5462 63.202 36.7889 63.586 36.2449 64.354C35.7009 65.122 35.4289 66.21 35.4289 67.618V68.258C35.4289 69.6767 35.7062 70.7647 36.2609 71.522C36.8156 72.2793 37.5782 72.658 38.5489 72.658ZM38.5489 73.81C37.1836 73.81 36.0849 73.3033 35.2529 72.29C34.4209 71.2767 34.0049 69.938 34.0049 68.274V67.634C34.0049 65.938 34.4049 64.5887 35.2049 63.586C36.0156 62.5833 37.1196 62.082 38.5169 62.082C39.9036 62.082 40.9916 62.5887 41.7809 63.602C42.5809 64.6153 42.9809 65.9487 42.9809 67.602V68.242C42.9809 69.9273 42.5862 71.2767 41.7969 72.29C41.0182 73.3033 39.9356 73.81 38.5489 73.81Z" fill="white"/>
<path opacity="0.6" d="M5.412 25.687H3.384V31.123H2.388V25.687H0.36V24.847H5.412V25.687ZM12.3053 24.847H13.3013V31.123H12.3053V24.847ZM6.90534 24.847H7.90134V27.043H9.01734C9.72934 27.043 10.3053 27.203 10.7453 27.523C11.1933 27.843 11.4173 28.347 11.4173 29.035V29.071C11.4173 29.751 11.1933 30.263 10.7453 30.607C10.2973 30.951 9.72134 31.123 9.01734 31.123H6.90534V24.847ZM9.07734 30.331C9.54934 30.331 9.88934 30.231 10.0973 30.031C10.3133 29.823 10.4213 29.503 10.4213 29.071V29.035C10.4213 28.635 10.3173 28.335 10.1093 28.135C9.90134 27.927 9.55734 27.823 9.07734 27.823H7.90134V30.331H9.07734ZM18.1154 31.231C17.2194 31.231 16.4834 30.943 15.9074 30.367C15.3314 29.783 15.0434 29.011 15.0434 28.051V27.955C15.0434 27.011 15.3354 26.239 15.9194 25.639C16.5114 25.039 17.2354 24.739 18.0914 24.739C18.8114 24.739 19.4234 24.919 19.9274 25.279C20.4314 25.631 20.7274 26.183 20.8154 26.935H19.8314C19.6874 26.023 19.1074 25.567 18.0914 25.567C17.5074 25.567 17.0234 25.787 16.6394 26.227C16.2634 26.659 16.0754 27.235 16.0754 27.955V28.051C16.0754 28.803 16.2594 29.383 16.6274 29.791C17.0034 30.199 17.5034 30.403 18.1274 30.403C18.5994 30.403 19.0034 30.271 19.3394 30.007C19.6834 29.735 19.8794 29.355 19.9274 28.867H20.8514C20.7874 29.555 20.4994 30.123 19.9874 30.571C19.4834 31.011 18.8594 31.231 18.1154 31.231ZM25.7709 24.847H26.7669V25.903C26.9509 25.583 27.2389 25.311 27.6309 25.087C28.0229 24.855 28.4429 24.739 28.8909 24.739C29.7309 24.739 30.4149 25.023 30.9429 25.591C31.4789 26.159 31.7469 26.927 31.7469 27.895V27.991C31.7469 28.959 31.4829 29.743 30.9549 30.343C30.4349 30.935 29.7469 31.231 28.8909 31.231C27.9309 31.231 27.2229 30.851 26.7669 30.091V33.307H25.7709V24.847ZM28.7949 30.403C29.4189 30.403 29.8949 30.203 30.2229 29.803C30.5509 29.395 30.7149 28.807 30.7149 28.039V27.943C30.7149 27.183 30.5309 26.599 30.1629 26.191C29.8029 25.775 29.3429 25.567 28.7829 25.567C28.1749 25.567 27.6789 25.771 27.2949 26.179C26.9189 26.579 26.7309 27.167 26.7309 27.943V28.039C26.7309 28.815 26.9149 29.403 27.2829 29.803C27.6589 30.203 28.1629 30.403 28.7949 30.403ZM35.0492 30.475L32.5892 24.847H33.6572L35.5772 29.347L37.3172 24.847H38.3372L34.8692 33.307H33.8612L35.0492 30.475ZM42.3968 31.231C41.4528 31.231 40.7048 30.927 40.1528 30.319C39.6008 29.711 39.3248 28.787 39.3248 27.547V27.163C39.3248 26.571 39.3488 26.047 39.3968 25.591C39.4448 25.127 39.5448 24.663 39.6968 24.199C39.8488 23.727 40.0488 23.335 40.2968 23.023C40.5448 22.711 40.8808 22.451 41.3048 22.243C41.7368 22.035 42.2448 21.915 42.8288 21.883L43.0688 21.871C43.9488 21.823 44.5448 21.735 44.8568 21.607L44.9888 22.447C44.5808 22.623 43.9448 22.731 43.0808 22.771L42.9008 22.783C41.9328 22.831 41.2408 23.147 40.8248 23.731C40.4168 24.307 40.1768 25.203 40.1048 26.419H40.1528C40.3688 25.979 40.6888 25.631 41.1128 25.375C41.5448 25.111 42.0448 24.979 42.6128 24.979C43.4848 24.979 44.1808 25.263 44.7008 25.831C45.2288 26.391 45.4928 27.119 45.4928 28.015V28.063C45.4928 29.031 45.2008 29.803 44.6168 30.379C44.0408 30.947 43.3008 31.231 42.3968 31.231ZM40.8968 29.791C41.2648 30.199 41.7688 30.403 42.4088 30.403C43.0488 30.403 43.5488 30.203 43.9088 29.803C44.2768 29.395 44.4608 28.819 44.4608 28.075V28.051C44.4608 27.355 44.2928 26.807 43.9568 26.407C43.6288 26.007 43.1488 25.807 42.5168 25.807C41.8528 25.807 41.3248 26.015 40.9328 26.431C40.5488 26.847 40.3568 27.415 40.3568 28.135V28.159C40.3568 28.839 40.5368 29.383 40.8968 29.791Z" fill="white"/>
<path d="M17.1428 16.144C15.9588 16.144 15.0521 15.856 14.4228 15.28C13.7934 14.6933 13.4308 13.904 13.3348 12.912H14.6628C14.7908 13.6053 15.0308 14.1333 15.3828 14.496C15.7348 14.848 16.3161 15.024 17.1268 15.024C17.9054 15.024 18.5188 14.7787 18.9668 14.288C19.4148 13.7973 19.6388 13.12 19.6388 12.256C19.6388 11.4453 19.4201 10.8 18.9828 10.32C18.5561 9.82933 17.9748 9.584 17.2388 9.584C16.5988 9.584 16.0708 9.67467 15.6548 9.856C15.2388 10.0373 14.8654 10.3147 14.5348 10.688H14.0228V4.56H20.4548V5.76H15.1748V9.248C15.7401 8.72533 16.5188 8.464 17.5108 8.464C18.5561 8.464 19.4094 8.81067 20.0708 9.504C20.7321 10.1867 21.0628 11.104 21.0628 12.256C21.0628 13.44 20.6894 14.384 19.9428 15.088C19.1961 15.792 18.2628 16.144 17.1428 16.144ZM27.8108 14.992C29.8268 14.992 30.8348 13.5147 30.8348 10.56V9.92C30.8348 8.58667 30.5628 7.52533 30.0188 6.736C29.4748 5.936 28.7281 5.536 27.7788 5.536C26.8081 5.536 26.0508 5.92 25.5068 6.688C24.9628 7.456 24.6908 8.544 24.6908 9.952V10.592C24.6908 12.0107 24.9681 13.0987 25.5228 13.856C26.0774 14.6133 26.8401 14.992 27.8108 14.992ZM27.8108 16.144C26.4454 16.144 25.3468 15.6373 24.5148 14.624C23.6828 13.6107 23.2668 12.272 23.2668 10.608V9.968C23.2668 8.272 23.6668 6.92267 24.4668 5.92C25.2774 4.91733 26.3814 4.416 27.7788 4.416C29.1654 4.416 30.2534 4.92267 31.0428 5.936C31.8428 6.94933 32.2428 8.28267 32.2428 9.936V10.576C32.2428 12.2613 31.8481 13.6107 31.0588 14.624C30.2801 15.6373 29.1974 16.144 27.8108 16.144ZM39.0645 14.992C41.0805 14.992 42.0885 13.5147 42.0885 10.56V9.92C42.0885 8.58667 41.8165 7.52533 41.2725 6.736C40.7285 5.936 39.9819 5.536 39.0325 5.536C38.0619 5.536 37.3045 5.92 36.7605 6.688C36.2165 7.456 35.9445 8.544 35.9445 9.952V10.592C35.9445 12.0107 36.2219 13.0987 36.7765 13.856C37.3312 14.6133 38.0939 14.992 39.0645 14.992ZM39.0645 16.144C37.6992 16.144 36.6005 15.6373 35.7685 14.624C34.9365 13.6107 34.5205 12.272 34.5205 10.608V9.968C34.5205 8.272 34.9205 6.92267 35.7205 5.92C36.5312 4.91733 37.6352 4.416 39.0325 4.416C40.4192 4.416 41.5072 4.92267 42.2965 5.936C43.0965 6.94933 43.4965 8.28267 43.4965 9.936V10.576C43.4965 12.2613 43.1019 13.6107 42.3125 14.624C41.5339 15.6373 40.4512 16.144 39.0645 16.144Z" fill="white"/>
<rect opacity="0.3" x="303" y="337.904" width="1" height="99" fill="#F1D5C0"/>
<rect opacity="0.3" x="442" y="271.904" width="1" height="165" fill="#F1D5C0"/>
<rect opacity="0.3" x="594" y="226.904" width="1" height="210" fill="#F1D5C0"/>
<rect opacity="0.3" x="747" y="53.9043" width="1" height="383" fill="#F1D5C0"/>
<path d="M207 422.904L304.669 333.772L453.884 270.89L594.955 225.974L748.784 53.7975L852 4.9043" stroke="url(#paint0_radial)"/>
<defs>
<radialGradient id="paint0_radial" cx="0" cy="0" r="1" gradientUnits="userSpaceOnUse" gradientTransform="translate(492 181.904) rotate(41.3511) scale(261.098 460.464)">
<stop stop-color="#F1D5C0"/>
<stop offset="0.777827" stop-color="#F1D5C0" stop-opacity="0"/>
</radialGradient>
</defs>
</svg>
