<svg width="77" height="31" viewBox="0 0 77 31" fill="none" xmlns="http://www.w3.org/2000/svg">
<g opacity="0.3">
<path fill-rule="evenodd" clip-rule="evenodd" d="M0.372668 27.491L0.73856 27.3616V25.7338L1.11123 25.509V30.0314H0V28.928H0.372668V27.491ZM2.17503 26.8099L2.54092 26.6601V24.5692L2.91359 24.3035V30.0518H1.80236V28.819L2.17503 28.785V26.8099ZM3.97739 26.0198L4.34328 25.8428V23.173L4.74305 22.8529V30.0518H3.60472V28.6283L3.97739 28.5739V26.0198ZM5.77974 25.1072L6.14564 24.9029V21.4975L6.5183 21.1298V30.0518H5.42063V28.3423L5.7933 28.2742L5.77974 25.1072ZM7.5821 24.0379L7.94799 23.7996V19.6042L8.32066 19.1751V30.0518H7.20943V27.9541L7.5821 27.8587V24.0379ZM9.38446 22.7984L9.75713 22.5191V17.3907L10.123 16.8867V30.0518H9.01857V27.4501L9.38446 27.3275V22.7984ZM11.1868 21.3409L11.5595 21.014V14.7481L11.9254 14.1556V30.0518H10.8413V26.7963L11.2071 26.6396L11.1868 21.3409ZM12.9892 19.6042L13.3618 19.2023V11.5675C13.4838 11.3155 13.6125 11.0703 13.7277 10.8183V30.0518H12.6233V25.9654L12.9892 25.7747V19.6042ZM14.7915 17.4179L15.1642 16.8867V7.46067C15.2929 7.12013 15.4149 6.7796 15.5301 6.43225V30.0518H14.4256V24.9301L14.7915 24.6849V17.4179ZM17.3325 30.0586H16.2619V23.602L16.6278 23.2888V14.3872C16.7633 14.1079 16.8853 13.8355 17.0004 13.5563V0.53418H17.3663L17.3325 30.0586Z" fill="#DCDBD9"/>
<path d="M36.5712 19.6981V11.3978H41.1852V12.5451H37.9128V14.6139H41.1852V15.7924H37.9128V18.4443H41.1852V19.6981H36.5712ZM44.4702 19.6981V11.3978H46.2757C48.3006 11.3978 50.2064 11.4668 51.1154 13.5795C51.3647 14.2028 51.4842 14.8705 51.4665 15.5417C51.4775 16.21 51.3517 16.8735 51.0966 17.4914C50.2565 19.4661 48.5639 19.6981 46.6393 19.6981H44.4702ZM45.8243 18.4443H46.9527C48.2692 18.4443 49.3287 18.275 49.8616 16.9083C50.0274 16.4656 50.1082 15.9956 50.0998 15.5229C50.1091 15.0501 50.0282 14.5799 49.8616 14.1374C49.3099 12.7143 48.1627 12.5952 46.796 12.5952H45.8243V18.4443ZM56.7952 19.9802L53.1027 11.3916H54.5007L56.3814 15.7799C56.5736 16.2049 56.7227 16.648 56.8265 17.1027C56.9342 16.6491 57.0832 16.2063 57.2716 15.7799L59.1523 11.3916H60.5378L56.7952 19.9802ZM62.7946 19.6981V11.3978H67.4086V12.5451H64.1362V14.6139H67.4086V15.7924H64.1362V18.4443H67.4086V19.6981H62.7946ZM69.747 19.6981L72.4239 15.3724L70.0542 11.4292H71.4647L72.6558 13.429C72.8188 13.6923 72.9568 13.9744 73.0947 14.244C73.2389 13.9744 73.3893 13.7049 73.5523 13.4416L74.8061 11.4041H76.1853L73.7717 15.3097L76.3671 19.6981H74.8876L73.5022 17.3534C73.3517 17.0839 73.2075 16.7955 73.0633 16.5197C72.9254 16.7955 72.775 17.0713 72.612 17.3346L71.1638 19.6981H69.747ZM25.5439 19.6981V11.0781L30.7786 16.1247C31.0954 16.4425 31.3947 16.7774 31.6751 17.1278V11.3978H32.9289V19.9864L27.5751 14.8458C27.2816 14.5618 27.0151 14.2512 26.7789 13.918V19.6981H25.5439Z" fill="#DCDBD9"/>
<path d="M74.9747 24.5955V24.1253H76.3664C76.3826 24.3745 76.3463 24.6244 76.2599 24.8587C76.1735 25.093 76.0389 25.3066 75.8649 25.4857C75.7121 25.6301 75.5317 25.7422 75.3346 25.8155C75.1375 25.8887 74.9277 25.9215 74.7177 25.912C74.5051 25.9204 74.293 25.8841 74.0954 25.8052C73.8977 25.7264 73.7189 25.6068 73.5705 25.4544C73.4068 25.2899 73.278 25.0941 73.1918 24.8786C73.1056 24.6632 73.0638 24.4325 73.0689 24.2006C73.0677 23.9582 73.1123 23.7179 73.2006 23.4922C73.2838 23.2892 73.4051 23.1041 73.5579 22.9467C73.7173 22.789 73.9072 22.6653 74.1159 22.5831C74.3711 22.4814 74.6449 22.435 74.9194 22.4469C75.1939 22.4588 75.4627 22.5287 75.7082 22.6521C75.9305 22.7718 76.1183 22.9467 76.2536 23.1599L75.8461 23.4483C75.739 23.2911 75.5975 23.1603 75.4324 23.0659C75.2423 22.9561 75.0246 22.9039 74.8055 22.9154C74.6403 22.912 74.476 22.9412 74.3222 23.0015C74.1683 23.0617 74.0279 23.1518 73.909 23.2665C73.7941 23.3876 73.7046 23.5304 73.6457 23.6865C73.5827 23.8527 73.5508 24.0291 73.5516 24.2068C73.5438 24.5462 73.6699 24.875 73.9027 25.1221C74.0118 25.2352 74.1436 25.3239 74.2895 25.3823C74.4354 25.4406 74.592 25.4673 74.749 25.4606C74.8883 25.4644 75.0269 25.4397 75.1563 25.3879C75.2856 25.3362 75.4031 25.2585 75.5013 25.1597C75.6601 25.0091 75.7601 24.8069 75.7834 24.5892L74.9747 24.5955ZM67.571 25.8493H67.0569V22.2822L69.5081 24.84V22.5079H70.0222V26.0813L67.571 23.5235V25.8493ZM63.3331 22.4828H63.8534V25.8493H63.3331V22.4828ZM60.4869 22.9656H59.7096V25.8493H59.1955V22.9656H58.4182V22.4828H60.4869V22.9656ZM54.5376 22.4828H55.0517V25.3666H56.0422V25.8493H54.5376V22.4828ZM48.8265 22.4828H49.3469V24.514C49.3318 24.7122 49.3685 24.911 49.4534 25.0908C49.5156 25.1916 49.6018 25.2756 49.7042 25.3353C49.8172 25.4052 49.9474 25.4422 50.0803 25.4422C50.2132 25.4422 50.3435 25.4052 50.4565 25.3353C50.5574 25.2737 50.6432 25.1901 50.7072 25.0908C50.7879 24.9096 50.8244 24.712 50.8138 24.514V22.5079H51.3279V24.6707C51.34 24.9927 51.2278 25.307 51.0144 25.5484C50.8965 25.6774 50.7518 25.7791 50.5904 25.8462C50.4291 25.9134 50.255 25.9444 50.0803 25.9371C49.9051 25.9416 49.7309 25.9094 49.569 25.8424C49.407 25.7755 49.2608 25.6753 49.14 25.5484C48.9266 25.307 48.8144 24.9927 48.8265 24.6707V22.4828ZM45.692 22.9906L45.2782 23.2289C45.2473 23.1478 45.1954 23.0764 45.1278 23.022C45.0247 22.9394 44.8962 22.895 44.7642 22.8966C44.7007 22.892 44.6369 22.9001 44.5766 22.9206C44.5163 22.9411 44.4607 22.9734 44.4131 23.0157C44.3726 23.0519 44.3405 23.0964 44.3188 23.1462C44.2972 23.1959 44.2866 23.2498 44.2877 23.3041C44.2877 23.4733 44.4068 23.6113 44.6513 23.7116L44.9899 23.8495C45.2709 23.8886 45.5248 24.0377 45.6959 24.264C45.8669 24.4903 45.9411 24.7753 45.902 25.0563C45.8629 25.3373 45.7138 25.5912 45.4875 25.7623C45.2612 25.9333 44.9762 26.0075 44.6952 25.9684C44.5472 25.9748 44.3996 25.9483 44.263 25.8909C44.1264 25.8334 44.0043 25.7465 43.9053 25.6362C43.7396 25.4543 43.6383 25.223 43.6169 24.9779L44.131 24.8651C44.1278 25.0206 44.1763 25.1727 44.2689 25.2976C44.3227 25.363 44.3909 25.4151 44.4681 25.4499C44.5453 25.4846 44.6294 25.5012 44.714 25.4982C44.7871 25.5006 44.8599 25.4879 44.9278 25.461C44.9957 25.434 45.0574 25.3933 45.109 25.3415C45.1629 25.2886 45.2052 25.225 45.2333 25.1549C45.2613 25.0847 45.2745 25.0095 45.272 24.934C45.2757 24.8681 45.2654 24.8021 45.2416 24.7405C45.2178 24.6788 45.1812 24.623 45.1341 24.5767C45.0317 24.4824 44.9126 24.408 44.783 24.3573L44.457 24.2194C44.2671 24.1687 44.0983 24.0587 43.9753 23.9053C43.8524 23.7519 43.7817 23.5632 43.7737 23.3668C43.7729 23.2499 43.7959 23.1341 43.8411 23.0264C43.8864 22.9186 43.953 22.8212 44.037 22.7399C44.1337 22.6508 44.2474 22.5821 44.3713 22.5379C44.4951 22.4937 44.6266 22.475 44.7579 22.4828C45.0036 22.4725 45.2446 22.5528 45.435 22.7085C45.5395 22.7935 45.6268 22.8978 45.692 23.0157V22.9906ZM38.1691 25.8493H37.6739V22.2822L40.1251 24.84V22.5079H40.6391V26.0813L38.1629 23.5235L38.1691 25.8493ZM31.9628 25.0845C32.0785 25.2022 32.2173 25.2947 32.3705 25.3562C32.5237 25.4177 32.688 25.4468 32.853 25.4418C33.0189 25.447 33.1842 25.4179 33.3384 25.3564C33.4926 25.2949 33.6325 25.2024 33.7495 25.0845C33.9721 24.8315 34.0948 24.5062 34.0948 24.1692C34.0948 23.8323 33.9721 23.5069 33.7495 23.2539C33.6325 23.136 33.4926 23.0435 33.3384 22.982C33.1842 22.9205 33.0189 22.8915 32.853 22.8966C32.688 22.8916 32.5237 22.9207 32.3705 22.9822C32.2173 23.0437 32.0785 23.1362 31.9628 23.2539C31.7402 23.5069 31.6174 23.8323 31.6174 24.1692C31.6174 24.5062 31.7402 24.8315 31.9628 25.0845ZM31.5992 22.9217C31.8891 22.6189 32.2753 22.4265 32.6916 22.3774C33.1079 22.3283 33.5283 22.4256 33.8807 22.6525C34.2331 22.8795 34.4956 23.222 34.6231 23.6213C34.7506 24.0206 34.7352 24.4518 34.5795 24.841C34.4238 25.2302 34.1376 25.5531 33.7699 25.7543C33.4021 25.9555 32.9759 26.0225 32.5642 25.9438C32.1525 25.8651 31.7809 25.6456 31.5134 25.323C31.2458 25.0003 31.0988 24.5946 31.0977 24.1755C31.0937 23.9479 31.1355 23.7219 31.2206 23.5108C31.3057 23.2998 31.4323 23.1079 31.5929 22.9467L31.5992 22.9217ZM28.2264 22.6646V23.2915C27.9808 23.0536 27.6532 22.9189 27.3111 22.9154C27.1454 22.9092 26.9803 22.9385 26.8268 23.0012C26.6733 23.0639 26.5349 23.1586 26.4209 23.279C26.1906 23.5293 26.0689 23.8607 26.0824 24.2006C26.0768 24.366 26.1051 24.5309 26.1655 24.685C26.2258 24.8392 26.317 24.9794 26.4335 25.097C26.5468 25.2166 26.6841 25.3109 26.8365 25.3736C26.9888 25.4362 27.1528 25.4659 27.3174 25.4606C27.6598 25.4561 27.9866 25.3164 28.2264 25.072V25.6989C27.9464 25.8668 27.6251 25.9536 27.2986 25.9496C27.0704 25.9521 26.844 25.9091 26.6326 25.8231C26.4212 25.7372 26.229 25.6099 26.0673 25.4488C25.9057 25.2877 25.7777 25.096 25.691 24.8849C25.6042 24.6738 25.5604 24.4476 25.5621 24.2194C25.5535 23.9737 25.5977 23.729 25.6918 23.5019C25.7859 23.2748 25.9277 23.0705 26.1075 22.9029C26.2714 22.7533 26.4632 22.6376 26.6719 22.5623C26.8806 22.487 27.1021 22.4536 27.3237 22.464C27.6381 22.4504 27.9497 22.5289 28.2202 22.6897L28.2264 22.6646Z" fill="#DCDBD9"/>
</g>
</svg>
