<svg width="70" height="87" viewBox="0 0 70 87" fill="none" xmlns="http://www.w3.org/2000/svg">
<g clip-path="url(#clip0)">
<path d="M36.4279 25.6007L36.3774 23.6691C41.563 19.2918 47.5478 17.2998 50.0901 16.4775C50.14 16.9891 50.1801 17.5048 50.2103 18.0247C47.8856 18.8381 41.1904 21.266 36.4279 25.6007Z" fill="white"/>
<path d="M36.2349 18.1681C40.9085 14.2409 46.3762 11.8361 49.0943 10.7568C49.222 11.2471 49.3381 11.7469 49.4426 12.2561C48.0931 12.8108 41.3961 15.4159 36.2819 20.1157L36.2349 18.1681Z" fill="white"/>
<path d="M36.0796 12.1731C38.0856 10.2999 41.7127 7.44313 47.0968 5.18359C47.3104 5.63255 47.5153 6.0945 47.7114 6.56944C41.6413 9.22772 38.0821 12.1961 36.1336 14.2731L36.0796 12.1731Z" fill="white"/>
<path d="M35.916 5.92587C37.3996 4.58964 39.9854 2.52505 43.9068 0.254883C44.2388 0.629404 44.5598 1.02637 44.8698 1.44579C42.2857 2.94683 38.4688 5.46865 35.97 7.97451L35.916 5.92587Z" fill="white"/>
<path d="M32.9659 45.3909C29.7306 41.3876 24.7296 39.1121 21.3393 37.7705H21.3219C20.9411 37.1385 20.5813 36.4709 20.2423 35.768L20.3746 35.814C25.4993 37.6571 29.459 39.6207 32.9659 43.103V40.1435C28.8582 34.5434 22.6331 31.855 18.3634 30.7031C18.2125 30.149 18.0721 29.5836 17.942 29.0071C24.6547 30.6286 29.4067 33.7672 32.9659 37.712V33.87C28.9714 29.1116 23.2948 26.0351 17.2333 24.6085C17.1793 24.0769 17.1341 23.531 17.101 22.9834C22.0846 24.029 28.1495 26.6146 32.9659 31.5821V27.8038C28.3376 22.069 19.7965 18.9659 17.0923 18.0249C17.1236 17.5062 17.1643 16.9905 17.2142 16.4778C20.0978 17.4099 27.4147 19.8449 32.9659 25.5691V22.1115C27.7908 16.1481 19.3838 12.8855 17.8585 12.2564C17.9647 11.7478 18.0831 11.248 18.2067 10.7554C21.3062 11.9959 27.9701 14.936 32.9642 19.8981V16.5309C32.0657 15.1291 28.5848 10.5232 19.5893 6.57834C19.7855 6.10576 19.991 5.64381 20.2057 5.1925C28.0311 8.48344 32.1493 13.0185 32.9642 13.9825V9.9065C30.8938 6.84594 25.6856 3.33879 22.4328 1.44965C22.7428 1.02964 23.0632 0.634441 23.394 0.258739C30.1851 4.19476 32.9711 7.49988 32.9711 7.49988V0H34.5383V47.4945H32.9711L32.9659 45.3909Z" fill="white"/>
<path d="M50.0711 24.6081C45.0683 25.7849 40.3303 28.0869 36.5813 31.5196L36.5308 29.5366C40.9101 25.8806 45.9512 23.8656 50.2034 22.9795C50.1703 23.5306 50.125 24.0729 50.0711 24.6081Z" fill="white"/>
<path d="M48.9407 30.7012C45.4477 31.6458 40.6208 33.6253 36.7412 37.393L36.689 35.3886C39.933 32.539 44.0303 30.2901 49.3691 29.0088C49.2402 29.5853 49.0997 30.1507 48.9477 30.7048L48.9407 30.7012Z" fill="white"/>
<path d="M47.0618 35.7656C46.7239 36.4674 46.3641 37.1349 45.9822 37.7682H45.9647C43.3737 38.789 39.8406 40.3591 36.8752 42.8295L36.8247 40.9369C39.7187 38.7305 42.9784 37.2383 46.9242 35.817L47.0565 35.7709L47.0618 35.7656Z" fill="white"/>
<path d="M0 74.896H1.54627L2.41692 63.6798C2.48483 62.8132 2.46219 61.399 2.46219 61.399H2.50746C2.50746 61.399 3.00025 62.8806 3.35721 63.6798L7.05398 71.9081H8.48706L12.2065 63.6798C12.5652 62.8593 13.0353 61.4451 13.0353 61.4451H13.0806C13.0806 61.4451 13.058 62.8132 13.1259 63.6798L13.9965 74.896H15.5428L14.2891 58.8701H12.6993L8.55672 68.284C8.19801 69.1045 7.79403 70.244 7.79403 70.244H7.7505C7.7505 70.244 7.34652 69.1045 6.98781 68.284L2.84527 58.8701H1.25373L0 74.896Z" fill="white"/>
<path d="M28.4479 58.5957C23.8561 58.5957 20.4292 62.1755 20.4292 66.7566C20.4292 71.4759 23.8561 75.1692 28.4479 75.1692C33.0396 75.1692 36.4578 71.4759 36.4578 66.7566C36.4665 62.1755 33.0623 58.5957 28.4479 58.5957ZM28.4479 73.6876C24.7755 73.6876 22.0416 70.6749 22.0416 66.7566C22.0416 62.973 24.7755 60.0772 28.4479 60.0772C32.1202 60.0772 34.8541 62.973 34.8541 66.7566C34.8541 70.6784 32.1446 73.6876 28.4479 73.6876Z" fill="white"/>
<path d="M41.9775 74.896H43.5238V67.5769H52.6395V74.896H54.2084V58.8701H52.6395V66.1644H43.5238V58.8701H41.9775V74.896Z" fill="white"/>
<path d="M60.7275 74.896H69.9999V73.4818H62.2721V67.5325H68.2534V66.1183H62.2721V60.2825H69.5733V58.8701H60.7275V74.896Z" fill="white"/>
<path d="M14.5644 87.0001L14.2789 86.2664H12.6595L12.3634 87.0001H11.9072L13.2132 83.6914H13.7164L15.0276 87.0001H14.5644ZM13.4674 84.1185L12.7709 85.8907H14.1518L13.4674 84.1185Z" fill="white"/>
<path d="M18.8304 87.0001V84.0582H16.9289V87.0001H16.5249V83.6914H19.2344V87.0001H18.8304Z" fill="white"/>
<path d="M23.3892 87.0001L23.1018 86.2664H21.4824L21.1951 87.0001H20.7319L22.0379 83.6914H22.5411L23.8558 87.0001H23.3892ZM22.2887 84.1185L21.5921 85.8907H22.9852L22.2887 84.1185Z" fill="white"/>
<path d="M25.3496 87V83.6913H26.6556C26.7877 83.6856 26.9195 83.7072 27.0432 83.7548C27.1669 83.8023 27.2799 83.8748 27.3753 83.9679C27.4708 84.0611 27.5467 84.1729 27.5986 84.2967C27.6505 84.4204 27.6772 84.5536 27.6772 84.6882C27.6772 84.8227 27.6505 84.9559 27.5986 85.0797C27.5467 85.2035 27.4708 85.3153 27.3753 85.4084C27.2799 85.5015 27.1669 85.574 27.0432 85.6216C26.9195 85.6691 26.7877 85.6907 26.6556 85.685H25.7536V87H25.3496ZM27.2546 84.6961C27.257 84.6102 27.2417 84.5247 27.2096 84.4451C27.1775 84.3656 27.1294 84.2937 27.0684 84.2343C27.0073 84.1748 26.9347 84.1291 26.8552 84.1C26.7757 84.0708 26.6911 84.059 26.6068 84.0652H25.7536V85.3253H26.6068C26.6916 85.3318 26.7768 85.3201 26.8568 85.2907C26.9368 85.2614 27.0098 85.2152 27.071 85.1551C27.1322 85.095 27.1802 85.0224 27.2118 84.9421C27.2434 84.8618 27.258 84.7755 27.2546 84.6891V84.6961Z" fill="white"/>
<path d="M30.0877 87.0001V84.0582H29.0586V83.6914H31.526V84.0582H30.4934V87.0001H30.0877Z" fill="white"/>
<path d="M35.4561 87.0001L35.174 86.2664H33.5546L33.2586 87.0001H32.7954L34.1014 83.6914H34.6046L35.9158 87.0001H35.4561ZM34.3591 84.1185L33.6626 85.8907H35.0434L34.3591 84.1185Z" fill="white"/>
<path d="M40.1941 87.0001V84.2762L39.0884 87.0001H38.923L37.8208 84.2762V87.0001H37.415V83.6914H37.9966L39.0048 86.1813L40.02 83.6914H40.5999V87.0001H40.1941Z" fill="white"/>
<path d="M42.4336 87.0001V83.6914H44.5632V84.0582H42.8358V85.1216H44.5284V85.4884H42.8358V86.6297H44.5615V86.9965L42.4336 87.0001Z" fill="white"/>
<path d="M48.5823 87.0001V85.4831H46.6843V87.0001H46.2803V83.6914H46.6843V85.1092H48.5823V83.6914H48.988V87.0001H48.5823Z" fill="white"/>
<path d="M51.6277 87.0001V84.0582H50.5986V83.6914H53.0661V84.0582H52.0335V87.0001H51.6277Z" fill="white"/>
<path d="M55.0807 83.6914V85.0064H55.9827C56.1148 85.0007 56.2467 85.0223 56.3704 85.0698C56.4941 85.1174 56.607 85.1899 56.7025 85.283C56.7979 85.3761 56.8739 85.4879 56.9258 85.6117C56.9776 85.7355 57.0044 85.8687 57.0044 86.0032C57.0044 86.1378 56.9776 86.271 56.9258 86.3947C56.8739 86.5185 56.7979 86.6303 56.7025 86.7235C56.607 86.8166 56.4941 86.8891 56.3704 86.9366C56.2467 86.9842 56.1148 87.0058 55.9827 87.0001H54.6768V83.6914H55.0807ZM55.0807 85.3732V86.6332H55.934C56.018 86.6378 56.1021 86.6249 56.1811 86.5952C56.2601 86.5656 56.3323 86.52 56.3934 86.461C56.4545 86.4021 56.5031 86.3311 56.5363 86.2524C56.5696 86.1737 56.5867 86.0889 56.5867 86.0032C56.5867 85.9176 56.5696 85.8328 56.5363 85.7541C56.5031 85.6754 56.4545 85.6044 56.3934 85.5455C56.3323 85.4865 56.2601 85.4408 56.1811 85.4112C56.1021 85.3816 56.018 85.3687 55.934 85.3732H55.0807ZM57.3444 87.0001V83.6914H57.7501V87.0001H57.3444Z" fill="white"/>
</g>
<defs>
<clipPath id="clip0">
<rect width="70" height="87" fill="white"/>
</clipPath>
</defs>
</svg>
