<svg width="620" height="371" fill="none" xmlns="http://www.w3.org/2000/svg"><path d="M2.587 134.823l-2.08 1.495v-1.053l2.158-1.56h1.053V143H2.587v-8.177zm7.438 7.358c1.638 0 2.457-1.2 2.457-3.601v-.52c0-1.083-.221-1.946-.663-2.587-.442-.65-1.049-.975-1.82-.975-.789 0-1.404.312-1.846.936-.442.624-.663 1.508-.663 2.652v.52c0 1.153.225 2.037.676 2.652.45.615 1.07.923 1.859.923zm0 .936c-1.11 0-2.002-.412-2.678-1.235-.676-.823-1.014-1.911-1.014-3.263v-.52c0-1.378.325-2.474.975-3.289.658-.815 1.555-1.222 2.69-1.222 1.127 0 2.011.412 2.653 1.235.65.823.975 1.907.975 3.25v.52c0 1.369-.32 2.466-.962 3.289-.633.823-1.513 1.235-2.64 1.235zm12.714-.936c1.638 0 2.457-1.2 2.457-3.601v-.52c0-1.083-.221-1.946-.663-2.587-.442-.65-1.049-.975-1.82-.975-.789 0-1.404.312-1.846.936-.442.624-.663 1.508-.663 2.652v.52c0 1.153.225 2.037.676 2.652.45.615 1.07.923 1.859.923zm0 .936c-1.11 0-2.002-.412-2.678-1.235-.676-.823-1.014-1.911-1.014-3.263v-.52c0-1.378.325-2.474.975-3.289.659-.815 1.556-1.222 2.69-1.222 1.128 0 2.012.412 2.653 1.235.65.823.975 1.907.975 3.25v.52c0 1.369-.32 2.466-.962 3.289-.633.823-1.512 1.235-2.64 1.235zm9.143-.936c1.638 0 2.457-1.2 2.457-3.601v-.52c0-1.083-.22-1.946-.663-2.587-.442-.65-1.048-.975-1.82-.975-.788 0-1.404.312-1.846.936-.442.624-.663 1.508-.663 2.652v.52c0 1.153.226 2.037.676 2.652.451.615 1.07.923 1.86.923zm0 .936c-1.109 0-2.002-.412-2.678-1.235-.675-.823-1.014-1.911-1.014-3.263v-.52c0-1.378.325-2.474.976-3.289.658-.815 1.555-1.222 2.69-1.222 1.127 0 2.011.412 2.652 1.235.65.823.975 1.907.975 3.25v.52c0 1.369-.32 2.466-.961 3.289-.633.823-1.513 1.235-2.64 1.235zm9.144-.936c1.638 0 2.457-1.2 2.457-3.601v-.52c0-1.083-.22-1.946-.663-2.587-.442-.65-1.048-.975-1.82-.975-.788 0-1.404.312-1.846.936-.442.624-.663 1.508-.663 2.652v.52c0 1.153.226 2.037.676 2.652.45.615 1.07.923 1.86.923zm0 .936c-1.11 0-2.002-.412-2.678-1.235-.676-.823-1.014-1.911-1.014-3.263v-.52c0-1.378.325-2.474.975-3.289.659-.815 1.556-1.222 2.691-1.222 1.127 0 2.01.412 2.652 1.235.65.823.975 1.907.975 3.25v.52c0 1.369-.32 2.466-.962 3.289-.633.823-1.512 1.235-2.639 1.235zM6.325 289.74l3.692-3.887c.893-.945 1.339-1.842 1.339-2.691 0-.52-.147-.927-.442-1.222-.286-.295-.693-.442-1.222-.442-1.127 0-1.781.689-1.963 2.067H6.676c.07-.919.368-1.642.897-2.171.537-.537 1.244-.806 2.119-.806.858 0 1.538.238 2.041.715.511.468.767 1.101.767 1.898 0 1.023-.624 2.149-1.872 3.38l-2.561 2.496h4.485V290H6.325v-.26zm15.289-.559c1.638 0 2.457-1.2 2.457-3.601v-.52c0-1.083-.221-1.946-.663-2.587-.442-.65-1.049-.975-1.82-.975-.789 0-1.404.312-1.846.936-.442.624-.663 1.508-.663 2.652v.52c0 1.153.225 2.037.676 2.652.45.615 1.07.923 1.859.923zm0 .936c-1.11 0-2.002-.412-2.678-1.235-.676-.823-1.014-1.911-1.014-3.263v-.52c0-1.378.325-2.474.975-3.289.658-.815 1.555-1.222 2.69-1.222 1.127 0 2.011.412 2.653 1.235.65.823.975 1.907.975 3.25v.52c0 1.369-.321 2.466-.962 3.289-.633.823-1.513 1.235-2.64 1.235zm9.143-.936c1.638 0 2.457-1.2 2.457-3.601v-.52c0-1.083-.22-1.946-.663-2.587-.442-.65-1.048-.975-1.82-.975-.788 0-1.404.312-1.846.936-.442.624-.663 1.508-.663 2.652v.52c0 1.153.226 2.037.676 2.652.451.615 1.07.923 1.86.923zm0 .936c-1.109 0-2.002-.412-2.678-1.235-.676-.823-1.014-1.911-1.014-3.263v-.52c0-1.378.325-2.474.975-3.289.659-.815 1.556-1.222 2.691-1.222 1.127 0 2.011.412 2.652 1.235.65.823.975 1.907.975 3.25v.52c0 1.369-.32 2.466-.962 3.289-.632.823-1.512 1.235-2.639 1.235zm9.144-.936c1.638 0 2.457-1.2 2.457-3.601v-.52c0-1.083-.22-1.946-.663-2.587-.442-.65-1.049-.975-1.82-.975-.789 0-1.404.312-1.846.936-.442.624-.663 1.508-.663 2.652v.52c0 1.153.225 2.037.676 2.652.45.615 1.07.923 1.86.923zm0 .936c-1.11 0-2.002-.412-2.678-1.235-.676-.823-1.014-1.911-1.014-3.263v-.52c0-1.378.325-2.474.975-3.289.659-.815 1.556-1.222 2.691-1.222 1.127 0 2.01.412 2.652 1.235.65.823.975 1.907.975 3.25v.52c0 1.369-.32 2.466-.962 3.289-.633.823-1.512 1.235-2.639 1.235zM4.587 98.823l-2.08 1.495v-1.053l2.158-1.56h1.053V107H4.587v-8.177zM7.8 106.74l3.692-3.887c.892-.945 1.339-1.842 1.339-2.691 0-.52-.148-.927-.442-1.222-.286-.295-.694-.442-1.222-.442-1.127 0-1.781.689-1.963 2.067H8.15c.07-.919.368-1.642.897-2.171.537-.537 1.243-.806 2.119-.806.858 0 1.538.238 2.04.715.512.468.768 1.1.768 1.898 0 1.023-.624 2.149-1.872 3.38l-2.561 2.496h4.485V107H7.8v-.26zm15.288-.559c1.638 0 2.457-1.2 2.457-3.601v-.52c0-1.083-.22-1.946-.663-2.587-.442-.65-1.048-.975-1.82-.975-.788 0-1.404.312-1.846.936-.442.624-.663 1.508-.663 2.652v.52c0 1.153.226 2.037.676 2.652.451.615 1.07.923 1.86.923zm0 .936c-1.109 0-2.002-.412-2.678-1.235-.676-.823-1.014-1.911-1.014-3.263v-.52c0-1.378.325-2.474.975-3.289.66-.815 1.556-1.222 2.691-1.222 1.127 0 2.011.412 2.652 1.235.65.823.975 1.907.975 3.25v.52c0 1.369-.32 2.466-.962 3.289-.632.823-1.512 1.235-2.639 1.235zm9.144-.936c1.638 0 2.457-1.2 2.457-3.601v-.52c0-1.083-.22-1.946-.663-2.587-.442-.65-1.049-.975-1.82-.975-.789 0-1.404.312-1.846.936-.442.624-.663 1.508-.663 2.652v.52c0 1.153.225 2.037.676 2.652.45.615 1.07.923 1.86.923zm0 .936c-1.11 0-2.002-.412-2.678-1.235-.676-.823-1.014-1.911-1.014-3.263v-.52c0-1.378.325-2.474.975-3.289.659-.815 1.556-1.222 2.691-1.222 1.127 0 2.01.412 2.652 1.235.65.823.975 1.907.975 3.25v.52c0 1.369-.32 2.466-.962 3.289-.633.823-1.512 1.235-2.639 1.235zm9.144-.936c1.638 0 2.457-1.2 2.457-3.601v-.52c0-1.083-.221-1.946-.663-2.587-.442-.65-1.049-.975-1.82-.975-.789 0-1.404.312-1.846.936-.442.624-.663 1.508-.663 2.652v.52c0 1.153.225 2.037.676 2.652.45.615 1.07.923 1.859.923zm0 .936c-1.11 0-2.002-.412-2.678-1.235-.676-.823-1.014-1.911-1.014-3.263v-.52c0-1.378.325-2.474.975-3.289.658-.815 1.555-1.222 2.69-1.222 1.127 0 2.011.412 2.653 1.235.65.823.975 1.907.975 3.25v.52c0 1.369-.32 2.466-.962 3.289-.633.823-1.513 1.235-2.64 1.235zM10.239 251.05H5.585v-.364l4.251-6.981h1.508v6.422h1.287v.923h-1.287V253h-1.105v-1.95zm0-.923v-5.564l-3.224 5.564h3.224zm11.187 2.054c1.638 0 2.457-1.2 2.457-3.601v-.52c0-1.083-.22-1.946-.663-2.587-.442-.65-1.048-.975-1.82-.975-.788 0-1.404.312-1.846.936-.442.624-.663 1.508-.663 2.652v.52c0 1.153.226 2.037.676 2.652.45.615 1.07.923 1.86.923zm0 .936c-1.11 0-2.002-.412-2.678-1.235-.676-.823-1.014-1.911-1.014-3.263v-.52c0-1.378.325-2.474.975-3.289.659-.815 1.556-1.222 2.691-1.222 1.127 0 2.01.412 2.652 1.235.65.823.975 1.907.975 3.25v.52c0 1.369-.32 2.466-.962 3.289-.633.823-1.512 1.235-2.639 1.235zm9.144-.936c1.638 0 2.457-1.2 2.457-3.601v-.52c0-1.083-.221-1.946-.663-2.587-.442-.65-1.049-.975-1.82-.975-.789 0-1.404.312-1.846.936-.442.624-.663 1.508-.663 2.652v.52c0 1.153.225 2.037.676 2.652.45.615 1.07.923 1.859.923zm0 .936c-1.11 0-2.002-.412-2.678-1.235-.676-.823-1.014-1.911-1.014-3.263v-.52c0-1.378.325-2.474.975-3.289.659-.815 1.555-1.222 2.69-1.222 1.128 0 2.011.412 2.653 1.235.65.823.975 1.907.975 3.25v.52c0 1.369-.32 2.466-.962 3.289-.633.823-1.513 1.235-2.64 1.235zm9.144-.936c1.638 0 2.457-1.2 2.457-3.601v-.52c0-1.083-.221-1.946-.663-2.587-.442-.65-1.05-.975-1.82-.975-.79 0-1.404.312-1.846.936-.442.624-.663 1.508-.663 2.652v.52c0 1.153.225 2.037.676 2.652.45.615 1.07.923 1.859.923zm0 .936c-1.11 0-2.002-.412-2.678-1.235-.676-.823-1.014-1.911-1.014-3.263v-.52c0-1.378.325-2.474.975-3.289.658-.815 1.555-1.222 2.69-1.222 1.127 0 2.011.412 2.653 1.235.65.823.975 1.907.975 3.25v.52c0 1.369-.321 2.466-.962 3.289-.633.823-1.513 1.235-2.64 1.235zM3.587 62.823l-2.08 1.495v-1.053l2.158-1.56h1.053V71H3.587v-8.177zm7.873 6.227H6.806v-.364l4.25-6.981h1.509v6.422h1.287v.923h-1.287V71H11.46v-1.95zm0-.923v-5.564l-3.224 5.564h3.224zm11.187 2.054c1.638 0 2.457-1.2 2.457-3.601v-.52c0-1.083-.221-1.946-.663-2.587-.442-.65-1.049-.975-1.82-.975-.789 0-1.404.312-1.846.936-.442.624-.663 1.508-.663 2.652v.52c0 1.153.225 2.037.676 2.652.45.615 1.07.923 1.859.923zm0 .936c-1.11 0-2.002-.412-2.678-1.235-.676-.823-1.014-1.911-1.014-3.263v-.52c0-1.378.325-2.474.975-3.289.659-.815 1.556-1.222 2.691-1.222 1.127 0 2.01.412 2.652 1.235.65.823.975 1.907.975 3.25v.52c0 1.37-.32 2.466-.962 3.289-.633.823-1.512 1.235-2.639 1.235zm9.144-.936c1.638 0 2.457-1.2 2.457-3.601v-.52c0-1.083-.221-1.946-.663-2.587-.442-.65-1.049-.975-1.82-.975-.789 0-1.404.312-1.846.936-.442.624-.663 1.508-.663 2.652v.52c0 1.153.225 2.037.676 2.652.45.615 1.07.923 1.859.923zm0 .936c-1.11 0-2.002-.412-2.678-1.235-.676-.823-1.014-1.911-1.014-3.263v-.52c0-1.378.325-2.474.975-3.289.658-.815 1.555-1.222 2.69-1.222 1.127 0 2.011.412 2.653 1.235.65.823.975 1.907.975 3.25v.52c0 1.37-.321 2.466-.962 3.289-.633.823-1.513 1.235-2.64 1.235zm9.143-.936c1.638 0 2.457-1.2 2.457-3.601v-.52c0-1.083-.22-1.946-.663-2.587-.442-.65-1.048-.975-1.82-.975-.788 0-1.404.312-1.846.936-.442.624-.663 1.508-.663 2.652v.52c0 1.153.226 2.037.676 2.652.451.615 1.07.923 1.86.923zm0 .936c-1.109 0-2.002-.412-2.678-1.235-.676-.823-1.014-1.911-1.014-3.263v-.52c0-1.378.325-2.474.975-3.289.659-.815 1.556-1.222 2.691-1.222 1.127 0 2.011.412 2.652 1.235.65.823.975 1.907.975 3.25v.52c0 1.37-.32 2.466-.962 3.289-.632.823-1.512 1.235-2.639 1.235zm-31.735 146c-2.227 0-3.341-1.408-3.341-4.225v-.221c0-1.629.33-2.882.988-3.757.667-.884 1.551-1.326 2.652-1.326.745 0 1.352.191 1.82.572.477.381.776.94.897 1.677h-1.079c-.104-.451-.29-.784-.559-1.001-.269-.217-.654-.325-1.157-.325-.72 0-1.3.321-1.742.962-.442.641-.676 1.56-.702 2.756.503-.841 1.3-1.261 2.392-1.261.91 0 1.642.29 2.197.871.563.572.845 1.296.845 2.171 0 .936-.29 1.69-.871 2.262-.58.563-1.36.845-2.34.845zm0-.884c.607 0 1.1-.199 1.482-.598.381-.399.572-.923.572-1.573 0-.676-.186-1.213-.559-1.612-.373-.399-.875-.598-1.508-.598-.624 0-1.135.191-1.534.572-.399.381-.598.875-.598 1.482 0 .737.195 1.309.585 1.716.399.407.919.611 1.56.611zm12.253-.052c1.638 0 2.457-1.2 2.457-3.601v-.52c0-1.083-.221-1.946-.663-2.587-.442-.65-1.05-.975-1.82-.975-.79 0-1.404.312-1.846.936-.442.624-.663 1.508-.663 2.652v.52c0 1.153.225 2.037.676 2.652.45.615 1.07.923 1.859.923zm0 .936c-1.11 0-2.002-.412-2.678-1.235-.676-.823-1.014-1.911-1.014-3.263v-.52c0-1.378.325-2.474.975-3.289.658-.815 1.555-1.222 2.69-1.222 1.127 0 2.011.412 2.653 1.235.65.823.975 1.907.975 3.25v.52c0 1.369-.321 2.466-.962 3.289-.633.823-1.513 1.235-2.64 1.235zm9.143-.936c1.638 0 2.457-1.2 2.457-3.601v-.52c0-1.083-.22-1.946-.663-2.587-.442-.65-1.048-.975-1.82-.975-.788 0-1.404.312-1.846.936-.442.624-.663 1.508-.663 2.652v.52c0 1.153.226 2.037.676 2.652.45.615 1.07.923 1.86.923zm0 .936c-1.11 0-2.002-.412-2.678-1.235-.676-.823-1.014-1.911-1.014-3.263v-.52c0-1.378.325-2.474.975-3.289.659-.815 1.556-1.222 2.691-1.222 1.127 0 2.01.412 2.652 1.235.65.823.975 1.907.975 3.25v.52c0 1.369-.32 2.466-.962 3.289-.632.823-1.512 1.235-2.639 1.235zm9.144-.936c1.638 0 2.457-1.2 2.457-3.601v-.52c0-1.083-.221-1.946-.663-2.587-.442-.65-1.049-.975-1.82-.975-.789 0-1.404.312-1.846.936-.442.624-.663 1.508-.663 2.652v.52c0 1.153.225 2.037.676 2.652.45.615 1.07.923 1.859.923zm0 .936c-1.11 0-2.002-.412-2.678-1.235-.676-.823-1.014-1.911-1.014-3.263v-.52c0-1.378.325-2.474.975-3.289.659-.815 1.556-1.222 2.69-1.222 1.128 0 2.012.412 2.653 1.235.65.823.975 1.907.975 3.25v.52c0 1.369-.32 2.466-.962 3.289-.633.823-1.512 1.235-2.64 1.235zm-30.709-37a4.016 4.016 0 01-1.508-.286 2.914 2.914 0 01-1.209-.949c-.33-.433-.494-.94-.494-1.521 0-.598.16-1.101.481-1.508a2.78 2.78 0 011.274-.897c-.936-.373-1.404-1.023-1.404-1.95 0-.711.286-1.291.858-1.742a3.173 3.173 0 012.002-.676 3.12 3.12 0 011.989.676c.572.442.858 1.014.858 1.716 0 .893-.477 1.547-1.43 1.963 1.187.442 1.781 1.239 1.781 2.392 0 .875-.32 1.56-.962 2.054-.633.485-1.378.728-2.236.728zm0-.923c.598 0 1.088-.165 1.469-.494.381-.338.572-.806.572-1.404 0-.581-.195-1.031-.585-1.352-.381-.329-.858-.494-1.43-.494-.59 0-1.083.165-1.482.494-.399.321-.598.78-.598 1.378 0 .581.2 1.04.598 1.378.399.329.884.494 1.456.494zm.039-4.641c.503 0 .906-.139 1.209-.416.303-.277.455-.659.455-1.144 0-.442-.16-.806-.481-1.092-.32-.286-.728-.429-1.222-.429-.503 0-.914.139-1.235.416-.32.277-.481.654-.481 1.131 0 .468.169.841.507 1.118.338.277.754.416 1.248.416zm12.23 4.628c1.638 0 2.457-1.2 2.457-3.601v-.52c0-1.083-.22-1.946-.663-2.587-.442-.65-1.048-.975-1.82-.975-.788 0-1.404.312-1.846.936-.442.624-.663 1.508-.663 2.652v.52c0 1.153.226 2.037.676 2.652.45.615 1.07.923 1.86.923zm0 .936c-1.11 0-2.002-.412-2.678-1.235-.676-.823-1.014-1.911-1.014-3.263v-.52c0-1.378.325-2.474.975-3.289.659-.815 1.556-1.222 2.691-1.222 1.127 0 2.01.412 2.652 1.235.65.823.975 1.907.975 3.25v.52c0 1.369-.32 2.466-.962 3.289-.632.823-1.512 1.235-2.639 1.235zm9.144-.936c1.638 0 2.457-1.2 2.457-3.601v-.52c0-1.083-.221-1.946-.663-2.587-.442-.65-1.049-.975-1.82-.975-.789 0-1.404.312-1.846.936-.442.624-.663 1.508-.663 2.652v.52c0 1.153.225 2.037.676 2.652.45.615 1.07.923 1.859.923zm0 .936c-1.11 0-2.002-.412-2.678-1.235-.676-.823-1.014-1.911-1.014-3.263v-.52c0-1.378.325-2.474.975-3.289.659-.815 1.556-1.222 2.69-1.222 1.128 0 2.012.412 2.653 1.235.65.823.975 1.907.975 3.25v.52c0 1.369-.32 2.466-.962 3.289-.633.823-1.512 1.235-2.64 1.235zm9.144-.936c1.638 0 2.457-1.2 2.457-3.601v-.52c0-1.083-.221-1.946-.663-2.587-.442-.65-1.05-.975-1.82-.975-.79 0-1.404.312-1.846.936-.442.624-.663 1.508-.663 2.652v.52c0 1.153.225 2.037.676 2.652.45.615 1.07.923 1.859.923zm0 .936c-1.11 0-2.002-.412-2.678-1.235-.676-.823-1.014-1.911-1.014-3.263v-.52c0-1.378.325-2.474.975-3.289.658-.815 1.555-1.222 2.69-1.222 1.127 0 2.011.412 2.653 1.235.65.823.975 1.907.975 3.25v.52c0 1.369-.321 2.466-.962 3.289-.633.823-1.513 1.235-2.64 1.235zM37.55 326.181c1.638 0 2.457-1.2 2.457-3.601v-.52c0-1.083-.221-1.946-.663-2.587-.442-.65-1.049-.975-1.82-.975-.789 0-1.404.312-1.846.936-.442.624-.663 1.508-.663 2.652v.52c0 1.153.225 2.037.676 2.652.45.615 1.07.923 1.859.923zm0 .936c-1.11 0-2.002-.412-2.678-1.235-.676-.823-1.014-1.911-1.014-3.263v-.52c0-1.378.325-2.474.975-3.289.659-.815 1.556-1.222 2.691-1.222 1.127 0 2.01.412 2.652 1.235.65.823.975 1.907.975 3.25v.52c0 1.369-.32 2.466-.962 3.289-.633.823-1.512 1.235-2.639 1.235zm569-3.936c1.638 0 2.457-1.2 2.457-3.601v-.52c0-1.083-.221-1.946-.663-2.587-.442-.65-1.049-.975-1.82-.975-.789 0-1.404.312-1.846.936-.442.624-.663 1.508-.663 2.652v.52c0 1.153.225 2.037.676 2.652.451.615 1.07.923 1.859.923zm0 .936c-1.109 0-2.002-.412-2.678-1.235-.676-.823-1.014-1.911-1.014-3.263v-.52c0-1.378.325-2.474.975-3.289.659-.815 1.556-1.222 2.691-1.222 1.127 0 2.011.412 2.652 1.235.65.823.975 1.907.975 3.25v.52c0 1.369-.321 2.466-.962 3.289-.633.823-1.512 1.235-2.639 1.235zm-.351-191c-2.227 0-3.341-1.408-3.341-4.225v-.221c0-1.629.329-2.882.988-3.757.667-.884 1.551-1.326 2.652-1.326.745 0 1.352.191 1.82.572.477.381.776.94.897 1.677h-1.079c-.104-.451-.29-.784-.559-1.001-.269-.217-.654-.325-1.157-.325-.719 0-1.3.321-1.742.962-.442.641-.676 1.56-.702 2.756.503-.841 1.3-1.261 2.392-1.261.91 0 1.642.29 2.197.871.563.572.845 1.296.845 2.171 0 .936-.29 1.69-.871 2.262-.581.563-1.361.845-2.34.845zm0-.884c.607 0 1.101-.199 1.482-.598.381-.399.572-.923.572-1.573 0-.676-.186-1.213-.559-1.612-.373-.399-.875-.598-1.508-.598-.624 0-1.135.191-1.534.572-.399.381-.598.875-.598 1.482 0 .737.195 1.309.585 1.716.399.407.919.611 1.56.611zm8.619-.052c1.638 0 2.457-1.2 2.457-3.601v-.52c0-1.083-.221-1.946-.663-2.587-.442-.65-1.049-.975-1.82-.975-.789 0-1.404.312-1.846.936-.442.624-.663 1.508-.663 2.652v.52c0 1.153.225 2.037.676 2.652.45.615 1.07.923 1.859.923zm0 .936c-1.11 0-2.002-.412-2.678-1.235-.676-.823-1.014-1.911-1.014-3.263v-.52c0-1.378.325-2.474.975-3.289.658-.815 1.555-1.222 2.691-1.222 1.126 0 2.01.412 2.652 1.235.65.823.975 1.907.975 3.25v.52c0 1.369-.321 2.466-.962 3.289-.633.823-1.513 1.235-2.639 1.235zm-8.97 96c-.962 0-1.738-.269-2.327-.806-.581-.537-.888-1.222-.923-2.054h1.04c.052.589.264 1.062.637 1.417s.906.533 1.599.533c.711 0 1.239-.156 1.586-.468.355-.321.533-.763.533-1.326 0-1.205-.654-1.807-1.963-1.807h-.702v-.949h.65c1.161 0 1.742-.529 1.742-1.586 0-.459-.143-.832-.429-1.118-.286-.295-.706-.442-1.261-.442-.572 0-1.044.16-1.417.481-.364.321-.576.745-.637 1.274h-.988c.035-.745.334-1.378.897-1.898s1.278-.78 2.145-.78c.849 0 1.525.243 2.028.728.511.477.767 1.053.767 1.729 0 .945-.49 1.621-1.469 2.028 1.196.329 1.794 1.109 1.794 2.34 0 .841-.308 1.504-.923 1.989-.607.477-1.4.715-2.379.715zm8.843-.936c1.638 0 2.457-1.2 2.457-3.601v-.52c0-1.083-.221-1.946-.663-2.587-.442-.65-1.049-.975-1.82-.975-.789 0-1.404.312-1.846.936-.442.624-.663 1.508-.663 2.652v.52c0 1.153.225 2.037.676 2.652.45.615 1.07.923 1.859.923zm0 .936c-1.11 0-2.002-.412-2.678-1.235-.676-.823-1.014-1.911-1.014-3.263v-.52c0-1.378.325-2.474.975-3.289.658-.815 1.555-1.222 2.691-1.222 1.126 0 2.01.412 2.652 1.235.65.823.975 1.907.975 3.25v.52c0 1.369-.321 2.466-.962 3.289-.633.823-1.513 1.235-2.639 1.235zm-10.104 54.706l-2.08 1.495v-1.053l2.158-1.56h1.053V292h-1.131v-8.177zm7.438 7.358c1.638 0 2.457-1.2 2.457-3.601v-.52c0-1.083-.221-1.946-.663-2.587-.442-.65-1.049-.975-1.82-.975-.789 0-1.404.312-1.846.936-.442.624-.663 1.508-.663 2.652v.52c0 1.153.225 2.037.676 2.652.45.615 1.07.923 1.859.923zm0 .936c-1.11 0-2.002-.412-2.678-1.235-.676-.823-1.014-1.911-1.014-3.263v-.52c0-1.378.325-2.474.975-3.289.658-.815 1.555-1.222 2.691-1.222 1.126 0 2.01.412 2.652 1.235.65.823.975 1.907.975 3.25v.52c0 1.369-.321 2.466-.962 3.289-.633.823-1.513 1.235-2.639 1.235zm-4.812-199.502h-4.719v-.91h6.123v.156L605.133 101h-1.157l3.237-8.385zm6.259 7.566c1.638 0 2.457-1.2 2.457-3.601v-.52c0-1.083-.221-1.946-.663-2.587-.442-.65-1.049-.975-1.82-.975-.789 0-1.404.312-1.846.936-.442.624-.663 1.508-.663 2.652v.52c0 1.153.225 2.037.676 2.652.451.615 1.07.923 1.859.923zm0 .936c-1.109 0-2.002-.412-2.678-1.235-.676-.823-1.014-1.911-1.014-3.263v-.52c0-1.378.325-2.474.975-3.289.659-.815 1.556-1.222 2.691-1.222 1.127 0 2.011.412 2.652 1.235.65.823.975 1.907.975 3.25v.52c0 1.37-.321 2.466-.962 3.289-.633.823-1.512 1.235-2.639 1.235zm-6.233 93.933h-4.654v-.364l4.251-6.981h1.508v6.422h1.287v.923h-1.287V197h-1.105v-1.95zm0-.923v-5.564l-3.224 5.564h3.224zm7.553 2.054c1.638 0 2.457-1.2 2.457-3.601v-.52c0-1.083-.221-1.946-.663-2.587-.442-.65-1.048-.975-1.82-.975-.788 0-1.404.312-1.846.936-.442.624-.663 1.508-.663 2.652v.52c0 1.153.226 2.037.676 2.652.451.615 1.071.923 1.859.923zm0 .936c-1.109 0-2.002-.412-2.678-1.235-.676-.823-1.014-1.911-1.014-3.263v-.52c0-1.378.325-2.474.975-3.289.659-.815 1.556-1.222 2.691-1.222 1.127 0 2.011.412 2.652 1.235.65.823.975 1.907.975 3.25v.52c0 1.369-.32 2.466-.962 3.289-.632.823-1.512 1.235-2.639 1.235zm-12.467 63.623l3.692-3.887c.893-.945 1.339-1.842 1.339-2.691 0-.52-.147-.927-.442-1.222-.286-.295-.693-.442-1.222-.442-1.127 0-1.781.689-1.963 2.067h-1.053c.069-.919.368-1.642.897-2.171.537-.537 1.244-.806 2.119-.806.858 0 1.538.238 2.041.715.511.468.767 1.101.767 1.898 0 1.023-.624 2.149-1.872 3.38l-2.561 2.496h4.485V261h-6.227v-.26zm11.655-.559c1.638 0 2.457-1.2 2.457-3.601v-.52c0-1.083-.221-1.946-.663-2.587-.442-.65-1.049-.975-1.82-.975-.789 0-1.404.312-1.846.936-.442.624-.663 1.508-.663 2.652v.52c0 1.153.225 2.037.676 2.652.45.615 1.07.923 1.859.923zm0 .936c-1.11 0-2.002-.412-2.678-1.235-.676-.823-1.014-1.911-1.014-3.263v-.52c0-1.378.325-2.474.975-3.289.658-.815 1.555-1.222 2.691-1.222 1.126 0 2.01.412 2.652 1.235.65.823.975 1.907.975 3.25v.52c0 1.369-.321 2.466-.962 3.289-.633.823-1.513 1.235-2.639 1.235zm-7.95-191a4.022 4.022 0 01-1.508-.286 2.91 2.91 0 01-1.209-.949 2.445 2.445 0 01-.494-1.521c0-.598.16-1.1.481-1.508a2.78 2.78 0 011.274-.897c-.936-.373-1.404-1.023-1.404-1.95 0-.71.286-1.291.858-1.742a3.176 3.176 0 012.002-.676 3.12 3.12 0 011.989.676c.572.442.858 1.014.858 1.716 0 .893-.477 1.547-1.43 1.963 1.187.442 1.781 1.24 1.781 2.392 0 .875-.321 1.56-.962 2.054-.633.485-1.378.728-2.236.728zm0-.923c.598 0 1.088-.165 1.469-.494.381-.338.572-.806.572-1.404 0-.58-.195-1.031-.585-1.352-.381-.33-.858-.494-1.43-.494-.589 0-1.083.165-1.482.494-.399.32-.598.78-.598 1.378 0 .58.199 1.04.598 1.378.399.33.884.494 1.456.494zm.039-4.641c.503 0 .906-.139 1.209-.416.303-.277.455-.659.455-1.144 0-.442-.16-.806-.481-1.092-.321-.286-.728-.429-1.222-.429-.503 0-.914.139-1.235.416-.321.277-.481.654-.481 1.131 0 .468.169.84.507 1.118.338.277.754.416 1.248.416zm8.533 4.628c1.638 0 2.457-1.2 2.457-3.601v-.52c0-1.083-.221-1.946-.663-2.587-.442-.65-1.049-.975-1.82-.975-.789 0-1.404.312-1.846.936-.442.624-.663 1.508-.663 2.652v.52c0 1.153.225 2.037.676 2.652.451.615 1.07.923 1.859.923zm0 .936c-1.109 0-2.002-.412-2.678-1.235-.676-.823-1.014-1.911-1.014-3.263v-.52c0-1.378.325-2.474.975-3.289.659-.815 1.556-1.222 2.691-1.222 1.127 0 2.011.412 2.652 1.235.65.823.975 1.907.975 3.25v.52c0 1.37-.321 2.466-.962 3.289-.633.823-1.512 1.235-2.639 1.235zm-8.871 95c-.962 0-1.699-.234-2.21-.702-.511-.477-.806-1.118-.884-1.924h1.079c.104.563.299.992.585 1.287.286.286.758.429 1.417.429.633 0 1.131-.199 1.495-.598.364-.399.546-.949.546-1.651 0-.659-.178-1.183-.533-1.573-.347-.399-.819-.598-1.417-.598-.52 0-.949.074-1.287.221a2.604 2.604 0 00-.91.676h-.416v-4.979h5.226v.975h-4.29v2.834c.459-.425 1.092-.637 1.898-.637.849 0 1.543.282 2.08.845.537.555.806 1.3.806 2.236 0 .962-.303 1.729-.91 2.301-.607.572-1.365.858-2.275.858zm8.668-.936c1.638 0 2.457-1.2 2.457-3.601v-.52c0-1.083-.221-1.946-.663-2.587-.442-.65-1.049-.975-1.82-.975-.789 0-1.404.312-1.846.936-.442.624-.663 1.508-.663 2.652v.52c0 1.153.225 2.037.676 2.652.45.615 1.07.923 1.859.923zm0 .936c-1.11 0-2.002-.412-2.678-1.235-.676-.823-1.014-1.911-1.014-3.263v-.52c0-1.378.325-2.474.975-3.289.658-.815 1.555-1.222 2.691-1.222 1.126 0 2.01.412 2.652 1.235.65.823.975 1.907.975 3.25v.52c0 1.369-.321 2.466-.962 3.289-.633.823-1.513 1.235-2.639 1.235zM129.325 364.74l3.692-3.887c.893-.945 1.339-1.842 1.339-2.691 0-.52-.147-.927-.442-1.222-.286-.295-.693-.442-1.222-.442-1.127 0-1.781.689-1.963 2.067h-1.053c.069-.919.368-1.642.897-2.171.537-.537 1.244-.806 2.119-.806.858 0 1.538.238 2.041.715.511.468.767 1.101.767 1.898 0 1.023-.624 2.149-1.872 3.38l-2.561 2.496h4.485V365h-6.227v-.26zm11.655-.559c1.638 0 2.457-1.2 2.457-3.601v-.52c0-1.083-.221-1.946-.663-2.587-.442-.65-1.049-.975-1.82-.975-.789 0-1.404.312-1.846.936-.442.624-.663 1.508-.663 2.652v.52c0 1.153.225 2.037.676 2.652.45.615 1.07.923 1.859.923zm0 .936c-1.11 0-2.002-.412-2.678-1.235-.676-.823-1.014-1.911-1.014-3.263v-.52c0-1.378.325-2.474.975-3.289.658-.815 1.555-1.222 2.691-1.222 1.126 0 2.01.412 2.652 1.235.65.823.975 1.907.975 3.25v.52c0 1.369-.321 2.466-.962 3.289-.633.823-1.513 1.235-2.639 1.235zm7.18-8.294l-2.08 1.495v-1.053l2.158-1.56h1.053V365h-1.131v-8.177zm8.101-.208h-4.719v-.91h6.123v.156L154.181 365h-1.157l3.237-8.385zm49.483-350.91h1.482L210.372 15h-1.118l-.91-2.678h-3.835L203.612 15h-1.066l3.198-9.295zm-.923 5.72h3.224l-1.612-4.784-1.612 4.784zm9.874 2.652c1.17 0 2.058-.325 2.665-.975.615-.659.923-1.569.923-2.73v-.104c0-1.135-.295-2.028-.884-2.678-.581-.65-1.486-.975-2.717-.975h-1.261v7.462h1.274zm-2.405-8.372h2.457c1.534 0 2.7.42 3.497 1.261.806.84 1.209 1.941 1.209 3.302v.117c0 1.36-.399 2.47-1.196 3.328-.797.858-1.976 1.287-3.536 1.287h-2.431V5.705zm9.334 0h2.795c.962 0 1.742.212 2.34.637.607.425.91 1.075.91 1.95v.052c0 .72-.212 1.291-.637 1.716-.424.416-.979.689-1.664.819L228.215 15h-1.261l-2.769-4.043h-1.43V15h-1.131V5.705zm2.873 4.355c1.361 0 2.041-.572 2.041-1.716v-.052c0-.607-.173-1.036-.52-1.287-.346-.26-.853-.39-1.521-.39h-1.742v3.445h1.742zm9.039-.91l1.079-1.443-1.599-.377.286-.871 1.534.624-.091-1.742h.949l-.091 1.742 1.521-.624.286.871-1.612.377 1.079 1.443-.728.533-.962-1.56-.91 1.56-.741-.533zm184.273 5.967c-1.031 0-1.816-.273-2.353-.819-.529-.546-.841-1.257-.936-2.132h1.092c.078.633.277 1.131.598 1.495.329.364.862.546 1.599.546.693 0 1.222-.169 1.586-.507.364-.347.546-.823.546-1.43 0-.572-.169-.984-.507-1.235-.329-.26-.893-.39-1.69-.39h-1.183v-.858h1.183c1.196 0 1.794-.568 1.794-1.703 0-1.057-.576-1.586-1.729-1.586-.572 0-1.01.13-1.313.39-.295.251-.498.672-.611 1.261h-1.014c.199-1.707 1.205-2.561 3.016-2.561.823 0 1.486.23 1.989.689.511.45.767 1.053.767 1.807a2.2 2.2 0 01-.403 1.3c-.26.373-.637.633-1.131.78.641.095 1.127.325 1.456.689.329.364.494.836.494 1.417 0 .823-.303 1.504-.91 2.041-.598.537-1.378.806-2.34.806zm6.925 0c-.667 0-1.213-.165-1.638-.494-.416-.338-.624-.84-.624-1.508 0-.373.091-.698.273-.975.191-.286.451-.507.78-.663.33-.165.689-.282 1.079-.351.39-.078.815-.117 1.274-.117h.975v-.494c0-.546-.112-.936-.338-1.17-.225-.243-.598-.364-1.118-.364-.936 0-1.456.407-1.56 1.222h-1.079c.07-.728.351-1.261.845-1.599.503-.347 1.118-.52 1.846-.52 1.656 0 2.483.81 2.483 2.431V15h-1.079v-.858c-.52.65-1.226.975-2.119.975zm.104-.858c.59 0 1.071-.143 1.443-.429.382-.295.572-.698.572-1.209v-.845h-.936c-1.577 0-2.366.446-2.366 1.339 0 .763.429 1.144 1.287 1.144zm6.345-5.148V15h-1.079V8.201h4.316v.91h-3.237zm4.931-.91h1.079v1.144c.199-.347.511-.641.936-.884a2.632 2.632 0 011.365-.377c.91 0 1.651.308 2.223.923.58.615.871 1.447.871 2.496v.104c0 1.049-.286 1.898-.858 2.548-.564.641-1.309.962-2.236.962-1.04 0-1.807-.412-2.301-1.235v3.484h-1.079V8.201zm3.276 6.019c.676 0 1.191-.217 1.547-.65.355-.442.533-1.079.533-1.911v-.104c0-.823-.2-1.456-.598-1.898a1.89 1.89 0 00-1.495-.676c-.659 0-1.196.221-1.612.663-.408.433-.611 1.07-.611 1.911v.104c0 .84.199 1.478.598 1.911.407.433.953.65 1.638.65zm6.775.078L443.5 8.201h1.157l2.08 4.875 1.885-4.875h1.105l-3.757 9.165h-1.092l1.287-3.068zm9.289-4.329c0 .338-.1.65-.299.936a1.24 1.24 0 01-.819.52c.442.078.793.247 1.053.507.26.26.39.602.39 1.027v.039c0 .633-.234 1.144-.702 1.534-.459.39-1.088.585-1.885.585-.823 0-1.469-.19-1.937-.572-.459-.39-.706-.936-.741-1.638h1.053c.052.433.199.763.442.988.251.217.646.325 1.183.325.971 0 1.456-.386 1.456-1.157v-.039c0-.381-.117-.659-.351-.832-.225-.173-.576-.26-1.053-.26h-1.027v-.858h.845c.451 0 .771-.082.962-.247.199-.165.299-.433.299-.806v-.039c0-.667-.39-1.001-1.17-1.001-.754 0-1.205.355-1.352 1.066h-1.04c.078-.685.338-1.183.78-1.495.451-.312 1.01-.468 1.677-.468.641 0 1.174.165 1.599.494.425.32.637.771.637 1.352v.039zm3.252 1.56V15h-1.079V8.201h1.079v3.172l2.821-3.172h1.261l-2.912 3.198L463.035 15h-1.313l-3.016-3.471zm7.472 3.588c-.668 0-1.214-.165-1.638-.494-.416-.338-.624-.84-.624-1.508 0-.373.091-.698.273-.975.19-.286.45-.507.78-.663a3.935 3.935 0 011.079-.351c.39-.078.814-.117 1.274-.117h.975v-.494c0-.546-.113-.936-.338-1.17-.226-.243-.598-.364-1.118-.364-.936 0-1.456.407-1.56 1.222h-1.079c.069-.728.351-1.261.845-1.599.502-.347 1.118-.52 1.846-.52 1.655 0 2.483.81 2.483 2.431V15h-1.079v-.858c-.52.65-1.227.975-2.119.975zm.104-.858c.589 0 1.07-.143 1.443-.429.381-.295.572-.698.572-1.209v-.845h-.936c-1.578 0-2.366.446-2.366 1.339 0 .763.429 1.144 1.287 1.144zm10.668 2.665c-1.438-1.638-2.158-3.631-2.158-5.98 0-2.305.72-4.303 2.158-5.993h1.079c-1.404 1.725-2.106 3.722-2.106 5.993 0 2.236.702 4.23 2.106 5.98h-1.079zm6.929-7.813h-3.211V15h-1.079V8.201h5.369V15h-1.079V9.111zm3.472-.91h1.079v1.144c.199-.347.511-.641.936-.884a2.64 2.64 0 011.365-.377c.91 0 1.651.308 2.223.923.581.615.871 1.447.871 2.496v.104c0 1.049-.286 1.898-.858 2.548-.563.641-1.309.962-2.236.962-1.04 0-1.807-.412-2.301-1.235v3.484h-1.079V8.201zm3.276 6.019c.676 0 1.192-.217 1.547-.65.355-.442.533-1.079.533-1.911v-.104c0-.823-.199-1.456-.598-1.898a1.888 1.888 0 00-1.495-.676c-.659 0-1.196.221-1.612.663-.407.433-.611 1.07-.611 1.911v.104c0 .84.199 1.478.598 1.911.407.433.953.65 1.638.65zm6.076.611a.82.82 0 01-.585.234.823.823 0 01-.832-.832c0-.234.083-.429.247-.585a.8.8 0 01.585-.247c.226 0 .421.082.585.247a.771.771 0 01.247.585.813.813 0 01-.247.598zm9.03-.611c.676 0 1.214-.234 1.612-.702.408-.468.611-1.088.611-1.859v-.091c0-.789-.203-1.417-.611-1.885-.398-.468-.936-.702-1.612-.702-.684 0-1.226.234-1.625.702-.398.468-.598 1.092-.598 1.872v.104c0 .789.195 1.413.585 1.872.399.46.945.689 1.638.689zm-.013.897c-.962 0-1.759-.325-2.392-.975-.624-.659-.936-1.486-.936-2.483v-.104c0-1.014.312-1.846.936-2.496.633-.65 1.435-.975 2.405-.975.971 0 1.768.325 2.392.975.633.641.949 1.469.949 2.483v.104c0 1.023-.316 1.859-.949 2.509-.632.641-1.434.962-2.405.962zm7.976 0c-.971 0-1.768-.312-2.392-.936-.624-.633-.936-1.469-.936-2.509v-.104c0-1.023.316-1.859.949-2.509.641-.65 1.426-.975 2.353-.975.78 0 1.443.195 1.989.585.546.381.867.98.962 1.794h-1.066c-.156-.988-.784-1.482-1.885-1.482-.633 0-1.157.238-1.573.715-.407.468-.611 1.092-.611 1.872v.104c0 .815.199 1.443.598 1.885.407.442.949.663 1.625.663.511 0 .949-.143 1.313-.429.373-.295.585-.706.637-1.235h1.001a2.695 2.695 0 01-.936 1.846c-.546.477-1.222.715-2.028.715zm4.645-6.916h1.079v2.379h1.209c.763 0 1.387.186 1.872.559.485.373.728.927.728 1.664v.039c0 .745-.243 1.291-.728 1.638-.477.347-1.101.52-1.872.52h-2.288V8.201zm2.353 5.954c.52 0 .893-.108 1.118-.325.225-.225.338-.555.338-.988v-.039c0-.468-.117-.81-.351-1.027-.225-.225-.594-.338-1.105-.338h-1.274v2.717h1.274zm3.447 2.769c1.404-1.725 2.106-3.722 2.106-5.993 0-2.236-.702-4.23-2.106-5.98h1.079c1.438 1.742 2.158 3.735 2.158 5.98 0 2.305-.72 4.303-2.158 5.993h-1.079zm8.848-7.774l1.079-1.443-1.599-.377.286-.871 1.534.624-.091-1.742h.949l-.091 1.742 1.521-.624.286.871-1.612.377 1.079 1.443-.728.533-.962-1.56-.91 1.56-.741-.533zM8.248 4.705h2.639c.953 0 1.733.225 2.34.676.607.442.91 1.122.91 2.041v.052c0 .936-.303 1.63-.91 2.08-.598.442-1.378.663-2.34.663H9.379V14H8.248V4.705zm2.717 4.615c.667 0 1.174-.156 1.521-.468.347-.32.52-.78.52-1.378v-.052c0-1.205-.68-1.807-2.041-1.807H9.379V9.32h1.586zm6.787 3.978l-2.665-6.097h1.157l2.08 4.875 1.885-4.875h1.105l-3.757 9.165h-1.092l1.287-3.068zm7.96.819c-1.023 0-1.833-.33-2.431-.988-.598-.659-.897-1.66-.897-3.003V9.71c0-.641.026-1.209.078-1.703a7.22 7.22 0 01.325-1.508c.164-.511.38-.936.65-1.274.268-.338.632-.62 1.092-.845.468-.225 1.018-.355 1.65-.39l.26-.013c.954-.052 1.6-.147 1.938-.286l.143.91c-.442.19-1.131.308-2.067.351l-.195.013c-1.05.052-1.799.394-2.25 1.027-.441.624-.701 1.595-.78 2.912h.053c.234-.477.58-.854 1.04-1.131.468-.286 1.01-.429 1.625-.429.944 0 1.698.308 2.262.923.572.607.858 1.395.858 2.366v.052c0 1.049-.317 1.885-.95 2.509-.623.615-1.425.923-2.404.923zm-1.625-1.56c.398.442.944.663 1.638.663.693 0 1.235-.217 1.625-.65.398-.442.598-1.066.598-1.872v-.026c0-.754-.182-1.348-.546-1.781-.356-.433-.876-.65-1.56-.65-.72 0-1.292.225-1.716.676-.416.45-.624 1.066-.624 1.846v.026c0 .737.195 1.326.585 1.768zm8.09-1.183c-.078.936-.243 1.62-.494 2.054-.252.425-.646.637-1.183.637a2.49 2.49 0 01-.352-.026L30.044 14v-1.027l.091.026c.087.017.178.026.273.026a.486.486 0 00.338-.117c.096-.087.17-.221.222-.403a3.36 3.36 0 00.13-.507c.026-.165.056-.394.09-.689.035-.312.087-1.196.157-2.652l.039-1.456h4.484V14H34.79V8.111h-2.444c-.078 1.872-.134 2.96-.169 3.263zM38.178 14V7.201h1.08v5.239l3.47-5.239h1.08V14h-1.08V8.761L39.26 14h-1.08zm566.474-5.824c.364 0 .646-.117.845-.351.199-.234.299-.568.299-1.001 0-.416-.104-.745-.312-.988-.199-.243-.477-.364-.832-.364-.347 0-.624.121-.832.364-.208.234-.312.568-.312 1.001 0 .433.1.767.299 1.001.208.225.49.338.845.338zm1.495.221c-.425.416-.923.624-1.495.624-.572 0-1.07-.208-1.495-.624-.425-.416-.637-.932-.637-1.547 0-.633.208-1.161.624-1.586.425-.425.927-.637 1.508-.637s1.079.212 1.495.637c.425.425.637.945.637 1.56 0 .624-.212 1.148-.637 1.573zm3.367-3.692h.988L604.821 14h-.988l5.681-9.295zm.182 8.554c.364 0 .646-.117.845-.351.199-.234.299-.568.299-1.001 0-.416-.104-.745-.312-.988-.199-.243-.477-.364-.832-.364-.347 0-.624.121-.832.364-.208.234-.312.568-.312 1.001 0 .433.1.767.299 1.001.208.225.49.338.845.338zm1.495.221c-.425.416-.923.624-1.495.624-.572 0-1.07-.208-1.495-.624-.425-.416-.637-.932-.637-1.547 0-.633.208-1.161.624-1.586.425-.425.927-.637 1.508-.637s1.079.212 1.495.637c.425.425.637.945.637 1.56 0 .624-.212 1.148-.637 1.573zM291.325 364.74l3.692-3.887c.893-.945 1.339-1.842 1.339-2.691 0-.52-.147-.927-.442-1.222-.286-.295-.693-.442-1.222-.442-1.127 0-1.781.689-1.963 2.067h-1.053c.069-.919.368-1.642.897-2.171.537-.537 1.244-.806 2.119-.806.858 0 1.538.238 2.041.715.511.468.767 1.101.767 1.898 0 1.023-.624 2.149-1.872 3.38l-2.561 2.496h4.485V365h-6.227v-.26zm11.655-.559c1.638 0 2.457-1.2 2.457-3.601v-.52c0-1.083-.221-1.946-.663-2.587-.442-.65-1.049-.975-1.82-.975-.789 0-1.404.312-1.846.936-.442.624-.663 1.508-.663 2.652v.52c0 1.153.225 2.037.676 2.652.45.615 1.07.923 1.859.923zm0 .936c-1.11 0-2.002-.412-2.678-1.235-.676-.823-1.014-1.911-1.014-3.263v-.52c0-1.378.325-2.474.975-3.289.658-.815 1.555-1.222 2.691-1.222 1.126 0 2.01.412 2.652 1.235.65.823.975 1.907.975 3.25v.52c0 1.369-.321 2.466-.962 3.289-.633.823-1.513 1.235-2.639 1.235zm7.18-8.294l-2.08 1.495v-1.053l2.158-1.56h1.053V365h-1.131v-8.177zm6.918 8.294a4.02 4.02 0 01-1.508-.286 2.922 2.922 0 01-1.209-.949 2.444 2.444 0 01-.494-1.521c0-.598.161-1.101.481-1.508a2.79 2.79 0 011.274-.897c-.936-.373-1.404-1.023-1.404-1.95 0-.711.286-1.291.858-1.742a3.174 3.174 0 012.002-.676 3.12 3.12 0 011.989.676c.572.442.858 1.014.858 1.716 0 .893-.476 1.547-1.43 1.963 1.188.442 1.781 1.239 1.781 2.392 0 .875-.32 1.56-.962 2.054-.632.485-1.378.728-2.236.728zm0-.923c.598 0 1.088-.165 1.469-.494.382-.338.572-.806.572-1.404 0-.581-.195-1.031-.585-1.352-.381-.329-.858-.494-1.43-.494-.589 0-1.083.165-1.482.494-.398.321-.598.78-.598 1.378 0 .581.2 1.04.598 1.378.399.329.884.494 1.456.494zm.039-4.641c.503 0 .906-.139 1.209-.416.304-.277.455-.659.455-1.144 0-.442-.16-.806-.481-1.092-.32-.286-.728-.429-1.222-.429-.502 0-.914.139-1.235.416-.32.277-.481.654-.481 1.131 0 .468.169.841.507 1.118.338.277.754.416 1.248.416zm138.208 5.187l3.692-3.887c.893-.945 1.339-1.842 1.339-2.691 0-.52-.147-.927-.442-1.222-.286-.295-.693-.442-1.222-.442-1.127 0-1.781.689-1.963 2.067h-1.053c.069-.919.368-1.642.897-2.171.537-.537 1.244-.806 2.119-.806.858 0 1.538.238 2.041.715.511.468.767 1.101.767 1.898 0 1.023-.624 2.149-1.872 3.38l-2.561 2.496h4.485V365h-6.227v-.26zm11.655-.559c1.638 0 2.457-1.2 2.457-3.601v-.52c0-1.083-.221-1.946-.663-2.587-.442-.65-1.049-.975-1.82-.975-.789 0-1.404.312-1.846.936-.442.624-.663 1.508-.663 2.652v.52c0 1.153.225 2.037.676 2.652.45.615 1.07.923 1.859.923zm0 .936c-1.11 0-2.002-.412-2.678-1.235-.676-.823-1.014-1.911-1.014-3.263v-.52c0-1.378.325-2.474.975-3.289.658-.815 1.555-1.222 2.691-1.222 1.126 0 2.01.412 2.652 1.235.65.823.975 1.907.975 3.25v.52c0 1.369-.321 2.466-.962 3.289-.633.823-1.513 1.235-2.639 1.235zm7.18-8.294l-2.08 1.495v-1.053l2.158-1.56h1.053V365h-1.131v-8.177zm6.609 8.281c-.849 0-1.529-.208-2.041-.624-.511-.416-.827-1.005-.949-1.768h1.092c.113.485.317.854.611 1.105.304.243.741.364 1.313.364.754 0 1.335-.308 1.742-.923.408-.615.62-1.538.637-2.769-.234.39-.559.693-.975.91-.416.217-.892.325-1.43.325-.901 0-1.638-.286-2.21-.858-.563-.572-.845-1.3-.845-2.184 0-.936.291-1.686.871-2.249.581-.572 1.361-.858 2.34-.858 1.101 0 1.933.355 2.496 1.066.564.711.845 1.742.845 3.094v.585c0 1.551-.303 2.739-.91 3.562-.598.815-1.46 1.222-2.587 1.222zm.169-4.264c.624 0 1.136-.186 1.534-.559.399-.373.598-.858.598-1.456 0-.745-.199-1.326-.598-1.742-.39-.416-.905-.624-1.547-.624-.606 0-1.1.199-1.482.598-.381.399-.572.923-.572 1.573 0 .676.187 1.213.559 1.612.373.399.876.598 1.508.598z" fill="#fff"/><path opacity=".5" fill="#434343" d="M78 325h484v1H78zm0-129h484v1H78zm0-129h484v2H78zm0 64h484v1H78z"/><path fill="#F5E6D1" d="M115 137h42v188h-42zm165-27h44v215h-44zm161 15h42v200h-42z"/><circle cx="156.5" cy="148.5" r="3.5" fill="#C7794E"/><circle cx="188" cy="10" r="4" fill="#F5E6D1"/><circle cx="401" cy="10" r="4" fill="#C7794E"/><circle cx="323.5" cy="146.5" r="3.5" fill="#C7794E"/><circle cx="483.5" cy="139.5" r="3.5" fill="#C7794E"/><path d="M156 148l168-2m0 0l159-7" stroke="#C7794E" stroke-width="3"/></svg>