<svg width="997" height="561" fill="none" xmlns="http://www.w3.org/2000/svg"><path d="M2.985 203.426l-2.4 1.725v-1.215l2.49-1.8H4.29v10.725H2.985v-9.435zm8.582 8.49c1.89 0 2.835-1.385 2.835-4.155v-.6c0-1.25-.255-2.245-.765-2.985-.51-.75-1.21-1.125-2.1-1.125-.91 0-1.62.36-2.13 1.08-.51.72-.765 1.74-.765 3.06v.6c0 1.33.26 2.35.78 3.06s1.235 1.065 2.145 1.065zm0 1.08c-1.28 0-2.31-.475-3.09-1.425-.78-.95-1.17-2.205-1.17-3.765v-.6c0-1.59.375-2.855 1.125-3.795.76-.94 1.795-1.41 3.105-1.41 1.3 0 2.32.475 3.06 1.425.75.95 1.125 2.2 1.125 3.75v.6c0 1.58-.37 2.845-1.11 3.795-.73.95-1.745 1.425-3.045 1.425zm14.67-1.08c1.89 0 2.835-1.385 2.835-4.155v-.6c0-1.25-.255-2.245-.765-2.985-.51-.75-1.21-1.125-2.1-1.125-.91 0-1.62.36-2.13 1.08-.51.72-.765 1.74-.765 3.06v.6c0 1.33.26 2.35.78 3.06s1.235 1.065 2.145 1.065zm0 1.08c-1.28 0-2.31-.475-3.09-1.425-.78-.95-1.17-2.205-1.17-3.765v-.6c0-1.59.375-2.855 1.125-3.795.76-.94 1.795-1.41 3.105-1.41 1.3 0 2.32.475 3.06 1.425.75.95 1.125 2.2 1.125 3.75v.6c0 1.58-.37 2.845-1.11 3.795-.73.95-1.745 1.425-3.045 1.425zm10.55-1.08c1.89 0 2.836-1.385 2.836-4.155v-.6c0-1.25-.255-2.245-.765-2.985-.51-.75-1.21-1.125-2.1-1.125-.91 0-1.62.36-2.13 1.08-.51.72-.766 1.74-.766 3.06v.6c0 1.33.26 2.35.78 3.06s1.235 1.065 2.145 1.065zm0 1.08c-1.28 0-2.31-.475-3.09-1.425-.78-.95-1.17-2.205-1.17-3.765v-.6c0-1.59.376-2.855 1.126-3.795.76-.94 1.794-1.41 3.105-1.41 1.3 0 2.32.475 3.06 1.425.75.95 1.125 2.2 1.125 3.75v.6c0 1.58-.37 2.845-1.11 3.795-.73.95-1.745 1.425-3.045 1.425zm10.55-1.08c1.89 0 2.836-1.385 2.836-4.155v-.6c0-1.25-.255-2.245-.765-2.985-.51-.75-1.21-1.125-2.1-1.125-.91 0-1.62.36-2.13 1.08-.51.72-.765 1.74-.765 3.06v.6c0 1.33.26 2.35.78 3.06s1.235 1.065 2.145 1.065zm0 1.08c-1.28 0-2.31-.475-3.09-1.425-.78-.95-1.17-2.205-1.17-3.765v-.6c0-1.59.376-2.855 1.126-3.795.76-.94 1.795-1.41 3.105-1.41 1.3 0 2.32.475 3.06 1.425.75.95 1.125 2.2 1.125 3.75v.6c0 1.58-.37 2.845-1.11 3.795-.73.95-1.745 1.425-3.045 1.425zm-37.205 222.6l4.26-4.485c1.03-1.09 1.545-2.125 1.545-3.105 0-.6-.17-1.07-.51-1.41-.33-.34-.8-.51-1.41-.51-1.3 0-2.055.795-2.265 2.385h-1.215c.08-1.06.425-1.895 1.035-2.505.62-.62 1.435-.93 2.445-.93.99 0 1.775.275 2.355.825.59.54.885 1.27.885 2.19 0 1.18-.72 2.48-2.16 3.9l-2.955 2.88h5.175v1.065h-7.185v-.3zm17.641-.645c1.89 0 2.835-1.385 2.835-4.155v-.6c0-1.25-.255-2.245-.765-2.985-.51-.75-1.21-1.125-2.1-1.125-.91 0-1.62.36-2.13 1.08-.51.72-.765 1.74-.765 3.06v.6c0 1.33.26 2.35.78 3.06s1.235 1.065 2.145 1.065zm0 1.08c-1.28 0-2.31-.475-3.09-1.425-.78-.95-1.17-2.205-1.17-3.765v-.6c0-1.59.375-2.855 1.125-3.795.76-.94 1.795-1.41 3.105-1.41 1.3 0 2.32.475 3.06 1.425.75.95 1.125 2.2 1.125 3.75v.6c0 1.58-.37 2.845-1.11 3.795-.73.95-1.745 1.425-3.045 1.425zm10.55-1.08c1.89 0 2.835-1.385 2.835-4.155v-.6c0-1.25-.255-2.245-.764-2.985-.51-.75-1.21-1.125-2.1-1.125-.91 0-1.62.36-2.13 1.08-.51.72-.766 1.74-.766 3.06v.6c0 1.33.26 2.35.78 3.06s1.236 1.065 2.146 1.065zm0 1.08c-1.28 0-2.31-.475-3.09-1.425-.78-.95-1.17-2.205-1.17-3.765v-.6c0-1.59.375-2.855 1.125-3.795.76-.94 1.795-1.41 3.105-1.41 1.3 0 2.32.475 3.06 1.425.75.95 1.125 2.2 1.125 3.75v.6c0 1.58-.37 2.845-1.11 3.795-.73.95-1.745 1.425-3.044 1.425zm10.55-1.08c1.89 0 2.836-1.385 2.836-4.155v-.6c0-1.25-.255-2.245-.765-2.985-.51-.75-1.21-1.125-2.1-1.125-.91 0-1.62.36-2.13 1.08-.51.72-.765 1.74-.765 3.06v.6c0 1.33.26 2.35.78 3.06s1.235 1.065 2.145 1.065zm0 1.08c-1.28 0-2.31-.475-3.09-1.425-.78-.95-1.17-2.205-1.17-3.765v-.6c0-1.59.376-2.855 1.126-3.795.76-.94 1.795-1.41 3.105-1.41 1.3 0 2.32.475 3.06 1.425.75.95 1.125 2.2 1.125 3.75v.6c0 1.58-.37 2.845-1.11 3.795-.73.95-1.745 1.425-3.045 1.425zM5.424 147.669l-2.4 1.725v-1.215l2.49-1.8h1.215v10.725H5.424v-9.435zm3.707 9.135l4.26-4.485c1.03-1.09 1.545-2.125 1.545-3.105 0-.6-.17-1.07-.51-1.41-.33-.34-.8-.51-1.41-.51-1.3 0-2.055.795-2.265 2.385H9.536c.08-1.06.425-1.895 1.035-2.505.62-.62 1.435-.93 2.445-.93.99 0 1.775.275 2.355.825.59.54.885 1.27.885 2.19 0 1.18-.72 2.48-2.16 3.9l-2.955 2.88h5.175v1.065H9.131v-.3zm17.64-.645c1.89 0 2.836-1.385 2.836-4.155v-.6c0-1.25-.255-2.245-.765-2.985-.51-.75-1.21-1.125-2.1-1.125-.91 0-1.62.36-2.13 1.08-.51.72-.765 1.74-.765 3.06v.6c0 1.33.26 2.35.78 3.06s1.235 1.065 2.145 1.065zm0 1.08c-1.28 0-2.31-.475-3.09-1.425-.78-.95-1.17-2.205-1.17-3.765v-.6c0-1.59.376-2.855 1.126-3.795.76-.94 1.795-1.41 3.105-1.41 1.3 0 2.32.475 3.06 1.425.75.95 1.125 2.2 1.125 3.75v.6c0 1.58-.37 2.845-1.11 3.795-.73.95-1.745 1.425-3.045 1.425zm10.551-1.08c1.89 0 2.835-1.385 2.835-4.155v-.6c0-1.25-.255-2.245-.765-2.985-.51-.75-1.21-1.125-2.1-1.125-.91 0-1.62.36-2.13 1.08-.51.72-.765 1.74-.765 3.06v.6c0 1.33.26 2.35.78 3.06s1.235 1.065 2.145 1.065zm0 1.08c-1.28 0-2.31-.475-3.09-1.425-.78-.95-1.17-2.205-1.17-3.765v-.6c0-1.59.375-2.855 1.125-3.795.76-.94 1.795-1.41 3.105-1.41 1.3 0 2.32.475 3.06 1.425.75.95 1.125 2.2 1.125 3.75v.6c0 1.58-.37 2.845-1.11 3.795-.73.95-1.745 1.425-3.045 1.425zm10.55-1.08c1.89 0 2.836-1.385 2.836-4.155v-.6c0-1.25-.255-2.245-.765-2.985-.51-.75-1.21-1.125-2.1-1.125-.91 0-1.62.36-2.13 1.08-.51.72-.765 1.74-.765 3.06v.6c0 1.33.26 2.35.78 3.06s1.235 1.065 2.145 1.065zm0 1.08c-1.28 0-2.31-.475-3.09-1.425-.78-.95-1.17-2.205-1.17-3.765v-.6c0-1.59.376-2.855 1.126-3.795.76-.94 1.795-1.41 3.105-1.41 1.3 0 2.32.475 3.06 1.425.75.95 1.125 2.2 1.125 3.75v.6c0 1.58-.37 2.845-1.11 3.795-.73.95-1.745 1.425-3.045 1.425zm-33.289 220.65h-5.37v-.42l4.905-8.055h1.74v7.41h1.485v1.065h-1.485v2.25h-1.275v-2.25zm0-1.065v-6.42l-3.72 6.42h3.72zm12.908 2.37c1.89 0 2.835-1.385 2.835-4.155v-.6c0-1.25-.255-2.245-.765-2.985-.51-.75-1.21-1.125-2.1-1.125-.91 0-1.62.36-2.13 1.08-.51.72-.765 1.74-.765 3.06v.6c0 1.33.26 2.35.78 3.06s1.235 1.065 2.145 1.065zm0 1.08c-1.28 0-2.31-.475-3.09-1.425-.78-.95-1.17-2.205-1.17-3.765v-.6c0-1.59.375-2.855 1.125-3.795.76-.94 1.795-1.41 3.105-1.41 1.3 0 2.32.475 3.06 1.425.75.95 1.125 2.2 1.125 3.75v.6c0 1.58-.37 2.845-1.11 3.795-.73.95-1.745 1.425-3.045 1.425zm10.55-1.08c1.89 0 2.835-1.385 2.835-4.155v-.6c0-1.25-.255-2.245-.765-2.985-.51-.75-1.21-1.125-2.1-1.125-.91 0-1.62.36-2.13 1.08-.51.72-.765 1.74-.765 3.06v.6c0 1.33.26 2.35.78 3.06s1.235 1.065 2.145 1.065zm0 1.08c-1.28 0-2.31-.475-3.09-1.425-.78-.95-1.17-2.205-1.17-3.765v-.6c0-1.59.375-2.855 1.125-3.795.76-.94 1.795-1.41 3.105-1.41 1.3 0 2.32.475 3.06 1.425.75.95 1.125 2.2 1.125 3.75v.6c0 1.58-.37 2.845-1.11 3.795-.73.95-1.745 1.425-3.045 1.425zm10.55-1.08c1.89 0 2.836-1.385 2.836-4.155v-.6c0-1.25-.255-2.245-.765-2.985-.51-.75-1.21-1.125-2.1-1.125-.91 0-1.62.36-2.13 1.08-.51.72-.765 1.74-.765 3.06v.6c0 1.33.26 2.35.78 3.06s1.235 1.065 2.145 1.065zm0 1.08c-1.28 0-2.31-.475-3.09-1.425-.78-.95-1.17-2.205-1.17-3.765v-.6c0-1.59.376-2.855 1.126-3.795.76-.94 1.795-1.41 3.105-1.41 1.3 0 2.32.475 3.06 1.425.75.95 1.125 2.2 1.125 3.75v.6c0 1.58-.37 2.845-1.11 3.795-.73.95-1.745 1.425-3.045 1.425zM4.205 91.909l-2.4 1.725v-1.215l2.49-1.8H5.51v10.725H4.205v-9.435zm9.084 7.185h-5.37v-.42l4.905-8.055h1.74v7.41h1.485v1.065h-1.485v2.25h-1.275v-2.25zm0-1.065v-6.42l-3.72 6.42h3.72zm12.908 2.37c1.89 0 2.835-1.385 2.835-4.155v-.6c0-1.25-.255-2.245-.765-2.985-.51-.75-1.21-1.125-2.1-1.125-.91 0-1.62.36-2.13 1.08-.51.72-.765 1.74-.765 3.06v.6c0 1.33.26 2.35.78 3.06s1.235 1.065 2.145 1.065zm0 1.08c-1.28 0-2.31-.475-3.09-1.425-.78-.95-1.17-2.205-1.17-3.765v-.6c0-1.59.375-2.855 1.125-3.795.76-.94 1.795-1.41 3.105-1.41 1.3 0 2.32.475 3.06 1.425.75.95 1.125 2.2 1.125 3.75v.6c0 1.58-.37 2.845-1.11 3.795-.73.95-1.745 1.425-3.045 1.425zm10.55-1.08c1.89 0 2.836-1.385 2.836-4.155v-.6c0-1.25-.255-2.245-.765-2.985-.51-.75-1.21-1.125-2.1-1.125-.91 0-1.62.36-2.13 1.08-.51.72-.766 1.74-.766 3.06v.6c0 1.33.26 2.35.78 3.06s1.236 1.065 2.146 1.065zm0 1.08c-1.28 0-2.31-.475-3.09-1.425-.78-.95-1.17-2.205-1.17-3.765v-.6c0-1.59.375-2.855 1.125-3.795.76-.94 1.795-1.41 3.105-1.41 1.3 0 2.32.475 3.06 1.425.75.95 1.126 2.2 1.126 3.75v.6c0 1.58-.37 2.845-1.11 3.795-.73.95-1.745 1.425-3.045 1.425zm10.55-1.08c1.89 0 2.836-1.385 2.836-4.155v-.6c0-1.25-.255-2.245-.765-2.985-.51-.75-1.21-1.125-2.1-1.125-.91 0-1.62.36-2.13 1.08-.51.72-.765 1.74-.765 3.06v.6c0 1.33.26 2.35.78 3.06s1.235 1.065 2.145 1.065zm0 1.08c-1.28 0-2.31-.475-3.09-1.425-.78-.95-1.17-2.205-1.17-3.765v-.6c0-1.59.376-2.855 1.126-3.795.76-.94 1.795-1.41 3.105-1.41 1.3 0 2.32.475 3.06 1.425.75.95 1.125 2.2 1.125 3.75v.6c0 1.58-.37 2.845-1.11 3.795-.73.95-1.745 1.425-3.045 1.425zM13.383 324.514c-2.57 0-3.855-1.625-3.855-4.875v-.255c0-1.88.38-3.325 1.14-4.335.77-1.02 1.79-1.53 3.06-1.53.86 0 1.56.22 2.1.66.55.44.895 1.085 1.035 1.935h-1.245c-.12-.52-.335-.905-.645-1.155s-.755-.375-1.335-.375c-.83 0-1.5.37-2.01 1.11-.51.74-.78 1.8-.81 3.18.58-.97 1.5-1.455 2.76-1.455 1.05 0 1.895.335 2.535 1.005.65.66.975 1.495.975 2.505 0 1.08-.335 1.95-1.005 2.61-.67.65-1.57.975-2.7.975zm0-1.02c.7 0 1.27-.23 1.71-.69.44-.46.66-1.065.66-1.815 0-.78-.215-1.4-.645-1.86-.43-.46-1.01-.69-1.74-.69-.72 0-1.31.22-1.77.66-.46.44-.69 1.01-.69 1.71 0 .85.225 1.51.675 1.98.46.47 1.06.705 1.8.705zm14.137-.06c1.89 0 2.835-1.385 2.835-4.155v-.6c0-1.25-.255-2.245-.765-2.985-.51-.75-1.21-1.125-2.1-1.125-.91 0-1.62.36-2.13 1.08-.51.72-.765 1.74-.765 3.06v.6c0 1.33.26 2.35.78 3.06s1.235 1.065 2.145 1.065zm0 1.08c-1.28 0-2.31-.475-3.09-1.425-.78-.95-1.17-2.205-1.17-3.765v-.6c0-1.59.375-2.855 1.125-3.795.76-.94 1.795-1.41 3.105-1.41 1.3 0 2.32.475 3.06 1.425.75.95 1.125 2.2 1.125 3.75v.6c0 1.58-.37 2.845-1.11 3.795-.73.95-1.745 1.425-3.045 1.425zm10.55-1.08c1.89 0 2.836-1.385 2.836-4.155v-.6c0-1.25-.255-2.245-.765-2.985-.51-.75-1.21-1.125-2.1-1.125-.91 0-1.62.36-2.13 1.08-.51.72-.765 1.74-.765 3.06v.6c0 1.33.26 2.35.78 3.06s1.235 1.065 2.145 1.065zm0 1.08c-1.28 0-2.31-.475-3.09-1.425-.78-.95-1.17-2.205-1.17-3.765v-.6c0-1.59.376-2.855 1.126-3.795.76-.94 1.795-1.41 3.105-1.41 1.3 0 2.32.475 3.06 1.425.75.95 1.125 2.2 1.125 3.75v.6c0 1.58-.37 2.845-1.11 3.795-.73.95-1.745 1.425-3.045 1.425zm10.551-1.08c1.89 0 2.835-1.385 2.835-4.155v-.6c0-1.25-.255-2.245-.765-2.985-.51-.75-1.21-1.125-2.1-1.125-.91 0-1.62.36-2.13 1.08-.51.72-.765 1.74-.765 3.06v.6c0 1.33.26 2.35.78 3.06s1.235 1.065 2.145 1.065zm0 1.08c-1.28 0-2.31-.475-3.09-1.425-.78-.95-1.17-2.205-1.17-3.765v-.6c0-1.59.375-2.855 1.125-3.795.76-.94 1.795-1.41 3.105-1.41 1.3 0 2.32.475 3.06 1.425.75.95 1.125 2.2 1.125 3.75v.6c0 1.58-.37 2.845-1.11 3.795-.73.95-1.745 1.425-3.045 1.425zm-35.433-55.758c-.61 0-1.19-.11-1.74-.33a3.362 3.362 0 01-1.395-1.095c-.38-.5-.57-1.085-.57-1.755 0-.69.185-1.27.555-1.74.37-.47.86-.815 1.47-1.035-1.08-.43-1.62-1.18-1.62-2.25 0-.82.33-1.49.99-2.01.67-.52 1.44-.78 2.31-.78.87 0 1.635.26 2.295.78.66.51.99 1.17.99 1.98 0 1.03-.55 1.785-1.65 2.265 1.37.51 2.055 1.43 2.055 2.76 0 1.01-.37 1.8-1.11 2.37-.73.56-1.59.84-2.58.84zm0-1.065c.69 0 1.255-.19 1.695-.57.44-.39.66-.93.66-1.62 0-.67-.225-1.19-.675-1.56-.44-.38-.99-.57-1.65-.57-.68 0-1.25.19-1.71.57-.46.37-.69.9-.69 1.59 0 .67.23 1.2.69 1.59.46.38 1.02.57 1.68.57zm.045-5.355c.58 0 1.045-.16 1.395-.48.35-.32.525-.76.525-1.32 0-.51-.185-.93-.555-1.26-.37-.33-.84-.495-1.41-.495-.58 0-1.055.16-1.425.48-.37.32-.555.755-.555 1.305 0 .54.195.97.585 1.29.39.32.87.48 1.44.48zm14.111 5.34c1.89 0 2.835-1.385 2.835-4.155v-.6c0-1.25-.255-2.245-.765-2.985-.51-.75-1.21-1.125-2.1-1.125-.91 0-1.62.36-2.13 1.08-.51.72-.765 1.74-.765 3.06v.6c0 1.33.26 2.35.78 3.06s1.235 1.065 2.145 1.065zm0 1.08c-1.28 0-2.31-.475-3.09-1.425-.78-.95-1.17-2.205-1.17-3.765v-.6c0-1.59.375-2.855 1.125-3.795.76-.94 1.795-1.41 3.105-1.41 1.3 0 2.32.475 3.06 1.425.75.95 1.125 2.2 1.125 3.75v.6c0 1.58-.37 2.845-1.11 3.795-.73.95-1.745 1.425-3.045 1.425zm10.55-1.08c1.89 0 2.836-1.385 2.836-4.155v-.6c0-1.25-.255-2.245-.765-2.985-.51-.75-1.21-1.125-2.1-1.125-.91 0-1.62.36-2.13 1.08-.51.72-.765 1.74-.765 3.06v.6c0 1.33.26 2.35.78 3.06s1.235 1.065 2.145 1.065zm0 1.08c-1.28 0-2.31-.475-3.09-1.425-.78-.95-1.17-2.205-1.17-3.765v-.6c0-1.59.376-2.855 1.126-3.795.76-.94 1.795-1.41 3.105-1.41 1.3 0 2.32.475 3.06 1.425.75.95 1.125 2.2 1.125 3.75v.6c0 1.58-.37 2.845-1.11 3.795-.73.95-1.745 1.425-3.045 1.425zm10.551-1.08c1.89 0 2.835-1.385 2.835-4.155v-.6c0-1.25-.255-2.245-.765-2.985-.51-.75-1.21-1.125-2.1-1.125-.91 0-1.62.36-2.13 1.08-.51.72-.765 1.74-.765 3.06v.6c0 1.33.26 2.35.78 3.06s1.235 1.065 2.145 1.065zm0 1.08c-1.28 0-2.31-.475-3.09-1.425-.78-.95-1.17-2.205-1.17-3.765v-.6c0-1.59.375-2.855 1.125-3.795.76-.94 1.795-1.41 3.105-1.41 1.3 0 2.32.475 3.06 1.425.75.95 1.125 2.2 1.125 3.75v.6c0 1.58-.37 2.845-1.11 3.795-.73.95-1.745 1.425-3.045 1.425zm8.03 223.092c1.89 0 2.835-1.385 2.835-4.155v-.6c0-1.25-.255-2.245-.765-2.985-.51-.75-1.21-1.125-2.1-1.125-.91 0-1.62.36-2.13 1.08-.51.72-.765 1.74-.765 3.06v.6c0 1.33.26 2.35.78 3.06s1.235 1.065 2.145 1.065zm0 1.08c-1.28 0-2.31-.475-3.09-1.425-.78-.95-1.17-2.205-1.17-3.765v-.6c0-1.59.375-2.855 1.125-3.795.76-.94 1.795-1.41 3.105-1.41 1.3 0 2.32.475 3.06 1.425.75.95 1.125 2.2 1.125 3.75v.6c0 1.58-.37 2.845-1.11 3.795-.73.95-1.745 1.425-3.045 1.425zm921.382-1.08c1.89 0 2.835-1.385 2.835-4.155v-.6c0-1.25-.255-2.245-.765-2.985-.51-.75-1.21-1.125-2.1-1.125-.91 0-1.62.36-2.13 1.08-.51.72-.765 1.74-.765 3.06v.6c0 1.33.26 2.35.78 3.06s1.235 1.065 2.145 1.065zm0 1.08c-1.28 0-2.31-.475-3.09-1.425-.78-.95-1.17-2.205-1.17-3.765v-.6c0-1.59.375-2.855 1.125-3.795.76-.94 1.795-1.41 3.105-1.41 1.3 0 2.32.475 3.06 1.425.75.95 1.125 2.2 1.125 3.75v.6c0 1.58-.37 2.845-1.11 3.795-.73.95-1.745 1.425-3.045 1.425zm-.405-293.586c-2.57 0-3.855-1.625-3.855-4.875v-.255c0-1.88.38-3.325 1.14-4.335.77-1.02 1.79-1.53 3.06-1.53.86 0 1.56.22 2.1.66.55.44.895 1.085 1.035 1.935h-1.245c-.12-.52-.335-.905-.645-1.155s-.755-.375-1.335-.375c-.83 0-1.5.37-2.01 1.11-.51.74-.78 1.8-.81 3.18.58-.97 1.5-1.455 2.76-1.455 1.05 0 1.895.335 2.535 1.005.65.66.975 1.495.975 2.505 0 1.08-.335 1.95-1.005 2.61-.67.65-1.57.975-2.7.975zm0-1.02c.7 0 1.27-.23 1.71-.69.44-.46.66-1.065.66-1.815 0-.78-.215-1.4-.645-1.86-.43-.46-1.01-.69-1.74-.69-.72 0-1.31.22-1.77.66-.46.44-.69 1.01-.69 1.71 0 .85.225 1.51.675 1.98.46.47 1.06.705 1.8.705zm9.945-.06c1.89 0 2.835-1.385 2.835-4.155v-.6c0-1.25-.255-2.245-.765-2.985-.51-.75-1.21-1.125-2.1-1.125-.91 0-1.62.36-2.13 1.08-.51.72-.765 1.74-.765 3.06v.6c0 1.33.26 2.35.78 3.06s1.235 1.065 2.145 1.065zm0 1.08c-1.28 0-2.31-.475-3.09-1.425-.78-.95-1.17-2.205-1.17-3.765v-.6c0-1.59.375-2.855 1.125-3.795.76-.94 1.795-1.41 3.105-1.41 1.3 0 2.32.475 3.06 1.425.75.95 1.125 2.2 1.125 3.75v.6c0 1.58-.37 2.845-1.11 3.795-.73.95-1.745 1.425-3.045 1.425zm-10.35 146.793c-1.11 0-2.005-.31-2.685-.93-.67-.62-1.025-1.41-1.065-2.37h1.2c.06.68.305 1.225.735 1.635.43.41 1.045.615 1.845.615.82 0 1.43-.18 1.83-.54.41-.37.615-.88.615-1.53 0-1.39-.755-2.085-2.265-2.085h-.81v-1.095h.75c1.34 0 2.01-.61 2.01-1.83 0-.53-.165-.96-.495-1.29-.33-.34-.815-.51-1.455-.51-.66 0-1.205.185-1.635.555-.42.37-.665.86-.735 1.47h-1.14c.04-.86.385-1.59 1.035-2.19.65-.6 1.475-.9 2.475-.9.98 0 1.76.28 2.34.84.59.55.885 1.215.885 1.995 0 1.09-.565 1.87-1.695 2.34 1.38.38 2.07 1.28 2.07 2.7 0 .97-.355 1.735-1.065 2.295-.7.55-1.615.825-2.745.825zm10.204-1.08c1.89 0 2.835-1.385 2.835-4.155v-.6c0-1.25-.255-2.245-.765-2.985-.51-.75-1.21-1.125-2.1-1.125-.91 0-1.62.36-2.13 1.08-.51.72-.765 1.74-.765 3.06v.6c0 1.33.26 2.35.78 3.06s1.235 1.065 2.145 1.065zm0 1.08c-1.28 0-2.31-.475-3.09-1.425-.78-.95-1.17-2.205-1.17-3.765v-.6c0-1.59.375-2.855 1.125-3.795.76-.94 1.795-1.41 3.105-1.41 1.3 0 2.32.475 3.06 1.425.75.95 1.125 2.2 1.125 3.75v.6c0 1.58-.37 2.845-1.11 3.795-.73.95-1.745 1.425-3.045 1.425zm-11.659 88.291l-2.4 1.725v-1.215l2.49-1.8h1.215v10.725h-1.305v-9.435zm8.582 8.49c1.89 0 2.835-1.385 2.835-4.155v-.6c0-1.25-.255-2.245-.765-2.985-.51-.75-1.21-1.125-2.1-1.125-.91 0-1.62.36-2.13 1.08-.51.72-.765 1.74-.765 3.06v.6c0 1.33.26 2.35.78 3.06s1.235 1.065 2.145 1.065zm0 1.08c-1.28 0-2.31-.475-3.09-1.425-.78-.95-1.17-2.205-1.17-3.765v-.6c0-1.59.375-2.855 1.125-3.795.76-.94 1.795-1.41 3.105-1.41 1.3 0 2.32.475 3.06 1.425.75.95 1.125 2.2 1.125 3.75v.6c0 1.58-.37 2.845-1.11 3.795-.73.95-1.745 1.425-3.045 1.425zM978.622 140.6h-5.445v-1.05h7.065v.18l-4.02 10.545h-1.335l3.735-9.675zm7.222 8.73c1.89 0 2.835-1.385 2.835-4.155v-.6c0-1.25-.255-2.245-.765-2.985-.51-.75-1.21-1.125-2.1-1.125-.91 0-1.62.36-2.13 1.08-.51.72-.765 1.74-.765 3.06v.6c0 1.33.26 2.35.78 3.06s1.235 1.065 2.145 1.065zm0 1.08c-1.28 0-2.31-.475-3.09-1.425-.78-.95-1.17-2.205-1.17-3.765v-.6c0-1.59.375-2.855 1.125-3.795.76-.94 1.795-1.41 3.105-1.41 1.3 0 2.32.475 3.06 1.425.75.95 1.125 2.2 1.125 3.75v.6c0 1.58-.37 2.845-1.11 3.795-.73.95-1.745 1.425-3.045 1.425zm-7.192 144.408h-5.37v-.42l4.905-8.055h1.74v7.41h1.485v1.065h-1.485v2.25h-1.275v-2.25zm0-1.065v-6.42l-3.72 6.42h3.72zm8.716 2.37c1.89 0 2.835-1.385 2.835-4.155v-.6c0-1.25-.255-2.245-.765-2.985-.51-.75-1.21-1.125-2.1-1.125-.91 0-1.62.36-2.13 1.08-.51.72-.765 1.74-.765 3.06v.6c0 1.33.26 2.35.78 3.06s1.235 1.065 2.145 1.065zm0 1.08c-1.28 0-2.31-.475-3.09-1.425-.78-.95-1.17-2.205-1.17-3.765v-.6c0-1.59.375-2.855 1.125-3.795.76-.94 1.795-1.41 3.105-1.41 1.3 0 2.32.475 3.06 1.425.75.95 1.125 2.2 1.125 3.75v.6c0 1.58-.37 2.845-1.11 3.795-.73.95-1.745 1.425-3.045 1.425zm-14.386 97.429l4.26-4.485c1.03-1.09 1.545-2.125 1.545-3.105 0-.6-.17-1.07-.51-1.41-.33-.34-.8-.51-1.41-.51-1.3 0-2.055.795-2.265 2.385h-1.215c.08-1.06.425-1.895 1.035-2.505.62-.62 1.435-.93 2.445-.93.99 0 1.775.275 2.355.825.59.54.885 1.27.885 2.19 0 1.18-.72 2.48-2.16 3.9l-2.955 2.88h5.175v1.065h-7.185v-.3zm13.448-.645c1.89 0 2.835-1.385 2.835-4.155v-.6c0-1.25-.255-2.245-.765-2.985-.51-.75-1.21-1.125-2.1-1.125-.91 0-1.62.36-2.13 1.08-.51.72-.765 1.74-.765 3.06v.6c0 1.33.26 2.35.78 3.06s1.235 1.065 2.145 1.065zm0 1.08c-1.28 0-2.31-.475-3.09-1.425-.78-.95-1.17-2.205-1.17-3.765v-.6c0-1.59.375-2.855 1.125-3.795.76-.94 1.795-1.41 3.105-1.41 1.3 0 2.32.475 3.06 1.425.75.95 1.125 2.2 1.125 3.75v.6c0 1.58-.37 2.845-1.11 3.795-.73.95-1.745 1.425-3.045 1.425zm-9.173-293.588c-.61 0-1.19-.11-1.74-.33a3.362 3.362 0 01-1.395-1.095c-.38-.5-.57-1.085-.57-1.755 0-.69.185-1.27.555-1.74.37-.47.86-.815 1.47-1.035-1.08-.43-1.62-1.18-1.62-2.25 0-.82.33-1.49.99-2.01.67-.52 1.44-.78 2.31-.78.87 0 1.635.26 2.295.78.66.51.99 1.17.99 1.98 0 1.03-.55 1.785-1.65 2.265 1.37.51 2.055 1.43 2.055 2.76 0 1.01-.37 1.8-1.11 2.37-.73.56-1.59.84-2.58.84zm0-1.065c.69 0 1.255-.19 1.695-.57.44-.39.66-.93.66-1.62 0-.67-.225-1.19-.675-1.56-.44-.38-.99-.57-1.65-.57-.68 0-1.25.19-1.71.57-.46.37-.69.9-.69 1.59 0 .67.23 1.2.69 1.59.46.38 1.02.57 1.68.57zm.045-5.355c.58 0 1.045-.16 1.395-.48.35-.32.525-.76.525-1.32 0-.51-.185-.93-.555-1.26-.37-.33-.84-.495-1.41-.495-.58 0-1.055.16-1.425.48-.37.32-.555.755-.555 1.305 0 .54.195.97.585 1.29.39.32.87.48 1.44.48zm9.846 5.34c1.89 0 2.835-1.385 2.835-4.155v-.6c0-1.25-.255-2.245-.765-2.985-.51-.75-1.21-1.125-2.1-1.125-.91 0-1.62.36-2.13 1.08-.51.72-.765 1.74-.765 3.06v.6c0 1.33.26 2.35.78 3.06s1.235 1.065 2.145 1.065zm0 1.08c-1.28 0-2.31-.475-3.09-1.425-.78-.95-1.17-2.205-1.17-3.765v-.6c0-1.59.375-2.855 1.125-3.795.76-.94 1.795-1.41 3.105-1.41 1.3 0 2.32.475 3.06 1.425.75.95 1.125 2.2 1.125 3.75v.6c0 1.58-.37 2.845-1.11 3.795-.73.95-1.745 1.425-3.045 1.425zm-10.236 146.795c-1.11 0-1.96-.27-2.55-.81-.59-.55-.93-1.29-1.02-2.22h1.245c.12.65.345 1.145.675 1.485.33.33.875.495 1.635.495.73 0 1.305-.23 1.725-.69.42-.46.63-1.095.63-1.905 0-.76-.205-1.365-.615-1.815-.4-.46-.945-.69-1.635-.69-.6 0-1.095.085-1.485.255-.39.17-.74.43-1.05.78h-.48v-5.745h6.03v1.125h-4.95v3.27c.53-.49 1.26-.735 2.19-.735.98 0 1.78.325 2.4.975.62.64.93 1.5.93 2.58 0 1.11-.35 1.995-1.05 2.655-.7.66-1.575.99-2.625.99zm10.002-1.08c1.89 0 2.835-1.385 2.835-4.155v-.6c0-1.25-.255-2.245-.765-2.985-.51-.75-1.21-1.125-2.1-1.125-.91 0-1.62.36-2.13 1.08-.51.72-.765 1.74-.765 3.06v.6c0 1.33.26 2.35.78 3.06s1.235 1.065 2.145 1.065zm0 1.08c-1.28 0-2.31-.475-3.09-1.425-.78-.95-1.17-2.205-1.17-3.765v-.6c0-1.59.375-2.855 1.125-3.795.76-.94 1.795-1.41 3.105-1.41 1.3 0 2.32.475 3.06 1.425.75.95 1.125 2.2 1.125 3.75v.6c0 1.58-.37 2.845-1.11 3.795-.73.95-1.745 1.425-3.045 1.425zM226.375 550.528l4.26-4.485c1.03-1.09 1.545-2.125 1.545-3.105 0-.6-.17-1.07-.51-1.41-.33-.34-.8-.51-1.41-.51-1.3 0-2.055.795-2.265 2.385h-1.215c.08-1.06.425-1.895 1.035-2.505.62-.62 1.435-.93 2.445-.93.99 0 1.775.275 2.355.825.59.54.885 1.27.885 2.19 0 1.18-.72 2.48-2.16 3.9l-2.955 2.88h5.175v1.065h-7.185v-.3zm13.448-.645c1.89 0 2.835-1.385 2.835-4.155v-.6c0-1.25-.255-2.245-.765-2.985-.51-.75-1.21-1.125-2.1-1.125-.91 0-1.62.36-2.13 1.08-.51.72-.765 1.74-.765 3.06v.6c0 1.33.26 2.35.78 3.06s1.235 1.065 2.145 1.065zm0 1.08c-1.28 0-2.31-.475-3.09-1.425-.78-.95-1.17-2.205-1.17-3.765v-.6c0-1.59.375-2.855 1.125-3.795.76-.94 1.795-1.41 3.105-1.41 1.3 0 2.32.475 3.06 1.425.75.95 1.125 2.2 1.125 3.75v.6c0 1.58-.37 2.845-1.11 3.795-.73.95-1.745 1.425-3.045 1.425zm8.285-9.57l-2.4 1.725v-1.215l2.49-1.8h1.215v10.725h-1.305v-9.435zm9.347-.24h-5.445v-1.05h7.065v.18l-4.02 10.545h-1.335l3.735-9.675zM342.157 6.275h1.71L347.497 17h-1.29l-1.05-3.09h-4.425L339.697 17h-1.23l3.69-10.725zm-1.065 6.6h3.72l-1.86-5.52-1.86 5.52zm11.394 3.06c1.35 0 2.375-.375 3.075-1.125.71-.76 1.065-1.81 1.065-3.15v-.12c0-1.31-.34-2.34-1.02-3.09-.67-.75-1.715-1.125-3.135-1.125h-1.455v8.61h1.47zm-2.775-9.66h2.835c1.77 0 3.115.485 4.035 1.455.93.97 1.395 2.24 1.395 3.81v.135c0 1.57-.46 2.85-1.38 3.84-.92.99-2.28 1.485-4.08 1.485h-2.805V6.275zm10.77 0h3.225c1.11 0 2.01.245 2.7.735.7.49 1.05 1.24 1.05 2.25v.06c0 .83-.245 1.49-.735 1.98-.49.48-1.13.795-1.92.945L368.086 17h-1.455l-3.195-4.665h-1.65V17h-1.305V6.275zm3.315 5.025c1.57 0 2.355-.66 2.355-1.98v-.06c0-.7-.2-1.195-.6-1.485-.4-.3-.985-.45-1.755-.45h-2.01V11.3h2.01zm10.429-1.05l1.245-1.665-1.845-.435.33-1.005 1.77.72-.105-2.01h1.095l-.105 2.01 1.755-.72.33 1.005-1.86.435 1.245 1.665-.84.615-1.11-1.8-1.05 1.8-.855-.615zm293.17 6.885c-1.19 0-2.095-.315-2.715-.945-.61-.63-.97-1.45-1.08-2.46h1.26c.09.73.32 1.305.69 1.725.38.42.995.63 1.845.63.8 0 1.41-.195 1.83-.585.42-.4.63-.95.63-1.65 0-.66-.195-1.135-.585-1.425-.38-.3-1.03-.45-1.95-.45h-1.365v-.99h1.365c1.38 0 2.07-.655 2.07-1.965 0-1.22-.665-1.83-1.995-1.83-.66 0-1.165.15-1.515.45-.34.29-.575.775-.705 1.455h-1.17c.23-1.97 1.39-2.955 3.48-2.955.95 0 1.715.265 2.295.795.59.52.885 1.215.885 2.085 0 .56-.155 1.06-.465 1.5-.3.43-.735.73-1.305.9.74.11 1.3.375 1.68.795.38.42.57.965.57 1.635 0 .95-.35 1.735-1.05 2.355-.69.62-1.59.93-2.7.93zm7.991 0c-.77 0-1.4-.19-1.89-.57-.48-.39-.72-.97-.72-1.74 0-.43.105-.805.315-1.125.22-.33.52-.585.9-.765.38-.19.795-.325 1.245-.405.45-.09.94-.135 1.47-.135h1.125v-.57c0-.63-.13-1.08-.39-1.35-.26-.28-.69-.42-1.29-.42-1.08 0-1.68.47-1.8 1.41h-1.245c.08-.84.405-1.455.975-1.845.58-.4 1.29-.6 2.13-.6 1.91 0 2.865.935 2.865 2.805V17h-1.245v-.99c-.6.75-1.415 1.125-2.445 1.125zm.12-.99c.68 0 1.235-.165 1.665-.495.44-.34.66-.805.66-1.395v-.975h-1.08c-1.82 0-2.73.515-2.73 1.545 0 .88.495 1.32 1.485 1.32zm7.32-5.94V17h-1.245V9.155h4.98v1.05h-3.735zm5.69-1.05h1.245v1.32c.23-.4.59-.74 1.08-1.02a3.04 3.04 0 011.575-.435c1.05 0 1.905.355 2.565 1.065.67.71 1.005 1.67 1.005 2.88v.12c0 1.21-.33 2.19-.99 2.94-.65.74-1.51 1.11-2.58 1.11-1.2 0-2.085-.475-2.655-1.425v4.02h-1.245V9.155zm3.78 6.945c.78 0 1.375-.25 1.785-.75.41-.51.615-1.245.615-2.205v-.12c0-.95-.23-1.68-.69-2.19-.45-.52-1.025-.78-1.725-.78-.76 0-1.38.255-1.86.765-.47.5-.705 1.235-.705 2.205v.12c0 .97.23 1.705.69 2.205.47.5 1.1.75 1.89.75zm7.818.09l-3.075-7.035h1.335l2.4 5.625 2.175-5.625h1.275l-4.335 10.575h-1.26l1.485-3.54zm10.718-4.995c0 .39-.115.75-.345 1.08-.22.32-.535.52-.945.6.51.09.915.285 1.215.585.3.3.45.695.45 1.185v.045c0 .73-.27 1.32-.81 1.77-.53.45-1.255.675-2.175.675-.95 0-1.695-.22-2.235-.66-.53-.45-.815-1.08-.855-1.89h1.215c.06.5.23.88.51 1.14.29.25.745.375 1.365.375 1.12 0 1.68-.445 1.68-1.335v-.045c0-.44-.135-.76-.405-.96-.26-.2-.665-.3-1.215-.3h-1.185v-.99h.975c.52 0 .89-.095 1.11-.285.23-.19.345-.5.345-.93v-.045c0-.77-.45-1.155-1.35-1.155-.87 0-1.39.41-1.56 1.23h-1.2c.09-.79.39-1.365.9-1.725.52-.36 1.165-.54 1.935-.54.74 0 1.355.19 1.845.57.49.37.735.89.735 1.56v.045zm3.752 1.8V17h-1.245V9.155h1.245v3.66l3.255-3.66h1.455l-3.36 3.69L719.579 17h-1.515l-3.48-4.005zm8.621 4.14c-.77 0-1.4-.19-1.89-.57-.48-.39-.72-.97-.72-1.74 0-.43.105-.805.315-1.125.22-.33.52-.585.9-.765.38-.19.795-.325 1.245-.405.45-.09.94-.135 1.47-.135h1.125v-.57c0-.63-.13-1.08-.39-1.35-.26-.28-.69-.42-1.29-.42-1.08 0-1.68.47-1.8 1.41h-1.245c.08-.84.405-1.455.975-1.845.58-.4 1.29-.6 2.13-.6 1.91 0 2.865.935 2.865 2.805V17h-1.245v-.99c-.6.75-1.415 1.125-2.445 1.125zm.12-.99c.68 0 1.235-.165 1.665-.495.44-.34.66-.805.66-1.395v-.975h-1.08c-1.82 0-2.73.515-2.73 1.545 0 .88.495 1.32 1.485 1.32zm12.31 3.075c-1.66-1.89-2.49-4.19-2.49-6.9 0-2.66.83-4.965 2.49-6.915h1.245c-1.62 1.99-2.43 4.295-2.43 6.915 0 2.58.81 4.88 2.43 6.9h-1.245zm7.995-9.015h-3.705V17h-1.245V9.155h6.195V17h-1.245v-6.795zm4.006-1.05h1.245v1.32c.23-.4.59-.74 1.08-1.02a3.04 3.04 0 011.575-.435c1.05 0 1.905.355 2.565 1.065.67.71 1.005 1.67 1.005 2.88v.12c0 1.21-.33 2.19-.99 2.94-.65.74-1.51 1.11-2.58 1.11-1.2 0-2.085-.475-2.655-1.425v4.02h-1.245V9.155zm3.78 6.945c.78 0 1.375-.25 1.785-.75.41-.51.615-1.245.615-2.205v-.12c0-.95-.23-1.68-.69-2.19-.45-.52-1.025-.78-1.725-.78-.76 0-1.38.255-1.86.765-.47.5-.705 1.235-.705 2.205v.12c0 .97.23 1.705.69 2.205.47.5 1.1.75 1.89.75zm7.011.705a.948.948 0 01-.675.27.948.948 0 01-.96-.96c0-.27.095-.495.285-.675a.923.923 0 01.675-.285c.26 0 .485.095.675.285.19.18.285.405.285.675s-.095.5-.285.69zm10.419-.705c.78 0 1.4-.27 1.86-.81.47-.54.705-1.255.705-2.145v-.105c0-.91-.235-1.635-.705-2.175-.46-.54-1.08-.81-1.86-.81-.79 0-1.415.27-1.875.81-.46.54-.69 1.26-.69 2.16v.12c0 .91.225 1.63.675 2.16.46.53 1.09.795 1.89.795zm-.015 1.035c-1.11 0-2.03-.375-2.76-1.125-.72-.76-1.08-1.715-1.08-2.865v-.12c0-1.17.36-2.13 1.08-2.88.73-.75 1.655-1.125 2.775-1.125 1.12 0 2.04.375 2.76 1.125.73.74 1.095 1.695 1.095 2.865v.12c0 1.18-.365 2.145-1.095 2.895-.73.74-1.655 1.11-2.775 1.11zm9.203 0c-1.12 0-2.04-.36-2.76-1.08-.72-.73-1.08-1.695-1.08-2.895v-.12c0-1.18.365-2.145 1.095-2.895.74-.75 1.645-1.125 2.715-1.125.9 0 1.665.225 2.295.675.63.44 1 1.13 1.11 2.07h-1.23c-.18-1.14-.905-1.71-2.175-1.71-.73 0-1.335.275-1.815.825-.47.54-.705 1.26-.705 2.16v.12c0 .94.23 1.665.69 2.175.47.51 1.095.765 1.875.765.59 0 1.095-.165 1.515-.495.43-.34.675-.815.735-1.425h1.155c-.08.86-.44 1.57-1.08 2.13-.63.55-1.41.825-2.34.825zm5.359-7.98h1.245V11.9h1.395c.88 0 1.6.215 2.16.645.56.43.84 1.07.84 1.92v.045c0 .86-.28 1.49-.84 1.89-.55.4-1.27.6-2.16.6h-2.64V9.155zm2.715 6.87c.6 0 1.03-.125 1.29-.375.26-.26.39-.64.39-1.14v-.045c0-.54-.135-.935-.405-1.185-.26-.26-.685-.39-1.275-.39h-1.47v3.135h1.47zm3.978 3.195c1.62-1.99 2.43-4.295 2.43-6.915 0-2.58-.81-4.88-2.43-6.9h1.245c1.66 2.01 2.49 4.31 2.49 6.9 0 2.66-.83 4.965-2.49 6.915h-1.245zm10.209-8.97l1.245-1.665-1.845-.435.33-1.005 1.77.72-.105-2.01h1.095l-.105 2.01 1.755-.72.33 1.005-1.86.435 1.245 1.665-.84.615-1.11-1.8-1.05 1.8-.855-.615zM12.417 5.275h3.045c1.1 0 2 .26 2.7.78.7.51 1.05 1.295 1.05 2.355v.06c0 1.08-.35 1.88-1.05 2.4-.69.51-1.59.765-2.7.765h-1.74V16h-1.305V5.275zm3.135 5.325c.77 0 1.355-.18 1.755-.54.4-.37.6-.9.6-1.59v-.06c0-1.39-.785-2.085-2.355-2.085h-1.83V10.6h1.83zm7.83 4.59l-3.074-7.035h1.335l2.4 5.625 2.175-5.625h1.275L23.158 18.73h-1.26l1.485-3.54zm9.185.945c-1.18 0-2.115-.38-2.805-1.14-.69-.76-1.035-1.915-1.035-3.465v-.48c0-.74.03-1.395.09-1.965.06-.58.185-1.16.375-1.74.19-.59.44-1.08.75-1.47.31-.39.73-.715 1.26-.975.54-.26 1.175-.41 1.905-.45l.3-.015c1.1-.06 1.845-.17 2.235-.33l.165 1.05c-.51.22-1.305.355-2.385.405l-.225.015c-1.21.06-2.075.455-2.595 1.185-.51.72-.81 1.84-.9 3.36h.06c.27-.55.67-.985 1.2-1.305.54-.33 1.165-.495 1.875-.495 1.09 0 1.96.355 2.61 1.065.66.7.99 1.61.99 2.73v.06c0 1.21-.365 2.175-1.095 2.895-.72.71-1.645 1.065-2.775 1.065zm-1.875-1.8c.46.51 1.09.765 1.89.765.8 0 1.425-.25 1.875-.75.46-.51.69-1.23.69-2.16v-.03c0-.87-.21-1.555-.63-2.055-.41-.5-1.01-.75-1.8-.75-.83 0-1.49.26-1.98.78-.48.52-.72 1.23-.72 2.13v.03c0 .85.225 1.53.675 2.04zm9.335-1.365c-.09 1.08-.28 1.87-.57 2.37-.29.49-.745.735-1.365.735-.13 0-.265-.01-.405-.03l-.12-.045v-1.185l.105.03c.1.02.205.03.315.03a.56.56 0 00.39-.135c.11-.1.195-.255.255-.465.07-.21.12-.405.15-.585.03-.19.065-.455.105-.795.04-.36.1-1.38.18-3.06l.045-1.68h5.175V16h-1.245V9.205h-2.82c-.09 2.16-.155 3.415-.195 3.765zM46.953 16V8.155h1.245V14.2l4.005-6.045h1.245V16h-1.245V9.955L48.198 16h-1.245zm928.714-6.72c.42 0 .745-.135.975-.405.23-.27.345-.655.345-1.155 0-.48-.12-.86-.36-1.14-.23-.28-.55-.42-.96-.42-.4 0-.72.14-.96.42-.24.27-.36.655-.36 1.155s.115.885.345 1.155c.24.26.565.39.975.39zm1.725.255c-.49.48-1.065.72-1.725.72-.66 0-1.235-.24-1.725-.72s-.735-1.075-.735-1.785c0-.73.24-1.34.72-1.83.49-.49 1.07-.735 1.74-.735.67 0 1.245.245 1.725.735.49.49.735 1.09.735 1.8 0 .72-.245 1.325-.735 1.815zm3.885-4.26h1.14L975.862 16h-1.14l6.555-10.725zm.21 9.87c.42 0 .745-.135.975-.405.23-.27.345-.655.345-1.155 0-.48-.12-.86-.36-1.14-.23-.28-.55-.42-.96-.42-.4 0-.72.14-.96.42-.24.27-.36.655-.36 1.155s.115.885.345 1.155c.24.26.565.39.975.39zm1.725.255c-.49.48-1.065.72-1.725.72-.66 0-1.235-.24-1.725-.72s-.735-1.075-.735-1.785c0-.73.24-1.34.72-1.83.49-.49 1.07-.735 1.74-.735.67 0 1.245.245 1.725.735.49.49.735 1.09.735 1.8 0 .72-.245 1.325-.735 1.815zM475.18 550.528l4.26-4.485c1.03-1.09 1.545-2.125 1.545-3.105 0-.6-.17-1.07-.51-1.41-.33-.34-.8-.51-1.41-.51-1.3 0-2.055.795-2.265 2.385h-1.215c.08-1.06.425-1.895 1.035-2.505.62-.62 1.435-.93 2.445-.93.99 0 1.775.275 2.355.825.59.54.885 1.27.885 2.19 0 1.18-.72 2.48-2.16 3.9l-2.955 2.88h5.175v1.065h-7.185v-.3zm13.448-.645c1.89 0 2.835-1.385 2.835-4.155v-.6c0-1.25-.255-2.245-.765-2.985-.51-.75-1.21-1.125-2.1-1.125-.91 0-1.62.36-2.13 1.08-.51.72-.765 1.74-.765 3.06v.6c0 1.33.26 2.35.78 3.06s1.235 1.065 2.145 1.065zm0 1.08c-1.28 0-2.31-.475-3.09-1.425-.78-.95-1.17-2.205-1.17-3.765v-.6c0-1.59.375-2.855 1.125-3.795.76-.94 1.795-1.41 3.105-1.41 1.3 0 2.32.475 3.06 1.425.75.95 1.125 2.2 1.125 3.75v.6c0 1.58-.37 2.845-1.11 3.795-.73.95-1.745 1.425-3.045 1.425zm8.285-9.57l-2.4 1.725v-1.215l2.49-1.8h1.215v10.725h-1.305v-9.435zm7.982 9.57c-.61 0-1.19-.11-1.74-.33a3.362 3.362 0 01-1.395-1.095c-.38-.5-.57-1.085-.57-1.755 0-.69.185-1.27.555-1.74.37-.47.86-.815 1.47-1.035-1.08-.43-1.62-1.18-1.62-2.25 0-.82.33-1.49.99-2.01.67-.52 1.44-.78 2.31-.78.87 0 1.635.26 2.295.78.66.51.99 1.17.99 1.98 0 1.03-.55 1.785-1.65 2.265 1.37.51 2.055 1.43 2.055 2.76 0 1.01-.37 1.8-1.11 2.37-.73.56-1.59.84-2.58.84zm0-1.065c.69 0 1.255-.19 1.695-.57.44-.39.66-.93.66-1.62 0-.67-.225-1.19-.675-1.56-.44-.38-.99-.57-1.65-.57-.68 0-1.25.19-1.71.57-.46.37-.69.9-.69 1.59 0 .67.23 1.2.69 1.59.46.38 1.02.57 1.68.57zm.045-5.355c.58 0 1.045-.16 1.395-.48.35-.32.525-.76.525-1.32 0-.51-.185-.93-.555-1.26-.37-.33-.84-.495-1.41-.495-.58 0-1.055.16-1.425.48-.37.32-.555.755-.555 1.305 0 .54.195.97.585 1.29.39.32.87.48 1.44.48zm220.264 5.985l4.26-4.485c1.03-1.09 1.545-2.125 1.545-3.105 0-.6-.17-1.07-.51-1.41-.33-.34-.8-.51-1.41-.51-1.3 0-2.055.795-2.265 2.385h-1.215c.08-1.06.425-1.895 1.035-2.505.62-.62 1.435-.93 2.445-.93.99 0 1.775.275 2.355.825.59.54.885 1.27.885 2.19 0 1.18-.72 2.48-2.16 3.9l-2.955 2.88h5.175v1.065h-7.185v-.3zm13.448-.645c1.89 0 2.835-1.385 2.835-4.155v-.6c0-1.25-.255-2.245-.765-2.985-.51-.75-1.21-1.125-2.1-1.125-.91 0-1.62.36-2.13 1.08-.51.72-.765 1.74-.765 3.06v.6c0 1.33.26 2.35.78 3.06s1.235 1.065 2.145 1.065zm0 1.08c-1.28 0-2.31-.475-3.09-1.425-.78-.95-1.17-2.205-1.17-3.765v-.6c0-1.59.375-2.855 1.125-3.795.76-.94 1.795-1.41 3.105-1.41 1.3 0 2.32.475 3.06 1.425.75.95 1.125 2.2 1.125 3.75v.6c0 1.58-.37 2.845-1.11 3.795-.73.95-1.745 1.425-3.045 1.425zm8.285-9.57l-2.4 1.725v-1.215l2.49-1.8h1.215v10.725h-1.305v-9.435zm7.626 9.555c-.98 0-1.765-.24-2.355-.72-.59-.48-.955-1.16-1.095-2.04h1.26c.13.56.365.985.705 1.275.35.28.855.42 1.515.42.87 0 1.54-.355 2.01-1.065.47-.71.715-1.775.735-3.195-.27.45-.645.8-1.125 1.05s-1.03.375-1.65.375c-1.04 0-1.89-.33-2.55-.99-.65-.66-.975-1.5-.975-2.52 0-1.08.335-1.945 1.005-2.595.67-.66 1.57-.99 2.7-.99 1.27 0 2.23.41 2.88 1.23.65.82.975 2.01.975 3.57v.675c0 1.79-.35 3.16-1.05 4.11-.69.94-1.685 1.41-2.985 1.41zm.195-4.92c.72 0 1.31-.215 1.77-.645.46-.43.69-.99.69-1.68 0-.86-.23-1.53-.69-2.01-.45-.48-1.045-.72-1.785-.72-.7 0-1.27.23-1.71.69-.44.46-.66 1.065-.66 1.815 0 .78.215 1.4.645 1.86.43.46 1.01.69 1.74.69z" fill="#fff"/><path opacity=".5" fill="#434343" d="M103.668 396h829.35v1.138h-829.35zm0 99h829.35v1.138h-829.35zm0-196.862h829.35v1.138h-829.35zm0-195.725h829.35v1.138h-829.35zm0 97.862h829.35v1.138h-829.35z"/><path fill="#F5E6D1" d="M203.678 209.38h64.641v285.621h-64.641zm254.904-42.105h64.641v327.724h-64.641zm245.146 22.759h64.641V495h-64.641z"/><circle cx="268.44" cy="225.932" r="5" fill="#C7794E"/><circle cx="319.287" cy="12.5" r="5.5" fill="#F5E6D1"/><circle cx="644.928" cy="12.5" r="5.5" fill="#C7794E"/><circle cx="523.344" cy="222.656" r="5" fill="#C7794E"/><path d="M773.489 213a5 5 0 11-10 0 5 5 0 0110 0z" fill="#C7794E"/><path d="M267.709 226.052l256.123-3.845m.61-.001l243.926-9.655" stroke="#C7794E" stroke-width="3"/></svg>