<svg width="447" height="341" fill="none" xmlns="http://www.w3.org/2000/svg"><path d="M2.96 145.09c-.74 0-1.337-.207-1.79-.62-.447-.413-.683-.94-.71-1.58h.8c.04.453.203.817.49 1.09.287.273.697.41 1.23.41.547 0 .953-.12 1.22-.36.273-.247.41-.587.41-1.02 0-.927-.503-1.39-1.51-1.39h-.54v-.73h.5c.893 0 1.34-.407 1.34-1.22 0-.353-.11-.64-.33-.86-.22-.227-.543-.34-.97-.34-.44 0-.803.123-1.09.37-.28.247-.443.573-.49.98H.76c.027-.573.257-1.06.69-1.46.433-.4.983-.6 1.65-.6.653 0 1.173.187 1.56.56.393.367.59.81.59 1.33 0 .727-.377 1.247-1.13 1.56.92.253 1.38.853 1.38 1.8 0 .647-.237 1.157-.71 1.53-.467.367-1.077.55-1.83.55zm6.532 0c-1.713 0-2.57-1.083-2.57-3.25v-.17c0-1.253.253-2.217.76-2.89.513-.68 1.193-1.02 2.04-1.02.573 0 1.04.147 1.4.44.367.293.597.723.69 1.29h-.83c-.08-.347-.223-.603-.43-.77-.207-.167-.503-.25-.89-.25-.553 0-1 .247-1.34.74-.34.493-.52 1.2-.54 2.12.387-.647 1-.97 1.84-.97.7 0 1.263.223 1.69.67.433.44.65.997.65 1.67 0 .72-.223 1.3-.67 1.74-.447.433-1.047.65-1.8.65zm0-.68c.467 0 .847-.153 1.14-.46.293-.307.44-.71.44-1.21 0-.52-.143-.933-.43-1.24-.287-.307-.673-.46-1.16-.46-.48 0-.873.147-1.18.44-.307.293-.46.673-.46 1.14 0 .567.15 1.007.45 1.32.307.313.707.47 1.2.47zm6.63-.04c1.26 0 1.89-.923 1.89-2.77v-.4c0-.833-.17-1.497-.51-1.99-.34-.5-.807-.75-1.4-.75-.607 0-1.08.24-1.42.72-.34.48-.51 1.16-.51 2.04v.4c0 .887.173 1.567.52 2.04.347.473.823.71 1.43.71zm0 .72c-.854 0-1.54-.317-2.06-.95s-.78-1.47-.78-2.51v-.4c0-1.06.25-1.903.75-2.53.507-.627 1.197-.94 2.07-.94.866 0 1.546.317 2.04.95.5.633.75 1.467.75 2.5v.4c0 1.053-.247 1.897-.74 2.53-.487.633-1.164.95-2.03.95zM4.03 101.5H.45v-.28l3.27-5.37h1.16v4.94h.99v.71h-.99v1.5h-.85v-1.5zm0-.71v-4.28l-2.48 4.28h2.48zm4.251-4.08l-1.6 1.15v-.81l1.66-1.2h.81V103h-.87v-6.29zm5.722 5.66c1.26 0 1.89-.923 1.89-2.77v-.4c0-.833-.17-1.497-.51-1.99-.34-.5-.807-.75-1.4-.75-.607 0-1.08.24-1.42.72-.34.48-.51 1.16-.51 2.04v.4c0 .887.173 1.567.52 2.04.346.473.823.71 1.43.71zm0 .72c-.854 0-1.54-.317-2.06-.95s-.78-1.47-.78-2.51v-.4c0-1.06.25-1.903.75-2.53.506-.627 1.196-.94 2.07-.94.866 0 1.546.317 2.04.95.5.633.75 1.467.75 2.5v.4c0 1.053-.247 1.897-.74 2.53-.487.633-1.164.95-2.03.95zM.25 274.8l2.84-2.99c.687-.727 1.03-1.417 1.03-2.07 0-.4-.113-.713-.34-.94-.22-.227-.533-.34-.94-.34-.867 0-1.37.53-1.51 1.59H.52c.053-.707.283-1.263.69-1.67.413-.413.957-.62 1.63-.62.66 0 1.183.183 1.57.55.393.36.59.847.59 1.46 0 .787-.48 1.653-1.44 2.6l-1.97 1.92h3.45v.71H.25v-.2zm7.504-6.09l-1.6 1.15v-.81l1.66-1.2h.81V275h-.87v-6.29zm5.721 5.66c1.26 0 1.89-.923 1.89-2.77v-.4c0-.833-.17-1.497-.51-1.99-.34-.5-.806-.75-1.4-.75-.606 0-1.08.24-1.42.72-.34.48-.51 1.16-.51 2.04v.4c0 .887.174 1.567.52 2.04.347.473.824.71 1.43.71zm0 .72c-.853 0-1.54-.317-2.06-.95s-.78-1.47-.78-2.51v-.4c0-1.06.25-1.903.75-2.53.507-.627 1.197-.94 2.07-.94.867 0 1.547.317 2.04.95.5.633.75 1.467.75 2.5v.4c0 1.053-.246 1.897-.74 2.53-.486.633-1.163.95-2.03.95z" fill="#fff"/><path opacity=".6" d="M183.13 310.887c-.672 0-1.008.285-1.008.855v.027c0 .27.078.474.234.612.156.138.414.207.774.207h.882v-1.701h-.882zM181.888 315h-.855l1.431-1.971c-.726-.15-1.089-.57-1.089-1.26v-.027c0-.492.168-.855.504-1.089.336-.24.768-.36 1.296-.36h1.584V315h-.747v-1.845h-.81L181.888 315zm7.537-2.097h-2.313V315h-.747v-4.707h.747v1.98h2.313v-1.98h.747V315h-.747v-2.097zm2.347-2.61h1.647c1.104 0 1.656.399 1.656 1.197v.027c0 .228-.063.438-.189.63a.942.942 0 01-.567.378c.654.144.981.498.981 1.062v.027c0 .456-.15.801-.45 1.035-.294.234-.705.351-1.233.351h-1.845v-4.707zm.747.594v1.395h.9c.312 0 .534-.057.666-.171.138-.114.207-.3.207-.558v-.027c0-.24-.072-.405-.216-.495-.138-.096-.36-.144-.666-.144h-.891zm0 1.989v1.53h1.026c.33 0 .573-.057.729-.171.162-.12.243-.312.243-.576v-.027c0-.264-.081-.456-.243-.576-.156-.12-.399-.18-.729-.18h-1.026zm5.34 2.205c-.462 0-.84-.114-1.134-.342-.288-.234-.432-.582-.432-1.044 0-.258.063-.483.189-.675.132-.198.312-.351.54-.459.228-.114.477-.195.747-.243a4.5 4.5 0 01.882-.081h.675v-.342c0-.378-.078-.648-.234-.81-.156-.168-.414-.252-.774-.252-.648 0-1.008.282-1.08.846h-.747c.048-.504.243-.873.585-1.107.348-.24.774-.36 1.278-.36 1.146 0 1.719.561 1.719 1.683V315h-.747v-.594c-.36.45-.849.675-1.467.675zm.072-.594c.408 0 .741-.099.999-.297.264-.204.396-.483.396-.837v-.585h-.648c-1.092 0-1.638.309-1.638.927 0 .528.297.792.891.792zm3.699-4.194h.747v.792c.138-.24.354-.444.648-.612.294-.174.609-.261.945-.261.63 0 1.143.213 1.539.639.402.426.603 1.002.603 1.728v.072c0 .726-.198 1.314-.594 1.764-.39.444-.906.666-1.548.666-.72 0-1.251-.285-1.593-.855v2.412h-.747v-6.345zm2.268 4.167c.468 0 .825-.15 1.071-.45.246-.306.369-.747.369-1.323v-.072c0-.57-.138-1.008-.414-1.314a1.308 1.308 0 00-1.035-.468c-.456 0-.828.153-1.116.459-.282.3-.423.741-.423 1.323v.072c0 .582.138 1.023.414 1.323.282.3.66.45 1.134.45zm3.411-4.167h.747v1.647h.837c.528 0 .96.129 1.296.387.336.258.504.642.504 1.152v.027c0 .516-.168.894-.504 1.134-.33.24-.762.36-1.296.36h-1.584v-4.707zm1.629 4.122c.36 0 .618-.075.774-.225.156-.156.234-.384.234-.684v-.027c0-.324-.081-.561-.243-.711-.156-.156-.411-.234-.765-.234h-.882v1.881h.882z" fill="#fff"/><path d="M181.069 330.8l2.84-2.99c.687-.727 1.03-1.417 1.03-2.07 0-.4-.113-.713-.34-.94-.22-.227-.533-.34-.94-.34-.867 0-1.37.53-1.51 1.59h-.81c.053-.707.283-1.263.69-1.67.413-.413.957-.62 1.63-.62.66 0 1.183.183 1.57.55.393.36.59.847.59 1.46 0 .787-.48 1.653-1.44 2.6l-1.97 1.92h3.45v.71h-4.79v-.2zm8.965-.43c1.26 0 1.89-.923 1.89-2.77v-.4c0-.833-.17-1.497-.51-1.99-.34-.5-.806-.75-1.4-.75-.606 0-1.08.24-1.42.72-.34.48-.51 1.16-.51 2.04v.4c0 .887.174 1.567.52 2.04.347.473.824.71 1.43.71zm0 .72c-.853 0-1.54-.317-2.06-.95s-.78-1.47-.78-2.51v-.4c0-1.06.25-1.903.75-2.53.507-.627 1.197-.94 2.07-.94.867 0 1.547.317 2.04.95.5.633.75 1.467.75 2.5v.4c0 1.053-.246 1.897-.74 2.53-.486.633-1.163.95-2.03.95zm5.524-6.38l-1.6 1.15v-.81l1.66-1.2h.81V331h-.87v-6.29zm5.084 6.37c-.654 0-1.177-.16-1.57-.48-.394-.32-.637-.773-.73-1.36h.84c.086.373.243.657.47.85.233.187.57.28 1.01.28.58 0 1.026-.237 1.34-.71.313-.473.476-1.183.49-2.13-.18.3-.43.533-.75.7-.32.167-.687.25-1.1.25-.694 0-1.26-.22-1.7-.66-.434-.44-.65-1-.65-1.68 0-.72.223-1.297.67-1.73.446-.44 1.046-.66 1.8-.66.846 0 1.486.273 1.92.82.433.547.65 1.34.65 2.38v.45c0 1.193-.234 2.107-.7 2.74-.46.627-1.124.94-1.99.94zm.13-3.28c.48 0 .873-.143 1.18-.43.306-.287.46-.66.46-1.12 0-.573-.154-1.02-.46-1.34-.3-.32-.697-.48-1.19-.48-.467 0-.847.153-1.14.46-.294.307-.44.71-.44 1.21 0 .52.143.933.43 1.24.286.307.673.46 1.16.46z" fill="#fff"/><path opacity=".6" d="M128.515 314.46c.468 0 .84-.162 1.116-.486.282-.324.423-.753.423-1.287v-.063c0-.546-.141-.981-.423-1.305-.276-.324-.648-.486-1.116-.486-.474 0-.849.162-1.125.486-.276.324-.414.756-.414 1.296v.072c0 .546.135.978.405 1.296.276.318.654.477 1.134.477zm-.009.621c-.666 0-1.218-.225-1.656-.675-.432-.456-.648-1.029-.648-1.719v-.072c0-.702.216-1.278.648-1.728.438-.45.993-.675 1.665-.675s1.224.225 1.656.675c.438.444.657 1.017.657 1.719v.072c0 .708-.219 1.287-.657 1.737-.438.444-.993.666-1.665.666zm4.262-2.484V315h-.747v-4.707h.747v2.196l1.953-2.196h.873l-2.016 2.214 2.187 2.493h-.909l-2.088-2.403zm7.286-1.674h-1.521V315h-.747v-4.077h-1.521v-.63h3.789v.63zm2.686-.036c-.672 0-1.008.285-1.008.855v.027c0 .27.078.474.234.612.156.138.414.207.774.207h.882v-1.701h-.882zM141.498 315h-.855l1.431-1.971c-.726-.15-1.089-.57-1.089-1.26v-.027c0-.492.168-.855.504-1.089.336-.24.768-.36 1.296-.36h1.584V315h-.747v-1.845h-.81L141.498 315zm6.502.081c-.708 0-1.269-.228-1.683-.684-.414-.456-.621-1.149-.621-2.079v-.288c0-.444.018-.837.054-1.179a5 5 0 01.225-1.044c.114-.354.264-.648.45-.882a2.16 2.16 0 01.756-.585 2.994 2.994 0 011.143-.27l.18-.009c.66-.036 1.107-.102 1.341-.198l.099.63c-.306.132-.783.213-1.431.243l-.135.009c-.726.036-1.245.273-1.557.711-.306.432-.486 1.104-.54 2.016h.036a1.85 1.85 0 01.72-.783 2.114 2.114 0 011.125-.297c.654 0 1.176.213 1.566.639.396.42.594.966.594 1.638v.036c0 .726-.219 1.305-.657 1.737-.432.426-.987.639-1.665.639zm-1.125-1.08c.276.306.654.459 1.134.459.48 0 .855-.15 1.125-.45.276-.306.414-.738.414-1.296v-.018c0-.522-.126-.933-.378-1.233-.246-.3-.606-.45-1.08-.45-.498 0-.894.156-1.188.468-.288.312-.432.738-.432 1.278v.018c0 .51.135.918.405 1.224zm4.755-3.708h.747v.792c.138-.24.354-.444.648-.612.294-.174.609-.261.945-.261.63 0 1.143.213 1.539.639.402.426.603 1.002.603 1.728v.072c0 .726-.198 1.314-.594 1.764-.39.444-.906.666-1.548.666-.72 0-1.251-.285-1.593-.855v2.412h-.747v-6.345zm2.268 4.167c.468 0 .825-.15 1.071-.45.246-.306.369-.747.369-1.323v-.072c0-.57-.138-1.008-.414-1.314a1.308 1.308 0 00-1.035-.468c-.456 0-.828.153-1.116.459-.282.3-.423.741-.423 1.323v.072c0 .582.138 1.023.414 1.323.282.3.66.45 1.134.45zm3.411-4.167h.747v1.647h.837c.528 0 .96.129 1.296.387.336.258.504.642.504 1.152v.027c0 .516-.168.894-.504 1.134-.33.24-.762.36-1.296.36h-1.584v-4.707zm1.629 4.122c.36 0 .618-.075.774-.225.156-.156.234-.384.234-.684v-.027c0-.324-.081-.561-.243-.711-.156-.156-.411-.234-.765-.234h-.882v1.881h.882z" fill="#fff"/><path d="M126.098 330.8l2.84-2.99c.687-.727 1.03-1.417 1.03-2.07 0-.4-.113-.713-.34-.94-.22-.227-.533-.34-.94-.34-.866 0-1.37.53-1.51 1.59h-.81c.054-.707.284-1.263.69-1.67.414-.413.957-.62 1.63-.62.66 0 1.184.183 1.57.55.394.36.59.847.59 1.46 0 .787-.48 1.653-1.44 2.6l-1.97 1.92h3.45v.71h-4.79v-.2zm8.966-.43c1.26 0 1.89-.923 1.89-2.77v-.4c0-.833-.17-1.497-.51-1.99-.34-.5-.807-.75-1.4-.75-.607 0-1.08.24-1.42.72-.34.48-.51 1.16-.51 2.04v.4c0 .887.173 1.567.52 2.04.346.473.823.71 1.43.71zm0 .72c-.854 0-1.54-.317-2.06-.95s-.78-1.47-.78-2.51v-.4c0-1.06.25-1.903.75-2.53.506-.627 1.196-.94 2.07-.94.866 0 1.546.317 2.04.95.5.633.75 1.467.75 2.5v.4c0 1.053-.247 1.897-.74 2.53-.487.633-1.164.95-2.03.95zm5.523-6.38l-1.6 1.15v-.81l1.66-1.2h.81V331h-.87v-6.29zm5.322 6.38c-.407 0-.794-.073-1.16-.22a2.237 2.237 0 01-.93-.73 1.874 1.874 0 01-.38-1.17c0-.46.123-.847.37-1.16.246-.313.573-.543.98-.69-.72-.287-1.08-.787-1.08-1.5 0-.547.22-.993.66-1.34a2.44 2.44 0 011.54-.52 2.4 2.4 0 011.53.52c.44.34.66.78.66 1.32 0 .687-.367 1.19-1.1 1.51.913.34 1.37.953 1.37 1.84 0 .673-.247 1.2-.74 1.58-.487.373-1.06.56-1.72.56zm0-.71c.46 0 .836-.127 1.13-.38.293-.26.44-.62.44-1.08 0-.447-.15-.793-.45-1.04-.294-.253-.66-.38-1.1-.38-.454 0-.834.127-1.14.38-.307.247-.46.6-.46 1.06 0 .447.153.8.46 1.06.306.253.68.38 1.12.38zm.03-3.57c.386 0 .696-.107.93-.32.233-.213.35-.507.35-.88 0-.34-.124-.62-.37-.84-.247-.22-.56-.33-.94-.33-.387 0-.704.107-.95.32-.247.213-.37.503-.37.87 0 .36.13.647.39.86.26.213.58.32.96.32z" fill="#fff"/><path opacity=".6" d="M73.742 315v-4.707h.747v3.627l2.403-3.627h.747V315h-.747v-3.627L74.489 315h-.747zm9.07.081c-.6 0-1.098-.186-1.494-.558-.39-.372-.62-.861-.693-1.467a1.682 1.682 0 01-.018-.153h-.71V315h-.748v-4.707h.747v1.98h.72c.072-.624.303-1.122.693-1.494.396-.378.9-.567 1.512-.567.666 0 1.203.222 1.611.666.408.444.612 1.02.612 1.728v.072c0 .714-.207 1.293-.62 1.737-.409.444-.946.666-1.612.666zm.01-.621c.461 0 .818-.159 1.07-.477.252-.318.378-.75.378-1.296v-.063c0-.552-.126-.987-.378-1.305-.252-.324-.609-.486-1.07-.486-.469 0-.829.159-1.08.477-.247.318-.37.753-.37 1.305v.072c0 .552.123.987.37 1.305.245.312.605.468 1.08.468zm4.33-1.278c-.053.648-.167 1.122-.341 1.422-.174.294-.447.441-.82.441-.077 0-.158-.006-.242-.018l-.072-.027v-.711l.063.018c.06.012.123.018.189.018a.336.336 0 00.234-.081.587.587 0 00.153-.279c.042-.126.072-.243.09-.351.018-.114.039-.273.063-.477.024-.216.06-.828.108-1.836l.027-1.008h3.105V315h-.747v-4.077H87.27c-.054 1.296-.093 2.049-.117 2.259zm4.157-2.889h.747v1.647h.837c.528 0 .96.129 1.296.387.336.258.504.642.504 1.152v.027c0 .516-.168.894-.504 1.134-.33.24-.762.36-1.296.36h-1.584v-4.707zm1.629 4.122c.36 0 .618-.075.774-.225.156-.156.234-.384.234-.684v-.027c0-.324-.081-.561-.243-.711-.156-.156-.411-.234-.765-.234h-.882v1.881h.882z" fill="#fff"/><path d="M73.098 330.8l2.84-2.99c.687-.727 1.03-1.417 1.03-2.07 0-.4-.113-.713-.34-.94-.22-.227-.533-.34-.94-.34-.866 0-1.37.53-1.51 1.59h-.81c.054-.707.284-1.263.69-1.67.414-.413.957-.62 1.63-.62.66 0 1.184.183 1.57.55.394.36.59.847.59 1.46 0 .787-.48 1.653-1.44 2.6l-1.97 1.92h3.45v.71h-4.79v-.2zm8.966-.43c1.26 0 1.89-.923 1.89-2.77v-.4c0-.833-.17-1.497-.51-1.99-.34-.5-.807-.75-1.4-.75-.607 0-1.08.24-1.42.72-.34.48-.51 1.16-.51 2.04v.4c0 .887.173 1.567.52 2.04.346.473.823.71 1.43.71zm0 .72c-.854 0-1.54-.317-2.06-.95s-.78-1.47-.78-2.51v-.4c0-1.06.25-1.903.75-2.53.506-.627 1.196-.94 2.07-.94.866 0 1.546.317 2.04.95.5.633.75 1.467.75 2.5v.4c0 1.053-.247 1.897-.74 2.53-.487.633-1.164.95-2.03.95zm5.523-6.38l-1.6 1.15v-.81l1.66-1.2h.81V331h-.87v-6.29zm5.322 6.38c-.407 0-.794-.073-1.16-.22a2.241 2.241 0 01-.93-.73 1.878 1.878 0 01-.38-1.17c0-.46.123-.847.37-1.16.246-.313.573-.543.98-.69-.72-.287-1.08-.787-1.08-1.5 0-.547.22-.993.66-1.34a2.44 2.44 0 011.54-.52 2.4 2.4 0 011.53.52c.44.34.66.78.66 1.32 0 .687-.367 1.19-1.1 1.51.913.34 1.37.953 1.37 1.84 0 .673-.247 1.2-.74 1.58-.487.373-1.06.56-1.72.56zm0-.71c.46 0 .836-.127 1.13-.38.293-.26.44-.62.44-1.08 0-.447-.15-.793-.45-1.04-.294-.253-.66-.38-1.1-.38-.454 0-.834.127-1.14.38-.307.247-.46.6-.46 1.06 0 .447.153.8.46 1.06.306.253.68.38 1.12.38zm.03-3.57c.386 0 .696-.107.93-.32.233-.213.35-.507.35-.88 0-.34-.124-.62-.37-.84-.247-.22-.56-.33-.94-.33-.387 0-.704.107-.95.32-.247.213-.37.503-.37.87 0 .36.13.647.39.86.26.213.58.32.96.32z" fill="#fff"/><path opacity=".6" d="M236.234 315.081c-.462 0-.84-.114-1.134-.342-.288-.234-.432-.582-.432-1.044 0-.258.063-.483.189-.675.132-.198.312-.351.54-.459.228-.114.477-.195.747-.243a4.5 4.5 0 01.882-.081h.675v-.342c0-.378-.078-.648-.234-.81-.156-.168-.414-.252-.774-.252-.648 0-1.008.282-1.08.846h-.747c.048-.504.243-.873.585-1.107.348-.24.774-.36 1.278-.36 1.146 0 1.719.561 1.719 1.683V315h-.747v-.594c-.36.45-.849.675-1.467.675zm.072-.594c.408 0 .741-.099.999-.297.264-.204.396-.483.396-.837v-.585h-.648c-1.092 0-1.638.309-1.638.927 0 .528.297.792.891.792zm6.616-3.564h-2.223V315h-.747v-4.707h3.717V315h-.747v-4.077zm2.403-.63h.747v.792c.138-.24.354-.444.648-.612.294-.174.609-.261.945-.261.63 0 1.143.213 1.539.639.402.426.603 1.002.603 1.728v.072c0 .726-.198 1.314-.594 1.764-.39.444-.906.666-1.548.666-.72 0-1.251-.285-1.593-.855v2.412h-.747v-6.345zm2.268 4.167c.468 0 .825-.15 1.071-.45.246-.306.369-.747.369-1.323v-.072c0-.57-.138-1.008-.414-1.314a1.308 1.308 0 00-1.035-.468c-.456 0-.828.153-1.116.459-.282.3-.423.741-.423 1.323v.072c0 .582.138 1.023.414 1.323.282.3.66.45 1.134.45zm5.391.621c-.672 0-1.221-.219-1.647-.657-.42-.438-.63-1.014-.63-1.728v-.072c0-.708.204-1.287.612-1.737.414-.45.945-.675 1.593-.675.6 0 1.101.195 1.503.585.408.384.612.969.612 1.755v.243h-3.546c.036 1.11.54 1.665 1.512 1.665.738 0 1.155-.273 1.251-.819h.747c-.084.468-.303.825-.657 1.071-.354.246-.804.369-1.35.369zm1.278-2.889c-.066-.906-.516-1.359-1.35-1.359-.378 0-.69.12-.936.36-.246.24-.402.573-.468.999h2.754zm2.891.99c-.054.648-.168 1.122-.342 1.422-.174.294-.447.441-.819.441-.078 0-.159-.006-.243-.018l-.072-.027v-.711l.063.018c.06.012.123.018.189.018a.336.336 0 00.234-.081.587.587 0 00.153-.279c.042-.126.072-.243.09-.351.018-.114.039-.273.063-.477.024-.216.06-.828.108-1.836l.027-1.008h3.105V315h-.747v-4.077h-1.692c-.054 1.296-.093 2.049-.117 2.259zm4.156-2.889h.747v1.647h.837c.528 0 .96.129 1.296.387.336.258.504.642.504 1.152v.027c0 .516-.168.894-.504 1.134-.33.24-.762.36-1.296.36h-1.584v-4.707zm1.629 4.122c.36 0 .618-.075.774-.225.156-.156.234-.384.234-.684v-.027c0-.324-.081-.561-.243-.711-.156-.156-.411-.234-.765-.234h-.882v1.881h.882z" fill="#fff"/><path d="M235.069 330.8l2.84-2.99c.687-.727 1.03-1.417 1.03-2.07 0-.4-.113-.713-.34-.94-.22-.227-.533-.34-.94-.34-.867 0-1.37.53-1.51 1.59h-.81c.053-.707.283-1.263.69-1.67.413-.413.957-.62 1.63-.62.66 0 1.183.183 1.57.55.393.36.59.847.59 1.46 0 .787-.48 1.653-1.44 2.6l-1.97 1.92h3.45v.71h-4.79v-.2zm8.965-.43c1.26 0 1.89-.923 1.89-2.77v-.4c0-.833-.17-1.497-.51-1.99-.34-.5-.806-.75-1.4-.75-.606 0-1.08.24-1.42.72-.34.48-.51 1.16-.51 2.04v.4c0 .887.174 1.567.52 2.04.347.473.824.71 1.43.71zm0 .72c-.853 0-1.54-.317-2.06-.95s-.78-1.47-.78-2.51v-.4c0-1.06.25-1.903.75-2.53.507-.627 1.197-.94 2.07-.94.867 0 1.547.317 2.04.95.5.633.75 1.467.75 2.5v.4c0 1.053-.246 1.897-.74 2.53-.486.633-1.163.95-2.03.95zm5.524-6.38l-1.6 1.15v-.81l1.66-1.2h.81V331h-.87v-6.29zm5.084 6.37c-.654 0-1.177-.16-1.57-.48-.394-.32-.637-.773-.73-1.36h.84c.086.373.243.657.47.85.233.187.57.28 1.01.28.58 0 1.026-.237 1.34-.71.313-.473.476-1.183.49-2.13-.18.3-.43.533-.75.7-.32.167-.687.25-1.1.25-.694 0-1.26-.22-1.7-.66-.434-.44-.65-1-.65-1.68 0-.72.223-1.297.67-1.73.446-.44 1.046-.66 1.8-.66.846 0 1.486.273 1.92.82.433.547.65 1.34.65 2.38v.45c0 1.193-.234 2.107-.7 2.74-.46.627-1.124.94-1.99.94zm.13-3.28c.48 0 .873-.143 1.18-.43.306-.287.46-.66.46-1.12 0-.573-.154-1.02-.46-1.34-.3-.32-.697-.48-1.19-.48-.467 0-.847.153-1.14.46-.294.307-.44.71-.44 1.21 0 .52.143.933.43 1.24.286.307.673.46 1.16.46z" fill="#fff"/><path opacity=".6" d="M291.892 310.221c.702.036 1.278.261 1.728.675.456.414.684.984.684 1.71v.072c0 .732-.225 1.305-.675 1.719-.45.414-1.029.639-1.737.675v1.566h-.738v-1.566c-.702-.036-1.281-.261-1.737-.675-.45-.414-.675-.984-.675-1.71v-.072c0-.732.225-1.305.675-1.719.45-.414 1.029-.639 1.737-.675v-2.178h.738v2.178zm-.738.567c-.486.024-.882.195-1.188.513-.306.312-.459.747-.459 1.305v.063c0 .57.153 1.014.459 1.332.306.318.702.483 1.188.495v-3.708zm.738 3.717c.486-.012.882-.177 1.188-.495.306-.324.459-.765.459-1.323v-.063c0-.576-.153-1.017-.459-1.323-.3-.312-.696-.48-1.188-.504v3.708zm5.643.576c-.672 0-1.221-.219-1.647-.657-.42-.438-.63-1.014-.63-1.728v-.072c0-.708.204-1.287.612-1.737.414-.45.945-.675 1.593-.675.6 0 1.101.195 1.503.585.408.384.612.969.612 1.755v.243h-3.546c.036 1.11.54 1.665 1.512 1.665.738 0 1.155-.273 1.251-.819h.747c-.084.468-.303.825-.657 1.071-.354.246-.804.369-1.35.369zm1.278-2.889c-.066-.906-.516-1.359-1.35-1.359-.378 0-.69.12-.936.36-.246.24-.402.573-.468.999h2.754zm1.947-1.899h1.647c1.104 0 1.656.399 1.656 1.197v.027c0 .228-.063.438-.189.63a.942.942 0 01-.567.378c.654.144.981.498.981 1.062v.027c0 .456-.15.801-.45 1.035-.294.234-.705.351-1.233.351h-1.845v-4.707zm.747.594v1.395h.9c.312 0 .534-.057.666-.171.138-.114.207-.3.207-.558v-.027c0-.24-.072-.405-.216-.495-.138-.096-.36-.144-.666-.144h-.891zm0 1.989v1.53h1.026c.33 0 .573-.057.729-.171.162-.12.243-.312.243-.576v-.027c0-.264-.081-.456-.243-.576-.156-.12-.399-.18-.729-.18h-1.026zm4.117-2.583h.747v.792c.138-.24.354-.444.648-.612.294-.174.609-.261.945-.261.63 0 1.143.213 1.539.639.402.426.603 1.002.603 1.728v.072c0 .726-.198 1.314-.594 1.764-.39.444-.906.666-1.548.666-.72 0-1.251-.285-1.593-.855v2.412h-.747v-6.345zm2.268 4.167c.468 0 .825-.15 1.071-.45.246-.306.369-.747.369-1.323v-.072c0-.57-.138-1.008-.414-1.314a1.308 1.308 0 00-1.035-.468c-.456 0-.828.153-1.116.459-.282.3-.423.741-.423 1.323v.072c0 .582.138 1.023.414 1.323.282.3.66.45 1.134.45zm4.644.621c-.462 0-.84-.114-1.134-.342-.288-.234-.432-.582-.432-1.044 0-.258.063-.483.189-.675.132-.198.312-.351.54-.459.228-.114.477-.195.747-.243a4.5 4.5 0 01.882-.081h.675v-.342c0-.378-.078-.648-.234-.81-.156-.168-.414-.252-.774-.252-.648 0-1.008.282-1.08.846h-.747c.048-.504.243-.873.585-1.107.348-.24.774-.36 1.278-.36 1.146 0 1.719.561 1.719 1.683V315h-.747v-.594c-.36.45-.849.675-1.467.675zm.072-.594c.408 0 .741-.099.999-.297.264-.204.396-.483.396-.837v-.585h-.648c-1.092 0-1.638.309-1.638.927 0 .528.297.792.891.792zm4.545-1.305c-.054.648-.168 1.122-.342 1.422-.174.294-.447.441-.819.441-.078 0-.159-.006-.243-.018l-.072-.027v-.711l.063.018c.06.012.123.018.189.018a.336.336 0 00.234-.081.587.587 0 00.153-.279c.042-.126.072-.243.09-.351.018-.114.039-.273.063-.477.024-.216.06-.828.108-1.836l.027-1.008h3.105V315h-.747v-4.077h-1.692c-.054 1.296-.093 2.049-.117 2.259zm4.156-2.889h.747v1.647h.837c.528 0 .96.129 1.296.387.336.258.504.642.504 1.152v.027c0 .516-.168.894-.504 1.134-.33.24-.762.36-1.296.36h-1.584v-4.707zm1.629 4.122c.36 0 .618-.075.774-.225.156-.156.234-.384.234-.684v-.027c0-.324-.081-.561-.243-.711-.156-.156-.411-.234-.765-.234h-.882v1.881h.882z" fill="#fff"/><path d="M288.852 330.8l2.84-2.99c.687-.727 1.03-1.417 1.03-2.07 0-.4-.113-.713-.34-.94-.22-.227-.533-.34-.94-.34-.866 0-1.37.53-1.51 1.59h-.81c.054-.707.284-1.263.69-1.67.414-.413.957-.62 1.63-.62.66 0 1.184.183 1.57.55.394.36.59.847.59 1.46 0 .787-.48 1.653-1.44 2.6l-1.97 1.92h3.45v.71h-4.79v-.2zm8.966-.43c1.26 0 1.89-.923 1.89-2.77v-.4c0-.833-.17-1.497-.51-1.99-.34-.5-.807-.75-1.4-.75-.607 0-1.08.24-1.42.72-.34.48-.51 1.16-.51 2.04v.4c0 .887.173 1.567.52 2.04.346.473.823.71 1.43.71zm0 .72c-.854 0-1.54-.317-2.06-.95s-.78-1.47-.78-2.51v-.4c0-1.06.25-1.903.75-2.53.506-.627 1.196-.94 2.07-.94.866 0 1.546.317 2.04.95.5.633.75 1.467.75 2.5v.4c0 1.053-.247 1.897-.74 2.53-.487.633-1.164.95-2.03.95zm3.783-.29l2.84-2.99c.687-.727 1.03-1.417 1.03-2.07 0-.4-.113-.713-.34-.94-.22-.227-.533-.34-.94-.34-.866 0-1.37.53-1.51 1.59h-.81c.054-.707.284-1.263.69-1.67.414-.413.957-.62 1.63-.62.66 0 1.184.183 1.57.55.394.36.59.847.59 1.46 0 .787-.48 1.653-1.44 2.6l-1.97 1.92h3.45v.71h-4.79v-.2zm8.965-.43c1.26 0 1.89-.923 1.89-2.77v-.4c0-.833-.17-1.497-.51-1.99-.34-.5-.806-.75-1.4-.75-.606 0-1.08.24-1.42.72-.34.48-.51 1.16-.51 2.04v.4c0 .887.174 1.567.52 2.04.347.473.824.71 1.43.71zm0 .72c-.853 0-1.54-.317-2.06-.95s-.78-1.47-.78-2.51v-.4c0-1.06.25-1.903.75-2.53.507-.627 1.197-.94 2.07-.94.867 0 1.547.317 2.04.95.5.633.75 1.467.75 2.5v.4c0 1.053-.246 1.897-.74 2.53-.486.633-1.163.95-2.03.95z" fill="#fff"/><path opacity=".6" d="M343.742 315v-4.707h.747v3.627l2.403-3.627h.747V315h-.747v-3.627L344.489 315h-.747zm9.07.081c-.6 0-1.098-.186-1.494-.558-.39-.372-.621-.861-.693-1.467a1.682 1.682 0 01-.018-.153h-.711V315h-.747v-4.707h.747v1.98h.72c.072-.624.303-1.122.693-1.494.396-.378.9-.567 1.512-.567.666 0 1.203.222 1.611.666.408.444.612 1.02.612 1.728v.072c0 .714-.207 1.293-.621 1.737-.408.444-.945.666-1.611.666zm.009-.621c.462 0 .819-.159 1.071-.477.252-.318.378-.75.378-1.296v-.063c0-.552-.126-.987-.378-1.305-.252-.324-.609-.486-1.071-.486-.468 0-.828.159-1.08.477-.246.318-.369.753-.369 1.305v.072c0 .552.123.987.369 1.305.246.312.606.468 1.08.468zm4.332-1.278c-.054.648-.168 1.122-.342 1.422-.174.294-.447.441-.819.441-.078 0-.159-.006-.243-.018l-.072-.027v-.711l.063.018c.06.012.123.018.189.018a.336.336 0 00.234-.081.587.587 0 00.153-.279c.042-.126.072-.243.09-.351.018-.114.039-.273.063-.477.024-.216.06-.828.108-1.836l.027-1.008h3.105V315h-.747v-4.077h-1.692c-.054 1.296-.093 2.049-.117 2.259zm4.156-2.889h.747v1.647h.837c.528 0 .96.129 1.296.387.336.258.504.642.504 1.152v.027c0 .516-.168.894-.504 1.134-.33.24-.762.36-1.296.36h-1.584v-4.707zm1.629 4.122c.36 0 .618-.075.774-.225.156-.156.234-.384.234-.684v-.027c0-.324-.081-.561-.243-.711-.156-.156-.411-.234-.765-.234h-.882v1.881h.882z" fill="#fff"/><path d="M342.852 330.8l2.84-2.99c.687-.727 1.03-1.417 1.03-2.07 0-.4-.113-.713-.34-.94-.22-.227-.533-.34-.94-.34-.866 0-1.37.53-1.51 1.59h-.81c.054-.707.284-1.263.69-1.67.414-.413.957-.62 1.63-.62.66 0 1.184.183 1.57.55.394.36.59.847.59 1.46 0 .787-.48 1.653-1.44 2.6l-1.97 1.92h3.45v.71h-4.79v-.2zm8.966-.43c1.26 0 1.89-.923 1.89-2.77v-.4c0-.833-.17-1.497-.51-1.99-.34-.5-.807-.75-1.4-.75-.607 0-1.08.24-1.42.72-.34.48-.51 1.16-.51 2.04v.4c0 .887.173 1.567.52 2.04.346.473.823.71 1.43.71zm0 .72c-.854 0-1.54-.317-2.06-.95s-.78-1.47-.78-2.51v-.4c0-1.06.25-1.903.75-2.53.506-.627 1.196-.94 2.07-.94.866 0 1.546.317 2.04.95.5.633.75 1.467.75 2.5v.4c0 1.053-.247 1.897-.74 2.53-.487.633-1.164.95-2.03.95zm3.783-.29l2.84-2.99c.687-.727 1.03-1.417 1.03-2.07 0-.4-.113-.713-.34-.94-.22-.227-.533-.34-.94-.34-.866 0-1.37.53-1.51 1.59h-.81c.054-.707.284-1.263.69-1.67.414-.413.957-.62 1.63-.62.66 0 1.184.183 1.57.55.394.36.59.847.59 1.46 0 .787-.48 1.653-1.44 2.6l-1.97 1.92h3.45v.71h-4.79v-.2zm8.965-.43c1.26 0 1.89-.923 1.89-2.77v-.4c0-.833-.17-1.497-.51-1.99-.34-.5-.806-.75-1.4-.75-.606 0-1.08.24-1.42.72-.34.48-.51 1.16-.51 2.04v.4c0 .887.174 1.567.52 2.04.347.473.824.71 1.43.71zm0 .72c-.853 0-1.54-.317-2.06-.95s-.78-1.47-.78-2.51v-.4c0-1.06.25-1.903.75-2.53.507-.627 1.197-.94 2.07-.94.867 0 1.547.317 2.04.95.5.633.75 1.467.75 2.5v.4c0 1.053-.246 1.897-.74 2.53-.486.633-1.163.95-2.03.95z" fill="#fff"/><path opacity=".6" d="M400.923 315.081c-.672 0-1.224-.216-1.656-.648-.432-.438-.648-1.017-.648-1.737v-.072c0-.708.219-1.287.657-1.737a2.2 2.2 0 011.629-.675c.54 0 .999.135 1.377.405.378.264.6.678.666 1.242h-.738c-.108-.684-.543-1.026-1.305-1.026-.438 0-.801.165-1.089.495-.282.324-.423.756-.423 1.296v.072c0 .564.138.999.414 1.305.282.306.657.459 1.125.459.354 0 .657-.099.909-.297.258-.204.405-.489.441-.855h.693a1.867 1.867 0 01-.648 1.278c-.378.33-.846.495-1.404.495zm5.196 0c-.672 0-1.221-.219-1.647-.657-.42-.438-.63-1.014-.63-1.728v-.072c0-.708.204-1.287.612-1.737.414-.45.945-.675 1.593-.675.6 0 1.101.195 1.503.585.408.384.612.969.612 1.755v.243h-3.546c.036 1.11.54 1.665 1.512 1.665.738 0 1.155-.273 1.251-.819h.747c-.084.468-.303.825-.657 1.071-.354.246-.804.369-1.35.369zm1.278-2.889c-.066-.906-.516-1.359-1.35-1.359-.378 0-.69.12-.936.36-.246.24-.402.573-.468.999h2.754zm5.007.711h-2.313V315h-.747v-4.707h.747v1.98h2.313v-1.98h.747V315h-.747v-2.097zm5.65-1.98h-1.521V315h-.747v-4.077h-1.521v-.63h3.789v.63zm2.686-.036c-.672 0-1.008.285-1.008.855v.027c0 .27.078.474.234.612.156.138.414.207.774.207h.882v-1.701h-.882zM419.498 315h-.855l1.431-1.971c-.726-.15-1.089-.57-1.089-1.26v-.027c0-.492.168-.855.504-1.089.336-.24.768-.36 1.296-.36h1.584V315h-.747v-1.845h-.81L419.498 315zm6.502.081c-.708 0-1.269-.228-1.683-.684-.414-.456-.621-1.149-.621-2.079v-.288c0-.444.018-.837.054-1.179a5 5 0 01.225-1.044c.114-.354.264-.648.45-.882a2.16 2.16 0 01.756-.585 2.994 2.994 0 011.143-.27l.18-.009c.66-.036 1.107-.102 1.341-.198l.099.63c-.306.132-.783.213-1.431.243l-.135.009c-.726.036-1.245.273-1.557.711-.306.432-.486 1.104-.54 2.016h.036a1.85 1.85 0 01.72-.783 2.114 2.114 0 011.125-.297c.654 0 1.176.213 1.566.639.396.42.594.966.594 1.638v.036c0 .726-.219 1.305-.657 1.737-.432.426-.987.639-1.665.639zm-1.125-1.08c.276.306.654.459 1.134.459.48 0 .855-.15 1.125-.45.276-.306.414-.738.414-1.296v-.018c0-.522-.126-.933-.378-1.233-.246-.3-.606-.45-1.08-.45-.498 0-.894.156-1.188.468-.288.312-.432.738-.432 1.278v.018c0 .51.135.918.405 1.224zm4.755-3.708h.747v.792c.138-.24.354-.444.648-.612.294-.174.609-.261.945-.261.63 0 1.143.213 1.539.639.402.426.603 1.002.603 1.728v.072c0 .726-.198 1.314-.594 1.764-.39.444-.906.666-1.548.666-.72 0-1.251-.285-1.593-.855v2.412h-.747v-6.345zm2.268 4.167c.468 0 .825-.15 1.071-.45.246-.306.369-.747.369-1.323v-.072c0-.57-.138-1.008-.414-1.314a1.308 1.308 0 00-1.035-.468c-.456 0-.828.153-1.116.459-.282.3-.423.741-.423 1.323v.072c0 .582.138 1.023.414 1.323.282.3.66.45 1.134.45zm3.411-4.167h.747v1.647h.837c.528 0 .96.129 1.296.387.336.258.504.642.504 1.152v.027c0 .516-.168.894-.504 1.134-.33.24-.762.36-1.296.36h-1.584v-4.707zm1.629 4.122c.36 0 .618-.075.774-.225.156-.156.234-.384.234-.684v-.027c0-.324-.081-.561-.243-.711-.156-.156-.411-.234-.765-.234h-.882v1.881h.882z" fill="#fff"/><path d="M398.852 330.8l2.84-2.99c.687-.727 1.03-1.417 1.03-2.07 0-.4-.113-.713-.34-.94-.22-.227-.533-.34-.94-.34-.866 0-1.37.53-1.51 1.59h-.81c.054-.707.284-1.263.69-1.67.414-.413.957-.62 1.63-.62.66 0 1.184.183 1.57.55.394.36.59.847.59 1.46 0 .787-.48 1.653-1.44 2.6l-1.97 1.92h3.45v.71h-4.79v-.2zm8.966-.43c1.26 0 1.89-.923 1.89-2.77v-.4c0-.833-.17-1.497-.51-1.99-.34-.5-.807-.75-1.4-.75-.607 0-1.08.24-1.42.72-.34.48-.51 1.16-.51 2.04v.4c0 .887.173 1.567.52 2.04.346.473.823.71 1.43.71zm0 .72c-.854 0-1.54-.317-2.06-.95s-.78-1.47-.78-2.51v-.4c0-1.06.25-1.903.75-2.53.506-.627 1.196-.94 2.07-.94.866 0 1.546.317 2.04.95.5.633.75 1.467.75 2.5v.4c0 1.053-.247 1.897-.74 2.53-.487.633-1.164.95-2.03.95zm3.783-.29l2.84-2.99c.687-.727 1.03-1.417 1.03-2.07 0-.4-.113-.713-.34-.94-.22-.227-.533-.34-.94-.34-.866 0-1.37.53-1.51 1.59h-.81c.054-.707.284-1.263.69-1.67.414-.413.957-.62 1.63-.62.66 0 1.184.183 1.57.55.394.36.59.847.59 1.46 0 .787-.48 1.653-1.44 2.6l-1.97 1.92h3.45v.71h-4.79v-.2zm8.965-.43c1.26 0 1.89-.923 1.89-2.77v-.4c0-.833-.17-1.497-.51-1.99-.34-.5-.806-.75-1.4-.75-.606 0-1.08.24-1.42.72-.34.48-.51 1.16-.51 2.04v.4c0 .887.174 1.567.52 2.04.347.473.824.71 1.43.71zm0 .72c-.853 0-1.54-.317-2.06-.95s-.78-1.47-.78-2.51v-.4c0-1.06.25-1.903.75-2.53.507-.627 1.197-.94 2.07-.94.867 0 1.547.317 2.04.95.5.633.75 1.467.75 2.5v.4c0 1.053-.246 1.897-.74 2.53-.486.633-1.163.95-2.03.95zM.25 232.8l2.84-2.99c.687-.727 1.03-1.417 1.03-2.07 0-.4-.113-.713-.34-.94-.22-.227-.533-.34-.94-.34-.867 0-1.37.53-1.51 1.59H.52c.053-.707.283-1.263.69-1.67.413-.413.957-.62 1.63-.62.66 0 1.183.183 1.57.55.393.36.59.847.59 1.46 0 .787-.48 1.653-1.44 2.6l-1.97 1.92h3.45v.71H.25v-.2zm8.646.29c-1.713 0-2.57-1.083-2.57-3.25v-.17c0-1.253.254-2.217.76-2.89.514-.68 1.194-1.02 2.04-1.02.574 0 1.04.147 1.4.44.367.293.597.723.69 1.29h-.83c-.08-.347-.223-.603-.43-.77-.206-.167-.503-.25-.89-.25-.553 0-1 .247-1.34.74-.34.493-.52 1.2-.54 2.12.387-.647 1-.97 1.84-.97.7 0 1.264.223 1.69.67.434.44.65.997.65 1.67 0 .72-.223 1.3-.67 1.74-.446.433-1.046.65-1.8.65zm0-.68c.467 0 .847-.153 1.14-.46.294-.307.44-.71.44-1.21 0-.52-.143-.933-.43-1.24-.286-.307-.673-.46-1.16-.46-.48 0-.873.147-1.18.44-.306.293-.46.673-.46 1.14 0 .567.15 1.007.45 1.32.307.313.707.47 1.2.47zm6.63-.04c1.26 0 1.89-.923 1.89-2.77v-.4c0-.833-.17-1.497-.51-1.99-.34-.5-.806-.75-1.4-.75-.607 0-1.08.24-1.42.72-.34.48-.51 1.16-.51 2.04v.4c0 .887.173 1.567.52 2.04.347.473.823.71 1.43.71zm0 .72c-.853 0-1.54-.317-2.06-.95s-.78-1.47-.78-2.51v-.4c0-1.06.25-1.903.75-2.53.507-.627 1.197-.94 2.07-.94.867 0 1.547.317 2.04.95.5.633.75 1.467.75 2.5v.4c0 1.053-.247 1.897-.74 2.53-.486.633-1.163.95-2.03.95zm-12.566-48c-.74 0-1.337-.207-1.79-.62-.447-.413-.683-.94-.71-1.58h.8c.04.453.203.817.49 1.09.287.273.697.41 1.23.41.547 0 .953-.12 1.22-.36.273-.247.41-.587.41-1.02 0-.927-.503-1.39-1.51-1.39h-.54v-.73h.5c.893 0 1.34-.407 1.34-1.22 0-.353-.11-.64-.33-.86-.22-.227-.543-.34-.97-.34-.44 0-.803.123-1.09.37-.28.247-.443.573-.49.98H.76c.027-.573.257-1.06.69-1.46.433-.4.983-.6 1.65-.6.653 0 1.173.187 1.56.56.393.367.59.81.59 1.33 0 .727-.377 1.247-1.13 1.56.92.253 1.38.853 1.38 1.8 0 .647-.237 1.157-.71 1.53-.467.367-1.077.55-1.83.55zm5.243-6.38l-1.6 1.15v-.81l1.66-1.2h.81V185h-.87v-6.29zm5.722 5.66c1.26 0 1.89-.923 1.89-2.77v-.4c0-.833-.17-1.497-.51-1.99-.34-.5-.807-.75-1.4-.75-.607 0-1.08.24-1.42.72-.34.48-.51 1.16-.51 2.04v.4c0 .887.173 1.567.52 2.04.346.473.823.71 1.43.71zm0 .72c-.854 0-1.54-.317-2.06-.95s-.78-1.47-.78-2.51v-.4c0-1.06.25-1.903.75-2.53.506-.627 1.196-.94 2.07-.94.866 0 1.546.317 2.04.95.5.633.75 1.467.75 2.5v.4c0 1.053-.247 1.897-.74 2.53-.487.633-1.164.95-2.03.95z" fill="#fff"/><circle cx="173" cy="195" r="3" fill="#F1D5C0"/><circle cx="118" cy="231" r="3" fill="#F1D5C0"/><circle cx="65" cy="260" r="3" fill="#F1D5C0"/><circle cx="227" cy="158" r="3" fill="#F1D5C0"/><circle cx="281" cy="137" r="3" fill="#F1D5C0"/><circle cx="337" cy="107" r="3" fill="#F1D5C0"/><circle cx="391" cy="74" r="3" fill="#F1D5C0"/><path opacity=".6" d="M4.059 5.923H2.538V10h-.747V5.923H.27v-.63h3.789v.63zm5.17-.63h.747V10h-.747V5.293zm-4.05 0h.747V6.94h.837c.534 0 .966.12 1.296.36.336.24.504.618.504 1.134v.027c0 .51-.168.894-.504 1.152-.336.258-.768.387-1.296.387H5.179V5.293zm1.629 4.113c.354 0 .609-.075.765-.225.162-.156.243-.396.243-.72v-.027c0-.3-.078-.525-.234-.675-.156-.156-.414-.234-.774-.234h-.882v1.881h.882zm6.779.675c-.672 0-1.224-.216-1.656-.648-.432-.438-.648-1.017-.648-1.737v-.072c0-.708.219-1.287.657-1.737a2.2 2.2 0 011.629-.675c.54 0 .999.135 1.377.405.378.264.6.678.666 1.242h-.738c-.108-.684-.543-1.026-1.305-1.026-.438 0-.801.165-1.09.495-.281.324-.422.756-.422 1.296v.072c0 .564.138.999.414 1.305.282.306.657.459 1.125.459.354 0 .657-.099.909-.297.258-.204.405-.489.44-.855h.694a1.867 1.867 0 01-.648 1.278c-.378.33-.846.495-1.404.495zm5.741-4.788h.747v.792c.138-.24.354-.444.648-.612.294-.174.61-.261.945-.261.63 0 1.143.213 1.54.639.401.426.602 1.002.602 1.728v.072c0 .726-.198 1.314-.594 1.764-.39.444-.906.666-1.548.666-.72 0-1.25-.285-1.593-.855v2.412h-.747V5.293zm2.268 4.167c.468 0 .825-.15 1.071-.45.246-.306.37-.747.37-1.323v-.072c0-.57-.139-1.008-.415-1.314a1.308 1.308 0 00-1.035-.468c-.456 0-.828.153-1.116.459-.282.3-.423.741-.423 1.323v.072c0 .582.138 1.023.414 1.323.282.3.66.45 1.134.45zm4.69.054l-1.844-4.221h.8l1.44 3.375 1.306-3.375h.765l-2.601 6.345h-.756l.89-2.124zm5.512.567c-.708 0-1.27-.228-1.683-.684-.414-.456-.621-1.149-.621-2.079V7.03c0-.444.018-.837.054-1.179a5 5 0 01.225-1.044c.114-.354.264-.648.45-.882a2.16 2.16 0 01.756-.585 2.994 2.994 0 011.143-.27l.18-.009c.66-.036 1.107-.102 1.34-.198l.1.63c-.306.132-.783.213-1.431.243l-.135.009c-.726.036-1.245.273-1.557.711-.306.432-.486 1.104-.54 2.016h.036a1.85 1.85 0 01.72-.783 2.114 2.114 0 011.125-.297c.654 0 1.176.213 1.566.639.396.42.594.966.594 1.638v.036c0 .726-.22 1.305-.657 1.737-.432.426-.987.639-1.665.639zm-1.125-1.08c.276.306.654.459 1.134.459.48 0 .855-.15 1.125-.45.276-.306.414-.738.414-1.296v-.018c0-.522-.126-.933-.378-1.233-.246-.3-.606-.45-1.08-.45-.498 0-.894.156-1.188.468-.288.312-.432.738-.432 1.278v.018c0 .51.135.918.405 1.224z" fill="#fff"/><path d="M4.03 62.5H.45v-.28l3.27-5.37h1.16v4.94h.99v.71h-.99V64h-.85v-1.5zm0-.71v-4.28l-2.48 4.28h2.48zm5.59 2.3c-1.714 0-2.57-1.083-2.57-3.25v-.17c0-1.253.252-2.217.76-2.89.512-.68 1.192-1.02 2.04-1.02.572 0 1.04.147 1.4.44.366.293.596.723.69 1.29h-.83c-.08-.347-.224-.603-.43-.77-.208-.167-.504-.25-.89-.25-.554 0-1 .247-1.34.74-.34.493-.52 1.2-.54 2.12.386-.647 1-.97 1.84-.97.7 0 1.262.223 1.69.67.432.44.65.997.65 1.67 0 .72-.224 1.3-.67 1.74-.448.433-1.048.65-1.8.65zm0-.68c.466 0 .846-.153 1.14-.46.292-.307.44-.71.44-1.21 0-.52-.144-.933-.43-1.24-.288-.307-.674-.46-1.16-.46-.48 0-.874.147-1.18.44-.308.293-.46.673-.46 1.14 0 .567.15 1.007.45 1.32.306.313.706.47 1.2.47zm6.629-.04c1.26 0 1.89-.923 1.89-2.77v-.4c0-.833-.17-1.497-.51-1.99-.34-.5-.807-.75-1.4-.75-.607 0-1.08.24-1.42.72-.34.48-.51 1.16-.51 2.04v.4c0 .887.173 1.567.52 2.04.346.473.823.71 1.43.71zm0 .72c-.853 0-1.54-.317-2.06-.95s-.78-1.47-.78-2.51v-.4c0-1.06.25-1.903.75-2.53.506-.627 1.196-.94 2.07-.94.867 0 1.547.317 2.04.95.5.633.75 1.467.75 2.5v.4c0 1.053-.247 1.897-.74 2.53-.487.633-1.163.95-2.03.95z" fill="#fff"/><path opacity=".3" fill="#F1D5C0" d="M65 261h1v71h-1zm53-31h1v102h-1zm55-35h1v137h-1zm54-37h1v174h-1zm54-23h1v197h-1zm54-28h1v225h-1zm56-32h1v259h-1z"/><path d="M24 314l39.366-54.416 49.638-28.084 60.586-36.489 52.97-37.728 53.709-20.316 55.126-29.187 55.303-34.008L446 47" stroke="url(#paint0_radial)"/><defs><radialGradient id="paint0_radial" cx="0" cy="0" r="1" gradientUnits="userSpaceOnUse" gradientTransform="rotate(72.967 10.144 269.622) scale(130.816 264.348)"><stop stop-color="#F1D5C0"/><stop offset="1" stop-color="#F1D5C0" stop-opacity="0"/></radialGradient></defs></svg>