<svg width="593" height="375" fill="none" xmlns="http://www.w3.org/2000/svg"><path d="M19.736 129.144c-1.184 0-2.139-.331-2.864-.992-.715-.661-1.093-1.504-1.136-2.528h1.28c.064.725.325 1.307.784 1.744.459.437 1.115.656 1.968.656.875 0 1.525-.192 1.952-.576.437-.395.656-.939.656-1.632 0-1.483-.805-2.224-2.416-2.224h-.864v-1.168h.8c1.43 0 2.144-.651 2.144-1.952 0-.565-.176-1.024-.528-1.376-.352-.363-.87-.544-1.552-.544-.704 0-1.285.197-1.744.592-.448.395-.71.917-.784 1.568h-1.216c.043-.917.41-1.696 1.104-2.336.693-.64 1.573-.96 2.64-.96 1.045 0 1.877.299 2.496.896.63.587.944 1.296.944 2.128 0 1.163-.603 1.995-1.808 2.496 1.472.405 2.208 1.365 2.208 2.88 0 1.035-.379 1.851-1.136 2.448-.747.587-1.723.88-2.928.88zm10.451 0c-2.741 0-4.112-1.733-4.112-5.2v-.272c0-2.005.406-3.547 1.216-4.624.822-1.088 1.91-1.632 3.264-1.632.918 0 1.664.235 2.24.704.587.469.955 1.157 1.104 2.064h-1.328c-.128-.555-.357-.965-.688-1.232-.33-.267-.805-.4-1.424-.4-.885 0-1.6.395-2.144 1.184-.544.789-.832 1.92-.864 3.392.619-1.035 1.6-1.552 2.944-1.552 1.12 0 2.022.357 2.704 1.072.694.704 1.04 1.595 1.04 2.672 0 1.152-.357 2.08-1.072 2.784-.714.693-1.674 1.04-2.88 1.04zm0-1.088c.747 0 1.355-.245 1.824-.736.47-.491.704-1.136.704-1.936 0-.832-.229-1.493-.688-1.984-.458-.491-1.077-.736-1.856-.736-.768 0-1.397.235-1.888.704-.49.469-.736 1.077-.736 1.824 0 .907.24 1.611.72 2.112.491.501 1.131.752 1.92.752zm10.608-.064c2.016 0 3.024-1.477 3.024-4.432v-.64c0-1.333-.272-2.395-.816-3.184-.544-.8-1.29-1.2-2.24-1.2-.97 0-1.728.384-2.272 1.152-.544.768-.816 1.856-.816 3.264v.64c0 1.419.277 2.507.832 3.264.555.757 1.317 1.136 2.288 1.136zm0 1.152c-1.365 0-2.464-.507-3.296-1.52-.832-1.013-1.248-2.352-1.248-4.016v-.64c0-1.696.4-3.045 1.2-4.048.81-1.003 1.915-1.504 3.312-1.504 1.387 0 2.475.507 3.264 1.52.8 1.013 1.2 2.347 1.2 4v.64c0 1.685-.395 3.035-1.184 4.048-.779 1.013-1.861 1.52-3.248 1.52z" fill="#fff"/><path opacity=".6" d="M5.412 137.564H3.384V143h-.996v-5.436H.36v-.84h5.052v.84zm6.893-.84h.996V143h-.996v-6.276zm-5.4 0h.996v2.196h1.116c.712 0 1.288.16 1.728.48.448.32.672.824.672 1.512v.036c0 .68-.224 1.192-.672 1.536-.448.344-1.024.516-1.728.516H6.905v-6.276zm2.172 5.484c.472 0 .812-.1 1.02-.3.216-.208.324-.528.324-.96v-.036c0-.4-.104-.7-.312-.9-.208-.208-.552-.312-1.032-.312H7.901v2.508h1.176zm9.038.9c-.896 0-1.632-.288-2.208-.864-.576-.584-.864-1.356-.864-2.316v-.096c0-.944.292-1.716.876-2.316.592-.6 1.316-.9 2.172-.9.72 0 1.332.18 1.836.54.504.352.8.904.888 1.656h-.984c-.144-.912-.724-1.368-1.74-1.368-.584 0-1.068.22-1.452.66-.376.432-.564 1.008-.564 1.728v.096c0 .752.184 1.332.552 1.74.376.408.876.612 1.5.612.472 0 .876-.132 1.212-.396.344-.272.54-.652.588-1.14h.924a2.49 2.49 0 01-.864 1.704c-.504.44-1.128.66-1.872.66zm7.656-6.384h.996v1.056c.184-.32.472-.592.864-.816a2.432 2.432 0 011.26-.348c.84 0 1.524.284 2.052.852.536.568.804 1.336.804 2.304v.096c0 .968-.264 1.752-.792 2.352-.52.592-1.208.888-2.064.888-.96 0-1.668-.38-2.124-1.14v3.216h-.996v-8.46zm3.024 5.556c.624 0 1.1-.2 1.428-.6.328-.408.492-.996.492-1.764v-.096c0-.76-.184-1.344-.552-1.752a1.743 1.743 0 00-1.38-.624c-.608 0-1.104.204-1.488.612-.376.4-.564.988-.564 1.764v.096c0 .776.184 1.364.552 1.764.376.4.88.6 1.512.6zm6.254.072l-2.46-5.628h1.068l1.92 4.5 1.74-4.5h1.02l-3.468 8.46h-1.008l1.188-2.832zm7.348.756c-.944 0-1.692-.304-2.244-.912-.552-.608-.828-1.532-.828-2.772v-.384c0-.592.024-1.116.072-1.572.048-.464.148-.928.3-1.392.152-.472.352-.864.6-1.176.248-.312.584-.572 1.008-.78.432-.208.94-.328 1.524-.36l.24-.012c.88-.048 1.476-.136 1.788-.264l.132.84c-.408.176-1.044.284-1.908.324l-.18.012c-.968.048-1.66.364-2.076.948-.408.576-.648 1.472-.72 2.688h.048c.216-.44.536-.788.96-1.044.432-.264.932-.396 1.5-.396.872 0 1.568.284 2.088.852.528.56.792 1.288.792 2.184v.048c0 .968-.292 1.74-.876 2.316-.576.568-1.316.852-2.22.852zm-1.5-1.44c.368.408.872.612 1.512.612s1.14-.2 1.5-.6c.368-.408.552-.984.552-1.728v-.024c0-.696-.168-1.244-.504-1.644-.328-.4-.808-.6-1.44-.6-.664 0-1.192.208-1.584.624-.384.416-.576.984-.576 1.704v.024c0 .68.18 1.224.54 1.632z" fill="#fff"/><path d="M25.448 71.6H19.72v-.448l5.232-8.592h1.856v7.904h1.584V71.6h-1.584V74h-1.36v-2.4zm0-1.136v-6.848l-3.968 6.848h3.968zm6.802-6.528l-2.56 1.84V64.48l2.656-1.92h1.296V74H32.25V63.936zm9.154 9.056c2.016 0 3.024-1.477 3.024-4.432v-.64c0-1.333-.272-2.395-.816-3.184-.544-.8-1.29-1.2-2.24-1.2-.97 0-1.728.384-2.272 1.152-.544.768-.816 1.856-.816 3.264v.64c0 1.419.278 2.507.832 3.264.555.757 1.318 1.136 2.288 1.136zm0 1.152c-1.365 0-2.464-.507-3.296-1.52-.832-1.013-1.248-2.352-1.248-4.016v-.64c0-1.696.4-3.045 1.2-4.048.811-1.003 1.915-1.504 3.312-1.504 1.387 0 2.475.507 3.264 1.52.8 1.013 1.2 2.347 1.2 4v.64c0 1.685-.394 3.035-1.184 4.048-.778 1.013-1.861 1.52-3.248 1.52z" fill="#fff"/><path opacity=".6" d="M5.412 83.564H3.384V89h-.996v-5.436H.36v-.84h5.052v.84zm6.893-.84h.996V89h-.996v-6.276zm-5.4 0h.996v2.196h1.116c.712 0 1.288.16 1.728.48.448.32.672.824.672 1.512v.036c0 .68-.224 1.192-.672 1.536-.448.344-1.024.516-1.728.516H6.905v-6.276zm2.172 5.484c.472 0 .812-.1 1.02-.3.216-.208.324-.528.324-.96v-.036c0-.4-.104-.7-.312-.9-.208-.208-.552-.312-1.032-.312H7.901v2.508h1.176zm9.038.9c-.896 0-1.632-.288-2.208-.864-.576-.584-.864-1.356-.864-2.316v-.096c0-.944.292-1.716.876-2.316.592-.6 1.316-.9 2.172-.9.72 0 1.332.18 1.836.54.504.352.8.904.888 1.656h-.984c-.144-.912-.724-1.368-1.74-1.368-.584 0-1.068.22-1.452.66-.376.432-.564 1.008-.564 1.728v.096c0 .752.184 1.332.552 1.74.376.408.876.612 1.5.612.472 0 .876-.132 1.212-.396.344-.272.54-.652.588-1.14h.924a2.49 2.49 0 01-.864 1.704c-.504.44-1.128.66-1.872.66zm7.656-6.384h.996v1.056c.184-.32.472-.592.864-.816a2.432 2.432 0 011.26-.348c.84 0 1.524.284 2.052.852.536.568.804 1.336.804 2.304v.096c0 .968-.264 1.752-.792 2.352-.52.592-1.208.888-2.064.888-.96 0-1.668-.38-2.124-1.14v3.216h-.996v-8.46zm3.024 5.556c.624 0 1.1-.2 1.428-.6.328-.408.492-.996.492-1.764v-.096c0-.76-.184-1.344-.552-1.752a1.743 1.743 0 00-1.38-.624c-.608 0-1.104.204-1.488.612-.376.4-.564.988-.564 1.764v.096c0 .776.184 1.364.552 1.764.376.4.88.6 1.512.6zm6.254.072l-2.46-5.628h1.068l1.92 4.5 1.74-4.5h1.02l-3.468 8.46h-1.008l1.188-2.832zm7.348.756c-.944 0-1.692-.304-2.244-.912-.552-.608-.828-1.532-.828-2.772v-.384c0-.592.024-1.116.072-1.572.048-.464.148-.928.3-1.392.152-.472.352-.864.6-1.176.248-.312.584-.572 1.008-.78.432-.208.94-.328 1.524-.36l.24-.012c.88-.048 1.476-.136 1.788-.264l.132.84c-.408.176-1.044.284-1.908.324l-.18.012c-.968.048-1.66.364-2.076.948-.408.576-.648 1.472-.72 2.688h.048c.216-.44.536-.788.96-1.044.432-.264.932-.396 1.5-.396.872 0 1.568.284 2.088.852.528.56.792 1.288.792 2.184v.048c0 .968-.292 1.74-.876 2.316-.576.568-1.316.852-2.22.852zm-1.5-1.44c.368.408.872.612 1.512.612s1.14-.2 1.5-.6c.368-.408.552-.984.552-1.728v-.024c0-.696-.168-1.244-.504-1.644-.328-.4-.808-.6-1.44-.6-.664 0-1.192.208-1.584.624-.384.416-.576.984-.576 1.704v.024c0 .68.18 1.224.54 1.632z" fill="#fff"/><path d="M19.4 296.68l4.544-4.784c1.099-1.163 1.648-2.267 1.648-3.312 0-.64-.181-1.141-.544-1.504-.352-.363-.853-.544-1.504-.544-1.387 0-2.192.848-2.416 2.544h-1.296c.085-1.131.453-2.021 1.104-2.672.661-.661 1.53-.992 2.608-.992 1.056 0 1.893.293 2.512.88.63.576.944 1.355.944 2.336 0 1.259-.768 2.645-2.304 4.16l-3.152 3.072h5.52V297H19.4v-.32zm12.007-9.744l-2.56 1.84v-1.296l2.655-1.92h1.296V297h-1.392v-10.064zm9.154 9.056c2.016 0 3.024-1.477 3.024-4.432v-.64c0-1.333-.272-2.395-.816-3.184-.544-.8-1.291-1.2-2.24-1.2-.971 0-1.728.384-2.272 1.152-.544.768-.816 1.856-.816 3.264v.64c0 1.419.277 2.507.832 3.264.554.757 1.317 1.136 2.288 1.136zm0 1.152c-1.366 0-2.464-.507-3.296-1.52-.832-1.013-1.248-2.352-1.248-4.016v-.64c0-1.696.4-3.045 1.2-4.048.81-1.003 1.914-1.504 3.312-1.504 1.386 0 2.474.507 3.264 1.52.8 1.013 1.2 2.347 1.2 4v.64c0 1.685-.395 3.035-1.184 4.048-.779 1.013-1.862 1.52-3.248 1.52z" fill="#fff"/><path opacity=".6" d="M5.412 306.564H3.384V312h-.996v-5.436H.36v-.84h5.052v.84zm6.893-.84h.996V312h-.996v-6.276zm-5.4 0h.996v2.196h1.116c.712 0 1.288.16 1.728.48.448.32.672.824.672 1.512v.036c0 .68-.224 1.192-.672 1.536-.448.344-1.024.516-1.728.516H6.905v-6.276zm2.172 5.484c.472 0 .812-.1 1.02-.3.216-.208.324-.528.324-.96v-.036c0-.4-.104-.7-.312-.9-.208-.208-.552-.312-1.032-.312H7.901v2.508h1.176zm9.038.9c-.896 0-1.632-.288-2.208-.864-.576-.584-.864-1.356-.864-2.316v-.096c0-.944.292-1.716.876-2.316.592-.6 1.316-.9 2.172-.9.72 0 1.332.18 1.836.54.504.352.8.904.888 1.656h-.984c-.144-.912-.724-1.368-1.74-1.368-.584 0-1.068.22-1.452.66-.376.432-.564 1.008-.564 1.728v.096c0 .752.184 1.332.552 1.74.376.408.876.612 1.5.612.472 0 .876-.132 1.212-.396.344-.272.54-.652.588-1.14h.924a2.49 2.49 0 01-.864 1.704c-.504.44-1.128.66-1.872.66zm7.656-6.384h.996v1.056c.184-.32.472-.592.864-.816a2.432 2.432 0 011.26-.348c.84 0 1.524.284 2.052.852.536.568.804 1.336.804 2.304v.096c0 .968-.264 1.752-.792 2.352-.52.592-1.208.888-2.064.888-.96 0-1.668-.38-2.124-1.14v3.216h-.996v-8.46zm3.024 5.556c.624 0 1.1-.2 1.428-.6.328-.408.492-.996.492-1.764v-.096c0-.76-.184-1.344-.552-1.752a1.743 1.743 0 00-1.38-.624c-.608 0-1.104.204-1.488.612-.376.4-.564.988-.564 1.764v.096c0 .776.184 1.364.552 1.764.376.4.88.6 1.512.6zm6.254.072l-2.46-5.628h1.068l1.92 4.5 1.74-4.5h1.02l-3.468 8.46h-1.008l1.188-2.832zm7.348.756c-.944 0-1.692-.304-2.244-.912-.552-.608-.828-1.532-.828-2.772v-.384c0-.592.024-1.116.072-1.572.048-.464.148-.928.3-1.392.152-.472.352-.864.6-1.176.248-.312.584-.572 1.008-.78.432-.208.94-.328 1.524-.36l.24-.012c.88-.048 1.476-.136 1.788-.264l.132.84c-.408.176-1.044.284-1.908.324l-.18.012c-.968.048-1.66.364-2.076.948-.408.576-.648 1.472-.72 2.688h.048c.216-.44.536-.788.96-1.044.432-.264.932-.396 1.5-.396.872 0 1.568.284 2.088.852.528.56.792 1.288.792 2.184v.048c0 .968-.292 1.74-.876 2.316-.576.568-1.316.852-2.22.852zm-1.5-1.44c.368.408.872.612 1.512.612s1.14-.2 1.5-.6c.368-.408.552-.984.552-1.728v-.024c0-.696-.168-1.244-.504-1.644-.328-.4-.808-.6-1.44-.6-.664 0-1.192.208-1.584.624-.384.416-.576.984-.576 1.704v.024c0 .68.18 1.224.54 1.632zm192.199 34.848c-.896 0-1.344.38-1.344 1.14v.036c0 .36.104.632.312.816.208.184.552.276 1.032.276h1.176v-2.268h-1.176zM231.44 351h-1.14l1.908-2.628c-.968-.2-1.452-.76-1.452-1.68v-.036c0-.656.224-1.14.672-1.452.448-.32 1.024-.48 1.728-.48h2.112V351h-.996v-2.46h-1.08L231.44 351zm10.049-2.796h-3.084V351h-.996v-6.276h.996v2.64h3.084v-2.64h.996V351h-.996v-2.796zm3.13-3.48h2.196c1.472 0 2.208.532 2.208 1.596v.036a1.5 1.5 0 01-.252.84c-.168.248-.42.416-.756.504.872.192 1.308.664 1.308 1.416v.036c0 .608-.2 1.068-.6 1.38-.392.312-.94.468-1.644.468h-2.46v-6.276zm.996.792v1.86h1.2c.416 0 .712-.076.888-.228.184-.152.276-.4.276-.744v-.036c0-.32-.096-.54-.288-.66-.184-.128-.48-.192-.888-.192h-1.188zm0 2.652v2.04h1.368c.44 0 .764-.076.972-.228.216-.16.324-.416.324-.768v-.036c0-.352-.108-.608-.324-.768-.208-.16-.532-.24-.972-.24h-1.368zm7.12 2.94c-.616 0-1.12-.152-1.512-.456-.384-.312-.576-.776-.576-1.392 0-.344.084-.644.252-.9a1.74 1.74 0 01.72-.612c.304-.152.636-.26.996-.324.36-.072.752-.108 1.176-.108h.9v-.456c0-.504-.104-.864-.312-1.08-.208-.224-.552-.336-1.032-.336-.864 0-1.344.376-1.44 1.128h-.996c.064-.672.324-1.164.78-1.476.464-.32 1.032-.48 1.704-.48 1.528 0 2.292.748 2.292 2.244V351h-.996v-.792c-.48.6-1.132.9-1.956.9zm.096-.792c.544 0 .988-.132 1.332-.396.352-.272.528-.644.528-1.116v-.78h-.864c-1.456 0-2.184.412-2.184 1.236 0 .704.396 1.056 1.188 1.056zm4.932-5.592h.996v1.056c.184-.32.472-.592.864-.816a2.432 2.432 0 011.26-.348c.84 0 1.524.284 2.052.852.536.568.804 1.336.804 2.304v.096c0 .968-.264 1.752-.792 2.352-.52.592-1.208.888-2.064.888-.96 0-1.668-.38-2.124-1.14v3.216h-.996v-8.46zm3.024 5.556c.624 0 1.1-.2 1.428-.6.328-.408.492-.996.492-1.764v-.096c0-.76-.184-1.344-.552-1.752a1.743 1.743 0 00-1.38-.624c-.608 0-1.104.204-1.488.612-.376.4-.564.988-.564 1.764v.096c0 .776.184 1.364.552 1.764.376.4.88.6 1.512.6zm4.548-5.556h.996v2.196h1.116c.704 0 1.28.172 1.728.516.448.344.672.856.672 1.536v.036c0 .688-.224 1.192-.672 1.512-.44.32-1.016.48-1.728.48h-2.112v-6.276zm2.172 5.496c.48 0 .824-.1 1.032-.3.208-.208.312-.512.312-.912v-.036c0-.432-.108-.748-.324-.948-.208-.208-.548-.312-1.02-.312h-1.176v2.508h1.176z" fill="#fff"/><path d="M230.35 368.72l3.976-4.186c.961-1.017 1.442-1.983 1.442-2.898 0-.56-.159-.999-.476-1.316-.308-.317-.747-.476-1.316-.476-1.213 0-1.918.742-2.114 2.226h-1.134c.075-.989.397-1.769.966-2.338.579-.579 1.339-.868 2.282-.868.924 0 1.657.257 2.198.77.551.504.826 1.185.826 2.044 0 1.101-.672 2.315-2.016 3.64l-2.758 2.688h4.83V369h-6.706v-.28zm12.551-.602c1.764 0 2.646-1.293 2.646-3.878v-.56c0-1.167-.238-2.095-.714-2.786-.476-.7-1.129-1.05-1.96-1.05-.849 0-1.512.336-1.988 1.008-.476.672-.714 1.624-.714 2.856v.56c0 1.241.243 2.193.728 2.856.486.663 1.153.994 2.002.994zm0 1.008c-1.194 0-2.156-.443-2.884-1.33-.728-.887-1.092-2.058-1.092-3.514v-.56c0-1.484.35-2.665 1.05-3.542.71-.877 1.676-1.316 2.898-1.316 1.214 0 2.166.443 2.856 1.33.7.887 1.05 2.053 1.05 3.5v.56c0 1.475-.345 2.655-1.036 3.542-.681.887-1.628 1.33-2.842 1.33zm7.733-8.932l-2.24 1.61v-1.134l2.324-1.68h1.134V369h-1.218v-8.806zm7.118 8.918c-.915 0-1.648-.224-2.198-.672-.551-.448-.892-1.083-1.022-1.904h1.176c.121.523.34.919.658 1.19.326.261.798.392 1.414.392.812 0 1.437-.331 1.876-.994.438-.663.667-1.657.686-2.982-.252.42-.602.747-1.05.98-.448.233-.962.35-1.54.35-.971 0-1.764-.308-2.38-.924-.607-.616-.91-1.4-.91-2.352 0-1.008.312-1.815.938-2.422.625-.616 1.465-.924 2.52-.924 1.185 0 2.081.383 2.688 1.148.606.765.91 1.876.91 3.332v.63c0 1.671-.327 2.949-.98 3.836-.644.877-1.573 1.316-2.786 1.316zm.182-4.592c.672 0 1.222-.201 1.652-.602.429-.401.644-.924.644-1.568 0-.803-.215-1.428-.644-1.876-.42-.448-.976-.672-1.666-.672-.654 0-1.186.215-1.596.644-.411.429-.616.994-.616 1.694 0 .728.2 1.307.602 1.736.401.429.942.644 1.624.644z" fill="#fff"/><path opacity=".6" d="M165.696 350.28c.624 0 1.12-.216 1.488-.648.376-.432.564-1.004.564-1.716v-.084c0-.728-.188-1.308-.564-1.74-.368-.432-.864-.648-1.488-.648-.632 0-1.132.216-1.5.648-.368.432-.552 1.008-.552 1.728v.096c0 .728.18 1.304.54 1.728.368.424.872.636 1.512.636zm-.012.828c-.888 0-1.624-.3-2.208-.9-.576-.608-.864-1.372-.864-2.292v-.096c0-.936.288-1.704.864-2.304.584-.6 1.324-.9 2.22-.9.896 0 1.632.3 2.208.9.584.592.876 1.356.876 2.292v.096c0 .944-.292 1.716-.876 2.316-.584.592-1.324.888-2.22.888zm5.682-3.312V351h-.996v-6.276h.996v2.928l2.604-2.928h1.164l-2.688 2.952 2.916 3.324h-1.212l-2.784-3.204zm9.716-2.232h-2.028V351h-.996v-5.436h-2.028v-.84h5.052v.84zm3.581-.048c-.896 0-1.344.38-1.344 1.14v.036c0 .36.104.632.312.816.208.184.552.276 1.032.276h1.176v-2.268h-1.176zM183.007 351h-1.14l1.908-2.628c-.968-.2-1.452-.76-1.452-1.68v-.036c0-.656.224-1.14.672-1.452.448-.32 1.024-.48 1.728-.48h2.112V351h-.996v-2.46h-1.08l-1.752 2.46zm8.669.108c-.944 0-1.692-.304-2.244-.912-.552-.608-.828-1.532-.828-2.772v-.384c0-.592.024-1.116.072-1.572.048-.464.148-.928.3-1.392.152-.472.352-.864.6-1.176.248-.312.584-.572 1.008-.78.432-.208.94-.328 1.524-.36l.24-.012c.88-.048 1.476-.136 1.788-.264l.132.84c-.408.176-1.044.284-1.908.324l-.18.012c-.968.048-1.66.364-2.076.948-.408.576-.648 1.472-.72 2.688h.048c.216-.44.536-.788.96-1.044.432-.264.932-.396 1.5-.396.872 0 1.568.284 2.088.852.528.56.792 1.288.792 2.184v.048c0 .968-.292 1.74-.876 2.316-.576.568-1.316.852-2.22.852zm-1.5-1.44c.368.408.872.612 1.512.612s1.14-.2 1.5-.6c.368-.408.552-.984.552-1.728v-.024c0-.696-.168-1.244-.504-1.644-.328-.4-.808-.6-1.44-.6-.664 0-1.192.208-1.584.624-.384.416-.576.984-.576 1.704v.024c0 .68.18 1.224.54 1.632zm6.34-4.944h.996v1.056c.184-.32.472-.592.864-.816a2.432 2.432 0 011.26-.348c.84 0 1.524.284 2.052.852.536.568.804 1.336.804 2.304v.096c0 .968-.264 1.752-.792 2.352-.52.592-1.208.888-2.064.888-.96 0-1.668-.38-2.124-1.14v3.216h-.996v-8.46zm3.024 5.556c.624 0 1.1-.2 1.428-.6.328-.408.492-.996.492-1.764v-.096c0-.76-.184-1.344-.552-1.752a1.743 1.743 0 00-1.38-.624c-.608 0-1.104.204-1.488.612-.376.4-.564.988-.564 1.764v.096c0 .776.184 1.364.552 1.764.376.4.88.6 1.512.6zm4.547-5.556h.996v2.196h1.116c.704 0 1.28.172 1.728.516.448.344.672.856.672 1.536v.036c0 .688-.224 1.192-.672 1.512-.44.32-1.016.48-1.728.48h-2.112v-6.276zm2.172 5.496c.48 0 .824-.1 1.032-.3.208-.208.312-.512.312-.912v-.036c0-.432-.108-.748-.324-.948-.208-.208-.548-.312-1.02-.312h-1.176v2.508h1.176z" fill="#fff"/><path d="M162.35 368.72l3.976-4.186c.961-1.017 1.442-1.983 1.442-2.898 0-.56-.159-.999-.476-1.316-.308-.317-.747-.476-1.316-.476-1.213 0-1.918.742-2.114 2.226h-1.134c.075-.989.397-1.769.966-2.338.579-.579 1.339-.868 2.282-.868.924 0 1.657.257 2.198.77.551.504.826 1.185.826 2.044 0 1.101-.672 2.315-2.016 3.64l-2.758 2.688h4.83V369h-6.706v-.28zm12.551-.602c1.764 0 2.646-1.293 2.646-3.878v-.56c0-1.167-.238-2.095-.714-2.786-.476-.7-1.129-1.05-1.96-1.05-.849 0-1.512.336-1.988 1.008-.476.672-.714 1.624-.714 2.856v.56c0 1.241.243 2.193.728 2.856.486.663 1.153.994 2.002.994zm0 1.008c-1.194 0-2.156-.443-2.884-1.33-.728-.887-1.092-2.058-1.092-3.514v-.56c0-1.484.35-2.665 1.05-3.542.71-.877 1.676-1.316 2.898-1.316 1.214 0 2.166.443 2.856 1.33.7.887 1.05 2.053 1.05 3.5v.56c0 1.475-.345 2.655-1.036 3.542-.681.887-1.628 1.33-2.842 1.33zm7.733-8.932l-2.24 1.61v-1.134l2.324-1.68h1.134V369h-1.218v-8.806zm7.45 8.932c-.569 0-1.11-.103-1.624-.308a3.142 3.142 0 01-1.302-1.022c-.354-.467-.532-1.013-.532-1.638 0-.644.173-1.185.518-1.624a2.994 2.994 0 011.372-.966c-1.008-.401-1.512-1.101-1.512-2.1 0-.765.308-1.391.924-1.876a3.423 3.423 0 012.156-.728c.812 0 1.526.243 2.142.728.616.476.924 1.092.924 1.848 0 .961-.513 1.666-1.54 2.114 1.279.476 1.918 1.335 1.918 2.576 0 .943-.345 1.68-1.036 2.212-.681.523-1.484.784-2.408.784zm0-.994c.644 0 1.172-.177 1.582-.532.411-.364.616-.868.616-1.512 0-.625-.21-1.111-.63-1.456-.41-.355-.924-.532-1.54-.532-.634 0-1.166.177-1.596.532-.429.345-.644.84-.644 1.484 0 .625.215 1.12.644 1.484.43.355.952.532 1.568.532zm.042-4.998c.542 0 .976-.149 1.302-.448.327-.299.49-.709.49-1.232 0-.476-.172-.868-.518-1.176-.345-.308-.784-.462-1.316-.462-.541 0-.984.149-1.33.448-.345.299-.518.705-.518 1.218 0 .504.182.905.546 1.204.364.299.812.448 1.344.448z" fill="#fff"/><path opacity=".6" d="M103.008 351v-6.276h.996v4.836l3.204-4.836h.996V351h-.996v-4.836L104.004 351h-.996zm12.094.108c-.8 0-1.464-.248-1.992-.744-.52-.496-.828-1.148-.924-1.956a2.243 2.243 0 01-.024-.204h-.948V351h-.996v-6.276h.996v2.64h.96c.096-.832.404-1.496.924-1.992.528-.504 1.2-.756 2.016-.756.888 0 1.604.296 2.148.888.544.592.816 1.36.816 2.304v.096c0 .952-.276 1.724-.828 2.316-.544.592-1.26.888-2.148.888zm.012-.828c.616 0 1.092-.212 1.428-.636.336-.424.504-1 .504-1.728v-.084c0-.736-.168-1.316-.504-1.74-.336-.432-.812-.648-1.428-.648-.624 0-1.104.212-1.44.636-.328.424-.492 1.004-.492 1.74v.096c0 .736.164 1.316.492 1.74.328.416.808.624 1.44.624zm5.775-1.704c-.072.864-.224 1.496-.456 1.896-.232.392-.596.588-1.092.588-.104 0-.212-.008-.324-.024l-.096-.036v-.948l.084.024c.08.016.164.024.252.024a.449.449 0 00.312-.108.782.782 0 00.204-.372c.056-.168.096-.324.12-.468.024-.152.052-.364.084-.636.032-.288.08-1.104.144-2.448l.036-1.344h4.14V351h-.996v-5.436h-2.256c-.072 1.728-.124 2.732-.156 3.012zm5.542-3.852h.996v2.196h1.116c.704 0 1.28.172 1.728.516.448.344.672.856.672 1.536v.036c0 .688-.224 1.192-.672 1.512-.44.32-1.016.48-1.728.48h-2.112v-6.276zm2.172 5.496c.48 0 .824-.1 1.032-.3.208-.208.312-.512.312-.912v-.036c0-.432-.108-.748-.324-.948-.208-.208-.548-.312-1.02-.312h-1.176v2.508h1.176z" fill="#fff"/><path d="M102.35 368.72l3.976-4.186c.961-1.017 1.442-1.983 1.442-2.898 0-.56-.159-.999-.476-1.316-.308-.317-.747-.476-1.316-.476-1.213 0-1.918.742-2.114 2.226h-1.134c.075-.989.397-1.769.966-2.338.579-.579 1.339-.868 2.282-.868.924 0 1.657.257 2.198.77.551.504.826 1.185.826 2.044 0 1.101-.672 2.315-2.016 3.64l-2.758 2.688h4.83V369h-6.706v-.28zm12.551-.602c1.764 0 2.646-1.293 2.646-3.878v-.56c0-1.167-.238-2.095-.714-2.786-.476-.7-1.129-1.05-1.96-1.05-.849 0-1.512.336-1.988 1.008-.476.672-.714 1.624-.714 2.856v.56c0 1.241.243 2.193.728 2.856.486.663 1.153.994 2.002.994zm0 1.008c-1.194 0-2.156-.443-2.884-1.33-.728-.887-1.092-2.058-1.092-3.514v-.56c0-1.484.35-2.665 1.05-3.542.71-.877 1.676-1.316 2.898-1.316 1.214 0 2.166.443 2.856 1.33.7.887 1.05 2.053 1.05 3.5v.56c0 1.475-.345 2.655-1.036 3.542-.681.887-1.628 1.33-2.842 1.33zm7.733-8.932l-2.24 1.61v-1.134l2.324-1.68h1.134V369h-1.218v-8.806zm7.45 8.932c-.569 0-1.11-.103-1.624-.308a3.142 3.142 0 01-1.302-1.022c-.354-.467-.532-1.013-.532-1.638 0-.644.173-1.185.518-1.624a2.994 2.994 0 011.372-.966c-1.008-.401-1.512-1.101-1.512-2.1 0-.765.308-1.391.924-1.876a3.423 3.423 0 012.156-.728c.812 0 1.526.243 2.142.728.616.476.924 1.092.924 1.848 0 .961-.513 1.666-1.54 2.114 1.279.476 1.918 1.335 1.918 2.576 0 .943-.345 1.68-1.036 2.212-.681.523-1.484.784-2.408.784zm0-.994c.644 0 1.172-.177 1.582-.532.411-.364.616-.868.616-1.512 0-.625-.21-1.111-.63-1.456-.41-.355-.924-.532-1.54-.532-.634 0-1.166.177-1.596.532-.429.345-.644.84-.644 1.484 0 .625.215 1.12.644 1.484.43.355.952.532 1.568.532zm.042-4.998c.542 0 .976-.149 1.302-.448.327-.299.49-.709.49-1.232 0-.476-.172-.868-.518-1.176-.345-.308-.784-.462-1.316-.462-.541 0-.984.149-1.33.448-.345.299-.518.705-.518 1.218 0 .504.182.905.546 1.204.364.299.812.448 1.344.448z" fill="#fff"/><path opacity=".6" d="M294.652 351.108c-.616 0-1.12-.152-1.512-.456-.384-.312-.576-.776-.576-1.392 0-.344.084-.644.252-.9a1.74 1.74 0 01.72-.612c.304-.152.636-.26.996-.324.36-.072.752-.108 1.176-.108h.9v-.456c0-.504-.104-.864-.312-1.08-.208-.224-.552-.336-1.032-.336-.864 0-1.344.376-1.44 1.128h-.996c.064-.672.324-1.164.78-1.476.464-.32 1.032-.48 1.704-.48 1.528 0 2.292.748 2.292 2.244V351h-.996v-.792c-.48.6-1.132.9-1.956.9zm.096-.792c.544 0 .988-.132 1.332-.396.352-.272.528-.644.528-1.116v-.78h-.864c-1.456 0-2.184.412-2.184 1.236 0 .704.396 1.056 1.188 1.056zm8.82-4.752h-2.964V351h-.996v-6.276h4.956V351h-.996v-5.436zm3.205-.84h.996v1.056c.184-.32.472-.592.864-.816a2.432 2.432 0 011.26-.348c.84 0 1.524.284 2.052.852.536.568.804 1.336.804 2.304v.096c0 .968-.264 1.752-.792 2.352-.52.592-1.208.888-2.064.888-.96 0-1.668-.38-2.124-1.14v3.216h-.996v-8.46zm3.024 5.556c.624 0 1.1-.2 1.428-.6.328-.408.492-.996.492-1.764v-.096c0-.76-.184-1.344-.552-1.752a1.743 1.743 0 00-1.38-.624c-.608 0-1.104.204-1.488.612-.376.4-.564.988-.564 1.764v.096c0 .776.184 1.364.552 1.764.376.4.88.6 1.512.6zm7.188.828c-.896 0-1.628-.292-2.196-.876-.56-.584-.84-1.352-.84-2.304v-.096c0-.944.272-1.716.816-2.316.552-.6 1.26-.9 2.124-.9.8 0 1.468.26 2.004.78.544.512.816 1.292.816 2.34v.324h-4.728c.048 1.48.72 2.22 2.016 2.22.984 0 1.54-.364 1.668-1.092h.996c-.112.624-.404 1.1-.876 1.428-.472.328-1.072.492-1.8.492zm1.704-3.852c-.088-1.208-.688-1.812-1.8-1.812-.504 0-.92.16-1.248.48-.328.32-.536.764-.624 1.332h3.672zm3.854 1.32c-.072.864-.224 1.496-.456 1.896-.232.392-.596.588-1.092.588-.104 0-.212-.008-.324-.024l-.096-.036v-.948l.084.024c.08.016.164.024.252.024a.449.449 0 00.312-.108.782.782 0 00.204-.372c.056-.168.096-.324.12-.468.024-.152.052-.364.084-.636.032-.288.08-1.104.144-2.448l.036-1.344h4.14V351h-.996v-5.436h-2.256c-.072 1.728-.124 2.732-.156 3.012zm5.542-3.852h.996v2.196h1.116c.704 0 1.28.172 1.728.516.448.344.672.856.672 1.536v.036c0 .688-.224 1.192-.672 1.512-.44.32-1.016.48-1.728.48h-2.112v-6.276zm2.172 5.496c.48 0 .824-.1 1.032-.3.208-.208.312-.512.312-.912v-.036c0-.432-.108-.748-.324-.948-.208-.208-.548-.312-1.02-.312h-1.176v2.508h1.176z" fill="#fff"/><path d="M292.35 368.72l3.976-4.186c.961-1.017 1.442-1.983 1.442-2.898 0-.56-.159-.999-.476-1.316-.308-.317-.747-.476-1.316-.476-1.213 0-1.918.742-2.114 2.226h-1.134c.075-.989.397-1.769.966-2.338.579-.579 1.339-.868 2.282-.868.924 0 1.657.257 2.198.77.551.504.826 1.185.826 2.044 0 1.101-.672 2.315-2.016 3.64l-2.758 2.688h4.83V369h-6.706v-.28zm12.551-.602c1.764 0 2.646-1.293 2.646-3.878v-.56c0-1.167-.238-2.095-.714-2.786-.476-.7-1.129-1.05-1.96-1.05-.849 0-1.512.336-1.988 1.008-.476.672-.714 1.624-.714 2.856v.56c0 1.241.243 2.193.728 2.856.486.663 1.153.994 2.002.994zm0 1.008c-1.194 0-2.156-.443-2.884-1.33-.728-.887-1.092-2.058-1.092-3.514v-.56c0-1.484.35-2.665 1.05-3.542.71-.877 1.676-1.316 2.898-1.316 1.214 0 2.166.443 2.856 1.33.7.887 1.05 2.053 1.05 3.5v.56c0 1.475-.345 2.655-1.036 3.542-.681.887-1.628 1.33-2.842 1.33zm7.733-8.932l-2.24 1.61v-1.134l2.324-1.68h1.134V369h-1.218v-8.806zm7.118 8.918c-.915 0-1.648-.224-2.198-.672-.551-.448-.892-1.083-1.022-1.904h1.176c.121.523.34.919.658 1.19.326.261.798.392 1.414.392.812 0 1.437-.331 1.876-.994.438-.663.667-1.657.686-2.982-.252.42-.602.747-1.05.98-.448.233-.962.35-1.54.35-.971 0-1.764-.308-2.38-.924-.607-.616-.91-1.4-.91-2.352 0-1.008.312-1.815.938-2.422.625-.616 1.465-.924 2.52-.924 1.185 0 2.081.383 2.688 1.148.606.765.91 1.876.91 3.332v.63c0 1.671-.327 2.949-.98 3.836-.644.877-1.573 1.316-2.786 1.316zm.182-4.592c.672 0 1.222-.201 1.652-.602.429-.401.644-.924.644-1.568 0-.803-.215-1.428-.644-1.876-.42-.448-.976-.672-1.666-.672-.654 0-1.186.215-1.596.644-.411.429-.616.994-.616 1.694 0 .728.2 1.307.602 1.736.401.429.942.644 1.624.644z" fill="#fff"/><path opacity=".6" d="M359.74 344.628c.936.048 1.704.348 2.304.9.608.552.912 1.312.912 2.28v.096c0 .976-.3 1.74-.9 2.292-.6.552-1.372.852-2.316.9v2.088h-.984v-2.088c-.936-.048-1.708-.348-2.316-.9-.6-.552-.9-1.312-.9-2.28v-.096c0-.976.3-1.74.9-2.292.6-.552 1.372-.852 2.316-.9v-2.904h.984v2.904zm-.984.756c-.648.032-1.176.26-1.584.684-.408.416-.612.996-.612 1.74v.084c0 .76.204 1.352.612 1.776.408.424.936.644 1.584.66v-4.944zm.984 4.956c.648-.016 1.176-.236 1.584-.66.408-.432.612-1.02.612-1.764v-.084c0-.768-.204-1.356-.612-1.764-.4-.416-.928-.64-1.584-.672v4.944zm7.524.768c-.896 0-1.628-.292-2.196-.876-.56-.584-.84-1.352-.84-2.304v-.096c0-.944.272-1.716.816-2.316.552-.6 1.26-.9 2.124-.9.8 0 1.468.26 2.004.78.544.512.816 1.292.816 2.34v.324h-4.728c.048 1.48.72 2.22 2.016 2.22.984 0 1.54-.364 1.668-1.092h.996c-.112.624-.404 1.1-.876 1.428-.472.328-1.072.492-1.8.492zm1.704-3.852c-.088-1.208-.688-1.812-1.8-1.812-.504 0-.92.16-1.248.48-.328.32-.536.764-.624 1.332h3.672zm2.596-2.532h2.196c1.472 0 2.208.532 2.208 1.596v.036a1.5 1.5 0 01-.252.84c-.168.248-.42.416-.756.504.872.192 1.308.664 1.308 1.416v.036c0 .608-.2 1.068-.6 1.38-.392.312-.94.468-1.644.468h-2.46v-6.276zm.996.792v1.86h1.2c.416 0 .712-.076.888-.228.184-.152.276-.4.276-.744v-.036c0-.32-.096-.54-.288-.66-.184-.128-.48-.192-.888-.192h-1.188zm0 2.652v2.04h1.368c.44 0 .764-.076.972-.228.216-.16.324-.416.324-.768v-.036c0-.352-.108-.608-.324-.768-.208-.16-.532-.24-.972-.24h-1.368zm5.489-3.444h.996v1.056c.184-.32.472-.592.864-.816a2.432 2.432 0 011.26-.348c.84 0 1.524.284 2.052.852.536.568.804 1.336.804 2.304v.096c0 .968-.264 1.752-.792 2.352-.52.592-1.208.888-2.064.888-.96 0-1.668-.38-2.124-1.14v3.216h-.996v-8.46zm3.024 5.556c.624 0 1.1-.2 1.428-.6.328-.408.492-.996.492-1.764v-.096c0-.76-.184-1.344-.552-1.752a1.743 1.743 0 00-1.38-.624c-.608 0-1.104.204-1.488.612-.376.4-.564.988-.564 1.764v.096c0 .776.184 1.364.552 1.764.376.4.88.6 1.512.6zm6.192.828c-.616 0-1.12-.152-1.512-.456-.384-.312-.576-.776-.576-1.392 0-.344.084-.644.252-.9a1.74 1.74 0 01.72-.612c.304-.152.636-.26.996-.324.36-.072.752-.108 1.176-.108h.9v-.456c0-.504-.104-.864-.312-1.08-.208-.224-.552-.336-1.032-.336-.864 0-1.344.376-1.44 1.128h-.996c.064-.672.324-1.164.78-1.476.464-.32 1.032-.48 1.704-.48 1.528 0 2.292.748 2.292 2.244V351h-.996v-.792c-.48.6-1.132.9-1.956.9zm.096-.792c.544 0 .988-.132 1.332-.396.352-.272.528-.644.528-1.116v-.78h-.864c-1.456 0-2.184.412-2.184 1.236 0 .704.396 1.056 1.188 1.056zm6.06-1.74c-.072.864-.224 1.496-.456 1.896-.232.392-.596.588-1.092.588-.104 0-.212-.008-.324-.024l-.096-.036v-.948l.084.024c.08.016.164.024.252.024a.449.449 0 00.312-.108.782.782 0 00.204-.372c.056-.168.096-.324.12-.468.024-.152.052-.364.084-.636.032-.288.08-1.104.144-2.448l.036-1.344h4.14V351h-.996v-5.436h-2.256c-.072 1.728-.124 2.732-.156 3.012zm5.541-3.852h.996v2.196h1.116c.704 0 1.28.172 1.728.516.448.344.672.856.672 1.536v.036c0 .688-.224 1.192-.672 1.512-.44.32-1.016.48-1.728.48h-2.112v-6.276zm2.172 5.496c.48 0 .824-.1 1.032-.3.208-.208.312-.512.312-.912v-.036c0-.432-.108-.748-.324-.948-.208-.208-.548-.312-1.02-.312h-1.176v2.508h1.176z" fill="#fff"/><path d="M355.35 368.72l3.976-4.186c.961-1.017 1.442-1.983 1.442-2.898 0-.56-.159-.999-.476-1.316-.308-.317-.747-.476-1.316-.476-1.213 0-1.918.742-2.114 2.226h-1.134c.075-.989.397-1.769.966-2.338.579-.579 1.339-.868 2.282-.868.924 0 1.657.257 2.198.77.551.504.826 1.185.826 2.044 0 1.101-.672 2.315-2.016 3.64l-2.758 2.688h4.83V369h-6.706v-.28zm12.551-.602c1.764 0 2.646-1.293 2.646-3.878v-.56c0-1.167-.238-2.095-.714-2.786-.476-.7-1.129-1.05-1.96-1.05-.849 0-1.512.336-1.988 1.008-.476.672-.714 1.624-.714 2.856v.56c0 1.241.243 2.193.728 2.856.486.663 1.153.994 2.002.994zm0 1.008c-1.194 0-2.156-.443-2.884-1.33-.728-.887-1.092-2.058-1.092-3.514v-.56c0-1.484.35-2.665 1.05-3.542.71-.877 1.676-1.316 2.898-1.316 1.214 0 2.166.443 2.856 1.33.7.887 1.05 2.053 1.05 3.5v.56c0 1.475-.345 2.655-1.036 3.542-.681.887-1.628 1.33-2.842 1.33zm5.297-.406l3.976-4.186c.962-1.017 1.442-1.983 1.442-2.898 0-.56-.158-.999-.476-1.316-.308-.317-.746-.476-1.316-.476-1.213 0-1.918.742-2.114 2.226h-1.134c.075-.989.397-1.769.966-2.338.579-.579 1.34-.868 2.282-.868.924 0 1.657.257 2.198.77.551.504.826 1.185.826 2.044 0 1.101-.672 2.315-2.016 3.64l-2.758 2.688h4.83V369h-6.706v-.28zm12.552-.602c1.764 0 2.646-1.293 2.646-3.878v-.56c0-1.167-.238-2.095-.714-2.786-.476-.7-1.13-1.05-1.96-1.05-.85 0-1.512.336-1.988 1.008-.476.672-.714 1.624-.714 2.856v.56c0 1.241.242 2.193.728 2.856.485.663 1.152.994 2.002.994zm0 1.008c-1.195 0-2.156-.443-2.884-1.33-.728-.887-1.092-2.058-1.092-3.514v-.56c0-1.484.35-2.665 1.05-3.542.709-.877 1.675-1.316 2.898-1.316 1.213 0 2.165.443 2.856 1.33.7.887 1.05 2.053 1.05 3.5v.56c0 1.475-.346 2.655-1.036 3.542-.682.887-1.629 1.33-2.842 1.33z" fill="#fff"/><path opacity=".6" d="M423.848 345.708V351h-.828v-6.276h1.404l1.788 4.716 1.836-4.716h1.368V351h-.984v-5.292L426.356 351h-.456l-2.052-5.292zm9.362 5.4c-.616 0-1.121-.152-1.513-.456-.384-.312-.576-.776-.576-1.392 0-.344.084-.644.252-.9a1.74 1.74 0 01.72-.612c.304-.152.636-.26.997-.324.36-.072.752-.108 1.176-.108h.899v-.456c0-.504-.104-.864-.311-1.08-.208-.224-.552-.336-1.032-.336-.865 0-1.345.376-1.44 1.128h-.997c.064-.672.324-1.164.78-1.476.464-.32 1.032-.48 1.705-.48 1.528 0 2.291.748 2.291 2.244V351h-.996v-.792c-.48.6-1.132.9-1.955.9zm.096-.792c.544 0 .988-.132 1.331-.396.352-.272.528-.644.528-1.116v-.78h-.864c-1.456 0-2.183.412-2.183 1.236 0 .704.396 1.056 1.188 1.056zm7.44-6.744c-.432 0-.8-.148-1.104-.444a1.632 1.632 0 01-.48-1.14h.864c.048.592.288.888.72.888.472 0 .736-.296.792-.888h.84a1.702 1.702 0 01-.516 1.14 1.539 1.539 0 01-1.116.444zm-2.58 7.428v-6.276h.996v4.836l3.204-4.836h.996V351h-.996v-4.836L439.162 351h-.996z" fill="#fff"/><path d="M422.35 368.72l3.976-4.186c.961-1.017 1.442-1.983 1.442-2.898 0-.56-.159-.999-.476-1.316-.308-.317-.747-.476-1.316-.476-1.213 0-1.918.742-2.114 2.226h-1.134c.075-.989.397-1.769.966-2.338.579-.579 1.339-.868 2.282-.868.924 0 1.657.257 2.198.77.551.504.826 1.185.826 2.044 0 1.101-.672 2.315-2.016 3.64l-2.758 2.688h4.83V369h-6.706v-.28zm12.551-.602c1.764 0 2.646-1.293 2.646-3.878v-.56c0-1.167-.238-2.095-.714-2.786-.476-.7-1.129-1.05-1.96-1.05-.849 0-1.512.336-1.988 1.008-.476.672-.714 1.624-.714 2.856v.56c0 1.241.243 2.193.728 2.856.486.663 1.153.994 2.002.994zm0 1.008c-1.194 0-2.156-.443-2.884-1.33-.728-.887-1.092-2.058-1.092-3.514v-.56c0-1.484.35-2.665 1.05-3.542.71-.877 1.676-1.316 2.898-1.316 1.214 0 2.166.443 2.856 1.33.7.887 1.05 2.053 1.05 3.5v.56c0 1.475-.345 2.655-1.036 3.542-.681.887-1.628 1.33-2.842 1.33zm5.297-.406l3.976-4.186c.962-1.017 1.442-1.983 1.442-2.898 0-.56-.158-.999-.476-1.316-.308-.317-.746-.476-1.316-.476-1.213 0-1.918.742-2.114 2.226h-1.134c.075-.989.397-1.769.966-2.338.579-.579 1.34-.868 2.282-.868.924 0 1.657.257 2.198.77.551.504.826 1.185.826 2.044 0 1.101-.672 2.315-2.016 3.64l-2.758 2.688h4.83V369h-6.706v-.28zm12.552-.602c1.764 0 2.646-1.293 2.646-3.878v-.56c0-1.167-.238-2.095-.714-2.786-.476-.7-1.13-1.05-1.96-1.05-.85 0-1.512.336-1.988 1.008-.476.672-.714 1.624-.714 2.856v.56c0 1.241.242 2.193.728 2.856.485.663 1.152.994 2.002.994zm0 1.008c-1.195 0-2.156-.443-2.884-1.33-.728-.887-1.092-2.058-1.092-3.514v-.56c0-1.484.35-2.665 1.05-3.542.709-.877 1.675-1.316 2.898-1.316 1.213 0 2.165.443 2.856 1.33.7.887 1.05 2.053 1.05 3.5v.56c0 1.475-.346 2.655-1.036 3.542-.682.887-1.629 1.33-2.842 1.33z" fill="#fff"/><path opacity=".6" d="M481.008 351v-6.276h.996v4.836l3.204-4.836h.996V351h-.996v-4.836L482.004 351h-.996zm12.094.108c-.8 0-1.464-.248-1.992-.744-.52-.496-.828-1.148-.924-1.956a2.243 2.243 0 01-.024-.204h-.948V351h-.996v-6.276h.996v2.64h.96c.096-.832.404-1.496.924-1.992.528-.504 1.2-.756 2.016-.756.888 0 1.604.296 2.148.888.544.592.816 1.36.816 2.304v.096c0 .952-.276 1.724-.828 2.316-.544.592-1.26.888-2.148.888zm.012-.828c.616 0 1.092-.212 1.428-.636.336-.424.504-1 .504-1.728v-.084c0-.736-.168-1.316-.504-1.74-.336-.432-.812-.648-1.428-.648-.624 0-1.104.212-1.44.636-.328.424-.492 1.004-.492 1.74v.096c0 .736.164 1.316.492 1.74.328.416.808.624 1.44.624zm5.775-1.704c-.072.864-.224 1.496-.456 1.896-.232.392-.596.588-1.092.588-.104 0-.212-.008-.324-.024l-.096-.036v-.948l.084.024c.08.016.164.024.252.024a.449.449 0 00.312-.108.782.782 0 00.204-.372c.056-.168.096-.324.12-.468.024-.152.052-.364.084-.636.032-.288.08-1.104.144-2.448l.036-1.344h4.14V351h-.996v-5.436h-2.256c-.072 1.728-.124 2.732-.156 3.012zm5.542-3.852h.996v2.196h1.116c.704 0 1.28.172 1.728.516.448.344.672.856.672 1.536v.036c0 .688-.224 1.192-.672 1.512-.44.32-1.016.48-1.728.48h-2.112v-6.276zm2.172 5.496c.48 0 .824-.1 1.032-.3.208-.208.312-.512.312-.912v-.036c0-.432-.108-.748-.324-.948-.208-.208-.548-.312-1.02-.312h-1.176v2.508h1.176z" fill="#fff"/><path d="M480.35 368.72l3.976-4.186c.961-1.017 1.442-1.983 1.442-2.898 0-.56-.159-.999-.476-1.316-.308-.317-.747-.476-1.316-.476-1.213 0-1.918.742-2.114 2.226h-1.134c.075-.989.397-1.769.966-2.338.579-.579 1.339-.868 2.282-.868.924 0 1.657.257 2.198.77.551.504.826 1.185.826 2.044 0 1.101-.672 2.315-2.016 3.64l-2.758 2.688h4.83V369h-6.706v-.28zm12.551-.602c1.764 0 2.646-1.293 2.646-3.878v-.56c0-1.167-.238-2.095-.714-2.786-.476-.7-1.129-1.05-1.96-1.05-.849 0-1.512.336-1.988 1.008-.476.672-.714 1.624-.714 2.856v.56c0 1.241.243 2.193.728 2.856.486.663 1.153.994 2.002.994zm0 1.008c-1.194 0-2.156-.443-2.884-1.33-.728-.887-1.092-2.058-1.092-3.514v-.56c0-1.484.35-2.665 1.05-3.542.71-.877 1.676-1.316 2.898-1.316 1.214 0 2.166.443 2.856 1.33.7.887 1.05 2.053 1.05 3.5v.56c0 1.475-.345 2.655-1.036 3.542-.681.887-1.628 1.33-2.842 1.33zm5.297-.406l3.976-4.186c.962-1.017 1.442-1.983 1.442-2.898 0-.56-.158-.999-.476-1.316-.308-.317-.746-.476-1.316-.476-1.213 0-1.918.742-2.114 2.226h-1.134c.075-.989.397-1.769.966-2.338.579-.579 1.34-.868 2.282-.868.924 0 1.657.257 2.198.77.551.504.826 1.185.826 2.044 0 1.101-.672 2.315-2.016 3.64l-2.758 2.688h4.83V369h-6.706v-.28zm12.552-.602c1.764 0 2.646-1.293 2.646-3.878v-.56c0-1.167-.238-2.095-.714-2.786-.476-.7-1.13-1.05-1.96-1.05-.85 0-1.512.336-1.988 1.008-.476.672-.714 1.624-.714 2.856v.56c0 1.241.242 2.193.728 2.856.485.663 1.152.994 2.002.994zm0 1.008c-1.195 0-2.156-.443-2.884-1.33-.728-.887-1.092-2.058-1.092-3.514v-.56c0-1.484.35-2.665 1.05-3.542.709-.877 1.675-1.316 2.898-1.316 1.213 0 2.165.443 2.856 1.33.7.887 1.05 2.053 1.05 3.5v.56c0 1.475-.346 2.655-1.036 3.542-.682.887-1.629 1.33-2.842 1.33z" fill="#fff"/><path opacity=".6" d="M541.684 351.108c-.896 0-1.632-.288-2.208-.864-.576-.584-.864-1.356-.864-2.316v-.096c0-.944.292-1.716.876-2.316.592-.6 1.316-.9 2.172-.9.72 0 1.332.18 1.836.54.504.352.8.904.888 1.656h-.984c-.144-.912-.724-1.368-1.74-1.368-.584 0-1.068.22-1.452.66-.376.432-.564 1.008-.564 1.728v.096c0 .752.184 1.332.552 1.74.376.408.876.612 1.5.612.472 0 .876-.132 1.212-.396.344-.272.54-.652.588-1.14h.924a2.49 2.49 0 01-.864 1.704c-.504.44-1.128.66-1.872.66zm6.928 0c-.896 0-1.628-.292-2.196-.876-.56-.584-.84-1.352-.84-2.304v-.096c0-.944.272-1.716.816-2.316.552-.6 1.26-.9 2.124-.9.8 0 1.468.26 2.004.78.544.512.816 1.292.816 2.34v.324h-4.728c.048 1.48.72 2.22 2.016 2.22.984 0 1.54-.364 1.668-1.092h.996c-.112.624-.404 1.1-.876 1.428-.472.328-1.072.492-1.8.492zm1.704-3.852c-.088-1.208-.688-1.812-1.8-1.812-.504 0-.92.16-1.248.48-.328.32-.536.764-.624 1.332h3.672zm6.676.948h-3.084V351h-.996v-6.276h.996v2.64h3.084v-2.64h.996V351h-.996v-2.796zm7.534-2.64h-2.028V351h-.996v-5.436h-2.028v-.84h5.052v.84zm3.581-.048c-.896 0-1.344.38-1.344 1.14v.036c0 .36.104.632.312.816.208.184.552.276 1.032.276h1.176v-2.268h-1.176zM566.451 351h-1.14l1.908-2.628c-.968-.2-1.452-.76-1.452-1.68v-.036c0-.656.224-1.14.672-1.452.448-.32 1.024-.48 1.728-.48h2.112V351h-.996v-2.46h-1.08l-1.752 2.46zm8.669.108c-.944 0-1.692-.304-2.244-.912-.552-.608-.828-1.532-.828-2.772v-.384c0-.592.024-1.116.072-1.572.048-.464.148-.928.3-1.392.152-.472.352-.864.6-1.176.248-.312.584-.572 1.008-.78.432-.208.94-.328 1.524-.36l.24-.012c.88-.048 1.476-.136 1.788-.264l.132.84c-.408.176-1.044.284-1.908.324l-.18.012c-.968.048-1.66.364-2.076.948-.408.576-.648 1.472-.72 2.688h.048c.216-.44.536-.788.96-1.044.432-.264.932-.396 1.5-.396.872 0 1.568.284 2.088.852.528.56.792 1.288.792 2.184v.048c0 .968-.292 1.74-.876 2.316-.576.568-1.316.852-2.22.852zm-1.5-1.44c.368.408.872.612 1.512.612s1.14-.2 1.5-.6c.368-.408.552-.984.552-1.728v-.024c0-.696-.168-1.244-.504-1.644-.328-.4-.808-.6-1.44-.6-.664 0-1.192.208-1.584.624-.384.416-.576.984-.576 1.704v.024c0 .68.18 1.224.54 1.632zm6.34-4.944h.996v1.056c.184-.32.472-.592.864-.816a2.432 2.432 0 011.26-.348c.84 0 1.524.284 2.052.852.536.568.804 1.336.804 2.304v.096c0 .968-.264 1.752-.792 2.352-.52.592-1.208.888-2.064.888-.96 0-1.668-.38-2.124-1.14v3.216h-.996v-8.46zm3.024 5.556c.624 0 1.1-.2 1.428-.6.328-.408.492-.996.492-1.764v-.096c0-.76-.184-1.344-.552-1.752a1.743 1.743 0 00-1.38-.624c-.608 0-1.104.204-1.488.612-.376.4-.564.988-.564 1.764v.096c0 .776.184 1.364.552 1.764.376.4.88.6 1.512.6zm4.548-5.556h.996v2.196h1.116c.704 0 1.28.172 1.728.516.448.344.672.856.672 1.536v.036c0 .688-.224 1.192-.672 1.512-.44.32-1.016.48-1.728.48h-2.112v-6.276zm2.172 5.496c.48 0 .824-.1 1.032-.3.208-.208.312-.512.312-.912v-.036c0-.432-.108-.748-.324-.948-.208-.208-.548-.312-1.02-.312h-1.176v2.508h1.176z" fill="#fff"/><path d="M538.35 368.72l3.976-4.186c.961-1.017 1.442-1.983 1.442-2.898 0-.56-.159-.999-.476-1.316-.308-.317-.747-.476-1.316-.476-1.213 0-1.918.742-2.114 2.226h-1.134c.075-.989.397-1.769.966-2.338.579-.579 1.339-.868 2.282-.868.924 0 1.657.257 2.198.77.551.504.826 1.185.826 2.044 0 1.101-.672 2.315-2.016 3.64l-2.758 2.688h4.83V369h-6.706v-.28zm12.551-.602c1.764 0 2.646-1.293 2.646-3.878v-.56c0-1.167-.238-2.095-.714-2.786-.476-.7-1.129-1.05-1.96-1.05-.849 0-1.512.336-1.988 1.008-.476.672-.714 1.624-.714 2.856v.56c0 1.241.243 2.193.728 2.856.486.663 1.153.994 2.002.994zm0 1.008c-1.194 0-2.156-.443-2.884-1.33-.728-.887-1.092-2.058-1.092-3.514v-.56c0-1.484.35-2.665 1.05-3.542.71-.877 1.676-1.316 2.898-1.316 1.214 0 2.166.443 2.856 1.33.7.887 1.05 2.053 1.05 3.5v.56c0 1.475-.345 2.655-1.036 3.542-.681.887-1.628 1.33-2.842 1.33zm5.297-.406l3.976-4.186c.962-1.017 1.442-1.983 1.442-2.898 0-.56-.158-.999-.476-1.316-.308-.317-.746-.476-1.316-.476-1.213 0-1.918.742-2.114 2.226h-1.134c.075-.989.397-1.769.966-2.338.579-.579 1.34-.868 2.282-.868.924 0 1.657.257 2.198.77.551.504.826 1.185.826 2.044 0 1.101-.672 2.315-2.016 3.64l-2.758 2.688h4.83V369h-6.706v-.28zm12.552-.602c1.764 0 2.646-1.293 2.646-3.878v-.56c0-1.167-.238-2.095-.714-2.786-.476-.7-1.13-1.05-1.96-1.05-.85 0-1.512.336-1.988 1.008-.476.672-.714 1.624-.714 2.856v.56c0 1.241.242 2.193.728 2.856.485.663 1.152.994 2.002.994zm0 1.008c-1.195 0-2.156-.443-2.884-1.33-.728-.887-1.092-2.058-1.092-3.514v-.56c0-1.484.35-2.665 1.05-3.542.709-.877 1.675-1.316 2.898-1.316 1.213 0 2.165.443 2.856 1.33.7.887 1.05 2.053 1.05 3.5v.56c0 1.475-.346 2.655-1.036 3.542-.682.887-1.629 1.33-2.842 1.33z" fill="#fff"/><path opacity=".6" d="M5.412 252.564H3.384V258h-.996v-5.436H.36v-.84h5.052v.84zm6.893-.84h.996V258h-.996v-6.276zm-5.4 0h.996v2.196h1.116c.712 0 1.288.16 1.728.48.448.32.672.824.672 1.512v.036c0 .68-.224 1.192-.672 1.536-.448.344-1.024.516-1.728.516H6.905v-6.276zm2.172 5.484c.472 0 .812-.1 1.02-.3.216-.208.324-.528.324-.96v-.036c0-.4-.104-.7-.312-.9-.208-.208-.552-.312-1.032-.312H7.901v2.508h1.176zm9.038.9c-.896 0-1.632-.288-2.208-.864-.576-.584-.864-1.356-.864-2.316v-.096c0-.944.292-1.716.876-2.316.592-.6 1.316-.9 2.172-.9.72 0 1.332.18 1.836.54.504.352.8.904.888 1.656h-.984c-.144-.912-.724-1.368-1.74-1.368-.584 0-1.068.22-1.452.66-.376.432-.564 1.008-.564 1.728v.096c0 .752.184 1.332.552 1.74.376.408.876.612 1.5.612.472 0 .876-.132 1.212-.396.344-.272.54-.652.588-1.14h.924a2.49 2.49 0 01-.864 1.704c-.504.44-1.128.66-1.872.66zm7.656-6.384h.996v1.056c.184-.32.472-.592.864-.816a2.432 2.432 0 011.26-.348c.84 0 1.524.284 2.052.852.536.568.804 1.336.804 2.304v.096c0 .968-.264 1.752-.792 2.352-.52.592-1.208.888-2.064.888-.96 0-1.668-.38-2.124-1.14v3.216h-.996v-8.46zm3.024 5.556c.624 0 1.1-.2 1.428-.6.328-.408.492-.996.492-1.764v-.096c0-.76-.184-1.344-.552-1.752a1.743 1.743 0 00-1.38-.624c-.608 0-1.104.204-1.488.612-.376.4-.564.988-.564 1.764v.096c0 .776.184 1.364.552 1.764.376.4.88.6 1.512.6zm6.254.072l-2.46-5.628h1.068l1.92 4.5 1.74-4.5h1.02l-3.468 8.46h-1.008l1.188-2.832zm7.348.756c-.944 0-1.692-.304-2.244-.912-.552-.608-.828-1.532-.828-2.772v-.384c0-.592.024-1.116.072-1.572.048-.464.148-.928.3-1.392.152-.472.352-.864.6-1.176.248-.312.584-.572 1.008-.78.432-.208.94-.328 1.524-.36l.24-.012c.88-.048 1.476-.136 1.788-.264l.132.84c-.408.176-1.044.284-1.908.324l-.18.012c-.968.048-1.66.364-2.076.948-.408.576-.648 1.472-.72 2.688h.048c.216-.44.536-.788.96-1.044.432-.264.932-.396 1.5-.396.872 0 1.568.284 2.088.852.528.56.792 1.288.792 2.184v.048c0 .968-.292 1.74-.876 2.316-.576.568-1.316.852-2.22.852zm-1.5-1.44c.368.408.872.612 1.512.612s1.14-.2 1.5-.6c.368-.408.552-.984.552-1.728v-.024c0-.696-.168-1.244-.504-1.644-.328-.4-.808-.6-1.44-.6-.664 0-1.192.208-1.584.624-.384.416-.576.984-.576 1.704v.024c0 .68.18 1.224.54 1.632z" fill="#fff"/><path d="M16.4 242.68l4.544-4.784c1.099-1.163 1.648-2.267 1.648-3.312 0-.64-.181-1.141-.544-1.504-.352-.363-.853-.544-1.504-.544-1.387 0-2.192.848-2.416 2.544h-1.296c.085-1.131.453-2.021 1.104-2.672.661-.661 1.53-.992 2.608-.992 1.056 0 1.893.293 2.512.88.63.576.944 1.355.944 2.336 0 1.259-.768 2.645-2.304 4.16l-3.152 3.072h5.52V243H16.4v-.32zm13.834.464c-2.741 0-4.112-1.733-4.112-5.2v-.272c0-2.005.406-3.547 1.216-4.624.822-1.088 1.91-1.632 3.264-1.632.918 0 1.664.235 2.24.704.587.469.955 1.157 1.104 2.064h-1.328c-.128-.555-.357-.965-.688-1.232-.33-.267-.805-.4-1.424-.4-.885 0-1.6.395-2.144 1.184-.544.789-.832 1.92-.864 3.392.619-1.035 1.6-1.552 2.944-1.552 1.12 0 2.022.357 2.704 1.072.694.704 1.04 1.595 1.04 2.672 0 1.152-.357 2.08-1.072 2.784-.714.693-1.674 1.04-2.88 1.04zm0-1.088c.747 0 1.355-.245 1.824-.736.47-.491.704-1.136.704-1.936 0-.832-.23-1.493-.688-1.984-.458-.491-1.077-.736-1.856-.736-.768 0-1.397.235-1.888.704-.49.469-.736 1.077-.736 1.824 0 .907.24 1.611.72 2.112.49.501 1.13.752 1.92.752zm10.608-.064c2.016 0 3.024-1.477 3.024-4.432v-.64c0-1.333-.272-2.395-.816-3.184-.544-.8-1.29-1.2-2.24-1.2-.97 0-1.728.384-2.272 1.152-.544.768-.816 1.856-.816 3.264v.64c0 1.419.277 2.507.832 3.264.554.757 1.317 1.136 2.288 1.136zm0 1.152c-1.365 0-2.464-.507-3.296-1.52-.832-1.013-1.248-2.352-1.248-4.016v-.64c0-1.696.4-3.045 1.2-4.048.81-1.003 1.915-1.504 3.312-1.504 1.386 0 2.474.507 3.264 1.52.8 1.013 1.2 2.347 1.2 4v.64c0 1.685-.395 3.035-1.184 4.048-.779 1.013-1.862 1.52-3.248 1.52z" fill="#fff"/><path opacity=".6" d="M5.412 191.564H3.384V197h-.996v-5.436H.36v-.84h5.052v.84zm6.893-.84h.996V197h-.996v-6.276zm-5.4 0h.996v2.196h1.116c.712 0 1.288.16 1.728.48.448.32.672.824.672 1.512v.036c0 .68-.224 1.192-.672 1.536-.448.344-1.024.516-1.728.516H6.905v-6.276zm2.172 5.484c.472 0 .812-.1 1.02-.3.216-.208.324-.528.324-.96v-.036c0-.4-.104-.7-.312-.9-.208-.208-.552-.312-1.032-.312H7.901v2.508h1.176zm9.038.9c-.896 0-1.632-.288-2.208-.864-.576-.584-.864-1.356-.864-2.316v-.096c0-.944.292-1.716.876-2.316.592-.6 1.316-.9 2.172-.9.72 0 1.332.18 1.836.54.504.352.8.904.888 1.656h-.984c-.144-.912-.724-1.368-1.74-1.368-.584 0-1.068.22-1.452.66-.376.432-.564 1.008-.564 1.728v.096c0 .752.184 1.332.552 1.74.376.408.876.612 1.5.612.472 0 .876-.132 1.212-.396.344-.272.54-.652.588-1.14h.924a2.49 2.49 0 01-.864 1.704c-.504.44-1.128.66-1.872.66zm7.656-6.384h.996v1.056c.184-.32.472-.592.864-.816a2.432 2.432 0 011.26-.348c.84 0 1.524.284 2.052.852.536.568.804 1.336.804 2.304v.096c0 .968-.264 1.752-.792 2.352-.52.592-1.208.888-2.064.888-.96 0-1.668-.38-2.124-1.14v3.216h-.996v-8.46zm3.024 5.556c.624 0 1.1-.2 1.428-.6.328-.408.492-.996.492-1.764v-.096c0-.76-.184-1.344-.552-1.752a1.743 1.743 0 00-1.38-.624c-.608 0-1.104.204-1.488.612-.376.4-.564.988-.564 1.764v.096c0 .776.184 1.364.552 1.764.376.4.88.6 1.512.6zm6.254.072l-2.46-5.628h1.068l1.92 4.5 1.74-4.5h1.02l-3.468 8.46h-1.008l1.188-2.832zm7.348.756c-.944 0-1.692-.304-2.244-.912-.552-.608-.828-1.532-.828-2.772v-.384c0-.592.024-1.116.072-1.572.048-.464.148-.928.3-1.392.152-.472.352-.864.6-1.176.248-.312.584-.572 1.008-.78.432-.208.94-.328 1.524-.36l.24-.012c.88-.048 1.476-.136 1.788-.264l.132.84c-.408.176-1.044.284-1.908.324l-.18.012c-.968.048-1.66.364-2.076.948-.408.576-.648 1.472-.72 2.688h.048c.216-.44.536-.788.96-1.044.432-.264.932-.396 1.5-.396.872 0 1.568.284 2.088.852.528.56.792 1.288.792 2.184v.048c0 .968-.292 1.74-.876 2.316-.576.568-1.316.852-2.22.852zm-1.5-1.44c.368.408.872.612 1.512.612s1.14-.2 1.5-.6c.368-.408.552-.984.552-1.728v-.024c0-.696-.168-1.244-.504-1.644-.328-.4-.808-.6-1.44-.6-.664 0-1.192.208-1.584.624-.384.416-.576.984-.576 1.704v.024c0 .68.18 1.224.54 1.632z" fill="#fff"/><path d="M23.736 182.144c-1.184 0-2.139-.331-2.864-.992-.715-.661-1.093-1.504-1.136-2.528h1.28c.064.725.325 1.307.784 1.744.459.437 1.115.656 1.968.656.875 0 1.525-.192 1.952-.576.437-.395.656-.939.656-1.632 0-1.483-.805-2.224-2.416-2.224h-.864v-1.168h.8c1.43 0 2.144-.651 2.144-1.952 0-.565-.176-1.024-.528-1.376-.352-.363-.87-.544-1.552-.544-.704 0-1.285.197-1.744.592-.448.395-.71.917-.784 1.568h-1.216c.043-.917.41-1.696 1.104-2.336.693-.64 1.573-.96 2.64-.96 1.045 0 1.877.299 2.496.896.63.587.944 1.296.944 2.128 0 1.163-.603 1.995-1.808 2.496 1.472.405 2.208 1.365 2.208 2.88 0 1.035-.379 1.851-1.136 2.448-.747.587-1.723.88-2.928.88zm8.39-10.208l-2.56 1.84v-1.296l2.655-1.92h1.296V182h-1.392v-10.064zm9.153 9.056c2.016 0 3.024-1.477 3.024-4.432v-.64c0-1.333-.272-2.395-.816-3.184-.544-.8-1.29-1.2-2.24-1.2-.97 0-1.728.384-2.272 1.152-.544.768-.816 1.856-.816 3.264v.64c0 1.419.278 2.507.832 3.264.555.757 1.318 1.136 2.288 1.136zm0 1.152c-1.365 0-2.464-.507-3.296-1.52-.832-1.013-1.248-2.352-1.248-4.016v-.64c0-1.696.4-3.045 1.2-4.048.811-1.003 1.915-1.504 3.312-1.504 1.387 0 2.475.507 3.264 1.52.8 1.013 1.2 2.347 1.2 4v.64c0 1.685-.394 3.035-1.184 4.048-.778 1.013-1.861 1.52-3.248 1.52z" fill="#fff"/><circle cx="220" cy="203" r="4" fill="#F1D5C0"/><circle cx="152" cy="246" r="4" fill="#F1D5C0"/><circle cx="92" cy="276" r="4" fill="#F1D5C0"/><circle cx="282" cy="141" r="4" fill="#F1D5C0"/><circle cx="344" cy="117" r="4" fill="#F1D5C0"/><circle cx="469" cy="75" r="4" fill="#F1D5C0"/><circle cx="411" cy="97" r="4" fill="#F1D5C0"/><circle cx="527" cy="30" r="4" fill="#F1D5C0"/><path opacity=".6" d="M5.412 30.564H3.384V36h-.996v-5.436H.36v-.84h5.052v.84zm6.893-.84h.996V36h-.996v-6.276zm-5.4 0h.996v2.196h1.116c.712 0 1.288.16 1.728.48.448.32.672.824.672 1.512v.036c0 .68-.224 1.192-.672 1.536-.448.344-1.024.516-1.728.516H6.905v-6.276zm2.172 5.484c.472 0 .812-.1 1.02-.3.216-.208.324-.528.324-.96v-.036c0-.4-.104-.7-.312-.9-.208-.208-.552-.312-1.032-.312H7.901v2.508h1.176zm9.038.9c-.896 0-1.632-.288-2.208-.864-.576-.584-.864-1.356-.864-2.316v-.096c0-.944.292-1.716.876-2.316.592-.6 1.316-.9 2.172-.9.72 0 1.332.18 1.836.54.504.352.8.904.888 1.656h-.984c-.144-.912-.724-1.368-1.74-1.368-.584 0-1.068.22-1.452.66-.376.432-.564 1.008-.564 1.728v.096c0 .752.184 1.332.552 1.74.376.408.876.612 1.5.612.472 0 .876-.132 1.212-.396.344-.272.54-.652.588-1.14h.924a2.49 2.49 0 01-.864 1.704c-.504.44-1.128.66-1.872.66zm7.656-6.384h.996v1.056c.184-.32.472-.592.864-.816a2.432 2.432 0 011.26-.348c.84 0 1.524.284 2.052.852.536.568.804 1.336.804 2.304v.096c0 .968-.264 1.752-.792 2.352-.52.592-1.208.888-2.064.888-.96 0-1.668-.38-2.124-1.14v3.216h-.996v-8.46zm3.024 5.556c.624 0 1.1-.2 1.428-.6.328-.408.492-.996.492-1.764v-.096c0-.76-.184-1.344-.552-1.752a1.743 1.743 0 00-1.38-.624c-.608 0-1.104.204-1.488.612-.376.4-.564.988-.564 1.764v.096c0 .776.184 1.364.552 1.764.376.4.88.6 1.512.6zm6.254.072l-2.46-5.628h1.068l1.92 4.5 1.74-4.5h1.02l-3.468 8.46h-1.008l1.188-2.832zm7.348.756c-.944 0-1.692-.304-2.244-.912-.552-.608-.828-1.532-.828-2.772v-.384c0-.592.024-1.116.072-1.572.048-.464.148-.928.3-1.392.152-.472.352-.864.6-1.176.248-.312.584-.572 1.008-.78.432-.208.94-.328 1.524-.36l.24-.012c.88-.048 1.476-.136 1.788-.264l.132.84c-.408.176-1.044.284-1.908.324l-.18.012c-.968.048-1.66.364-2.076.948-.408.576-.648 1.472-.72 2.688h.048c.216-.44.536-.788.96-1.044.432-.264.932-.396 1.5-.396.872 0 1.568.284 2.088.852.528.56.792 1.288.792 2.184v.048c0 .968-.292 1.74-.876 2.316-.576.568-1.316.852-2.22.852zm-1.5-1.44c.368.408.872.612 1.512.612s1.14-.2 1.5-.6c.368-.408.552-.984.552-1.728v-.024c0-.696-.168-1.244-.504-1.644-.328-.4-.808-.6-1.44-.6-.664 0-1.192.208-1.584.624-.384.416-.576.984-.576 1.704v.024c0 .68.18 1.224.54 1.632z" fill="#fff"/><path d="M21.448 19.6H15.72v-.448l5.232-8.592h1.856v7.904h1.584V19.6h-1.584V22h-1.36v-2.4zm0-1.136v-6.848l-3.968 6.848h3.968zm8.942 3.68c-2.74 0-4.111-1.733-4.111-5.2v-.272c0-2.005.405-3.547 1.215-4.624.822-1.088 1.91-1.632 3.265-1.632.917 0 1.663.235 2.24.704.586.47.954 1.157 1.103 2.064h-1.327c-.128-.555-.358-.965-.688-1.232-.331-.267-.806-.4-1.425-.4-.885 0-1.6.395-2.143 1.184-.544.79-.832 1.92-.864 3.392.618-1.035 1.6-1.552 2.944-1.552 1.12 0 2.02.357 2.704 1.072.693.704 1.04 1.595 1.04 2.672 0 1.152-.358 2.08-1.073 2.784-.714.693-1.674 1.04-2.88 1.04zm0-1.088c.747 0 1.355-.245 1.825-.736.469-.49.703-1.136.703-1.936 0-.832-.229-1.493-.688-1.984-.458-.49-1.077-.736-1.855-.736-.768 0-1.398.235-1.889.704-.49.47-.736 1.077-.736 1.824 0 .907.24 1.61.72 2.112.491.501 1.131.752 1.92.752zm10.608-.064c2.016 0 3.024-1.477 3.024-4.432v-.64c0-1.333-.272-2.395-.816-3.184-.544-.8-1.29-1.2-2.24-1.2-.97 0-1.728.384-2.272 1.152-.544.768-.816 1.856-.816 3.264v.64c0 1.419.278 2.507.832 3.264.555.757 1.318 1.136 2.288 1.136zm0 1.152c-1.365 0-2.464-.507-3.296-1.52-.832-1.013-1.248-2.352-1.248-4.016v-.64c0-1.696.4-3.045 1.2-4.048.81-1.003 1.915-1.504 3.312-1.504 1.387 0 2.475.507 3.264 1.52.8 1.013 1.2 2.347 1.2 4v.64c0 1.685-.395 3.035-1.184 4.048-.779 1.013-1.861 1.52-3.248 1.52z" fill="#fff"/><path opacity=".3" fill="#F1D5C0" d="M91 277h1v93h-1zm61-30h1v123h-1zm67-44h1v167h-1zm62-62h1v229h-1zm130-41h1v270h-1zm-67 14h1v256h-1zm125-36h1v292h-1zm58-46h1v338h-1z"/><path d="M47 346.5l43.688-71.053 62.199-30.785 66.465-41.266 62.199-64.19 62.555-22.598 67.175-19.322 57.43-22.342 59.505-46.434L573 1" stroke="#F1D5C0"/><defs><radialGradient id="paint0_radial_947:66" cx="0" cy="0" r="1" gradientUnits="userSpaceOnUse" gradientTransform="matrix(74.28387 190.279 -315.58377 123.20217 325.979 171.956)"><stop stop-color="#F1D5C0"/><stop offset="1" stop-color="#F1D5C0" stop-opacity="0"/></radialGradient></defs></svg>