<svg width="458" height="343" fill="none" xmlns="http://www.w3.org/2000/svg"><path opacity=".6" d="M4.059 5.923H2.538V10h-.747V5.923H.27v-.63h3.789v.63zm5.17-.63h.747V10h-.747V5.293zm-4.05 0h.747V6.94h.837c.534 0 .966.12 1.296.36.336.24.504.618.504 1.134v.027c0 .51-.168.894-.504 1.152-.336.258-.768.387-1.296.387H5.179V5.293zm1.629 4.113c.354 0 .609-.075.765-.225.162-.156.243-.396.243-.72v-.027c0-.3-.078-.525-.234-.675-.156-.156-.414-.234-.774-.234h-.882v1.881h.882zm6.779.675c-.672 0-1.224-.216-1.656-.648-.432-.438-.648-1.017-.648-1.737v-.072c0-.708.219-1.287.657-1.737a2.2 2.2 0 011.629-.675c.54 0 .999.135 1.377.405.378.264.6.678.666 1.242h-.738c-.108-.684-.543-1.026-1.305-1.026-.438 0-.801.165-1.09.495-.281.324-.422.756-.422 1.296v.072c0 .564.138.999.414 1.305.282.306.657.459 1.125.459.354 0 .657-.099.909-.297.258-.204.405-.489.44-.855h.694a1.867 1.867 0 01-.648 1.278c-.378.33-.846.495-1.404.495zm5.741-4.788h.747v.792c.138-.24.354-.444.648-.612.294-.174.61-.261.945-.261.63 0 1.143.213 1.54.639.401.426.602 1.002.602 1.728v.072c0 .726-.198 1.314-.594 1.764-.39.444-.906.666-1.548.666-.72 0-1.25-.285-1.593-.855v2.412h-.747V5.293zm2.268 4.167c.468 0 .825-.15 1.071-.45.246-.306.37-.747.37-1.323v-.072c0-.57-.139-1.008-.415-1.314a1.308 1.308 0 00-1.035-.468c-.456 0-.828.153-1.116.459-.282.3-.423.741-.423 1.323v.072c0 .582.138 1.023.414 1.323.282.3.66.45 1.134.45zm4.69.054l-1.844-4.221h.8l1.44 3.375 1.306-3.375h.765l-2.601 6.345h-.756l.89-2.124zm5.512.567c-.708 0-1.27-.228-1.683-.684-.414-.456-.621-1.149-.621-2.079V7.03c0-.444.018-.837.054-1.179a5 5 0 01.225-1.044c.114-.354.264-.648.45-.882a2.16 2.16 0 01.756-.585 2.994 2.994 0 011.143-.27l.18-.009c.66-.036 1.107-.102 1.34-.198l.1.63c-.306.132-.783.213-1.431.243l-.135.009c-.726.036-1.245.273-1.557.711-.306.432-.486 1.104-.54 2.016h.036a1.85 1.85 0 01.72-.783 2.114 2.114 0 011.125-.297c.654 0 1.176.213 1.566.639.396.42.594.966.594 1.638v.036c0 .726-.22 1.305-.657 1.737-.432.426-.987.639-1.665.639zm-1.125-1.08c.276.306.654.459 1.134.459.48 0 .855-.15 1.125-.45.276-.306.414-.738.414-1.296v-.018c0-.522-.126-.933-.378-1.233-.246-.3-.606-.45-1.08-.45-.498 0-.894.156-1.188.468-.288.312-.432.738-.432 1.278v.018c0 .51.135.918.405 1.224zM415.756 321v-4.707h.747v3.627l2.403-3.627h.747V321h-.747v-3.627L416.503 321h-.747zm9.07.081c-.6 0-1.098-.186-1.494-.558-.39-.372-.621-.861-.693-1.467a1.682 1.682 0 01-.018-.153h-.711V321h-.747v-4.707h.747v1.98h.72c.072-.624.303-1.122.693-1.494.396-.378.9-.567 1.512-.567.666 0 1.203.222 1.611.666.408.444.612 1.02.612 1.728v.072c0 .714-.207 1.293-.621 1.737-.408.444-.945.666-1.611.666zm.009-.621c.462 0 .819-.159 1.071-.477.252-.318.378-.75.378-1.296v-.063c0-.552-.126-.987-.378-1.305-.252-.324-.609-.486-1.071-.486-.468 0-.828.159-1.08.477-.246.318-.369.753-.369 1.305v.072c0 .552.123.987.369 1.305.246.312.606.468 1.08.468zm4.332-1.278c-.054.648-.168 1.122-.342 1.422-.174.294-.447.441-.819.441-.078 0-.159-.006-.243-.018l-.072-.027v-.711l.063.018c.06.012.123.018.189.018a.336.336 0 00.234-.081.587.587 0 00.153-.279c.042-.126.072-.243.09-.351.018-.114.039-.273.063-.477.024-.216.06-.828.108-1.836l.027-1.008h3.105V321h-.747v-4.077h-1.692c-.054 1.296-.093 2.049-.117 2.259zm4.156-2.889h.747v1.647h.837c.528 0 .96.129 1.296.387.336.258.504.642.504 1.152v.027c0 .516-.168.894-.504 1.134-.33.24-.762.36-1.296.36h-1.584v-4.707zm1.629 4.122c.36 0 .618-.075.774-.225.156-.156.234-.384.234-.684v-.027c0-.324-.081-.561-.243-.711-.156-.156-.411-.234-.765-.234h-.882v1.881h.882z" fill="#fff"/><path d="M415.25 335.8l2.84-2.99c.687-.727 1.03-1.417 1.03-2.07 0-.4-.113-.713-.34-.94-.22-.227-.533-.34-.94-.34-.867 0-1.37.53-1.51 1.59h-.81c.053-.707.283-1.263.69-1.67.413-.413.957-.62 1.63-.62.66 0 1.183.183 1.57.55.393.36.59.847.59 1.46 0 .787-.48 1.653-1.44 2.6l-1.97 1.92h3.45v.71h-4.79v-.2zm8.965-.43c1.26 0 1.89-.923 1.89-2.77v-.4c0-.833-.17-1.497-.51-1.99-.34-.5-.806-.75-1.4-.75-.606 0-1.08.24-1.42.72-.34.48-.51 1.16-.51 2.04v.4c0 .887.174 1.567.52 2.04.347.473.824.71 1.43.71zm0 .72c-.853 0-1.54-.317-2.06-.95s-.78-1.47-.78-2.51v-.4c0-1.06.25-1.903.75-2.53.507-.627 1.197-.94 2.07-.94.867 0 1.547.317 2.04.95.5.633.75 1.467.75 2.5v.4c0 1.053-.246 1.897-.74 2.53-.486.633-1.163.95-2.03.95zm3.784-.29l2.84-2.99c.686-.727 1.03-1.417 1.03-2.07 0-.4-.114-.713-.34-.94-.22-.227-.534-.34-.94-.34-.867 0-1.37.53-1.51 1.59h-.81c.053-.707.283-1.263.69-1.67.413-.413.956-.62 1.63-.62.66 0 1.183.183 1.57.55.393.36.59.847.59 1.46 0 .787-.48 1.653-1.44 2.6l-1.97 1.92h3.45v.71h-4.79v-.2zm8.965-.43c1.26 0 1.89-.923 1.89-2.77v-.4c0-.833-.17-1.497-.51-1.99-.34-.5-.807-.75-1.4-.75-.607 0-1.08.24-1.42.72-.34.48-.51 1.16-.51 2.04v.4c0 .887.173 1.567.52 2.04.347.473.823.71 1.43.71zm0 .72c-.853 0-1.54-.317-2.06-.95s-.78-1.47-.78-2.51v-.4c0-1.06.25-1.903.75-2.53.507-.627 1.197-.94 2.07-.94.867 0 1.547.317 2.04.95.5.633.75 1.467.75 2.5v.4c0 1.053-.247 1.897-.74 2.53-.487.633-1.163.95-2.03.95zM4.03 196.5H.45v-.28l3.27-5.37h1.16v4.94h.99v.71h-.99v1.5h-.85v-1.5zm0-.71v-4.28l-2.48 4.28h2.48zm5.59 2.3c-1.714 0-2.57-1.083-2.57-3.25v-.17c0-1.253.252-2.217.76-2.89.512-.68 1.192-1.02 2.04-1.02.572 0 1.04.147 1.4.44.366.293.596.723.69 1.29h-.83c-.08-.347-.224-.603-.43-.77-.208-.167-.504-.25-.89-.25-.554 0-1 .247-1.34.74-.34.493-.52 1.2-.54 2.12.386-.647 1-.97 1.84-.97.7 0 1.262.223 1.69.67.432.44.65.997.65 1.67 0 .72-.224 1.3-.67 1.74-.448.433-1.048.65-1.8.65zm0-.68c.466 0 .846-.153 1.14-.46.292-.307.44-.71.44-1.21 0-.52-.144-.933-.43-1.24-.288-.307-.674-.46-1.16-.46-.48 0-.874.147-1.18.44-.308.293-.46.673-.46 1.14 0 .567.15 1.007.45 1.32.306.313.706.47 1.2.47zm6.629-.04c1.26 0 1.89-.923 1.89-2.77v-.4c0-.833-.17-1.497-.51-1.99-.34-.5-.807-.75-1.4-.75-.607 0-1.08.24-1.42.72-.34.48-.51 1.16-.51 2.04v.4c0 .887.173 1.567.52 2.04.346.473.823.71 1.43.71zm0 .72c-.853 0-1.54-.317-2.06-.95s-.78-1.47-.78-2.51v-.4c0-1.06.25-1.903.75-2.53.506-.627 1.196-.94 2.07-.94.867 0 1.547.317 2.04.95.5.633.75 1.467.75 2.5v.4c0 1.053-.247 1.897-.74 2.53-.487.633-1.163.95-2.03.95zM4.03 164.5H.45v-.28l3.27-5.37h1.16v4.94h.99v.71h-.99v1.5h-.85v-1.5zm0-.71v-4.28l-2.48 4.28h2.48zm5.46 2.3a3.08 3.08 0 01-1.16-.22 2.242 2.242 0 01-.93-.73 1.878 1.878 0 01-.38-1.17c0-.46.122-.847.37-1.16.246-.313.572-.543.98-.69-.72-.287-1.08-.787-1.08-1.5 0-.547.22-.993.66-1.34a2.44 2.44 0 011.54-.52 2.4 2.4 0 011.53.52c.44.34.66.78.66 1.32 0 .687-.368 1.19-1.1 1.51.912.34 1.37.953 1.37 1.84 0 .673-.248 1.2-.74 1.58-.488.373-1.06.56-1.72.56zm0-.71c.46 0 .836-.127 1.13-.38.292-.26.44-.62.44-1.08 0-.447-.15-.793-.45-1.04-.294-.253-.66-.38-1.1-.38-.454 0-.834.127-1.14.38-.308.247-.46.6-.46 1.06 0 .447.152.8.46 1.06.306.253.68.38 1.12.38zm.03-3.57c.386 0 .696-.107.93-.32.232-.213.35-.507.35-.88 0-.34-.124-.62-.37-.84-.248-.22-.56-.33-.94-.33-.388 0-.704.107-.95.32-.248.213-.37.503-.37.87 0 .36.13.647.39.86.26.213.58.32.96.32zm6.563 3.56c1.26 0 1.89-.923 1.89-2.77v-.4c0-.833-.17-1.497-.51-1.99-.34-.5-.807-.75-1.4-.75-.607 0-1.08.24-1.42.72-.34.48-.51 1.16-.51 2.04v.4c0 .887.173 1.567.52 2.04.346.473.823.71 1.43.71zm0 .72c-.853 0-1.54-.317-2.06-.95s-.78-1.47-.78-2.51v-.4c0-1.06.25-1.903.75-2.53.506-.627 1.197-.94 2.07-.94.867 0 1.547.317 2.04.95.5.633.75 1.467.75 2.5v.4c0 1.053-.247 1.897-.74 2.53-.487.633-1.163.95-2.03.95zM4.03 301.5H.45v-.28l3.27-5.37h1.16v4.94h.99v.71h-.99v1.5h-.85v-1.5zm0-.71v-4.28l-2.48 4.28h2.48zm5.81 1.58c1.26 0 1.89-.923 1.89-2.77v-.4c0-.833-.17-1.497-.51-1.99-.34-.5-.806-.75-1.4-.75-.606 0-1.08.24-1.42.72-.34.48-.51 1.16-.51 2.04v.4c0 .887.174 1.567.52 2.04.347.473.824.71 1.43.71zm0 .72c-.853 0-1.54-.317-2.06-.95S7 300.67 7 299.63v-.4c0-1.06.25-1.903.75-2.53.507-.627 1.197-.94 2.07-.94.867 0 1.547.317 2.04.95.5.633.75 1.467.75 2.5v.4c0 1.053-.246 1.897-.74 2.53-.486.633-1.163.95-2.03.95zm7.034-.72c1.26 0 1.89-.923 1.89-2.77v-.4c0-.833-.17-1.497-.51-1.99-.34-.5-.807-.75-1.4-.75-.607 0-1.08.24-1.42.72-.34.48-.51 1.16-.51 2.04v.4c0 .887.173 1.567.52 2.04.346.473.823.71 1.43.71zm0 .72c-.854 0-1.54-.317-2.06-.95s-.78-1.47-.78-2.51v-.4c0-1.06.25-1.903.75-2.53.506-.627 1.196-.94 2.07-.94.867 0 1.547.317 2.04.95.5.633.75 1.467.75 2.5v.4c0 1.053-.247 1.897-.74 2.53-.487.633-1.163.95-2.03.95z" fill="#fff"/><path opacity=".6" d="M244.989 321.081c-.462 0-.84-.114-1.134-.342-.288-.234-.432-.582-.432-1.044 0-.258.063-.483.189-.675.132-.198.312-.351.54-.459.228-.114.477-.195.747-.243a4.5 4.5 0 01.882-.081h.675v-.342c0-.378-.078-.648-.234-.81-.156-.168-.414-.252-.774-.252-.648 0-1.008.282-1.08.846h-.747c.048-.504.243-.873.585-1.107.348-.24.774-.36 1.278-.36 1.146 0 1.719.561 1.719 1.683V321h-.747v-.594c-.36.45-.849.675-1.467.675zm.072-.594c.408 0 .741-.099.999-.297.264-.204.396-.483.396-.837v-.585h-.648c-1.092 0-1.638.309-1.638.927 0 .528.297.792.891.792zm3.645-4.194h1.647c1.104 0 1.656.399 1.656 1.197v.027c0 .228-.063.438-.189.63a.942.942 0 01-.567.378c.654.144.981.498.981 1.062v.027c0 .456-.15.801-.45 1.035-.294.234-.705.351-1.233.351h-1.845v-4.707zm.747.594v1.395h.9c.312 0 .534-.057.666-.171.138-.114.207-.3.207-.558v-.027c0-.24-.072-.405-.216-.495-.138-.096-.36-.144-.666-.144h-.891zm0 1.989v1.53h1.026c.33 0 .573-.057.729-.171.162-.12.243-.312.243-.576v-.027c0-.264-.081-.456-.243-.576-.156-.12-.399-.18-.729-.18h-1.026zm4.81-1.953V321h-.747v-4.707h2.988v.63h-2.241zm4.86 3.591l-1.845-4.221h.801l1.44 3.375 1.305-3.375h.765l-2.601 6.345h-.756l.891-2.124zm5.36.567c-.672 0-1.224-.216-1.656-.648-.432-.438-.648-1.017-.648-1.737v-.072c0-.708.219-1.287.657-1.737a2.2 2.2 0 011.629-.675c.54 0 .999.135 1.377.405.378.264.6.678.666 1.242h-.738c-.108-.684-.543-1.026-1.305-1.026-.438 0-.801.165-1.089.495-.282.324-.423.756-.423 1.296v.072c0 .564.138.999.414 1.305.282.306.657.459 1.125.459.354 0 .657-.099.909-.297.258-.204.405-.489.441-.855h.693a1.867 1.867 0 01-.648 1.278c-.378.33-.846.495-1.404.495zm6.519-4.158h-1.521V321h-.747v-4.077h-1.521v-.63h3.789v.63z" fill="#fff"/><path d="M243.25 335.8l2.84-2.99c.687-.727 1.03-1.417 1.03-2.07 0-.4-.113-.713-.34-.94-.22-.227-.533-.34-.94-.34-.867 0-1.37.53-1.51 1.59h-.81c.053-.707.283-1.263.69-1.67.413-.413.957-.62 1.63-.62.66 0 1.183.183 1.57.55.393.36.59.847.59 1.46 0 .787-.48 1.653-1.44 2.6l-1.97 1.92h3.45v.71h-4.79v-.2zm8.965-.43c1.26 0 1.89-.923 1.89-2.77v-.4c0-.833-.17-1.497-.51-1.99-.34-.5-.806-.75-1.4-.75-.606 0-1.08.24-1.42.72-.34.48-.51 1.16-.51 2.04v.4c0 .887.174 1.567.52 2.04.347.473.824.71 1.43.71zm0 .72c-.853 0-1.54-.317-2.06-.95s-.78-1.47-.78-2.51v-.4c0-1.06.25-1.903.75-2.53.507-.627 1.197-.94 2.07-.94.867 0 1.547.317 2.04.95.5.633.75 1.467.75 2.5v.4c0 1.053-.246 1.897-.74 2.53-.486.633-1.163.95-2.03.95zm5.524-6.38l-1.6 1.15v-.81l1.66-1.2h.81V336h-.87v-6.29zm5.083 6.37c-.653 0-1.176-.16-1.57-.48-.393-.32-.636-.773-.73-1.36h.84c.087.373.244.657.47.85.234.187.57.28 1.01.28.58 0 1.027-.237 1.34-.71.314-.473.477-1.183.49-2.13-.18.3-.43.533-.75.7a2.34 2.34 0 01-1.1.25c-.693 0-1.26-.22-1.7-.66-.433-.44-.65-1-.65-1.68 0-.72.224-1.297.67-1.73.447-.44 1.047-.66 1.8-.66.847 0 1.487.273 1.92.82.434.547.65 1.34.65 2.38v.45c0 1.193-.233 2.107-.7 2.74-.46.627-1.123.94-1.99.94zm.13-3.28c.48 0 .874-.143 1.18-.43.307-.287.46-.66.46-1.12 0-.573-.153-1.02-.46-1.34-.3-.32-.696-.48-1.19-.48-.466 0-.846.153-1.14.46-.293.307-.44.71-.44 1.21 0 .52.144.933.43 1.24.287.307.674.46 1.16.46z" fill="#fff"/><path opacity=".6" d="M361.13 316.887c-.672 0-1.008.285-1.008.855v.027c0 .27.078.474.234.612.156.138.414.207.774.207h.882v-1.701h-.882zM359.888 321h-.855l1.431-1.971c-.726-.15-1.089-.57-1.089-1.26v-.027c0-.492.168-.855.504-1.089.336-.24.768-.36 1.296-.36h1.584V321h-.747v-1.845h-.81L359.888 321zm7.537-2.097h-2.313V321h-.747v-4.707h.747v1.98h2.313v-1.98h.747V321h-.747v-2.097zm2.347-2.61h1.647c1.104 0 1.656.399 1.656 1.197v.027c0 .228-.063.438-.189.63a.942.942 0 01-.567.378c.654.144.981.498.981 1.062v.027c0 .456-.15.801-.45 1.035-.294.234-.705.351-1.233.351h-1.845v-4.707zm.747.594v1.395h.9c.312 0 .534-.057.666-.171.138-.114.207-.3.207-.558v-.027c0-.24-.072-.405-.216-.495-.138-.096-.36-.144-.666-.144h-.891zm0 1.989v1.53h1.026c.33 0 .573-.057.729-.171.162-.12.243-.312.243-.576v-.027c0-.264-.081-.456-.243-.576-.156-.12-.399-.18-.729-.18h-1.026zm5.34 2.205c-.462 0-.84-.114-1.134-.342-.288-.234-.432-.582-.432-1.044 0-.258.063-.483.189-.675.132-.198.312-.351.54-.459.228-.114.477-.195.747-.243a4.5 4.5 0 01.882-.081h.675v-.342c0-.378-.078-.648-.234-.81-.156-.168-.414-.252-.774-.252-.648 0-1.008.282-1.08.846h-.747c.048-.504.243-.873.585-1.107.348-.24.774-.36 1.278-.36 1.146 0 1.719.561 1.719 1.683V321h-.747v-.594c-.36.45-.849.675-1.467.675zm.072-.594c.408 0 .741-.099.999-.297.264-.204.396-.483.396-.837v-.585h-.648c-1.092 0-1.638.309-1.638.927 0 .528.297.792.891.792zm3.699-4.194h.747v.792c.138-.24.354-.444.648-.612.294-.174.609-.261.945-.261.63 0 1.143.213 1.539.639.402.426.603 1.002.603 1.728v.072c0 .726-.198 1.314-.594 1.764-.39.444-.906.666-1.548.666-.72 0-1.251-.285-1.593-.855v2.412h-.747v-6.345zm2.268 4.167c.468 0 .825-.15 1.071-.45.246-.306.369-.747.369-1.323v-.072c0-.57-.138-1.008-.414-1.314a1.308 1.308 0 00-1.035-.468c-.456 0-.828.153-1.116.459-.282.3-.423.741-.423 1.323v.072c0 .582.138 1.023.414 1.323.282.3.66.45 1.134.45zm3.411-4.167h.747v1.647h.837c.528 0 .96.129 1.296.387.336.258.504.642.504 1.152v.027c0 .516-.168.894-.504 1.134-.33.24-.762.36-1.296.36h-1.584v-4.707zm1.629 4.122c.36 0 .618-.075.774-.225.156-.156.234-.384.234-.684v-.027c0-.324-.081-.561-.243-.711-.156-.156-.411-.234-.765-.234h-.882v1.881h.882z" fill="#fff"/><path d="M358.852 335.8l2.84-2.99c.687-.727 1.03-1.417 1.03-2.07 0-.4-.113-.713-.34-.94-.22-.227-.533-.34-.94-.34-.866 0-1.37.53-1.51 1.59h-.81c.054-.707.284-1.263.69-1.67.414-.413.957-.62 1.63-.62.66 0 1.184.183 1.57.55.394.36.59.847.59 1.46 0 .787-.48 1.653-1.44 2.6l-1.97 1.92h3.45v.71h-4.79v-.2zm8.966-.43c1.26 0 1.89-.923 1.89-2.77v-.4c0-.833-.17-1.497-.51-1.99-.34-.5-.807-.75-1.4-.75-.607 0-1.08.24-1.42.72-.34.48-.51 1.16-.51 2.04v.4c0 .887.173 1.567.52 2.04.346.473.823.71 1.43.71zm0 .72c-.854 0-1.54-.317-2.06-.95s-.78-1.47-.78-2.51v-.4c0-1.06.25-1.903.75-2.53.506-.627 1.196-.94 2.07-.94.866 0 1.546.317 2.04.95.5.633.75 1.467.75 2.5v.4c0 1.053-.247 1.897-.74 2.53-.487.633-1.164.95-2.03.95zm3.783-.29l2.84-2.99c.687-.727 1.03-1.417 1.03-2.07 0-.4-.113-.713-.34-.94-.22-.227-.533-.34-.94-.34-.866 0-1.37.53-1.51 1.59h-.81c.054-.707.284-1.263.69-1.67.414-.413.957-.62 1.63-.62.66 0 1.184.183 1.57.55.394.36.59.847.59 1.46 0 .787-.48 1.653-1.44 2.6l-1.97 1.92h3.45v.71h-4.79v-.2zm8.965-.43c1.26 0 1.89-.923 1.89-2.77v-.4c0-.833-.17-1.497-.51-1.99-.34-.5-.806-.75-1.4-.75-.606 0-1.08.24-1.42.72-.34.48-.51 1.16-.51 2.04v.4c0 .887.174 1.567.52 2.04.347.473.824.71 1.43.71zm0 .72c-.853 0-1.54-.317-2.06-.95s-.78-1.47-.78-2.51v-.4c0-1.06.25-1.903.75-2.53.507-.627 1.197-.94 2.07-.94.867 0 1.547.317 2.04.95.5.633.75 1.467.75 2.5v.4c0 1.053-.246 1.897-.74 2.53-.486.633-1.163.95-2.03.95z" fill="#fff"/><path opacity=".6" d="M187.756 321v-4.707h.747v3.627l2.403-3.627h.747V321h-.747v-3.627L188.503 321h-.747zm9.07.081c-.6 0-1.098-.186-1.494-.558-.39-.372-.621-.861-.693-1.467a1.682 1.682 0 01-.018-.153h-.711V321h-.747v-4.707h.747v1.98h.72c.072-.624.303-1.122.693-1.494.396-.378.9-.567 1.512-.567.666 0 1.203.222 1.611.666.408.444.612 1.02.612 1.728v.072c0 .714-.207 1.293-.621 1.737-.408.444-.945.666-1.611.666zm.009-.621c.462 0 .819-.159 1.071-.477.252-.318.378-.75.378-1.296v-.063c0-.552-.126-.987-.378-1.305-.252-.324-.609-.486-1.071-.486-.468 0-.828.159-1.08.477-.246.318-.369.753-.369 1.305v.072c0 .552.123.987.369 1.305.246.312.606.468 1.08.468zm4.332-1.278c-.054.648-.168 1.122-.342 1.422-.174.294-.447.441-.819.441-.078 0-.159-.006-.243-.018l-.072-.027v-.711l.063.018c.06.012.123.018.189.018a.336.336 0 00.234-.081.587.587 0 00.153-.279c.042-.126.072-.243.09-.351.018-.114.039-.273.063-.477.024-.216.06-.828.108-1.836l.027-1.008h3.105V321h-.747v-4.077h-1.692c-.054 1.296-.093 2.049-.117 2.259zm4.156-2.889h.747v1.647h.837c.528 0 .96.129 1.296.387.336.258.504.642.504 1.152v.027c0 .516-.168.894-.504 1.134-.33.24-.762.36-1.296.36h-1.584v-4.707zm1.629 4.122c.36 0 .618-.075.774-.225.156-.156.234-.384.234-.684v-.027c0-.324-.081-.561-.243-.711-.156-.156-.411-.234-.765-.234h-.882v1.881h.882z" fill="#fff"/><path d="M187.25 335.8l2.84-2.99c.687-.727 1.03-1.417 1.03-2.07 0-.4-.113-.713-.34-.94-.22-.227-.533-.34-.94-.34-.867 0-1.37.53-1.51 1.59h-.81c.053-.707.283-1.263.69-1.67.413-.413.957-.62 1.63-.62.66 0 1.183.183 1.57.55.393.36.59.847.59 1.46 0 .787-.48 1.653-1.44 2.6l-1.97 1.92h3.45v.71h-4.79v-.2zm8.965-.43c1.26 0 1.89-.923 1.89-2.77v-.4c0-.833-.17-1.497-.51-1.99-.34-.5-.806-.75-1.4-.75-.606 0-1.08.24-1.42.72-.34.48-.51 1.16-.51 2.04v.4c0 .887.174 1.567.52 2.04.347.473.824.71 1.43.71zm0 .72c-.853 0-1.54-.317-2.06-.95s-.78-1.47-.78-2.51v-.4c0-1.06.25-1.903.75-2.53.507-.627 1.197-.94 2.07-.94.867 0 1.547.317 2.04.95.5.633.75 1.467.75 2.5v.4c0 1.053-.246 1.897-.74 2.53-.486.633-1.163.95-2.03.95zm5.524-6.38l-1.6 1.15v-.81l1.66-1.2h.81V336h-.87v-6.29zm5.083 6.37c-.653 0-1.176-.16-1.57-.48-.393-.32-.636-.773-.73-1.36h.84c.087.373.244.657.47.85.234.187.57.28 1.01.28.58 0 1.027-.237 1.34-.71.314-.473.477-1.183.49-2.13-.18.3-.43.533-.75.7a2.34 2.34 0 01-1.1.25c-.693 0-1.26-.22-1.7-.66-.433-.44-.65-1-.65-1.68 0-.72.224-1.297.67-1.73.447-.44 1.047-.66 1.8-.66.847 0 1.487.273 1.92.82.434.547.65 1.34.65 2.38v.45c0 1.193-.233 2.107-.7 2.74-.46.627-1.123.94-1.99.94zm.13-3.28c.48 0 .874-.143 1.18-.43.307-.287.46-.66.46-1.12 0-.573-.153-1.02-.46-1.34-.3-.32-.696-.48-1.19-.48-.466 0-.846.153-1.14.46-.293.307-.44.71-.44 1.21 0 .52.144.933.43 1.24.287.307.674.46 1.16.46z" fill="#fff"/><path opacity=".6" d="M131.756 321v-4.707h.747v3.627l2.403-3.627h.747V321h-.747v-3.627L132.503 321h-.747zm9.07.081c-.6 0-1.098-.186-1.494-.558-.39-.372-.621-.861-.693-1.467a1.682 1.682 0 01-.018-.153h-.711V321h-.747v-4.707h.747v1.98h.72c.072-.624.303-1.122.693-1.494.396-.378.9-.567 1.512-.567.666 0 1.203.222 1.611.666.408.444.612 1.02.612 1.728v.072c0 .714-.207 1.293-.621 1.737-.408.444-.945.666-1.611.666zm.009-.621c.462 0 .819-.159 1.071-.477.252-.318.378-.75.378-1.296v-.063c0-.552-.126-.987-.378-1.305-.252-.324-.609-.486-1.071-.486-.468 0-.828.159-1.08.477-.246.318-.369.753-.369 1.305v.072c0 .552.123.987.369 1.305.246.312.606.468 1.08.468zm6.536-1.557h-2.313V321h-.747v-4.707h.747v1.98h2.313v-1.98h.747V321h-.747v-2.097zm2.347-2.61h.747v1.647h.837c.528 0 .96.129 1.296.387.336.258.504.642.504 1.152v.027c0 .516-.168.894-.504 1.134-.33.24-.762.36-1.296.36h-1.584v-4.707zm1.629 4.122c.36 0 .618-.075.774-.225.156-.156.234-.384.234-.684v-.027c0-.324-.081-.561-.243-.711-.156-.156-.411-.234-.765-.234h-.882v1.881h.882z" fill="#fff"/><path d="M131.25 335.8l2.84-2.99c.687-.727 1.03-1.417 1.03-2.07 0-.4-.113-.713-.34-.94-.22-.227-.533-.34-.94-.34-.867 0-1.37.53-1.51 1.59h-.81c.053-.707.283-1.263.69-1.67.413-.413.957-.62 1.63-.62.66 0 1.183.183 1.57.55.393.36.59.847.59 1.46 0 .787-.48 1.653-1.44 2.6l-1.97 1.92h3.45v.71h-4.79v-.2zm8.965-.43c1.26 0 1.89-.923 1.89-2.77v-.4c0-.833-.17-1.497-.51-1.99-.34-.5-.806-.75-1.4-.75-.606 0-1.08.24-1.42.72-.34.48-.51 1.16-.51 2.04v.4c0 .887.174 1.567.52 2.04.347.473.824.71 1.43.71zm0 .72c-.853 0-1.54-.317-2.06-.95s-.78-1.47-.78-2.51v-.4c0-1.06.25-1.903.75-2.53.507-.627 1.197-.94 2.07-.94.867 0 1.547.317 2.04.95.5.633.75 1.467.75 2.5v.4c0 1.053-.246 1.897-.74 2.53-.486.633-1.163.95-2.03.95zm5.524-6.38l-1.6 1.15v-.81l1.66-1.2h.81V336h-.87v-6.29zm5.083 6.37c-.653 0-1.176-.16-1.57-.48-.393-.32-.636-.773-.73-1.36h.84c.087.373.244.657.47.85.234.187.57.28 1.01.28.58 0 1.027-.237 1.34-.71.314-.473.477-1.183.49-2.13-.18.3-.43.533-.75.7a2.34 2.34 0 01-1.1.25c-.693 0-1.26-.22-1.7-.66-.433-.44-.65-1-.65-1.68 0-.72.224-1.297.67-1.73.447-.44 1.047-.66 1.8-.66.847 0 1.487.273 1.92.82.434.547.65 1.34.65 2.38v.45c0 1.193-.233 2.107-.7 2.74-.46.627-1.123.94-1.99.94zm.13-3.28c.48 0 .874-.143 1.18-.43.307-.287.46-.66.46-1.12 0-.573-.153-1.02-.46-1.34-.3-.32-.696-.48-1.19-.48-.466 0-.846.153-1.14.46-.293.307-.44.71-.44 1.21 0 .52.144.933.43 1.24.287.307.674.46 1.16.46z" fill="#fff"/><path opacity=".6" d="M77.386 317.031V321h-.621v-4.707h1.053l1.341 3.537 1.377-3.537h1.026V321h-.738v-3.969L79.267 321h-.342l-1.539-3.969zm7.021 4.05c-.462 0-.84-.114-1.134-.342-.288-.234-.432-.582-.432-1.044 0-.258.063-.483.19-.675.131-.198.311-.351.54-.459a2.71 2.71 0 01.746-.243 4.5 4.5 0 01.882-.081h.675v-.342c0-.378-.078-.648-.234-.81-.156-.168-.414-.252-.774-.252-.648 0-1.008.282-1.08.846h-.747c.048-.504.243-.873.585-1.107.348-.24.774-.36 1.278-.36 1.146 0 1.72.561 1.72 1.683V321h-.748v-.594c-.36.45-.849.675-1.467.675zm.072-.594c.408 0 .741-.099 1-.297.263-.204.395-.483.395-.837v-.585h-.648c-1.092 0-1.638.309-1.638.927 0 .528.297.792.891.792zm5.58-5.058c-.323 0-.6-.111-.828-.333a1.224 1.224 0 01-.36-.855h.648c.036.444.216.666.54.666.355 0 .553-.222.594-.666h.63a1.276 1.276 0 01-.386.855 1.154 1.154 0 01-.838.333zM88.126 321v-4.707h.746v3.627l2.404-3.627h.746V321h-.746v-3.627L88.87 321h-.746z" fill="#fff"/><path d="M76.25 335.8l2.84-2.99c.687-.727 1.03-1.417 1.03-2.07 0-.4-.113-.713-.34-.94-.22-.227-.533-.34-.94-.34-.867 0-1.37.53-1.51 1.59h-.81c.053-.707.283-1.263.69-1.67.413-.413.957-.62 1.63-.62.66 0 1.183.183 1.57.55.393.36.59.847.59 1.46 0 .787-.48 1.653-1.44 2.6l-1.97 1.92h3.45v.71h-4.79v-.2zm8.965-.43c1.26 0 1.89-.923 1.89-2.77v-.4c0-.833-.17-1.497-.51-1.99-.34-.5-.806-.75-1.4-.75-.606 0-1.08.24-1.42.72-.34.48-.51 1.16-.51 2.04v.4c0 .887.174 1.567.52 2.04.347.473.824.71 1.43.71zm0 .72c-.853 0-1.54-.317-2.06-.95s-.78-1.47-.78-2.51v-.4c0-1.06.25-1.903.75-2.53.507-.627 1.197-.94 2.07-.94.867 0 1.547.317 2.04.95.5.633.75 1.467.75 2.5v.4c0 1.053-.246 1.897-.74 2.53-.486.633-1.163.95-2.03.95zm5.524-6.38l-1.6 1.15v-.81l1.66-1.2h.81V336h-.87v-6.29zm5.084 6.37c-.654 0-1.177-.16-1.57-.48-.394-.32-.637-.773-.73-1.36h.84c.086.373.243.657.47.85.233.187.57.28 1.01.28.58 0 1.026-.237 1.34-.71.313-.473.476-1.183.49-2.13-.18.3-.43.533-.75.7-.32.167-.687.25-1.1.25-.694 0-1.26-.22-1.7-.66-.434-.44-.65-1-.65-1.68 0-.72.223-1.297.67-1.73.446-.44 1.046-.66 1.8-.66.846 0 1.486.273 1.92.82.433.547.65 1.34.65 2.38v.45c0 1.193-.234 2.107-.7 2.74-.46.627-1.124.94-1.99.94zm.13-3.28c.48 0 .873-.143 1.18-.43.306-.287.46-.66.46-1.12 0-.573-.154-1.02-.46-1.34-.3-.32-.697-.48-1.19-.48-.467 0-.847.153-1.14.46-.294.307-.44.71-.44 1.21 0 .52.143.933.43 1.24.286.307.673.46 1.16.46z" fill="#fff"/><path opacity=".6" d="M303.816 318.903h-2.313V321h-.747v-4.707h.747v1.98h2.313v-1.98h.747V321h-.747v-2.097zm4.363 1.557c.468 0 .84-.162 1.116-.486.282-.324.423-.753.423-1.287v-.063c0-.546-.141-.981-.423-1.305-.276-.324-.648-.486-1.116-.486-.474 0-.849.162-1.125.486-.276.324-.414.756-.414 1.296v.072c0 .546.135.978.405 1.296.276.318.654.477 1.134.477zm-.009.621c-.666 0-1.218-.225-1.656-.675-.432-.456-.648-1.029-.648-1.719v-.072c0-.702.216-1.278.648-1.728.438-.45.993-.675 1.665-.675s1.224.225 1.656.675c.438.444.657 1.017.657 1.719v.072c0 .708-.219 1.287-.657 1.737-.438.444-.993.666-1.665.666zm5.081-4.194c-.672 0-1.008.285-1.008.855v.027c0 .27.078.474.234.612.156.138.414.207.774.207h.882v-1.701h-.882zM312.009 321h-.855l1.431-1.971c-.726-.15-1.089-.57-1.089-1.26v-.027c0-.492.168-.855.504-1.089.336-.24.768-.36 1.296-.36h1.584V321h-.747v-1.845h-.81L312.009 321zm6.502.081c-.708 0-1.269-.228-1.683-.684-.414-.456-.621-1.149-.621-2.079v-.288c0-.444.018-.837.054-1.179a5 5 0 01.225-1.044c.114-.354.264-.648.45-.882a2.16 2.16 0 01.756-.585 2.994 2.994 0 011.143-.27l.18-.009c.66-.036 1.107-.102 1.341-.198l.099.63c-.306.132-.783.213-1.431.243l-.135.009c-.726.036-1.245.273-1.557.711-.306.432-.486 1.104-.54 2.016h.036a1.85 1.85 0 01.72-.783 2.114 2.114 0 011.125-.297c.654 0 1.176.213 1.566.639.396.42.594.966.594 1.638v.036c0 .726-.219 1.305-.657 1.737-.432.426-.987.639-1.665.639zm-1.125-1.08c.276.306.654.459 1.134.459.48 0 .855-.15 1.125-.45.276-.306.414-.738.414-1.296v-.018c0-.522-.126-.933-.378-1.233-.246-.3-.606-.45-1.08-.45-.498 0-.894.156-1.188.468-.288.312-.432.738-.432 1.278v.018c0 .51.135.918.405 1.224zm4.755-3.708h.747v.792c.138-.24.354-.444.648-.612.294-.174.609-.261.945-.261.63 0 1.143.213 1.539.639.402.426.603 1.002.603 1.728v.072c0 .726-.198 1.314-.594 1.764-.39.444-.906.666-1.548.666-.72 0-1.251-.285-1.593-.855v2.412h-.747v-6.345zm2.268 4.167c.468 0 .825-.15 1.071-.45.246-.306.369-.747.369-1.323v-.072c0-.57-.138-1.008-.414-1.314a1.308 1.308 0 00-1.035-.468c-.456 0-.828.153-1.116.459-.282.3-.423.741-.423 1.323v.072c0 .582.138 1.023.414 1.323.282.3.66.45 1.134.45zm3.41-4.167h.747v1.647h.837c.528 0 .96.129 1.296.387.336.258.504.642.504 1.152v.027c0 .516-.168.894-.504 1.134-.33.24-.762.36-1.296.36h-1.584v-4.707zm1.629 4.122c.36 0 .618-.075.774-.225.156-.156.234-.384.234-.684v-.027c0-.324-.081-.561-.243-.711-.156-.156-.411-.234-.765-.234h-.882v1.881h.882z" fill="#fff"/><path d="M300.25 335.8l2.84-2.99c.687-.727 1.03-1.417 1.03-2.07 0-.4-.113-.713-.34-.94-.22-.227-.533-.34-.94-.34-.867 0-1.37.53-1.51 1.59h-.81c.053-.707.283-1.263.69-1.67.413-.413.957-.62 1.63-.62.66 0 1.183.183 1.57.55.393.36.59.847.59 1.46 0 .787-.48 1.653-1.44 2.6l-1.97 1.92h3.45v.71h-4.79v-.2zm8.965-.43c1.26 0 1.89-.923 1.89-2.77v-.4c0-.833-.17-1.497-.51-1.99-.34-.5-.806-.75-1.4-.75-.606 0-1.08.24-1.42.72-.34.48-.51 1.16-.51 2.04v.4c0 .887.174 1.567.52 2.04.347.473.824.71 1.43.71zm0 .72c-.853 0-1.54-.317-2.06-.95s-.78-1.47-.78-2.51v-.4c0-1.06.25-1.903.75-2.53.507-.627 1.197-.94 2.07-.94.867 0 1.547.317 2.04.95.5.633.75 1.467.75 2.5v.4c0 1.053-.246 1.897-.74 2.53-.486.633-1.163.95-2.03.95zm5.524-6.38l-1.6 1.15v-.81l1.66-1.2h.81V336h-.87v-6.29zm5.083 6.37c-.653 0-1.176-.16-1.57-.48-.393-.32-.636-.773-.73-1.36h.84c.087.373.244.657.47.85.234.187.57.28 1.01.28.58 0 1.027-.237 1.34-.71.314-.473.477-1.183.49-2.13-.18.3-.43.533-.75.7a2.34 2.34 0 01-1.1.25c-.693 0-1.26-.22-1.7-.66-.433-.44-.65-1-.65-1.68 0-.72.224-1.297.67-1.73.447-.44 1.047-.66 1.8-.66.847 0 1.487.273 1.92.82.434.547.65 1.34.65 2.38v.45c0 1.193-.233 2.107-.7 2.74-.46.627-1.123.94-1.99.94zm.13-3.28c.48 0 .874-.143 1.18-.43.307-.287.46-.66.46-1.12 0-.573-.153-1.02-.46-1.34-.3-.32-.696-.48-1.19-.48-.466 0-.846.153-1.14.46-.293.307-.44.71-.44 1.21 0 .52.144.933.43 1.24.287.307.674.46 1.16.46zM4.03 266.5H.45v-.28l3.27-5.37h1.16v4.94h.99v.71h-.99v1.5h-.85v-1.5zm0-.71v-4.28l-2.48 4.28h2.48zm2.61 2.01l2.84-2.99c.686-.727 1.03-1.417 1.03-2.07 0-.4-.114-.713-.34-.94-.22-.227-.534-.34-.94-.34-.868 0-1.37.53-1.51 1.59h-.81c.052-.707.282-1.263.69-1.67.412-.413.956-.62 1.63-.62.66 0 1.182.183 1.57.55.392.36.59.847.59 1.46 0 .787-.48 1.653-1.44 2.6l-1.97 1.92h3.45v.71H6.64v-.2zm8.964-.43c1.26 0 1.89-.923 1.89-2.77v-.4c0-.833-.17-1.497-.51-1.99-.34-.5-.806-.75-1.4-.75-.606 0-1.08.24-1.42.72-.34.48-.51 1.16-.51 2.04v.4c0 .887.174 1.567.52 2.04.347.473.824.71 1.43.71zm0 .72c-.853 0-1.54-.317-2.06-.95s-.78-1.47-.78-2.51v-.4c0-1.06.25-1.903.75-2.53.507-.627 1.197-.94 2.07-.94.867 0 1.547.317 2.04.95.5.633.75 1.467.75 2.5v.4c0 1.053-.246 1.897-.74 2.53-.486.633-1.163.95-2.03.95zM4.03 233.5H.45v-.28l3.27-5.37h1.16v4.94h.99v.71h-.99v1.5h-.85v-1.5zm0-.71v-4.28l-2.48 4.28h2.48zm6.39.71H6.84v-.28l3.27-5.37h1.16v4.94h.99v.71h-.99v1.5h-.85v-1.5zm0-.71v-4.28l-2.48 4.28h2.48zm5.81 1.58c1.26 0 1.89-.923 1.89-2.77v-.4c0-.833-.17-1.497-.51-1.99-.34-.5-.807-.75-1.4-.75-.607 0-1.08.24-1.42.72-.34.48-.51 1.16-.51 2.04v.4c0 .887.173 1.567.52 2.04.346.473.823.71 1.43.71zm0 .72c-.854 0-1.54-.317-2.06-.95s-.78-1.47-.78-2.51v-.4c0-1.06.25-1.903.75-2.53.506-.627 1.196-.94 2.07-.94.866 0 1.546.317 2.04.95.5.633.75 1.467.75 2.5v.4c0 1.053-.247 1.897-.74 2.53-.487.633-1.164.95-2.03.95z" fill="#fff"/><circle cx="179" cy="164" r="3" fill="#F1D5C0"/><circle cx="123" cy="232" r="3" fill="#F1D5C0"/><circle cx="68" cy="282" r="3" fill="#F1D5C0"/><circle cx="235" cy="105" r="3" fill="#F1D5C0"/><circle cx="407" cy="89" r="3" fill="#F1D5C0"/><circle cx="350" cy="89" r="3" fill="#F1D5C0"/><circle cx="292" cy="89" r="3" fill="#F1D5C0"/><path d="M2.87 132.09c-.74 0-1.307-.18-1.7-.54-.393-.367-.62-.86-.68-1.48h.83c.08.433.23.763.45.99.22.22.583.33 1.09.33.487 0 .87-.153 1.15-.46.28-.307.42-.73.42-1.27 0-.507-.137-.91-.41-1.21-.267-.307-.63-.46-1.09-.46-.4 0-.73.057-.99.17-.26.113-.493.287-.7.52H.92v-3.83h4.02v.75h-3.3v2.18c.353-.327.84-.49 1.46-.49.653 0 1.187.217 1.6.65.413.427.62 1 .62 1.72 0 .74-.233 1.33-.7 1.77-.467.44-1.05.66-1.75.66zm6.667-.72c1.26 0 1.89-.923 1.89-2.77v-.4c0-.833-.17-1.497-.51-1.99-.34-.5-.806-.75-1.4-.75-.606 0-1.08.24-1.42.72-.34.48-.51 1.16-.51 2.04v.4c0 .887.174 1.567.52 2.04.347.473.824.71 1.43.71zm0 .72c-.853 0-1.54-.317-2.06-.95s-.78-1.47-.78-2.51v-.4c0-1.06.25-1.903.75-2.53.507-.627 1.197-.94 2.07-.94.867 0 1.547.317 2.04.95.5.633.75 1.467.75 2.5v.4c0 1.053-.246 1.897-.74 2.53-.486.633-1.163.95-2.03.95zm7.034-.72c1.26 0 1.89-.923 1.89-2.77v-.4c0-.833-.17-1.497-.51-1.99-.34-.5-.807-.75-1.4-.75-.607 0-1.08.24-1.42.72-.34.48-.51 1.16-.51 2.04v.4c0 .887.173 1.567.52 2.04.347.473.823.71 1.43.71zm0 .72c-.853 0-1.54-.317-2.06-.95s-.78-1.47-.78-2.51v-.4c0-1.06.25-1.903.75-2.53.507-.627 1.197-.94 2.07-.94.867 0 1.547.317 2.04.95.5.633.75 1.467.75 2.5v.4c0 1.053-.247 1.897-.74 2.53-.487.633-1.163.95-2.03.95zm-13.701-33c-.74 0-1.307-.18-1.7-.54-.393-.367-.62-.86-.68-1.48h.83c.08.433.23.763.45.99.22.22.583.33 1.09.33.487 0 .87-.153 1.15-.46.28-.307.42-.73.42-1.27 0-.507-.137-.91-.41-1.21-.267-.307-.63-.46-1.09-.46-.4 0-.73.057-.99.17-.26.113-.493.287-.7.52H.92v-3.83h4.02v.75h-3.3v2.18c.353-.327.84-.49 1.46-.49.653 0 1.187.217 1.6.65.413.427.62 1 .62 1.72 0 .74-.233 1.33-.7 1.77-.467.44-1.05.66-1.75.66zm3.466-.29l2.84-2.99c.687-.727 1.03-1.417 1.03-2.07 0-.4-.113-.713-.34-.94-.22-.227-.533-.34-.94-.34-.866 0-1.37.53-1.51 1.59h-.81c.054-.707.284-1.263.69-1.67.414-.413.957-.62 1.63-.62.66 0 1.184.183 1.57.55.394.36.59.847.59 1.46 0 .787-.48 1.653-1.44 2.6l-1.97 1.92h3.45V99h-4.79v-.2zm8.966-.43c1.26 0 1.89-.923 1.89-2.77v-.4c0-.833-.17-1.497-.51-1.99-.34-.5-.807-.75-1.4-.75-.607 0-1.08.24-1.42.72-.34.48-.51 1.16-.51 2.04v.4c0 .887.173 1.567.52 2.04.346.473.823.71 1.43.71zm0 .72c-.854 0-1.54-.317-2.06-.95s-.78-1.47-.78-2.51v-.4c0-1.06.25-1.903.75-2.53.506-.627 1.196-.94 2.07-.94.866 0 1.546.317 2.04.95.5.633.75 1.467.75 2.5v.4c0 1.053-.247 1.897-.74 2.53-.487.633-1.164.95-2.03.95zm-12.432-32c-.74 0-1.307-.18-1.7-.54-.393-.367-.62-.86-.68-1.48h.83c.08.433.23.763.45.99.22.22.583.33 1.09.33.487 0 .87-.153 1.15-.46.28-.307.42-.73.42-1.27 0-.507-.137-.91-.41-1.21-.267-.307-.63-.46-1.09-.46-.4 0-.73.057-.99.17-.26.113-.493.287-.7.52H.92v-3.83h4.02v.75h-3.3v2.18c.353-.327.84-.49 1.46-.49.653 0 1.187.217 1.6.65.413.427.62 1 .62 1.72 0 .74-.233 1.33-.7 1.77-.467.44-1.05.66-1.75.66zm7.1-1.59H6.39v-.28l3.27-5.37h1.16v4.94h.99v.71h-.99V67h-.85v-1.5zm0-.71v-4.28l-2.48 4.28h2.48zm5.81 1.58c1.26 0 1.89-.923 1.89-2.77v-.4c0-.833-.17-1.497-.51-1.99-.34-.5-.807-.75-1.4-.75-.607 0-1.08.24-1.42.72-.34.48-.51 1.16-.51 2.04v.4c0 .887.173 1.567.52 2.04.347.473.823.71 1.43.71zm0 .72c-.853 0-1.54-.317-2.06-.95s-.78-1.47-.78-2.51v-.4c0-1.06.25-1.903.75-2.53.507-.627 1.197-.94 2.07-.94.867 0 1.547.317 2.04.95.5.633.75 1.467.75 2.5v.4c0 1.053-.247 1.897-.74 2.53-.487.633-1.163.95-2.03.95z" fill="#fff"/><path opacity=".3" fill="#F1D5C0" d="M123 234h1v102h-1zm-55 50h1v52h-1zm112-120h-1v172h1zm55-58h1v230h-1zm57-17h1v247h-1zm58 0h1v247h-1zm57 0h1v247h-1z"/><path d="M33 317l32.187-32.503 54.444-50.893 55.443-66.564L233 104.5 292 89h166" stroke="url(#paint0_radial)"/><defs><radialGradient id="paint0_radial" cx="0" cy="0" r="1" gradientUnits="userSpaceOnUse" gradientTransform="rotate(51.569 -42.55 325.245) scale(161.663 257.747)"><stop stop-color="#F1D5C0"/><stop offset="1" stop-color="#F1D5C0" stop-opacity="0"/></radialGradient></defs></svg>