<svg width="440" height="347" fill="none" xmlns="http://www.w3.org/2000/svg"><path opacity=".6" d="M4.059 5.923H2.538V10h-.747V5.923H.27v-.63h3.789v.63zm5.17-.63h.747V10h-.747V5.293zm-4.05 0h.747V6.94h.837c.534 0 .966.12 1.296.36.336.24.504.618.504 1.134v.027c0 .51-.168.894-.504 1.152-.336.258-.768.387-1.296.387H5.179V5.293zm1.629 4.113c.354 0 .609-.075.765-.225.162-.156.243-.396.243-.72v-.027c0-.3-.078-.525-.234-.675-.156-.156-.414-.234-.774-.234h-.882v1.881h.882zm6.779.675c-.672 0-1.224-.216-1.656-.648-.432-.438-.648-1.017-.648-1.737v-.072c0-.708.219-1.287.657-1.737a2.2 2.2 0 011.629-.675c.54 0 .999.135 1.377.405.378.264.6.678.666 1.242h-.738c-.108-.684-.543-1.026-1.305-1.026-.438 0-.801.165-1.09.495-.281.324-.422.756-.422 1.296v.072c0 .564.138.999.414 1.305.282.306.657.459 1.125.459.354 0 .657-.099.909-.297.258-.204.405-.489.44-.855h.694a1.867 1.867 0 01-.648 1.278c-.378.33-.846.495-1.404.495zm5.741-4.788h.747v.792c.138-.24.354-.444.648-.612.294-.174.61-.261.945-.261.63 0 1.143.213 1.54.639.401.426.602 1.002.602 1.728v.072c0 .726-.198 1.314-.594 1.764-.39.444-.906.666-1.548.666-.72 0-1.25-.285-1.593-.855v2.412h-.747V5.293zm2.268 4.167c.468 0 .825-.15 1.071-.45.246-.306.37-.747.37-1.323v-.072c0-.57-.139-1.008-.415-1.314a1.308 1.308 0 00-1.035-.468c-.456 0-.828.153-1.116.459-.282.3-.423.741-.423 1.323v.072c0 .582.138 1.023.414 1.323.282.3.66.45 1.134.45zm4.69.054l-1.844-4.221h.8l1.44 3.375 1.306-3.375h.765l-2.601 6.345h-.756l.89-2.124zm5.512.567c-.708 0-1.27-.228-1.683-.684-.414-.456-.621-1.149-.621-2.079V7.03c0-.444.018-.837.054-1.179a5 5 0 01.225-1.044c.114-.354.264-.648.45-.882a2.16 2.16 0 01.756-.585 2.994 2.994 0 011.143-.27l.18-.009c.66-.036 1.107-.102 1.34-.198l.1.63c-.306.132-.783.213-1.431.243l-.135.009c-.726.036-1.245.273-1.557.711-.306.432-.486 1.104-.54 2.016h.036a1.85 1.85 0 01.72-.783 2.114 2.114 0 011.125-.297c.654 0 1.176.213 1.566.639.396.42.594.966.594 1.638v.036c0 .726-.22 1.305-.657 1.737-.432.426-.987.639-1.665.639zm-1.125-1.08c.276.306.654.459 1.134.459.48 0 .855-.15 1.125-.45.276-.306.414-.738.414-1.296v-.018c0-.522-.126-.933-.378-1.233-.246-.3-.606-.45-1.08-.45-.498 0-.894.156-1.188.468-.288.312-.432.738-.432 1.278v.018c0 .51.135.918.405 1.224z" fill="#fff"/><path d="M.25 191.8l2.84-2.99c.687-.727 1.03-1.417 1.03-2.07 0-.4-.113-.713-.34-.94-.22-.227-.533-.34-.94-.34-.867 0-1.37.53-1.51 1.59H.52c.053-.707.283-1.263.69-1.67.413-.413.957-.62 1.63-.62.66 0 1.183.183 1.57.55.393.36.59.847.59 1.46 0 .787-.48 1.653-1.44 2.6l-1.97 1.92h3.45v.71H.25v-.2zm8.474.28c-.653 0-1.177-.16-1.57-.48-.393-.32-.637-.773-.73-1.36h.84c.087.373.243.657.47.85.233.187.57.28 1.01.28.58 0 1.027-.237 1.34-.71.313-.473.477-1.183.49-2.13-.18.3-.43.533-.75.7-.32.167-.687.25-1.1.25-.693 0-1.26-.22-1.7-.66-.433-.44-.65-1-.65-1.68 0-.72.223-1.297.67-1.73.447-.44 1.047-.66 1.8-.66.847 0 1.487.273 1.92.82.433.547.65 1.34.65 2.38v.45c0 1.193-.233 2.107-.7 2.74-.46.627-1.123.94-1.99.94zm.13-3.28c.48 0 .873-.143 1.18-.43.307-.287.46-.66.46-1.12 0-.573-.153-1.02-.46-1.34-.3-.32-.697-.48-1.19-.48-.467 0-.847.153-1.14.46-.293.307-.44.71-.44 1.21 0 .52.143.933.43 1.24.287.307.673.46 1.16.46zm6.828 2.57c1.26 0 1.89-.923 1.89-2.77v-.4c0-.833-.17-1.497-.51-1.99-.34-.5-.806-.75-1.4-.75-.606 0-1.08.24-1.42.72-.34.48-.51 1.16-.51 2.04v.4c0 .887.174 1.567.52 2.04.347.473.824.71 1.43.71zm0 .72c-.853 0-1.54-.317-2.06-.95s-.78-1.47-.78-2.51v-.4c0-1.06.25-1.903.75-2.53.507-.627 1.197-.94 2.07-.94.867 0 1.547.317 2.04.95.5.633.75 1.467.75 2.5v.4c0 1.053-.246 1.897-.74 2.53-.486.633-1.163.95-2.03.95zm-12.722-38c-.74 0-1.337-.207-1.79-.62-.447-.413-.683-.94-.71-1.58h.8c.04.453.203.817.49 1.09.287.273.697.41 1.23.41.547 0 .953-.12 1.22-.36.273-.247.41-.587.41-1.02 0-.927-.503-1.39-1.51-1.39h-.54v-.73h.5c.893 0 1.34-.407 1.34-1.22 0-.353-.11-.64-.33-.86-.22-.227-.543-.34-.97-.34-.44 0-.803.123-1.09.37-.28.247-.443.573-.49.98H.76c.027-.573.257-1.06.69-1.46.433-.4.983-.6 1.65-.6.653 0 1.173.187 1.56.56.393.367.59.81.59 1.33 0 .727-.377 1.247-1.13 1.56.92.253 1.38.853 1.38 1.8 0 .647-.237 1.157-.71 1.53-.467.367-1.077.55-1.83.55zm6.802-.72c1.26 0 1.89-.923 1.89-2.77v-.4c0-.833-.17-1.497-.51-1.99-.34-.5-.807-.75-1.4-.75-.607 0-1.08.24-1.42.72-.34.48-.51 1.16-.51 2.04v.4c0 .887.173 1.567.52 2.04.347.473.823.71 1.43.71zm0 .72c-.853 0-1.54-.317-2.06-.95s-.78-1.47-.78-2.51v-.4c0-1.06.25-1.903.75-2.53.507-.627 1.197-.94 2.07-.94.867 0 1.547.317 2.04.95.5.633.75 1.467.75 2.5v.4c0 1.053-.247 1.897-.74 2.53-.487.633-1.163.95-2.03.95zm7.034-.72c1.26 0 1.89-.923 1.89-2.77v-.4c0-.833-.17-1.497-.51-1.99-.34-.5-.807-.75-1.4-.75-.607 0-1.08.24-1.42.72-.34.48-.51 1.16-.51 2.04v.4c0 .887.173 1.567.52 2.04.346.473.823.71 1.43.71zm0 .72c-.854 0-1.54-.317-2.06-.95s-.78-1.47-.78-2.51v-.4c0-1.06.25-1.903.75-2.53.506-.627 1.196-.94 2.07-.94.866 0 1.546.317 2.04.95.5.633.75 1.467.75 2.5v.4c0 1.053-.247 1.897-.74 2.53-.487.633-1.164.95-2.03.95zM.25 304.8l2.84-2.99c.687-.727 1.03-1.417 1.03-2.07 0-.4-.113-.713-.34-.94-.22-.227-.533-.34-.94-.34-.867 0-1.37.53-1.51 1.59H.52c.053-.707.283-1.263.69-1.67.413-.413.957-.62 1.63-.62.66 0 1.183.183 1.57.55.393.36.59.847.59 1.46 0 .787-.48 1.653-1.44 2.6l-1.97 1.92h3.45v.71H.25v-.2zm8.646.29c-1.713 0-2.57-1.083-2.57-3.25v-.17c0-1.253.254-2.217.76-2.89.514-.68 1.194-1.02 2.04-1.02.574 0 1.04.147 1.4.44.367.293.597.723.69 1.29h-.83c-.08-.347-.223-.603-.43-.77-.206-.167-.503-.25-.89-.25-.553 0-1 .247-1.34.74-.34.493-.52 1.2-.54 2.12.387-.647 1-.97 1.84-.97.7 0 1.264.223 1.69.67.434.44.65.997.65 1.67 0 .72-.223 1.3-.67 1.74-.446.433-1.046.65-1.8.65zm0-.68c.467 0 .847-.153 1.14-.46.294-.307.44-.71.44-1.21 0-.52-.143-.933-.43-1.24-.286-.307-.673-.46-1.16-.46-.48 0-.873.147-1.18.44-.306.293-.46.673-.46 1.14 0 .567.15 1.007.45 1.32.307.313.707.47 1.2.47zm6.63-.04c1.26 0 1.89-.923 1.89-2.77v-.4c0-.833-.17-1.497-.51-1.99-.34-.5-.806-.75-1.4-.75-.607 0-1.08.24-1.42.72-.34.48-.51 1.16-.51 2.04v.4c0 .887.173 1.567.52 2.04.347.473.823.71 1.43.71zm0 .72c-.853 0-1.54-.317-2.06-.95s-.78-1.47-.78-2.51v-.4c0-1.06.25-1.903.75-2.53.507-.627 1.197-.94 2.07-.94.867 0 1.547.317 2.04.95.5.633.75 1.467.75 2.5v.4c0 1.053-.247 1.897-.74 2.53-.486.633-1.163.95-2.03.95z" fill="#fff"/><path opacity=".6" d="M205.234 327.081c-.462 0-.84-.114-1.134-.342-.288-.234-.432-.582-.432-1.044 0-.258.063-.483.189-.675.132-.198.312-.351.54-.459.228-.114.477-.195.747-.243a4.5 4.5 0 01.882-.081h.675v-.342c0-.378-.078-.648-.234-.81-.156-.168-.414-.252-.774-.252-.648 0-1.008.282-1.08.846h-.747c.048-.504.243-.873.585-1.107.348-.24.774-.36 1.278-.36 1.146 0 1.719.561 1.719 1.683V327h-.747v-.594c-.36.45-.849.675-1.467.675zm.072-.594c.408 0 .741-.099.999-.297.264-.204.396-.483.396-.837v-.585h-.648c-1.092 0-1.638.309-1.638.927 0 .528.297.792.891.792zm6.616-3.564h-2.223V327h-.747v-4.707h3.717V327h-.747v-4.077zm2.403-.63h.747v.792c.138-.24.354-.444.648-.612.294-.174.609-.261.945-.261.63 0 1.143.213 1.539.639.402.426.603 1.002.603 1.728v.072c0 .726-.198 1.314-.594 1.764-.39.444-.906.666-1.548.666-.72 0-1.251-.285-1.593-.855v2.412h-.747v-6.345zm2.268 4.167c.468 0 .825-.15 1.071-.45.246-.306.369-.747.369-1.323v-.072c0-.57-.138-1.008-.414-1.314a1.308 1.308 0 00-1.035-.468c-.456 0-.828.153-1.116.459-.282.3-.423.741-.423 1.323v.072c0 .582.138 1.023.414 1.323.282.3.66.45 1.134.45zm5.391.621c-.672 0-1.221-.219-1.647-.657-.42-.438-.63-1.014-.63-1.728v-.072c0-.708.204-1.287.612-1.737.414-.45.945-.675 1.593-.675.6 0 1.101.195 1.503.585.408.384.612.969.612 1.755v.243h-3.546c.036 1.11.54 1.665 1.512 1.665.738 0 1.155-.273 1.251-.819h.747c-.084.468-.303.825-.657 1.071-.354.246-.804.369-1.35.369zm1.278-2.889c-.066-.906-.516-1.359-1.35-1.359-.378 0-.69.12-.936.36-.246.24-.402.573-.468.999h2.754zm2.891.99c-.054.648-.168 1.122-.342 1.422-.174.294-.447.441-.819.441-.078 0-.159-.006-.243-.018l-.072-.027v-.711l.063.018c.06.012.123.018.189.018a.336.336 0 00.234-.081.587.587 0 00.153-.279c.042-.126.072-.243.09-.351.018-.114.039-.273.063-.477.024-.216.06-.828.108-1.836l.027-1.008h3.105V327h-.747v-4.077h-1.692c-.054 1.296-.093 2.049-.117 2.259zm4.156-2.889h.747v1.647h.837c.528 0 .96.129 1.296.387.336.258.504.642.504 1.152v.027c0 .516-.168.894-.504 1.134-.33.24-.762.36-1.296.36h-1.584v-4.707zm1.629 4.122c.36 0 .618-.075.774-.225.156-.156.234-.384.234-.684v-.027c0-.324-.081-.561-.243-.711-.156-.156-.411-.234-.765-.234h-.882v1.881h.882z" fill="#fff"/><path d="M203.852 342.8l2.84-2.99c.687-.727 1.03-1.417 1.03-2.07 0-.4-.113-.713-.34-.94-.22-.227-.533-.34-.94-.34-.866 0-1.37.53-1.51 1.59h-.81c.054-.707.284-1.263.69-1.67.414-.413.957-.62 1.63-.62.66 0 1.184.183 1.57.55.394.36.59.847.59 1.46 0 .787-.48 1.653-1.44 2.6l-1.97 1.92h3.45v.71h-4.79v-.2zm8.966-.43c1.26 0 1.89-.923 1.89-2.77v-.4c0-.833-.17-1.497-.51-1.99-.34-.5-.807-.75-1.4-.75-.607 0-1.08.24-1.42.72-.34.48-.51 1.16-.51 2.04v.4c0 .887.173 1.567.52 2.04.346.473.823.71 1.43.71zm0 .72c-.854 0-1.54-.317-2.06-.95s-.78-1.47-.78-2.51v-.4c0-1.06.25-1.903.75-2.53.506-.627 1.196-.94 2.07-.94.866 0 1.546.317 2.04.95.5.633.75 1.467.75 2.5v.4c0 1.053-.247 1.897-.74 2.53-.487.633-1.164.95-2.03.95zm3.783-.29l2.84-2.99c.687-.727 1.03-1.417 1.03-2.07 0-.4-.113-.713-.34-.94-.22-.227-.533-.34-.94-.34-.866 0-1.37.53-1.51 1.59h-.81c.054-.707.284-1.263.69-1.67.414-.413.957-.62 1.63-.62.66 0 1.184.183 1.57.55.394.36.59.847.59 1.46 0 .787-.48 1.653-1.44 2.6l-1.97 1.92h3.45v.71h-4.79v-.2zm8.965-.43c1.26 0 1.89-.923 1.89-2.77v-.4c0-.833-.17-1.497-.51-1.99-.34-.5-.806-.75-1.4-.75-.606 0-1.08.24-1.42.72-.34.48-.51 1.16-.51 2.04v.4c0 .887.174 1.567.52 2.04.347.473.824.71 1.43.71zm0 .72c-.853 0-1.54-.317-2.06-.95s-.78-1.47-.78-2.51v-.4c0-1.06.25-1.903.75-2.53.507-.627 1.197-.94 2.07-.94.867 0 1.547.317 2.04.95.5.633.75 1.467.75 2.5v.4c0 1.053-.246 1.897-.74 2.53-.486.633-1.163.95-2.03.95z" fill="#fff"/><path opacity=".6" d="M335.713 327.081c-.462 0-.84-.114-1.134-.342-.288-.234-.432-.582-.432-1.044 0-.258.063-.483.189-.675.132-.198.312-.351.54-.459.228-.114.477-.195.747-.243a4.5 4.5 0 01.882-.081h.675v-.342c0-.378-.078-.648-.234-.81-.156-.168-.414-.252-.774-.252-.648 0-1.008.282-1.08.846h-.747c.048-.504.243-.873.585-1.107.348-.24.774-.36 1.278-.36 1.146 0 1.719.561 1.719 1.683V327h-.747v-.594c-.36.45-.849.675-1.467.675zm.072-.594c.408 0 .741-.099.999-.297.264-.204.396-.483.396-.837v-.585h-.648c-1.092 0-1.638.309-1.638.927 0 .528.297.792.891.792zm3.645-4.194h1.647c1.104 0 1.656.399 1.656 1.197v.027c0 .228-.063.438-.189.63a.942.942 0 01-.567.378c.654.144.981.498.981 1.062v.027c0 .456-.15.801-.45 1.035-.294.234-.705.351-1.233.351h-1.845v-4.707zm.747.594v1.395h.9c.312 0 .534-.057.666-.171.138-.114.207-.3.207-.558v-.027c0-.24-.072-.405-.216-.495-.138-.096-.36-.144-.666-.144h-.891zm0 1.989v1.53h1.026c.33 0 .573-.057.729-.171.162-.12.243-.312.243-.576v-.027c0-.264-.081-.456-.243-.576-.156-.12-.399-.18-.729-.18h-1.026zm4.81-1.953V327h-.747v-4.707h2.988v.63h-2.241zm4.859 3.591l-1.845-4.221h.801l1.44 3.375 1.305-3.375h.765l-2.601 6.345h-.756l.891-2.124zm5.361.567c-.672 0-1.224-.216-1.656-.648-.432-.438-.648-1.017-.648-1.737v-.072c0-.708.219-1.287.657-1.737a2.2 2.2 0 011.629-.675c.54 0 .999.135 1.377.405.378.264.6.678.666 1.242h-.738c-.108-.684-.543-1.026-1.305-1.026-.438 0-.801.165-1.089.495-.282.324-.423.756-.423 1.296v.072c0 .564.138.999.414 1.305.282.306.657.459 1.125.459.354 0 .657-.099.909-.297.258-.204.405-.489.441-.855h.693a1.867 1.867 0 01-.648 1.278c-.378.33-.846.495-1.404.495zm6.519-4.158h-1.521V327h-.747v-4.077h-1.521v-.63h3.789v.63z" fill="#fff"/><path d="M333.852 342.8l2.84-2.99c.687-.727 1.03-1.417 1.03-2.07 0-.4-.113-.713-.34-.94-.22-.227-.533-.34-.94-.34-.866 0-1.37.53-1.51 1.59h-.81c.054-.707.284-1.263.69-1.67.414-.413.957-.62 1.63-.62.66 0 1.184.183 1.57.55.394.36.59.847.59 1.46 0 .787-.48 1.653-1.44 2.6l-1.97 1.92h3.45v.71h-4.79v-.2zm8.966-.43c1.26 0 1.89-.923 1.89-2.77v-.4c0-.833-.17-1.497-.51-1.99-.34-.5-.807-.75-1.4-.75-.607 0-1.08.24-1.42.72-.34.48-.51 1.16-.51 2.04v.4c0 .887.173 1.567.52 2.04.346.473.823.71 1.43.71zm0 .72c-.854 0-1.54-.317-2.06-.95s-.78-1.47-.78-2.51v-.4c0-1.06.25-1.903.75-2.53.506-.627 1.196-.94 2.07-.94.866 0 1.546.317 2.04.95.5.633.75 1.467.75 2.5v.4c0 1.053-.247 1.897-.74 2.53-.487.633-1.164.95-2.03.95zm3.783-.29l2.84-2.99c.687-.727 1.03-1.417 1.03-2.07 0-.4-.113-.713-.34-.94-.22-.227-.533-.34-.94-.34-.866 0-1.37.53-1.51 1.59h-.81c.054-.707.284-1.263.69-1.67.414-.413.957-.62 1.63-.62.66 0 1.184.183 1.57.55.394.36.59.847.59 1.46 0 .787-.48 1.653-1.44 2.6l-1.97 1.92h3.45v.71h-4.79v-.2zm8.965-.43c1.26 0 1.89-.923 1.89-2.77v-.4c0-.833-.17-1.497-.51-1.99-.34-.5-.806-.75-1.4-.75-.606 0-1.08.24-1.42.72-.34.48-.51 1.16-.51 2.04v.4c0 .887.174 1.567.52 2.04.347.473.824.71 1.43.71zm0 .72c-.853 0-1.54-.317-2.06-.95s-.78-1.47-.78-2.51v-.4c0-1.06.25-1.903.75-2.53.507-.627 1.197-.94 2.07-.94.867 0 1.547.317 2.04.95.5.633.75 1.467.75 2.5v.4c0 1.053-.246 1.897-.74 2.53-.486.633-1.163.95-2.03.95z" fill="#fff"/><path opacity=".6" d="M140.13 322.887c-.672 0-1.008.285-1.008.855v.027c0 .27.078.474.234.612.156.138.414.207.774.207h.882v-1.701h-.882zM138.888 327h-.855l1.431-1.971c-.726-.15-1.089-.57-1.089-1.26v-.027c0-.492.168-.855.504-1.089.336-.24.768-.36 1.296-.36h1.584V327h-.747v-1.845h-.81L138.888 327zm7.537-2.097h-2.313V327h-.747v-4.707h.747v1.98h2.313v-1.98h.747V327h-.747v-2.097zm2.347-2.61h1.647c1.104 0 1.656.399 1.656 1.197v.027c0 .228-.063.438-.189.63a.942.942 0 01-.567.378c.654.144.981.498.981 1.062v.027c0 .456-.15.801-.45 1.035-.294.234-.705.351-1.233.351h-1.845v-4.707zm.747.594v1.395h.9c.312 0 .534-.057.666-.171.138-.114.207-.3.207-.558v-.027c0-.24-.072-.405-.216-.495-.138-.096-.36-.144-.666-.144h-.891zm0 1.989v1.53h1.026c.33 0 .573-.057.729-.171.162-.12.243-.312.243-.576v-.027c0-.264-.081-.456-.243-.576-.156-.12-.399-.18-.729-.18h-1.026zm5.34 2.205c-.462 0-.84-.114-1.134-.342-.288-.234-.432-.582-.432-1.044 0-.258.063-.483.189-.675.132-.198.312-.351.54-.459.228-.114.477-.195.747-.243a4.5 4.5 0 01.882-.081h.675v-.342c0-.378-.078-.648-.234-.81-.156-.168-.414-.252-.774-.252-.648 0-1.008.282-1.08.846h-.747c.048-.504.243-.873.585-1.107.348-.24.774-.36 1.278-.36 1.146 0 1.719.561 1.719 1.683V327h-.747v-.594c-.36.45-.849.675-1.467.675zm.072-.594c.408 0 .741-.099.999-.297.264-.204.396-.483.396-.837v-.585h-.648c-1.092 0-1.638.309-1.638.927 0 .528.297.792.891.792zm3.699-4.194h.747v.792c.138-.24.354-.444.648-.612.294-.174.609-.261.945-.261.63 0 1.143.213 1.539.639.402.426.603 1.002.603 1.728v.072c0 .726-.198 1.314-.594 1.764-.39.444-.906.666-1.548.666-.72 0-1.251-.285-1.593-.855v2.412h-.747v-6.345zm2.268 4.167c.468 0 .825-.15 1.071-.45.246-.306.369-.747.369-1.323v-.072c0-.57-.138-1.008-.414-1.314a1.308 1.308 0 00-1.035-.468c-.456 0-.828.153-1.116.459-.282.3-.423.741-.423 1.323v.072c0 .582.138 1.023.414 1.323.282.3.66.45 1.134.45zm3.411-4.167h.747v1.647h.837c.528 0 .96.129 1.296.387.336.258.504.642.504 1.152v.027c0 .516-.168.894-.504 1.134-.33.24-.762.36-1.296.36h-1.584v-4.707zm1.629 4.122c.36 0 .618-.075.774-.225.156-.156.234-.384.234-.684v-.027c0-.324-.081-.561-.243-.711-.156-.156-.411-.234-.765-.234h-.882v1.881h.882z" fill="#fff"/><path d="M137.852 342.8l2.84-2.99c.687-.727 1.03-1.417 1.03-2.07 0-.4-.113-.713-.34-.94-.22-.227-.533-.34-.94-.34-.866 0-1.37.53-1.51 1.59h-.81c.054-.707.284-1.263.69-1.67.414-.413.957-.62 1.63-.62.66 0 1.184.183 1.57.55.394.36.59.847.59 1.46 0 .787-.48 1.653-1.44 2.6l-1.97 1.92h3.45v.71h-4.79v-.2zm8.966-.43c1.26 0 1.89-.923 1.89-2.77v-.4c0-.833-.17-1.497-.51-1.99-.34-.5-.807-.75-1.4-.75-.607 0-1.08.24-1.42.72-.34.48-.51 1.16-.51 2.04v.4c0 .887.173 1.567.52 2.04.346.473.823.71 1.43.71zm0 .72c-.854 0-1.54-.317-2.06-.95s-.78-1.47-.78-2.51v-.4c0-1.06.25-1.903.75-2.53.506-.627 1.196-.94 2.07-.94.866 0 1.546.317 2.04.95.5.633.75 1.467.75 2.5v.4c0 1.053-.247 1.897-.74 2.53-.487.633-1.164.95-2.03.95zm3.783-.29l2.84-2.99c.687-.727 1.03-1.417 1.03-2.07 0-.4-.113-.713-.34-.94-.22-.227-.533-.34-.94-.34-.866 0-1.37.53-1.51 1.59h-.81c.054-.707.284-1.263.69-1.67.414-.413.957-.62 1.63-.62.66 0 1.184.183 1.57.55.394.36.59.847.59 1.46 0 .787-.48 1.653-1.44 2.6l-1.97 1.92h3.45v.71h-4.79v-.2zm8.965-.43c1.26 0 1.89-.923 1.89-2.77v-.4c0-.833-.17-1.497-.51-1.99-.34-.5-.806-.75-1.4-.75-.606 0-1.08.24-1.42.72-.34.48-.51 1.16-.51 2.04v.4c0 .887.174 1.567.52 2.04.347.473.824.71 1.43.71zm0 .72c-.853 0-1.54-.317-2.06-.95s-.78-1.47-.78-2.51v-.4c0-1.06.25-1.903.75-2.53.507-.627 1.197-.94 2.07-.94.867 0 1.547.317 2.04.95.5.633.75 1.467.75 2.5v.4c0 1.053-.246 1.897-.74 2.53-.486.633-1.163.95-2.03.95z" fill="#fff"/><path opacity=".6" d="M71.802 325.182c-.066.552-.168.948-.306 1.188h2.205v-3.465h-1.728c-.03.732-.087 1.491-.171 2.277zm-.936 2.961h-.603v-1.773h.333c.168-.042.285-.162.351-.36.066-.204.123-.495.171-.873.054-.486.105-1.098.153-1.836.024-.33.042-.666.054-1.008h3.105v4.077h.72v1.773h-.603L74.493 327H70.92l-.054 1.143zm7.247-1.062c-.672 0-1.22-.219-1.647-.657-.42-.438-.63-1.014-.63-1.728v-.072c0-.708.204-1.287.612-1.737.414-.45.945-.675 1.593-.675.6 0 1.101.195 1.503.585.408.384.612.969.612 1.755v.243H76.61c.036 1.11.54 1.665 1.512 1.665.738 0 1.155-.273 1.251-.819h.747c-.084.468-.303.825-.657 1.071-.354.246-.804.369-1.35.369zm1.278-2.889c-.066-.906-.516-1.359-1.35-1.359-.378 0-.69.12-.936.36-.246.24-.402.573-.468.999h2.754zm2.694.405V327h-.747v-4.707h.747v2.196l1.953-2.196h.873l-2.016 2.214L85.082 327h-.909l-2.088-2.403zm5.173 2.484c-.462 0-.84-.114-1.134-.342-.288-.234-.432-.582-.432-1.044 0-.258.063-.483.19-.675.131-.198.311-.351.54-.459a2.71 2.71 0 01.746-.243 4.5 4.5 0 01.882-.081h.675v-.342c0-.378-.078-.648-.234-.81-.156-.168-.414-.252-.774-.252-.648 0-1.008.282-1.08.846h-.747c.048-.504.243-.873.585-1.107.348-.24.774-.36 1.278-.36 1.146 0 1.72.561 1.72 1.683V327h-.748v-.594c-.36.45-.849.675-1.467.675zm.072-.594c.408 0 .741-.099 1-.297.263-.204.395-.483.395-.837v-.585h-.648c-1.092 0-1.638.309-1.638.927 0 .528.297.792.891.792zm5.67.594c-.708 0-1.269-.228-1.683-.684-.414-.456-.62-1.149-.62-2.079v-.288c0-.444.017-.837.053-1.179a5 5 0 01.225-1.044c.114-.354.264-.648.45-.882a2.16 2.16 0 01.756-.585 2.994 2.994 0 011.143-.27l.18-.009c.66-.036 1.107-.102 1.341-.198l.1.63c-.307.132-.784.213-1.432.243l-.135.009c-.726.036-1.245.273-1.557.711-.306.432-.486 1.104-.54 2.016h.036a1.85 1.85 0 01.72-.783 2.114 2.114 0 011.125-.297c.654 0 1.176.213 1.566.639.396.42.594.966.594 1.638v.036c0 .726-.219 1.305-.657 1.737-.432.426-.987.639-1.665.639zm-1.125-1.08c.276.306.654.459 1.134.459.48 0 .855-.15 1.125-.45.276-.306.414-.738.414-1.296v-.018c0-.522-.126-.933-.378-1.233-.246-.3-.606-.45-1.08-.45-.498 0-.894.156-1.188.468-.288.312-.432.738-.432 1.278v.018c0 .51.135.918.405 1.224zm4.755-3.708h.747v.792c.138-.24.354-.444.648-.612.294-.174.61-.261.945-.261.63 0 1.143.213 1.539.639.402.426.603 1.002.603 1.728v.072c0 .726-.198 1.314-.594 1.764-.39.444-.906.666-1.548.666-.72 0-1.25-.285-1.593-.855v2.412h-.747v-6.345zm2.268 4.167c.468 0 .825-.15 1.071-.45.246-.306.369-.747.369-1.323v-.072c0-.57-.138-1.008-.414-1.314a1.308 1.308 0 00-1.035-.468c-.456 0-.828.153-1.116.459-.282.3-.423.741-.423 1.323v.072c0 .582.138 1.023.414 1.323.282.3.66.45 1.134.45zm3.411-4.167h.747v1.647h.837c.528 0 .96.129 1.296.387.336.258.504.642.504 1.152v.027c0 .516-.168.894-.504 1.134-.33.24-.762.36-1.296.36h-1.584v-4.707zm1.629 4.122c.36 0 .618-.075.774-.225.156-.156.234-.384.234-.684v-.027c0-.324-.081-.561-.243-.711-.156-.156-.411-.234-.765-.234h-.882v1.881h.882z" fill="#fff"/><path d="M71.07 342.8l2.84-2.99c.686-.727 1.03-1.417 1.03-2.07 0-.4-.114-.713-.34-.94-.22-.227-.534-.34-.94-.34-.867 0-1.37.53-1.51 1.59h-.81c.052-.707.282-1.263.69-1.67.412-.413.956-.62 1.63-.62.66 0 1.183.183 1.57.55.392.36.59.847.59 1.46 0 .787-.48 1.653-1.44 2.6l-1.97 1.92h3.45v.71h-4.79v-.2zm8.964-.43c1.26 0 1.89-.923 1.89-2.77v-.4c0-.833-.17-1.497-.51-1.99-.34-.5-.806-.75-1.4-.75-.606 0-1.08.24-1.42.72-.34.48-.51 1.16-.51 2.04v.4c0 .887.174 1.567.52 2.04.347.473.824.71 1.43.71zm0 .72c-.853 0-1.54-.317-2.06-.95s-.78-1.47-.78-2.51v-.4c0-1.06.25-1.903.75-2.53.507-.627 1.197-.94 2.07-.94.867 0 1.547.317 2.04.95.5.633.75 1.467.75 2.5v.4c0 1.053-.246 1.897-.74 2.53-.486.633-1.163.95-2.03.95zm5.524-6.38l-1.6 1.15v-.81l1.66-1.2h.81V343h-.87v-6.29zm5.084 6.37c-.654 0-1.177-.16-1.57-.48-.394-.32-.637-.773-.73-1.36h.84c.086.373.243.657.47.85.233.187.57.28 1.01.28.58 0 1.026-.237 1.34-.71.313-.473.476-1.183.49-2.13-.18.3-.43.533-.75.7-.32.167-.687.25-1.1.25-.694 0-1.26-.22-1.7-.66-.434-.44-.65-1-.65-1.68 0-.72.223-1.297.67-1.73.446-.44 1.046-.66 1.8-.66.846 0 1.486.273 1.92.82.433.547.65 1.34.65 2.38v.45c0 1.193-.234 2.107-.7 2.74-.46.627-1.124.94-1.99.94zm.13-3.28c.48 0 .873-.143 1.18-.43.306-.287.46-.66.46-1.12 0-.573-.154-1.02-.46-1.34-.3-.32-.697-.48-1.19-.48-.467 0-.847.153-1.14.46-.294.307-.44.71-.44 1.21 0 .52.143.933.43 1.24.286.307.673.46 1.16.46z" fill="#fff"/><path opacity=".6" d="M270.7 323.031V327h-.621v-4.707h1.053l1.341 3.537 1.377-3.537h1.026V327h-.738v-3.969L272.581 327h-.342l-1.539-3.969zm7.021 4.05c-.462 0-.84-.114-1.134-.342-.288-.234-.432-.582-.432-1.044 0-.258.063-.483.189-.675.132-.198.312-.351.54-.459.228-.114.477-.195.747-.243a4.5 4.5 0 01.882-.081h.675v-.342c0-.378-.078-.648-.234-.81-.156-.168-.414-.252-.774-.252-.648 0-1.008.282-1.08.846h-.747c.048-.504.243-.873.585-1.107.348-.24.774-.36 1.278-.36 1.146 0 1.719.561 1.719 1.683V327h-.747v-.594c-.36.45-.849.675-1.467.675zm.072-.594c.408 0 .741-.099.999-.297.264-.204.396-.483.396-.837v-.585h-.648c-1.092 0-1.638.309-1.638.927 0 .528.297.792.891.792zm5.581-5.058c-.324 0-.6-.111-.828-.333a1.224 1.224 0 01-.36-.855h.648c.036.444.216.666.54.666.354 0 .552-.222.594-.666h.63a1.276 1.276 0 01-.387.855 1.154 1.154 0 01-.837.333zM281.439 327v-4.707h.747v3.627l2.403-3.627h.747V327h-.747v-3.627L282.186 327h-.747z" fill="#fff"/><path d="M269.852 342.8l2.84-2.99c.687-.727 1.03-1.417 1.03-2.07 0-.4-.113-.713-.34-.94-.22-.227-.533-.34-.94-.34-.866 0-1.37.53-1.51 1.59h-.81c.054-.707.284-1.263.69-1.67.414-.413.957-.62 1.63-.62.66 0 1.184.183 1.57.55.394.36.59.847.59 1.46 0 .787-.48 1.653-1.44 2.6l-1.97 1.92h3.45v.71h-4.79v-.2zm8.966-.43c1.26 0 1.89-.923 1.89-2.77v-.4c0-.833-.17-1.497-.51-1.99-.34-.5-.807-.75-1.4-.75-.607 0-1.08.24-1.42.72-.34.48-.51 1.16-.51 2.04v.4c0 .887.173 1.567.52 2.04.346.473.823.71 1.43.71zm0 .72c-.854 0-1.54-.317-2.06-.95s-.78-1.47-.78-2.51v-.4c0-1.06.25-1.903.75-2.53.506-.627 1.196-.94 2.07-.94.866 0 1.546.317 2.04.95.5.633.75 1.467.75 2.5v.4c0 1.053-.247 1.897-.74 2.53-.487.633-1.164.95-2.03.95zm3.783-.29l2.84-2.99c.687-.727 1.03-1.417 1.03-2.07 0-.4-.113-.713-.34-.94-.22-.227-.533-.34-.94-.34-.866 0-1.37.53-1.51 1.59h-.81c.054-.707.284-1.263.69-1.67.414-.413.957-.62 1.63-.62.66 0 1.184.183 1.57.55.394.36.59.847.59 1.46 0 .787-.48 1.653-1.44 2.6l-1.97 1.92h3.45v.71h-4.79v-.2zm8.965-.43c1.26 0 1.89-.923 1.89-2.77v-.4c0-.833-.17-1.497-.51-1.99-.34-.5-.806-.75-1.4-.75-.606 0-1.08.24-1.42.72-.34.48-.51 1.16-.51 2.04v.4c0 .887.174 1.567.52 2.04.347.473.824.71 1.43.71zm0 .72c-.853 0-1.54-.317-2.06-.95s-.78-1.47-.78-2.51v-.4c0-1.06.25-1.903.75-2.53.507-.627 1.197-.94 2.07-.94.867 0 1.547.317 2.04.95.5.633.75 1.467.75 2.5v.4c0 1.053-.246 1.897-.74 2.53-.486.633-1.163.95-2.03.95z" fill="#fff"/><path opacity=".6" d="M401.923 326.081c-.672 0-1.224-.216-1.656-.648-.432-.438-.648-1.017-.648-1.737v-.072c0-.708.219-1.287.657-1.737a2.2 2.2 0 011.629-.675c.54 0 .999.135 1.377.405.378.264.6.678.666 1.242h-.738c-.108-.684-.543-1.026-1.305-1.026-.438 0-.801.165-1.089.495-.282.324-.423.756-.423 1.296v.072c0 .564.138.999.414 1.305.282.306.657.459 1.125.459.354 0 .657-.099.909-.297.258-.204.405-.489.441-.855h.693a1.867 1.867 0 01-.648 1.278c-.378.33-.846.495-1.404.495zm5.196 0c-.672 0-1.221-.219-1.647-.657-.42-.438-.63-1.014-.63-1.728v-.072c0-.708.204-1.287.612-1.737.414-.45.945-.675 1.593-.675.6 0 1.101.195 1.503.585.408.384.612.969.612 1.755v.243h-3.546c.036 1.11.54 1.665 1.512 1.665.738 0 1.155-.273 1.251-.819h.747c-.084.468-.303.825-.657 1.071-.354.246-.804.369-1.35.369zm1.278-2.889c-.066-.906-.516-1.359-1.35-1.359-.378 0-.69.12-.936.36-.246.24-.402.573-.468.999h2.754zm5.007.711h-2.313V326h-.747v-4.707h.747v1.98h2.313v-1.98h.747V326h-.747v-2.097zm5.65-1.98h-1.521V326h-.747v-4.077h-1.521v-.63h3.789v.63zm2.686-.036c-.672 0-1.008.285-1.008.855v.027c0 .27.078.474.234.612.156.138.414.207.774.207h.882v-1.701h-.882zM420.498 326h-.855l1.431-1.971c-.726-.15-1.089-.57-1.089-1.26v-.027c0-.492.168-.855.504-1.089.336-.24.768-.36 1.296-.36h1.584V326h-.747v-1.845h-.81L420.498 326zm6.502.081c-.708 0-1.269-.228-1.683-.684-.414-.456-.621-1.149-.621-2.079v-.288c0-.444.018-.837.054-1.179a5 5 0 01.225-1.044c.114-.354.264-.648.45-.882a2.16 2.16 0 01.756-.585 2.994 2.994 0 011.143-.27l.18-.009c.66-.036 1.107-.102 1.341-.198l.099.63c-.306.132-.783.213-1.431.243l-.135.009c-.726.036-1.245.273-1.557.711-.306.432-.486 1.104-.54 2.016h.036a1.85 1.85 0 01.72-.783 2.114 2.114 0 011.125-.297c.654 0 1.176.213 1.566.639.396.42.594.966.594 1.638v.036c0 .726-.219 1.305-.657 1.737-.432.426-.987.639-1.665.639zm-1.125-1.08c.276.306.654.459 1.134.459.48 0 .855-.15 1.125-.45.276-.306.414-.738.414-1.296v-.018c0-.522-.126-.933-.378-1.233-.246-.3-.606-.45-1.08-.45-.498 0-.894.156-1.188.468-.288.312-.432.738-.432 1.278v.018c0 .51.135.918.405 1.224zm4.755-3.708h.747v.792c.138-.24.354-.444.648-.612.294-.174.609-.261.945-.261.63 0 1.143.213 1.539.639.402.426.603 1.002.603 1.728v.072c0 .726-.198 1.314-.594 1.764-.39.444-.906.666-1.548.666-.72 0-1.251-.285-1.593-.855v2.412h-.747v-6.345zm2.268 4.167c.468 0 .825-.15 1.071-.45.246-.306.369-.747.369-1.323v-.072c0-.57-.138-1.008-.414-1.314a1.308 1.308 0 00-1.035-.468c-.456 0-.828.153-1.116.459-.282.3-.423.741-.423 1.323v.072c0 .582.138 1.023.414 1.323.282.3.66.45 1.134.45zm3.411-4.167h.747v1.647h.837c.528 0 .96.129 1.296.387.336.258.504.642.504 1.152v.027c0 .516-.168.894-.504 1.134-.33.24-.762.36-1.296.36h-1.584v-4.707zm1.629 4.122c.36 0 .618-.075.774-.225.156-.156.234-.384.234-.684v-.027c0-.324-.081-.561-.243-.711-.156-.156-.411-.234-.765-.234h-.882v1.881h.882z" fill="#fff"/><path d="M399.852 341.8l2.84-2.99c.687-.727 1.03-1.417 1.03-2.07 0-.4-.113-.713-.34-.94-.22-.227-.533-.34-.94-.34-.866 0-1.37.53-1.51 1.59h-.81c.054-.707.284-1.263.69-1.67.414-.413.957-.62 1.63-.62.66 0 1.184.183 1.57.55.394.36.59.847.59 1.46 0 .787-.48 1.653-1.44 2.6l-1.97 1.92h3.45v.71h-4.79v-.2zm8.966-.43c1.26 0 1.89-.923 1.89-2.77v-.4c0-.833-.17-1.497-.51-1.99-.34-.5-.807-.75-1.4-.75-.607 0-1.08.24-1.42.72-.34.48-.51 1.16-.51 2.04v.4c0 .887.173 1.567.52 2.04.346.473.823.71 1.43.71zm0 .72c-.854 0-1.54-.317-2.06-.95s-.78-1.47-.78-2.51v-.4c0-1.06.25-1.903.75-2.53.506-.627 1.196-.94 2.07-.94.866 0 1.546.317 2.04.95.5.633.75 1.467.75 2.5v.4c0 1.053-.247 1.897-.74 2.53-.487.633-1.164.95-2.03.95zm3.783-.29l2.84-2.99c.687-.727 1.03-1.417 1.03-2.07 0-.4-.113-.713-.34-.94-.22-.227-.533-.34-.94-.34-.866 0-1.37.53-1.51 1.59h-.81c.054-.707.284-1.263.69-1.67.414-.413.957-.62 1.63-.62.66 0 1.184.183 1.57.55.394.36.59.847.59 1.46 0 .787-.48 1.653-1.44 2.6l-1.97 1.92h3.45v.71h-4.79v-.2zm8.965-.43c1.26 0 1.89-.923 1.89-2.77v-.4c0-.833-.17-1.497-.51-1.99-.34-.5-.806-.75-1.4-.75-.606 0-1.08.24-1.42.72-.34.48-.51 1.16-.51 2.04v.4c0 .887.174 1.567.52 2.04.347.473.824.71 1.43.71zm0 .72c-.853 0-1.54-.317-2.06-.95s-.78-1.47-.78-2.51v-.4c0-1.06.25-1.903.75-2.53.507-.627 1.197-.94 2.07-.94.867 0 1.547.317 2.04.95.5.633.75 1.467.75 2.5v.4c0 1.053-.246 1.897-.74 2.53-.486.633-1.163.95-2.03.95zM.25 267.8l2.84-2.99c.687-.727 1.03-1.417 1.03-2.07 0-.4-.113-.713-.34-.94-.22-.227-.533-.34-.94-.34-.867 0-1.37.53-1.51 1.59H.52c.053-.707.283-1.263.69-1.67.413-.413.957-.62 1.63-.62.66 0 1.183.183 1.57.55.393.36.59.847.59 1.46 0 .787-.48 1.653-1.44 2.6l-1.97 1.92h3.45v.71H.25v-.2zm9.426-6.25h-3.63v-.7h4.71v.12L8.076 268h-.89l2.49-6.45zm4.815 5.82c1.26 0 1.89-.923 1.89-2.77v-.4c0-.833-.17-1.497-.51-1.99-.34-.5-.807-.75-1.4-.75-.607 0-1.08.24-1.42.72-.34.48-.51 1.16-.51 2.04v.4c0 .887.173 1.567.52 2.04.347.473.823.71 1.43.71zm0 .72c-.853 0-1.54-.317-2.06-.95s-.78-1.47-.78-2.51v-.4c0-1.06.25-1.903.75-2.53.507-.627 1.197-.94 2.07-.94.867 0 1.547.317 2.04.95.5.633.75 1.467.75 2.5v.4c0 1.053-.247 1.897-.74 2.53-.487.633-1.163.95-2.03.95zM.25 229.8l2.84-2.99c.687-.727 1.03-1.417 1.03-2.07 0-.4-.113-.713-.34-.94-.22-.227-.533-.34-.94-.34-.867 0-1.37.53-1.51 1.59H.52c.053-.707.283-1.263.69-1.67.413-.413.957-.62 1.63-.62.66 0 1.183.183 1.57.55.393.36.59.847.59 1.46 0 .787-.48 1.653-1.44 2.6l-1.97 1.92h3.45v.71H.25v-.2zm8.516.29c-.406 0-.793-.073-1.16-.22a2.242 2.242 0 01-.93-.73 1.878 1.878 0 01-.38-1.17c0-.46.124-.847.37-1.16.247-.313.574-.543.98-.69-.72-.287-1.08-.787-1.08-1.5 0-.547.22-.993.66-1.34a2.44 2.44 0 011.54-.52 2.4 2.4 0 011.53.52c.44.34.66.78.66 1.32 0 .687-.366 1.19-1.1 1.51.914.34 1.37.953 1.37 1.84 0 .673-.246 1.2-.74 1.58-.486.373-1.06.56-1.72.56zm0-.71c.46 0 .837-.127 1.13-.38.294-.26.44-.62.44-1.08 0-.447-.15-.793-.45-1.04-.293-.253-.66-.38-1.1-.38-.453 0-.833.127-1.14.38-.306.247-.46.6-.46 1.06 0 .447.154.8.46 1.06.307.253.68.38 1.12.38zm.03-3.57c.387 0 .697-.107.93-.32.234-.213.35-.507.35-.88 0-.34-.123-.62-.37-.84-.246-.22-.56-.33-.94-.33-.386 0-.703.107-.95.32-.246.213-.37.503-.37.87 0 .36.13.647.39.86.26.213.58.32.96.32zm6.564 3.56c1.26 0 1.89-.923 1.89-2.77v-.4c0-.833-.17-1.497-.51-1.99-.34-.5-.806-.75-1.4-.75-.607 0-1.08.24-1.42.72-.34.48-.51 1.16-.51 2.04v.4c0 .887.174 1.567.52 2.04.347.473.824.71 1.43.71zm0 .72c-.853 0-1.54-.317-2.06-.95s-.78-1.47-.78-2.51v-.4c0-1.06.25-1.903.75-2.53.507-.627 1.197-.94 2.07-.94.867 0 1.547.317 2.04.95.5.633.75 1.467.75 2.5v.4c0 1.053-.246 1.897-.74 2.53-.486.633-1.163.95-2.03.95z" fill="#fff"/><ellipse cx="129" cy="228.5" rx="3" ry="3.5" fill="#F1D5C0"/><circle cx="64" cy="302" r="3" fill="#F1D5C0"/><circle cx="195" cy="187" r="3" fill="#F1D5C0"/><circle cx="261" cy="166" r="3" fill="#F1D5C0"/><circle cx="326" cy="118" r="3" fill="#F1D5C0"/><circle cx="392" cy="74" r="3" fill="#F1D5C0"/><path d="M2.96 117.09c-.74 0-1.337-.207-1.79-.62-.447-.413-.683-.94-.71-1.58h.8c.04.453.203.817.49 1.09.287.273.697.41 1.23.41.547 0 .953-.12 1.22-.36.273-.247.41-.587.41-1.02 0-.927-.503-1.39-1.51-1.39h-.54v-.73h.5c.893 0 1.34-.407 1.34-1.22 0-.353-.11-.64-.33-.86-.22-.227-.543-.34-.97-.34-.44 0-.803.123-1.09.37-.28.247-.443.573-.49.98H.76c.027-.573.257-1.06.69-1.46.433-.4.983-.6 1.65-.6.653 0 1.173.187 1.56.56.393.367.59.81.59 1.33 0 .727-.377 1.247-1.13 1.56.92.253 1.38.853 1.38 1.8 0 .647-.237 1.157-.71 1.53-.467.367-1.077.55-1.83.55zm5.243-6.38l-1.6 1.15v-.81l1.66-1.2h.81V117h-.87v-6.29zm5.722 5.66c1.26 0 1.89-.923 1.89-2.77v-.4c0-.833-.17-1.497-.51-1.99-.34-.5-.807-.75-1.4-.75-.607 0-1.08.24-1.42.72-.34.48-.51 1.16-.51 2.04v.4c0 .887.173 1.567.52 2.04.346.473.823.71 1.43.71zm0 .72c-.854 0-1.54-.317-2.06-.95s-.78-1.47-.78-2.51v-.4c0-1.06.25-1.903.75-2.53.506-.627 1.196-.94 2.07-.94.866 0 1.546.317 2.04.95.5.633.75 1.467.75 2.5v.4c0 1.053-.247 1.897-.74 2.53-.487.633-1.164.95-2.03.95zm-10.965-36c-.74 0-1.337-.207-1.79-.62-.447-.413-.683-.94-.71-1.58h.8c.04.453.203.817.49 1.09.287.273.697.41 1.23.41.547 0 .953-.12 1.22-.36.273-.247.41-.587.41-1.02 0-.927-.503-1.39-1.51-1.39h-.54v-.73h.5c.893 0 1.34-.407 1.34-1.22 0-.353-.11-.64-.33-.86-.22-.227-.543-.34-.97-.34-.44 0-.803.123-1.09.37-.28.247-.443.573-.49.98H.76a2.05 2.05 0 01.69-1.46c.433-.4.983-.6 1.65-.6.653 0 1.173.187 1.56.56.393.367.59.81.59 1.33 0 .727-.377 1.247-1.13 1.56.92.253 1.38.853 1.38 1.8 0 .647-.237 1.157-.71 1.53-.467.367-1.077.55-1.83.55zm3.552-.29l2.84-2.99c.687-.727 1.03-1.417 1.03-2.07 0-.4-.113-.713-.34-.94-.22-.227-.533-.34-.94-.34-.867 0-1.37.53-1.51 1.59h-.81c.053-.707.283-1.263.69-1.67.413-.413.957-.62 1.63-.62.66 0 1.183.183 1.57.55.393.36.59.847.59 1.46 0 .787-.48 1.653-1.44 2.6l-1.97 1.92h3.45V81h-4.79v-.2zm8.965-.43c1.26 0 1.89-.923 1.89-2.77v-.4c0-.833-.17-1.497-.51-1.99-.34-.5-.806-.75-1.4-.75-.606 0-1.08.24-1.42.72-.34.48-.51 1.16-.51 2.04v.4c0 .887.174 1.567.52 2.04.347.473.824.71 1.43.71zm0 .72c-.853 0-1.54-.317-2.06-.95s-.78-1.47-.78-2.51v-.4c0-1.06.25-1.903.75-2.53.507-.627 1.197-.94 2.07-.94.867 0 1.547.317 2.04.95.5.633.75 1.467.75 2.5v.4c0 1.053-.246 1.897-.74 2.53-.486.633-1.163.95-2.03.95z" fill="#fff"/><path opacity=".3" fill="#F1D5C0" d="M63 302h1v42h-1zm66-77h1v119h-1zm66-38h1v157h-1zm66-23h1v180h-1zm64-46h1v226h-1zm66-43h1v269h-1z"/><path d="M38 331l25.723-28.384 67.198-75.627 63.179-39.411 68.33-22.743 63.798-46.997 65.567-43.435L432 57" stroke="url(#paint0_radial)"/><defs><radialGradient id="paint0_radial" cx="0" cy="0" r="1" gradientUnits="userSpaceOnUse" gradientTransform="matrix(84.34719 129.41795 -209.76903 136.71541 230.285 182.516)"><stop stop-color="#F1D5C0"/><stop offset="1" stop-color="#F1D5C0" stop-opacity="0"/></radialGradient></defs></svg>