<svg width="860" height="549" fill="none" xmlns="http://www.w3.org/2000/svg"><path d="M15.06 254.788l4.544-4.784c1.098-1.162 1.648-2.266 1.648-3.312 0-.64-.182-1.141-.544-1.504-.352-.362-.854-.544-1.504-.544-1.387 0-2.192.848-2.416 2.544h-1.296c.085-1.13.453-2.021 1.104-2.672.661-.661 1.53-.992 2.608-.992 1.056 0 1.893.294 2.512.88.629.576.944 1.355.944 2.336 0 1.259-.768 2.646-2.304 4.16l-3.152 3.072h5.52v1.136H15.06v-.32zm13.558.448c-1.045 0-1.883-.256-2.512-.768-.63-.512-1.019-1.237-1.168-2.176h1.344c.139.598.39 1.051.752 1.36.373.299.912.448 1.616.448.928 0 1.643-.378 2.144-1.136.502-.757.763-1.893.784-3.408-.288.48-.688.854-1.2 1.12-.512.267-1.099.4-1.76.4-1.11 0-2.016-.352-2.72-1.056-.693-.704-1.04-1.6-1.04-2.688 0-1.152.357-2.074 1.072-2.768.715-.704 1.675-1.056 2.88-1.056 1.355 0 2.379.438 3.072 1.312.693.875 1.04 2.144 1.04 3.808v.72c0 1.91-.373 3.371-1.12 4.384-.736 1.003-1.797 1.504-3.184 1.504zm.208-5.248c.768 0 1.398-.229 1.888-.688.49-.458.736-1.056.736-1.792 0-.917-.245-1.632-.736-2.144-.48-.512-1.114-.768-1.904-.768-.746 0-1.354.246-1.824.736-.47.491-.704 1.136-.704 1.936 0 .832.23 1.494.688 1.984.459.491 1.078.736 1.856.736zm10.925 4.112c2.017 0 3.025-1.477 3.025-4.432v-.64c0-1.333-.273-2.394-.817-3.184-.544-.8-1.29-1.2-2.24-1.2-.97 0-1.727.384-2.272 1.152-.544.768-.816 1.856-.816 3.264v.64c0 1.419.278 2.507.833 3.264.554.758 1.317 1.136 2.288 1.136zm0 1.152c-1.365 0-2.463-.506-3.295-1.52-.833-1.013-1.248-2.352-1.248-4.016v-.64c0-1.696.4-3.045 1.2-4.048.81-1.002 1.914-1.504 3.311-1.504 1.387 0 2.475.507 3.264 1.52.8 1.014 1.2 2.347 1.2 4v.64c0 1.686-.394 3.035-1.184 4.048-.778 1.014-1.86 1.52-3.248 1.52z" fill="#fff"/><path opacity=".6" d="M5.412 270.733H3.384v5.436h-.996v-5.436H.36v-.84h5.052v.84zm6.893-.84h.996v6.276h-.996v-6.276zm-5.4 0h.996v2.196h1.116c.712 0 1.288.16 1.728.48.448.32.672.824.672 1.512v.036c0 .68-.224 1.192-.672 1.536-.448.344-1.024.516-1.728.516H6.905v-6.276zm2.172 5.484c.472 0 .812-.1 1.02-.3.216-.208.324-.528.324-.96v-.036c0-.4-.104-.7-.312-.9-.208-.208-.552-.312-1.032-.312H7.901v2.508h1.176zm9.038.9c-.896 0-1.632-.288-2.208-.864-.576-.584-.864-1.356-.864-2.316v-.096c0-.944.292-1.716.876-2.316.592-.6 1.316-.9 2.172-.9.72 0 1.332.18 1.836.54.504.352.8.904.888 1.656h-.984c-.144-.912-.724-1.368-1.74-1.368-.584 0-1.068.22-1.452.66-.376.432-.564 1.008-.564 1.728v.096c0 .752.184 1.332.552 1.74.376.408.876.612 1.5.612.472 0 .876-.132 1.212-.396.344-.272.54-.652.588-1.14h.924a2.49 2.49 0 01-.864 1.704c-.504.44-1.128.66-1.872.66zm7.656-6.384h.996v1.056c.184-.32.472-.592.864-.816a2.432 2.432 0 011.26-.348c.84 0 1.524.284 2.052.852.536.568.804 1.336.804 2.304v.096c0 .968-.264 1.752-.792 2.352-.52.592-1.208.888-2.064.888-.96 0-1.668-.38-2.124-1.14v3.216h-.996v-8.46zm3.024 5.556c.624 0 1.1-.2 1.428-.6.328-.408.492-.996.492-1.764v-.096c0-.76-.184-1.344-.552-1.752a1.743 1.743 0 00-1.38-.624c-.608 0-1.104.204-1.488.612-.376.4-.564.988-.564 1.764v.096c0 .776.184 1.364.552 1.764.376.4.88.6 1.512.6zm6.254.072l-2.46-5.628h1.068l1.92 4.5 1.74-4.5h1.02l-3.468 8.46h-1.008l1.188-2.832zm7.348.756c-.944 0-1.692-.304-2.244-.912-.552-.608-.828-1.532-.828-2.772v-.384c0-.592.024-1.116.072-1.572.048-.464.148-.928.3-1.392.152-.472.352-.864.6-1.176.248-.312.584-.572 1.008-.78.432-.208.94-.328 1.524-.36l.24-.012c.88-.048 1.476-.136 1.788-.264l.132.84c-.408.176-1.044.284-1.908.324l-.18.012c-.968.048-1.66.364-2.076.948-.408.576-.648 1.472-.72 2.688h.048c.216-.44.536-.788.96-1.044.432-.264.932-.396 1.5-.396.872 0 1.568.284 2.088.852.528.56.792 1.288.792 2.184v.048c0 .968-.292 1.74-.876 2.316-.576.568-1.316.852-2.22.852zm-1.5-1.44c.368.408.872.612 1.512.612s1.14-.2 1.5-.6c.368-.408.552-.984.552-1.728v-.024c0-.696-.168-1.244-.504-1.644-.328-.4-.808-.6-1.44-.6-.664 0-1.192.208-1.584.624-.384.416-.576.984-.576 1.704v.024c0 .68.18 1.224.54 1.632z" fill="#fff"/><path d="M22.537 183.927c-1.184 0-2.139-.33-2.864-.992-.715-.661-1.094-1.504-1.136-2.528h1.28c.064.726.325 1.307.784 1.744.458.438 1.114.656 1.968.656.874 0 1.525-.192 1.952-.576.437-.394.656-.938.656-1.632 0-1.482-.806-2.224-2.416-2.224h-.864v-1.168h.8c1.43 0 2.144-.65 2.144-1.952 0-.565-.176-1.024-.528-1.376-.352-.362-.87-.544-1.552-.544-.704 0-1.286.198-1.744.592-.448.395-.71.918-.784 1.568h-1.216c.042-.917.41-1.696 1.104-2.336.693-.64 1.573-.96 2.64-.96 1.045 0 1.877.299 2.496.896.63.587.944 1.296.944 2.128 0 1.163-.603 1.995-1.808 2.496 1.472.406 2.208 1.366 2.208 2.88 0 1.035-.379 1.851-1.136 2.448-.747.587-1.723.88-2.928.88zm10.883-1.152c2.016 0 3.024-1.477 3.024-4.432v-.64c0-1.333-.272-2.394-.816-3.184-.544-.8-1.29-1.2-2.24-1.2-.97 0-1.728.384-2.272 1.152-.544.768-.816 1.856-.816 3.264v.64c0 1.419.277 2.507.832 3.264.555.758 1.317 1.136 2.288 1.136zm0 1.152c-1.365 0-2.464-.506-3.296-1.52-.832-1.013-1.248-2.352-1.248-4.016v-.64c0-1.696.4-3.045 1.2-4.048.81-1.002 1.915-1.504 3.312-1.504 1.387 0 2.475.507 3.264 1.52.8 1.014 1.2 2.347 1.2 4v.64c0 1.686-.394 3.035-1.184 4.048-.779 1.014-1.861 1.52-3.248 1.52zm11.254-1.152c2.016 0 3.024-1.477 3.024-4.432v-.64c0-1.333-.272-2.394-.816-3.184-.544-.8-1.29-1.2-2.24-1.2-.97 0-1.728.384-2.272 1.152-.544.768-.816 1.856-.816 3.264v.64c0 1.419.277 2.507.832 3.264.555.758 1.317 1.136 2.288 1.136zm0 1.152c-1.365 0-2.464-.506-3.296-1.52-.832-1.013-1.248-2.352-1.248-4.016v-.64c0-1.696.4-3.045 1.2-4.048.81-1.002 1.915-1.504 3.312-1.504 1.387 0 2.475.507 3.264 1.52.8 1.014 1.2 2.347 1.2 4v.64c0 1.686-.395 3.035-1.184 4.048-.779 1.014-1.861 1.52-3.248 1.52z" fill="#fff"/><path opacity=".6" d="M5.412 199.408H3.384v5.436h-.996v-5.436H.36v-.84h5.052v.84zm6.893-.84h.996v6.276h-.996v-6.276zm-5.4 0h.996v2.196h1.116c.712 0 1.288.16 1.728.48.448.32.672.824.672 1.512v.036c0 .68-.224 1.192-.672 1.536-.448.344-1.024.516-1.728.516H6.905v-6.276zm2.172 5.484c.472 0 .812-.1 1.02-.3.216-.208.324-.528.324-.96v-.036c0-.4-.104-.7-.312-.9-.208-.208-.552-.312-1.032-.312H7.901v2.508h1.176zm9.038.9c-.896 0-1.632-.288-2.208-.864-.576-.584-.864-1.356-.864-2.316v-.096c0-.944.292-1.716.876-2.316.592-.6 1.316-.9 2.172-.9.72 0 1.332.18 1.836.54.504.352.8.904.888 1.656h-.984c-.144-.912-.724-1.368-1.74-1.368-.584 0-1.068.22-1.452.66-.376.432-.564 1.008-.564 1.728v.096c0 .752.184 1.332.552 1.74.376.408.876.612 1.5.612.472 0 .876-.132 1.212-.396.344-.272.54-.652.588-1.14h.924a2.49 2.49 0 01-.864 1.704c-.504.44-1.128.66-1.872.66zm7.656-6.384h.996v1.056c.184-.32.472-.592.864-.816a2.432 2.432 0 011.26-.348c.84 0 1.524.284 2.052.852.536.568.804 1.336.804 2.304v.096c0 .968-.264 1.752-.792 2.352-.52.592-1.208.888-2.064.888-.96 0-1.668-.38-2.124-1.14v3.216h-.996v-8.46zm3.024 5.556c.624 0 1.1-.2 1.428-.6.328-.408.492-.996.492-1.764v-.096c0-.76-.184-1.344-.552-1.752a1.743 1.743 0 00-1.38-.624c-.608 0-1.104.204-1.488.612-.376.4-.564.988-.564 1.764v.096c0 .776.184 1.364.552 1.764.376.4.88.6 1.512.6zm6.254.072l-2.46-5.628h1.068l1.92 4.5 1.74-4.5h1.02l-3.468 8.46h-1.008l1.188-2.832zm7.348.756c-.944 0-1.692-.304-2.244-.912-.552-.608-.828-1.532-.828-2.772v-.384c0-.592.024-1.116.072-1.572.048-.464.148-.928.3-1.392.152-.472.352-.864.6-1.176.248-.312.584-.572 1.008-.78.432-.208.94-.328 1.524-.36l.24-.012c.88-.048 1.476-.136 1.788-.264l.132.84c-.408.176-1.044.284-1.908.324l-.18.012c-.968.048-1.66.364-2.076.948-.408.576-.648 1.472-.72 2.688h.048c.216-.44.536-.788.96-1.044.432-.264.932-.396 1.5-.396.872 0 1.568.284 2.088.852.528.56.792 1.288.792 2.184v.048c0 .968-.292 1.74-.876 2.316-.576.568-1.316.852-2.22.852zm-1.5-1.44c.368.408.872.612 1.512.612s1.14-.2 1.5-.6c.368-.408.552-.984.552-1.728v-.024c0-.696-.168-1.244-.504-1.644-.328-.4-.808-.6-1.44-.6-.664 0-1.192.208-1.584.624-.384.416-.576.984-.576 1.704v.024c0 .68.18 1.224.54 1.632z" fill="#fff"/><path d="M19.248 468.764l4.544-4.784c1.099-1.163 1.648-2.267 1.648-3.312 0-.64-.181-1.141-.544-1.504-.352-.363-.853-.544-1.504-.544-1.386 0-2.192.848-2.416 2.544H19.68c.085-1.131.454-2.021 1.104-2.672.662-.661 1.53-.992 2.608-.992 1.056 0 1.893.293 2.512.88.63.576.944 1.355.944 2.336 0 1.259-.768 2.645-2.304 4.16l-3.152 3.072h5.52v1.136h-7.664v-.32zm13.834.464c-2.74 0-4.112-1.733-4.112-5.2v-.272c0-2.005.406-3.547 1.216-4.624.822-1.088 1.91-1.632 3.264-1.632.918 0 1.664.235 2.24.704.587.469.955 1.157 1.104 2.064h-1.328c-.128-.555-.357-.965-.688-1.232-.33-.267-.805-.4-1.424-.4-.885 0-1.6.395-2.144 1.184-.544.789-.832 1.92-.864 3.392.62-1.035 1.6-1.552 2.944-1.552 1.12 0 2.022.357 2.704 1.072.694.704 1.04 1.595 1.04 2.672 0 1.152-.357 2.08-1.072 2.784-.714.693-1.674 1.04-2.88 1.04zm0-1.088c.747 0 1.355-.245 1.824-.736.47-.491.704-1.136.704-1.936 0-.832-.229-1.493-.688-1.984-.458-.491-1.077-.736-1.856-.736-.768 0-1.397.235-1.888.704-.49.469-.736 1.077-.736 1.824 0 .907.24 1.611.72 2.112.491.501 1.131.752 1.92.752zm10.608-.064c2.016 0 3.024-1.477 3.024-4.432v-.64c0-1.333-.272-2.395-.816-3.184-.544-.8-1.29-1.2-2.24-1.2-.97 0-1.728.384-2.272 1.152-.544.768-.816 1.856-.816 3.264v.64c0 1.419.277 2.507.832 3.264.555.757 1.317 1.136 2.288 1.136zm0 1.152c-1.365 0-2.464-.507-3.296-1.52-.832-1.013-1.248-2.352-1.248-4.016v-.64c0-1.696.4-3.045 1.2-4.048.81-1.003 1.915-1.504 3.312-1.504 1.387 0 2.475.507 3.264 1.52.8 1.013 1.2 2.347 1.2 4v.64c0 1.685-.395 3.035-1.184 4.048-.779 1.013-1.861 1.52-3.248 1.52z" fill="#fff"/><path opacity=".6" d="M5.412 484.709H3.384v5.436h-.996v-5.436H.36v-.84h5.052v.84zm6.893-.84h.996v6.276h-.996v-6.276zm-5.4 0h.996v2.196h1.116c.712 0 1.288.16 1.728.48.448.32.672.824.672 1.512v.036c0 .68-.224 1.192-.672 1.536-.448.344-1.024.516-1.728.516H6.905v-6.276zm2.172 5.484c.472 0 .812-.1 1.02-.3.216-.208.324-.528.324-.96v-.036c0-.4-.104-.7-.312-.9-.208-.208-.552-.312-1.032-.312H7.901v2.508h1.176zm9.038.9c-.896 0-1.632-.288-2.208-.864-.576-.584-.864-1.356-.864-2.316v-.096c0-.944.292-1.716.876-2.316.592-.6 1.316-.9 2.172-.9.72 0 1.332.18 1.836.54.504.352.8.904.888 1.656h-.984c-.144-.912-.724-1.368-1.74-1.368-.584 0-1.068.22-1.452.66-.376.432-.564 1.008-.564 1.728v.096c0 .752.184 1.332.552 1.74.376.408.876.612 1.5.612.472 0 .876-.132 1.212-.396.344-.272.54-.652.588-1.14h.924a2.49 2.49 0 01-.864 1.704c-.504.44-1.128.66-1.872.66zm7.656-6.384h.996v1.056c.184-.32.472-.592.864-.816a2.432 2.432 0 011.26-.348c.84 0 1.524.284 2.052.852.536.568.804 1.336.804 2.304v.096c0 .968-.264 1.752-.792 2.352-.52.592-1.208.888-2.064.888-.96 0-1.668-.38-2.124-1.14v3.216h-.996v-8.46zm3.024 5.556c.624 0 1.1-.2 1.428-.6.328-.408.492-.996.492-1.764v-.096c0-.76-.184-1.344-.552-1.752a1.743 1.743 0 00-1.38-.624c-.608 0-1.104.204-1.488.612-.376.4-.564.988-.564 1.764v.096c0 .776.184 1.364.552 1.764.376.4.88.6 1.512.6zm6.254.072l-2.46-5.628h1.068l1.92 4.5 1.74-4.5h1.02l-3.468 8.46h-1.008l1.188-2.832zm7.348.756c-.944 0-1.692-.304-2.244-.912-.552-.608-.828-1.532-.828-2.772v-.384c0-.592.024-1.116.072-1.572.048-.464.148-.928.3-1.392.152-.472.352-.864.6-1.176.248-.312.584-.572 1.008-.78.432-.208.94-.328 1.524-.36l.24-.012c.88-.048 1.476-.136 1.788-.264l.132.84c-.408.176-1.044.284-1.908.324l-.18.012c-.968.048-1.66.364-2.076.948-.408.576-.648 1.472-.72 2.688h.048c.216-.44.536-.788.96-1.044.432-.264.932-.396 1.5-.396.872 0 1.568.284 2.088.852.528.56.792 1.288.792 2.184v.048c0 .968-.292 1.74-.876 2.316-.576.568-1.316.852-2.22.852zm-1.5-1.44c.368.408.872.612 1.512.612s1.14-.2 1.5-.6c.368-.408.552-.984.552-1.728v-.024c0-.696-.168-1.244-.504-1.644-.328-.4-.808-.6-1.44-.6-.664 0-1.192.208-1.584.624-.384.416-.576.984-.576 1.704v.024c0 .68.18 1.224.54 1.632zm393.755 33.295c-.616 0-1.12-.152-1.512-.456-.384-.312-.576-.776-.576-1.392 0-.344.084-.644.252-.9a1.74 1.74 0 01.72-.612c.304-.152.636-.26.996-.324.36-.072.752-.108 1.176-.108h.9v-.456c0-.504-.104-.864-.312-1.08-.208-.224-.552-.336-1.032-.336-.864 0-1.344.376-1.44 1.128h-.996c.064-.672.324-1.164.78-1.476.464-.32 1.032-.48 1.704-.48 1.528 0 2.292.748 2.292 2.244V522h-.996v-.792c-.48.6-1.132.9-1.956.9zm.096-.792c.544 0 .988-.132 1.332-.396.352-.272.528-.644.528-1.116v-.78h-.864c-1.456 0-2.184.412-2.184 1.236 0 .704.396 1.056 1.188 1.056zm8.82-4.752h-2.964V522h-.996v-6.276h4.956V522h-.996v-5.436zm3.205-.84h.996v1.056c.184-.32.472-.592.864-.816a2.432 2.432 0 011.26-.348c.84 0 1.524.284 2.052.852.536.568.804 1.336.804 2.304v.096c0 .968-.264 1.752-.792 2.352-.52.592-1.208.888-2.064.888-.96 0-1.668-.38-2.124-1.14v3.216h-.996v-8.46zm3.024 5.556c.624 0 1.1-.2 1.428-.6.328-.408.492-.996.492-1.764v-.096c0-.76-.184-1.344-.552-1.752a1.743 1.743 0 00-1.38-.624c-.608 0-1.104.204-1.488.612-.376.4-.564.988-.564 1.764v.096c0 .776.184 1.364.552 1.764.376.4.88.6 1.512.6zm7.188.828c-.896 0-1.628-.292-2.196-.876-.56-.584-.84-1.352-.84-2.304v-.096c0-.944.272-1.716.816-2.316.552-.6 1.26-.9 2.124-.9.8 0 1.468.26 2.004.78.544.512.816 1.292.816 2.34v.324h-4.728c.048 1.48.72 2.22 2.016 2.22.984 0 1.54-.364 1.668-1.092h.996c-.112.624-.404 1.1-.876 1.428-.472.328-1.072.492-1.8.492zm1.704-3.852c-.088-1.208-.688-1.812-1.8-1.812-.504 0-.92.16-1.248.48-.328.32-.536.764-.624 1.332h3.672zm3.854 1.32c-.072.864-.224 1.496-.456 1.896-.232.392-.596.588-1.092.588-.104 0-.212-.008-.324-.024l-.096-.036v-.948l.084.024c.08.016.164.024.252.024a.449.449 0 00.312-.108.782.782 0 00.204-.372c.056-.168.096-.324.12-.468.024-.152.052-.364.084-.636.032-.288.08-1.104.144-2.448l.036-1.344h4.14V522h-.996v-5.436h-2.256c-.072 1.728-.124 2.732-.156 3.012zm5.542-3.852h.996v2.196h1.116c.704 0 1.28.172 1.728.516.448.344.672.856.672 1.536v.036c0 .688-.224 1.192-.672 1.512-.44.32-1.016.48-1.728.48h-2.112v-6.276zm2.172 5.496c.48 0 .824-.1 1.032-.3.208-.208.312-.512.312-.912v-.036c0-.432-.108-.748-.324-.948-.208-.208-.548-.312-1.02-.312h-1.176v2.508h1.176zm211.395.888c-.616 0-1.12-.152-1.512-.456-.384-.312-.576-.776-.576-1.392 0-.344.084-.644.252-.9a1.74 1.74 0 01.72-.612c.304-.152.636-.26.996-.324.36-.072.752-.108 1.176-.108h.9v-.456c0-.504-.104-.864-.312-1.08-.208-.224-.552-.336-1.032-.336-.864 0-1.344.376-1.44 1.128h-.996c.064-.672.324-1.164.78-1.476.464-.32 1.032-.48 1.704-.48 1.528 0 2.292.748 2.292 2.244V522h-.996v-.792c-.48.6-1.132.9-1.956.9zm.096-.792c.544 0 .988-.132 1.332-.396.352-.272.528-.644.528-1.116v-.78h-.864c-1.456 0-2.184.412-2.184 1.236 0 .704.396 1.056 1.188 1.056zm4.86-5.592h2.196c1.472 0 2.208.532 2.208 1.596v.036a1.5 1.5 0 01-.252.84c-.168.248-.42.416-.756.504.872.192 1.308.664 1.308 1.416v.036c0 .608-.2 1.068-.6 1.38-.392.312-.94.468-1.644.468h-2.46v-6.276zm.996.792v1.86h1.2c.416 0 .712-.076.888-.228.184-.152.276-.4.276-.744v-.036c0-.32-.096-.54-.288-.66-.184-.128-.48-.192-.888-.192h-1.188zm0 2.652v2.04h1.368c.44 0 .764-.076.972-.228.216-.16.324-.416.324-.768v-.036c0-.352-.108-.608-.324-.768-.208-.16-.532-.24-.972-.24h-1.368zm6.413-2.604V522h-.996v-6.276h3.984v.84h-2.988zm6.48 4.788l-2.46-5.628h1.068l1.92 4.5 1.74-4.5h1.02l-3.468 8.46h-1.008l1.188-2.832zm7.147.756c-.896 0-1.632-.288-2.208-.864-.576-.584-.864-1.356-.864-2.316v-.096c0-.944.292-1.716.876-2.316.592-.6 1.316-.9 2.172-.9.72 0 1.332.18 1.836.54.504.352.8.904.888 1.656h-.984c-.144-.912-.724-1.368-1.74-1.368-.584 0-1.068.22-1.452.66-.376.432-.564 1.008-.564 1.728v.096c0 .752.184 1.332.552 1.74.376.408.876.612 1.5.612.472 0 .876-.132 1.212-.396.344-.272.54-.652.588-1.14h.924a2.49 2.49 0 01-.864 1.704c-.504.44-1.128.66-1.872.66zm8.692-5.544h-2.028V522h-.996v-5.436h-2.028v-.84h5.052v.84z" fill="#fff"/><path d="M679.35 542.554l3.976-4.186c.961-1.017 1.442-1.983 1.442-2.898 0-.56-.159-.999-.476-1.316-.308-.317-.747-.476-1.316-.476-1.213 0-1.918.742-2.114 2.226h-1.134c.075-.989.397-1.769.966-2.338.579-.579 1.339-.868 2.282-.868.924 0 1.657.257 2.198.77.551.504.826 1.185.826 2.044 0 1.101-.672 2.315-2.016 3.64l-2.758 2.688h4.83v.994h-6.706v-.28zm12.551-.602c1.764 0 2.646-1.293 2.646-3.878v-.56c0-1.167-.238-2.095-.714-2.786-.476-.7-1.129-1.05-1.96-1.05-.849 0-1.512.336-1.988 1.008-.476.672-.714 1.624-.714 2.856v.56c0 1.241.243 2.193.728 2.856.486.663 1.153.994 2.002.994zm0 1.008c-1.194 0-2.156-.443-2.884-1.33-.728-.887-1.092-2.058-1.092-3.514v-.56c0-1.484.35-2.665 1.05-3.542.71-.877 1.676-1.316 2.898-1.316 1.214 0 2.166.443 2.856 1.33.7.887 1.05 2.053 1.05 3.5v.56c0 1.475-.345 2.655-1.036 3.542-.681.887-1.628 1.33-2.842 1.33zm5.297-.406l3.976-4.186c.962-1.017 1.442-1.983 1.442-2.898 0-.56-.158-.999-.476-1.316-.308-.317-.746-.476-1.316-.476-1.213 0-1.918.742-2.114 2.226h-1.134c.075-.989.397-1.769.966-2.338.579-.579 1.34-.868 2.282-.868.924 0 1.657.257 2.198.77.551.504.826 1.185.826 2.044 0 1.101-.672 2.315-2.016 3.64l-2.758 2.688h4.83v.994h-6.706v-.28zm12.552-.602c1.764 0 2.646-1.293 2.646-3.878v-.56c0-1.167-.238-2.095-.714-2.786-.476-.7-1.13-1.05-1.96-1.05-.85 0-1.512.336-1.988 1.008-.476.672-.714 1.624-.714 2.856v.56c0 1.241.242 2.193.728 2.856.485.663 1.152.994 2.002.994zm0 1.008c-1.195 0-2.156-.443-2.884-1.33-.728-.887-1.092-2.058-1.092-3.514v-.56c0-1.484.35-2.665 1.05-3.542.709-.877 1.675-1.316 2.898-1.316 1.213 0 2.165.443 2.856 1.33.7.887 1.05 2.053 1.05 3.5v.56c0 1.475-.346 2.655-1.036 3.542-.682.887-1.629 1.33-2.842 1.33z" fill="#fff"/><path opacity=".6" d="M302.096 516.516c-.896 0-1.344.38-1.344 1.14v.036c0 .36.104.632.312.816.208.184.552.276 1.032.276h1.176v-2.268h-1.176zM300.44 522h-1.14l1.908-2.628c-.968-.2-1.452-.76-1.452-1.68v-.036c0-.656.224-1.14.672-1.452.448-.32 1.024-.48 1.728-.48h2.112V522h-.996v-2.46h-1.08L300.44 522zm10.049-2.796h-3.084V522h-.996v-6.276h.996v2.64h3.084v-2.64h.996V522h-.996v-2.796zm3.13-3.48h2.196c1.472 0 2.208.532 2.208 1.596v.036a1.5 1.5 0 01-.252.84c-.168.248-.42.416-.756.504.872.192 1.308.664 1.308 1.416v.036c0 .608-.2 1.068-.6 1.38-.392.312-.94.468-1.644.468h-2.46v-6.276zm.996.792v1.86h1.2c.416 0 .712-.076.888-.228.184-.152.276-.4.276-.744v-.036c0-.32-.096-.54-.288-.66-.184-.128-.48-.192-.888-.192h-1.188zm0 2.652v2.04h1.368c.44 0 .764-.076.972-.228.216-.16.324-.416.324-.768v-.036c0-.352-.108-.608-.324-.768-.208-.16-.532-.24-.972-.24h-1.368zm7.12 2.94c-.616 0-1.12-.152-1.512-.456-.384-.312-.576-.776-.576-1.392 0-.344.084-.644.252-.9a1.74 1.74 0 01.72-.612c.304-.152.636-.26.996-.324.36-.072.752-.108 1.176-.108h.9v-.456c0-.504-.104-.864-.312-1.08-.208-.224-.552-.336-1.032-.336-.864 0-1.344.376-1.44 1.128h-.996c.064-.672.324-1.164.78-1.476.464-.32 1.032-.48 1.704-.48 1.528 0 2.292.748 2.292 2.244V522h-.996v-.792c-.48.6-1.132.9-1.956.9zm.096-.792c.544 0 .988-.132 1.332-.396.352-.272.528-.644.528-1.116v-.78h-.864c-1.456 0-2.184.412-2.184 1.236 0 .704.396 1.056 1.188 1.056zm4.932-5.592h.996v1.056c.184-.32.472-.592.864-.816a2.432 2.432 0 011.26-.348c.84 0 1.524.284 2.052.852.536.568.804 1.336.804 2.304v.096c0 .968-.264 1.752-.792 2.352-.52.592-1.208.888-2.064.888-.96 0-1.668-.38-2.124-1.14v3.216h-.996v-8.46zm3.024 5.556c.624 0 1.1-.2 1.428-.6.328-.408.492-.996.492-1.764v-.096c0-.76-.184-1.344-.552-1.752a1.743 1.743 0 00-1.38-.624c-.608 0-1.104.204-1.488.612-.376.4-.564.988-.564 1.764v.096c0 .776.184 1.364.552 1.764.376.4.88.6 1.512.6zm4.548-5.556h.996v2.196h1.116c.704 0 1.28.172 1.728.516.448.344.672.856.672 1.536v.036c0 .688-.224 1.192-.672 1.512-.44.32-1.016.48-1.728.48h-2.112v-6.276zm2.172 5.496c.48 0 .824-.1 1.032-.3.208-.208.312-.512.312-.912v-.036c0-.432-.108-.748-.324-.948-.208-.208-.548-.312-1.02-.312h-1.176v2.508h1.176zm-147.275-1.644c-.088.736-.224 1.264-.408 1.584h2.94v-4.62h-2.304c-.04.976-.116 1.988-.228 3.036zm-1.248 3.948h-.804v-2.364h.444c.224-.056.38-.216.468-.48.088-.272.164-.66.228-1.164.072-.648.14-1.464.204-2.448.032-.44.056-.888.072-1.344h4.14v5.436h.96v2.364h-.804L192.82 522h-4.764l-.072 1.524zm9.663-1.416c-.896 0-1.628-.292-2.196-.876-.56-.584-.84-1.352-.84-2.304v-.096c0-.944.272-1.716.816-2.316.552-.6 1.26-.9 2.124-.9.8 0 1.468.26 2.004.78.544.512.816 1.292.816 2.34v.324h-4.728c.048 1.48.72 2.22 2.016 2.22.984 0 1.54-.364 1.668-1.092h.996c-.112.624-.404 1.1-.876 1.428-.472.328-1.072.492-1.8.492zm1.704-3.852c-.088-1.208-.688-1.812-1.8-1.812-.504 0-.92.16-1.248.48-.328.32-.536.764-.624 1.332h3.672zm3.592.54V522h-.996v-6.276h.996v2.928l2.604-2.928h1.164l-2.688 2.952 2.916 3.324h-1.212l-2.784-3.204zm6.897 3.312c-.616 0-1.12-.152-1.512-.456-.384-.312-.576-.776-.576-1.392 0-.344.084-.644.252-.9a1.74 1.74 0 01.72-.612c.304-.152.636-.26.996-.324.36-.072.752-.108 1.176-.108h.9v-.456c0-.504-.104-.864-.312-1.08-.208-.224-.552-.336-1.032-.336-.864 0-1.344.376-1.44 1.128h-.996c.064-.672.324-1.164.78-1.476.464-.32 1.032-.48 1.704-.48 1.528 0 2.292.748 2.292 2.244V522h-.996v-.792c-.48.6-1.132.9-1.956.9zm.096-.792c.544 0 .988-.132 1.332-.396.352-.272.528-.644.528-1.116v-.78h-.864c-1.456 0-2.184.412-2.184 1.236 0 .704.396 1.056 1.188 1.056zm7.561.792c-.944 0-1.692-.304-2.244-.912-.552-.608-.828-1.532-.828-2.772v-.384c0-.592.024-1.116.072-1.572.048-.464.148-.928.3-1.392.152-.472.352-.864.6-1.176.248-.312.584-.572 1.008-.78.432-.208.94-.328 1.524-.36l.24-.012c.88-.048 1.476-.136 1.788-.264l.132.84c-.408.176-1.044.284-1.908.324l-.18.012c-.968.048-1.66.364-2.076.948-.408.576-.648 1.472-.72 2.688h.048c.216-.44.536-.788.96-1.044.432-.264.932-.396 1.5-.396.872 0 1.568.284 2.088.852.528.56.792 1.288.792 2.184v.048c0 .968-.292 1.74-.876 2.316-.576.568-1.316.852-2.22.852zm-1.5-1.44c.368.408.872.612 1.512.612s1.14-.2 1.5-.6c.368-.408.552-.984.552-1.728v-.024c0-.696-.168-1.244-.504-1.644-.328-.4-.808-.6-1.44-.6-.664 0-1.192.208-1.584.624-.384.416-.576.984-.576 1.704v.024c0 .68.18 1.224.54 1.632zm6.339-4.944h.996v1.056c.184-.32.472-.592.864-.816a2.432 2.432 0 011.26-.348c.84 0 1.524.284 2.052.852.536.568.804 1.336.804 2.304v.096c0 .968-.264 1.752-.792 2.352-.52.592-1.208.888-2.064.888-.96 0-1.668-.38-2.124-1.14v3.216h-.996v-8.46zm3.024 5.556c.624 0 1.1-.2 1.428-.6.328-.408.492-.996.492-1.764v-.096c0-.76-.184-1.344-.552-1.752a1.743 1.743 0 00-1.38-.624c-.608 0-1.104.204-1.488.612-.376.4-.564.988-.564 1.764v.096c0 .776.184 1.364.552 1.764.376.4.88.6 1.512.6zm4.548-5.556h.996v2.196h1.116c.704 0 1.28.172 1.728.516.448.344.672.856.672 1.536v.036c0 .688-.224 1.192-.672 1.512-.44.32-1.016.48-1.728.48h-2.112v-6.276zm2.172 5.496c.48 0 .824-.1 1.032-.3.208-.208.312-.512.312-.912v-.036c0-.432-.108-.748-.324-.948-.208-.208-.548-.312-1.02-.312h-1.176v2.508h1.176zm326.768-4.512V522h-.828v-6.276h1.404l1.788 4.716 1.836-4.716h1.368V522h-.984v-5.292L561.356 522h-.456l-2.052-5.292zm9.362 5.4c-.616 0-1.121-.152-1.513-.456-.384-.312-.576-.776-.576-1.392 0-.344.084-.644.252-.9a1.74 1.74 0 01.72-.612c.304-.152.636-.26.997-.324.36-.072.752-.108 1.176-.108h.899v-.456c0-.504-.104-.864-.311-1.08-.208-.224-.552-.336-1.032-.336-.865 0-1.345.376-1.44 1.128h-.997c.064-.672.324-1.164.78-1.476.464-.32 1.032-.48 1.705-.48 1.528 0 2.291.748 2.291 2.244V522h-.996v-.792c-.48.6-1.132.9-1.955.9zm.096-.792c.544 0 .988-.132 1.331-.396.352-.272.528-.644.528-1.116v-.78h-.864c-1.456 0-2.183.412-2.183 1.236 0 .704.396 1.056 1.188 1.056zm7.44-6.744c-.432 0-.8-.148-1.104-.444a1.632 1.632 0 01-.48-1.14h.864c.048.592.288.888.72.888.472 0 .736-.296.792-.888h.84a1.702 1.702 0 01-.516 1.14 1.539 1.539 0 01-1.116.444zm-2.58 7.428v-6.276h.996v4.836l3.204-4.836h.996V522h-.996v-4.836L574.162 522h-.996z" fill="#fff"/><path d="M557.35 542.554l3.976-4.186c.961-1.017 1.442-1.983 1.442-2.898 0-.56-.159-.999-.476-1.316-.308-.317-.747-.476-1.316-.476-1.213 0-1.918.742-2.114 2.226h-1.134c.075-.989.397-1.769.966-2.338.579-.579 1.339-.868 2.282-.868.924 0 1.657.257 2.198.77.551.504.826 1.185.826 2.044 0 1.101-.672 2.315-2.016 3.64l-2.758 2.688h4.83v.994h-6.706v-.28zm12.551-.602c1.764 0 2.646-1.293 2.646-3.878v-.56c0-1.167-.238-2.095-.714-2.786-.476-.7-1.129-1.05-1.96-1.05-.849 0-1.512.336-1.988 1.008-.476.672-.714 1.624-.714 2.856v.56c0 1.241.243 2.193.728 2.856.486.663 1.153.994 2.002.994zm0 1.008c-1.194 0-2.156-.443-2.884-1.33-.728-.887-1.092-2.058-1.092-3.514v-.56c0-1.484.35-2.665 1.05-3.542.71-.877 1.676-1.316 2.898-1.316 1.214 0 2.166.443 2.856 1.33.7.887 1.05 2.053 1.05 3.5v.56c0 1.475-.345 2.655-1.036 3.542-.681.887-1.628 1.33-2.842 1.33zm5.297-.406l3.976-4.186c.962-1.017 1.442-1.983 1.442-2.898 0-.56-.158-.999-.476-1.316-.308-.317-.746-.476-1.316-.476-1.213 0-1.918.742-2.114 2.226h-1.134c.075-.989.397-1.769.966-2.338.579-.579 1.34-.868 2.282-.868.924 0 1.657.257 2.198.77.551.504.826 1.185.826 2.044 0 1.101-.672 2.315-2.016 3.64l-2.758 2.688h4.83v.994h-6.706v-.28zm12.552-.602c1.764 0 2.646-1.293 2.646-3.878v-.56c0-1.167-.238-2.095-.714-2.786-.476-.7-1.13-1.05-1.96-1.05-.85 0-1.512.336-1.988 1.008-.476.672-.714 1.624-.714 2.856v.56c0 1.241.242 2.193.728 2.856.485.663 1.152.994 2.002.994zm0 1.008c-1.195 0-2.156-.443-2.884-1.33-.728-.887-1.092-2.058-1.092-3.514v-.56c0-1.484.35-2.665 1.05-3.542.709-.877 1.675-1.316 2.898-1.316 1.213 0 2.165.443 2.856 1.33.7.887 1.05 2.053 1.05 3.5v.56c0 1.475-.346 2.655-1.036 3.542-.682.887-1.629 1.33-2.842 1.33z" fill="#fff"/><path opacity=".6" d="M805.684 522.108c-.896 0-1.632-.288-2.208-.864-.576-.584-.864-1.356-.864-2.316v-.096c0-.944.292-1.716.876-2.316.592-.6 1.316-.9 2.172-.9.72 0 1.332.18 1.836.54.504.352.8.904.888 1.656h-.984c-.144-.912-.724-1.368-1.74-1.368-.584 0-1.068.22-1.452.66-.376.432-.564 1.008-.564 1.728v.096c0 .752.184 1.332.552 1.74.376.408.876.612 1.5.612.472 0 .876-.132 1.212-.396.344-.272.54-.652.588-1.14h.924a2.49 2.49 0 01-.864 1.704c-.504.44-1.128.66-1.872.66zm6.928 0c-.896 0-1.628-.292-2.196-.876-.56-.584-.84-1.352-.84-2.304v-.096c0-.944.272-1.716.816-2.316.552-.6 1.26-.9 2.124-.9.8 0 1.468.26 2.004.78.544.512.816 1.292.816 2.34v.324h-4.728c.048 1.48.72 2.22 2.016 2.22.984 0 1.54-.364 1.668-1.092h.996c-.112.624-.404 1.1-.876 1.428-.472.328-1.072.492-1.8.492zm1.704-3.852c-.088-1.208-.688-1.812-1.8-1.812-.504 0-.92.16-1.248.48-.328.32-.536.764-.624 1.332h3.672zm6.676.948h-3.084V522h-.996v-6.276h.996v2.64h3.084v-2.64h.996V522h-.996v-2.796zm7.534-2.64h-2.028V522h-.996v-5.436h-2.028v-.84h5.052v.84zm3.581-.048c-.896 0-1.344.38-1.344 1.14v.036c0 .36.104.632.312.816.208.184.552.276 1.032.276h1.176v-2.268h-1.176zM830.451 522h-1.14l1.908-2.628c-.968-.2-1.452-.76-1.452-1.68v-.036c0-.656.224-1.14.672-1.452.448-.32 1.024-.48 1.728-.48h2.112V522h-.996v-2.46h-1.08l-1.752 2.46zm8.669.108c-.944 0-1.692-.304-2.244-.912-.552-.608-.828-1.532-.828-2.772v-.384c0-.592.024-1.116.072-1.572.048-.464.148-.928.3-1.392.152-.472.352-.864.6-1.176.248-.312.584-.572 1.008-.78.432-.208.94-.328 1.524-.36l.24-.012c.88-.048 1.476-.136 1.788-.264l.132.84c-.408.176-1.044.284-1.908.324l-.18.012c-.968.048-1.66.364-2.076.948-.408.576-.648 1.472-.72 2.688h.048c.216-.44.536-.788.96-1.044.432-.264.932-.396 1.5-.396.872 0 1.568.284 2.088.852.528.56.792 1.288.792 2.184v.048c0 .968-.292 1.74-.876 2.316-.576.568-1.316.852-2.22.852zm-1.5-1.44c.368.408.872.612 1.512.612s1.14-.2 1.5-.6c.368-.408.552-.984.552-1.728v-.024c0-.696-.168-1.244-.504-1.644-.328-.4-.808-.6-1.44-.6-.664 0-1.192.208-1.584.624-.384.416-.576.984-.576 1.704v.024c0 .68.18 1.224.54 1.632zm6.34-4.944h.996v1.056c.184-.32.472-.592.864-.816a2.432 2.432 0 011.26-.348c.84 0 1.524.284 2.052.852.536.568.804 1.336.804 2.304v.096c0 .968-.264 1.752-.792 2.352-.52.592-1.208.888-2.064.888-.96 0-1.668-.38-2.124-1.14v3.216h-.996v-8.46zm3.024 5.556c.624 0 1.1-.2 1.428-.6.328-.408.492-.996.492-1.764v-.096c0-.76-.184-1.344-.552-1.752a1.743 1.743 0 00-1.38-.624c-.608 0-1.104.204-1.488.612-.376.4-.564.988-.564 1.764v.096c0 .776.184 1.364.552 1.764.376.4.88.6 1.512.6zm4.548-5.556h.996v2.196h1.116c.704 0 1.28.172 1.728.516.448.344.672.856.672 1.536v.036c0 .688-.224 1.192-.672 1.512-.44.32-1.016.48-1.728.48h-2.112v-6.276zm2.172 5.496c.48 0 .824-.1 1.032-.3.208-.208.312-.512.312-.912v-.036c0-.432-.108-.748-.324-.948-.208-.208-.548-.312-1.02-.312h-1.176v2.508h1.176z" fill="#fff"/><path d="M802.35 542.554l3.976-4.186c.961-1.017 1.442-1.983 1.442-2.898 0-.56-.159-.999-.476-1.316-.308-.317-.747-.476-1.316-.476-1.213 0-1.918.742-2.114 2.226h-1.134c.075-.989.397-1.769.966-2.338.579-.579 1.339-.868 2.282-.868.924 0 1.657.257 2.198.77.551.504.826 1.185.826 2.044 0 1.101-.672 2.315-2.016 3.64l-2.758 2.688h4.83v.994h-6.706v-.28zm12.551-.602c1.764 0 2.646-1.293 2.646-3.878v-.56c0-1.167-.238-2.095-.714-2.786-.476-.7-1.129-1.05-1.96-1.05-.849 0-1.512.336-1.988 1.008-.476.672-.714 1.624-.714 2.856v.56c0 1.241.243 2.193.728 2.856.486.663 1.153.994 2.002.994zm0 1.008c-1.194 0-2.156-.443-2.884-1.33-.728-.887-1.092-2.058-1.092-3.514v-.56c0-1.484.35-2.665 1.05-3.542.71-.877 1.676-1.316 2.898-1.316 1.214 0 2.166.443 2.856 1.33.7.887 1.05 2.053 1.05 3.5v.56c0 1.475-.345 2.655-1.036 3.542-.681.887-1.628 1.33-2.842 1.33zm5.297-.406l3.976-4.186c.962-1.017 1.442-1.983 1.442-2.898 0-.56-.158-.999-.476-1.316-.308-.317-.746-.476-1.316-.476-1.213 0-1.918.742-2.114 2.226h-1.134c.075-.989.397-1.769.966-2.338.579-.579 1.34-.868 2.282-.868.924 0 1.657.257 2.198.77.551.504.826 1.185.826 2.044 0 1.101-.672 2.315-2.016 3.64l-2.758 2.688h4.83v.994h-6.706v-.28zm12.552-.602c1.764 0 2.646-1.293 2.646-3.878v-.56c0-1.167-.238-2.095-.714-2.786-.476-.7-1.13-1.05-1.96-1.05-.85 0-1.512.336-1.988 1.008-.476.672-.714 1.624-.714 2.856v.56c0 1.241.242 2.193.728 2.856.485.663 1.152.994 2.002.994zm0 1.008c-1.195 0-2.156-.443-2.884-1.33-.728-.887-1.092-2.058-1.092-3.514v-.56c0-1.484.35-2.665 1.05-3.542.709-.877 1.675-1.316 2.898-1.316 1.213 0 2.165.443 2.856 1.33.7.887 1.05 2.053 1.05 3.5v.56c0 1.475-.346 2.655-1.036 3.542-.682.887-1.629 1.33-2.842 1.33z" fill="#fff"/><path opacity=".6" d="M5.412 413.383H3.384v5.436h-.996v-5.436H.36v-.84h5.052v.84zm6.893-.84h.996v6.276h-.996v-6.276zm-5.4 0h.996v2.196h1.116c.712 0 1.288.16 1.728.48.448.32.672.824.672 1.512v.036c0 .68-.224 1.192-.672 1.536-.448.344-1.024.516-1.728.516H6.905v-6.276zm2.172 5.484c.472 0 .812-.1 1.02-.3.216-.208.324-.528.324-.96v-.036c0-.4-.104-.7-.312-.9-.208-.208-.552-.312-1.032-.312H7.901v2.508h1.176zm9.038.9c-.896 0-1.632-.288-2.208-.864-.576-.584-.864-1.356-.864-2.316v-.096c0-.944.292-1.716.876-2.316.592-.6 1.316-.9 2.172-.9.72 0 1.332.18 1.836.54.504.352.8.904.888 1.656h-.984c-.144-.912-.724-1.368-1.74-1.368-.584 0-1.068.22-1.452.66-.376.432-.564 1.008-.564 1.728v.096c0 .752.184 1.332.552 1.74.376.408.876.612 1.5.612.472 0 .876-.132 1.212-.396.344-.272.54-.652.588-1.14h.924a2.49 2.49 0 01-.864 1.704c-.504.44-1.128.66-1.872.66zm7.656-6.384h.996v1.056c.184-.32.472-.592.864-.816a2.432 2.432 0 011.26-.348c.84 0 1.524.284 2.052.852.536.568.804 1.336.804 2.304v.096c0 .968-.264 1.752-.792 2.352-.52.592-1.208.888-2.064.888-.96 0-1.668-.38-2.124-1.14v3.216h-.996v-8.46zm3.024 5.556c.624 0 1.1-.2 1.428-.6.328-.408.492-.996.492-1.764v-.096c0-.76-.184-1.344-.552-1.752a1.743 1.743 0 00-1.38-.624c-.608 0-1.104.204-1.488.612-.376.4-.564.988-.564 1.764v.096c0 .776.184 1.364.552 1.764.376.4.88.6 1.512.6zm6.254.072l-2.46-5.628h1.068l1.92 4.5 1.74-4.5h1.02l-3.468 8.46h-1.008l1.188-2.832zm7.348.756c-.944 0-1.692-.304-2.244-.912-.552-.608-.828-1.532-.828-2.772v-.384c0-.592.024-1.116.072-1.572.048-.464.148-.928.3-1.392.152-.472.352-.864.6-1.176.248-.312.584-.572 1.008-.78.432-.208.94-.328 1.524-.36l.24-.012c.88-.048 1.476-.136 1.788-.264l.132.84c-.408.176-1.044.284-1.908.324l-.18.012c-.968.048-1.66.364-2.076.948-.408.576-.648 1.472-.72 2.688h.048c.216-.44.536-.788.96-1.044.432-.264.932-.396 1.5-.396.872 0 1.568.284 2.088.852.528.56.792 1.288.792 2.184v.048c0 .968-.292 1.74-.876 2.316-.576.568-1.316.852-2.22.852zm-1.5-1.44c.368.408.872.612 1.512.612s1.14-.2 1.5-.6c.368-.408.552-.984.552-1.728v-.024c0-.696-.168-1.244-.504-1.644-.328-.4-.808-.6-1.44-.6-.664 0-1.192.208-1.584.624-.384.416-.576.984-.576 1.704v.024c0 .68.18 1.224.54 1.632z" fill="#fff"/><path d="M16.107 397.439l4.544-4.784c1.098-1.163 1.648-2.267 1.648-3.312 0-.64-.182-1.142-.544-1.504-.352-.363-.854-.544-1.505-.544-1.386 0-2.192.848-2.416 2.544h-1.296c.086-1.131.454-2.022 1.104-2.672.662-.662 1.531-.992 2.608-.992 1.056 0 1.894.293 2.512.88.63.576.944 1.354.944 2.336 0 1.258-.767 2.645-2.303 4.16l-3.152 3.072h5.52v1.136h-7.665v-.32zm15.082-10H25.38v-1.12h7.536v.192l-4.288 11.248h-1.424l3.984-10.32zm7.703 9.312c2.016 0 3.024-1.478 3.024-4.432v-.64c0-1.334-.272-2.395-.816-3.184-.544-.8-1.29-1.2-2.24-1.2-.97 0-1.728.384-2.272 1.152-.544.768-.816 1.856-.816 3.264v.64c0 1.418.278 2.506.832 3.264.555.757 1.318 1.136 2.288 1.136zm0 1.152c-1.365 0-2.464-.507-3.296-1.52-.832-1.014-1.248-2.352-1.248-4.016v-.64c0-1.696.4-3.046 1.2-4.048.81-1.003 1.915-1.504 3.312-1.504 1.387 0 2.475.506 3.264 1.52.8 1.013 1.2 2.346 1.2 4v.64c0 1.685-.395 3.034-1.184 4.048-.779 1.013-1.861 1.52-3.248 1.52z" fill="#fff"/><path opacity=".6" d="M5.412 342.058H3.384v5.436h-.996v-5.436H.36v-.84h5.052v.84zm6.893-.84h.996v6.276h-.996v-6.276zm-5.4 0h.996v2.196h1.116c.712 0 1.288.16 1.728.48.448.32.672.824.672 1.512v.036c0 .68-.224 1.192-.672 1.536-.448.344-1.024.516-1.728.516H6.905v-6.276zm2.172 5.484c.472 0 .812-.1 1.02-.3.216-.208.324-.528.324-.96v-.036c0-.4-.104-.7-.312-.9-.208-.208-.552-.312-1.032-.312H7.901v2.508h1.176zm9.038.9c-.896 0-1.632-.288-2.208-.864-.576-.584-.864-1.356-.864-2.316v-.096c0-.944.292-1.716.876-2.316.592-.6 1.316-.9 2.172-.9.72 0 1.332.18 1.836.54.504.352.8.904.888 1.656h-.984c-.144-.912-.724-1.368-1.74-1.368-.584 0-1.068.22-1.452.66-.376.432-.564 1.008-.564 1.728v.096c0 .752.184 1.332.552 1.74.376.408.876.612 1.5.612.472 0 .876-.132 1.212-.396.344-.272.54-.652.588-1.14h.924a2.49 2.49 0 01-.864 1.704c-.504.44-1.128.66-1.872.66zm7.656-6.384h.996v1.056c.184-.32.472-.592.864-.816a2.432 2.432 0 011.26-.348c.84 0 1.524.284 2.052.852.536.568.804 1.336.804 2.304v.096c0 .968-.264 1.752-.792 2.352-.52.592-1.208.888-2.064.888-.96 0-1.668-.38-2.124-1.14v3.216h-.996v-8.46zm3.024 5.556c.624 0 1.1-.2 1.428-.6.328-.408.492-.996.492-1.764v-.096c0-.76-.184-1.344-.552-1.752a1.743 1.743 0 00-1.38-.624c-.608 0-1.104.204-1.488.612-.376.4-.564.988-.564 1.764v.096c0 .776.184 1.364.552 1.764.376.4.88.6 1.512.6zm6.254.072l-2.46-5.628h1.068l1.92 4.5 1.74-4.5h1.02l-3.468 8.46h-1.008l1.188-2.832zm7.348.756c-.944 0-1.692-.304-2.244-.912-.552-.608-.828-1.532-.828-2.772v-.384c0-.592.024-1.116.072-1.572.048-.464.148-.928.3-1.392.152-.472.352-.864.6-1.176.248-.312.584-.572 1.008-.78.432-.208.94-.328 1.524-.36l.24-.012c.88-.048 1.476-.136 1.788-.264l.132.84c-.408.176-1.044.284-1.908.324l-.18.012c-.968.048-1.66.364-2.076.948-.408.576-.648 1.472-.72 2.688h.048c.216-.44.536-.788.96-1.044.432-.264.932-.396 1.5-.396.872 0 1.568.284 2.088.852.528.56.792 1.288.792 2.184v.048c0 .968-.292 1.74-.876 2.316-.576.568-1.316.852-2.22.852zm-1.5-1.44c.368.408.872.612 1.512.612s1.14-.2 1.5-.6c.368-.408.552-.984.552-1.728v-.024c0-.696-.168-1.244-.504-1.644-.328-.4-.808-.6-1.44-.6-.664 0-1.192.208-1.584.624-.384.416-.576.984-.576 1.704v.024c0 .68.18 1.224.54 1.632z" fill="#fff"/><path d="M18.2 326.114l4.545-4.784c1.098-1.163 1.648-2.267 1.648-3.312 0-.64-.182-1.142-.544-1.504-.352-.363-.854-.544-1.504-.544-1.387 0-2.192.848-2.416 2.544h-1.296c.085-1.131.453-2.022 1.104-2.672.661-.662 1.53-.992 2.608-.992 1.056 0 1.893.293 2.512.88.63.576.944 1.354.944 2.336 0 1.258-.768 2.645-2.304 4.16l-3.152 3.072h5.52v1.136H18.2v-.32zm13.627.464c-.65 0-1.27-.118-1.856-.352a3.595 3.595 0 01-1.488-1.168c-.405-.534-.608-1.158-.608-1.872 0-.736.197-1.355.592-1.856.395-.502.917-.87 1.568-1.104-1.152-.459-1.728-1.259-1.728-2.4 0-.875.352-1.59 1.056-2.144a3.906 3.906 0 012.464-.832c.928 0 1.744.277 2.448.832.704.544 1.056 1.248 1.056 2.112 0 1.098-.587 1.904-1.76 2.416 1.461.544 2.192 1.525 2.192 2.944 0 1.077-.395 1.92-1.184 2.528-.779.597-1.696.896-2.752.896zm0-1.136c.736 0 1.339-.203 1.808-.608.47-.416.704-.992.704-1.728 0-.715-.24-1.27-.72-1.664-.47-.406-1.056-.608-1.76-.608-.725 0-1.333.202-1.824.608-.49.394-.736.96-.736 1.696 0 .714.245 1.28.736 1.696.49.405 1.088.608 1.792.608zm.048-5.712c.619 0 1.115-.171 1.488-.512.373-.342.56-.811.56-1.408 0-.544-.197-.992-.592-1.344-.395-.352-.896-.528-1.504-.528-.619 0-1.125.17-1.52.512-.395.341-.592.805-.592 1.392 0 .576.208 1.034.624 1.376.416.341.928.512 1.536.512zm10.502 5.696c2.016 0 3.024-1.478 3.024-4.432v-.64c0-1.334-.272-2.395-.816-3.184-.544-.8-1.29-1.2-2.24-1.2-.97 0-1.728.384-2.272 1.152-.544.768-.816 1.856-.816 3.264v.64c0 1.418.277 2.506.832 3.264.555.757 1.317 1.136 2.288 1.136zm0 1.152c-1.365 0-2.464-.507-3.296-1.52-.832-1.014-1.248-2.352-1.248-4.016v-.64c0-1.696.4-3.046 1.2-4.048.81-1.003 1.915-1.504 3.312-1.504 1.387 0 2.475.506 3.264 1.52.8 1.013 1.2 2.346 1.2 4v.64c0 1.685-.395 3.034-1.184 4.048-.779 1.013-1.861 1.52-3.248 1.52z" fill="#fff"/><circle cx="292.54" cy="329.5" r="5.5" fill="#F1D5C0"/><circle cx="171.5" cy="466.5" r="5.5" fill="#F1D5C0"/><circle cx="415.864" cy="251.5" r="5.5" fill="#F1D5C0"/><circle cx="662.983" cy="119.271" r="5.5" fill="#F1D5C0"/><circle cx="786.542" cy="37.5" r="5.5" fill="#F1D5C0"/><path opacity=".6" d="M5.412 128.083H3.384v5.436h-.996v-5.436H.36v-.84h5.052v.84zm6.893-.84h.996v6.276h-.996v-6.276zm-5.4 0h.996v2.196h1.116c.712 0 1.288.16 1.728.48.448.32.672.824.672 1.512v.036c0 .68-.224 1.192-.672 1.536-.448.344-1.024.516-1.728.516H6.905v-6.276zm2.172 5.484c.472 0 .812-.1 1.02-.3.216-.208.324-.528.324-.96v-.036c0-.4-.104-.7-.312-.9-.208-.208-.552-.312-1.032-.312H7.901v2.508h1.176zm9.038.9c-.896 0-1.632-.288-2.208-.864-.576-.584-.864-1.356-.864-2.316v-.096c0-.944.292-1.716.876-2.316.592-.6 1.316-.9 2.172-.9.72 0 1.332.18 1.836.54.504.352.8.904.888 1.656h-.984c-.144-.912-.724-1.368-1.74-1.368-.584 0-1.068.22-1.452.66-.376.432-.564 1.008-.564 1.728v.096c0 .752.184 1.332.552 1.74.376.408.876.612 1.5.612.472 0 .876-.132 1.212-.396.344-.272.54-.652.588-1.14h.924a2.49 2.49 0 01-.864 1.704c-.504.44-1.128.66-1.872.66zm7.656-6.384h.996v1.056c.184-.32.472-.592.864-.816a2.432 2.432 0 011.26-.348c.84 0 1.524.284 2.052.852.536.568.804 1.336.804 2.304v.096c0 .968-.264 1.752-.792 2.352-.52.592-1.208.888-2.064.888-.96 0-1.668-.38-2.124-1.14v3.216h-.996v-8.46zm3.024 5.556c.624 0 1.1-.2 1.428-.6.328-.408.492-.996.492-1.764v-.096c0-.76-.184-1.344-.552-1.752a1.743 1.743 0 00-1.38-.624c-.608 0-1.104.204-1.488.612-.376.4-.564.988-.564 1.764v.096c0 .776.184 1.364.552 1.764.376.4.88.6 1.512.6zm6.254.072l-2.46-5.628h1.068l1.92 4.5 1.74-4.5h1.02l-3.468 8.46h-1.008l1.188-2.832zm7.348.756c-.944 0-1.692-.304-2.244-.912-.552-.608-.828-1.532-.828-2.772v-.384c0-.592.024-1.116.072-1.572.048-.464.148-.928.3-1.392.152-.472.352-.864.6-1.176.248-.312.584-.572 1.008-.78.432-.208.94-.328 1.524-.36l.24-.012c.88-.048 1.476-.136 1.788-.264l.132.84c-.408.176-1.044.284-1.908.324l-.18.012c-.968.048-1.66.364-2.076.948-.408.576-.648 1.472-.72 2.688h.048c.216-.44.536-.788.96-1.044.432-.264.932-.396 1.5-.396.872 0 1.568.284 2.088.852.528.56.792 1.288.792 2.184v.048c0 .968-.292 1.74-.876 2.316-.576.568-1.316.852-2.22.852zm-1.5-1.44c.368.408.872.612 1.512.612s1.14-.2 1.5-.6c.368-.408.552-.984.552-1.728v-.024c0-.696-.168-1.244-.504-1.644-.328-.4-.808-.6-1.44-.6-.664 0-1.192.208-1.584.624-.384.416-.576.984-.576 1.704v.024c0 .68.18 1.224.54 1.632z" fill="#fff"/><path d="M19.396 115.457c-1.184 0-2.139-.33-2.864-.992-.715-.661-1.094-1.504-1.136-2.528h1.28c.064.726.325 1.307.784 1.744.458.438 1.114.656 1.968.656.874 0 1.525-.192 1.952-.576.437-.394.656-.938.656-1.632 0-1.482-.806-2.224-2.416-2.224h-.864v-1.168h.8c1.429 0 2.144-.65 2.144-1.952 0-.565-.176-1.024-.528-1.376-.352-.362-.87-.544-1.552-.544-.704 0-1.286.198-1.744.592-.448.395-.71.918-.784 1.568h-1.216c.042-.917.41-1.696 1.104-2.336.693-.64 1.573-.96 2.64-.96 1.045 0 1.877.299 2.496.896.629.587.944 1.296.944 2.128 0 1.163-.603 1.995-1.808 2.496 1.472.406 2.208 1.366 2.208 2.88 0 1.035-.379 1.851-1.136 2.448-.747.587-1.723.88-2.928.88zm8.389-10.208l-2.56 1.84v-1.296l2.656-1.92h1.296v11.44h-1.392v-10.064zm9.154 9.056c2.016 0 3.024-1.477 3.024-4.432v-.64c0-1.333-.272-2.394-.816-3.184-.544-.8-1.29-1.2-2.24-1.2-.97 0-1.728.384-2.272 1.152-.544.768-.816 1.856-.816 3.264v.64c0 1.419.277 2.507.832 3.264.555.758 1.317 1.136 2.288 1.136zm0 1.152c-1.365 0-2.464-.506-3.296-1.52-.832-1.013-1.248-2.352-1.248-4.016v-.64c0-1.696.4-3.045 1.2-4.048.81-1.002 1.915-1.504 3.312-1.504 1.387 0 2.475.507 3.264 1.52.8 1.014 1.2 2.347 1.2 4v.64c0 1.686-.395 3.035-1.184 4.048-.779 1.014-1.861 1.52-3.248 1.52z" fill="#fff"/><path opacity=".6" d="M5.412 60.612H3.384v5.436h-.996v-5.436H.36v-.84h5.052v.84zm6.893-.84h.996v6.276h-.996v-6.276zm-5.4 0h.996v2.196h1.116c.712 0 1.288.16 1.728.48.448.32.672.824.672 1.512v.036c0 .68-.224 1.192-.672 1.536-.448.344-1.024.516-1.728.516H6.905v-6.276zm2.172 5.484c.472 0 .812-.1 1.02-.3.216-.208.324-.528.324-.96v-.036c0-.4-.104-.7-.312-.9-.208-.208-.552-.312-1.032-.312H7.901v2.508h1.176zm9.038.9c-.896 0-1.632-.288-2.208-.864-.576-.584-.864-1.356-.864-2.316v-.096c0-.944.292-1.716.876-2.316.592-.6 1.316-.9 2.172-.9.72 0 1.332.18 1.836.54.504.352.8.904.888 1.656h-.984c-.144-.912-.724-1.368-1.74-1.368-.584 0-1.068.22-1.452.66-.376.432-.564 1.008-.564 1.728v.096c0 .752.184 1.332.552 1.74.376.408.876.612 1.5.612.472 0 .876-.132 1.212-.396.344-.272.54-.652.588-1.14h.924a2.49 2.49 0 01-.864 1.704c-.504.44-1.128.66-1.872.66zm7.656-6.384h.996v1.056c.184-.32.472-.592.864-.816a2.432 2.432 0 011.26-.348c.84 0 1.524.284 2.052.852.536.568.804 1.336.804 2.304v.096c0 .968-.264 1.752-.792 2.352-.52.592-1.208.888-2.064.888-.96 0-1.668-.38-2.124-1.14v3.216h-.996v-8.46zm3.024 5.556c.624 0 1.1-.2 1.428-.6.328-.408.492-.996.492-1.764v-.096c0-.76-.184-1.344-.552-1.752a1.743 1.743 0 00-1.38-.624c-.608 0-1.104.204-1.488.612-.376.4-.564.988-.564 1.764v.096c0 .776.184 1.364.552 1.764.376.4.88.6 1.512.6zm6.254.072l-2.46-5.628h1.068l1.92 4.5 1.74-4.5h1.02l-3.468 8.46h-1.008L35.05 65.4zm7.348.756c-.944 0-1.692-.304-2.244-.912-.552-.608-.828-1.532-.828-2.772v-.384c0-.592.024-1.116.072-1.572.048-.464.148-.928.3-1.392.152-.472.352-.864.6-1.176.248-.312.584-.572 1.008-.78.432-.208.94-.328 1.524-.36l.24-.012c.88-.048 1.476-.136 1.788-.264l.132.84c-.408.176-1.044.284-1.908.324l-.18.012c-.968.048-1.66.364-2.076.948-.408.576-.648 1.472-.72 2.688h.048c.216-.44.536-.788.96-1.044.432-.264.932-.396 1.5-.396.872 0 1.568.284 2.088.852.528.56.792 1.288.792 2.184v.048c0 .968-.292 1.74-.876 2.316-.576.568-1.316.852-2.22.852zm-1.5-1.44c.368.408.872.612 1.512.612s1.14-.2 1.5-.6c.368-.408.552-.984.552-1.728v-.024c0-.696-.168-1.244-.504-1.644-.328-.4-.808-.6-1.44-.6-.664 0-1.192.208-1.584.624-.384.416-.576.984-.576 1.704v.024c0 .68.18 1.224.54 1.632z" fill="#fff"/><path d="M19.396 47.988c-1.184 0-2.139-.33-2.864-.992-.715-.662-1.094-1.504-1.136-2.528h1.28c.064.725.325 1.306.784 1.744.458.437 1.114.656 1.968.656.874 0 1.525-.192 1.952-.576.437-.395.656-.939.656-1.632 0-1.483-.806-2.224-2.416-2.224h-.864v-1.168h.8c1.429 0 2.144-.65 2.144-1.952 0-.566-.176-1.024-.528-1.376-.352-.363-.87-.544-1.552-.544-.704 0-1.286.197-1.744.592-.448.394-.71.917-.784 1.568h-1.216c.042-.918.41-1.696 1.104-2.336.693-.64 1.573-.96 2.64-.96 1.045 0 1.877.298 2.496.896.629.586.944 1.296.944 2.128 0 1.162-.603 1.994-1.808 2.496 1.472.405 2.208 1.365 2.208 2.88 0 1.034-.379 1.85-1.136 2.448-.747.586-1.723.88-2.928.88zm5.683-.464l4.544-4.784c1.099-1.163 1.648-2.267 1.648-3.312 0-.64-.181-1.142-.544-1.504-.352-.363-.853-.544-1.504-.544-1.387 0-2.192.848-2.416 2.544h-1.296c.085-1.13.453-2.022 1.104-2.672.661-.662 1.53-.992 2.608-.992 1.056 0 1.893.293 2.512.88.63.576.944 1.354.944 2.336 0 1.258-.768 2.645-2.304 4.16l-3.152 3.072h5.52v1.136h-7.664v-.32zm14.344-.688c2.016 0 3.024-1.478 3.024-4.432v-.64c0-1.334-.272-2.395-.816-3.184-.544-.8-1.29-1.2-2.24-1.2-.97 0-1.728.384-2.272 1.152-.544.768-.816 1.856-.816 3.264v.64c0 1.418.278 2.506.832 3.264.555.757 1.318 1.136 2.288 1.136zm0 1.152c-1.365 0-2.464-.507-3.296-1.52-.832-1.014-1.248-2.352-1.248-4.016v-.64c0-1.696.4-3.046 1.2-4.048.811-1.003 1.915-1.504 3.312-1.504 1.387 0 2.475.506 3.264 1.52.8 1.013 1.2 2.346 1.2 4v.64c0 1.685-.394 3.034-1.184 4.048-.778 1.013-1.86 1.52-3.248 1.52z" fill="#fff"/><path opacity=".3" fill="#F1D5C0" d="M171 466h1v77h-1zm121-142h1v219h-1zm124-74h1v293h-1zm125-38h1v331h-1zm122-90h1v421h-1zm123-83h1v504h-1z"/><path d="M89.5 527l81.5-60.5 121.5-138 123.5-78L544.5 210l119.789-90.446L787.5 38l70.505-37" stroke="url(#paint0_radial)"/><path d="M15.06 254.788l4.544-4.784c1.098-1.162 1.648-2.266 1.648-3.312 0-.64-.182-1.141-.544-1.504-.352-.362-.854-.544-1.504-.544-1.387 0-2.192.848-2.416 2.544h-1.296c.085-1.13.453-2.021 1.104-2.672.661-.661 1.53-.992 2.608-.992 1.056 0 1.893.294 2.512.88.629.576.944 1.355.944 2.336 0 1.259-.768 2.646-2.304 4.16l-3.152 3.072h5.52v1.136H15.06v-.32zm13.558.448c-1.045 0-1.883-.256-2.512-.768-.63-.512-1.019-1.237-1.168-2.176h1.344c.139.598.39 1.051.752 1.36.373.299.912.448 1.616.448.928 0 1.643-.378 2.144-1.136.502-.757.763-1.893.784-3.408-.288.48-.688.854-1.2 1.12-.512.267-1.099.4-1.76.4-1.11 0-2.016-.352-2.72-1.056-.693-.704-1.04-1.6-1.04-2.688 0-1.152.357-2.074 1.072-2.768.715-.704 1.675-1.056 2.88-1.056 1.355 0 2.379.438 3.072 1.312.693.875 1.04 2.144 1.04 3.808v.72c0 1.91-.373 3.371-1.12 4.384-.736 1.003-1.797 1.504-3.184 1.504zm.208-5.248c.768 0 1.398-.229 1.888-.688.49-.458.736-1.056.736-1.792 0-.917-.245-1.632-.736-2.144-.48-.512-1.114-.768-1.904-.768-.746 0-1.354.246-1.824.736-.47.491-.704 1.136-.704 1.936 0 .832.23 1.494.688 1.984.459.491 1.078.736 1.856.736zm10.925 4.112c2.017 0 3.025-1.477 3.025-4.432v-.64c0-1.333-.273-2.394-.817-3.184-.544-.8-1.29-1.2-2.24-1.2-.97 0-1.727.384-2.272 1.152-.544.768-.816 1.856-.816 3.264v.64c0 1.419.278 2.507.833 3.264.554.758 1.317 1.136 2.288 1.136zm0 1.152c-1.365 0-2.463-.506-3.295-1.52-.833-1.013-1.248-2.352-1.248-4.016v-.64c0-1.696.4-3.045 1.2-4.048.81-1.002 1.914-1.504 3.311-1.504 1.387 0 2.475.507 3.264 1.52.8 1.014 1.2 2.347 1.2 4v.64c0 1.686-.394 3.035-1.184 4.048-.778 1.014-1.86 1.52-3.248 1.52z" fill="#fff"/><path opacity=".6" d="M5.412 270.733H3.384v5.436h-.996v-5.436H.36v-.84h5.052v.84zm6.893-.84h.996v6.276h-.996v-6.276zm-5.4 0h.996v2.196h1.116c.712 0 1.288.16 1.728.48.448.32.672.824.672 1.512v.036c0 .68-.224 1.192-.672 1.536-.448.344-1.024.516-1.728.516H6.905v-6.276zm2.172 5.484c.472 0 .812-.1 1.02-.3.216-.208.324-.528.324-.96v-.036c0-.4-.104-.7-.312-.9-.208-.208-.552-.312-1.032-.312H7.901v2.508h1.176zm9.038.9c-.896 0-1.632-.288-2.208-.864-.576-.584-.864-1.356-.864-2.316v-.096c0-.944.292-1.716.876-2.316.592-.6 1.316-.9 2.172-.9.72 0 1.332.18 1.836.54.504.352.8.904.888 1.656h-.984c-.144-.912-.724-1.368-1.74-1.368-.584 0-1.068.22-1.452.66-.376.432-.564 1.008-.564 1.728v.096c0 .752.184 1.332.552 1.74.376.408.876.612 1.5.612.472 0 .876-.132 1.212-.396.344-.272.54-.652.588-1.14h.924a2.49 2.49 0 01-.864 1.704c-.504.44-1.128.66-1.872.66zm7.656-6.384h.996v1.056c.184-.32.472-.592.864-.816a2.432 2.432 0 011.26-.348c.84 0 1.524.284 2.052.852.536.568.804 1.336.804 2.304v.096c0 .968-.264 1.752-.792 2.352-.52.592-1.208.888-2.064.888-.96 0-1.668-.38-2.124-1.14v3.216h-.996v-8.46zm3.024 5.556c.624 0 1.1-.2 1.428-.6.328-.408.492-.996.492-1.764v-.096c0-.76-.184-1.344-.552-1.752a1.743 1.743 0 00-1.38-.624c-.608 0-1.104.204-1.488.612-.376.4-.564.988-.564 1.764v.096c0 .776.184 1.364.552 1.764.376.4.88.6 1.512.6zm6.254.072l-2.46-5.628h1.068l1.92 4.5 1.74-4.5h1.02l-3.468 8.46h-1.008l1.188-2.832zm7.348.756c-.944 0-1.692-.304-2.244-.912-.552-.608-.828-1.532-.828-2.772v-.384c0-.592.024-1.116.072-1.572.048-.464.148-.928.3-1.392.152-.472.352-.864.6-1.176.248-.312.584-.572 1.008-.78.432-.208.94-.328 1.524-.36l.24-.012c.88-.048 1.476-.136 1.788-.264l.132.84c-.408.176-1.044.284-1.908.324l-.18.012c-.968.048-1.66.364-2.076.948-.408.576-.648 1.472-.72 2.688h.048c.216-.44.536-.788.96-1.044.432-.264.932-.396 1.5-.396.872 0 1.568.284 2.088.852.528.56.792 1.288.792 2.184v.048c0 .968-.292 1.74-.876 2.316-.576.568-1.316.852-2.22.852zm-1.5-1.44c.368.408.872.612 1.512.612s1.14-.2 1.5-.6c.368-.408.552-.984.552-1.728v-.024c0-.696-.168-1.244-.504-1.644-.328-.4-.808-.6-1.44-.6-.664 0-1.192.208-1.584.624-.384.416-.576.984-.576 1.704v.024c0 .68.18 1.224.54 1.632z" fill="#fff"/><path d="M22.537 183.927c-1.184 0-2.139-.33-2.864-.992-.715-.661-1.094-1.504-1.136-2.528h1.28c.064.726.325 1.307.784 1.744.458.438 1.114.656 1.968.656.874 0 1.525-.192 1.952-.576.437-.394.656-.938.656-1.632 0-1.482-.806-2.224-2.416-2.224h-.864v-1.168h.8c1.43 0 2.144-.65 2.144-1.952 0-.565-.176-1.024-.528-1.376-.352-.362-.87-.544-1.552-.544-.704 0-1.286.198-1.744.592-.448.395-.71.918-.784 1.568h-1.216c.042-.917.41-1.696 1.104-2.336.693-.64 1.573-.96 2.64-.96 1.045 0 1.877.299 2.496.896.63.587.944 1.296.944 2.128 0 1.163-.603 1.995-1.808 2.496 1.472.406 2.208 1.366 2.208 2.88 0 1.035-.379 1.851-1.136 2.448-.747.587-1.723.88-2.928.88zm10.883-1.152c2.016 0 3.024-1.477 3.024-4.432v-.64c0-1.333-.272-2.394-.816-3.184-.544-.8-1.29-1.2-2.24-1.2-.97 0-1.728.384-2.272 1.152-.544.768-.816 1.856-.816 3.264v.64c0 1.419.277 2.507.832 3.264.555.758 1.317 1.136 2.288 1.136zm0 1.152c-1.365 0-2.464-.506-3.296-1.52-.832-1.013-1.248-2.352-1.248-4.016v-.64c0-1.696.4-3.045 1.2-4.048.81-1.002 1.915-1.504 3.312-1.504 1.387 0 2.475.507 3.264 1.52.8 1.014 1.2 2.347 1.2 4v.64c0 1.686-.394 3.035-1.184 4.048-.779 1.014-1.861 1.52-3.248 1.52zm11.254-1.152c2.016 0 3.024-1.477 3.024-4.432v-.64c0-1.333-.272-2.394-.816-3.184-.544-.8-1.29-1.2-2.24-1.2-.97 0-1.728.384-2.272 1.152-.544.768-.816 1.856-.816 3.264v.64c0 1.419.277 2.507.832 3.264.555.758 1.317 1.136 2.288 1.136zm0 1.152c-1.365 0-2.464-.506-3.296-1.52-.832-1.013-1.248-2.352-1.248-4.016v-.64c0-1.696.4-3.045 1.2-4.048.81-1.002 1.915-1.504 3.312-1.504 1.387 0 2.475.507 3.264 1.52.8 1.014 1.2 2.347 1.2 4v.64c0 1.686-.395 3.035-1.184 4.048-.779 1.014-1.861 1.52-3.248 1.52z" fill="#fff"/><path opacity=".6" d="M5.412 199.408H3.384v5.436h-.996v-5.436H.36v-.84h5.052v.84zm6.893-.84h.996v6.276h-.996v-6.276zm-5.4 0h.996v2.196h1.116c.712 0 1.288.16 1.728.48.448.32.672.824.672 1.512v.036c0 .68-.224 1.192-.672 1.536-.448.344-1.024.516-1.728.516H6.905v-6.276zm2.172 5.484c.472 0 .812-.1 1.02-.3.216-.208.324-.528.324-.96v-.036c0-.4-.104-.7-.312-.9-.208-.208-.552-.312-1.032-.312H7.901v2.508h1.176zm9.038.9c-.896 0-1.632-.288-2.208-.864-.576-.584-.864-1.356-.864-2.316v-.096c0-.944.292-1.716.876-2.316.592-.6 1.316-.9 2.172-.9.72 0 1.332.18 1.836.54.504.352.8.904.888 1.656h-.984c-.144-.912-.724-1.368-1.74-1.368-.584 0-1.068.22-1.452.66-.376.432-.564 1.008-.564 1.728v.096c0 .752.184 1.332.552 1.74.376.408.876.612 1.5.612.472 0 .876-.132 1.212-.396.344-.272.54-.652.588-1.14h.924a2.49 2.49 0 01-.864 1.704c-.504.44-1.128.66-1.872.66zm7.656-6.384h.996v1.056c.184-.32.472-.592.864-.816a2.432 2.432 0 011.26-.348c.84 0 1.524.284 2.052.852.536.568.804 1.336.804 2.304v.096c0 .968-.264 1.752-.792 2.352-.52.592-1.208.888-2.064.888-.96 0-1.668-.38-2.124-1.14v3.216h-.996v-8.46zm3.024 5.556c.624 0 1.1-.2 1.428-.6.328-.408.492-.996.492-1.764v-.096c0-.76-.184-1.344-.552-1.752a1.743 1.743 0 00-1.38-.624c-.608 0-1.104.204-1.488.612-.376.4-.564.988-.564 1.764v.096c0 .776.184 1.364.552 1.764.376.4.88.6 1.512.6zm6.254.072l-2.46-5.628h1.068l1.92 4.5 1.74-4.5h1.02l-3.468 8.46h-1.008l1.188-2.832zm7.348.756c-.944 0-1.692-.304-2.244-.912-.552-.608-.828-1.532-.828-2.772v-.384c0-.592.024-1.116.072-1.572.048-.464.148-.928.3-1.392.152-.472.352-.864.6-1.176.248-.312.584-.572 1.008-.78.432-.208.94-.328 1.524-.36l.24-.012c.88-.048 1.476-.136 1.788-.264l.132.84c-.408.176-1.044.284-1.908.324l-.18.012c-.968.048-1.66.364-2.076.948-.408.576-.648 1.472-.72 2.688h.048c.216-.44.536-.788.96-1.044.432-.264.932-.396 1.5-.396.872 0 1.568.284 2.088.852.528.56.792 1.288.792 2.184v.048c0 .968-.292 1.74-.876 2.316-.576.568-1.316.852-2.22.852zm-1.5-1.44c.368.408.872.612 1.512.612s1.14-.2 1.5-.6c.368-.408.552-.984.552-1.728v-.024c0-.696-.168-1.244-.504-1.644-.328-.4-.808-.6-1.44-.6-.664 0-1.192.208-1.584.624-.384.416-.576.984-.576 1.704v.024c0 .68.18 1.224.54 1.632z" fill="#fff"/><path d="M19.248 468.764l4.544-4.784c1.099-1.163 1.648-2.267 1.648-3.312 0-.64-.181-1.141-.544-1.504-.352-.363-.853-.544-1.504-.544-1.386 0-2.192.848-2.416 2.544H19.68c.085-1.131.454-2.021 1.104-2.672.662-.661 1.53-.992 2.608-.992 1.056 0 1.893.293 2.512.88.63.576.944 1.355.944 2.336 0 1.259-.768 2.645-2.304 4.16l-3.152 3.072h5.52v1.136h-7.664v-.32zm13.834.464c-2.74 0-4.112-1.733-4.112-5.2v-.272c0-2.005.406-3.547 1.216-4.624.822-1.088 1.91-1.632 3.264-1.632.918 0 1.664.235 2.24.704.587.469.955 1.157 1.104 2.064h-1.328c-.128-.555-.357-.965-.688-1.232-.33-.267-.805-.4-1.424-.4-.885 0-1.6.395-2.144 1.184-.544.789-.832 1.92-.864 3.392.62-1.035 1.6-1.552 2.944-1.552 1.12 0 2.022.357 2.704 1.072.694.704 1.04 1.595 1.04 2.672 0 1.152-.357 2.08-1.072 2.784-.714.693-1.674 1.04-2.88 1.04zm0-1.088c.747 0 1.355-.245 1.824-.736.47-.491.704-1.136.704-1.936 0-.832-.229-1.493-.688-1.984-.458-.491-1.077-.736-1.856-.736-.768 0-1.397.235-1.888.704-.49.469-.736 1.077-.736 1.824 0 .907.24 1.611.72 2.112.491.501 1.131.752 1.92.752zm10.608-.064c2.016 0 3.024-1.477 3.024-4.432v-.64c0-1.333-.272-2.395-.816-3.184-.544-.8-1.29-1.2-2.24-1.2-.97 0-1.728.384-2.272 1.152-.544.768-.816 1.856-.816 3.264v.64c0 1.419.277 2.507.832 3.264.555.757 1.317 1.136 2.288 1.136zm0 1.152c-1.365 0-2.464-.507-3.296-1.52-.832-1.013-1.248-2.352-1.248-4.016v-.64c0-1.696.4-3.045 1.2-4.048.81-1.003 1.915-1.504 3.312-1.504 1.387 0 2.475.507 3.264 1.52.8 1.013 1.2 2.347 1.2 4v.64c0 1.685-.395 3.035-1.184 4.048-.779 1.013-1.861 1.52-3.248 1.52z" fill="#fff"/><path opacity=".6" d="M5.412 484.709H3.384v5.436h-.996v-5.436H.36v-.84h5.052v.84zm6.893-.84h.996v6.276h-.996v-6.276zm-5.4 0h.996v2.196h1.116c.712 0 1.288.16 1.728.48.448.32.672.824.672 1.512v.036c0 .68-.224 1.192-.672 1.536-.448.344-1.024.516-1.728.516H6.905v-6.276zm2.172 5.484c.472 0 .812-.1 1.02-.3.216-.208.324-.528.324-.96v-.036c0-.4-.104-.7-.312-.9-.208-.208-.552-.312-1.032-.312H7.901v2.508h1.176zm9.038.9c-.896 0-1.632-.288-2.208-.864-.576-.584-.864-1.356-.864-2.316v-.096c0-.944.292-1.716.876-2.316.592-.6 1.316-.9 2.172-.9.72 0 1.332.18 1.836.54.504.352.8.904.888 1.656h-.984c-.144-.912-.724-1.368-1.74-1.368-.584 0-1.068.22-1.452.66-.376.432-.564 1.008-.564 1.728v.096c0 .752.184 1.332.552 1.74.376.408.876.612 1.5.612.472 0 .876-.132 1.212-.396.344-.272.54-.652.588-1.14h.924a2.49 2.49 0 01-.864 1.704c-.504.44-1.128.66-1.872.66zm7.656-6.384h.996v1.056c.184-.32.472-.592.864-.816a2.432 2.432 0 011.26-.348c.84 0 1.524.284 2.052.852.536.568.804 1.336.804 2.304v.096c0 .968-.264 1.752-.792 2.352-.52.592-1.208.888-2.064.888-.96 0-1.668-.38-2.124-1.14v3.216h-.996v-8.46zm3.024 5.556c.624 0 1.1-.2 1.428-.6.328-.408.492-.996.492-1.764v-.096c0-.76-.184-1.344-.552-1.752a1.743 1.743 0 00-1.38-.624c-.608 0-1.104.204-1.488.612-.376.4-.564.988-.564 1.764v.096c0 .776.184 1.364.552 1.764.376.4.88.6 1.512.6zm6.254.072l-2.46-5.628h1.068l1.92 4.5 1.74-4.5h1.02l-3.468 8.46h-1.008l1.188-2.832zm7.348.756c-.944 0-1.692-.304-2.244-.912-.552-.608-.828-1.532-.828-2.772v-.384c0-.592.024-1.116.072-1.572.048-.464.148-.928.3-1.392.152-.472.352-.864.6-1.176.248-.312.584-.572 1.008-.78.432-.208.94-.328 1.524-.36l.24-.012c.88-.048 1.476-.136 1.788-.264l.132.84c-.408.176-1.044.284-1.908.324l-.18.012c-.968.048-1.66.364-2.076.948-.408.576-.648 1.472-.72 2.688h.048c.216-.44.536-.788.96-1.044.432-.264.932-.396 1.5-.396.872 0 1.568.284 2.088.852.528.56.792 1.288.792 2.184v.048c0 .968-.292 1.74-.876 2.316-.576.568-1.316.852-2.22.852zm-1.5-1.44c.368.408.872.612 1.512.612s1.14-.2 1.5-.6c.368-.408.552-.984.552-1.728v-.024c0-.696-.168-1.244-.504-1.644-.328-.4-.808-.6-1.44-.6-.664 0-1.192.208-1.584.624-.384.416-.576.984-.576 1.704v.024c0 .68.18 1.224.54 1.632z" fill="#fff"/><path d="M432.35 542.554l3.976-4.186c.961-1.017 1.442-1.983 1.442-2.898 0-.56-.159-.999-.476-1.316-.308-.317-.747-.476-1.316-.476-1.213 0-1.918.742-2.114 2.226h-1.134c.075-.989.397-1.769.966-2.338.579-.579 1.339-.868 2.282-.868.924 0 1.657.257 2.198.77.551.504.826 1.185.826 2.044 0 1.101-.672 2.315-2.016 3.64l-2.758 2.688h4.83v.994h-6.706v-.28zm12.551-.602c1.764 0 2.646-1.293 2.646-3.878v-.56c0-1.167-.238-2.095-.714-2.786-.476-.7-1.129-1.05-1.96-1.05-.849 0-1.512.336-1.988 1.008-.476.672-.714 1.624-.714 2.856v.56c0 1.241.243 2.193.728 2.856.486.663 1.153.994 2.002.994zm0 1.008c-1.194 0-2.156-.443-2.884-1.33-.728-.887-1.092-2.058-1.092-3.514v-.56c0-1.484.35-2.665 1.05-3.542.71-.877 1.676-1.316 2.898-1.316 1.214 0 2.166.443 2.856 1.33.7.887 1.05 2.053 1.05 3.5v.56c0 1.475-.345 2.655-1.036 3.542-.681.887-1.628 1.33-2.842 1.33zm5.297-.406l3.976-4.186c.962-1.017 1.442-1.983 1.442-2.898 0-.56-.158-.999-.476-1.316-.308-.317-.746-.476-1.316-.476-1.213 0-1.918.742-2.114 2.226h-1.134c.075-.989.397-1.769.966-2.338.579-.579 1.34-.868 2.282-.868.924 0 1.657.257 2.198.77.551.504.826 1.185.826 2.044 0 1.101-.672 2.315-2.016 3.64l-2.758 2.688h4.83v.994h-6.706v-.28zm12.552-.602c1.764 0 2.646-1.293 2.646-3.878v-.56c0-1.167-.238-2.095-.714-2.786-.476-.7-1.13-1.05-1.96-1.05-.85 0-1.512.336-1.988 1.008-.476.672-.714 1.624-.714 2.856v.56c0 1.241.242 2.193.728 2.856.485.663 1.152.994 2.002.994zm0 1.008c-1.195 0-2.156-.443-2.884-1.33-.728-.887-1.092-2.058-1.092-3.514v-.56c0-1.484.35-2.665 1.05-3.542.709-.877 1.675-1.316 2.898-1.316 1.213 0 2.165.443 2.856 1.33.7.887 1.05 2.053 1.05 3.5v.56c0 1.475-.346 2.655-1.036 3.542-.682.887-1.629 1.33-2.842 1.33zm-163.4-.408l3.976-4.186c.961-1.017 1.442-1.983 1.442-2.898 0-.56-.159-.999-.476-1.316-.308-.317-.747-.476-1.316-.476-1.213 0-1.918.742-2.114 2.226h-1.134c.075-.989.397-1.769.966-2.338.579-.579 1.339-.868 2.282-.868.924 0 1.657.257 2.198.77.551.504.826 1.185.826 2.044 0 1.101-.672 2.315-2.016 3.64l-2.758 2.688h4.83v.994h-6.706v-.28zm12.551-.602c1.764 0 2.646-1.293 2.646-3.878v-.56c0-1.167-.238-2.095-.714-2.786-.476-.7-1.129-1.05-1.96-1.05-.849 0-1.512.336-1.988 1.008-.476.672-.714 1.624-.714 2.856v.56c0 1.241.243 2.193.728 2.856.486.663 1.153.994 2.002.994zm0 1.008c-1.194 0-2.156-.443-2.884-1.33-.728-.887-1.092-2.058-1.092-3.514v-.56c0-1.484.35-2.665 1.05-3.542.71-.877 1.676-1.316 2.898-1.316 1.214 0 2.166.443 2.856 1.33.7.887 1.05 2.053 1.05 3.5v.56c0 1.475-.345 2.655-1.036 3.542-.681.887-1.628 1.33-2.842 1.33zm5.297-.406l3.976-4.186c.962-1.017 1.442-1.983 1.442-2.898 0-.56-.158-.999-.476-1.316-.308-.317-.746-.476-1.316-.476-1.213 0-1.918.742-2.114 2.226h-1.134c.075-.989.397-1.769.966-2.338.579-.579 1.34-.868 2.282-.868.924 0 1.657.257 2.198.77.551.504.826 1.185.826 2.044 0 1.101-.672 2.315-2.016 3.64l-2.758 2.688h4.83v.994h-6.706v-.28zm12.552-.602c1.764 0 2.646-1.293 2.646-3.878v-.56c0-1.167-.238-2.095-.714-2.786-.476-.7-1.13-1.05-1.96-1.05-.85 0-1.512.336-1.988 1.008-.476.672-.714 1.624-.714 2.856v.56c0 1.241.242 2.193.728 2.856.485.663 1.152.994 2.002.994zm0 1.008c-1.195 0-2.156-.443-2.884-1.33-.728-.887-1.092-2.058-1.092-3.514v-.56c0-1.484.35-2.665 1.05-3.542.709-.877 1.675-1.316 2.898-1.316 1.213 0 2.165.443 2.856 1.33.7.887 1.05 2.053 1.05 3.5v.56c0 1.475-.346 2.655-1.036 3.542-.682.887-1.629 1.33-2.842 1.33zm-142.4-.404l3.976-4.186c.961-1.017 1.442-1.983 1.442-2.898 0-.56-.159-.999-.476-1.316-.308-.317-.747-.476-1.316-.476-1.213 0-1.918.742-2.114 2.226h-1.134c.075-.989.397-1.769.966-2.338.579-.579 1.339-.868 2.282-.868.924 0 1.657.257 2.198.77.551.504.826 1.185.826 2.044 0 1.101-.672 2.315-2.016 3.64l-2.758 2.688h4.83v.994h-6.706v-.28zm12.551-.602c1.764 0 2.646-1.293 2.646-3.878v-.56c0-1.167-.238-2.095-.714-2.786-.476-.7-1.129-1.05-1.96-1.05-.849 0-1.512.336-1.988 1.008-.476.672-.714 1.624-.714 2.856v.56c0 1.241.243 2.193.728 2.856.486.663 1.153.994 2.002.994zm0 1.008c-1.194 0-2.156-.443-2.884-1.33-.728-.887-1.092-2.058-1.092-3.514v-.56c0-1.484.35-2.665 1.05-3.542.71-.877 1.676-1.316 2.898-1.316 1.214 0 2.166.443 2.856 1.33.7.887 1.05 2.053 1.05 3.5v.56c0 1.475-.345 2.655-1.036 3.542-.681.887-1.628 1.33-2.842 1.33zm7.733-8.932l-2.24 1.61v-1.134l2.324-1.68h1.134v10.01h-1.218v-8.806zm7.118 8.918c-.915 0-1.648-.224-2.198-.672-.551-.448-.892-1.083-1.022-1.904h1.176c.121.523.34.919.658 1.19.326.261.798.392 1.414.392.812 0 1.437-.331 1.876-.994.438-.663.667-1.657.686-2.982-.252.42-.602.747-1.05.98-.448.233-.962.35-1.54.35-.971 0-1.764-.308-2.38-.924-.607-.616-.91-1.4-.91-2.352 0-1.008.312-1.815.938-2.422.625-.616 1.465-.924 2.52-.924 1.185 0 2.081.383 2.688 1.148.606.765.91 1.876.91 3.332v.63c0 1.671-.327 2.949-.98 3.836-.644.877-1.573 1.316-2.786 1.316zm.182-4.592c.672 0 1.222-.201 1.652-.602.429-.401.644-.924.644-1.568 0-.803-.215-1.428-.644-1.876-.42-.448-.976-.672-1.666-.672-.654 0-1.186.215-1.596.644-.411.429-.616.994-.616 1.694 0 .728.2 1.307.602 1.736.401.429.942.644 1.624.644z" fill="#fff"/><path opacity=".6" d="M5.412 413.383H3.384v5.436h-.996v-5.436H.36v-.84h5.052v.84zm6.893-.84h.996v6.276h-.996v-6.276zm-5.4 0h.996v2.196h1.116c.712 0 1.288.16 1.728.48.448.32.672.824.672 1.512v.036c0 .68-.224 1.192-.672 1.536-.448.344-1.024.516-1.728.516H6.905v-6.276zm2.172 5.484c.472 0 .812-.1 1.02-.3.216-.208.324-.528.324-.96v-.036c0-.4-.104-.7-.312-.9-.208-.208-.552-.312-1.032-.312H7.901v2.508h1.176zm9.038.9c-.896 0-1.632-.288-2.208-.864-.576-.584-.864-1.356-.864-2.316v-.096c0-.944.292-1.716.876-2.316.592-.6 1.316-.9 2.172-.9.72 0 1.332.18 1.836.54.504.352.8.904.888 1.656h-.984c-.144-.912-.724-1.368-1.74-1.368-.584 0-1.068.22-1.452.66-.376.432-.564 1.008-.564 1.728v.096c0 .752.184 1.332.552 1.74.376.408.876.612 1.5.612.472 0 .876-.132 1.212-.396.344-.272.54-.652.588-1.14h.924a2.49 2.49 0 01-.864 1.704c-.504.44-1.128.66-1.872.66zm7.656-6.384h.996v1.056c.184-.32.472-.592.864-.816a2.432 2.432 0 011.26-.348c.84 0 1.524.284 2.052.852.536.568.804 1.336.804 2.304v.096c0 .968-.264 1.752-.792 2.352-.52.592-1.208.888-2.064.888-.96 0-1.668-.38-2.124-1.14v3.216h-.996v-8.46zm3.024 5.556c.624 0 1.1-.2 1.428-.6.328-.408.492-.996.492-1.764v-.096c0-.76-.184-1.344-.552-1.752a1.743 1.743 0 00-1.38-.624c-.608 0-1.104.204-1.488.612-.376.4-.564.988-.564 1.764v.096c0 .776.184 1.364.552 1.764.376.4.88.6 1.512.6zm6.254.072l-2.46-5.628h1.068l1.92 4.5 1.74-4.5h1.02l-3.468 8.46h-1.008l1.188-2.832zm7.348.756c-.944 0-1.692-.304-2.244-.912-.552-.608-.828-1.532-.828-2.772v-.384c0-.592.024-1.116.072-1.572.048-.464.148-.928.3-1.392.152-.472.352-.864.6-1.176.248-.312.584-.572 1.008-.78.432-.208.94-.328 1.524-.36l.24-.012c.88-.048 1.476-.136 1.788-.264l.132.84c-.408.176-1.044.284-1.908.324l-.18.012c-.968.048-1.66.364-2.076.948-.408.576-.648 1.472-.72 2.688h.048c.216-.44.536-.788.96-1.044.432-.264.932-.396 1.5-.396.872 0 1.568.284 2.088.852.528.56.792 1.288.792 2.184v.048c0 .968-.292 1.74-.876 2.316-.576.568-1.316.852-2.22.852zm-1.5-1.44c.368.408.872.612 1.512.612s1.14-.2 1.5-.6c.368-.408.552-.984.552-1.728v-.024c0-.696-.168-1.244-.504-1.644-.328-.4-.808-.6-1.44-.6-.664 0-1.192.208-1.584.624-.384.416-.576.984-.576 1.704v.024c0 .68.18 1.224.54 1.632z" fill="#fff"/><path d="M16.107 397.439l4.544-4.784c1.098-1.163 1.648-2.267 1.648-3.312 0-.64-.182-1.142-.544-1.504-.352-.363-.854-.544-1.505-.544-1.386 0-2.192.848-2.416 2.544h-1.296c.086-1.131.454-2.022 1.104-2.672.662-.662 1.531-.992 2.608-.992 1.056 0 1.894.293 2.512.88.63.576.944 1.354.944 2.336 0 1.258-.767 2.645-2.303 4.16l-3.152 3.072h5.52v1.136h-7.665v-.32zm15.082-10H25.38v-1.12h7.536v.192l-4.288 11.248h-1.424l3.984-10.32zm7.703 9.312c2.016 0 3.024-1.478 3.024-4.432v-.64c0-1.334-.272-2.395-.816-3.184-.544-.8-1.29-1.2-2.24-1.2-.97 0-1.728.384-2.272 1.152-.544.768-.816 1.856-.816 3.264v.64c0 1.418.278 2.506.832 3.264.555.757 1.318 1.136 2.288 1.136zm0 1.152c-1.365 0-2.464-.507-3.296-1.52-.832-1.014-1.248-2.352-1.248-4.016v-.64c0-1.696.4-3.046 1.2-4.048.81-1.003 1.915-1.504 3.312-1.504 1.387 0 2.475.506 3.264 1.52.8 1.013 1.2 2.346 1.2 4v.64c0 1.685-.395 3.034-1.184 4.048-.779 1.013-1.861 1.52-3.248 1.52z" fill="#fff"/><path opacity=".6" d="M5.412 342.058H3.384v5.436h-.996v-5.436H.36v-.84h5.052v.84zm6.893-.84h.996v6.276h-.996v-6.276zm-5.4 0h.996v2.196h1.116c.712 0 1.288.16 1.728.48.448.32.672.824.672 1.512v.036c0 .68-.224 1.192-.672 1.536-.448.344-1.024.516-1.728.516H6.905v-6.276zm2.172 5.484c.472 0 .812-.1 1.02-.3.216-.208.324-.528.324-.96v-.036c0-.4-.104-.7-.312-.9-.208-.208-.552-.312-1.032-.312H7.901v2.508h1.176zm9.038.9c-.896 0-1.632-.288-2.208-.864-.576-.584-.864-1.356-.864-2.316v-.096c0-.944.292-1.716.876-2.316.592-.6 1.316-.9 2.172-.9.72 0 1.332.18 1.836.54.504.352.8.904.888 1.656h-.984c-.144-.912-.724-1.368-1.74-1.368-.584 0-1.068.22-1.452.66-.376.432-.564 1.008-.564 1.728v.096c0 .752.184 1.332.552 1.74.376.408.876.612 1.5.612.472 0 .876-.132 1.212-.396.344-.272.54-.652.588-1.14h.924a2.49 2.49 0 01-.864 1.704c-.504.44-1.128.66-1.872.66zm7.656-6.384h.996v1.056c.184-.32.472-.592.864-.816a2.432 2.432 0 011.26-.348c.84 0 1.524.284 2.052.852.536.568.804 1.336.804 2.304v.096c0 .968-.264 1.752-.792 2.352-.52.592-1.208.888-2.064.888-.96 0-1.668-.38-2.124-1.14v3.216h-.996v-8.46zm3.024 5.556c.624 0 1.1-.2 1.428-.6.328-.408.492-.996.492-1.764v-.096c0-.76-.184-1.344-.552-1.752a1.743 1.743 0 00-1.38-.624c-.608 0-1.104.204-1.488.612-.376.4-.564.988-.564 1.764v.096c0 .776.184 1.364.552 1.764.376.4.88.6 1.512.6zm6.254.072l-2.46-5.628h1.068l1.92 4.5 1.74-4.5h1.02l-3.468 8.46h-1.008l1.188-2.832zm7.348.756c-.944 0-1.692-.304-2.244-.912-.552-.608-.828-1.532-.828-2.772v-.384c0-.592.024-1.116.072-1.572.048-.464.148-.928.3-1.392.152-.472.352-.864.6-1.176.248-.312.584-.572 1.008-.78.432-.208.94-.328 1.524-.36l.24-.012c.88-.048 1.476-.136 1.788-.264l.132.84c-.408.176-1.044.284-1.908.324l-.18.012c-.968.048-1.66.364-2.076.948-.408.576-.648 1.472-.72 2.688h.048c.216-.44.536-.788.96-1.044.432-.264.932-.396 1.5-.396.872 0 1.568.284 2.088.852.528.56.792 1.288.792 2.184v.048c0 .968-.292 1.74-.876 2.316-.576.568-1.316.852-2.22.852zm-1.5-1.44c.368.408.872.612 1.512.612s1.14-.2 1.5-.6c.368-.408.552-.984.552-1.728v-.024c0-.696-.168-1.244-.504-1.644-.328-.4-.808-.6-1.44-.6-.664 0-1.192.208-1.584.624-.384.416-.576.984-.576 1.704v.024c0 .68.18 1.224.54 1.632z" fill="#fff"/><path d="M18.2 326.114l4.545-4.784c1.098-1.163 1.648-2.267 1.648-3.312 0-.64-.182-1.142-.544-1.504-.352-.363-.854-.544-1.504-.544-1.387 0-2.192.848-2.416 2.544h-1.296c.085-1.131.453-2.022 1.104-2.672.661-.662 1.53-.992 2.608-.992 1.056 0 1.893.293 2.512.88.63.576.944 1.354.944 2.336 0 1.258-.768 2.645-2.304 4.16l-3.152 3.072h5.52v1.136H18.2v-.32zm13.627.464c-.65 0-1.27-.118-1.856-.352a3.595 3.595 0 01-1.488-1.168c-.405-.534-.608-1.158-.608-1.872 0-.736.197-1.355.592-1.856.395-.502.917-.87 1.568-1.104-1.152-.459-1.728-1.259-1.728-2.4 0-.875.352-1.59 1.056-2.144a3.906 3.906 0 012.464-.832c.928 0 1.744.277 2.448.832.704.544 1.056 1.248 1.056 2.112 0 1.098-.587 1.904-1.76 2.416 1.461.544 2.192 1.525 2.192 2.944 0 1.077-.395 1.92-1.184 2.528-.779.597-1.696.896-2.752.896zm0-1.136c.736 0 1.339-.203 1.808-.608.47-.416.704-.992.704-1.728 0-.715-.24-1.27-.72-1.664-.47-.406-1.056-.608-1.76-.608-.725 0-1.333.202-1.824.608-.49.394-.736.96-.736 1.696 0 .714.245 1.28.736 1.696.49.405 1.088.608 1.792.608zm.048-5.712c.619 0 1.115-.171 1.488-.512.373-.342.56-.811.56-1.408 0-.544-.197-.992-.592-1.344-.395-.352-.896-.528-1.504-.528-.619 0-1.125.17-1.52.512-.395.341-.592.805-.592 1.392 0 .576.208 1.034.624 1.376.416.341.928.512 1.536.512zm10.502 5.696c2.016 0 3.024-1.478 3.024-4.432v-.64c0-1.334-.272-2.395-.816-3.184-.544-.8-1.29-1.2-2.24-1.2-.97 0-1.728.384-2.272 1.152-.544.768-.816 1.856-.816 3.264v.64c0 1.418.277 2.506.832 3.264.555.757 1.317 1.136 2.288 1.136zm0 1.152c-1.365 0-2.464-.507-3.296-1.52-.832-1.014-1.248-2.352-1.248-4.016v-.64c0-1.696.4-3.046 1.2-4.048.81-1.003 1.915-1.504 3.312-1.504 1.387 0 2.475.506 3.264 1.52.8 1.013 1.2 2.346 1.2 4v.64c0 1.685-.395 3.034-1.184 4.048-.779 1.013-1.861 1.52-3.248 1.52z" fill="#fff"/><circle cx="541.659" cy="209.5" r="5.5" fill="#F1D5C0"/><path opacity=".6" d="M5.412 128.083H3.384v5.436h-.996v-5.436H.36v-.84h5.052v.84zm6.893-.84h.996v6.276h-.996v-6.276zm-5.4 0h.996v2.196h1.116c.712 0 1.288.16 1.728.48.448.32.672.824.672 1.512v.036c0 .68-.224 1.192-.672 1.536-.448.344-1.024.516-1.728.516H6.905v-6.276zm2.172 5.484c.472 0 .812-.1 1.02-.3.216-.208.324-.528.324-.96v-.036c0-.4-.104-.7-.312-.9-.208-.208-.552-.312-1.032-.312H7.901v2.508h1.176zm9.038.9c-.896 0-1.632-.288-2.208-.864-.576-.584-.864-1.356-.864-2.316v-.096c0-.944.292-1.716.876-2.316.592-.6 1.316-.9 2.172-.9.72 0 1.332.18 1.836.54.504.352.8.904.888 1.656h-.984c-.144-.912-.724-1.368-1.74-1.368-.584 0-1.068.22-1.452.66-.376.432-.564 1.008-.564 1.728v.096c0 .752.184 1.332.552 1.74.376.408.876.612 1.5.612.472 0 .876-.132 1.212-.396.344-.272.54-.652.588-1.14h.924a2.49 2.49 0 01-.864 1.704c-.504.44-1.128.66-1.872.66zm7.656-6.384h.996v1.056c.184-.32.472-.592.864-.816a2.432 2.432 0 011.26-.348c.84 0 1.524.284 2.052.852.536.568.804 1.336.804 2.304v.096c0 .968-.264 1.752-.792 2.352-.52.592-1.208.888-2.064.888-.96 0-1.668-.38-2.124-1.14v3.216h-.996v-8.46zm3.024 5.556c.624 0 1.1-.2 1.428-.6.328-.408.492-.996.492-1.764v-.096c0-.76-.184-1.344-.552-1.752a1.743 1.743 0 00-1.38-.624c-.608 0-1.104.204-1.488.612-.376.4-.564.988-.564 1.764v.096c0 .776.184 1.364.552 1.764.376.4.88.6 1.512.6zm6.254.072l-2.46-5.628h1.068l1.92 4.5 1.74-4.5h1.02l-3.468 8.46h-1.008l1.188-2.832zm7.348.756c-.944 0-1.692-.304-2.244-.912-.552-.608-.828-1.532-.828-2.772v-.384c0-.592.024-1.116.072-1.572.048-.464.148-.928.3-1.392.152-.472.352-.864.6-1.176.248-.312.584-.572 1.008-.78.432-.208.94-.328 1.524-.36l.24-.012c.88-.048 1.476-.136 1.788-.264l.132.84c-.408.176-1.044.284-1.908.324l-.18.012c-.968.048-1.66.364-2.076.948-.408.576-.648 1.472-.72 2.688h.048c.216-.44.536-.788.96-1.044.432-.264.932-.396 1.5-.396.872 0 1.568.284 2.088.852.528.56.792 1.288.792 2.184v.048c0 .968-.292 1.74-.876 2.316-.576.568-1.316.852-2.22.852zm-1.5-1.44c.368.408.872.612 1.512.612s1.14-.2 1.5-.6c.368-.408.552-.984.552-1.728v-.024c0-.696-.168-1.244-.504-1.644-.328-.4-.808-.6-1.44-.6-.664 0-1.192.208-1.584.624-.384.416-.576.984-.576 1.704v.024c0 .68.18 1.224.54 1.632z" fill="#fff"/><path d="M19.396 115.457c-1.184 0-2.139-.33-2.864-.992-.715-.661-1.094-1.504-1.136-2.528h1.28c.064.726.325 1.307.784 1.744.458.438 1.114.656 1.968.656.874 0 1.525-.192 1.952-.576.437-.394.656-.938.656-1.632 0-1.482-.806-2.224-2.416-2.224h-.864v-1.168h.8c1.429 0 2.144-.65 2.144-1.952 0-.565-.176-1.024-.528-1.376-.352-.362-.87-.544-1.552-.544-.704 0-1.286.198-1.744.592-.448.395-.71.918-.784 1.568h-1.216c.042-.917.41-1.696 1.104-2.336.693-.64 1.573-.96 2.64-.96 1.045 0 1.877.299 2.496.896.629.587.944 1.296.944 2.128 0 1.163-.603 1.995-1.808 2.496 1.472.406 2.208 1.366 2.208 2.88 0 1.035-.379 1.851-1.136 2.448-.747.587-1.723.88-2.928.88zm8.389-10.208l-2.56 1.84v-1.296l2.656-1.92h1.296v11.44h-1.392v-10.064zm9.154 9.056c2.016 0 3.024-1.477 3.024-4.432v-.64c0-1.333-.272-2.394-.816-3.184-.544-.8-1.29-1.2-2.24-1.2-.97 0-1.728.384-2.272 1.152-.544.768-.816 1.856-.816 3.264v.64c0 1.419.277 2.507.832 3.264.555.758 1.317 1.136 2.288 1.136zm0 1.152c-1.365 0-2.464-.506-3.296-1.52-.832-1.013-1.248-2.352-1.248-4.016v-.64c0-1.696.4-3.045 1.2-4.048.81-1.002 1.915-1.504 3.312-1.504 1.387 0 2.475.507 3.264 1.52.8 1.014 1.2 2.347 1.2 4v.64c0 1.686-.395 3.035-1.184 4.048-.779 1.014-1.861 1.52-3.248 1.52z" fill="#fff"/><path opacity=".6" d="M5.412 60.612H3.384v5.436h-.996v-5.436H.36v-.84h5.052v.84zm6.893-.84h.996v6.276h-.996v-6.276zm-5.4 0h.996v2.196h1.116c.712 0 1.288.16 1.728.48.448.32.672.824.672 1.512v.036c0 .68-.224 1.192-.672 1.536-.448.344-1.024.516-1.728.516H6.905v-6.276zm2.172 5.484c.472 0 .812-.1 1.02-.3.216-.208.324-.528.324-.96v-.036c0-.4-.104-.7-.312-.9-.208-.208-.552-.312-1.032-.312H7.901v2.508h1.176zm9.038.9c-.896 0-1.632-.288-2.208-.864-.576-.584-.864-1.356-.864-2.316v-.096c0-.944.292-1.716.876-2.316.592-.6 1.316-.9 2.172-.9.72 0 1.332.18 1.836.54.504.352.8.904.888 1.656h-.984c-.144-.912-.724-1.368-1.74-1.368-.584 0-1.068.22-1.452.66-.376.432-.564 1.008-.564 1.728v.096c0 .752.184 1.332.552 1.74.376.408.876.612 1.5.612.472 0 .876-.132 1.212-.396.344-.272.54-.652.588-1.14h.924a2.49 2.49 0 01-.864 1.704c-.504.44-1.128.66-1.872.66zm7.656-6.384h.996v1.056c.184-.32.472-.592.864-.816a2.432 2.432 0 011.26-.348c.84 0 1.524.284 2.052.852.536.568.804 1.336.804 2.304v.096c0 .968-.264 1.752-.792 2.352-.52.592-1.208.888-2.064.888-.96 0-1.668-.38-2.124-1.14v3.216h-.996v-8.46zm3.024 5.556c.624 0 1.1-.2 1.428-.6.328-.408.492-.996.492-1.764v-.096c0-.76-.184-1.344-.552-1.752a1.743 1.743 0 00-1.38-.624c-.608 0-1.104.204-1.488.612-.376.4-.564.988-.564 1.764v.096c0 .776.184 1.364.552 1.764.376.4.88.6 1.512.6zm6.254.072l-2.46-5.628h1.068l1.92 4.5 1.74-4.5h1.02l-3.468 8.46h-1.008L35.05 65.4zm7.348.756c-.944 0-1.692-.304-2.244-.912-.552-.608-.828-1.532-.828-2.772v-.384c0-.592.024-1.116.072-1.572.048-.464.148-.928.3-1.392.152-.472.352-.864.6-1.176.248-.312.584-.572 1.008-.78.432-.208.94-.328 1.524-.36l.24-.012c.88-.048 1.476-.136 1.788-.264l.132.84c-.408.176-1.044.284-1.908.324l-.18.012c-.968.048-1.66.364-2.076.948-.408.576-.648 1.472-.72 2.688h.048c.216-.44.536-.788.96-1.044.432-.264.932-.396 1.5-.396.872 0 1.568.284 2.088.852.528.56.792 1.288.792 2.184v.048c0 .968-.292 1.74-.876 2.316-.576.568-1.316.852-2.22.852zm-1.5-1.44c.368.408.872.612 1.512.612s1.14-.2 1.5-.6c.368-.408.552-.984.552-1.728v-.024c0-.696-.168-1.244-.504-1.644-.328-.4-.808-.6-1.44-.6-.664 0-1.192.208-1.584.624-.384.416-.576.984-.576 1.704v.024c0 .68.18 1.224.54 1.632z" fill="#fff"/><path d="M19.396 47.988c-1.184 0-2.139-.33-2.864-.992-.715-.662-1.094-1.504-1.136-2.528h1.28c.064.725.325 1.306.784 1.744.458.437 1.114.656 1.968.656.874 0 1.525-.192 1.952-.576.437-.395.656-.939.656-1.632 0-1.483-.806-2.224-2.416-2.224h-.864v-1.168h.8c1.429 0 2.144-.65 2.144-1.952 0-.566-.176-1.024-.528-1.376-.352-.363-.87-.544-1.552-.544-.704 0-1.286.197-1.744.592-.448.394-.71.917-.784 1.568h-1.216c.042-.918.41-1.696 1.104-2.336.693-.64 1.573-.96 2.64-.96 1.045 0 1.877.298 2.496.896.629.586.944 1.296.944 2.128 0 1.162-.603 1.994-1.808 2.496 1.472.405 2.208 1.365 2.208 2.88 0 1.034-.379 1.85-1.136 2.448-.747.586-1.723.88-2.928.88zm5.683-.464l4.544-4.784c1.099-1.163 1.648-2.267 1.648-3.312 0-.64-.181-1.142-.544-1.504-.352-.363-.853-.544-1.504-.544-1.387 0-2.192.848-2.416 2.544h-1.296c.085-1.13.453-2.022 1.104-2.672.661-.662 1.53-.992 2.608-.992 1.056 0 1.893.293 2.512.88.63.576.944 1.354.944 2.336 0 1.258-.768 2.645-2.304 4.16l-3.152 3.072h5.52v1.136h-7.664v-.32zm14.344-.688c2.016 0 3.024-1.478 3.024-4.432v-.64c0-1.334-.272-2.395-.816-3.184-.544-.8-1.29-1.2-2.24-1.2-.97 0-1.728.384-2.272 1.152-.544.768-.816 1.856-.816 3.264v.64c0 1.418.278 2.506.832 3.264.555.757 1.318 1.136 2.288 1.136zm0 1.152c-1.365 0-2.464-.507-3.296-1.52-.832-1.014-1.248-2.352-1.248-4.016v-.64c0-1.696.4-3.046 1.2-4.048.811-1.003 1.915-1.504 3.312-1.504 1.387 0 2.475.506 3.264 1.52.8 1.013 1.2 2.346 1.2 4v.64c0 1.685-.394 3.034-1.184 4.048-.778 1.013-1.86 1.52-3.248 1.52z" fill="#fff"/><defs><radialGradient id="paint0_radial" cx="0" cy="0" r="1" gradientUnits="userSpaceOnUse" gradientTransform="matrix(158.49994 243.00026 -394.00025 256.99156 484 241)"><stop stop-color="#F1D5C0"/><stop offset="1" stop-color="#F1D5C0" stop-opacity="0"/></radialGradient></defs></svg>