<svg width="446" height="288" fill="none" xmlns="http://www.w3.org/2000/svg"><path opacity=".6" d="M5.059 28.923H3.538V33h-.747v-4.077H1.27v-.63h3.789v.63zm5.17-.63h.747V33h-.747v-4.707zm-4.05 0h.747v1.647h.837c.534 0 .966.12 1.296.36.336.24.504.618.504 1.134v.027c0 .51-.168.894-.504 1.152-.336.258-.768.387-1.296.387H6.179v-4.707zm1.629 4.113c.354 0 .609-.075.765-.225.162-.156.243-.396.243-.72v-.027c0-.3-.078-.525-.234-.675-.156-.156-.414-.234-.774-.234h-.882v1.881h.882zm6.779.675c-.672 0-1.224-.216-1.656-.648-.432-.438-.648-1.017-.648-1.737v-.072c0-.708.219-1.287.657-1.737a2.2 2.2 0 011.629-.675c.54 0 .999.135 1.377.405.378.264.6.678.666 1.242h-.738c-.108-.684-.543-1.026-1.305-1.026-.438 0-.801.165-1.09.495-.281.324-.422.756-.422 1.296v.072c0 .564.138.999.414 1.305.282.306.657.459 1.125.459.354 0 .657-.099.909-.297.258-.204.405-.489.44-.855h.694a1.867 1.867 0 01-.648 1.278c-.378.33-.846.495-1.404.495zm5.741-4.788h.747v.792c.138-.24.354-.444.648-.612.294-.174.61-.261.945-.261.63 0 1.143.213 1.54.639.401.426.602 1.002.602 1.728v.072c0 .726-.198 1.314-.594 1.764-.39.444-.906.666-1.548.666-.72 0-1.25-.285-1.593-.855v2.412h-.747v-6.345zm2.268 4.167c.468 0 .825-.15 1.071-.45.246-.306.37-.747.37-1.323v-.072c0-.57-.139-1.008-.415-1.314a1.308 1.308 0 00-1.035-.468c-.456 0-.828.153-1.116.459-.282.3-.423.741-.423 1.323v.072c0 .582.138 1.023.414 1.323.282.3.66.45 1.134.45zm4.69.054l-1.844-4.221h.8l1.44 3.375 1.306-3.375h.765l-2.601 6.345h-.756l.89-2.124zm5.512.567c-.708 0-1.27-.228-1.683-.684-.414-.456-.621-1.149-.621-2.079v-.288c0-.444.018-.837.054-1.179a5 5 0 01.225-1.044c.114-.354.264-.648.45-.882a2.16 2.16 0 01.756-.585 2.994 2.994 0 011.143-.27l.18-.009c.66-.036 1.107-.102 1.34-.198l.1.63c-.306.132-.783.213-1.431.243l-.135.009c-.726.036-1.245.273-1.557.711-.306.432-.486 1.104-.54 2.016h.036a1.85 1.85 0 01.72-.783 2.114 2.114 0 011.125-.297c.654 0 1.176.213 1.566.639.396.42.594.966.594 1.638v.036c0 .726-.22 1.305-.657 1.737-.432.426-.987.639-1.665.639zm-1.125-1.08c.276.306.654.459 1.134.459.48 0 .855-.15 1.125-.45.276-.306.414-.738.414-1.296v-.018c0-.522-.126-.933-.378-1.233-.246-.3-.606-.45-1.08-.45-.498 0-.894.156-1.188.468-.288.312-.432.738-.432 1.278v.018c0 .51.135.918.405 1.224z" fill="#fff"/><path d="M7.03 149.5H3.45v-.28l3.27-5.37h1.16v4.94h.99v.71h-.99v1.5h-.85v-1.5zm0-.71v-4.28l-2.48 4.28h2.48zm4.251-4.08l-1.6 1.15v-.81l1.66-1.2h.81V151h-.87v-6.29zm5.722 5.66c1.26 0 1.89-.923 1.89-2.77v-.4c0-.833-.17-1.497-.51-1.99-.34-.5-.807-.75-1.4-.75-.607 0-1.08.24-1.42.72-.34.48-.51 1.16-.51 2.04v.4c0 .887.173 1.567.52 2.04.346.473.823.71 1.43.71zm0 .72c-.854 0-1.54-.317-2.06-.95s-.78-1.47-.78-2.51v-.4c0-1.06.25-1.903.75-2.53.506-.627 1.196-.94 2.07-.94.866 0 1.546.317 2.04.95.5.633.75 1.467.75 2.5v.4c0 1.053-.247 1.897-.74 2.53-.487.633-1.164.95-2.03.95zM5.03 124.82H1.45v-.28l3.27-5.37h1.16v4.94h.99v.71h-.99v1.5h-.85v-1.5zm0-.71v-4.28l-2.48 4.28h2.48zm5.23 2.3c-.74 0-1.308-.18-1.7-.54-.394-.366-.62-.86-.68-1.48h.83c.08.434.23.764.45.99.22.22.582.33 1.09.33.486 0 .87-.153 1.15-.46.28-.306.42-.73.42-1.27 0-.506-.138-.91-.41-1.21-.268-.306-.63-.46-1.09-.46-.4 0-.73.057-.99.17-.26.114-.494.287-.7.52h-.32v-3.83h4.02v.75h-3.3v2.18c.352-.326.84-.49 1.46-.49.652 0 1.186.217 1.6.65.412.427.62 1 .62 1.72 0 .74-.234 1.33-.7 1.77-.468.44-1.05.66-1.75.66zm6.667-.72c1.26 0 1.89-.923 1.89-2.77v-.4c0-.833-.17-1.496-.51-1.99-.34-.5-.807-.75-1.4-.75-.607 0-1.08.24-1.42.72-.34.48-.51 1.16-.51 2.04v.4c0 .887.173 1.567.52 2.04.346.474.823.71 1.43.71zm0 .72c-.854 0-1.54-.316-2.06-.95-.52-.633-.78-1.47-.78-2.51v-.4c0-1.06.25-1.903.75-2.53.506-.626 1.196-.94 2.07-.94.866 0 1.546.317 2.04.95.5.634.75 1.467.75 2.5v.4c0 1.054-.247 1.897-.74 2.53-.487.634-1.164.95-2.03.95zM3.96 226.492c-.74 0-1.337-.206-1.79-.62-.447-.413-.683-.94-.71-1.58h.8c.04.454.203.817.49 1.09.287.274.697.41 1.23.41.547 0 .953-.12 1.22-.36.273-.246.41-.586.41-1.02 0-.926-.503-1.39-1.51-1.39h-.54v-.73h.5c.893 0 1.34-.406 1.34-1.22 0-.353-.11-.64-.33-.86-.22-.226-.543-.34-.97-.34-.44 0-.803.124-1.09.37-.28.247-.443.574-.49.98h-.76c.027-.573.257-1.06.69-1.46.433-.4.983-.6 1.65-.6.653 0 1.173.187 1.56.56.393.367.59.81.59 1.33 0 .727-.377 1.247-1.13 1.56.92.254 1.38.854 1.38 1.8 0 .647-.237 1.157-.71 1.53-.467.367-1.077.55-1.83.55zm6.172 0c-.74 0-1.307-.18-1.7-.54-.393-.366-.62-.86-.68-1.48h.83c.08.434.23.764.45.99.22.22.583.33 1.09.33.487 0 .87-.153 1.15-.46.28-.306.42-.73.42-1.27 0-.506-.137-.91-.41-1.21-.267-.306-.63-.46-1.09-.46-.4 0-.73.057-.99.17-.26.114-.493.287-.7.52h-.32v-3.83h4.02v.75h-3.3v2.18c.353-.326.84-.49 1.46-.49.653 0 1.187.217 1.6.65.413.427.62 1 .62 1.72 0 .74-.233 1.33-.7 1.77-.467.44-1.05.66-1.75.66zm6.668-.72c1.26 0 1.89-.923 1.89-2.77v-.4c0-.833-.17-1.496-.51-1.99-.34-.5-.807-.75-1.4-.75-.607 0-1.08.24-1.42.72-.34.48-.51 1.16-.51 2.04v.4c0 .887.173 1.567.52 2.04.346.474.823.71 1.43.71zm0 .72c-.854 0-1.54-.316-2.06-.95-.52-.633-.78-1.47-.78-2.51v-.4c0-1.06.25-1.903.75-2.53.506-.626 1.196-.94 2.07-.94.866 0 1.546.317 2.04.95.5.634.75 1.467.75 2.5v.4c0 1.054-.247 1.897-.74 2.53-.487.634-1.164.95-2.03.95zm-11.84-25.02c-.74 0-1.337-.207-1.79-.62-.447-.413-.683-.94-.71-1.58h.8c.04.453.203.817.49 1.09.287.273.697.41 1.23.41.547 0 .953-.12 1.22-.36.273-.247.41-.587.41-1.02 0-.927-.503-1.39-1.51-1.39h-.54v-.73h.5c.893 0 1.34-.407 1.34-1.22 0-.353-.11-.64-.33-.86-.22-.227-.543-.34-.97-.34-.44 0-.803.123-1.09.37-.28.247-.443.573-.49.98h-.76c.027-.573.257-1.06.69-1.46.433-.4.983-.6 1.65-.6.653 0 1.173.187 1.56.56.393.367.59.81.59 1.33 0 .727-.377 1.247-1.13 1.56.92.253 1.38.853 1.38 1.8 0 .647-.237 1.157-.71 1.53-.467.367-1.077.55-1.83.55zm7.058-6.54h-3.63v-.7h4.71v.12l-2.68 7.03h-.89l2.49-6.45zm4.815 5.82c1.26 0 1.89-.923 1.89-2.77v-.4c0-.833-.17-1.497-.51-1.99-.34-.5-.807-.75-1.4-.75-.607 0-1.08.24-1.42.72-.34.48-.51 1.16-.51 2.04v.4c0 .887.173 1.567.52 2.04.346.473.823.71 1.43.71zm0 .72c-.853 0-1.54-.317-2.06-.95s-.78-1.47-.78-2.51v-.4c0-1.06.25-1.903.75-2.53.506-.627 1.197-.94 2.07-.94.867 0 1.547.317 2.04.95.5.633.75 1.467.75 2.5v.4c0 1.053-.247 1.897-.74 2.53-.487.633-1.163.95-2.03.95zM3.96 176.451c-.74 0-1.337-.206-1.79-.62-.447-.413-.683-.94-.71-1.58h.8c.04.454.203.817.49 1.09.287.274.697.41 1.23.41.547 0 .953-.12 1.22-.36.273-.246.41-.586.41-1.02 0-.926-.503-1.39-1.51-1.39h-.54v-.73h.5c.893 0 1.34-.406 1.34-1.22 0-.353-.11-.64-.33-.86-.22-.226-.543-.34-.97-.34-.44 0-.803.124-1.09.37-.28.247-.443.574-.49.98h-.76c.027-.573.257-1.06.69-1.46.433-.4.983-.6 1.65-.6.653 0 1.173.187 1.56.56.393.367.59.81.59 1.33 0 .727-.377 1.247-1.13 1.56.92.254 1.38.854 1.38 1.8 0 .647-.237 1.157-.71 1.53-.467.367-1.077.55-1.83.55zm6.262-.01c-.653 0-1.177-.16-1.57-.48-.393-.32-.637-.773-.73-1.36h.84c.087.374.243.657.47.85.233.187.57.28 1.01.28.58 0 1.027-.236 1.34-.71.313-.473.477-1.183.49-2.13-.18.3-.43.534-.75.7-.32.167-.687.25-1.1.25-.693 0-1.26-.22-1.7-.66-.433-.44-.65-1-.65-1.68 0-.72.223-1.296.67-1.73.447-.44 1.047-.66 1.8-.66.847 0 1.487.274 1.92.82.433.547.65 1.34.65 2.38v.45c0 1.194-.233 2.107-.7 2.74-.46.627-1.123.94-1.99.94zm.13-3.28c.48 0 .873-.143 1.18-.43.307-.286.46-.66.46-1.12 0-.573-.153-1.02-.46-1.34-.3-.32-.697-.48-1.19-.48-.467 0-.847.154-1.14.46-.293.307-.44.71-.44 1.21 0 .52.143.934.43 1.24.287.307.673.46 1.16.46zm6.828 2.57c1.26 0 1.89-.923 1.89-2.77v-.4c0-.833-.17-1.496-.51-1.99-.34-.5-.806-.75-1.4-.75-.606 0-1.08.24-1.42.72-.34.48-.51 1.16-.51 2.04v.4c0 .887.174 1.567.52 2.04.347.474.824.71 1.43.71zm0 .72c-.853 0-1.54-.316-2.06-.95-.52-.633-.78-1.47-.78-2.51v-.4c0-1.06.25-1.903.75-2.53.507-.626 1.197-.94 2.07-.94.867 0 1.547.317 2.04.95.5.634.75 1.467.75 2.5v.4c0 1.054-.246 1.897-.74 2.53-.486.634-1.163.95-2.03.95zM5.03 100.5H1.45v-.28l3.27-5.37h1.16v4.94h.99v.71h-.99v1.5h-.85v-1.5zm0-.71v-4.28l-2.48 4.28h2.48zm5.59 2.3c-1.714 0-2.57-1.083-2.57-3.25v-.17c0-1.253.252-2.217.76-2.89.512-.68 1.192-1.02 2.04-1.02.572 0 1.04.147 1.4.44.366.293.596.723.69 1.29h-.83c-.08-.347-.224-.603-.43-.77-.208-.167-.504-.25-.89-.25-.554 0-1 .247-1.34.74-.34.493-.52 1.2-.54 2.12.386-.647 1-.97 1.84-.97.7 0 1.262.223 1.69.67.432.44.65.997.65 1.67 0 .72-.224 1.3-.67 1.74-.448.433-1.048.65-1.8.65zm0-.68c.466 0 .846-.153 1.14-.46.292-.307.44-.71.44-1.21 0-.52-.144-.933-.43-1.24-.288-.307-.674-.46-1.16-.46-.48 0-.874.147-1.18.44-.308.293-.46.673-.46 1.14 0 .567.15 1.007.45 1.32.306.313.706.47 1.2.47zm6.629-.04c1.26 0 1.89-.923 1.89-2.77v-.4c0-.833-.17-1.497-.51-1.99-.34-.5-.807-.75-1.4-.75-.607 0-1.08.24-1.42.72-.34.48-.51 1.16-.51 2.04v.4c0 .887.173 1.567.52 2.04.347.473.823.71 1.43.71zm0 .72c-.854 0-1.54-.317-2.06-.95s-.78-1.47-.78-2.51v-.4c0-1.06.25-1.903.75-2.53.506-.627 1.196-.94 2.07-.94.867 0 1.547.317 2.04.95.5.633.75 1.467.75 2.5v.4c0 1.053-.247 1.897-.74 2.53-.487.633-1.163.95-2.03.95zm-14.379-24c-.74 0-1.307-.18-1.7-.54-.393-.367-.62-.86-.68-1.48h.83c.08.433.23.763.45.99.22.22.583.33 1.09.33.487 0 .87-.153 1.15-.46.28-.307.42-.73.42-1.27 0-.507-.137-.91-.41-1.21-.267-.307-.63-.46-1.09-.46-.4 0-.73.057-.99.17-.26.113-.493.287-.7.52H.92v-3.83h4.02v.75h-3.3v2.18c.353-.327.84-.49 1.46-.49.653 0 1.187.217 1.6.65.413.427.62 1 .62 1.72 0 .74-.233 1.33-.7 1.77-.467.44-1.05.66-1.75.66zm6.667-.72c1.26 0 1.89-.923 1.89-2.77v-.4c0-.833-.17-1.497-.51-1.99-.34-.5-.806-.75-1.4-.75-.606 0-1.08.24-1.42.72-.34.48-.51 1.16-.51 2.04v.4c0 .887.174 1.567.52 2.04.347.473.824.71 1.43.71zm0 .72c-.853 0-1.54-.317-2.06-.95s-.78-1.47-.78-2.51v-.4c0-1.06.25-1.903.75-2.53.507-.627 1.197-.94 2.07-.94.867 0 1.547.317 2.04.95.5.633.75 1.467.75 2.5v.4c0 1.053-.246 1.897-.74 2.53-.486.633-1.163.95-2.03.95zm7.034-.72c1.26 0 1.89-.923 1.89-2.77v-.4c0-.833-.17-1.497-.51-1.99-.34-.5-.807-.75-1.4-.75-.607 0-1.08.24-1.42.72-.34.48-.51 1.16-.51 2.04v.4c0 .887.173 1.567.52 2.04.347.473.823.71 1.43.71zm0 .72c-.853 0-1.54-.317-2.06-.95s-.78-1.47-.78-2.51v-.4c0-1.06.25-1.903.75-2.53.507-.627 1.197-.94 2.07-.94.867 0 1.547.317 2.04.95.5.633.75 1.467.75 2.5v.4c0 1.053-.247 1.897-.74 2.53-.487.633-1.163.95-2.03.95z" fill="#fff"/><path opacity=".6" d="M290.763 269.081c-.672 0-1.224-.216-1.656-.648-.432-.438-.648-1.017-.648-1.737v-.072c0-.708.219-1.287.657-1.737a2.2 2.2 0 011.629-.675c.54 0 .999.135 1.377.405.378.264.6.678.666 1.242h-.738c-.108-.684-.543-1.026-1.305-1.026-.438 0-.801.165-1.089.495-.282.324-.423.756-.423 1.296v.072c0 .564.138.999.414 1.305.282.306.657.459 1.125.459.354 0 .657-.099.909-.297.258-.204.405-.489.441-.855h.693a1.867 1.867 0 01-.648 1.278c-.378.33-.846.495-1.404.495zm5.196 0c-.672 0-1.221-.219-1.647-.657-.42-.438-.63-1.014-.63-1.728v-.072c0-.708.204-1.287.612-1.737.414-.45.945-.675 1.593-.675.6 0 1.101.195 1.503.585.408.384.612.969.612 1.755v.243h-3.546c.036 1.11.54 1.665 1.512 1.665.738 0 1.155-.273 1.251-.819h.747c-.084.468-.303.825-.657 1.071-.354.246-.804.369-1.35.369zm1.278-2.889c-.066-.906-.516-1.359-1.35-1.359-.378 0-.69.12-.936.36-.246.24-.402.573-.468.999h2.754zm5.007.711h-2.313V269h-.747v-4.707h.747v1.98h2.313v-1.98h.747V269h-.747v-2.097zm5.65-1.98h-1.521V269h-.747v-4.077h-1.521v-.63h3.789v.63zm2.686-.036c-.672 0-1.008.285-1.008.855v.027c0 .27.078.474.234.612.156.138.414.207.774.207h.882v-1.701h-.882zM309.338 269h-.855l1.431-1.971c-.726-.15-1.089-.57-1.089-1.26v-.027c0-.492.168-.855.504-1.089.336-.24.768-.36 1.296-.36h1.584V269h-.747v-1.845h-.81L309.338 269zm6.502.081c-.708 0-1.269-.228-1.683-.684-.414-.456-.621-1.149-.621-2.079v-.288c0-.444.018-.837.054-1.179a5 5 0 01.225-1.044c.114-.354.264-.648.45-.882a2.16 2.16 0 01.756-.585 2.994 2.994 0 011.143-.27l.18-.009c.66-.036 1.107-.102 1.341-.198l.099.63c-.306.132-.783.213-1.431.243l-.135.009c-.726.036-1.245.273-1.557.711-.306.432-.486 1.104-.54 2.016h.036a1.85 1.85 0 01.72-.783 2.114 2.114 0 011.125-.297c.654 0 1.176.213 1.566.639.396.42.594.966.594 1.638v.036c0 .726-.219 1.305-.657 1.737-.432.426-.987.639-1.665.639zm-1.125-1.08c.276.306.654.459 1.134.459.48 0 .855-.15 1.125-.45.276-.306.414-.738.414-1.296v-.018c0-.522-.126-.933-.378-1.233-.246-.3-.606-.45-1.08-.45-.498 0-.894.156-1.188.468-.288.312-.432.738-.432 1.278v.018c0 .51.135.918.405 1.224zm4.755-3.708h.747v.792c.138-.24.354-.444.648-.612.294-.174.609-.261.945-.261.63 0 1.143.213 1.539.639.402.426.603 1.002.603 1.728v.072c0 .726-.198 1.314-.594 1.764-.39.444-.906.666-1.548.666-.72 0-1.251-.285-1.593-.855v2.412h-.747v-6.345zm2.268 4.167c.468 0 .825-.15 1.071-.45.246-.306.369-.747.369-1.323v-.072c0-.57-.138-1.008-.414-1.314a1.308 1.308 0 00-1.035-.468c-.456 0-.828.153-1.116.459-.282.3-.423.741-.423 1.323v.072c0 .582.138 1.023.414 1.323.282.3.66.45 1.134.45zm3.411-4.167h.747v1.647h.837c.528 0 .96.129 1.296.387.336.258.504.642.504 1.152v.027c0 .516-.168.894-.504 1.134-.33.24-.762.36-1.296.36h-1.584v-4.707zm1.629 4.122c.36 0 .618-.075.774-.225.156-.156.234-.384.234-.684v-.027c0-.324-.081-.561-.243-.711-.156-.156-.411-.234-.765-.234h-.882v1.881h.882z" fill="#fff"/><path d="M288.25 283.8l2.84-2.99c.687-.727 1.03-1.417 1.03-2.07 0-.4-.113-.713-.34-.94-.22-.227-.533-.34-.94-.34-.867 0-1.37.53-1.51 1.59h-.81c.053-.707.283-1.263.69-1.67.413-.413.957-.62 1.63-.62.66 0 1.183.183 1.57.55.393.36.59.847.59 1.46 0 .787-.48 1.653-1.44 2.6l-1.97 1.92h3.45v.71h-4.79v-.2zm8.965-.43c1.26 0 1.89-.923 1.89-2.77v-.4c0-.833-.17-1.497-.51-1.99-.34-.5-.806-.75-1.4-.75-.606 0-1.08.24-1.42.72-.34.48-.51 1.16-.51 2.04v.4c0 .887.174 1.567.52 2.04.347.473.824.71 1.43.71zm0 .72c-.853 0-1.54-.317-2.06-.95s-.78-1.47-.78-2.51v-.4c0-1.06.25-1.903.75-2.53.507-.627 1.197-.94 2.07-.94.867 0 1.547.317 2.04.95.5.633.75 1.467.75 2.5v.4c0 1.053-.246 1.897-.74 2.53-.486.633-1.163.95-2.03.95zm3.784-.29l2.84-2.99c.686-.727 1.03-1.417 1.03-2.07 0-.4-.114-.713-.34-.94-.22-.227-.534-.34-.94-.34-.867 0-1.37.53-1.51 1.59h-.81c.053-.707.283-1.263.69-1.67.413-.413.956-.62 1.63-.62.66 0 1.183.183 1.57.55.393.36.59.847.59 1.46 0 .787-.48 1.653-1.44 2.6l-1.97 1.92h3.45v.71h-4.79v-.2zm8.965-.43c1.26 0 1.89-.923 1.89-2.77v-.4c0-.833-.17-1.497-.51-1.99-.34-.5-.807-.75-1.4-.75-.607 0-1.08.24-1.42.72-.34.48-.51 1.16-.51 2.04v.4c0 .887.173 1.567.52 2.04.347.473.823.71 1.43.71zm0 .72c-.853 0-1.54-.317-2.06-.95s-.78-1.47-.78-2.51v-.4c0-1.06.25-1.903.75-2.53.507-.627 1.197-.94 2.07-.94.867 0 1.547.317 2.04.95.5.633.75 1.467.75 2.5v.4c0 1.053-.247 1.897-.74 2.53-.487.633-1.163.95-2.03.95z" fill="#fff"/><path opacity=".6" d="M194.989 269.081c-.462 0-.84-.114-1.134-.342-.288-.234-.432-.582-.432-1.044 0-.258.063-.483.189-.675.132-.198.312-.351.54-.459.228-.114.477-.195.747-.243a4.5 4.5 0 01.882-.081h.675v-.342c0-.378-.078-.648-.234-.81-.156-.168-.414-.252-.774-.252-.648 0-1.008.282-1.08.846h-.747c.048-.504.243-.873.585-1.107.348-.24.774-.36 1.278-.36 1.146 0 1.719.561 1.719 1.683V269h-.747v-.594c-.36.45-.849.675-1.467.675zm.072-.594c.408 0 .741-.099.999-.297.264-.204.396-.483.396-.837v-.585h-.648c-1.092 0-1.638.309-1.638.927 0 .528.297.792.891.792zm3.645-4.194h1.647c1.104 0 1.656.399 1.656 1.197v.027c0 .228-.063.438-.189.63a.942.942 0 01-.567.378c.654.144.981.498.981 1.062v.027c0 .456-.15.801-.45 1.035-.294.234-.705.351-1.233.351h-1.845v-4.707zm.747.594v1.395h.9c.312 0 .534-.057.666-.171.138-.114.207-.3.207-.558v-.027c0-.24-.072-.405-.216-.495-.138-.096-.36-.144-.666-.144h-.891zm0 1.989v1.53h1.026c.33 0 .573-.057.729-.171.162-.12.243-.312.243-.576v-.027c0-.264-.081-.456-.243-.576-.156-.12-.399-.18-.729-.18h-1.026zm4.81-1.953V269h-.747v-4.707h2.988v.63h-2.241zm4.86 3.591l-1.845-4.221h.801l1.44 3.375 1.305-3.375h.765l-2.601 6.345h-.756l.891-2.124zm5.36.567c-.672 0-1.224-.216-1.656-.648-.432-.438-.648-1.017-.648-1.737v-.072c0-.708.219-1.287.657-1.737a2.2 2.2 0 011.629-.675c.54 0 .999.135 1.377.405.378.264.6.678.666 1.242h-.738c-.108-.684-.543-1.026-1.305-1.026-.438 0-.801.165-1.089.495-.282.324-.423.756-.423 1.296v.072c0 .564.138.999.414 1.305.282.306.657.459 1.125.459.354 0 .657-.099.909-.297.258-.204.405-.489.441-.855h.693a1.867 1.867 0 01-.648 1.278c-.378.33-.846.495-1.404.495zm6.519-4.158h-1.521V269h-.747v-4.077h-1.521v-.63h3.789v.63z" fill="#fff"/><path d="M193.25 283.8l2.84-2.99c.687-.727 1.03-1.417 1.03-2.07 0-.4-.113-.713-.34-.94-.22-.227-.533-.34-.94-.34-.867 0-1.37.53-1.51 1.59h-.81c.053-.707.283-1.263.69-1.67.413-.413.957-.62 1.63-.62.66 0 1.183.183 1.57.55.393.36.59.847.59 1.46 0 .787-.48 1.653-1.44 2.6l-1.97 1.92h3.45v.71h-4.79v-.2zm8.965-.43c1.26 0 1.89-.923 1.89-2.77v-.4c0-.833-.17-1.497-.51-1.99-.34-.5-.806-.75-1.4-.75-.606 0-1.08.24-1.42.72-.34.48-.51 1.16-.51 2.04v.4c0 .887.174 1.567.52 2.04.347.473.824.71 1.43.71zm0 .72c-.853 0-1.54-.317-2.06-.95s-.78-1.47-.78-2.51v-.4c0-1.06.25-1.903.75-2.53.507-.627 1.197-.94 2.07-.94.867 0 1.547.317 2.04.95.5.633.75 1.467.75 2.5v.4c0 1.053-.246 1.897-.74 2.53-.486.633-1.163.95-2.03.95zm3.784-.29l2.84-2.99c.686-.727 1.03-1.417 1.03-2.07 0-.4-.114-.713-.34-.94-.22-.227-.534-.34-.94-.34-.867 0-1.37.53-1.51 1.59h-.81c.053-.707.283-1.263.69-1.67.413-.413.956-.62 1.63-.62.66 0 1.183.183 1.57.55.393.36.59.847.59 1.46 0 .787-.48 1.653-1.44 2.6l-1.97 1.92h3.45v.71h-4.79v-.2zm8.965-.43c1.26 0 1.89-.923 1.89-2.77v-.4c0-.833-.17-1.497-.51-1.99-.34-.5-.807-.75-1.4-.75-.607 0-1.08.24-1.42.72-.34.48-.51 1.16-.51 2.04v.4c0 .887.173 1.567.52 2.04.347.473.823.71 1.43.71zm0 .72c-.853 0-1.54-.317-2.06-.95s-.78-1.47-.78-2.51v-.4c0-1.06.25-1.903.75-2.53.507-.627 1.197-.94 2.07-.94.867 0 1.547.317 2.04.95.5.633.75 1.467.75 2.5v.4c0 1.053-.247 1.897-.74 2.53-.487.633-1.163.95-2.03.95z" fill="#fff"/><path opacity=".6" d="M98.763 269.081c-.672 0-1.224-.216-1.656-.648-.432-.438-.648-1.017-.648-1.737v-.072c0-.708.219-1.287.657-1.737a2.2 2.2 0 011.629-.675c.54 0 .999.135 1.377.405.378.264.6.678.666 1.242h-.738c-.108-.684-.543-1.026-1.305-1.026-.438 0-.801.165-1.089.495-.282.324-.423.756-.423 1.296v.072c0 .564.138.999.414 1.305.282.306.657.459 1.125.459.354 0 .657-.099.909-.297.258-.204.405-.489.441-.855h.693a1.867 1.867 0 01-.648 1.278c-.378.33-.846.495-1.404.495zm6.519-4.158h-1.521V269h-.747v-4.077h-1.521v-.63h3.789v.63zm2.309 4.158c-.462 0-.84-.114-1.134-.342-.288-.234-.432-.582-.432-1.044 0-.258.063-.483.189-.675.132-.198.312-.351.54-.459.228-.114.477-.195.747-.243a4.5 4.5 0 01.882-.081h.675v-.342c0-.378-.078-.648-.234-.81-.156-.168-.414-.252-.774-.252-.648 0-1.008.282-1.08.846h-.747c.048-.504.243-.873.585-1.107.348-.24.774-.36 1.278-.36 1.146 0 1.719.561 1.719 1.683V269h-.747v-.594c-.36.45-.849.675-1.467.675zm.072-.594c.408 0 .741-.099.999-.297.264-.204.396-.483.396-.837v-.585h-.648c-1.092 0-1.638.309-1.638.927 0 .528.297.792.891.792zm3.699-4.194h.747v.792c.138-.24.354-.444.648-.612.294-.174.609-.261.945-.261.63 0 1.143.213 1.539.639.402.426.603 1.002.603 1.728v.072c0 .726-.198 1.314-.594 1.764-.39.444-.906.666-1.548.666-.72 0-1.251-.285-1.593-.855v2.412h-.747v-6.345zm2.268 4.167c.468 0 .825-.15 1.071-.45.246-.306.369-.747.369-1.323v-.072c0-.57-.138-1.008-.414-1.314a1.308 1.308 0 00-1.035-.468c-.456 0-.828.153-1.116.459-.282.3-.423.741-.423 1.323v.072c0 .582.138 1.023.414 1.323.282.3.66.45 1.134.45zm6.626-3.537h-1.521V269h-.747v-4.077h-1.521v-.63h3.789v.63z" fill="#fff"/><path d="M100.14 279.47h-2.47V284h-.83v-5.23h4.13V284h-.83v-4.53zm2.671-.7h.83v.88c.153-.267.393-.493.72-.68.326-.193.676-.29 1.05-.29.7 0 1.27.237 1.71.71.446.473.67 1.113.67 1.92v.08c0 .807-.22 1.46-.66 1.96-.434.493-1.007.74-1.72.74-.8 0-1.39-.317-1.77-.95v2.68h-.83v-7.05zm2.52 4.63c.52 0 .916-.167 1.19-.5.273-.34.41-.83.41-1.47v-.08c0-.633-.154-1.12-.46-1.46-.3-.347-.684-.52-1.15-.52-.507 0-.92.17-1.24.51-.314.333-.47.823-.47 1.47v.08c0 .647.153 1.137.46 1.47.313.333.733.5 1.26.5zm6.029 0c.52 0 .933-.18 1.24-.54.313-.36.47-.837.47-1.43v-.07c0-.607-.157-1.09-.47-1.45-.307-.36-.72-.54-1.24-.54-.527 0-.943.18-1.25.54-.307.36-.46.84-.46 1.44v.08c0 .607.15 1.087.45 1.44.307.353.727.53 1.26.53zm-.01.69c-.74 0-1.353-.25-1.84-.75-.48-.507-.72-1.143-.72-1.91v-.08c0-.78.24-1.42.72-1.92.487-.5 1.103-.75 1.85-.75.747 0 1.36.25 1.84.75.487.493.73 1.13.73 1.91v.08c0 .787-.243 1.43-.73 1.93-.487.493-1.103.74-1.85.74zm4.779-2.11c-.074.613-.187 1.053-.34 1.32h2.45v-3.85h-1.92a39.481 39.481 0 01-.19 2.53zm-1.04 3.29h-.67v-1.97h.37c.186-.047.316-.18.39-.4.073-.227.136-.55.19-.97.06-.54.116-1.22.17-2.04.026-.367.046-.74.06-1.12h3.45v4.53h.8v1.97h-.67l-.06-1.27h-3.97l-.06 1.27zm7.271-1.18c-.513 0-.933-.127-1.26-.38-.32-.26-.48-.647-.48-1.16 0-.287.07-.537.21-.75.147-.22.347-.39.6-.51.253-.127.53-.217.83-.27.3-.06.627-.09.98-.09h.75v-.38c0-.42-.087-.72-.26-.9-.173-.187-.46-.28-.86-.28-.72 0-1.12.313-1.2.94h-.83c.053-.56.27-.97.65-1.23.387-.267.86-.4 1.42-.4 1.273 0 1.91.623 1.91 1.87V284h-.83v-.66c-.4.5-.943.75-1.63.75zm.08-.66c.453 0 .823-.11 1.11-.33.293-.227.44-.537.44-.93v-.65h-.72c-1.213 0-1.82.343-1.82 1.03 0 .587.33.88.99.88zm6.35-2.12l-2.02 2.69h-.93l2.13-2.78-1.94-2.45h.89l1.87 2.46v-2.46h.81v2.46l1.87-2.46h.9l-1.94 2.45 2.13 2.78h-.94l-2.02-2.69V284h-.81v-2.69z" fill="#fff"/><path opacity=".6" d="M388.515 268.52c.468 0 .84-.162 1.116-.486.282-.324.423-.753.423-1.287v-.063c0-.546-.141-.981-.423-1.305-.276-.324-.648-.486-1.116-.486-.474 0-.849.162-1.125.486-.276.324-.414.756-.414 1.296v.072c0 .546.135.978.405 1.296.276.318.654.477 1.134.477zm-.009.621c-.666 0-1.218-.225-1.656-.675-.432-.456-.648-1.029-.648-1.719v-.072c0-.702.216-1.278.648-1.728.438-.45.993-.675 1.665-.675s1.224.225 1.656.675c.438.444.657 1.017.657 1.719v.072c0 .708-.219 1.287-.657 1.737-.438.444-.993.666-1.665.666zm4.262-2.484v2.403h-.747v-4.707h.747v2.196l1.953-2.196h.873l-2.016 2.214 2.187 2.493h-.909l-2.088-2.403zm7.286-1.674h-1.521v4.077h-.747v-4.077h-1.521v-.63h3.789v.63zm2.686-.036c-.672 0-1.008.285-1.008.855v.027c0 .27.078.474.234.612.156.138.414.207.774.207h.882v-1.701h-.882zm-1.242 4.113h-.855l1.431-1.971c-.726-.15-1.089-.57-1.089-1.26v-.027c0-.492.168-.855.504-1.089.336-.24.768-.36 1.296-.36h1.584v4.707h-.747v-1.845h-.81l-1.314 1.845zm6.502.081c-.708 0-1.269-.228-1.683-.684-.414-.456-.621-1.149-.621-2.079v-.288c0-.444.018-.837.054-1.179a5 5 0 01.225-1.044c.114-.354.264-.648.45-.882a2.16 2.16 0 01.756-.585 2.994 2.994 0 011.143-.27l.18-.009c.66-.036 1.107-.102 1.341-.198l.099.63c-.306.132-.783.213-1.431.243l-.135.009c-.726.036-1.245.273-1.557.711-.306.432-.486 1.104-.54 2.016h.036a1.85 1.85 0 01.72-.783 2.114 2.114 0 011.125-.297c.654 0 1.176.213 1.566.639.396.42.594.966.594 1.638v.036c0 .726-.219 1.305-.657 1.737-.432.426-.987.639-1.665.639zm-1.125-1.08c.276.306.654.459 1.134.459.48 0 .855-.15 1.125-.45.276-.306.414-.738.414-1.296v-.018c0-.522-.126-.933-.378-1.233-.246-.3-.606-.45-1.08-.45-.498 0-.894.156-1.188.468-.288.312-.432.738-.432 1.278v.018c0 .51.135.918.405 1.224zm4.755-3.708h.747v.792c.138-.24.354-.444.648-.612.294-.174.609-.261.945-.261.63 0 1.143.213 1.539.639.402.426.603 1.002.603 1.728v.072c0 .726-.198 1.314-.594 1.764-.39.444-.906.666-1.548.666-.72 0-1.251-.285-1.593-.855v2.412h-.747v-6.345zm2.268 4.167c.468 0 .825-.15 1.071-.45.246-.306.369-.747.369-1.323v-.072c0-.57-.138-1.008-.414-1.314a1.308 1.308 0 00-1.035-.468c-.456 0-.828.153-1.116.459-.282.3-.423.741-.423 1.323v.072c0 .582.138 1.023.414 1.323.282.3.66.45 1.134.45zm3.411-4.167h.747V266h.837c.528 0 .96.129 1.296.387.336.258.504.642.504 1.152v.027c0 .516-.168.894-.504 1.134-.33.24-.762.36-1.296.36h-1.584v-4.707zm1.629 4.122c.36 0 .618-.075.774-.225.156-.156.234-.384.234-.684v-.027c0-.324-.081-.561-.243-.711-.156-.156-.411-.234-.765-.234h-.882v1.881h.882z" fill="#fff"/><path d="M385.852 283.71l2.84-2.99c.687-.727 1.03-1.417 1.03-2.07 0-.4-.113-.713-.34-.94-.22-.227-.533-.34-.94-.34-.866 0-1.37.53-1.51 1.59h-.81c.054-.707.284-1.263.69-1.67.414-.413.957-.62 1.63-.62.66 0 1.184.183 1.57.55.394.36.59.847.59 1.46 0 .787-.48 1.653-1.44 2.6l-1.97 1.92h3.45v.71h-4.79v-.2zm8.966-.43c1.26 0 1.89-.923 1.89-2.77v-.4c0-.833-.17-1.497-.51-1.99-.34-.5-.807-.75-1.4-.75-.607 0-1.08.24-1.42.72-.34.48-.51 1.16-.51 2.04v.4c0 .887.173 1.567.52 2.04.346.473.823.71 1.43.71zm0 .72c-.854 0-1.54-.317-2.06-.95s-.78-1.47-.78-2.51v-.4c0-1.06.25-1.903.75-2.53.506-.627 1.196-.94 2.07-.94.866 0 1.546.317 2.04.95.5.633.75 1.467.75 2.5v.4c0 1.053-.247 1.897-.74 2.53-.487.633-1.164.95-2.03.95zm3.783-.29l2.84-2.99c.687-.727 1.03-1.417 1.03-2.07 0-.4-.113-.713-.34-.94-.22-.227-.533-.34-.94-.34-.866 0-1.37.53-1.51 1.59h-.81c.054-.707.284-1.263.69-1.67.414-.413.957-.62 1.63-.62.66 0 1.184.183 1.57.55.394.36.59.847.59 1.46 0 .787-.48 1.653-1.44 2.6l-1.97 1.92h3.45v.71h-4.79v-.2zm8.965-.43c1.26 0 1.89-.923 1.89-2.77v-.4c0-.833-.17-1.497-.51-1.99-.34-.5-.806-.75-1.4-.75-.606 0-1.08.24-1.42.72-.34.48-.51 1.16-.51 2.04v.4c0 .887.174 1.567.52 2.04.347.473.824.71 1.43.71zm0 .72c-.853 0-1.54-.317-2.06-.95s-.78-1.47-.78-2.51v-.4c0-1.06.25-1.903.75-2.53.507-.627 1.197-.94 2.07-.94.867 0 1.547.317 2.04.95.5.633.75 1.467.75 2.5v.4c0 1.053-.246 1.897-.74 2.53-.486.633-1.163.95-2.03.95z" fill="#fff"/><circle cx="186" cy="176" r="3" fill="#F1D5C0"/><circle cx="88" cy="218" r="3" fill="#F1D5C0"/><circle cx="280" cy="147" r="3" fill="#F1D5C0"/><circle cx="377" cy="35" r="3" fill="#F1D5C0"/><path opacity=".3" fill="#F1D5C0" d="M88 221h1v63h-1zm97-45h1v108h-1zm95-28h1v136h-1zm97-113h1v249h-1z"/><path d="M24 275l63.75-58.427 97.395-41.219 92.079-29.442L377.63 33.05 445 1" stroke="url(#paint0_radial)"/><defs><radialGradient id="paint0_radial" cx="0" cy="0" r="1" gradientUnits="userSpaceOnUse" gradientTransform="matrix(127.93138 113.07391 -199.52042 225.73662 210.023 117.024)"><stop stop-color="#F1D5C0"/><stop offset=".778" stop-color="#F1D5C0" stop-opacity="0"/></radialGradient></defs></svg>