<svg width="853" height="443" fill="none" xmlns="http://www.w3.org/2000/svg"><path d="M18.999 190.893H13.27v-.448l5.232-8.592h1.856v7.904h1.584v1.136h-1.584v2.4h-1.36v-2.4zm0-1.136v-6.848l-3.968 6.848h3.968zm6.802-6.528l-2.56 1.84v-1.296l2.656-1.92h1.296v11.44h-1.392v-10.064zm9.154 9.056c2.016 0 3.024-1.477 3.024-4.432v-.64c0-1.333-.272-2.395-.816-3.184-.544-.8-1.29-1.2-2.24-1.2-.97 0-1.728.384-2.272 1.152-.544.768-.816 1.856-.816 3.264v.64c0 1.419.277 2.507.832 3.264.555.757 1.317 1.136 2.288 1.136zm0 1.152c-1.365 0-2.464-.507-3.296-1.52-.832-1.013-1.248-2.352-1.248-4.016v-.64c0-1.696.4-3.045 1.2-4.048.81-1.003 1.915-1.504 3.312-1.504 1.387 0 2.475.507 3.264 1.52.8 1.013 1.2 2.347 1.2 4v.64c0 1.685-.395 3.035-1.184 4.048-.779 1.013-1.861 1.52-3.248 1.52z" fill="#fff"/><path opacity=".6" d="M5.412 205.277H3.384v5.436h-.996v-5.436H.36v-.84h5.052v.84zm6.893-.84h.996v6.276h-.996v-6.276zm-5.4 0h.996v2.196h1.116c.712 0 1.288.16 1.728.48.448.32.672.824.672 1.512v.036c0 .68-.224 1.192-.672 1.536-.448.344-1.024.516-1.728.516H6.905v-6.276zm2.172 5.484c.472 0 .812-.1 1.02-.3.216-.208.324-.528.324-.96v-.036c0-.4-.104-.7-.312-.9-.208-.208-.552-.312-1.032-.312H7.901v2.508h1.176zm9.038.9c-.896 0-1.632-.288-2.208-.864-.576-.584-.864-1.356-.864-2.316v-.096c0-.944.292-1.716.876-2.316.592-.6 1.316-.9 2.172-.9.72 0 1.332.18 1.836.54.504.352.8.904.888 1.656h-.984c-.144-.912-.724-1.368-1.74-1.368-.584 0-1.068.22-1.452.66-.376.432-.564 1.008-.564 1.728v.096c0 .752.184 1.332.552 1.74.376.408.876.612 1.5.612.472 0 .876-.132 1.212-.396.344-.272.54-.652.588-1.14h.924a2.49 2.49 0 01-.864 1.704c-.504.44-1.128.66-1.872.66zm7.656-6.384h.996v1.056c.184-.32.472-.592.864-.816a2.432 2.432 0 011.26-.348c.84 0 1.524.284 2.052.852.536.568.804 1.336.804 2.304v.096c0 .968-.264 1.752-.792 2.352-.52.592-1.208.888-2.064.888-.96 0-1.668-.38-2.124-1.14v3.216h-.996v-8.46zm3.024 5.556c.624 0 1.1-.2 1.428-.6.328-.408.492-.996.492-1.764v-.096c0-.76-.184-1.344-.552-1.752a1.743 1.743 0 00-1.38-.624c-.608 0-1.104.204-1.488.612-.376.4-.564.988-.564 1.764v.096c0 .776.184 1.364.552 1.764.376.4.88.6 1.512.6zm6.254.072l-2.46-5.628h1.068l1.92 4.5 1.74-4.5h1.02l-3.468 8.46h-1.008l1.188-2.832zm7.348.756c-.944 0-1.692-.304-2.244-.912-.552-.608-.828-1.532-.828-2.772v-.384c0-.592.024-1.116.072-1.572.048-.464.148-.928.3-1.392.152-.472.352-.864.6-1.176.248-.312.584-.572 1.008-.78.432-.208.94-.328 1.524-.36l.24-.012c.88-.048 1.476-.136 1.788-.264l.132.84c-.408.176-1.044.284-1.908.324l-.18.012c-.968.048-1.66.364-2.076.948-.408.576-.648 1.472-.72 2.688h.048c.216-.44.536-.788.96-1.044.432-.264.932-.396 1.5-.396.872 0 1.568.284 2.088.852.528.56.792 1.288.792 2.184v.048c0 .968-.292 1.74-.876 2.316-.576.568-1.316.852-2.22.852zm-1.5-1.44c.368.408.872.612 1.512.612s1.14-.2 1.5-.6c.368-.408.552-.984.552-1.728v-.024c0-.696-.168-1.244-.504-1.644-.328-.4-.808-.6-1.44-.6-.664 0-1.192.208-1.584.624-.384.416-.576.984-.576 1.704v.024c0 .68.18 1.224.54 1.632z" fill="#fff"/><path d="M21.688 129.932H15.96v-.448l5.232-8.592h1.856v7.904h1.584v1.136h-1.584v2.4h-1.36v-2.4zm0-1.136v-6.848l-3.968 6.848h3.968zm8.367 3.68c-1.184 0-2.09-.288-2.72-.864-.63-.587-.992-1.376-1.088-2.368h1.328c.128.693.368 1.221.72 1.584.352.352.933.528 1.744.528.778 0 1.392-.245 1.84-.736.448-.491.672-1.168.672-2.032 0-.811-.219-1.456-.656-1.936-.427-.491-1.008-.736-1.744-.736-.64 0-1.168.091-1.584.272-.416.181-.79.459-1.12.832h-.512v-6.128h6.432v1.2h-5.28v3.488c.565-.523 1.344-.784 2.336-.784 1.045 0 1.898.347 2.56 1.04.661.683.992 1.6.992 2.752 0 1.184-.374 2.128-1.12 2.832-.747.704-1.68 1.056-2.8 1.056zm10.668-1.152c2.016 0 3.024-1.477 3.024-4.432v-.64c0-1.333-.272-2.395-.816-3.184-.544-.8-1.29-1.2-2.24-1.2-.97 0-1.728.384-2.272 1.152-.544.768-.816 1.856-.816 3.264v.64c0 1.419.277 2.507.832 3.264.554.757 1.317 1.136 2.288 1.136zm0 1.152c-1.366 0-2.464-.507-3.296-1.52-.832-1.013-1.248-2.352-1.248-4.016v-.64c0-1.696.4-3.045 1.2-4.048.81-1.003 1.914-1.504 3.312-1.504 1.386 0 2.474.507 3.264 1.52.8 1.013 1.2 2.347 1.2 4v.64c0 1.685-.395 3.035-1.184 4.048-.779 1.013-1.862 1.52-3.248 1.52z" fill="#fff"/><path opacity=".6" d="M5.412 144.314H3.384v5.436h-.996v-5.436H.36v-.84h5.052v.84zm6.893-.84h.996v6.276h-.996v-6.276zm-5.4 0h.996v2.196h1.116c.712 0 1.288.16 1.728.48.448.32.672.824.672 1.512v.036c0 .68-.224 1.192-.672 1.536-.448.344-1.024.516-1.728.516H6.905v-6.276zm2.172 5.484c.472 0 .812-.1 1.02-.3.216-.208.324-.528.324-.96v-.036c0-.4-.104-.7-.312-.9-.208-.208-.552-.312-1.032-.312H7.901v2.508h1.176zm9.038.9c-.896 0-1.632-.288-2.208-.864-.576-.584-.864-1.356-.864-2.316v-.096c0-.944.292-1.716.876-2.316.592-.6 1.316-.9 2.172-.9.72 0 1.332.18 1.836.54.504.352.8.904.888 1.656h-.984c-.144-.912-.724-1.368-1.74-1.368-.584 0-1.068.22-1.452.66-.376.432-.564 1.008-.564 1.728v.096c0 .752.184 1.332.552 1.74.376.408.876.612 1.5.612.472 0 .876-.132 1.212-.396.344-.272.54-.652.588-1.14h.924a2.49 2.49 0 01-.864 1.704c-.504.44-1.128.66-1.872.66zm7.656-6.384h.996v1.056c.184-.32.472-.592.864-.816a2.432 2.432 0 011.26-.348c.84 0 1.524.284 2.052.852.536.568.804 1.336.804 2.304v.096c0 .968-.264 1.752-.792 2.352-.52.592-1.208.888-2.064.888-.96 0-1.668-.38-2.124-1.14v3.216h-.996v-8.46zm3.024 5.556c.624 0 1.1-.2 1.428-.6.328-.408.492-.996.492-1.764v-.096c0-.76-.184-1.344-.552-1.752a1.743 1.743 0 00-1.38-.624c-.608 0-1.104.204-1.488.612-.376.4-.564.988-.564 1.764v.096c0 .776.184 1.364.552 1.764.376.4.88.6 1.512.6zm6.254.072l-2.46-5.628h1.068l1.92 4.5 1.74-4.5h1.02l-3.468 8.46h-1.008l1.188-2.832zm7.348.756c-.944 0-1.692-.304-2.244-.912-.552-.608-.828-1.532-.828-2.772v-.384c0-.592.024-1.116.072-1.572.048-.464.148-.928.3-1.392.152-.472.352-.864.6-1.176.248-.312.584-.572 1.008-.78.432-.208.94-.328 1.524-.36l.24-.012c.88-.048 1.476-.136 1.788-.264l.132.84c-.408.176-1.044.284-1.908.324l-.18.012c-.968.048-1.66.364-2.076.948-.408.576-.648 1.472-.72 2.688h.048c.216-.44.536-.788.96-1.044.432-.264.932-.396 1.5-.396.872 0 1.568.284 2.088.852.528.56.792 1.288.792 2.184v.048c0 .968-.292 1.74-.876 2.316-.576.568-1.316.852-2.22.852zm-1.5-1.44c.368.408.872.612 1.512.612s1.14-.2 1.5-.6c.368-.408.552-.984.552-1.728v-.024c0-.696-.168-1.244-.504-1.644-.328-.4-.808-.6-1.44-.6-.664 0-1.192.208-1.584.624-.384.416-.576.984-.576 1.704v.024c0 .68.18 1.224.54 1.632z" fill="#fff"/><path d="M20.872 376.318c-1.184 0-2.138-.331-2.864-.992-.714-.662-1.093-1.504-1.136-2.528h1.28c.064.725.326 1.306.784 1.744.459.437 1.115.656 1.968.656.875 0 1.526-.192 1.952-.576.438-.395.656-.939.656-1.632 0-1.483-.805-2.224-2.416-2.224h-.864v-1.168h.8c1.43 0 2.144-.651 2.144-1.952 0-.566-.176-1.024-.528-1.376-.352-.363-.87-.544-1.552-.544-.704 0-1.285.197-1.744.592-.448.394-.71.917-.784 1.568h-1.216c.043-.918.41-1.696 1.104-2.336.694-.64 1.574-.96 2.64-.96 1.046 0 1.878.298 2.496.896.63.586.944 1.296.944 2.128 0 1.162-.602 1.994-1.808 2.496 1.472.405 2.208 1.365 2.208 2.88 0 1.034-.378 1.85-1.136 2.448-.746.586-1.722.88-2.928.88zm9.876 0c-1.184 0-2.091-.288-2.72-.864-.63-.587-.992-1.376-1.088-2.368h1.328c.128.693.368 1.221.72 1.584.352.352.933.528 1.744.528.778 0 1.392-.246 1.84-.736.448-.491.672-1.168.672-2.032 0-.811-.22-1.456-.656-1.936-.427-.491-1.008-.736-1.744-.736-.64 0-1.168.09-1.584.272a3.19 3.19 0 00-1.12.832h-.512v-6.128h6.432v1.2h-5.28v3.488c.565-.523 1.344-.784 2.336-.784 1.045 0 1.898.346 2.56 1.04.66.682.992 1.6.992 2.752 0 1.184-.374 2.128-1.12 2.832-.747.704-1.68 1.056-2.8 1.056zm10.668-1.152c2.016 0 3.024-1.478 3.024-4.432v-.64c0-1.334-.272-2.395-.816-3.184-.544-.8-1.291-1.2-2.24-1.2-.971 0-1.728.384-2.272 1.152-.544.768-.816 1.856-.816 3.264v.64c0 1.418.277 2.506.832 3.264.554.757 1.317 1.136 2.288 1.136zm0 1.152c-1.366 0-2.464-.507-3.296-1.52-.832-1.014-1.248-2.352-1.248-4.016v-.64c0-1.696.4-3.046 1.2-4.048.81-1.003 1.914-1.504 3.312-1.504 1.386 0 2.474.506 3.264 1.52.8 1.013 1.2 2.346 1.2 4v.64c0 1.685-.395 3.034-1.184 4.048-.78 1.013-1.862 1.52-3.248 1.52z" fill="#fff"/><path opacity=".6" d="M5.412 388.158H3.384v5.436h-.996v-5.436H.36v-.84h5.052v.84zm6.893-.84h.996v6.276h-.996v-6.276zm-5.4 0h.996v2.196h1.116c.712 0 1.288.16 1.728.48.448.32.672.824.672 1.512v.036c0 .68-.224 1.192-.672 1.536-.448.344-1.024.516-1.728.516H6.905v-6.276zm2.172 5.484c.472 0 .812-.1 1.02-.3.216-.208.324-.528.324-.96v-.036c0-.4-.104-.7-.312-.9-.208-.208-.552-.312-1.032-.312H7.901v2.508h1.176zm9.038.9c-.896 0-1.632-.288-2.208-.864-.576-.584-.864-1.356-.864-2.316v-.096c0-.944.292-1.716.876-2.316.592-.6 1.316-.9 2.172-.9.72 0 1.332.18 1.836.54.504.352.8.904.888 1.656h-.984c-.144-.912-.724-1.368-1.74-1.368-.584 0-1.068.22-1.452.66-.376.432-.564 1.008-.564 1.728v.096c0 .752.184 1.332.552 1.74.376.408.876.612 1.5.612.472 0 .876-.132 1.212-.396.344-.272.54-.652.588-1.14h.924a2.49 2.49 0 01-.864 1.704c-.504.44-1.128.66-1.872.66zm7.656-6.384h.996v1.056c.184-.32.472-.592.864-.816a2.432 2.432 0 011.26-.348c.84 0 1.524.284 2.052.852.536.568.804 1.336.804 2.304v.096c0 .968-.264 1.752-.792 2.352-.52.592-1.208.888-2.064.888-.96 0-1.668-.38-2.124-1.14v3.216h-.996v-8.46zm3.024 5.556c.624 0 1.1-.2 1.428-.6.328-.408.492-.996.492-1.764v-.096c0-.76-.184-1.344-.552-1.752a1.743 1.743 0 00-1.38-.624c-.608 0-1.104.204-1.488.612-.376.4-.564.988-.564 1.764v.096c0 .776.184 1.364.552 1.764.376.4.88.6 1.512.6zm6.254.072l-2.46-5.628h1.068l1.92 4.5 1.74-4.5h1.02l-3.468 8.46h-1.008l1.188-2.832zm7.348.756c-.944 0-1.692-.304-2.244-.912-.552-.608-.828-1.532-.828-2.772v-.384c0-.592.024-1.116.072-1.572.048-.464.148-.928.3-1.392.152-.472.352-.864.6-1.176.248-.312.584-.572 1.008-.78.432-.208.94-.328 1.524-.36l.24-.012c.88-.048 1.476-.136 1.788-.264l.132.84c-.408.176-1.044.284-1.908.324l-.18.012c-.968.048-1.66.364-2.076.948-.408.576-.648 1.472-.72 2.688h.048c.216-.44.536-.788.96-1.044.432-.264.932-.396 1.5-.396.872 0 1.568.284 2.088.852.528.56.792 1.288.792 2.184v.048c0 .968-.292 1.74-.876 2.316-.576.568-1.316.852-2.22.852zm-1.5-1.44c.368.408.872.612 1.512.612s1.14-.2 1.5-.6c.368-.408.552-.984.552-1.728v-.024c0-.696-.168-1.244-.504-1.644-.328-.4-.808-.6-1.44-.6-.664 0-1.192.208-1.584.624-.384.416-.576.984-.576 1.704v.024c0 .68.18 1.224.54 1.632zm572.787 26.393c-.896 0-1.632-.288-2.208-.864-.576-.584-.864-1.356-.864-2.316v-.096c0-.944.292-1.716.876-2.316.592-.6 1.316-.9 2.172-.9.72 0 1.332.18 1.836.54.504.352.8.904.888 1.656h-.984c-.144-.912-.724-1.368-1.74-1.368-.584 0-1.068.22-1.452.66-.376.432-.564 1.008-.564 1.728v.096c0 .752.184 1.332.552 1.74.376.408.876.612 1.5.612.472 0 .876-.132 1.212-.396.344-.272.54-.652.588-1.14h.924a2.49 2.49 0 01-.864 1.704c-.504.44-1.128.66-1.872.66zm6.928 0c-.896 0-1.628-.292-2.196-.876-.56-.584-.84-1.352-.84-2.304v-.096c0-.944.272-1.716.816-2.316.552-.6 1.26-.9 2.124-.9.8 0 1.468.26 2.004.78.544.512.816 1.292.816 2.34v.324h-4.728c.048 1.48.72 2.22 2.016 2.22.984 0 1.54-.364 1.668-1.092h.996c-.112.624-.404 1.1-.876 1.428-.472.328-1.072.492-1.8.492zm1.704-3.852c-.088-1.208-.688-1.812-1.8-1.812-.504 0-.92.16-1.248.48-.328.32-.536.764-.624 1.332h3.672zm6.676.948h-3.084v2.796h-.996v-6.276h.996v2.64h3.084v-2.64h.996v6.276h-.996v-2.796zm7.534-2.64h-2.028v5.436h-.996v-5.436h-2.028v-.84h5.052v.84zm3.581-.048c-.896 0-1.344.38-1.344 1.14v.036c0 .36.104.632.312.816.208.184.552.276 1.032.276h1.176v-2.268h-1.176zm-1.656 5.484h-1.14l1.908-2.628c-.968-.2-1.452-.76-1.452-1.68v-.036c0-.656.224-1.14.672-1.452.448-.32 1.024-.48 1.728-.48h2.112v6.276h-.996v-2.46h-1.08l-1.752 2.46zm8.669.108c-.944 0-1.692-.304-2.244-.912-.552-.608-.828-1.532-.828-2.772v-.384c0-.592.024-1.116.072-1.572.048-.464.148-.928.3-1.392.152-.472.352-.864.6-1.176.248-.312.584-.572 1.008-.78.432-.208.94-.328 1.524-.36l.24-.012c.88-.048 1.476-.136 1.788-.264l.132.84c-.408.176-1.044.284-1.908.324l-.18.012c-.968.048-1.66.364-2.076.948-.408.576-.648 1.472-.72 2.688h.048c.216-.44.536-.788.96-1.044.432-.264.932-.396 1.5-.396.872 0 1.568.284 2.088.852.528.56.792 1.288.792 2.184v.048c0 .968-.292 1.74-.876 2.316-.576.568-1.316.852-2.22.852zm-1.5-1.44c.368.408.872.612 1.512.612s1.14-.2 1.5-.6c.368-.408.552-.984.552-1.728v-.024c0-.696-.168-1.244-.504-1.644-.328-.4-.808-.6-1.44-.6-.664 0-1.192.208-1.584.624-.384.416-.576.984-.576 1.704v.024c0 .68.18 1.224.54 1.632zm6.34-4.944h.996v1.056c.184-.32.472-.592.864-.816a2.432 2.432 0 011.26-.348c.84 0 1.524.284 2.052.852.536.568.804 1.336.804 2.304v.096c0 .968-.264 1.752-.792 2.352-.52.592-1.208.888-2.064.888-.96 0-1.668-.38-2.124-1.14v3.216h-.996v-8.46zm3.024 5.556c.624 0 1.1-.2 1.428-.6.328-.408.492-.996.492-1.764v-.096c0-.76-.184-1.344-.552-1.752a1.743 1.743 0 00-1.38-.624c-.608 0-1.104.204-1.488.612-.376.4-.564.988-.564 1.764v.096c0 .776.184 1.364.552 1.764.376.4.88.6 1.512.6zm4.548-5.556h.996v2.196h1.116c.704 0 1.28.172 1.728.516.448.344.672.856.672 1.536v.036c0 .688-.224 1.192-.672 1.512-.44.32-1.016.48-1.728.48h-2.112v-6.276zm2.172 5.496c.48 0 .824-.1 1.032-.3.208-.208.312-.512.312-.912v-.036c0-.432-.108-.748-.324-.948-.208-.208-.548-.312-1.02-.312h-1.176v2.508h1.176z" fill="#fff"/><path d="M610.35 436.363l3.976-4.186c.961-1.018 1.442-1.984 1.442-2.898 0-.56-.159-.999-.476-1.316-.308-.318-.747-.476-1.316-.476-1.213 0-1.918.742-2.114 2.226h-1.134c.075-.99.397-1.769.966-2.338.579-.579 1.339-.868 2.282-.868.924 0 1.657.256 2.198.77.551.504.826 1.185.826 2.044 0 1.101-.672 2.314-2.016 3.64l-2.758 2.688h4.83v.994h-6.706v-.28zm12.551-.602c1.764 0 2.646-1.293 2.646-3.878v-.56c0-1.167-.238-2.096-.714-2.786-.476-.7-1.129-1.05-1.96-1.05-.849 0-1.512.336-1.988 1.008-.476.672-.714 1.624-.714 2.856v.56c0 1.241.243 2.193.728 2.856.486.662 1.153.994 2.002.994zm0 1.008c-1.194 0-2.156-.444-2.884-1.33-.728-.887-1.092-2.058-1.092-3.514v-.56c0-1.484.35-2.665 1.05-3.542.71-.878 1.676-1.316 2.898-1.316 1.214 0 2.166.443 2.856 1.33.7.886 1.05 2.053 1.05 3.5v.56c0 1.474-.345 2.655-1.036 3.542-.681.886-1.628 1.33-2.842 1.33zm5.297-.406l3.976-4.186c.962-1.018 1.442-1.984 1.442-2.898 0-.56-.158-.999-.476-1.316-.308-.318-.746-.476-1.316-.476-1.213 0-1.918.742-2.114 2.226h-1.134c.075-.99.397-1.769.966-2.338.579-.579 1.34-.868 2.282-.868.924 0 1.657.256 2.198.77.551.504.826 1.185.826 2.044 0 1.101-.672 2.314-2.016 3.64l-2.758 2.688h4.83v.994h-6.706v-.28zm12.552-.602c1.764 0 2.646-1.293 2.646-3.878v-.56c0-1.167-.238-2.096-.714-2.786-.476-.7-1.13-1.05-1.96-1.05-.85 0-1.512.336-1.988 1.008-.476.672-.714 1.624-.714 2.856v.56c0 1.241.242 2.193.728 2.856.485.662 1.152.994 2.002.994zm0 1.008c-1.195 0-2.156-.444-2.884-1.33-.728-.887-1.092-2.058-1.092-3.514v-.56c0-1.484.35-2.665 1.05-3.542.709-.878 1.675-1.316 2.898-1.316 1.213 0 2.165.443 2.856 1.33.7.886 1.05 2.053 1.05 3.5v.56c0 1.474-.346 2.655-1.036 3.542-.682.886-1.629 1.33-2.842 1.33z" fill="#fff"/><path opacity=".6" d="M460.652 418.655c-.616 0-1.12-.152-1.512-.456-.384-.312-.576-.776-.576-1.392 0-.344.084-.644.252-.9a1.74 1.74 0 01.72-.612c.304-.152.636-.26.996-.324.36-.072.752-.108 1.176-.108h.9v-.456c0-.504-.104-.864-.312-1.08-.208-.224-.552-.336-1.032-.336-.864 0-1.344.376-1.44 1.128h-.996c.064-.672.324-1.164.78-1.476.464-.32 1.032-.48 1.704-.48 1.528 0 2.292.748 2.292 2.244v4.14h-.996v-.792c-.48.6-1.132.9-1.956.9zm.096-.792c.544 0 .988-.132 1.332-.396.352-.272.528-.644.528-1.116v-.78h-.864c-1.456 0-2.184.412-2.184 1.236 0 .704.396 1.056 1.188 1.056zm4.86-5.592h2.196c1.472 0 2.208.532 2.208 1.596v.036a1.5 1.5 0 01-.252.84c-.168.248-.42.416-.756.504.872.192 1.308.664 1.308 1.416v.036c0 .608-.2 1.068-.6 1.38-.392.312-.94.468-1.644.468h-2.46v-6.276zm.996.792v1.86h1.2c.416 0 .712-.076.888-.228.184-.152.276-.4.276-.744v-.036c0-.32-.096-.54-.288-.66-.184-.128-.48-.192-.888-.192h-1.188zm0 2.652v2.04h1.368c.44 0 .764-.076.972-.228.216-.16.324-.416.324-.768v-.036c0-.352-.108-.608-.324-.768-.208-.16-.532-.24-.972-.24h-1.368zm6.413-2.604v5.436h-.996v-6.276h3.984v.84h-2.988zm6.48 4.788l-2.46-5.628h1.068l1.92 4.5 1.74-4.5h1.02l-3.468 8.46h-1.008l1.188-2.832zm7.147.756c-.896 0-1.632-.288-2.208-.864-.576-.584-.864-1.356-.864-2.316v-.096c0-.944.292-1.716.876-2.316.592-.6 1.316-.9 2.172-.9.72 0 1.332.18 1.836.54.504.352.8.904.888 1.656h-.984c-.144-.912-.724-1.368-1.74-1.368-.584 0-1.068.22-1.452.66-.376.432-.564 1.008-.564 1.728v.096c0 .752.184 1.332.552 1.74.376.408.876.612 1.5.612.472 0 .876-.132 1.212-.396.344-.272.54-.652.588-1.14h.924a2.49 2.49 0 01-.864 1.704c-.504.44-1.128.66-1.872.66zm8.692-5.544h-2.028v5.436h-.996v-5.436h-2.028v-.84h5.052v.84z" fill="#fff"/><path d="M458.35 436.363l3.976-4.186c.961-1.018 1.442-1.984 1.442-2.898 0-.56-.159-.999-.476-1.316-.308-.318-.747-.476-1.316-.476-1.213 0-1.918.742-2.114 2.226h-1.134c.075-.99.397-1.769.966-2.338.579-.579 1.339-.868 2.282-.868.924 0 1.657.256 2.198.77.551.504.826 1.185.826 2.044 0 1.101-.672 2.314-2.016 3.64l-2.758 2.688h4.83v.994h-6.706v-.28zm12.551-.602c1.764 0 2.646-1.293 2.646-3.878v-.56c0-1.167-.238-2.096-.714-2.786-.476-.7-1.129-1.05-1.96-1.05-.849 0-1.512.336-1.988 1.008-.476.672-.714 1.624-.714 2.856v.56c0 1.241.243 2.193.728 2.856.486.662 1.153.994 2.002.994zm0 1.008c-1.194 0-2.156-.444-2.884-1.33-.728-.887-1.092-2.058-1.092-3.514v-.56c0-1.484.35-2.665 1.05-3.542.71-.878 1.676-1.316 2.898-1.316 1.214 0 2.166.443 2.856 1.33.7.886 1.05 2.053 1.05 3.5v.56c0 1.474-.345 2.655-1.036 3.542-.681.886-1.628 1.33-2.842 1.33zm5.297-.406l3.976-4.186c.962-1.018 1.442-1.984 1.442-2.898 0-.56-.158-.999-.476-1.316-.308-.318-.746-.476-1.316-.476-1.213 0-1.918.742-2.114 2.226h-1.134c.075-.99.397-1.769.966-2.338.579-.579 1.34-.868 2.282-.868.924 0 1.657.256 2.198.77.551.504.826 1.185.826 2.044 0 1.101-.672 2.314-2.016 3.64l-2.758 2.688h4.83v.994h-6.706v-.28zm12.552-.602c1.764 0 2.646-1.293 2.646-3.878v-.56c0-1.167-.238-2.096-.714-2.786-.476-.7-1.13-1.05-1.96-1.05-.85 0-1.512.336-1.988 1.008-.476.672-.714 1.624-.714 2.856v.56c0 1.241.242 2.193.728 2.856.485.662 1.152.994 2.002.994zm0 1.008c-1.195 0-2.156-.444-2.884-1.33-.728-.887-1.092-2.058-1.092-3.514v-.56c0-1.484.35-2.665 1.05-3.542.709-.878 1.675-1.316 2.898-1.316 1.213 0 2.165.443 2.856 1.33.7.886 1.05 2.053 1.05 3.5v.56c0 1.474-.346 2.655-1.036 3.542-.682.886-1.629 1.33-2.842 1.33z" fill="#fff"/><path opacity=".6" d="M322.684 418.655c-.896 0-1.632-.288-2.208-.864-.576-.584-.864-1.356-.864-2.316v-.096c0-.944.292-1.716.876-2.316.592-.6 1.316-.9 2.172-.9.72 0 1.332.18 1.836.54.504.352.8.904.888 1.656h-.984c-.144-.912-.724-1.368-1.74-1.368-.584 0-1.068.22-1.452.66-.376.432-.564 1.008-.564 1.728v.096c0 .752.184 1.332.552 1.74.376.408.876.612 1.5.612.472 0 .876-.132 1.212-.396.344-.272.54-.652.588-1.14h.924a2.49 2.49 0 01-.864 1.704c-.504.44-1.128.66-1.872.66zm8.692-5.544h-2.028v5.436h-.996v-5.436h-2.028v-.84h5.052v.84zm3.078 5.544c-.616 0-1.12-.152-1.512-.456-.384-.312-.576-.776-.576-1.392 0-.344.084-.644.252-.9a1.74 1.74 0 01.72-.612c.304-.152.636-.26.996-.324.36-.072.752-.108 1.176-.108h.9v-.456c0-.504-.104-.864-.312-1.08-.208-.224-.552-.336-1.032-.336-.864 0-1.344.376-1.44 1.128h-.996c.064-.672.324-1.164.78-1.476.464-.32 1.032-.48 1.705-.48 1.527 0 2.291.748 2.291 2.244v4.14h-.996v-.792c-.48.6-1.132.9-1.956.9zm.096-.792c.545 0 .988-.132 1.332-.396.352-.272.528-.644.528-1.116v-.78h-.864c-1.456 0-2.184.412-2.184 1.236 0 .704.396 1.056 1.188 1.056zm4.933-5.592h.996v1.056c.184-.32.472-.592.864-.816a2.432 2.432 0 011.26-.348c.84 0 1.524.284 2.052.852.536.568.804 1.336.804 2.304v.096c0 .968-.264 1.752-.792 2.352-.52.592-1.208.888-2.064.888-.96 0-1.668-.38-2.124-1.14v3.216h-.996v-8.46zm3.024 5.556c.624 0 1.1-.2 1.428-.6.328-.408.492-.996.492-1.764v-.096c0-.76-.184-1.344-.552-1.752a1.743 1.743 0 00-1.38-.624c-.608 0-1.104.204-1.488.612-.376.4-.564.988-.564 1.764v.096c0 .776.184 1.364.552 1.764.376.4.88.6 1.512.6zm8.834-4.716h-2.028v5.436h-.996v-5.436h-2.028v-.84h5.052v.84z" fill="#fff"/><path d="M324.796 430.301h-3.458v6.342h-1.162v-7.322h5.782v7.322h-1.162v-6.342zm3.739-.98h1.162v1.232c.214-.374.55-.691 1.008-.952a2.833 2.833 0 011.47-.406c.98 0 1.778.331 2.394.994.625.662.938 1.558.938 2.688v.112c0 1.129-.308 2.044-.924 2.744-.607.69-1.41 1.036-2.408 1.036-1.12 0-1.946-.444-2.478-1.33v3.752h-1.162v-9.87zm3.528 6.482c.728 0 1.283-.234 1.666-.7.382-.476.574-1.162.574-2.058v-.112c0-.887-.215-1.568-.644-2.044-.42-.486-.957-.728-1.61-.728-.71 0-1.288.238-1.736.714-.439.466-.658 1.152-.658 2.058v.112c0 .905.214 1.591.644 2.058.438.466 1.026.7 1.764.7zm8.441 0c.728 0 1.307-.252 1.736-.756.439-.504.658-1.172.658-2.002v-.098c0-.85-.219-1.526-.658-2.03-.429-.504-1.008-.756-1.736-.756-.737 0-1.321.252-1.75.756-.429.504-.644 1.176-.644 2.016v.112c0 .849.21 1.521.63 2.016.429.494 1.017.742 1.764.742zm-.014.966c-1.036 0-1.895-.35-2.576-1.05-.672-.71-1.008-1.601-1.008-2.674v-.112c0-1.092.336-1.988 1.008-2.688.681-.7 1.545-1.05 2.59-1.05s1.904.35 2.576 1.05c.681.69 1.022 1.582 1.022 2.674v.112c0 1.101-.341 2.002-1.022 2.702-.681.69-1.545 1.036-2.59 1.036zm6.69-2.954c-.102.858-.261 1.474-.476 1.848h3.43v-5.39h-2.688a53.64 53.64 0 01-.266 3.542zm-1.456 4.606h-.938v-2.758h.518c.262-.066.444-.252.546-.56.103-.318.192-.77.266-1.358.084-.756.164-1.708.238-2.856.038-.514.066-1.036.084-1.568h4.83v6.342h1.12v2.758h-.938l-.084-1.778h-5.558l-.084 1.778zm10.18-1.652c-.719 0-1.307-.178-1.764-.532-.448-.364-.672-.906-.672-1.624 0-.402.098-.752.294-1.05.205-.308.485-.546.84-.714a4.203 4.203 0 011.162-.378c.42-.084.877-.126 1.372-.126h1.05v-.532c0-.588-.121-1.008-.364-1.26-.243-.262-.644-.392-1.204-.392-1.008 0-1.568.438-1.68 1.316h-1.162c.075-.784.378-1.358.91-1.722.541-.374 1.204-.56 1.988-.56 1.783 0 2.674.872 2.674 2.618v4.83h-1.162v-.924c-.56.7-1.321 1.05-2.282 1.05zm.112-.924c.635 0 1.153-.154 1.554-.462.411-.318.616-.752.616-1.302v-.91h-1.008c-1.699 0-2.548.48-2.548 1.442 0 .821.462 1.232 1.386 1.232zm8.891-2.968l-2.828 3.766h-1.302l2.982-3.892-2.716-3.43h1.246l2.618 3.444v-3.444h1.134v3.444l2.618-3.444h1.26l-2.716 3.43 2.982 3.892h-1.316l-2.828-3.766v3.766h-1.134v-3.766z" fill="#fff"/><path opacity=".6" d="M766.696 417.827c.624 0 1.12-.216 1.488-.648.376-.432.564-1.004.564-1.716v-.084c0-.728-.188-1.308-.564-1.74-.368-.432-.864-.648-1.488-.648-.632 0-1.132.216-1.5.648-.368.432-.552 1.008-.552 1.728v.096c0 .728.18 1.304.54 1.728.368.424.872.636 1.512.636zm-.012.828c-.888 0-1.624-.3-2.208-.9-.576-.608-.864-1.372-.864-2.292v-.096c0-.936.288-1.704.864-2.304.584-.6 1.324-.9 2.22-.9.896 0 1.632.3 2.208.9.584.592.876 1.356.876 2.292v.096c0 .944-.292 1.716-.876 2.316-.584.592-1.324.888-2.22.888zm5.682-3.312v3.204h-.996v-6.276h.996v2.928l2.604-2.928h1.164l-2.688 2.952 2.916 3.324h-1.212l-2.784-3.204zm9.716-2.232h-2.028v5.436h-.996v-5.436h-2.028v-.84h5.052v.84zm3.581-.048c-.896 0-1.344.38-1.344 1.14v.036c0 .36.104.632.312.816.208.184.552.276 1.032.276h1.176v-2.268h-1.176zm-1.656 5.484h-1.14l1.908-2.628c-.968-.2-1.452-.76-1.452-1.68v-.036c0-.656.224-1.14.672-1.452.448-.32 1.024-.48 1.728-.48h2.112v6.276h-.996v-2.46h-1.08l-1.752 2.46zm8.669.108c-.944 0-1.692-.304-2.244-.912-.552-.608-.828-1.532-.828-2.772v-.384c0-.592.024-1.116.072-1.572.048-.464.148-.928.3-1.392.152-.472.352-.864.6-1.176.248-.312.584-.572 1.008-.78.432-.208.94-.328 1.524-.36l.24-.012c.88-.048 1.476-.136 1.788-.264l.132.84c-.408.176-1.044.284-1.908.324l-.18.012c-.968.048-1.66.364-2.076.948-.408.576-.648 1.472-.72 2.688h.048c.216-.44.536-.788.96-1.044.432-.264.932-.396 1.5-.396.872 0 1.568.284 2.088.852.528.56.792 1.288.792 2.184v.048c0 .968-.292 1.74-.876 2.316-.576.568-1.316.852-2.22.852zm-1.5-1.44c.368.408.872.612 1.512.612s1.14-.2 1.5-.6c.368-.408.552-.984.552-1.728v-.024c0-.696-.168-1.244-.504-1.644-.328-.4-.808-.6-1.44-.6-.664 0-1.192.208-1.584.624-.384.416-.576.984-.576 1.704v.024c0 .68.18 1.224.54 1.632zm6.34-4.944h.996v1.056c.184-.32.472-.592.864-.816a2.432 2.432 0 011.26-.348c.84 0 1.524.284 2.052.852.536.568.804 1.336.804 2.304v.096c0 .968-.264 1.752-.792 2.352-.52.592-1.208.888-2.064.888-.96 0-1.668-.38-2.124-1.14v3.216h-.996v-8.46zm3.024 5.556c.624 0 1.1-.2 1.428-.6.328-.408.492-.996.492-1.764v-.096c0-.76-.184-1.344-.552-1.752a1.743 1.743 0 00-1.38-.624c-.608 0-1.104.204-1.488.612-.376.4-.564.988-.564 1.764v.096c0 .776.184 1.364.552 1.764.376.4.88.6 1.512.6zm4.547-5.556h.996v2.196h1.116c.704 0 1.28.172 1.728.516.448.344.672.856.672 1.536v.036c0 .688-.224 1.192-.672 1.512-.44.32-1.016.48-1.728.48h-2.112v-6.276zm2.172 5.496c.48 0 .824-.1 1.032-.3.208-.208.312-.512.312-.912v-.036c0-.432-.108-.748-.324-.948-.208-.208-.548-.312-1.02-.312h-1.176v2.508h1.176z" fill="#fff"/><path d="M763.35 436.363l3.976-4.186c.961-1.018 1.442-1.984 1.442-2.898 0-.56-.159-.999-.476-1.316-.308-.318-.747-.476-1.316-.476-1.213 0-1.918.742-2.114 2.226h-1.134c.075-.99.397-1.769.966-2.338.579-.579 1.339-.868 2.282-.868.924 0 1.657.256 2.198.77.551.504.826 1.185.826 2.044 0 1.101-.672 2.314-2.016 3.64l-2.758 2.688h4.83v.994h-6.706v-.28zm12.551-.602c1.764 0 2.646-1.293 2.646-3.878v-.56c0-1.167-.238-2.096-.714-2.786-.476-.7-1.129-1.05-1.96-1.05-.849 0-1.512.336-1.988 1.008-.476.672-.714 1.624-.714 2.856v.56c0 1.241.243 2.193.728 2.856.486.662 1.153.994 2.002.994zm0 1.008c-1.194 0-2.156-.444-2.884-1.33-.728-.887-1.092-2.058-1.092-3.514v-.56c0-1.484.35-2.665 1.05-3.542.71-.878 1.676-1.316 2.898-1.316 1.214 0 2.166.443 2.856 1.33.7.886 1.05 2.053 1.05 3.5v.56c0 1.474-.345 2.655-1.036 3.542-.681.886-1.628 1.33-2.842 1.33zm5.297-.406l3.976-4.186c.962-1.018 1.442-1.984 1.442-2.898 0-.56-.158-.999-.476-1.316-.308-.318-.746-.476-1.316-.476-1.213 0-1.918.742-2.114 2.226h-1.134c.075-.99.397-1.769.966-2.338.579-.579 1.34-.868 2.282-.868.924 0 1.657.256 2.198.77.551.504.826 1.185.826 2.044 0 1.101-.672 2.314-2.016 3.64l-2.758 2.688h4.83v.994h-6.706v-.28zm12.552-.602c1.764 0 2.646-1.293 2.646-3.878v-.56c0-1.167-.238-2.096-.714-2.786-.476-.7-1.13-1.05-1.96-1.05-.85 0-1.512.336-1.988 1.008-.476.672-.714 1.624-.714 2.856v.56c0 1.241.242 2.193.728 2.856.485.662 1.152.994 2.002.994zm0 1.008c-1.195 0-2.156-.444-2.884-1.33-.728-.887-1.092-2.058-1.092-3.514v-.56c0-1.484.35-2.665 1.05-3.542.709-.878 1.675-1.316 2.898-1.316 1.213 0 2.165.443 2.856 1.33.7.886 1.05 2.053 1.05 3.5v.56c0 1.474-.346 2.655-1.036 3.542-.682.886-1.629 1.33-2.842 1.33z" fill="#fff"/><path opacity=".6" d="M5.412 327.197H3.384v5.436h-.996v-5.436H.36v-.84h5.052v.84zm6.893-.84h.996v6.276h-.996v-6.276zm-5.4 0h.996v2.196h1.116c.712 0 1.288.16 1.728.48.448.32.672.824.672 1.512v.036c0 .68-.224 1.192-.672 1.536-.448.344-1.024.516-1.728.516H6.905v-6.276zm2.172 5.484c.472 0 .812-.1 1.02-.3.216-.208.324-.528.324-.96v-.036c0-.4-.104-.7-.312-.9-.208-.208-.552-.312-1.032-.312H7.901v2.508h1.176zm9.038.9c-.896 0-1.632-.288-2.208-.864-.576-.584-.864-1.356-.864-2.316v-.096c0-.944.292-1.716.876-2.316.592-.6 1.316-.9 2.172-.9.72 0 1.332.18 1.836.54.504.352.8.904.888 1.656h-.984c-.144-.912-.724-1.368-1.74-1.368-.584 0-1.068.22-1.452.66-.376.432-.564 1.008-.564 1.728v.096c0 .752.184 1.332.552 1.74.376.408.876.612 1.5.612.472 0 .876-.132 1.212-.396.344-.272.54-.652.588-1.14h.924a2.49 2.49 0 01-.864 1.704c-.504.44-1.128.66-1.872.66zm7.656-6.384h.996v1.056c.184-.32.472-.592.864-.816a2.432 2.432 0 011.26-.348c.84 0 1.524.284 2.052.852.536.568.804 1.336.804 2.304v.096c0 .968-.264 1.752-.792 2.352-.52.592-1.208.888-2.064.888-.96 0-1.668-.38-2.124-1.14v3.216h-.996v-8.46zm3.024 5.556c.624 0 1.1-.2 1.428-.6.328-.408.492-.996.492-1.764v-.096c0-.76-.184-1.344-.552-1.752a1.743 1.743 0 00-1.38-.624c-.608 0-1.104.204-1.488.612-.376.4-.564.988-.564 1.764v.096c0 .776.184 1.364.552 1.764.376.4.88.6 1.512.6zm6.254.072l-2.46-5.628h1.068l1.92 4.5 1.74-4.5h1.02l-3.468 8.46h-1.008l1.188-2.832zm7.348.756c-.944 0-1.692-.304-2.244-.912-.552-.608-.828-1.532-.828-2.772v-.384c0-.592.024-1.116.072-1.572.048-.464.148-.928.3-1.392.152-.472.352-.864.6-1.176.248-.312.584-.572 1.008-.78.432-.208.94-.328 1.524-.36l.24-.012c.88-.048 1.476-.136 1.788-.264l.132.84c-.408.176-1.044.284-1.908.324l-.18.012c-.968.048-1.66.364-2.076.948-.408.576-.648 1.472-.72 2.688h.048c.216-.44.536-.788.96-1.044.432-.264.932-.396 1.5-.396.872 0 1.568.284 2.088.852.528.56.792 1.288.792 2.184v.048c0 .968-.292 1.74-.876 2.316-.576.568-1.316.852-2.22.852zm-1.5-1.44c.368.408.872.612 1.512.612s1.14-.2 1.5-.6c.368-.408.552-.984.552-1.728v-.024c0-.696-.168-1.244-.504-1.644-.328-.4-.808-.6-1.44-.6-.664 0-1.192.208-1.584.624-.384.416-.576.984-.576 1.704v.024c0 .68.18 1.224.54 1.632z" fill="#fff"/><path d="M18.184 315.357c-1.184 0-2.138-.331-2.864-.992-.714-.661-1.093-1.504-1.136-2.528h1.28c.064.725.326 1.307.784 1.744.459.437 1.115.656 1.968.656.875 0 1.526-.192 1.952-.576.438-.395.656-.939.656-1.632 0-1.483-.805-2.224-2.416-2.224h-.864v-1.168h.8c1.43 0 2.144-.651 2.144-1.952 0-.565-.176-1.024-.528-1.376-.352-.363-.87-.544-1.552-.544-.704 0-1.285.197-1.744.592-.448.395-.71.917-.784 1.568h-1.216c.043-.917.41-1.696 1.104-2.336.694-.64 1.574-.96 2.64-.96 1.046 0 1.878.299 2.496.896.63.587.944 1.296.944 2.128 0 1.163-.602 1.995-1.808 2.496 1.472.405 2.208 1.365 2.208 2.88 0 1.035-.378 1.851-1.136 2.448-.746.587-1.722.88-2.928.88zm11.293-10.464H23.67v-1.12h7.536v.192l-4.288 11.248h-1.424l3.984-10.32zm7.704 9.312c2.016 0 3.024-1.477 3.024-4.432v-.64c0-1.333-.272-2.395-.816-3.184-.544-.8-1.29-1.2-2.24-1.2-.97 0-1.728.384-2.272 1.152-.544.768-.816 1.856-.816 3.264v.64c0 1.419.277 2.507.832 3.264.554.757 1.317 1.136 2.288 1.136zm0 1.152c-1.366 0-2.464-.507-3.296-1.52-.832-1.013-1.248-2.352-1.248-4.016v-.64c0-1.696.4-3.045 1.2-4.048.81-1.003 1.914-1.504 3.312-1.504 1.386 0 2.474.507 3.264 1.52.8 1.013 1.2 2.347 1.2 4v.64c0 1.685-.395 3.035-1.184 4.048-.779 1.013-1.862 1.52-3.248 1.52z" fill="#fff"/><path opacity=".6" d="M5.412 266.234H3.384v5.436h-.996v-5.436H.36v-.84h5.052v.84zm6.893-.84h.996v6.276h-.996v-6.276zm-5.4 0h.996v2.196h1.116c.712 0 1.288.16 1.728.48.448.32.672.824.672 1.512v.036c0 .68-.224 1.192-.672 1.536-.448.344-1.024.516-1.728.516H6.905v-6.276zm2.172 5.484c.472 0 .812-.1 1.02-.3.216-.208.324-.528.324-.96v-.036c0-.4-.104-.7-.312-.9-.208-.208-.552-.312-1.032-.312H7.901v2.508h1.176zm9.038.9c-.896 0-1.632-.288-2.208-.864-.576-.584-.864-1.356-.864-2.316v-.096c0-.944.292-1.716.876-2.316.592-.6 1.316-.9 2.172-.9.72 0 1.332.18 1.836.54.504.352.8.904.888 1.656h-.984c-.144-.912-.724-1.368-1.74-1.368-.584 0-1.068.22-1.452.66-.376.432-.564 1.008-.564 1.728v.096c0 .752.184 1.332.552 1.74.376.408.876.612 1.5.612.472 0 .876-.132 1.212-.396.344-.272.54-.652.588-1.14h.924a2.49 2.49 0 01-.864 1.704c-.504.44-1.128.66-1.872.66zm7.656-6.384h.996v1.056c.184-.32.472-.592.864-.816a2.432 2.432 0 011.26-.348c.84 0 1.524.284 2.052.852.536.568.804 1.336.804 2.304v.096c0 .968-.264 1.752-.792 2.352-.52.592-1.208.888-2.064.888-.96 0-1.668-.38-2.124-1.14v3.216h-.996v-8.46zm3.024 5.556c.624 0 1.1-.2 1.428-.6.328-.408.492-.996.492-1.764v-.096c0-.76-.184-1.344-.552-1.752a1.743 1.743 0 00-1.38-.624c-.608 0-1.104.204-1.488.612-.376.4-.564.988-.564 1.764v.096c0 .776.184 1.364.552 1.764.376.4.88.6 1.512.6zm6.254.072l-2.46-5.628h1.068l1.92 4.5 1.74-4.5h1.02l-3.468 8.46h-1.008l1.188-2.832zm7.348.756c-.944 0-1.692-.304-2.244-.912-.552-.608-.828-1.532-.828-2.772v-.384c0-.592.024-1.116.072-1.572.048-.464.148-.928.3-1.392.152-.472.352-.864.6-1.176.248-.312.584-.572 1.008-.78.432-.208.94-.328 1.524-.36l.24-.012c.88-.048 1.476-.136 1.788-.264l.132.84c-.408.176-1.044.284-1.908.324l-.18.012c-.968.048-1.66.364-2.076.948-.408.576-.648 1.472-.72 2.688h.048c.216-.44.536-.788.96-1.044.432-.264.932-.396 1.5-.396.872 0 1.568.284 2.088.852.528.56.792 1.288.792 2.184v.048c0 .968-.292 1.74-.876 2.316-.576.568-1.316.852-2.22.852zm-1.5-1.44c.368.408.872.612 1.512.612s1.14-.2 1.5-.6c.368-.408.552-.984.552-1.728v-.024c0-.696-.168-1.244-.504-1.644-.328-.4-.808-.6-1.44-.6-.664 0-1.192.208-1.584.624-.384.416-.576.984-.576 1.704v.024c0 .68.18 1.224.54 1.632z" fill="#fff"/><path d="M19.976 254.396c-1.184 0-2.138-.331-2.864-.992-.714-.661-1.093-1.504-1.136-2.528h1.28c.064.725.326 1.307.784 1.744.459.437 1.115.656 1.968.656.875 0 1.526-.192 1.952-.576.438-.395.656-.939.656-1.632 0-1.483-.805-2.224-2.416-2.224h-.864v-1.168h.8c1.43 0 2.144-.651 2.144-1.952 0-.565-.176-1.024-.528-1.376-.352-.363-.87-.544-1.552-.544-.704 0-1.285.197-1.744.592-.448.395-.71.917-.784 1.568h-1.216c.043-.917.41-1.696 1.104-2.336.694-.64 1.574-.96 2.64-.96 1.046 0 1.878.299 2.496.896.63.587.944 1.296.944 2.128 0 1.163-.602 1.995-1.808 2.496 1.472.405 2.208 1.365 2.208 2.88 0 1.035-.378 1.851-1.136 2.448-.746.587-1.722.88-2.928.88zm10.02-.016c-1.046 0-1.883-.256-2.512-.768-.63-.512-1.02-1.237-1.168-2.176h1.344c.138.597.389 1.051.752 1.36.373.299.912.448 1.616.448.928 0 1.642-.379 2.144-1.136.5-.757.762-1.893.784-3.408-.288.48-.688.853-1.2 1.12-.512.267-1.1.4-1.76.4-1.11 0-2.016-.352-2.72-1.056-.694-.704-1.04-1.6-1.04-2.688 0-1.152.357-2.075 1.072-2.768.714-.704 1.674-1.056 2.88-1.056 1.354 0 2.378.437 3.072 1.312.693.875 1.04 2.144 1.04 3.808v.72c0 1.909-.374 3.371-1.12 4.384-.736 1.003-1.798 1.504-3.184 1.504zm.208-5.248c.768 0 1.397-.229 1.888-.688.49-.459.736-1.056.736-1.792 0-.917-.246-1.632-.736-2.144-.48-.512-1.115-.768-1.904-.768-.747 0-1.355.245-1.824.736-.47.491-.704 1.136-.704 1.936 0 .832.229 1.493.688 1.984.458.491 1.077.736 1.856.736zm10.925 4.112c2.016 0 3.024-1.477 3.024-4.432v-.64c0-1.333-.272-2.395-.816-3.184-.544-.8-1.29-1.2-2.24-1.2-.97 0-1.728.384-2.272 1.152-.544.768-.816 1.856-.816 3.264v.64c0 1.419.277 2.507.832 3.264.555.757 1.317 1.136 2.288 1.136zm0 1.152c-1.365 0-2.464-.507-3.296-1.52-.832-1.013-1.248-2.352-1.248-4.016v-.64c0-1.696.4-3.045 1.2-4.048.81-1.003 1.915-1.504 3.312-1.504 1.387 0 2.475.507 3.264 1.52.8 1.013 1.2 2.347 1.2 4v.64c0 1.685-.395 3.035-1.184 4.048-.779 1.013-1.861 1.52-3.248 1.52z" fill="#fff"/><circle cx="443" cy="273.904" r="5" fill="#F1D5C0"/><circle cx="304" cy="333.904" r="5" fill="#F1D5C0"/><circle cx="595" cy="223.904" r="5" fill="#F1D5C0"/><circle cx="747" cy="54.904" r="5" fill="#F1D5C0"/><path opacity=".6" d="M5.412 83.353H3.384v5.436h-.996v-5.436H.36v-.84h5.052v.84zm6.893-.84h.996v6.276h-.996v-6.276zm-5.4 0h.996v2.196h1.116c.712 0 1.288.16 1.728.48.448.32.672.824.672 1.512v.036c0 .68-.224 1.192-.672 1.536-.448.344-1.024.516-1.728.516H6.905v-6.276zm2.172 5.484c.472 0 .812-.1 1.02-.3.216-.208.324-.528.324-.96v-.036c0-.4-.104-.7-.312-.9-.208-.208-.552-.312-1.032-.312H7.901v2.508h1.176zm9.038.9c-.896 0-1.632-.288-2.208-.864-.576-.584-.864-1.356-.864-2.316v-.096c0-.944.292-1.716.876-2.316.592-.6 1.316-.9 2.172-.9.72 0 1.332.18 1.836.54.504.352.8.904.888 1.656h-.984c-.144-.912-.724-1.368-1.74-1.368-.584 0-1.068.22-1.452.66-.376.432-.564 1.008-.564 1.728v.096c0 .752.184 1.332.552 1.74.376.408.876.612 1.5.612.472 0 .876-.132 1.212-.396.344-.272.54-.652.588-1.14h.924a2.49 2.49 0 01-.864 1.704c-.504.44-1.128.66-1.872.66zm7.656-6.384h.996v1.056c.184-.32.472-.592.864-.816a2.432 2.432 0 011.26-.348c.84 0 1.524.284 2.052.852.536.568.804 1.336.804 2.304v.096c0 .968-.264 1.752-.792 2.352-.52.592-1.208.888-2.064.888-.96 0-1.668-.38-2.124-1.14v3.216h-.996v-8.46zm3.024 5.556c.624 0 1.1-.2 1.428-.6.328-.408.492-.996.492-1.764v-.096c0-.76-.184-1.344-.552-1.752a1.743 1.743 0 00-1.38-.624c-.608 0-1.104.204-1.488.612-.376.4-.564.988-.564 1.764v.096c0 .776.184 1.364.552 1.764.376.4.88.6 1.512.6zm6.254.072l-2.46-5.628h1.068l1.92 4.5 1.74-4.5h1.02l-3.468 8.46h-1.008l1.188-2.832zm7.348.756c-.944 0-1.692-.304-2.244-.912-.552-.608-.828-1.532-.828-2.772v-.384c0-.592.024-1.116.072-1.572.048-.464.148-.928.3-1.392.152-.472.352-.864.6-1.176.248-.312.584-.572 1.008-.78.432-.208.94-.328 1.524-.36l.24-.012c.88-.048 1.476-.136 1.788-.264l.132.84c-.408.176-1.044.284-1.908.324l-.18.012c-.968.048-1.66.364-2.076.948-.408.576-.648 1.472-.72 2.688h.048c.216-.44.536-.788.96-1.044.432-.264.932-.396 1.5-.396.872 0 1.568.284 2.088.852.528.56.792 1.288.792 2.184v.048c0 .968-.292 1.74-.876 2.316-.576.568-1.316.852-2.22.852zm-1.5-1.44c.368.408.872.612 1.512.612s1.14-.2 1.5-.6c.368-.408.552-.984.552-1.728v-.024c0-.696-.168-1.244-.504-1.644-.328-.4-.808-.6-1.44-.6-.664 0-1.192.208-1.584.624-.384.416-.576.984-.576 1.704v.024c0 .68.18 1.224.54 1.632z" fill="#fff"/><path d="M18.999 71.266H13.27v-.448l5.232-8.592h1.856v7.904h1.584v1.136h-1.584v2.4h-1.36v-2.4zm0-1.136v-6.848L15.03 70.13h3.968zm8.942 3.68c-2.741 0-4.112-1.733-4.112-5.2v-.272c0-2.005.406-3.547 1.216-4.624.822-1.088 1.91-1.632 3.264-1.632.918 0 1.664.235 2.24.704.587.47.955 1.157 1.104 2.064h-1.328c-.128-.555-.357-.965-.688-1.232-.33-.267-.805-.4-1.424-.4-.885 0-1.6.395-2.144 1.184-.544.79-.832 1.92-.864 3.392.619-1.035 1.6-1.552 2.944-1.552 1.12 0 2.022.357 2.704 1.072.694.704 1.04 1.595 1.04 2.672 0 1.152-.357 2.08-1.072 2.784-.714.693-1.674 1.04-2.88 1.04zm0-1.088c.747 0 1.355-.245 1.824-.736.47-.49.704-1.136.704-1.936 0-.832-.23-1.493-.688-1.984-.458-.49-1.077-.736-1.856-.736-.768 0-1.397.235-1.888.704-.49.47-.736 1.077-.736 1.824 0 .907.24 1.61.72 2.112.49.501 1.13.752 1.92.752zm10.608-.064c2.016 0 3.024-1.477 3.024-4.432v-.64c0-1.333-.272-2.395-.816-3.184-.544-.8-1.29-1.2-2.24-1.2-.97 0-1.728.384-2.272 1.152-.544.768-.816 1.856-.816 3.264v.64c0 1.419.277 2.507.832 3.264.555.757 1.317 1.136 2.288 1.136zm0 1.152c-1.365 0-2.464-.507-3.296-1.52-.832-1.013-1.248-2.352-1.248-4.016v-.64c0-1.696.4-3.045 1.2-4.048.81-1.003 1.915-1.504 3.312-1.504 1.387 0 2.475.507 3.264 1.52.8 1.013 1.2 2.347 1.2 4v.64c0 1.685-.395 3.035-1.184 4.048-.779 1.013-1.861 1.52-3.248 1.52z" fill="#fff"/><path opacity=".6" d="M5.412 25.687H3.384v5.436h-.996v-5.436H.36v-.84h5.052v.84zm6.893-.84h.996v6.276h-.996v-6.276zm-5.4 0h.996v2.196h1.116c.712 0 1.288.16 1.728.48.448.32.672.824.672 1.512v.036c0 .68-.224 1.192-.672 1.536-.448.344-1.024.516-1.728.516H6.905v-6.276zm2.172 5.484c.472 0 .812-.1 1.02-.3.216-.208.324-.528.324-.96v-.036c0-.4-.104-.7-.312-.9-.208-.208-.552-.312-1.032-.312H7.901v2.508h1.176zm9.038.9c-.896 0-1.632-.288-2.208-.864-.576-.584-.864-1.356-.864-2.316v-.096c0-.944.292-1.716.876-2.316.592-.6 1.316-.9 2.172-.9.72 0 1.332.18 1.836.54.504.352.8.904.888 1.656h-.984c-.144-.912-.724-1.368-1.74-1.368-.584 0-1.068.22-1.452.66-.376.432-.564 1.008-.564 1.728v.096c0 .752.184 1.332.552 1.74.376.408.876.612 1.5.612.472 0 .876-.132 1.212-.396.344-.272.54-.652.588-1.14h.924a2.49 2.49 0 01-.864 1.704c-.504.44-1.128.66-1.872.66zm7.656-6.384h.996v1.056c.184-.32.472-.592.864-.816a2.432 2.432 0 011.26-.348c.84 0 1.524.284 2.052.852.536.568.804 1.336.804 2.304v.096c0 .968-.264 1.752-.792 2.352-.52.592-1.208.888-2.064.888-.96 0-1.668-.38-2.124-1.14v3.216h-.996v-8.46zm3.024 5.556c.624 0 1.1-.2 1.428-.6.328-.408.492-.996.492-1.764v-.096c0-.76-.184-1.344-.552-1.752a1.743 1.743 0 00-1.38-.624c-.608 0-1.104.204-1.488.612-.376.4-.564.988-.564 1.764v.096c0 .776.184 1.364.552 1.764.376.4.88.6 1.512.6zm6.254.072l-2.46-5.628h1.068l1.92 4.5 1.74-4.5h1.02l-3.468 8.46h-1.008l1.188-2.832zm7.348.756c-.944 0-1.692-.304-2.244-.912-.552-.608-.828-1.532-.828-2.772v-.384c0-.592.024-1.116.072-1.572.048-.464.148-.928.3-1.392.152-.472.352-.864.6-1.176.248-.312.584-.572 1.008-.78.432-.208.94-.328 1.524-.36l.24-.012c.88-.048 1.476-.136 1.788-.264l.132.84c-.408.176-1.044.284-1.908.324l-.18.012c-.968.048-1.66.364-2.076.948-.408.576-.648 1.472-.72 2.688h.048c.216-.44.536-.788.96-1.044.432-.264.932-.396 1.5-.396.872 0 1.568.284 2.088.852.528.56.792 1.288.792 2.184v.048c0 .968-.292 1.74-.876 2.316-.576.568-1.316.852-2.22.852zm-1.5-1.44c.368.408.872.612 1.512.612s1.14-.2 1.5-.6c.368-.408.552-.984.552-1.728v-.024c0-.696-.168-1.244-.504-1.644-.328-.4-.808-.6-1.44-.6-.664 0-1.192.208-1.584.624-.384.416-.576.984-.576 1.704v.024c0 .68.18 1.224.54 1.632z" fill="#fff"/><path d="M17.143 16.144c-1.184 0-2.09-.288-2.72-.864-.63-.587-.992-1.376-1.088-2.368h1.328c.128.693.368 1.221.72 1.584.352.352.933.528 1.744.528.778 0 1.392-.245 1.84-.736.448-.49.672-1.168.672-2.032 0-.81-.219-1.456-.656-1.936-.427-.49-1.008-.736-1.744-.736-.64 0-1.168.09-1.584.272-.416.181-.79.459-1.12.832h-.512V4.56h6.432v1.2h-5.28v3.488c.565-.523 1.344-.784 2.336-.784 1.045 0 1.898.347 2.56 1.04.661.683.992 1.6.992 2.752 0 1.184-.374 2.128-1.12 2.832-.747.704-1.68 1.056-2.8 1.056zm10.668-1.152c2.016 0 3.024-1.477 3.024-4.432v-.64c0-1.333-.272-2.395-.816-3.184-.544-.8-1.29-1.2-2.24-1.2-.97 0-1.728.384-2.272 1.152-.544.768-.816 1.856-.816 3.264v.64c0 1.419.277 2.507.832 3.264.554.757 1.317 1.136 2.288 1.136zm0 1.152c-1.366 0-2.464-.507-3.296-1.52-.832-1.013-1.248-2.352-1.248-4.016v-.64c0-1.696.4-3.045 1.2-4.048.81-1.003 1.914-1.504 3.312-1.504 1.386 0 2.474.507 3.264 1.52.8 1.013 1.2 2.347 1.2 4v.64c0 1.685-.395 3.035-1.184 4.048-.779 1.013-1.862 1.52-3.248 1.52zm11.254-1.152c2.016 0 3.024-1.477 3.024-4.432v-.64c0-1.333-.273-2.395-.816-3.184-.545-.8-1.291-1.2-2.24-1.2-.971 0-1.729.384-2.273 1.152-.543.768-.816 1.856-.816 3.264v.64c0 1.419.278 2.507.832 3.264.555.757 1.318 1.136 2.288 1.136zm0 1.152c-1.366 0-2.465-.507-3.296-1.52-.832-1.013-1.248-2.352-1.248-4.016v-.64c0-1.696.4-3.045 1.2-4.048.81-1.003 1.914-1.504 3.312-1.504 1.386 0 2.474.507 3.264 1.52.8 1.013 1.2 2.347 1.2 4v.64c0 1.685-.395 3.035-1.184 4.048-.78 1.013-1.862 1.52-3.248 1.52z" fill="#fff"/><path opacity=".3" fill="#F1D5C0" d="M303 337.904h1v99h-1zm139-66h1v165h-1zm152-45h1v210h-1zm153-173h1v383h-1z"/><path d="M207 422.904l97.669-89.132 149.215-62.882 141.071-44.916L748.784 53.798 852 4.904" stroke="url(#paint0_radial)"/><defs><radialGradient id="paint0_radial" cx="0" cy="0" r="1" gradientUnits="userSpaceOnUse" gradientTransform="matrix(196.0001 172.49965 -304.2148 345.65944 491.999 181.903)"><stop stop-color="#F1D5C0"/><stop offset=".778" stop-color="#F1D5C0" stop-opacity="0"/></radialGradient></defs></svg>