<svg width="77" height="31" fill="none" xmlns="http://www.w3.org/2000/svg"><g opacity=".3" fill="#DCDBD9"><path fill-rule="evenodd" clip-rule="evenodd" d="M.373 27.491l.366-.13v-1.627l.372-.225v4.522H0v-1.103h.373v-1.437zm1.802-.681l.366-.15v-2.09l.373-.267v5.749H1.802v-1.233l.373-.034V26.81zm1.802-.79l.366-.177v-2.67l.4-.32v7.199H3.605v-1.424l.372-.054V26.02zm1.803-.913l.366-.204v-3.405l.372-.368v8.922H5.421v-1.71l.372-.068-.013-3.167zm1.802-1.07l.366-.237v-4.196l.373-.429v10.877H7.209v-2.098l.373-.095v-3.821zm1.802-1.239l.373-.279v-5.128l.366-.504v13.165H9.019V27.45l.365-.122v-4.53zm1.803-1.457l.373-.327v-6.266l.365-.592v15.896h-1.084v-3.256l.366-.156-.02-5.3zm1.802-1.737l.373-.402v-7.635c.122-.252.25-.497.366-.749v19.234h-1.105v-4.087l.366-.19v-6.17zm1.802-2.186l.373-.531V7.46c.129-.34.25-.681.366-1.029v23.62h-1.104V24.93l.365-.245v-7.267zm2.541 12.64h-1.07v-6.456l.366-.313v-8.902c.135-.28.257-.552.372-.83V.533h.366l-.034 29.525z"/><path d="M36.571 19.698v-8.3h4.614v1.147h-3.272v2.069h3.272v1.178h-3.272v2.652h3.272v1.254h-4.614zm7.9 0v-8.3h1.805c2.025 0 3.93.069 4.84 2.181.249.624.368 1.291.35 1.963a4.898 4.898 0 01-.37 1.95c-.84 1.974-2.532 2.206-4.457 2.206H44.47zm1.353-1.254h1.129c1.316 0 2.376-.169 2.909-1.536a3.76 3.76 0 00.238-1.385 3.724 3.724 0 00-.238-1.386c-.552-1.423-1.7-1.542-3.066-1.542h-.972v5.85zm10.971 1.536l-3.692-8.588H54.5l1.88 4.388c.193.425.342.868.446 1.323a7.64 7.64 0 01.445-1.323l1.88-4.388h1.386l-3.743 8.588zm6-.282v-8.3h4.614v1.147h-3.273v2.069h3.273v1.178h-3.273v2.652h3.273v1.254h-4.614zm6.952 0l2.677-4.326-2.37-3.943h1.41l1.192 2c.163.263.3.545.439.815.144-.27.294-.54.457-.802l1.254-2.038h1.38l-2.414 3.906 2.595 4.388h-1.48l-1.385-2.345c-.15-.27-.294-.558-.439-.833a10.33 10.33 0 01-.451.815l-1.448 2.363h-1.417zm-44.203 0v-8.62l5.235 5.047c.316.317.616.652.896 1.003v-5.73h1.254v8.588l-5.354-5.14a6.611 6.611 0 01-.796-.928v5.78h-1.235zm49.431 4.898v-.47h1.391a1.785 1.785 0 01-.501 1.36 1.567 1.567 0 01-1.147.426 1.517 1.517 0 01-1.148-.458 1.724 1.724 0 01-.501-1.253 1.918 1.918 0 01.132-.709 1.72 1.72 0 01.357-.545c.16-.158.35-.282.558-.364a1.943 1.943 0 011.592.07c.222.119.41.294.546.507l-.408.288a1.254 1.254 0 00-.414-.382 1.134 1.134 0 00-.627-.15 1.253 1.253 0 00-.896.35 1.253 1.253 0 00-.263.42 1.45 1.45 0 00-.094.52c-.008.34.118.669.35.916a1.111 1.111 0 00.847.339 1.02 1.02 0 00.752-.301.921.921 0 00.282-.57l-.808.006zm-7.404 1.253h-.514v-3.567l2.451 2.558v-2.332h.514v3.573l-2.451-2.558v2.326zm-4.238-3.366h.52v3.366h-.52v-3.366zm-2.846.483h-.777v2.883h-.514v-2.883h-.778v-.483h2.069v.483zm-5.95-.483h.515v2.884h.99v.482h-1.504v-3.366zm-5.71 0h.52v2.031c-.015.198.021.397.106.577.063.1.149.185.251.244a.715.715 0 00.752 0 .785.785 0 00.251-.244 1.27 1.27 0 00.107-.577v-2.006h.514v2.163c.012.322-.1.636-.314.877a1.197 1.197 0 01-.934.39 1.253 1.253 0 01-.94-.39 1.254 1.254 0 01-.313-.877v-2.188zm-3.135.508l-.414.238a.49.49 0 00-.15-.207.57.57 0 00-.364-.125.476.476 0 00-.35.119.377.377 0 00-.126.288c0 .17.119.307.363.408l.339.137a1.07 1.07 0 01-.295 2.12 1.004 1.004 0 01-.79-.333 1.122 1.122 0 01-.288-.658l.514-.113a.702.702 0 00.138.433.551.551 0 00.445.2.533.533 0 00.395-.157.546.546 0 00.163-.407.465.465 0 00-.138-.357 1.121 1.121 0 00-.351-.22l-.326-.138a.922.922 0 01-.683-.852.864.864 0 01.597-.83.977.977 0 01.387-.054c.246-.01.487.07.677.226.104.085.192.189.257.307v-.025zm-7.523 2.858h-.495v-3.567l2.451 2.558v-2.332h.514v3.573l-2.476-2.558.006 2.326zm-6.206-.765a1.197 1.197 0 00.89.358 1.208 1.208 0 00.896-.358 1.385 1.385 0 000-1.83 1.211 1.211 0 00-.896-.357 1.198 1.198 0 00-.89.357 1.386 1.386 0 000 1.83zm-.364-2.162a1.805 1.805 0 11-.501 1.253 1.698 1.698 0 01.495-1.228l.006-.025zm-3.373-.257v.627a1.335 1.335 0 00-.915-.377 1.166 1.166 0 00-.89.364 1.29 1.29 0 00-.339.922 1.215 1.215 0 00.351.896 1.166 1.166 0 00.884.364c.343-.005.67-.145.91-.389v.627c-.28.168-.602.255-.928.25a1.717 1.717 0 01-1.737-1.73 1.717 1.717 0 01.546-1.316 1.686 1.686 0 011.216-.439c.314-.014.626.065.896.226l.006-.025z"/></g></svg>