<svg width="227" height="48" viewBox="0 0 227 48" fill="none" xmlns="http://www.w3.org/2000/svg">
<path fill-rule="evenodd" clip-rule="evenodd" d="M21.5 0.0078125L0 12.0055V35.9963L21.5 47.9939L43 35.9963V12.0055L21.5 0.0078125ZM40.6828 27.1401L14.7156 41.6273L10.2484 39.1331L40.6828 22.154V27.1401ZM40.6828 19.5716L7.93098 37.8431L3.46377 35.3512L40.6828 14.5879V19.5716ZM28.2844 18.9266L21.5 15.1424L13.569 19.5716V27.1401L9.10181 29.632V17.0797L21.5 10.1586L32.7516 16.4232L28.2844 18.9266ZM25.9672 20.2166L15.8862 25.8454V20.8617L21.5 17.7363L25.9672 20.2166ZM21.5 2.58326L39.5362 12.6436L35.069 15.1354L21.5 7.5693L6.78436 15.7804V30.915L2.31715 33.4069V13.2886L21.5 2.58326ZM21.5 45.4023L17.0328 42.9127L40.6828 29.7132V34.6992L21.5 45.4023Z" fill="white"/>
<g clip-path="url(#clip0)">
<path fill-rule="evenodd" clip-rule="evenodd" d="M69.2093 19.8833L62.9902 32.7523H65.4382L67.0002 29.5003L70.4872 22.1923L73.0273 27.5033L73.9673 29.5033L75.5212 32.7583H78.0583L71.8383 19.8893H69.2083L69.2093 19.8833ZM151.38 19.8833H148.75L142.53 32.7523H144.978L146.512 29.5523H153.537L155.063 32.7523H157.6L151.38 19.8833ZM152.498 27.3533H147.567L150.029 22.1883L152.498 27.3533ZM224.815 19.8833V23.9693L217.129 30.1843V19.8843H214.945V32.7523H217.062L224.815 26.4833V32.7523H227V19.8833H224.815ZM208.028 32.7523H210.213V19.8833H208.028V32.7523ZM136.483 25.8173C137.046 25.6431 137.536 25.2882 137.877 24.8076C138.218 24.3269 138.391 23.7472 138.369 23.1583C138.371 22.8261 138.325 22.4954 138.232 22.1763C138.121 21.8277 137.945 21.5031 137.713 21.2193C137.445 20.8823 137.114 20.5993 136.74 20.3853C136.25 20.1205 135.723 19.9304 135.176 19.8213C134.444 19.6672 133.697 19.5937 132.948 19.6023C132.174 19.5939 131.402 19.6778 130.648 19.8523C130.056 19.984 129.488 20.2092 128.966 20.5193C128.545 20.7806 128.175 21.1148 127.871 21.5063C127.596 21.8566 127.386 22.2536 127.252 22.6783C127.147 23.0308 127.087 23.3955 127.076 23.7633V23.8703H129.338L129.332 23.7623C129.326 23.6124 129.35 23.4628 129.402 23.3223C129.485 23.1158 129.611 22.9295 129.772 22.7763C129.978 22.5764 130.215 22.41 130.472 22.2833C130.817 22.1182 131.182 21.9998 131.557 21.9313C132.045 21.8379 132.541 21.793 133.038 21.7973C133.468 21.7922 133.897 21.8257 134.32 21.8973C134.627 21.9468 134.926 22.0377 135.208 22.1673C135.409 22.2637 135.592 22.3939 135.749 22.5523C135.874 22.6744 135.972 22.8212 136.036 22.9833C136.089 23.1323 136.115 23.2893 136.114 23.4473C136.11 23.6023 136.067 23.7538 135.99 23.888C135.912 24.0223 135.802 24.1351 135.67 24.2163C135.312 24.465 134.906 24.6354 134.477 24.7163C133.946 24.8275 133.405 24.8815 132.862 24.8773H131.094V27.0353H132.862C133.395 27.0315 133.927 27.0579 134.456 27.1143C134.875 27.1594 135.287 27.2496 135.686 27.3833C135.999 27.4781 136.279 27.6578 136.495 27.9023C136.676 28.129 136.772 28.4122 136.765 28.7023C136.763 28.8759 136.729 29.0477 136.665 29.2093C136.58 29.4132 136.459 29.5999 136.307 29.7603C136.117 29.9667 135.894 30.1398 135.647 30.2723C135.308 30.4463 134.946 30.5722 134.571 30.6463C134.067 30.7521 133.552 30.8027 133.036 30.7973C132.503 30.8025 131.971 30.7516 131.448 30.6453C131.054 30.5712 130.673 30.4398 130.317 30.2553C130.055 30.115 129.818 29.9314 129.617 29.7123C129.46 29.5449 129.34 29.3458 129.265 29.1283C129.235 29.0309 129.217 28.9301 129.212 28.8283L129.206 28.7283H126.91V28.8363C126.925 29.1974 126.987 29.5549 127.096 29.8993C127.241 30.3281 127.462 30.727 127.749 31.0763C128.069 31.4697 128.454 31.8049 128.888 32.0673C129.425 32.3794 130.007 32.607 130.613 32.7423C131.377 32.9191 132.159 33.0044 132.943 32.9963C133.778 33.006 134.611 32.919 135.425 32.7373C136.041 32.6071 136.633 32.3807 137.179 32.0663C137.601 31.8086 137.972 31.4746 138.271 31.0813C138.534 30.7445 138.733 30.3621 138.858 29.9533C138.963 29.5794 139.016 29.1927 139.015 28.8043C139.023 28.436 138.958 28.0698 138.825 27.7266C138.691 27.3834 138.49 27.07 138.235 26.8043C137.75 26.324 137.145 25.983 136.483 25.8173ZM86.6332 25.1063L82.8782 19.6183H79.9843L85.4033 27.0793L81.9132 32.7523H84.3522L92.5302 19.6183H90.0902L86.6332 25.1063ZM223.664 16.7683L221.844 15.9863L219.936 20.6693L221.289 21.2223L223.664 16.7683ZM103.731 25.1683H99.8572C99.3828 25.171 98.9268 24.9852 98.5893 24.6518C98.2518 24.3185 98.0604 23.8647 98.0573 23.3903V19.6003H95.7422V23.3913C95.7502 24.4756 96.1873 25.5126 96.9579 26.2753C97.7285 27.0381 98.77 27.4645 99.8542 27.4613H103.728V32.7503H106.008V19.6183H103.728V25.1713L103.731 25.1683ZM187.231 24.1683H179.545V19.8833H177.36V32.7523H179.545V26.3683H187.231V32.7523H189.416V19.8833H187.231V24.1753V24.1683ZM168.095 19.8573H162.138L162.038 19.8763H161.774V32.7523H163.959V29.0143H168.099C168.708 29.0267 169.313 28.9173 169.879 28.6928C170.445 28.4682 170.961 28.1329 171.396 27.7065C171.831 27.2801 172.176 26.7713 172.411 26.2097C172.647 25.6482 172.768 25.0452 172.768 24.4363C172.767 23.8273 172.646 23.2245 172.409 22.6633C172.173 22.102 171.827 21.5936 171.391 21.1678C170.956 20.742 170.44 20.4074 169.874 20.1836C169.307 19.9597 168.702 19.8512 168.093 19.8643L168.095 19.8573ZM170.403 24.4323C170.399 25.0411 170.154 25.6235 169.721 26.0518C169.289 26.4801 168.704 26.7195 168.095 26.7173H163.955V22.1543H168.095C168.704 22.153 169.288 22.3927 169.72 22.8209C170.152 23.2491 170.396 23.8311 170.4 24.4393L170.403 24.4323ZM205.626 28.1753C205.618 26.9562 205.126 25.7902 204.259 24.9335C203.391 24.0767 202.219 23.5994 201 23.6063H196.729V19.8833H194.544V32.7523H201C202.219 32.7587 203.391 32.281 204.258 31.4241C205.125 30.5673 205.616 29.4013 205.624 28.1823L205.626 28.1753ZM203.31 28.1753C203.309 28.4775 203.248 28.7764 203.132 29.055C203.015 29.3337 202.844 29.5866 202.63 29.7994C202.415 30.0121 202.161 30.1806 201.881 30.295C201.602 30.4094 201.302 30.4676 201 30.4663H196.729V25.9003H201C201.609 25.8982 202.193 26.1371 202.625 26.5648C203.058 26.9925 203.303 27.5741 203.308 28.1823L203.31 28.1753ZM122.436 30.5523H114.783V27.0503H121.217V24.8503H114.783V22.0853H122.436V19.8853H112.6V32.7523H122.438V30.5593L122.436 30.5523Z" fill="white"/>
</g>
<defs>
<clipPath id="clip0">
<rect width="164" height="17" fill="white" transform="translate(63 16)"/>
</clipPath>
</defs>
</svg>
