<svg width="6" height="32" fill="none" xmlns="http://www.w3.org/2000/svg"><path d="M5.148 30.454a2.656 2.656 0 01-1.89.756A2.656 2.656 0 01.57 28.522c0-.756.266-1.386.798-1.89.532-.532 1.162-.798 1.89-.798s1.358.266 1.89.798c.532.504.798 1.134.798 1.89s-.266 1.4-.798 1.932zM1.368.97h3.864l-.588 21.546H1.956L1.368.97z" fill="#D4E1FF"/><path d="M5.148 30.454a2.656 2.656 0 01-1.89.756A2.656 2.656 0 01.57 28.522c0-.756.266-1.386.798-1.89.532-.532 1.162-.798 1.89-.798s1.358.266 1.89.798c.532.504.798 1.134.798 1.89s-.266 1.4-.798 1.932zM1.368.97h3.864l-.588 21.546H1.956L1.368.97z" fill="url(#paint0_linear)"/><defs><linearGradient id="paint0_linear" x1="6.993" y1="9.569" x2="26.418" y2="10.359" gradientUnits="userSpaceOnUse"><stop stop-color="#fff"/><stop offset="1" stop-color="#45547A"/></linearGradient></defs></svg>