<svg width="103" height="80" viewBox="0 0 103 80" fill="none" xmlns="http://www.w3.org/2000/svg">
<g clip-path="url(#clip0)">
<path fill-rule="evenodd" clip-rule="evenodd" d="M98.9184 68.1433V59.0155H100.326V66.838H103.007V68.1522L98.9184 68.1433ZM93.6586 65.9328H89.7551L88.7563 68.1365H87.248L91.7973 58.4746L96.1231 68.1365H94.6171L93.6586 65.9328ZM91.7414 61.5254L90.3315 64.6186H93.0977L91.7414 61.5254ZM88.4569 50.5738H80.4398H80.375C80.3258 50.5763 80.2766 50.5763 80.2275 50.5738C79.6264 50.5738 79.4924 50.4598 79.2645 50.2542C75.4391 46.2133 65.1653 43.3257 52.5319 43.3257C39.7689 43.3257 29.2649 46.22 25.3524 50.2542H25.3189C25.1479 50.4358 24.9169 50.5494 24.6687 50.5738H16.6583C16.4885 50.5738 16.2315 50.4867 16.2315 50.2542V40.0223C16.2315 39.7988 16.3164 39.591 16.6583 39.3809C17.0001 39.1708 29.0794 31.4958 30.3351 30.6979V25.2936C30.3351 25.2936 27.77 23.2151 27.77 20.6001C27.77 18.5394 29.2515 16.443 32.0445 14.6796V8.64502C32.0445 3.73917 41.0849 0 52.0247 0H53.0927C64.0324 0 73.0662 3.73917 73.0662 8.64502V14.6796C75.8592 16.443 77.3384 18.5394 77.3384 20.6001C77.3384 23.2173 74.7755 25.2936 74.7755 25.2936V30.6979C76.0312 31.4958 88.1284 39.1909 88.4501 39.3809C88.7719 39.5709 88.8792 39.7921 88.8792 40.0223V50.2676C88.8859 50.5112 88.6289 50.5872 88.4569 50.5872V50.5738ZM62.7074 43.2877C64.3944 43.5313 66.0009 43.833 67.5159 44.1817V36.3927L67.5025 36.3592C65.9842 35.56 64.3739 34.9498 62.7074 34.5421V43.2877ZM62.7074 31.7506C64.2914 32.1401 65.8315 32.6905 67.3036 33.3933V33.4045C67.3756 33.4318 67.4551 33.4318 67.527 33.4045V28.6081L67.5136 28.5746C65.9954 27.7755 64.3851 27.1653 62.7186 26.7576L62.7074 31.7506ZM62.7074 26.0915C64.4485 26.5155 66.1342 27.141 67.7304 27.9555V27.9779C67.8596 28.0512 67.9672 28.1574 68.0422 28.2858C68.1171 28.4142 68.1568 28.5601 68.1572 28.7087V33.8314C68.1572 34.3991 67.6298 34.2784 67.4086 34.151C67.3713 34.1308 67.3361 34.1068 67.3036 34.0794V34.1152C65.8417 33.3724 64.2996 32.7995 62.7074 32.4077V33.8828C64.4485 34.3067 66.1342 34.9323 67.7304 35.7468V35.7691C67.8596 35.8425 67.9672 35.9487 68.0422 36.0771C68.1171 36.2054 68.1568 36.3513 68.1572 36.5V44.3404C70.1637 44.8228 72.1287 45.4641 74.0337 46.258V25.2892H74.0046C73.8639 24.9561 73.1891 24.7617 72.378 24.7617C71.5669 24.7617 70.8921 24.9561 70.7513 25.2892H70.7223V45.0377L69.9737 44.8254V26.7397C68.5437 25.2288 65.9875 23.9593 62.7074 23.1145V26.0915ZM57.4722 42.7468C59.0184 42.8496 60.5147 42.9986 61.9611 43.1938V20.0637C61.8918 19.5966 60.9176 19.3172 59.7267 19.3172C58.5357 19.3172 57.5571 19.5966 57.4923 20.0637L57.4722 42.7468ZM48.3915 42.6887C49.7128 42.6217 51.0609 42.5874 52.4358 42.5859C53.8993 42.5859 55.3405 42.6284 56.7259 42.7044V33.5632C55.5215 33.4626 54.268 33.4067 52.9922 33.4067C52.8514 33.4067 52.7062 33.4067 52.5654 33.4067H52.1364C50.8538 33.4067 49.607 33.4626 48.4049 33.5632L48.3915 42.6887ZM48.3915 32.915C49.5467 32.8189 50.7421 32.7675 51.9666 32.7675H53.1419C54.3708 32.7675 55.564 32.8189 56.7169 32.915V31.4287C55.5126 31.3281 54.2591 31.2723 52.9832 31.2723V31.2902C52.8424 31.2902 52.6972 31.2902 52.5564 31.2902C52.4157 31.2902 52.2704 31.2902 52.1274 31.2902V31.279C50.8449 31.279 49.5981 31.3349 48.396 31.4354L48.3915 32.915ZM48.3915 30.7806C49.5467 30.6845 50.7421 30.6331 51.9666 30.6331H53.1419C54.3708 30.6331 55.564 30.6845 56.7169 30.7806V25.7697C55.5126 25.6691 54.2591 25.6132 52.9832 25.6132V25.6244C52.8424 25.6244 52.6972 25.6244 52.5564 25.6244C52.4157 25.6244 52.2704 25.6244 52.1274 25.6244V25.6132C50.8449 25.6132 49.5981 25.6691 48.396 25.7697L48.3915 30.7806ZM48.3915 25.1238C49.5467 25.0277 50.7421 24.9762 51.9666 24.9762H53.1419C54.3708 24.9762 55.564 25.0277 56.7169 25.1238V22.1266C55.5483 22.0305 54.3373 21.9769 53.0905 21.9769V21.9903C52.9117 21.9903 52.1967 21.9903 52.0224 21.9903V21.9769C50.7756 21.9769 49.5646 22.0305 48.3982 22.1266L48.3915 25.1238ZM43.1562 43.1357C44.6041 42.9569 46.1012 42.8161 47.643 42.7222V20.0637C47.5737 19.5966 46.5995 19.3172 45.4085 19.3172C44.2176 19.3172 43.2412 19.5966 43.1741 20.0637L43.1562 43.1357ZM37.5992 44.0811C39.1209 43.7459 40.7274 43.462 42.4077 43.2341V34.5421C40.7419 34.9498 39.1323 35.56 37.6149 36.3592L37.5992 36.3927V44.0811ZM35.1414 44.6846C35.7313 44.5237 36.3368 44.3694 36.958 44.2376V36.5C36.9583 36.351 36.9982 36.2049 37.0736 36.0765C37.149 35.9481 37.2571 35.842 37.387 35.7691V35.7468C38.9826 34.9326 40.6675 34.3071 42.4077 33.8828V32.4077C40.8161 32.7991 39.2747 33.3721 37.8137 34.1152V34.0794C37.7801 34.1063 37.7442 34.1303 37.7065 34.151C37.4831 34.2694 36.958 34.3991 36.958 33.8314V28.7087C36.9583 28.5598 36.9982 28.4137 37.0736 28.2852C37.149 28.1568 37.2571 28.0507 37.387 27.9779V27.9555C38.9826 27.1414 40.6675 26.5158 42.4077 26.0915V23.1145C39.1276 23.9593 36.5714 25.2288 35.1414 26.7397V44.6846ZM42.4077 31.7461V26.7508C40.7419 27.1585 39.1323 27.7688 37.6149 28.5679C37.6105 28.5794 37.6053 28.5907 37.5992 28.6014V33.4045C37.6713 33.4314 37.7506 33.4314 37.8227 33.4045V33.3933C39.2911 32.691 40.8274 32.1406 42.4077 31.7506V31.7461ZM35.0967 25.1551L35.1414 25.1819V25.7026C36.8083 24.3102 39.3265 23.1547 42.4077 22.368V20.0637C42.4066 20.0458 42.4066 20.0279 42.4077 20.0101C42.4077 19.2144 43.7484 18.5707 45.3996 18.5707C47.0508 18.5707 48.3915 19.2144 48.3915 20.0101C48.3926 20.0279 48.3926 20.0458 48.3915 20.0637V21.3868C49.5467 21.2907 50.7421 21.2371 51.9666 21.2371H53.1419C54.3708 21.2371 55.564 21.2907 56.7169 21.3868V20.0637C56.7169 20.0458 56.7169 20.0279 56.7169 20.0101C56.7169 19.2144 58.0576 18.5707 59.7088 18.5707C61.3601 18.5707 62.6985 19.2144 62.6985 20.0101C62.6985 20.0279 62.6985 20.0458 62.6985 20.0637V22.3501C65.782 23.1368 68.2979 24.2923 69.9648 25.6847V25.1774L70.0095 25.1506C70.0944 24.5114 71.1267 24.004 72.3869 24.004C72.9369 23.9945 73.4826 24.1035 73.9868 24.3236C73.3991 20.8012 65.6479 16.4743 52.5497 16.4273C39.4516 16.4743 31.6981 20.8012 31.1105 24.3236C31.6147 24.1037 32.1603 23.9947 32.7103 24.004C33.9817 24.013 35.014 24.5203 35.0967 25.1595V25.1551ZM31.0747 27.2113V46.0412C32.1056 45.6345 33.2101 45.262 34.3884 44.9237V25.2892H34.3593C34.2186 24.9561 33.5438 24.7617 32.7304 24.7617C31.9171 24.7617 31.2446 24.9561 31.1038 25.2892H31.0747V27.2113ZM31.0747 22.4954C33.6197 18.564 42.3407 15.7501 52.3218 15.6875H52.4447H52.6682H52.7888C62.77 15.7501 71.4931 18.564 74.0359 22.4954V21.664C74.0359 18.0768 66.1931 13.7073 52.5609 13.6626C38.931 13.7073 31.0837 18.0768 31.0837 21.664L31.0747 22.4954ZM24.5435 49.948C25.9021 48.607 27.8751 47.38 30.3351 46.3363V42.0182L17.7621 49.948H24.5435ZM16.8728 49.7715L30.3351 41.2248V36.7816L16.8728 45.2903V49.7715ZM16.8728 39.9151V44.5438L30.3351 35.9949V31.4332L16.8728 39.9151ZM72.3243 14.1946V8.53774C72.3243 4.93043 65.1072 0.746494 52.9855 0.746494H52.1297C40.0079 0.746494 32.7908 4.93043 32.7908 8.53774V14.2326C33.2265 13.9867 33.6845 13.7498 34.1806 13.5196V10.033C34.1806 5.33944 42.3362 3.13572 44.3315 2.88093C44.8946 2.81164 45.1851 2.77812 45.1851 3.30782V10.6364C45.8107 10.5627 46.4542 10.5001 47.1089 10.4464V2.98821C47.1089 2.58814 47.5201 2.38029 47.9647 2.349C48.4094 2.31771 49.8528 2.14561 52.4336 2.1255H52.6771C55.2623 2.1255 56.7192 2.30653 57.1459 2.349C57.5727 2.39146 57.9995 2.58814 57.9995 2.98821V10.4464C58.6564 10.5001 59.2977 10.5634 59.9233 10.6364V3.30782C59.9233 2.77812 60.2138 2.81164 60.7791 2.88093C62.7722 3.13572 70.9278 5.33944 70.9278 10.033V13.5196C71.4172 13.7431 71.8819 13.9867 72.3176 14.2326L72.3243 14.1946ZM44.4343 7.09392C44.4343 5.97642 44.4343 4.74716 44.4343 3.62966C37.6484 4.83433 34.9246 8.02592 34.9246 9.71112V13.1866C36.4165 12.5577 37.9556 12.0473 39.5275 11.6601C39.5242 11.5983 39.5242 11.5363 39.5275 11.4745C39.5231 9.69995 41.4424 8.11979 44.4343 7.09392ZM40.1666 11.5036C41.4938 11.1929 42.9172 10.9314 44.4366 10.7303C44.4366 10.3258 44.4366 9.16578 44.4366 7.73984C41.8603 8.64502 40.2202 9.97932 40.1666 11.5036ZM52.0626 5.87584C52.228 5.87584 52.8961 5.87584 53.0614 5.87584C54.4684 5.89948 55.8717 6.02722 57.2599 6.25803V3.09549C55.7414 2.9171 54.2125 2.84243 52.6838 2.87199H52.4313C50.9034 2.84241 49.3752 2.91708 47.8575 3.09549V6.25803C49.2478 6.02678 50.6534 5.89903 52.0626 5.87584ZM47.8619 6.8883V10.3906C49.2249 10.2967 50.6483 10.2453 52.1341 10.2453H52.9899C54.4758 10.2453 55.8947 10.2967 57.2644 10.3906V6.8883C54.1504 6.3847 50.9759 6.3847 47.8619 6.8883ZM60.6875 7.09392C63.6794 8.11979 65.6032 9.69995 65.6032 11.4723C65.6032 11.5349 65.6032 11.5975 65.6032 11.6578C67.1691 12.0471 68.7021 12.5582 70.1882 13.1866V9.71112C70.1882 8.02592 67.4645 4.83433 60.6786 3.62966C60.6808 4.74716 60.683 5.97195 60.683 7.09392H60.6875ZM60.6875 10.7303C62.2069 10.9314 63.6302 11.1929 64.9575 11.5036C64.9061 9.97932 63.2638 8.64502 60.692 7.73984C60.6808 9.16355 60.6786 10.3258 60.6786 10.7281L60.6875 10.7303ZM76.6077 20.5979C76.6077 15.4104 66.2423 10.9873 52.8871 10.9873H52.2459C38.8907 10.9873 28.5275 15.4059 28.5275 20.5979C28.5275 22.6831 30.3441 24.2275 30.3441 24.2275V21.769C30.3441 16.6285 40.4772 12.9698 52.3911 12.9117C52.4782 12.9117 52.8514 12.9117 52.7441 12.9117C64.6558 12.9698 74.7911 16.6397 74.7911 21.769V24.2275C74.7911 24.2275 76.5988 22.6831 76.5988 20.5979H76.6077ZM74.4426 46.4324C76.7418 47.4515 78.5852 48.6338 79.87 49.9324C80.0644 49.9169 80.2599 49.9221 80.4532 49.948H87.3665L74.7822 42.0182V46.5329L74.4426 46.4324ZM88.2535 39.9151L74.7911 31.422V35.9837L88.2535 44.5326V39.9151ZM88.2535 45.2791L74.7911 36.7704V41.2136L88.2535 49.7603V45.2791ZM17.4493 61.6975C17.4695 62.2943 17.2761 62.8787 16.9037 63.3455C16.5313 63.8122 16.0045 64.1306 15.4182 64.2432L18.267 68.1433H16.5868L13.9703 64.4063H13.7245V68.1433H12.328V59.0155H13.9569C15.0741 59.0155 15.7801 59.1518 16.3678 59.5474C16.7115 59.7886 16.9902 60.1112 17.1789 60.4864C17.3676 60.8616 17.4605 61.2776 17.4493 61.6975ZM14.2049 60.3006H13.7245V63.2061H14.1714C14.5557 63.2061 16.1175 63.1659 16.1175 61.7154C16.1086 60.4235 14.8886 60.3006 14.2049 60.3006ZM4.46951 68.3198C3.14227 68.3198 2.19711 67.9376 1.36143 67.0749C0.495285 66.1446 0.0120507 64.9216 0.00832251 63.6503C0.00459429 62.3791 0.480647 61.1533 1.34132 60.2179C2.26223 59.3273 3.49702 58.8359 4.77786 58.8501C5.60431 58.841 6.41996 59.0384 7.15081 59.4245C7.74839 59.7524 8.25633 60.2221 8.63 60.7923L7.51279 61.5723C7.21714 61.151 6.83658 60.7962 6.39558 60.5308C5.90299 60.2526 5.34322 60.1157 4.77786 60.1352C4.33321 60.1219 3.89044 60.1986 3.47615 60.3606C3.06185 60.5227 2.68456 60.7668 2.36692 61.0784C1.72826 61.776 1.38051 62.6916 1.39495 63.6375C1.38991 64.552 1.72706 65.4354 2.34011 66.1139C2.63364 66.4217 2.98978 66.663 3.38449 66.8215C3.77919 66.9799 4.20329 67.0519 4.62815 67.0325C5.00558 67.0455 5.38164 66.9804 5.7327 66.8412C6.08377 66.702 6.40226 66.4916 6.66818 66.2234C7.10397 65.8188 7.3766 65.2686 7.43458 64.6768H5.16442V63.3916H8.93835V63.4743C8.93835 65.0388 8.47136 66.3061 7.58206 67.1688C6.63019 68.074 5.50628 68.3198 4.46951 68.3198ZM28.9744 68.1433H27.4617L26.5031 65.9328H22.5996L21.6008 68.1365H20.0948L24.6418 58.4746L28.9744 68.1433ZM23.1805 64.6253H25.9423L24.5793 61.5321L23.1805 64.6253ZM37.1769 46.5218C37.4697 46.4927 37.6037 46.6335 37.6037 46.8414V50.5537C38.0774 50.4174 38.5779 50.2878 39.1008 50.1671V46.5329C39.1008 46.3295 39.284 46.0859 39.7421 45.9988C39.7688 45.9956 39.7958 45.9956 39.8225 45.9988C43.7399 45.3191 47.7069 44.9655 51.6828 44.9416H51.7074C51.82 44.9433 51.9276 44.9889 52.0072 45.0685C52.0869 45.1482 52.1324 45.2558 52.1341 45.3685V48.9981H52.581C52.9743 48.9981 53.3608 48.9981 53.7429 48.9981V45.4646C53.7429 45.2411 53.9418 44.9304 54.1697 44.9304C54.2173 44.9305 54.2647 44.9373 54.3105 44.9505C58.1334 45.0181 61.9446 45.3971 65.706 46.0837V46.1306C66.0836 46.229 66.24 46.4525 66.24 46.638V50.2542C66.7644 50.3794 67.2634 50.515 67.7371 50.661V47.0649C67.7371 46.7698 68.0924 46.5687 68.3784 46.638C68.4954 46.6638 68.6082 46.7059 68.7135 46.7631C70.866 47.3596 72.9175 48.2741 74.8001 49.4764C72.7614 48.5984 70.6481 47.905 68.4856 47.4046V50.9046C69.6083 51.2772 70.6837 51.7798 71.6898 52.4021C68.8387 51.2197 62.5287 49.9078 54.0602 49.7491C54.0602 49.7491 53.7407 49.7491 52.9586 49.7357H52.0314C51.2739 49.7357 50.9611 49.7491 50.9611 49.7491C42.5038 49.9078 36.1849 51.2197 33.3337 52.4021C34.4376 51.7217 35.6221 51.1819 36.8597 50.7951V47.3308C34.5851 47.8387 32.3627 48.5569 30.2212 49.4764C31.3742 48.7724 33.193 47.608 36.9468 46.5709L37.1769 46.5218ZM54.4847 48.9959C58.9536 49.0786 62.589 49.4429 65.4915 50.0754V46.781C61.8557 46.1398 58.1759 45.7796 54.4847 45.7037V48.9959ZM39.8471 50.0084C42.8814 49.3826 46.6844 49.0317 51.3878 48.9847V45.6881H50.9588C47.234 45.7468 43.5192 46.0913 39.8471 46.7184V50.0084ZM38.3969 59.0088H39.7934V68.7042L33.1639 61.7757V68.1544H31.7674V58.4098L38.3969 65.3383V59.0088ZM36.3971 75.9546C36.5491 76.0605 36.6724 76.2026 36.7559 76.368C36.8393 76.5334 36.8804 76.717 36.8753 76.9023C36.8832 77.1643 36.7977 77.4207 36.6339 77.6255C36.4702 77.8302 36.2389 77.97 35.9815 78.0198L37.2395 79.7407H36.4887L35.3358 78.0913H35.2263V79.7407H34.6096V75.7177H35.3291C35.8184 75.7244 36.1335 75.7848 36.3927 75.9613L36.3971 75.9546ZM35.2308 77.5661H35.4252C35.5927 77.5661 36.2832 77.5482 36.2832 76.9067C36.2832 76.339 35.7447 76.2854 35.443 76.2854H35.2308V77.5661ZM40.79 76.2966H39.1834V77.3314H40.7475V77.9102H39.1834V79.1775H40.79V79.7586H38.5667V75.7356H40.79V76.2966ZM42.8501 79.0143C42.9122 79.0934 42.9922 79.1566 43.0835 79.1985C43.1748 79.2405 43.2748 79.2601 43.3752 79.2557C43.4641 79.2588 43.5527 79.2436 43.6354 79.211C43.7181 79.1785 43.7933 79.1292 43.8562 79.0663C43.919 79.0034 43.9683 78.9282 44.0009 78.8455C44.0335 78.7627 44.0487 78.6741 44.0455 78.5852C44.0455 78.1762 43.7305 78.0064 43.4646 77.8991L43.078 77.7359C42.7451 77.5973 42.2558 77.318 42.2558 76.7145C42.2558 76.1714 42.6803 75.6529 43.4333 75.6529C43.7269 75.6411 44.0147 75.7373 44.2422 75.9233C44.368 76.0389 44.4724 76.1759 44.5505 76.3279L44.0545 76.6184C44.016 76.5205 43.9538 76.4337 43.8735 76.3659C43.7511 76.2655 43.5959 76.2138 43.4378 76.2206C43.3681 76.2111 43.2973 76.2165 43.2298 76.2362C43.1624 76.256 43.0999 76.2898 43.0463 76.3353C42.9928 76.3808 42.9494 76.4371 42.9191 76.5006C42.8888 76.564 42.8721 76.6331 42.8702 76.7033C42.8702 76.824 42.9127 77.0341 43.306 77.1928L43.7104 77.3537C44.4522 77.6577 44.6578 78.0801 44.6578 78.5383C44.6651 78.7105 44.6365 78.8823 44.5738 79.0428C44.511 79.2033 44.4156 79.349 44.2934 79.4705C44.1713 79.592 44.0252 79.6868 43.8644 79.7487C43.7036 79.8106 43.5317 79.8383 43.3596 79.8301C43.1813 79.8392 43.0033 79.8075 42.8391 79.7374C42.6749 79.6673 42.5289 79.5607 42.4122 79.4256C42.2137 79.2099 42.094 78.9334 42.0726 78.6411L42.6825 78.507C42.6814 78.6913 42.7385 78.8712 42.8457 79.021L42.8501 79.0143ZM43.6299 59.0088H45.5471C46.8207 59.0088 47.929 59.1451 48.9434 59.9028C49.5038 60.3358 49.9546 60.8946 50.2593 61.534C50.564 62.1735 50.7141 62.8757 50.6974 63.5838C50.7195 64.3032 50.5629 65.0169 50.2416 65.6609C49.9203 66.3048 49.4443 66.859 48.8562 67.2738C47.7882 68.027 46.7894 68.15 45.5046 68.15H43.6143L43.6299 59.0088ZM45.0265 66.8313H45.6297C46.3135 66.8313 47.2586 66.7754 48.0541 66.1876C48.4495 65.8812 48.7679 65.4866 48.984 65.0353C49.2001 64.5841 49.3078 64.0886 49.2987 63.5883C49.311 63.0847 49.2062 62.5852 48.9925 62.1291C48.7789 61.673 48.4622 61.2727 48.0675 60.9599C47.272 60.3855 46.3001 60.3297 45.6297 60.3297H45.0265V66.8313ZM46.7715 79.7541H46.1548V75.7311H46.7715V79.7541ZM50.8069 76.12C51.0538 76.311 51.2524 76.5574 51.3866 76.8392C51.5209 77.1211 51.5872 77.4305 51.58 77.7426C51.5894 78.0592 51.5205 78.3731 51.3794 78.6566C51.2383 78.94 51.0294 79.1842 50.7711 79.3675C50.3371 79.6587 49.8175 79.795 49.2964 79.7541H48.463V75.7311H49.3076C49.8662 75.7244 50.3555 75.7848 50.8024 76.1178L50.8069 76.12ZM49.0797 79.173H49.3456C49.7207 79.1978 50.0938 79.1006 50.4092 78.8959C50.5798 78.7561 50.7173 78.5801 50.8118 78.3806C50.9062 78.1812 50.9552 77.9633 50.9552 77.7426C50.9552 77.522 50.9062 77.304 50.8118 77.1046C50.7173 76.9052 50.5798 76.7292 50.4092 76.5894C50.0893 76.3853 49.7131 76.2875 49.3344 76.31H49.0685L49.0797 79.173ZM55.3025 76.3055H53.696V77.3314H55.2601V77.9102H53.696V79.1775H55.3025V79.7586H53.0793V75.7356H55.3025V76.3055ZM59.749 75.7266H60.3657V80.0022L57.4409 76.9403V79.7541H56.8242V75.454L59.749 78.5137V75.7266ZM60.33 68.1433H58.9335V59.0155H60.5534C61.6706 59.0155 62.3745 59.1518 62.9644 59.5474C63.3078 59.7889 63.5862 60.1115 63.7749 60.4867C63.9636 60.8618 64.0566 61.2777 64.0458 61.6975C64.0663 62.2937 63.8734 62.8776 63.5019 63.3442C63.1304 63.8109 62.6047 64.1296 62.0192 64.2432L64.8681 68.1433H63.1833L60.5668 64.4063H60.33V68.1433ZM60.7769 63.2016C61.1612 63.2016 62.7208 63.1614 62.7208 61.7109C62.7208 60.4235 61.5031 60.3006 60.8171 60.3006H60.33V63.2061L60.7769 63.2016ZM63.9788 75.6529C64.3584 75.6403 64.7332 75.7406 65.0558 75.9412V76.6609C64.7634 76.3743 64.3703 76.2138 63.9609 76.2139C63.085 76.2139 62.4929 76.8598 62.4929 77.7471C62.4856 77.9443 62.5185 78.141 62.5896 78.3251C62.6607 78.5092 62.7685 78.677 62.9065 78.8181C63.0444 78.9592 63.2096 79.0708 63.3921 79.146C63.5745 79.2213 63.7703 79.2586 63.9676 79.2557C64.3763 79.2449 64.7654 79.0786 65.0558 78.7908V79.5217C64.7201 79.7178 64.3385 79.8219 63.9497 79.8234C63.4198 79.8331 62.9075 79.6331 62.5242 79.2669C62.3126 79.0757 62.145 78.8407 62.0331 78.5783C61.9212 78.3158 61.8677 78.0322 61.8762 77.7471C61.8682 77.4538 61.9217 77.162 62.0333 76.8906C62.1449 76.6192 62.3122 76.3742 62.5242 76.1714C62.7178 75.9946 62.9443 75.8578 63.1909 75.7689C63.4374 75.6799 63.6991 75.6405 63.9609 75.6529H63.9788ZM68.7649 76.3033H67.1584V77.3314H68.7225V77.9102H67.1584V79.1775H68.7649V79.7586H66.5417V75.7356H68.7649V76.3033ZM72.2149 58.8501C74.952 58.8501 76.9675 60.9018 76.9675 63.5861C76.9675 66.2703 74.9565 68.3198 72.2149 68.3198C69.4732 68.3198 67.4623 66.2681 67.4623 63.5861C67.4623 60.904 69.4576 58.8501 72.197 58.8501H72.2149ZM72.2149 67.0347C74.1722 67.0347 75.5665 65.611 75.5665 63.5861C75.5665 61.5611 74.17 60.1374 72.2149 60.1374C70.2597 60.1374 68.8632 61.5589 68.8632 63.5861C68.8632 65.6132 70.2374 67.0347 72.197 67.0347H72.2149ZM70.8251 79.021C70.8871 79.1001 70.9671 79.1633 71.0584 79.2052C71.1497 79.2472 71.2497 79.2668 71.3501 79.2624C71.439 79.2656 71.5276 79.2503 71.6103 79.2178C71.6931 79.1852 71.7682 79.1359 71.8311 79.073C71.894 79.0101 71.9432 78.9349 71.9758 78.8522C72.0084 78.7694 72.0236 78.6808 72.0205 78.5919C72.0205 78.1829 71.7054 78.0131 71.4395 77.9058L71.053 77.7426C70.72 77.604 70.2307 77.3247 70.2307 76.7212C70.2307 76.1781 70.6552 75.6596 71.4105 75.6596C71.7041 75.6476 71.9919 75.7439 72.2193 75.93C72.3458 76.045 72.4503 76.1821 72.5277 76.3346L72.0316 76.6251C71.9932 76.5272 71.931 76.4404 71.8507 76.3726C71.7282 76.2722 71.5731 76.2205 71.4149 76.2273C71.3453 76.2178 71.2744 76.2232 71.207 76.2429C71.1396 76.2627 71.077 76.2965 71.0235 76.342C70.97 76.3876 70.9266 76.4439 70.8963 76.5073C70.8659 76.5707 70.8493 76.6398 70.8474 76.71C70.8474 76.8307 70.8898 77.0408 71.2831 77.1995L71.6875 77.3604C72.4316 77.6644 72.6349 78.0868 72.6349 78.545C72.6423 78.7172 72.6137 78.889 72.5509 79.0495C72.4882 79.21 72.3927 79.3557 72.2706 79.4772C72.1484 79.5987 72.0023 79.6935 71.8415 79.7554C71.6807 79.8173 71.5088 79.8451 71.3367 79.8368C71.1585 79.8458 70.9805 79.814 70.8164 79.7439C70.6522 79.6738 70.5062 79.5672 70.3893 79.4323C70.1908 79.2166 70.0712 78.9401 70.0497 78.6478L70.6597 78.5137C70.6554 78.694 70.7069 78.8712 70.8072 79.021H70.8251ZM82.6742 62.6675L84.7835 59.0155H86.3721L83.3736 64.2007V68.1433H81.9748V64.2007L78.9762 59.0155H80.5649L82.6742 62.6675Z" fill="white"/>
</g>
<defs>
<clipPath id="clip0">
<rect width="103" height="80" fill="white"/>
</clipPath>
</defs>
</svg>
