<svg width="102" height="69" fill="none" xmlns="http://www.w3.org/2000/svg"><g clip-path="url(#clip0)" fill="#fff"><path fill-rule="evenodd" clip-rule="evenodd" d="M41.39 17.045v1.381c-1.302-.438-3.35.218-2.767 2.683-1.962-.905-2.148-2.652-.828-4.064h3.594zm-3.595-.51c-1.32-1.414-1.134-3.16.828-4.065-.583 2.465 1.465 3.12 2.767 2.682v1.383h-3.595zm-1.433 1.618c-.717-.28-1.385-.731-2.027-1.364.642-.632 1.308-1.085 2.027-1.364.139.51.4.98.763 1.364a3.229 3.229 0 00-.763 1.364zm24.249-1.108v1.381c1.3-.438 3.35.218 2.766 2.683 1.962-.905 2.149-2.652.827-4.064h-3.593zm3.593-.51c1.322-1.414 1.134-3.16-.827-4.065.583 2.465-1.465 3.12-2.766 2.682v1.383h3.593zm1.434 1.618c.717-.28 1.385-.731 2.027-1.364-.642-.632-1.308-1.085-2.027-1.364-.139.51-.4.979-.762 1.364.361.386.623.854.762 1.364zM49.647 31.538c.28.723.725 1.396 1.353 2.042.627-.646 1.077-1.32 1.354-2.042a3.192 3.192 0 01-1.354-.77 3.199 3.199 0 01-1.353.77zm1.1-28.052c-1.403-1.333-3.136-1.146-4.034.834 3.456-.83 3.923 4.3 1.934 6.322.628.599 1.528.537 1.894-.281.155-.351.205-.787.205-1.261V3.486zm.56 13.053l4.036-5.962c1.049-1.547.841-4.88-.11-5.4 1.95-.545 3.83 1.418 3.28 3.076 1.1-.702 2.231-.343 2.64.936-1.433.138-1.81 1.425-1.81 2.7v9.8c0 1.274.373 2.56 1.81 2.7-.409 1.282-1.54 1.642-2.64.94.544 1.657-1.33 3.62-3.28 3.076 1.233-.863 1.09-3.865 1.09-7.164v-8.565L52.5 18.322l-1.194-1.783zm-.054-13.053c1.401-1.331 3.136-1.142 4.035.834-3.456-.83-3.924 4.3-1.935 6.322-.628.599-1.529.537-1.893-.281-.156-.351-.207-.787-.207-1.261V3.486zM51 2.808c-.412-.368-.812-.632-1.353-.767A6.023 6.023 0 0151 0a5.951 5.951 0 011.354 2.042c-.507.14-.972.403-1.354.766zm0 10.401a3.017 3.017 0 01-.735-1.79c.327-.202.583-.5.735-.852.187.38.368.624.735.852A3.022 3.022 0 0151 13.211v-.002zm-5.324-.534v8.564c0 3.3-.144 6.301 1.09 7.164-1.951.544-3.825-1.419-3.281-3.075-1.1.7-2.232.341-2.641-.941 1.434-.14 1.812-1.426 1.812-2.7v-9.8c0-1.274-.378-2.562-1.812-2.7.41-1.283 1.541-1.643 2.64-.936-.543-1.658 1.33-3.62 3.282-3.076-.956.52-1.156 3.852-.111 5.4L52.68 19.5c2.106 3.12 2.192 5.54-.457 8.965.793.636 1.961 1.162 3.066.795-1.079 2.405-3.152 1.92-4.287.573-1.135 1.347-3.209 1.832-4.287-.573 2.042.676 4.451-1.656 5.273-3.348.83-1.714.446-3.29-.986-5.372-1.736 2.527-1.934 4.306-.292 6.485a8.48 8.48 0 01-1.225 1.046c-2.517-3.463-2.021-5.852.316-9.305l-4.126-6.091z"/><path d="M85.975 43.886c-.85-.662-1.628-1.03-2.576-1.347a9.686 9.686 0 00-3.55-.612c-2.041 0-3.257.562-3.962 1.15-.654.562-1.36 1.446-1.36 2.915 0 .956.315 1.568.776 2.033.754.784 2.043 1.2 3.72 1.323l1.896.147c.584.073 1.214.073 1.868.342.389.172 1.021.49 1.021 1.298 0 .417-.17 1.005-.924 1.421-.607.367-1.41.468-2.187.468-1.094 0-1.97-.147-2.869-.514a9.681 9.681 0 01-2.382-1.445l-1.451 2.271c.822.708 1.713 1.174 2.74 1.55a11.54 11.54 0 003.816.612c1.167 0 2.966-.122 4.375-1.274 1.265-1.053 1.532-2.326 1.532-3.208a3.357 3.357 0 00-1.24-2.67c-.85-.759-2.163-1.123-3.525-1.248l-1.726-.147c-1.336-.123-1.799-.221-2.09-.32-.19-.075-.723-.298-.723-.86 0-.367.195-.758.778-1.03.316-.17.827-.319 1.775-.319a8.584 8.584 0 012.65.442c.795.294 1.554.68 2.26 1.15l1.358-2.128zM49.712 55.225h2.576V42.197h-2.576v13.028zM40.61 44.67h4.96v-2.473H33.098v2.473h4.959v10.506h2.552V44.67zM10.793 55.176h2.553v-12.98h-1.97l-4.715 6.637-4.692-6.636H0v12.98h2.529v-8.033l3.83 5.558h.606l3.83-5.558-.002 8.032zm17.55-2.474H21.61l-1.11 2.474h-2.82L24 42.196h1.92l6.37 12.98h-2.82l-1.127-2.474zm-5.626-2.472h4.499l-2.268-4.978-2.23 4.977zm46.44-6.344c-.85-.662-1.629-1.03-2.577-1.347a9.683 9.683 0 00-3.55-.612c-2.041 0-3.256.562-3.962 1.15-.653.562-1.36 1.446-1.36 2.915 0 .956.315 1.568.777 2.033.754.784 2.043 1.2 3.724 1.323l1.896.147c.584.073 1.214.073 1.868.342.39.172 1.021.49 1.021 1.298 0 .417-.17 1.005-.924 1.421-.607.367-1.41.468-2.187.468-1.094 0-1.97-.147-2.869-.514a9.681 9.681 0 01-2.382-1.445l-1.451 2.271c.822.708 1.713 1.174 2.74 1.55 1.228.417 2.518.624 3.816.612 1.167 0 2.966-.122 4.376-1.274 1.263-1.058 1.53-2.33 1.53-3.211a3.355 3.355 0 00-1.24-2.67c-.85-.759-2.163-1.123-3.525-1.248l-1.726-.147c-1.337-.123-1.799-.221-2.09-.32-.194-.072-.73-.292-.73-.857 0-.367.196-.758.778-1.03.316-.17.827-.319 1.775-.319a8.621 8.621 0 012.65.442c.796.294 1.554.68 2.26 1.15l1.361-2.128zm22.001 11.29H102v-2.474h-8.29v-3.187h4.74v-2.47h-4.74V44.67h7.55v-2.473H91.158v12.98zm-22 9.427a.833.833 0 00-.193-.5.642.642 0 00-.473-.155.762.762 0 00-.326.07.552.552 0 00-.224.195.564.564 0 00-.023.554c.048.09.111.173.186.243.12.106.246.202.38.289.203.122.378.287.511.484.101.16.152.348.147.538a1.02 1.02 0 01-.17.602.928.928 0 01-.467.374c-.21.088-.438.131-.666.126-.208 0-.415-.015-.62-.048a6.562 6.562 0 01-.566-.132l.187-.82h.295a.785.785 0 00.193.523.683.683 0 00.504.172.739.739 0 00.526-.172.56.56 0 00.187-.445.755.755 0 00-.054-.297.856.856 0 00-.178-.241 2.448 2.448 0 00-.341-.274 2.73 2.73 0 01-.388-.304 1.12 1.12 0 01-.232-.321.887.887 0 01-.078-.382.945.945 0 01.155-.554.92.92 0 01.442-.352 1.73 1.73 0 01.666-.125c.374-.006.746.05 1.101.164l-.178.788h-.303zm-2.615 2.054c-.173.22-.38.413-.612.57a1.15 1.15 0 01-.644.196c-.27 0-.472-.07-.604-.212-.132-.132-.193-.335-.193-.593a2.32 2.32 0 01.069-.538l.467-1.984h-.56l.038-.187c.123-.015.244-.05.356-.102a.69.69 0 00.217-.187c.07-.092.125-.195.163-.304a7.07 7.07 0 00.194-.54h.52l-.21.936h1.201l-.086.383h-1.194L65.3 65.58c-.082.3-.13.61-.146.92a.563.563 0 00.093.353.387.387 0 00.295.124.611.611 0 00.364-.14c.159-.114.3-.251.42-.406l.217.227zm-3.131.703h-1.19l.48-1.933c.032-.124.055-.265.086-.414.03-.133.045-.27.047-.406a.608.608 0 00-.094-.382.334.334 0 00-.286-.125.674.674 0 00-.35.125c-.14.109-.268.234-.378.375a3.22 3.22 0 00-.341.5 2.295 2.295 0 00-.218.609l-.34 1.655h-.655l.574-2.608c.008-.055.03-.14.047-.257.021-.093.034-.187.038-.281a.328.328 0 00-.038-.172.182.182 0 00-.109-.086 1.215 1.215 0 00-.263-.039l.047-.203.86-.03h.216l-.253.99.047.016c.196-.296.436-.559.713-.78.194-.162.437-.255.69-.265a.73.73 0 01.56.203c.124.14.186.343.186.608 0 .1-.008.199-.023.297-.012.097-.03.194-.054.29l-.318 1.357c-.039.143-.06.29-.062.438-.006.06.008.12.039.172a.214.214 0 00.116.1c.083.03.169.048.256.056l-.03.19zm-6.045-1.966c.205 0 .41-.012.612-.039.154-.017.304-.051.45-.101a1.32 1.32 0 00.318-.149.93.93 0 00.193-.195.519.519 0 00.101-.218.828.828 0 00.031-.242.575.575 0 00-.108-.368.393.393 0 00-.318-.132.881.881 0 00-.52.195c-.182.14-.335.315-.448.516-.136.23-.24.476-.31.733zm2.015 1.21c-.164.18-.346.342-.542.485a1.75 1.75 0 01-1.078.336 1.188 1.188 0 01-.519-.102.935.935 0 01-.356-.265 1.102 1.102 0 01-.209-.407 1.738 1.738 0 01-.07-.507c.003-.297.053-.593.147-.875.089-.305.24-.59.441-.835a1.997 1.997 0 011.586-.785c.31 0 .534.062.689.187.155.125.233.32.233.578 0 .437-.202.757-.605.976-.402.219-1 .32-1.798.32a3.333 3.333 0 00-.038.5c0 .265.047.46.155.577.108.117.27.187.503.187.222.002.44-.052.636-.156a2.49 2.49 0 00.589-.468l.236.255zm-5.645-2.14v.109c.174-.27.396-.505.654-.695.196-.143.431-.222.674-.227a.722.722 0 01.55.204c.123.14.187.343.187.608a2.546 2.546 0 01-.078.586l-.317 1.358c-.035.143-.056.29-.063.437a.34.34 0 00.04.172.214.214 0 00.115.102c.085.029.174.047.264.055l-.039.187h-1.186l.469-1.933c.04-.14.07-.284.093-.428.03-.129.045-.26.047-.392a.64.64 0 00-.1-.39.357.357 0 00-.295-.117.653.653 0 00-.333.125c-.149.103-.28.23-.388.375a3.03 3.03 0 00-.325.5c-.093.19-.161.392-.202.6l-.34 1.664h-.655l.43-1.937c.053-.234.093-.414.107-.523.021-.098.032-.197.032-.297a.593.593 0 00-.1-.39.358.358 0 00-.295-.117.678.678 0 00-.342.125 2.21 2.21 0 00-.387.382 3.488 3.488 0 00-.325.516 2.528 2.528 0 00-.194.586l-.342 1.651h-.654l.574-2.608c.007-.055.03-.14.046-.257.022-.092.035-.186.039-.28a.327.327 0 00-.04-.172c-.014-.04-.053-.063-.108-.086a1.203 1.203 0 00-.263-.04l.047-.203.86-.03h.217l-.248.983.038.016c.186-.297.422-.558.698-.773.197-.162.443-.252.698-.257a.7.7 0 01.55.21c.123.14.187.336.187.601h.003zm-3.746 2.194c-.173.22-.38.413-.613.57a1.15 1.15 0 01-.643.196c-.271 0-.472-.07-.605-.212-.131-.132-.193-.335-.193-.593a2.38 2.38 0 01.074-.537l.467-1.983h-.56l.039-.187a1.2 1.2 0 00.356-.102.692.692 0 00.217-.188c.07-.092.124-.194.163-.304.054-.125.116-.304.193-.539h.52l-.21.936h1.201l-.085.383H49.11l-.364 1.484c-.083.3-.132.61-.148.92a.557.557 0 00.094.353.382.382 0 00.294.124.615.615 0 00.364-.14c.159-.115.3-.251.419-.407l.222.226zm-4.208-2.975h.232l-.264.936.04.016c.194-.283.432-.534.705-.742.205-.15.45-.235.705-.242a1.92 1.92 0 01.467.047l-.187.851h-.386a.995.995 0 00-.093-.304.235.235 0 00-.202-.102.58.58 0 00-.34.156 2.113 2.113 0 00-.396.422c-.12.152-.22.317-.301.492a2.72 2.72 0 00-.155.492l-.341 1.655h-.654l.573-2.608c.045-.176.071-.357.078-.539a.335.335 0 00-.032-.171.222.222 0 00-.116-.086 1.12 1.12 0 00-.256-.04l.047-.203.876-.03zm-2.76 1.358a2.604 2.604 0 00.063-.522.644.644 0 00-.12-.43c-.085-.094-.224-.14-.418-.14a.944.944 0 00-.597.227 1.362 1.362 0 00-.28.31c-.1.15-.182.31-.248.477a4.56 4.56 0 00-.17.593 3.504 3.504 0 00-.054.625c0 .258.03.461.1.586a.39.39 0 00.365.203.732.732 0 00.247-.055 1.19 1.19 0 00.28-.195c.127-.132.243-.273.35-.422a2.564 2.564 0 00.457-1.094l.026-.162zm.334-1.139l.349-.25.24.062-.574 2.585c-.038.156-.061.273-.077.351-.016.08-.015.157-.015.204a.309.309 0 00.085.234.7.7 0 00.333.086l-.03.187h-1.083l.24-.96-.046-.016a3.66 3.66 0 01-.69.789c-.197.155-.44.24-.69.241a.735.735 0 01-.643-.311c-.155-.212-.233-.509-.233-.89.002-.248.03-.494.085-.735a3.11 3.11 0 01.249-.695c.107-.212.243-.409.403-.585a1.97 1.97 0 01.542-.399c.21-.1.441-.15.675-.147a1.71 1.71 0 01.449.054c.153.043.3.108.434.194l-.003.001zm-5.978 2.132a4.96 4.96 0 00-.046.311 1.939 1.939 0 00-.008.204c0 .203.038.343.124.437.086.093.233.133.441.133a.747.747 0 00.35-.078c.116-.053.22-.128.31-.22.106-.101.195-.22.263-.35.085-.152.155-.312.21-.477.062-.182.108-.37.138-.561a3.47 3.47 0 00.055-.54c0-.265-.039-.467-.116-.593a.387.387 0 00-.357-.203.674.674 0 00-.38.133 2.35 2.35 0 00-.41.421 3.039 3.039 0 00-.349.57c-.085.21-.15.427-.194.649l-.03.164zm-.449 2.006a1.776 1.776 0 00-.054.281c0 .063-.008.117-.008.164a.4.4 0 00.039.18.238.238 0 00.116.093c.085.03.173.048.263.056l-.03.187H36.09l.961-4.24c.043-.18.066-.363.07-.547a.335.335 0 00-.03-.171.246.246 0 00-.109-.086 1.306 1.306 0 00-.264-.04l.047-.203.852-.03h.217l-.247.994.038.016c.473-.694.934-1.038 1.395-1.038a.747.747 0 01.643.32c.155.21.225.508.225.89.002.28-.034.558-.108.828a2.987 2.987 0 01-.31.749 2.34 2.34 0 01-.442.554 1.739 1.739 0 01-.52.32c-.18.072-.372.11-.565.11-.297.01-.59-.07-.841-.227l-.172.84zm-2.069-2.995a2.386 2.386 0 00.062-.522.644.644 0 00-.125-.43c-.084-.093-.224-.14-.418-.14a.933.933 0 00-.597.227 1.357 1.357 0 00-.28.311 2.445 2.445 0 00-.241.468 4.27 4.27 0 00-.17.594 3.421 3.421 0 00-.054.624c0 .258.03.461.1.586a.393.393 0 00.364.203.74.74 0 00.248-.055 1.19 1.19 0 00.28-.195c.126-.132.243-.273.35-.422.113-.158.21-.328.286-.507.076-.19.133-.386.17-.586l.025-.156zm.333-1.139l.349-.25.24.062-.569 2.58c-.04.156-.062.273-.077.352a1.095 1.095 0 00-.016.203.305.305 0 00.086.234.696.696 0 00.332.086l-.03.187h-1.084l.24-.96-.047-.016c-.19.295-.422.56-.69.789a1.13 1.13 0 01-.69.241.733.733 0 01-.64-.311c-.154-.212-.232-.509-.232-.89.002-.248.03-.494.085-.735a3.06 3.06 0 01.249-.695c.107-.212.242-.409.402-.585.157-.163.34-.298.543-.399.21-.1.441-.15.674-.148a1.75 1.75 0 01.45.055 1.6 1.6 0 01.43.195l-.005.005z"/></g><defs><clipPath id="clip0"><path fill="#fff" d="M0 0h102v69H0z"/></clipPath></defs></svg>