<svg width="103" height="80" fill="none" xmlns="http://www.w3.org/2000/svg"><g clip-path="url(#clip0)"><path fill-rule="evenodd" clip-rule="evenodd" d="M98.918 68.143v-9.127h1.408v7.822h2.681v1.314l-4.089-.009zm-5.26-2.21h-3.903l-.999 2.203h-1.508l4.55-9.661 4.325 9.661h-1.506l-.958-2.203zm-1.917-4.408l-1.41 3.094h2.767l-1.357-3.094zm-3.284-10.951h-8.082c-.05.002-.098.002-.147 0-.602 0-.736-.114-.963-.32-3.826-4.04-14.1-6.928-26.733-6.928-12.763 0-23.267 2.894-27.18 6.928h-.033a1.032 1.032 0 01-.65.32h-8.01c-.17 0-.427-.087-.427-.32V40.022c0-.223.084-.431.426-.641.342-.21 12.421-7.885 13.677-8.683v-5.404S27.77 23.215 27.77 20.6c0-2.06 1.482-4.157 4.274-5.92V8.645c0-4.906 9.04-8.645 19.98-8.645h1.069c10.94 0 19.973 3.74 19.973 8.645v6.035c2.793 1.763 4.272 3.86 4.272 5.92 0 2.617-2.563 4.694-2.563 4.694v5.404c1.256.798 13.353 8.493 13.675 8.683.322.19.43.411.43.641v10.246c.006.243-.251.32-.423.32v-.014zm-25.75-7.286a59.16 59.16 0 014.809.894v-7.79l-.014-.033a21.017 21.017 0 00-4.795-1.817v8.746zm0-11.537c1.584.39 3.125.94 4.597 1.642v.011a.315.315 0 00.223 0v-4.796l-.013-.033a21.018 21.018 0 00-4.795-1.817l-.012 4.993zm0-5.66a23.05 23.05 0 015.023 1.864v.023a.843.843 0 01.427.73v5.123c0 .568-.527.447-.748.32a.624.624 0 01-.105-.072v.036a21.474 21.474 0 00-4.597-1.707v1.475a23.045 23.045 0 015.023 1.864v.022a.844.844 0 01.427.731v7.84a38.938 38.938 0 015.877 1.918V25.289h-.03c-.14-.333-.815-.527-1.626-.527-.811 0-1.486.194-1.627.527h-.029v19.749l-.748-.213V26.74c-1.43-1.511-3.987-2.78-7.267-3.625v2.977zm-5.235 16.656c1.546.103 3.043.252 4.49.447v-23.13c-.07-.467-1.044-.747-2.235-.747-1.191 0-2.17.28-2.235.747l-.02 22.683zm-9.08-.058a78.586 78.586 0 018.334.016v-9.142a44.986 44.986 0 00-3.734-.156h-.856c-1.282 0-2.529.056-3.731.156l-.014 9.126zm0-9.774a43.173 43.173 0 013.575-.148h1.175c1.229 0 2.422.052 3.575.148v-1.486a44.983 44.983 0 00-3.734-.157v.018h-.856v-.011c-1.282 0-2.529.056-3.731.156l-.005 1.48zm0-2.134a43.173 43.173 0 013.575-.148h1.175c1.229 0 2.422.052 3.575.148V25.77a44.983 44.983 0 00-3.734-.157v.011h-.856v-.01c-1.282 0-2.529.055-3.731.156l-.005 5.01zm0-5.657a43.172 43.172 0 013.575-.148h1.175c1.229 0 2.422.052 3.575.148v-2.997a44.254 44.254 0 00-3.627-.15v.013h-1.068v-.013a43.78 43.78 0 00-3.624.15l-.007 2.997zm-5.236 18.012a72.647 72.647 0 014.487-.414V20.064c-.07-.467-1.044-.747-2.235-.747-1.19 0-2.167.28-2.234.747l-.018 23.072zm-5.557.945a59.662 59.662 0 014.809-.847v-8.692a20.996 20.996 0 00-4.793 1.817l-.016.034v7.688zm-2.458.604a32.65 32.65 0 011.817-.447V36.5a.84.84 0 01.429-.73v-.023a23.069 23.069 0 015.02-1.864v-1.475a21.412 21.412 0 00-4.593 1.707v-.036a.747.747 0 01-.108.072c-.223.118-.748.248-.748-.32V28.71a.84.84 0 01.429-.731v-.023a23.074 23.074 0 015.02-1.863v-2.977c-3.28.844-5.836 2.114-7.266 3.625v17.945zm7.267-12.939v-4.995a21 21 0 00-4.793 1.817.243.243 0 01-.016.033v4.803a.32.32 0 00.224 0v-.01a23.897 23.897 0 014.585-1.643v-.005zm-7.311-6.59l.044.026v.52c1.667-1.392 4.186-2.547 7.267-3.334v-2.304a.436.436 0 010-.054c0-.796 1.34-1.44 2.992-1.44 1.65 0 2.992.644 2.992 1.44a.436.436 0 010 .054v1.323c1.155-.096 2.35-.15 3.575-.15h1.175c1.229 0 2.422.054 3.575.15V20.01c0-.796 1.34-1.44 2.992-1.44 1.651 0 2.99.644 2.99 1.44v2.34c3.083.787 5.599 1.942 7.266 3.335v-.508l.044-.026c.085-.64 1.118-1.147 2.378-1.147.55-.01 1.096.1 1.6.32-.588-3.523-8.34-7.85-21.437-7.897-13.098.047-20.852 4.374-21.44 7.897a3.84 3.84 0 011.6-.32c1.272.009 2.304.516 2.387 1.155v-.004zm-4.022 2.055v18.83a36.468 36.468 0 013.313-1.117V25.289h-.029c-.14-.333-.815-.527-1.629-.527-.813 0-1.485.194-1.626.527h-.03v1.922zm0-4.716c2.545-3.931 11.266-6.745 21.247-6.808h.466c9.982.063 18.705 2.877 21.248 6.808v-.831c0-3.587-7.843-7.957-21.475-8.001-13.63.044-21.477 4.414-21.477 8.001l-.01.831zm-6.531 27.453c1.358-1.341 3.331-2.568 5.791-3.612v-4.318l-12.573 7.93h6.782zm-7.671-.176l13.462-8.547v-4.443L16.873 45.29v4.482zm0-9.857v4.629l13.462-8.55v-4.56l-13.462 8.481zm55.451-25.72V8.538c0-3.608-7.217-7.792-19.338-7.792h-.856c-12.122 0-19.34 4.184-19.34 7.792v5.695c.437-.246.895-.483 1.39-.713v-3.487c0-4.694 8.156-6.897 10.151-7.152.564-.07.854-.103.854.427v7.328c.626-.073 1.27-.136 1.924-.19V2.988c0-.4.411-.608.856-.639.444-.031 1.888-.203 4.469-.224h.243c2.585 0 4.042.182 4.469.224.427.042.853.24.853.64v7.457c.657.054 1.299.117 1.924.19V3.308c0-.53.29-.496.856-.427 1.993.255 10.149 2.458 10.149 7.152v3.487c.49.223.954.467 1.39.713l.006-.038zm-27.89-7.101V3.63c-6.786 1.204-9.51 4.396-9.51 6.081v3.476a30.838 30.838 0 014.604-1.527 1.741 1.741 0 010-.185c-.005-1.775 1.914-3.355 4.906-4.381zm-4.267 4.41a43.99 43.99 0 014.27-.774V7.74c-2.577.905-4.217 2.24-4.27 3.764zm11.896-5.628h.998a28.52 28.52 0 014.199.382V3.095a33.646 33.646 0 00-4.576-.223h-.253a33.605 33.605 0 00-4.573.223v3.163a28.486 28.486 0 014.205-.382zm-4.201 1.012v3.503a62.13 62.13 0 014.272-.146h.856c1.486 0 2.905.052 4.274.146V6.888a29.447 29.447 0 00-9.402 0zm12.825.206c2.992 1.026 4.916 2.606 4.916 4.378v.186c1.566.39 3.1.9 4.585 1.529V9.71c0-1.685-2.724-4.877-9.51-6.081.003 1.117.005 2.342.005 3.464h.005zm0 3.636a43.99 43.99 0 014.27.774c-.05-1.525-1.693-2.859-4.265-3.764a420.11 420.11 0 00-.013 2.988l.008.002zm15.92 9.868c0-5.188-10.365-9.61-23.72-9.61h-.641c-13.355 0-23.719 4.418-23.719 9.61 0 2.085 1.817 3.63 1.817 3.63v-2.459c0-5.14 10.133-8.8 22.047-8.857h.353c11.912.058 22.047 3.728 22.047 8.857v2.459s1.808-1.545 1.808-3.63h.009zm-2.164 25.834c2.299 1.02 4.142 2.202 5.427 3.5.194-.015.39-.01.583.016h6.913l-12.584-7.93v4.515l-.34-.1zm13.81-6.517l-13.462-8.493v4.562l13.463 8.549v-4.618zm0 5.364L74.791 36.77v4.444l13.463 8.546v-4.48zM17.45 61.697a2.506 2.506 0 01-2.03 2.546l2.848 3.9h-1.68l-2.617-3.737h-.245v3.737h-1.397v-9.127h1.629c1.117 0 1.823.136 2.41.531a2.543 2.543 0 011.082 2.15zm-3.244-1.396h-.48v2.905h.446c.385 0 1.947-.04 1.947-1.49-.01-1.293-1.23-1.415-1.913-1.415zM4.47 68.32c-1.328 0-2.273-.382-3.109-1.245a5.047 5.047 0 01-.02-6.857 4.866 4.866 0 013.437-1.368 4.963 4.963 0 012.373.575 4.163 4.163 0 011.479 1.367l-1.117.78a3.688 3.688 0 00-1.117-1.041 3.074 3.074 0 00-1.618-.396 3.303 3.303 0 00-2.411.943 3.706 3.706 0 00-.972 2.56 3.664 3.664 0 00.945 2.476 2.975 2.975 0 002.288.918 2.74 2.74 0 002.04-.809 2.43 2.43 0 00.767-1.546h-2.27v-1.285h3.773v.082c0 1.565-.467 2.832-1.356 3.695-.952.905-2.076 1.15-3.112 1.15zm24.504-.177h-1.512l-.959-2.21H22.6l-1 2.203h-1.505l4.547-9.661 4.332 9.668zm-5.794-3.518h2.762l-1.363-3.093-1.399 3.093zm13.997-18.103c.293-.03.427.111.427.32v3.712a29.07 29.07 0 011.497-.387v-3.634c0-.203.183-.447.641-.534a.338.338 0 01.08 0 71.905 71.905 0 0111.86-1.057h.025a.433.433 0 01.427.426v3.63h1.609v-3.533c0-.224.199-.535.427-.535a.51.51 0 01.14.02 70.39 70.39 0 0111.396 1.134v.047c.378.098.534.322.534.507v3.616c.524.125 1.023.261 1.497.407v-3.596c0-.295.355-.496.641-.427.117.026.23.068.335.125a22.445 22.445 0 016.087 2.713 37.122 37.122 0 00-6.314-2.071v3.5c1.122.372 2.198.875 3.204 1.497-2.851-1.182-9.161-2.494-17.63-2.653 0 0-.32 0-1.101-.013h-.928c-.757 0-1.07.013-1.07.013-8.457.159-14.776 1.47-17.627 2.653a15.575 15.575 0 013.526-1.607v-3.464a37.587 37.587 0 00-6.639 2.145c1.153-.704 2.972-1.868 6.726-2.905l.23-.05zm17.308 2.474c4.469.083 8.104.447 11.007 1.08V46.78a71.884 71.884 0 00-11.007-1.077v3.292zm-14.638 1.012c3.034-.625 6.837-.976 11.54-1.023v-3.297h-.428c-3.725.059-7.44.403-11.112 1.03v3.29zm-1.45 9h1.396v9.696l-6.63-6.928v6.378h-1.396V58.41l6.63 6.928v-6.33zm-2 16.947a1.118 1.118 0 01.478.947 1.105 1.105 0 01-.894 1.118l1.258 1.72h-.75l-1.153-1.649h-.11v1.65h-.616v-4.023h.72c.488.006.803.067 1.063.243l.004-.006zm-1.166 1.611h.194c.168 0 .858-.018.858-.66 0-.567-.538-.62-.84-.62h-.212v1.28zm5.559-1.27h-1.607v1.035h1.565v.58h-1.565v1.266h1.607v.582h-2.223v-4.023h2.223v.56zm2.06 2.718a.632.632 0 00.525.242.648.648 0 00.67-.67c0-.41-.315-.58-.58-.687l-.387-.163c-.333-.139-.822-.418-.822-1.022 0-.543.424-1.061 1.177-1.061.294-.012.582.084.81.27.125.116.23.253.307.405l-.495.29a.634.634 0 00-.181-.252.644.644 0 00-.436-.145.5.5 0 00-.568.482c0 .121.043.331.436.49l.404.16c.742.305.948.727.948 1.185a1.242 1.242 0 01-1.298 1.292 1.173 1.173 0 01-.948-.404 1.299 1.299 0 01-.34-.785l.61-.134a.874.874 0 00.164.514l.004-.007zm.78-20.005h1.917c1.274 0 2.382.136 3.396.894a4.517 4.517 0 011.754 3.68 4.353 4.353 0 01-1.84 3.69c-1.069.754-2.068.877-3.352.877h-1.89l.015-9.141zm1.396 7.822h.604c.683 0 1.629-.056 2.424-.643a3.213 3.213 0 001.245-2.6 3.252 3.252 0 00-1.231-2.628c-.796-.575-1.768-.63-2.438-.63h-.604v6.501zm1.745 12.923h-.616v-4.023h.617v4.023zm4.036-3.634a1.992 1.992 0 01.773 1.623 1.923 1.923 0 01-.809 1.625 2.32 2.32 0 01-1.475.386h-.833v-4.023h.845c.558-.007 1.047.054 1.494.387l.005.002zm-1.727 3.053h.266c.375.025.748-.072 1.063-.277a1.492 1.492 0 000-2.307 1.8 1.8 0 00-1.075-.279h-.266l.012 2.863zm6.223-2.868h-1.607v1.026h1.564v.58h-1.564v1.266h1.607v.582h-2.224v-4.023h2.224v.57zm4.446-.578h.617v4.275L57.44 76.94v2.814h-.617v-4.3l2.925 3.06v-2.787zm.581-7.584h-1.396v-9.127h1.62c1.117 0 1.82.136 2.41.531a2.548 2.548 0 011.082 2.15 2.506 2.506 0 01-2.027 2.546l2.85 3.9h-1.686l-2.616-3.737h-.237v3.737zm.447-4.941c.384 0 1.944-.04 1.944-1.491 0-1.288-1.218-1.41-1.904-1.41h-.487v2.905l.447-.004zm3.202 12.45c.38-.012.754.089 1.077.29v.719a1.564 1.564 0 00-1.095-.447c-.876 0-1.468.646-1.468 1.533a1.455 1.455 0 001.475 1.509 1.608 1.608 0 001.088-.465v.73a2.21 2.21 0 01-1.106.302 2.01 2.01 0 01-1.426-.556 1.97 1.97 0 01-.648-1.52 2.102 2.102 0 01.648-1.576 1.989 1.989 0 011.437-.518h.018zm4.786.651h-1.607v1.028h1.564v.58h-1.564v1.266h1.607v.582h-2.223v-4.023h2.223v.567zm3.45-17.453c2.737 0 4.752 2.052 4.752 4.736 0 2.684-2.01 4.734-4.752 4.734s-4.753-2.052-4.753-4.734 1.996-4.736 4.735-4.736h.018zm0 8.185c1.957 0 3.352-1.424 3.352-3.449s-1.397-3.449-3.352-3.449c-1.955 0-3.352 1.422-3.352 3.45 0 2.026 1.374 3.448 3.334 3.448h.018zm-1.39 11.986a.63.63 0 00.525.241.648.648 0 00.67-.67c0-.41-.315-.579-.58-.686l-.387-.163c-.333-.139-.822-.418-.822-1.022 0-.543.424-1.061 1.18-1.061a1.2 1.2 0 01.808.27c.127.115.231.252.309.405l-.496.29a.633.633 0 00-.181-.252.644.644 0 00-.436-.146.5.5 0 00-.568.483c0 .12.043.33.436.49l.404.16c.745.304.948.727.948 1.185a1.238 1.238 0 01-1.298 1.292 1.174 1.174 0 01-.948-.405 1.3 1.3 0 01-.34-.784l.61-.134a.874.874 0 00.148.507h.018zm11.85-16.354l2.109-3.651h1.588L83.374 64.2v3.942h-1.4V64.2l-2.998-5.185h1.589l2.11 3.651z" fill="#fff"/></g><defs><clipPath id="clip0"><path fill="#fff" d="M0 0h103v80H0z"/></clipPath></defs></svg>