<svg width="227" height="48" fill="none" xmlns="http://www.w3.org/2000/svg"><path fill-rule="evenodd" clip-rule="evenodd" d="M21.5.008L0 12.006v23.99l21.5 11.998L43 35.996v-23.99L21.5.007zM40.683 27.14L14.716 41.627l-4.468-2.494 30.435-16.979v4.986zm0-7.568L7.93 37.843l-4.467-2.492 37.219-20.763v4.984zm-12.399-.645L21.5 15.142l-7.931 4.43v7.568l-4.467 2.492V17.08L21.5 10.159l11.252 6.264-4.468 2.504zm-2.317 1.29l-10.08 5.628v-4.983l5.613-3.126 4.467 2.48zM21.5 2.583l18.036 10.06-4.467 2.492L21.5 7.57 6.784 15.78v15.135l-4.467 2.492V13.289L21.5 2.583zm0 42.82l-4.467-2.49 23.65-13.2V34.7L21.5 45.402z" fill="#fff"/><g clip-path="url(#clip0)"><path fill-rule="evenodd" clip-rule="evenodd" d="M69.21 19.883l-6.22 12.87h2.448L67 29.5l3.487-7.308 2.54 5.311.94 2 1.554 3.255h2.537l-6.22-12.869h-2.63l.001-.006zm82.17 0h-2.63l-6.22 12.87h2.448l1.534-3.2h7.025l1.526 3.2h2.537l-6.22-12.87zm1.118 7.47h-4.931l2.462-5.165 2.469 5.165zm72.317-7.47v4.086l-7.686 6.215v-10.3h-2.184v12.868h2.117l7.753-6.269v6.27H227v-12.87h-2.185zm-16.787 12.87h2.185v-12.87h-2.185v12.87zm-71.545-6.936a2.681 2.681 0 001.886-2.659 3.435 3.435 0 00-.137-.982 2.904 2.904 0 00-.519-.957 3.402 3.402 0 00-.973-.834 5.588 5.588 0 00-1.564-.564 10.244 10.244 0 00-2.228-.219 9.732 9.732 0 00-2.3.25 5.73 5.73 0 00-1.682.667 4.171 4.171 0 00-1.095.987c-.275.35-.485.748-.619 1.172a4.247 4.247 0 00-.176 1.085v.107h2.262l-.006-.108c-.006-.15.018-.3.07-.44.083-.206.209-.392.37-.546.206-.2.443-.366.7-.493.345-.165.71-.283 1.085-.352a7.531 7.531 0 011.481-.134c.43-.005.859.029 1.282.1.307.05.606.14.888.27.201.097.384.227.541.385.125.122.223.27.287.431.053.15.079.306.078.464a.935.935 0 01-.444.77 3.123 3.123 0 01-1.193.5 7.59 7.59 0 01-1.615.16h-1.768v2.158h1.768c.533-.003 1.065.023 1.594.08.419.044.831.135 1.23.268.313.095.593.275.809.52.181.226.277.51.27.8a1.421 1.421 0 01-.1.506c-.085.204-.206.39-.358.551a2.51 2.51 0 01-.66.512 4.09 4.09 0 01-1.076.374 7.111 7.111 0 01-1.535.151 7.599 7.599 0 01-1.588-.152 4.108 4.108 0 01-1.131-.39 2.644 2.644 0 01-.7-.543 1.63 1.63 0 01-.352-.584 1.223 1.223 0 01-.053-.3l-.006-.1h-2.296v.108c.015.361.077.719.186 1.063.145.43.366.828.653 1.177.32.394.705.729 1.139.991.537.312 1.119.54 1.725.675a9.88 9.88 0 002.33.254c.835.01 1.668-.077 2.482-.259a6.003 6.003 0 001.754-.67 3.972 3.972 0 001.092-.986c.263-.337.462-.719.587-1.128a4.21 4.21 0 00.157-1.149 2.808 2.808 0 00-.78-2 3.802 3.802 0 00-1.752-.987zm-49.85-.71l-3.755-5.489h-2.894l5.42 7.461-3.49 5.673h2.438l8.178-13.134h-2.44l-3.457 5.488zm137.031-8.339l-1.82-.782-1.908 4.683 1.353.553 2.375-4.454zm-119.933 8.4h-3.874a1.79 1.79 0 01-1.8-1.778V19.6h-2.315v3.791a4.1 4.1 0 004.112 4.07h3.874v5.29h2.28V19.617h-2.28v5.553l.003-.003zm83.5-1h-7.686v-4.285h-2.185v12.87h2.185v-6.385h7.686v6.384h2.185V19.883h-2.185v4.292-.007zm-19.136-4.31h-5.957l-.1.018h-.264v12.876h2.185v-3.738h4.14a4.575 4.575 0 001.775-8.83 4.58 4.58 0 00-1.781-.32l.002-.007zm2.308 4.574a2.299 2.299 0 01-2.308 2.285h-4.14v-4.563h4.14a2.3 2.3 0 012.305 2.285l.003-.007zm35.223 3.743A4.6 4.6 0 00201 23.606h-4.271v-3.723h-2.185v12.87H201a4.6 4.6 0 004.624-4.57l.002-.008zm-2.316 0a2.31 2.31 0 01-.68 1.624 2.304 2.304 0 01-1.63.667h-4.271V25.9H201a2.297 2.297 0 012.308 2.282l.002-.007zm-80.874 2.377h-7.653V27.05h6.434v-2.2h-6.434v-2.765h7.653v-2.2H112.6v12.867h9.838V30.56l-.002-.007z" fill="#fff"/></g><defs><clipPath id="clip0"><path fill="#fff" transform="translate(63 16)" d="M0 0h164v17H0z"/></clipPath></defs></svg>