<svg width="28" height="28" fill="none" xmlns="http://www.w3.org/2000/svg"><path d="M28 0H0v28h28V0z" fill="#00077B"/><path fill-rule="evenodd" clip-rule="evenodd" d="M1.915 18.919h6.25l-.854 1.5h-1.64v4.945H4.104v-4.945h-2.19v-1.5zm14.911 1.5c-.178 0-.305.111-.305.3v2.854c0 .189.127.291.305.291h3.24v1.5h-3.24c-1.134 0-1.87-.694-1.87-1.791v-2.854c0-1.089.736-1.8 1.87-1.8h3.628l-.854 1.5h-2.774zm-4.394 3.491H10.17a.545.545 0 01-.558-.566c0-.335.235-.575.558-.575h2.26v1.142zm-.296-4.991H9.209l-.855 1.5h3.782c.186 0 .296.111.296.3v.685H9.979c-1.125 0-1.954.84-1.954 1.98 0 1.14.829 1.98 1.954 1.98h4.018v-4.645c0-1.089-.736-1.8-1.861-1.8zm10.496 1.5c-.178 0-.305.111-.305.3v2.854c0 .189.127.291.305.291h3.24v1.5h-3.24c-1.133 0-1.87-.694-1.87-1.791v-2.854c0-1.089.737-1.8 1.87-1.8h3.629l-.855 1.5h-2.774z" fill="#fff"/></svg>