<svg width="896" height="376" fill="none" xmlns="http://www.w3.org/2000/svg"><g opacity=".4" fill-rule="evenodd" clip-rule="evenodd" fill="#1C2A4D"><path d="M884.081 331.399v44.599h-5.961v-44.719c1.99.046 3.976.086 5.961.12zm-33.774-1.121v45.72h-5.96v-46.027c1.988.108 3.975.21 5.96.307zm-33.774-2.163v47.883h-5.96v-48.37c1.988.168 3.975.33 5.96.487zm-33.774-3.165v51.048h-5.96V324.29c1.988.225 3.975.445 5.96.66zm-33.774-4.134v55.182h-5.96v-56.009c1.988.281 3.975.557 5.96.827zm-33.774-5.072v60.254h-5.96v-61.245c1.988.335 3.975.666 5.96.991zm-33.773-5.988v66.242h-5.961v-67.392c1.988.389 3.975.772 5.961 1.15zm-33.774-6.882v73.124h-5.96v-74.43c1.987.44 3.974.875 5.96 1.306zm-33.774-7.762v80.886h-5.96v-82.346c1.987.492 3.974.978 5.96 1.46zm-33.774-8.628v89.514h-5.96v-91.126c1.987.542 3.974 1.079 5.96 1.612zm-33.774-9.485v98.999h-5.96V275.236c1.987.592 3.974 1.18 5.96 1.763zm-33.774-10.337v109.336h-5.96V264.75c1.987.642 3.974 1.279 5.96 1.912zm-33.773-11.184v120.52h-5.961V253.416c1.987.692 3.974 1.379 5.961 2.062zm-33.774-12.033v132.553h-5.96V241.234c1.986.741 3.973 1.479 5.96 2.211zm-33.774-12.882v145.435h-5.96V228.201c1.986.792 3.973 1.579 5.96 2.362zm-33.774-13.738v159.173h-5.96V214.311c1.986.842 3.973 1.68 5.96 2.514zm-33.774-14.602v173.775h-5.96V199.555c1.986.894 3.973 1.783 5.96 2.668zm-33.774-15.478v189.253h-5.96V183.922c1.986.946 3.973 1.887 5.96 2.823zm-33.774-16.367v205.62h-5.96V167.396c1.986.999 3.973 1.993 5.96 2.982zm-33.773-17.274v222.894h-5.96V149.96c1.985 1.052 3.972 2.1 5.96 3.144zm-33.774-18.203v241.097h-5.96V131.59c1.985 1.108 3.972 2.212 5.96 3.311zm-33.774-19.158v260.255h-5.96V112.262a1710.33 1710.33 0 005.96 3.481zm-33.774-20.14v280.395h-5.96V91.944c1.985 1.224 3.972 2.444 5.96 3.66zm-33.774-21.158v301.553h-5.96V70.603a1823.93 1823.93 0 005.96 3.842zM73.509 52.231v323.767h-5.96v-327.8a1831 1831 0 005.96 4.033zM39.734 28.914v347.084h-5.96V24.681c1.984 1.416 3.971 2.827 5.96 4.233zM5.96 4.443v371.555H0V0c1.984 1.486 3.97 2.966 5.96 4.443z"/><path d="M890.041 347.433l-.001 28.563h-11.92v-28.6c3.978.024 7.951.037 11.921.037zm-33.774-.295v28.858h-11.921v-29.102c3.977.094 7.951.175 11.921.244zm-33.774-.877v29.735h-11.92v-30.181c3.976.161 7.949.31 11.92.446zm-33.774-1.448v31.183h-11.92v-31.829c3.975.228 7.949.443 11.92.646zm-33.774-2.011v33.194h-11.92v-34.038c3.975.293 7.948.574 11.92.844zm-33.774-2.57v35.764h-11.92v-36.803c3.974.358 7.948.704 11.92 1.039zm-33.774-3.124v38.888h-11.92v-40.122c3.974.423 7.947.834 11.92 1.234zm-33.773-3.676v42.564h-11.921v-43.994c3.973.488 7.947.965 11.921 1.43zm-33.774-4.229v46.793h-11.92v-48.418c3.972.553 7.945 1.094 11.92 1.625zm-33.774-4.784v51.577h-11.92v-53.399c3.971.618 7.945 1.226 11.92 1.822zm-33.774-5.344v56.921h-11.92v-58.941c3.971.685 7.944 1.358 11.92 2.02zm-33.774-5.909v62.83h-11.92v-65.052c3.97.752 7.944 1.493 11.92 2.222zm-33.774-6.482v69.312h-11.92v-71.739c3.97.82 7.943 1.629 11.92 2.427zm-33.773-7.067v76.379H439.06V296.98c3.969.891 7.943 1.769 11.921 2.637zm-33.774-7.665v84.044h-11.92v-86.895c3.968.962 7.941 1.912 11.92 2.851zm-33.774-8.279v92.323h-11.92v-95.395c3.967 1.036 7.941 2.06 11.92 3.072zm-33.774-8.911v101.234h-11.92V271.462a1917.11 1917.11 0 0011.92 3.3zm-33.774-9.565v110.799h-11.92V261.66a1889.33 1889.33 0 0011.92 3.537zm-33.774-10.246v121.045h-11.92v-124.83c3.965 1.274 7.939 2.535 11.92 3.785zm-33.773-10.958v132.003h-11.921V239.95c3.964 1.36 7.938 2.708 11.921 4.043zm-33.774-11.703v143.706h-11.92V227.973c3.962 1.452 7.936 2.89 11.92 4.317zm-33.774-12.492v156.198h-11.92V215.192c3.961 1.548 7.935 3.084 11.92 4.606zm-33.774-13.329v169.527h-11.92V201.555c3.96 1.652 7.934 3.29 11.92 4.914zm-33.774-14.221v183.748h-11.92V187.002a1515.32 1515.32 0 0011.92 5.246zm-33.774-15.184v198.932h-11.92V171.461c3.957 1.882 7.931 3.75 11.92 5.603zm-33.773-16.225v215.157h-11.92v-221.15c3.955 2.012 7.928 4.01 11.92 5.993zM11.92 143.474v232.522H0V137.052c3.953 2.156 7.926 4.297 11.92 6.422z"/><path d="M896 367.261V376h-17.88v-8.766c4.649.022 9.285.033 13.906.033 1.325 0 2.65-.002 3.974-.006zm-33.774-.143V376h-17.88v-9.111c5.981.094 11.942.171 17.88.229zm-33.774-.52V376h-17.88v-9.825c5.979.158 11.939.3 17.88.423zm-33.774-.884V376h-17.88v-10.9c5.977.222 11.937.426 17.88.614zm-33.773-1.242V376h-17.881v-12.329c5.975.284 11.935.551 17.881.801zm-33.774-1.594V376h-17.88v-14.107c5.972.345 11.933.674 17.88.985zm-33.774-1.942V376h-17.88v-16.232c5.971.406 11.931.796 17.88 1.168zm-33.774-2.287V376h-17.88v-18.702c5.969.467 11.929.917 17.88 1.351zm-33.774-2.633V376h-17.88v-21.518c5.967.528 11.928 1.039 17.88 1.534zm-33.774-2.979V376h-17.88v-24.681c5.966.59 11.926 1.162 17.88 1.718zm-33.773-3.327V376h-17.881v-28.193c5.964.651 11.925 1.286 17.881 1.903zm-33.774-3.678V376h-17.88v-32.059c5.962.714 11.922 1.411 17.88 2.091zm-33.774-4.035V376h-17.88v-36.285c5.961.778 11.921 1.539 17.88 2.282zm-33.774-4.396V376h-17.88v-40.876c5.959.843 11.92 1.668 17.88 2.477zm-33.774-4.767V376h-17.88v-45.842c5.958.909 11.918 1.801 17.88 2.676zm-33.774-5.146V376h-17.88v-51.193c5.956.978 11.917 1.939 17.88 2.881zm-33.773-5.535V376h-17.881v-56.939a2863.41 2863.41 0 0017.881 3.092zm-33.774-5.936V376h-17.88v-63.094a2890.661 2890.661 0 0017.88 3.311zm-33.774-6.353V376h-17.88v-69.673a2716.051 2716.051 0 0017.88 3.537zm-33.774-6.785V376h-17.88v-76.694a2619.34 2619.34 0 0017.88 3.773zm-33.774-7.235V376h-17.88v-84.175a2584.602 2584.602 0 0017.88 4.019zm-33.773-7.706V376h-17.881v-92.141a2522.034 2522.034 0 0017.881 4.279zm-33.774-8.202V376h-17.881V275.383a2370.481 2370.481 0 0017.881 4.553zm-33.774-8.726V376h-17.88V266.369a2223.652 2223.652 0 0017.88 4.841zm-33.774-9.279V376h-17.88V256.781c5.939 1.739 11.9 3.455 17.88 5.15zm-33.774-9.871V376h-17.88V246.582a2017.536 2017.536 0 0017.88 5.478zM17.88 241.558V376H0V235.725a1931.393 1931.393 0 0017.88 5.833z"/></g></svg>