<svg width="98" height="38" fill="none" xmlns="http://www.w3.org/2000/svg"><path fill-rule="evenodd" clip-rule="evenodd" d="M.475 34.344l.466-.165v-2.074l.475-.286v5.762H0v-1.406h.475v-1.831zm2.296-.868l.466-.19V30.62l.475-.338v7.323H2.296v-1.57l.475-.044v-2.516zm2.296-1.006l.466-.226v-3.401l.51-.408v9.171h-1.45v-1.813l.474-.07V32.47zm2.296-1.163l.466-.26v-4.339l.475-.468v11.366H6.906v-2.178l.474-.086-.017-4.035zm2.296-1.362l.466-.304v-5.345l.475-.547v13.857H9.184v-2.672l.475-.121v-4.868zm2.296-1.58l.475-.355v-6.534l.466-.642v16.772H11.49v-3.314l.466-.156v-5.77zm2.296-1.856l.475-.417v-7.983l.466-.755v20.252h-1.38V33.46l.465-.2-.026-6.75zm2.296-2.213l.475-.512v-9.727c.156-.321.32-.633.466-.955v24.504h-1.407V32.4l.466-.243v-7.861zm2.297-2.785l.474-.677V8.824c.164-.433.32-.867.466-1.31v30.092h-1.406v-6.525l.466-.312V21.51zm3.237 16.104h-1.364V29.39l.466-.399V17.65c.172-.357.328-.704.475-1.06V0h.466l-.043 37.615z" fill="#A5A5A5"/><path d="M46.59 24.413V13.839h5.878V15.3H48.3v2.636h4.17v1.502H48.3v3.378h4.17v1.597h-5.88zm10.063 0V13.839h2.3c2.58 0 5.008.088 6.166 2.78a6.28 6.28 0 01.447 2.499 6.236 6.236 0 01-.471 2.484c-1.07 2.515-3.227 2.811-5.679 2.811h-2.763zm1.725-1.597h1.438c1.677 0 3.027-.216 3.705-1.957a4.792 4.792 0 00.304-1.765 4.745 4.745 0 00-.304-1.765c-.702-1.813-2.164-1.965-3.905-1.965h-1.238v7.452zm13.976 1.956L67.65 13.831h1.781l2.396 5.59a8.87 8.87 0 01.567 1.686 9.727 9.727 0 01.567-1.685l2.396-5.591h1.765l-4.768 10.941zm7.643-.359V13.839h5.879V15.3h-4.17v2.636h4.17v1.502h-4.17v3.378h4.17v1.597h-5.879zm8.857 0l3.41-5.51-3.018-5.024h1.797l1.517 2.548c.208.335.383.694.56 1.038.183-.344.374-.687.582-1.023l1.597-2.595h1.757l-3.074 4.976 3.306 5.59h-1.885l-1.765-2.987c-.191-.343-.375-.71-.559-1.062-.175.351-.367.703-.575 1.038l-1.845 3.011h-1.805zm-56.312 0V13.432l6.669 6.429c.403.405.785.831 1.142 1.278v-7.3h1.597V24.78l-6.82-6.549a8.421 8.421 0 01-1.015-1.182v7.364h-1.573zm62.973 6.24v-.6h1.773a2.277 2.277 0 01-.639 1.734 1.995 1.995 0 01-1.462.543 1.933 1.933 0 01-1.461-.583 2.197 2.197 0 01-.639-1.598 2.445 2.445 0 01.168-.902c.106-.259.26-.494.455-.695.203-.2.445-.358.71-.463a2.476 2.476 0 012.03.088c.283.152.522.375.694.647l-.519.367a1.597 1.597 0 00-.527-.487 1.445 1.445 0 00-.799-.192 1.598 1.598 0 00-1.142.447 1.61 1.61 0 00-.335.536c-.08.211-.121.436-.12.662-.01.433.15.852.447 1.166a1.415 1.415 0 001.078.432 1.3 1.3 0 00.959-.384c.202-.191.33-.45.36-.726l-1.031.008zm-9.432 1.597h-.655v-4.544l3.123 3.258v-2.97h.655v4.551l-3.123-3.258v2.963zm-5.399-4.289h.663v4.289h-.663v-4.29zm-3.626.615h-.99v3.674h-.655v-3.674h-.99v-.615h2.635v.615zm-7.579-.615h.655v3.674h1.262v.615h-1.917v-4.29zm-7.276 0h.663v2.588c-.019.252.028.506.136.735.08.128.19.235.32.311a.91.91 0 00.958 0 .997.997 0 00.32-.311c.102-.231.149-.483.135-.735v-2.556h.655v2.756c.016.41-.127.81-.4 1.118a1.523 1.523 0 01-1.19.495 1.598 1.598 0 01-1.197-.495 1.598 1.598 0 01-.4-1.119v-2.787zm-3.993.647l-.527.304a.623.623 0 00-.191-.264.727.727 0 00-.464-.16.606.606 0 00-.447.152.479.479 0 00-.16.367c0 .216.152.392.464.52l.43.175a1.362 1.362 0 11-.375 2.7 1.278 1.278 0 01-1.006-.424 1.43 1.43 0 01-.367-.838l.655-.144a.895.895 0 00.175.551.704.704 0 00.567.256.68.68 0 00.504-.2.696.696 0 00.207-.52.591.591 0 00-.175-.454 1.43 1.43 0 00-.448-.28l-.415-.175a1.175 1.175 0 01-.87-1.087 1.102 1.102 0 01.335-.798 1.244 1.244 0 01.918-.328c.313-.013.62.09.863.288.133.108.244.24.327.391v-.032zm-9.584 3.642h-.63v-4.544l3.122 3.258v-2.97h.655v4.551l-3.155-3.258.008 2.963zm-7.906-.974a1.526 1.526 0 001.134.455 1.54 1.54 0 001.142-.455 1.765 1.765 0 000-2.332 1.544 1.544 0 00-1.142-.456 1.526 1.526 0 00-1.134.456 1.766 1.766 0 000 2.332zm-.463-2.756a2.3 2.3 0 11-.64 1.598 2.164 2.164 0 01.632-1.566l.008-.032zm-4.297-.327v.798a1.7 1.7 0 00-1.166-.479 1.486 1.486 0 00-1.134.463 1.637 1.637 0 00-.431 1.174 1.55 1.55 0 00.447 1.143 1.487 1.487 0 001.126.463 1.653 1.653 0 001.158-.495v.798a2.245 2.245 0 01-1.182.32 2.19 2.19 0 01-2.212-2.204 2.187 2.187 0 01.695-1.678 2.148 2.148 0 011.549-.559c.4-.017.797.083 1.142.288l.008-.032z" fill="#A5A5A5"/></svg>