<svg width="141" height="55" fill="none" xmlns="http://www.w3.org/2000/svg"><path fill-rule="evenodd" clip-rule="evenodd" d="M.687 49.676l.674-.238v-3l.686-.414v8.333H0v-2.033h.687v-2.648zm3.32-1.255l.674-.276v-3.853l.687-.489v10.592H3.321v-2.272l.686-.063v-3.639zm3.321-1.456l.674-.326v-4.92l.737-.589v13.265H6.64v-2.623l.687-.1v-4.706zm3.32-1.681l.675-.377v-6.274l.687-.678v16.44H9.987v-3.15l.687-.126-.025-5.835zm3.322-1.97l.674-.44v-7.73l.686-.79v20.04h-2.047V50.53l.687-.175v-7.04zm3.32-2.284l.687-.515v-9.45l.674-.928v24.258h-2.035V49.6l.674-.226V41.03zm3.321-2.686l.687-.602V26.197l.674-1.092v29.29h-1.998v-5.999l.674-.288-.037-9.764zm3.32-3.2l.687-.74V20.336c.225-.464.462-.916.675-1.38v35.439h-2.035v-7.53l.674-.351v-11.37zm3.321-4.028l.687-.979V12.77c.237-.627.462-1.255.674-1.895v43.52h-2.035v-9.436l.674-.452v-13.39zm4.682 23.291H29.96V42.511l.675-.578V25.532c.25-.515.474-1.017.686-1.532V.008h.674l-.062 54.4z" fill="#DCDBD9"/><path d="M67.38 35.314V20.02h8.502v2.114h-6.03v3.811h6.03v2.172h-6.03v4.886h6.03v2.31H67.38zm14.554 0V20.02h3.326c3.731 0 7.242.127 8.917 4.02a9.09 9.09 0 01.647 3.615 9.02 9.02 0 01-.681 3.592c-1.548 3.638-4.667 4.066-8.213 4.066h-3.996zm2.495-2.31h2.079c2.425 0 4.377-.312 5.36-2.83a6.93 6.93 0 00.438-2.553 6.861 6.861 0 00-.439-2.552c-1.016-2.622-3.13-2.842-5.648-2.842h-1.79v10.777zm20.213 2.83l-6.803-15.825h2.575l3.465 8.086c.355.783.629 1.6.821 2.437a13.94 13.94 0 01.82-2.437l3.465-8.085h2.552l-6.895 15.823zm11.053-.52V20.02h8.502v2.114h-6.03v3.811h6.03v2.172h-6.03v4.886h6.03v2.31h-8.502zm12.81 0l4.932-7.97-4.366-7.265h2.599l2.194 3.684c.3.485.555 1.005.809 1.502.265-.497.543-.994.843-1.479l2.31-3.753h2.541l-4.447 7.195 4.782 8.086h-2.726l-2.553-4.32c-.277-.497-.542-1.028-.808-1.536a18.79 18.79 0 01-.832 1.501l-2.668 4.355h-2.61zm-81.441 0V19.432l9.644 9.298a22.73 22.73 0 011.652 1.848V20.021h2.31v15.824l-9.864-9.471a12.182 12.182 0 01-1.467-1.71v10.65h-2.276zm91.073 9.024v-.867h2.564a3.29 3.29 0 01-.924 2.507 2.892 2.892 0 01-2.114.785 2.792 2.792 0 01-2.114-.843 3.188 3.188 0 01-.924-2.31c-.002-.447.08-.89.243-1.305a3.17 3.17 0 01.658-1.005c.294-.29.644-.519 1.028-.67a3.584 3.584 0 012.934.127c.41.22.756.543 1.005.936l-.751.531a2.308 2.308 0 00-.762-.705 2.09 2.09 0 00-1.155-.277 2.317 2.317 0 00-1.652.647 2.326 2.326 0 00-.485.774 2.66 2.66 0 00-.173.959 2.376 2.376 0 00.647 1.686 2.04 2.04 0 001.559.624 1.879 1.879 0 001.386-.555c.293-.277.477-.65.52-1.05l-1.49.01zm-13.641 2.31h-.947v-6.572l4.516 4.712v-4.297h.947v6.584l-4.516-4.712v4.285zm-7.808-6.203h.958v6.203h-.958v-6.203zm-5.244.89h-1.432v5.313h-.947v-5.313h-1.433v-.89h3.812v.89zm-10.961-.89h.947v5.313h1.825v.89h-2.772v-6.203zm-10.523 0h.96v3.742c-.029.366.039.732.195 1.063.115.186.274.34.462.45a1.317 1.317 0 001.386 0c.187-.113.344-.267.463-.45a2.31 2.31 0 00.196-1.063v-3.696h.947v3.985a2.31 2.31 0 01-.578 1.617 2.205 2.205 0 01-1.72.716 2.312 2.312 0 01-1.733-.716 2.31 2.31 0 01-.578-1.617v-4.03zm-5.775.936l-.762.439a.9.9 0 00-.277-.381 1.05 1.05 0 00-.67-.231.878.878 0 00-.647.219.692.692 0 00-.231.531c0 .312.22.566.67.751l.624.254a1.97 1.97 0 01-.543 3.904 1.848 1.848 0 01-1.456-.612 2.067 2.067 0 01-.53-1.213l.946-.208c-.006.287.084.567.254.797a1.017 1.017 0 00.82.37.98.98 0 00.728-.289 1.002 1.002 0 00.3-.75.856.856 0 00-.254-.659 2.065 2.065 0 00-.647-.404l-.6-.254a1.699 1.699 0 01-1.26-1.571 1.594 1.594 0 01.486-1.155 1.801 1.801 0 011.328-.474c.453-.019.897.13 1.248.416.192.157.353.349.473.566v-.046zm-13.86 5.267h-.913v-6.572l4.516 4.712v-4.297h.948v6.584l-4.563-4.712.012 4.285zm-11.435-1.41a2.206 2.206 0 001.64.659 2.23 2.23 0 001.652-.658 2.552 2.552 0 000-3.373 2.23 2.23 0 00-1.652-.658 2.205 2.205 0 00-1.64.658 2.553 2.553 0 000 3.373zm-.67-3.984a3.327 3.327 0 11-.924 2.31 3.129 3.129 0 01.913-2.264l.011-.046zm-6.214-.474v1.155a2.46 2.46 0 00-1.686-.693 2.149 2.149 0 00-1.64.67 2.368 2.368 0 00-.624 1.698 2.24 2.24 0 00.647 1.652 2.15 2.15 0 001.628.67 2.39 2.39 0 001.675-.717v1.155c-.516.31-1.108.47-1.71.463a3.164 3.164 0 01-3.199-3.188 3.164 3.164 0 011.005-2.426 3.108 3.108 0 012.24-.808 2.98 2.98 0 011.653.415l.011-.046z" fill="#DCDBD9"/></svg>