<svg width="70" height="87" fill="none" xmlns="http://www.w3.org/2000/svg"><g clip-path="url(#clip0)" fill="#fff"><path d="M36.428 25.6l-.05-1.93c5.185-4.378 11.17-6.37 13.712-7.193.05.512.09 1.028.12 1.548-2.324.813-9.02 3.241-13.782 7.576zm-.193-7.432c4.673-3.927 10.141-6.332 12.86-7.411.127.49.243.99.348 1.5-1.35.554-8.047 3.159-13.161 7.859l-.047-1.948zm-.155-5.995c2.006-1.873 5.633-4.73 11.017-6.99.213.45.418.912.614 1.386-6.07 2.659-9.629 5.627-11.577 7.704l-.054-2.1zm-.164-6.247c1.484-1.336 4.07-3.401 7.99-5.671.333.374.654.771.964 1.19-2.584 1.502-6.401 4.024-8.9 6.53l-.054-2.05zm-2.95 39.464c-3.235-4.002-8.236-6.278-11.627-7.62h-.017a24.5 24.5 0 01-1.08-2.002l.133.046c5.124 1.843 9.084 3.807 12.59 7.289v-2.96c-4.107-5.6-10.332-8.288-14.602-9.44-.15-.554-.29-1.12-.421-1.696 6.713 1.622 11.465 4.76 15.024 8.705V33.87c-3.995-4.758-9.671-7.835-15.733-9.261a39.916 39.916 0 01-.132-1.626c4.984 1.046 11.049 3.632 15.865 8.6v-3.78c-4.628-5.734-13.17-8.837-15.874-9.778a43.59 43.59 0 01.122-1.547c2.884.932 10.2 3.367 15.752 9.091v-3.457c-5.175-5.964-13.582-9.226-15.108-9.856.107-.508.225-1.008.349-1.5 3.1 1.24 9.763 4.18 14.757 9.142v-3.367c-.898-1.402-4.38-6.008-13.375-9.953.197-.472.402-.934.617-1.386 7.825 3.291 11.943 7.826 12.758 8.79V9.907c-2.07-3.061-7.278-6.568-10.531-8.457.31-.42.63-.816.961-1.191 6.791 3.936 9.577 7.24 9.577 7.24V0h1.567v47.495h-1.567l-.005-2.104zm17.105-20.782c-5.003 1.177-9.74 3.479-13.49 6.912l-.05-1.983c4.38-3.656 9.42-5.671 13.672-6.557a40.42 40.42 0 01-.132 1.628zm-1.131 6.093c-3.492.945-8.32 2.924-12.199 6.692l-.052-2.004c3.244-2.85 7.341-5.099 12.68-6.38-.129.576-.27 1.142-.421 1.696l-.007-.004zm-1.878 5.065a24.299 24.299 0 01-1.08 2.002h-.017c-2.591 1.021-6.124 2.591-9.09 5.062l-.05-1.893c2.894-2.206 6.153-3.699 10.1-5.12l.132-.046.005-.005zM0 74.896h1.546l.87-11.216c.069-.867.046-2.281.046-2.281h.045s.493 1.482.85 2.28l3.697 8.23h1.433l3.72-8.23c.358-.82.828-2.234.828-2.234h.046s-.023 1.368.045 2.235l.87 11.216h1.547L14.289 58.87H12.7l-4.142 9.414c-.359.82-.763 1.96-.763 1.96h-.043s-.404-1.14-.763-1.96L2.845 58.87H1.254L0 74.896zm28.448-16.3c-4.592 0-8.019 3.58-8.019 8.16 0 4.72 3.427 8.413 8.019 8.413 4.592 0 8.01-3.693 8.01-8.412.009-4.582-3.396-8.161-8.01-8.161zm0 15.092c-3.672 0-6.406-3.013-6.406-6.931 0-3.784 2.733-6.68 6.406-6.68 3.672 0 6.406 2.896 6.406 6.68 0 3.921-2.71 6.93-6.406 6.93zm13.529 1.208h1.547v-7.32h9.115v7.32h1.57V58.87h-1.57v7.294h-9.115V58.87h-1.547v16.026zm18.75 0H70v-1.414h-7.728v-5.95h5.981v-1.414h-5.98v-5.835h7.3V58.87h-8.845v16.026zM14.564 87l-.285-.734h-1.62l-.296.734h-.456l1.306-3.309h.503l1.312 3.31h-.464zm-1.097-2.882l-.696 1.773h1.38l-.684-1.773zM18.83 87v-2.942h-1.9V87h-.404v-3.309h2.71v3.31h-.405zm4.56 0l-.288-.734h-1.62l-.287.734h-.463l1.306-3.309h.503l1.315 3.31h-.467zm-1.101-2.882l-.697 1.773h1.393l-.696-1.773zM25.35 87v-3.309h1.306a.963.963 0 01.72.277.999.999 0 01.301.72 1.013 1.013 0 01-.302.72.979.979 0 01-.72.277h-.901V87h-.404zm1.905-2.304a.625.625 0 00-.187-.462.602.602 0 00-.461-.169h-.853v1.26h.853a.593.593 0 00.464-.17.613.613 0 00.184-.466v.007zM30.088 87v-2.942h-1.03v-.367h2.468v.367h-1.033V87h-.405zm5.368 0l-.282-.734h-1.62L33.26 87h-.464l1.306-3.309h.504l1.31 3.31h-.459zm-1.097-2.882l-.696 1.773h1.38l-.684-1.773zM40.194 87v-2.724L39.088 87h-.165l-1.102-2.724V87h-.406v-3.309h.582l1.008 2.49 1.015-2.49h.58v3.31h-.406zm2.24 0v-3.309h2.13v.367h-1.728v1.064h1.692v.366h-1.692v1.142h1.726v.367L42.434 87zm6.148 0v-1.517h-1.898V87h-.404v-3.309h.404v1.418h1.898v-1.418h.406v3.31h-.406zm3.046 0v-2.942h-1.03v-.367h2.468v.367h-1.033V87h-.405zm3.452-3.309v1.315h.903a.965.965 0 01.72.277.999.999 0 01.301.72 1.014 1.014 0 01-.301.72.978.978 0 01-.72.277h-1.306v-3.309h.404zm0 1.682v1.26h.854a.608.608 0 00.46-.172.63.63 0 00.193-.458.64.64 0 00-.194-.457.618.618 0 00-.459-.173h-.853zM57.345 87v-3.309h.406v3.31h-.406z"/></g><defs><clipPath id="clip0"><path fill="#fff" d="M0 0h70v87H0z"/></clipPath></defs></svg>