<svg width="480" height="251" viewBox="0 0 480 251" fill="none" xmlns="http://www.w3.org/2000/svg">
<g opacity="0.2">
<path fill-rule="evenodd" clip-rule="evenodd" d="M473.612 213.561L473.612 242.302L470.419 242.302L470.419 213.483C471.485 213.513 472.549 213.539 473.612 213.561ZM455.519 212.839L455.519 242.302L452.326 242.302L452.326 212.641C453.392 212.71 454.456 212.776 455.519 212.839ZM437.426 211.445L437.426 242.302L434.233 242.302L434.233 211.131C435.299 211.239 436.363 211.344 437.426 211.445ZM419.333 209.405L419.333 242.302L416.14 242.302L416.14 208.98C417.205 209.125 418.27 209.266 419.333 209.405ZM401.24 206.741L401.24 242.302L398.047 242.302L398.047 206.208C399.112 206.389 400.177 206.567 401.24 206.741ZM383.147 203.472L383.147 242.302L379.954 242.302L379.954 202.834C381.019 203.05 382.083 203.263 383.147 203.472ZM365.054 199.614L365.054 242.302L361.861 242.302L361.861 198.873C362.926 199.123 363.99 199.37 365.054 199.614ZM346.961 195.179L346.961 242.302L343.768 242.302L343.768 194.337C344.833 194.621 345.897 194.901 346.961 195.179ZM328.868 190.177L328.868 242.302L325.675 242.302L325.675 189.236C326.74 189.553 327.804 189.866 328.868 190.177ZM310.775 184.617L310.775 242.302L307.582 242.302L307.582 183.578C308.646 183.927 309.711 184.274 310.775 184.617ZM292.682 178.504L292.682 242.302L289.489 242.302L289.489 177.369C290.553 177.75 291.618 178.129 292.682 178.504ZM274.589 171.843L274.589 242.302L271.396 242.302L271.396 170.611C272.46 171.025 273.525 171.435 274.589 171.843ZM256.496 164.636L256.496 242.302L253.303 242.302L253.303 163.307C254.367 163.753 255.431 164.196 256.496 164.636ZM238.402 156.882L238.402 242.302L235.21 242.302L235.21 155.457C236.274 155.935 237.338 156.41 238.402 156.882ZM220.309 148.58L220.309 242.302L217.117 242.302L217.117 147.058C218.181 147.568 219.245 148.076 220.309 148.58ZM202.216 139.727L202.216 242.302L199.023 242.302L199.023 138.107C200.088 138.65 201.152 139.19 202.216 139.727ZM184.123 130.317L184.123 242.302L180.93 242.302L180.93 128.598C181.994 129.174 183.059 129.747 184.123 130.317ZM166.03 120.343L166.03 242.302L162.837 242.302L162.837 118.524C163.901 119.133 164.966 119.74 166.03 120.343ZM147.937 109.796L147.937 242.302L144.744 242.302L144.744 107.874C145.808 108.518 146.872 109.158 147.937 109.796ZM129.844 98.6637L129.844 242.302L126.651 242.302L126.651 96.6376C127.715 97.3158 128.779 97.9912 129.844 98.6637ZM111.751 86.9331L111.751 242.302L108.558 242.302L108.558 84.7997C109.622 85.5137 110.686 86.2248 111.751 86.9331ZM93.658 74.5879L93.658 242.302L90.4651 242.302L90.4651 72.3441C91.5287 73.0949 92.593 73.8428 93.658 74.5879ZM75.5649 61.6089L75.5649 242.302L72.372 242.302L72.372 59.2511C73.4356 60.0399 74.4999 60.8258 75.5649 61.6089ZM57.4718 47.9743L57.4718 242.302L54.2789 242.302L54.2789 45.4983C55.3424 46.3265 56.4067 47.1519 57.4718 47.9743ZM39.3788 33.6587L39.3788 242.302L36.1859 242.302L36.1859 31.0596C37.2492 31.9289 38.3135 32.7953 39.3788 33.6587ZM21.2857 18.6329L21.2857 242.302L18.0928 242.302L18.0928 15.9051C19.156 16.8173 20.2203 17.7266 21.2857 18.6329ZM3.19263 2.86304L3.19264 242.302L-0.000260438 242.302L-0.000274658 6.16765e-05C1.06284 0.957411 2.12714 1.91174 3.19263 2.86304Z" fill="#1C2A4D"/>
<path fill-rule="evenodd" clip-rule="evenodd" d="M476.807 223.893L476.807 242.306L470.421 242.306L470.421 223.869C472.552 223.885 474.68 223.893 476.807 223.893ZM458.714 223.703L458.714 242.306L452.328 242.306L452.328 223.546C454.458 223.606 456.587 223.659 458.714 223.703ZM440.621 223.138L440.621 242.306L434.235 242.306L434.235 222.851C436.365 222.954 438.493 223.05 440.621 223.138ZM422.527 222.205L422.527 242.306L416.142 242.306L416.142 221.789C418.271 221.935 420.4 222.074 422.527 222.205ZM404.434 220.909L404.434 242.306L398.049 242.306L398.049 220.365C400.178 220.554 402.307 220.735 404.434 220.909ZM386.341 219.253L386.341 242.306L379.956 242.306L379.956 218.583C382.085 218.814 384.213 219.037 386.341 219.253ZM368.248 217.24L368.248 242.306L361.862 242.306L361.862 216.444C363.991 216.717 366.12 216.982 368.248 217.24ZM350.155 214.871L350.155 242.306L343.769 242.306L343.769 213.949C345.898 214.264 348.026 214.571 350.155 214.871ZM332.062 212.145L332.062 242.306L325.676 242.306L325.676 211.098C327.804 211.454 329.933 211.803 332.062 212.145ZM313.969 209.062L313.969 242.306L307.583 242.306L307.583 207.888C309.711 208.287 311.84 208.678 313.969 209.062ZM295.876 205.619L295.876 242.306L289.49 242.306L289.49 204.317C291.618 204.758 293.746 205.192 295.876 205.619ZM277.783 201.811L277.783 242.306L271.397 242.306L271.397 200.379C273.524 200.864 275.653 201.341 277.783 201.811ZM259.69 197.633L259.69 242.306L253.304 242.306L253.304 196.069C255.431 196.598 257.559 197.119 259.69 197.633ZM241.597 193.079L241.597 242.306L235.211 242.306L235.211 191.38C237.337 191.954 239.466 192.52 241.597 193.079ZM223.504 188.14L223.504 242.306L217.118 242.306L217.118 186.303C219.244 186.922 221.372 187.535 223.504 188.14ZM205.411 182.805L205.411 242.306L199.025 242.306L199.025 180.825C201.15 181.493 203.279 182.153 205.411 182.805ZM187.318 177.062L187.318 242.306L180.932 242.306L180.932 174.936C183.057 175.652 185.186 176.361 187.318 177.062ZM169.225 170.898L169.225 242.306L162.839 242.306L162.839 168.619C164.963 169.386 167.092 170.146 169.225 170.898ZM151.132 164.295L151.132 242.306L144.746 242.306L144.746 161.857C146.87 162.677 148.998 163.49 151.132 164.295ZM133.038 157.234L133.038 242.306L126.653 242.306L126.653 154.628C128.776 155.505 130.905 156.374 133.038 157.234ZM114.945 149.692L114.945 242.306L108.56 242.306L108.56 146.91C110.683 147.846 112.811 148.773 114.945 149.692ZM96.8523 141.642L96.8523 242.306L90.4666 242.306L90.4666 138.674C92.5888 139.672 94.7175 140.661 96.8523 141.642ZM78.7593 133.053L78.7593 242.306L72.3735 242.306L72.3735 129.886C74.4951 130.95 76.6238 132.006 78.7593 133.053ZM60.6662 123.888L60.6662 242.306L54.2804 242.306L54.2804 120.508C56.4012 121.643 58.5299 122.77 60.6662 123.888ZM42.5732 114.103L42.5732 242.306L36.1874 242.306L36.1873 110.493C38.3073 111.706 40.4359 112.909 42.5732 114.103ZM24.4801 103.647L24.4801 242.306L18.0943 242.306L18.0943 99.7853C20.2132 101.082 22.3419 102.37 24.4801 103.647ZM6.38702 92.4571L6.38703 242.306L0.00122974 242.306L0.0012207 88.3184C2.11896 89.7081 4.24765 91.0876 6.38702 92.4571Z" fill="#1C2A4D"/>
<path fill-rule="evenodd" clip-rule="evenodd" d="M470.421 236.658C472.912 236.672 475.396 236.679 477.872 236.679C478.581 236.679 479.291 236.678 480 236.675L480 251L470.421 251L470.421 236.658ZM9.58032 155.669C6.37338 154.431 3.1803 153.178 0.00164795 151.91L0.00165376 251L9.58033 251L9.58032 155.669ZM461.907 236.584L461.907 251L452.328 251L452.328 236.436C455.533 236.496 458.726 236.546 461.907 236.584ZM443.814 236.248C440.631 236.169 437.438 236.078 434.235 235.976L434.235 251L443.814 251L443.814 236.248ZM425.721 235.678C422.537 235.558 419.344 235.426 416.142 235.283L416.142 251L425.721 251L425.721 235.678ZM407.628 234.878C404.443 234.717 401.25 234.545 398.049 234.362L398.049 251L407.628 251L407.628 234.878ZM389.535 233.851C386.349 233.65 383.156 233.439 379.956 233.216L379.956 251L389.535 251L389.535 233.851ZM371.442 232.6C368.255 232.359 365.062 232.109 361.863 231.847L361.863 251L371.442 251L371.442 232.6ZM353.349 231.125C350.161 230.846 346.968 230.556 343.77 230.255L343.77 251L353.349 251L353.349 231.125ZM335.255 229.429C332.067 229.11 328.874 228.781 325.677 228.44L325.677 251L335.255 251L335.255 229.429ZM317.162 227.509C313.973 227.151 310.78 226.782 307.584 226.402L307.584 251L317.162 251L317.162 227.509ZM299.069 225.365C295.879 224.967 292.686 224.558 289.491 224.139L289.491 251L299.069 251L299.069 225.365ZM280.976 222.995C277.785 222.557 274.592 222.107 271.398 221.647L271.398 251L280.976 251L280.976 222.995ZM262.883 220.395C259.691 219.916 256.498 219.425 253.305 218.924L253.305 251L262.883 251L262.883 220.395ZM244.79 217.561C241.597 217.04 238.404 216.508 235.211 215.965L235.211 251L244.79 251L244.79 217.561ZM226.697 214.49C223.503 213.926 220.31 213.351 217.118 212.765L217.118 251L226.697 251L226.697 214.49ZM208.604 211.174C205.409 210.566 202.216 209.947 199.025 209.317L199.025 251L208.604 251L208.604 211.174ZM190.511 207.607C187.315 206.954 184.122 206.29 180.932 205.614L180.932 251L190.511 251L190.511 207.607ZM172.418 203.781C169.221 203.082 166.028 202.371 162.839 201.648L162.839 251L172.418 251L172.418 203.781ZM154.325 199.687C151.127 198.94 147.934 198.18 144.746 197.408L144.746 251L154.325 251L154.325 199.687ZM136.232 195.315C133.033 194.517 129.84 193.706 126.653 192.884L126.653 251L136.232 251L136.232 195.315ZM118.139 190.653C114.939 189.802 111.746 188.938 108.56 188.062L108.56 251L118.139 251L118.139 190.653ZM100.046 185.686C96.8452 184.78 93.6521 183.861 90.467 182.929L90.467 251L100.046 251L100.046 185.686ZM81.9526 180.401C78.751 179.436 75.558 178.458 72.3739 177.467L72.3739 251L81.9526 251L81.9526 180.401ZM63.8595 174.778C60.6568 173.752 57.4637 172.712 54.2809 171.658L54.2809 251L63.8595 251L63.8595 174.778ZM45.7664 168.798C42.5624 167.706 39.3694 166.6 36.1878 165.479L36.1878 251L45.7665 251L45.7664 168.798ZM27.6734 162.437C24.468 161.275 21.2749 160.098 18.0947 158.906L18.0947 251L27.6734 251L27.6734 162.437Z" fill="#1C2A4D"/>
</g>
</svg>
