<svg width="1600" height="356" viewBox="0 0 1600 356" fill="none" xmlns="http://www.w3.org/2000/svg">
<g opacity="0.08">
<path fill-rule="evenodd" clip-rule="evenodd" d="M1589.36 302.314L1589.36 342.999L1584.03 342.999L1584.03 302.205C1585.81 302.247 1587.58 302.283 1589.36 302.314ZM1559.2 301.292L1559.2 342.999L1553.88 342.999L1553.88 301.012C1555.65 301.11 1557.43 301.204 1559.2 301.292ZM1529.04 299.319L1529.04 342.999L1523.72 342.999L1523.72 298.875C1525.49 299.028 1527.27 299.176 1529.04 299.319ZM1498.88 296.431L1498.88 342.999L1493.56 342.999L1493.56 295.829C1495.34 296.034 1497.11 296.235 1498.88 296.431ZM1468.72 292.661L1468.72 342.999L1463.4 342.999L1463.4 291.905C1465.18 292.162 1466.95 292.413 1468.72 292.661ZM1438.57 288.033L1438.57 342.999L1433.24 342.999L1433.24 287.129C1435.02 287.435 1436.79 287.736 1438.57 288.033ZM1408.41 282.571L1408.41 342.999L1403.09 342.999L1403.09 281.522C1404.86 281.876 1406.64 282.226 1408.41 282.571ZM1378.25 276.293L1378.25 342.999L1372.93 342.999L1372.93 275.101C1374.7 275.503 1376.48 275.9 1378.25 276.293ZM1348.09 269.212L1348.09 342.999L1342.77 342.999L1342.77 267.88C1344.55 268.329 1346.32 268.773 1348.09 269.212ZM1317.94 261.341L1317.94 342.999L1312.61 342.999L1312.61 259.871C1314.39 260.365 1316.16 260.855 1317.94 261.341ZM1287.78 252.688L1287.78 342.999L1282.46 342.999L1282.46 251.081C1284.23 251.621 1286 252.157 1287.78 252.688ZM1257.62 243.259L1257.62 342.999L1252.3 342.999L1252.3 241.515C1254.07 242.1 1255.85 242.682 1257.62 243.259ZM1227.46 233.056L1227.46 342.999L1222.14 342.999L1222.14 231.175C1223.91 231.806 1225.69 232.433 1227.46 233.056ZM1197.3 222.08L1197.3 342.999L1191.98 342.999L1191.98 220.062C1193.76 220.739 1195.53 221.411 1197.3 222.08ZM1167.15 210.328L1167.15 342.999L1161.82 342.999L1161.82 208.173C1163.6 208.896 1165.37 209.614 1167.15 210.328ZM1136.99 197.796L1136.99 342.999L1131.67 342.999L1131.67 195.502C1133.44 196.271 1135.21 197.035 1136.99 197.796ZM1106.83 184.475L1106.83 342.999L1101.51 342.999L1101.51 182.042C1103.28 182.857 1105.06 183.668 1106.83 184.475ZM1076.67 170.356L1076.67 342.999L1071.35 342.999L1071.35 167.781C1073.13 168.643 1074.9 169.502 1076.67 170.356ZM1046.52 155.425L1046.52 342.999L1041.19 342.999L1041.19 152.705C1042.97 153.616 1044.74 154.523 1046.52 155.425ZM1016.36 139.667L1016.36 342.999L1011.04 342.999L1011.04 136.799C1012.81 137.759 1014.58 138.715 1016.36 139.667ZM986.2 123.061L986.2 342.999L980.878 342.999L980.878 120.041C982.651 121.052 984.425 122.059 986.2 123.061ZM956.042 105.586L956.042 342.999L950.72 342.999L950.72 102.409C952.493 103.472 954.267 104.531 956.042 105.586ZM925.885 87.2127L925.885 342.999L920.563 342.999L920.563 83.875C922.335 84.9916 924.109 86.1042 925.885 87.2127ZM895.727 67.9118L895.727 342.999L890.405 342.999L890.405 64.4068C892.178 65.5792 893.952 66.7475 895.727 67.9118ZM865.569 47.6468L865.569 342.999L860.247 342.999L860.247 43.9675C862.02 45.1981 863.794 46.4245 865.569 47.6468ZM835.411 26.3764L835.411 342.999L830.089 342.999L830.089 22.515C831.862 23.8063 833.636 25.0935 835.411 26.3764ZM805.254 4.05286L805.254 342.999L799.932 342.999L799.932 6.89332e-05C801.704 1.35528 803.478 2.70621 805.254 4.05286Z" fill="#1C2A4D"/>
<path fill-rule="evenodd" clip-rule="evenodd" d="M1594.68 316.936L1594.68 342.998L1584.03 342.998L1584.03 316.903C1587.59 316.925 1591.13 316.936 1594.68 316.936ZM1564.52 316.667L1564.52 342.998L1553.88 342.998L1553.88 316.445C1557.43 316.53 1560.98 316.604 1564.52 316.667ZM1534.36 315.868L1534.36 342.998L1523.72 342.998L1523.72 315.461C1527.27 315.607 1530.82 315.743 1534.36 315.868ZM1504.21 314.547L1504.21 342.998L1493.56 342.998L1493.56 313.958C1497.11 314.165 1500.66 314.361 1504.21 314.547ZM1474.05 312.712L1474.05 342.998L1463.4 342.998L1463.4 311.942C1466.95 312.21 1470.5 312.466 1474.05 312.712ZM1443.89 310.368L1443.89 342.998L1433.25 342.998L1433.25 309.42C1436.79 309.746 1440.34 310.062 1443.89 310.368ZM1413.73 307.518L1413.73 342.998L1403.09 342.998L1403.09 306.392C1406.64 306.778 1410.18 307.153 1413.73 307.518ZM1383.57 304.164L1383.57 342.998L1372.93 342.998L1372.93 302.86C1376.48 303.305 1380.03 303.74 1383.57 304.164ZM1353.42 300.306L1353.42 342.998L1342.77 342.998L1342.77 298.824C1346.32 299.328 1349.87 299.823 1353.42 300.306ZM1323.26 295.942L1323.26 342.998L1312.61 342.998L1312.61 294.28C1316.16 294.844 1319.71 295.398 1323.26 295.942ZM1293.1 291.068L1293.1 342.998L1282.46 342.998L1282.46 289.224C1286 289.849 1289.55 290.464 1293.1 291.068ZM1262.94 285.677L1262.94 342.998L1252.3 342.998L1252.3 283.65C1255.84 284.336 1259.39 285.012 1262.94 285.677ZM1232.79 279.764L1232.79 342.998L1222.14 342.998L1222.14 277.55C1225.69 278.298 1229.23 279.036 1232.79 279.764ZM1202.63 273.317L1202.63 342.998L1191.98 342.998L1191.98 270.912C1195.53 271.724 1199.08 272.526 1202.63 273.317ZM1172.47 266.325L1172.47 342.998L1161.83 342.998L1161.83 263.724C1165.37 264.601 1168.92 265.468 1172.47 266.325ZM1142.31 258.773L1142.31 342.998L1131.67 342.998L1131.67 255.971C1135.21 256.915 1138.76 257.849 1142.31 258.773ZM1112.15 250.644L1112.15 342.998L1101.51 342.998L1101.51 247.633C1105.05 248.648 1108.6 249.651 1112.15 250.644ZM1082 241.918L1082 342.998L1071.35 342.998L1071.35 238.691C1074.89 239.778 1078.44 240.853 1082 241.918ZM1051.84 232.571L1051.84 342.998L1041.2 342.998L1041.2 229.119C1044.74 230.281 1048.28 231.431 1051.84 232.571ZM1021.68 222.575L1021.68 342.998L1011.04 342.998L1011.04 218.887C1014.58 220.128 1018.12 221.357 1021.68 222.575ZM991.524 211.899L991.524 342.998L980.88 342.998L980.88 207.961C984.418 209.285 987.966 210.598 991.524 211.899ZM961.366 200.503L961.366 342.998L950.722 342.998L950.722 196.302C954.259 197.714 957.807 199.115 961.366 200.503ZM931.208 188.345L931.208 342.998L920.564 342.998L920.564 183.862C924.1 185.368 927.648 186.863 931.208 188.345ZM901.05 175.371L901.05 342.998L890.406 342.998L890.406 170.586C893.941 172.194 897.489 173.789 901.05 175.371ZM870.892 161.52L870.892 342.998L860.249 342.998L860.249 156.409C863.782 158.126 867.33 159.83 870.892 161.52ZM840.735 146.719L840.735 342.998L830.091 342.998L830.091 141.252C833.623 143.088 837.171 144.91 840.735 146.719ZM810.577 130.878L810.577 342.998L799.933 342.998L799.933 125.02C803.463 126.987 807.011 128.94 810.577 130.878Z" fill="#1C2A4D"/>
<path fill-rule="evenodd" clip-rule="evenodd" d="M1600 335.027L1600 355.307L1584.03 355.307L1584.03 335.003C1588.19 335.022 1592.33 335.032 1596.45 335.032C1597.64 335.032 1598.82 335.03 1600 335.027ZM1569.84 334.897L1569.84 355.307L1553.88 355.307L1553.88 334.688C1559.22 334.774 1564.54 334.843 1569.84 334.897ZM1539.68 334.423L1539.68 355.307L1523.72 355.307L1523.72 334.036C1529.06 334.181 1534.38 334.31 1539.68 334.423ZM1509.53 333.615L1509.53 355.307L1493.56 355.307L1493.56 333.056C1498.9 333.258 1504.22 333.445 1509.53 333.615ZM1479.37 332.483L1479.37 355.307L1463.4 355.307L1463.4 331.753C1468.74 332.011 1474.06 332.255 1479.37 332.483ZM1449.21 331.029L1449.21 355.307L1433.25 355.307L1433.25 330.13C1438.58 330.445 1443.9 330.745 1449.21 331.029ZM1419.05 329.257L1419.05 355.307L1403.09 355.307L1403.09 328.192C1408.42 328.562 1413.74 328.917 1419.05 329.257ZM1388.9 327.17L1388.9 355.307L1372.93 355.307L1372.93 325.938C1378.26 326.364 1383.58 326.775 1388.9 327.17ZM1358.74 324.769L1358.74 355.307L1342.77 355.307L1342.77 323.37C1348.1 323.851 1353.42 324.318 1358.74 324.769ZM1328.58 322.051L1328.58 355.307L1312.61 355.307L1312.61 320.484C1317.94 321.022 1323.26 321.544 1328.58 322.051ZM1298.42 319.017L1298.42 355.307L1282.46 355.307L1282.46 317.28C1287.78 317.874 1293.1 318.453 1298.42 319.017ZM1268.26 315.661L1268.26 355.307L1252.3 355.307L1252.3 313.753C1257.62 314.405 1262.95 315.041 1268.26 315.661ZM1238.11 311.981L1238.11 355.307L1222.14 355.307L1222.14 309.899C1227.46 310.608 1232.79 311.302 1238.11 311.981ZM1207.95 307.97L1207.95 355.307L1191.98 355.307L1191.98 305.71C1197.3 306.479 1202.63 307.232 1207.95 307.97ZM1177.79 303.621L1177.79 355.307L1161.83 355.307L1161.83 301.18C1167.15 302.01 1172.47 302.823 1177.79 303.621ZM1147.63 298.927L1147.63 355.307L1131.67 355.307L1131.67 296.299C1136.99 297.191 1142.31 298.067 1147.63 298.927ZM1117.48 293.878L1117.48 355.307L1101.51 355.307L1101.51 291.057C1106.83 292.014 1112.15 292.954 1117.48 293.878ZM1087.32 288.462L1087.32 355.307L1071.35 355.307L1071.35 285.443C1076.67 286.466 1081.99 287.472 1087.32 288.462ZM1057.16 282.667L1057.16 355.307L1041.19 355.307L1041.19 279.441C1046.51 280.533 1051.83 281.609 1057.16 282.667ZM1027 276.478L1027 355.307L1011.04 355.307L1011.04 273.036C1016.35 274.201 1021.67 275.348 1027 276.478ZM996.845 269.878L996.845 355.307L980.879 355.307L980.879 266.211C986.19 267.451 991.512 268.674 996.845 269.878ZM966.687 262.848L966.687 355.307L950.721 355.307L950.721 258.945C956.03 260.264 961.352 261.565 966.687 262.848ZM936.529 255.366L936.529 355.307L920.563 355.307L920.563 251.213C925.871 252.616 931.193 254 936.529 255.366ZM906.371 247.406L906.371 355.307L890.406 355.307L890.406 242.989C895.711 244.481 901.033 245.953 906.371 247.406ZM876.214 238.941L876.214 355.307L860.248 355.307L860.248 234.243C865.551 235.829 870.873 237.395 876.214 238.941ZM846.056 229.937L846.056 355.307L830.09 355.307L830.09 224.939C835.391 226.626 840.713 228.292 846.056 229.937ZM815.898 220.356L815.898 355.307L799.932 355.307L799.932 215.035C805.231 216.831 810.553 218.604 815.898 220.356Z" fill="#1C2A4D"/>
</g>
<g opacity="0.08">
<path fill-rule="evenodd" clip-rule="evenodd" d="M10.644 302.314L10.644 342.998L15.966 342.998L15.966 302.205C14.1899 302.246 12.4159 302.283 10.644 302.314ZM40.8018 301.292L40.8018 342.998L46.1237 342.998L46.1237 301.012C44.3478 301.11 42.5738 301.203 40.8018 301.292ZM70.9595 299.318L70.9595 342.998L76.2815 342.998L76.2815 298.874C74.5058 299.027 72.7318 299.175 70.9595 299.318ZM101.117 296.431L101.117 342.998L106.439 342.998L106.439 295.829C104.664 296.034 102.89 296.235 101.117 296.431ZM131.275 292.66L131.275 342.998L136.597 342.998L136.597 291.905C134.822 292.162 133.048 292.413 131.275 292.66ZM161.433 288.033L161.433 342.998L166.755 342.998L166.755 287.129C164.98 287.435 163.206 287.736 161.433 288.033ZM191.591 282.571L191.591 342.998L196.913 342.998L196.913 281.522C195.138 281.876 193.364 282.226 191.591 282.571ZM221.748 276.292L221.748 342.998L227.07 342.998L227.07 275.101C225.295 275.502 223.521 275.9 221.748 276.292ZM251.906 269.212L251.906 342.998L257.228 342.998L257.228 267.88C255.453 268.328 253.679 268.772 251.906 269.212ZM282.064 261.341L282.064 342.998L287.386 342.998L287.386 259.871C285.611 260.365 283.837 260.855 282.064 261.341ZM312.222 252.688L312.222 342.998L317.544 342.998L317.544 251.08C315.769 251.621 313.995 252.156 312.222 252.688ZM342.379 243.259L342.379 342.998L347.701 342.998L347.701 241.514C345.927 242.1 344.153 242.681 342.379 243.259ZM372.537 233.056L372.537 342.998L377.859 342.998L377.859 231.175C376.085 231.806 374.311 232.433 372.537 233.056ZM402.695 222.08L402.695 342.998L408.017 342.998L408.017 220.062C406.243 220.739 404.469 221.411 402.695 222.08ZM432.853 210.328L432.853 342.998L438.175 342.998L438.175 208.173C436.401 208.895 434.627 209.614 432.853 210.328ZM463.01 197.796L463.01 342.998L468.332 342.998L468.332 195.502C466.559 196.271 464.785 197.035 463.01 197.796ZM493.168 184.475L493.168 342.998L498.49 342.998L498.49 182.042C496.717 182.857 494.943 183.668 493.168 184.475ZM523.326 170.356L523.326 342.998L528.648 342.998L528.648 167.781C526.874 168.643 525.101 169.501 523.326 170.356ZM553.484 155.425L553.484 342.998L558.806 342.998L558.806 152.705C557.032 153.616 555.258 154.523 553.484 155.425ZM583.642 139.667L583.642 342.998L588.963 342.998L588.963 136.799C587.19 137.759 585.416 138.715 583.642 139.667ZM613.799 123.061L613.799 342.998L619.121 342.998L619.121 120.041C617.348 121.052 615.574 122.059 613.799 123.061ZM643.957 105.585L643.957 342.998L649.279 342.998L649.279 102.409C647.506 103.472 645.732 104.531 643.957 105.585ZM674.115 87.2126L674.115 342.998L679.437 342.998L679.437 83.875C677.664 84.9916 675.89 86.1041 674.115 87.2126ZM704.273 67.9117L704.273 342.998L709.595 342.998L709.595 64.4067C707.822 65.5792 706.048 66.7475 704.273 67.9117ZM734.43 47.6468L734.43 342.998L739.752 342.998L739.752 43.9675C737.98 45.1981 736.206 46.4245 734.43 47.6468ZM764.588 26.3764L764.588 342.998L769.91 342.998L769.91 22.5149C768.138 23.8063 766.364 25.0935 764.588 26.3764ZM794.746 4.05286L794.746 342.998L800.068 342.998L800.068 6.89332e-05C798.296 1.35528 796.522 2.70621 794.746 4.05286Z" fill="#1C2A4D"/>
<path fill-rule="evenodd" clip-rule="evenodd" d="M5.32127 316.941L5.32127 342.999L15.9652 342.999L15.9652 316.907C12.4136 316.93 8.8656 316.941 5.32127 316.941ZM35.479 316.672L35.479 342.999L46.1229 342.999L46.123 316.45C42.572 316.535 39.024 316.609 35.479 316.672ZM65.6368 315.872L65.6368 342.999L76.2807 342.999L76.2807 315.465C72.7304 315.612 69.1823 315.748 65.6368 315.872ZM95.7946 314.551L95.7946 342.999L106.438 342.999L106.438 313.962C102.889 314.169 99.3407 314.366 95.7946 314.551ZM125.952 312.716L125.952 342.999L136.596 342.999L136.596 311.947C133.047 312.214 129.499 312.47 125.952 312.716ZM156.11 310.372L156.11 342.999L166.754 342.999L166.754 309.424C163.205 309.751 159.657 310.067 156.11 310.372ZM186.268 307.522L186.268 342.999L196.912 342.999L196.912 306.396C193.364 306.782 189.816 307.158 186.268 307.522ZM216.426 304.169L216.426 342.999L227.07 342.999L227.07 302.865C223.522 303.31 219.974 303.744 216.426 304.169ZM246.583 300.311L246.583 342.999L257.227 342.999L257.227 298.828C253.68 299.333 250.132 299.827 246.583 300.311ZM276.741 295.946L276.741 342.999L287.385 342.999L287.385 294.285C283.839 294.849 280.291 295.403 276.741 295.946ZM306.899 291.072L306.899 342.999L317.543 342.999L317.543 289.229C313.997 289.854 310.449 290.468 306.899 291.072ZM337.057 285.682L337.057 342.999L347.701 342.999L347.701 283.655C344.155 284.341 340.607 285.017 337.057 285.682ZM367.214 279.768L367.214 342.999L377.858 342.999L377.858 277.554C374.314 278.303 370.766 279.041 367.214 279.768ZM397.372 273.321L397.372 342.999L408.016 342.999L408.016 270.916C404.472 271.728 400.924 272.53 397.372 273.321ZM427.53 266.329L427.53 342.999L438.174 342.999L438.174 263.728C434.63 264.606 431.082 265.473 427.53 266.329ZM457.688 258.777L457.688 342.999L468.332 342.999L468.332 255.975C464.789 256.92 461.241 257.854 457.688 258.777ZM487.845 250.648L487.845 342.999L498.489 342.999L498.489 247.638C494.947 248.652 491.399 249.656 487.845 250.648ZM518.003 241.922L518.003 342.999L528.647 342.999L528.647 238.695C525.106 239.782 521.558 240.858 518.003 241.922ZM548.161 232.575L548.161 342.999L558.805 342.999L558.805 229.123C555.264 230.285 551.716 231.436 548.161 232.575ZM578.319 222.58L578.319 342.999L588.963 342.999L588.963 218.891C585.423 220.132 581.875 221.361 578.319 222.58ZM608.476 211.903L608.476 342.999L619.12 342.999L619.12 207.965C615.582 209.289 612.034 210.602 608.476 211.903ZM638.634 200.508L638.634 342.999L649.278 342.999L649.278 196.306C645.741 197.718 642.193 199.119 638.634 200.508ZM668.792 188.349L668.792 342.999L679.436 342.999L679.436 183.866C675.9 185.373 672.352 186.867 668.792 188.349ZM698.95 175.375L698.95 342.999L709.594 342.999L709.594 170.59C706.059 172.198 702.511 173.793 698.95 175.375ZM729.108 161.524L729.108 342.999L739.751 342.999L739.751 156.413C736.218 158.13 732.67 159.834 729.108 161.524ZM759.265 146.723L759.265 342.999L769.909 342.999L769.909 141.256C766.377 143.092 762.829 144.914 759.265 146.723ZM789.423 130.882L789.423 342.999L800.067 342.999L800.067 125.024C796.537 126.991 792.989 128.944 789.423 130.882Z" fill="#1C2A4D"/>
<path fill-rule="evenodd" clip-rule="evenodd" d="M-1.049e-05 335.027L-1.2263e-05 355.308L15.9659 355.308L15.9659 335.003C11.8137 335.022 7.6743 335.032 3.548 335.032C2.36482 335.032 1.18215 335.031 -1.049e-05 335.027ZM30.1578 334.897L30.1578 355.308L46.1236 355.308L46.1236 334.688C40.7827 334.774 35.4604 334.843 30.1578 334.897ZM60.3155 334.423L60.3155 355.308L76.2814 355.308L76.2814 334.036C70.9426 334.181 65.6204 334.31 60.3155 334.423ZM90.4733 333.616L90.4733 355.308L106.439 355.308L106.439 333.056C101.102 333.258 95.7801 333.445 90.4733 333.616ZM120.631 332.483L120.631 355.308L136.597 355.308L136.597 331.753C131.262 332.011 125.94 332.255 120.631 332.483ZM150.789 331.029L150.789 355.308L166.755 355.308L166.755 330.13C161.421 330.445 156.099 330.745 150.789 331.029ZM180.947 329.257L180.947 355.308L196.912 355.308L196.912 328.192C191.581 328.562 186.259 328.918 180.947 329.257ZM211.104 327.17L211.104 355.308L227.07 355.308L227.07 325.938C221.74 326.364 216.418 326.775 211.104 327.17ZM241.262 324.769L241.262 355.308L257.228 355.308L257.228 323.37C251.9 323.851 246.577 324.318 241.262 324.769ZM271.42 322.051L271.42 355.308L287.386 355.308L287.386 320.484C282.059 321.022 276.737 321.544 271.42 322.051ZM301.578 319.017L301.578 355.308L317.543 355.308L317.543 317.28C312.218 317.875 306.896 318.453 301.578 319.017ZM331.735 315.661L331.735 355.308L347.701 355.308L347.701 313.753C342.377 314.405 337.055 315.041 331.735 315.661ZM361.893 311.981L361.893 355.308L377.859 355.308L377.859 309.899C372.536 310.608 367.214 311.302 361.893 311.981ZM392.051 307.97L392.051 355.308L408.017 355.308L408.017 305.71C402.696 306.479 397.373 307.232 392.051 307.97ZM422.209 303.621L422.209 355.308L438.175 355.308L438.175 301.18C432.855 302.01 427.532 302.823 422.209 303.621ZM452.366 298.927L452.366 355.308L468.332 355.308L468.332 296.299C463.014 297.191 457.692 298.067 452.366 298.927ZM482.524 293.878L482.524 355.308L498.49 355.308L498.49 291.057C493.173 292.014 487.851 292.954 482.524 293.878ZM512.682 288.462L512.682 355.308L528.648 355.308L528.648 285.443C523.332 286.466 518.01 287.473 512.682 288.462ZM542.84 282.667L542.84 355.308L558.806 355.308L558.806 279.441C553.492 280.533 548.169 281.609 542.84 282.667ZM572.997 276.478L572.997 355.308L588.963 355.308L588.963 273.036C583.651 274.201 578.329 275.348 572.997 276.478ZM603.155 269.878L603.155 355.308L619.121 355.308L619.121 266.211C613.81 267.451 608.488 268.674 603.155 269.878ZM633.313 262.848L633.313 355.308L649.279 355.308L649.279 258.945C643.97 260.264 638.648 261.565 633.313 262.848ZM663.471 255.366L663.471 355.308L679.437 355.308L679.437 251.213C674.129 252.616 668.807 254 663.471 255.366ZM693.629 247.406L693.629 355.308L709.594 355.308L709.594 242.989C704.289 244.481 698.967 245.953 693.629 247.406ZM723.786 238.941L723.786 355.308L739.752 355.308L739.752 234.243C734.449 235.829 729.127 237.395 723.786 238.941ZM753.944 229.937L753.944 355.308L769.91 355.308L769.91 224.939C764.609 226.626 759.287 228.292 753.944 229.937ZM784.102 220.356L784.102 355.308L800.068 355.308L800.068 215.035C794.769 216.831 789.447 218.604 784.102 220.356Z" fill="#1C2A4D"/>
</g>
</svg>
