<svg width="152" height="60" fill="none" xmlns="http://www.w3.org/2000/svg"><path fill-rule="evenodd" clip-rule="evenodd" d="M.739 54.42l.725-.256v-3.227l.739-.445v8.965H0v-2.188h.739v-2.848zm3.573-1.35l.725-.297v-4.145l.739-.526v11.395H3.573v-2.444l.739-.067V53.07zm3.572-1.566l.726-.35V45.86l.792-.634v14.271H7.146v-2.822l.738-.108v-5.063zm3.573-1.81l.725-.404v-6.751l.74-.73v17.688h-2.177v-3.389l.739-.135-.027-6.278zm3.573-2.119l.725-.472v-8.318l.739-.85v21.562h-2.203V55.34l.739-.19v-7.574zm3.573-2.457l.738-.554V34.397l.726-.999v26.1h-2.19V54.34l.726-.244v-8.978zm3.573-2.89l.738-.648V29.16l.726-1.175v31.513h-2.15v-6.454l.726-.31-.04-10.505zm3.572-3.443l.74-.796V22.853c.24-.5.496-.985.724-1.485v38.13h-2.189v-8.102l.725-.378V38.785zm3.573-4.334l.739-1.053V14.712c.255-.675.497-1.35.725-2.039v46.824h-2.19V49.344l.726-.486V34.45zm5.037 25.06h-2.122v-12.8l.725-.621V28.443c.269-.553.51-1.094.739-1.647V.98h.725l-.067 58.53z" fill="#fff"/><path d="M72.496 38.971V22.517h9.146v2.274h-6.487v4.101h6.487v2.337h-6.487v5.257h6.487v2.485h-9.146zm15.658 0V22.517h3.579c4.014 0 7.791.136 9.593 4.325a9.769 9.769 0 01.696 3.89 9.7 9.7 0 01-.733 3.865c-1.665 3.914-5.02 4.374-8.836 4.374h-4.3zm2.684-2.485h2.237c2.61 0 4.71-.336 5.766-3.045.329-.878.489-1.81.472-2.747a7.383 7.383 0 00-.472-2.746c-1.094-2.822-3.368-3.058-6.077-3.058h-1.926v11.596zm21.747 3.045l-7.319-17.027h2.771l3.728 8.7c.381.842.677 1.72.882 2.622.214-.9.509-1.777.883-2.622l3.728-8.7h2.746l-7.419 17.027zm11.893-.56V22.517h9.146v2.274h-6.487v4.101h6.487v2.337h-6.487v5.257h6.487v2.485h-9.146zm13.782 0l5.306-8.575-4.697-7.817h2.796l2.361 3.964c.323.522.596 1.082.87 1.616.286-.534.584-1.069.907-1.59l2.485-4.04h2.734l-4.784 7.743 5.145 8.7h-2.933l-2.746-4.649c-.299-.534-.585-1.106-.87-1.653a20.711 20.711 0 01-.895 1.616l-2.871 4.685h-2.808zm-87.624 0V21.883l10.377 10.004c.628.63 1.221 1.294 1.777 1.989v-11.36h2.485v17.027L54.663 29.352a13.107 13.107 0 01-1.579-1.84v11.46h-2.448zm97.986 9.705v-.932h2.759a3.546 3.546 0 01-.994 2.697 3.104 3.104 0 01-2.274.845 3.009 3.009 0 01-2.274-.907 3.413 3.413 0 01-.994-2.486c-.003-.48.086-.957.26-1.404.165-.403.406-.77.709-1.082a3.276 3.276 0 011.106-.72 3.852 3.852 0 013.156.136 2.92 2.92 0 011.081 1.007l-.807.572a2.495 2.495 0 00-.82-.758 2.252 2.252 0 00-1.243-.299 2.485 2.485 0 00-1.777.696 2.49 2.49 0 00-.522.833 2.89 2.89 0 00-.187 1.032 2.565 2.565 0 00.696 1.814 2.2 2.2 0 001.678.672 2.023 2.023 0 001.491-.597c.315-.299.513-.7.559-1.131l-1.603.012zm-14.676 2.486h-1.019V44.09l4.859 5.071v-4.624h1.019v7.085l-4.859-5.071v4.611zm-8.401-6.674h1.032v6.674h-1.032v-6.674zm-5.642.957h-1.541v5.717h-1.019v-5.717h-1.541v-.957h4.101v.957zm-11.793-.957h1.019v5.717h1.964v.957h-2.983v-6.674zm-11.321 0h1.031v4.027c-.03.393.043.787.212 1.143.123.2.294.367.497.485a1.417 1.417 0 001.491 0c.2-.122.37-.288.497-.485.16-.359.232-.75.211-1.143v-3.978h1.019v4.288a2.486 2.486 0 01-.621 1.74 2.382 2.382 0 01-1.852.771 2.485 2.485 0 01-1.864-.77 2.486 2.486 0 01-.621-1.74v-4.338zm-6.214 1.006l-.82.473a.97.97 0 00-.298-.41 1.13 1.13 0 00-.72-.25.947.947 0 00-.697.237.744.744 0 00-.248.572c0 .335.236.609.72.808l.672.273a2.12 2.12 0 01-.584 4.201 1.988 1.988 0 01-1.566-.658 2.223 2.223 0 01-.572-1.306l1.02-.223c-.007.308.089.61.272.857a1.094 1.094 0 00.883.398 1.057 1.057 0 00.783-.31 1.083 1.083 0 00.323-.809.92.92 0 00-.274-.708 2.225 2.225 0 00-.695-.435l-.647-.273a1.826 1.826 0 01-1.354-1.69 1.716 1.716 0 01.522-1.244 1.94 1.94 0 011.429-.51c.487-.02.965.14 1.342.448.207.169.38.375.51.61v-.05zm-14.912 5.668h-.982V44.09l4.86 5.071v-4.624h1.018v7.085l-4.909-5.071.013 4.611zM63.36 49.646a2.372 2.372 0 001.765.708 2.399 2.399 0 001.777-.708 2.747 2.747 0 000-3.63 2.399 2.399 0 00-1.777-.708 2.374 2.374 0 00-1.765.708 2.747 2.747 0 000 3.63zm-.72-4.288a3.578 3.578 0 015.907 3.805 3.579 3.579 0 01-6.902-1.32 3.37 3.37 0 01.982-2.436l.012-.05zm-6.687-.51v1.243a2.647 2.647 0 00-1.814-.746 2.31 2.31 0 00-1.765.721 2.549 2.549 0 00-.67 1.827 2.413 2.413 0 00.695 1.778 2.31 2.31 0 001.753.72 2.572 2.572 0 001.801-.77v1.243a3.492 3.492 0 01-1.839.497 3.406 3.406 0 01-3.442-3.43 3.407 3.407 0 011.081-2.61 3.34 3.34 0 012.411-.87 3.206 3.206 0 011.777.447l.012-.05z" fill="#fff"/></svg>