<svg width="141" height="55" viewBox="0 0 141 55" fill="none" xmlns="http://www.w3.org/2000/svg">
<path fill-rule="evenodd" clip-rule="evenodd" d="M0.686617 49.6761L1.36075 49.4377V46.4384L2.04737 46.0243V54.3569H0V52.324H0.686617V49.6761ZM4.00734 48.4212L4.68148 48.1451V44.2925L5.36809 43.8031V54.3946H3.32073V52.1232L4.00734 52.0604V48.4212ZM7.32807 46.9655L8.00221 46.6392V41.7199L8.73876 41.1301V54.3946H6.64146V51.7718L7.32807 51.6714V46.9655ZM10.6488 45.2839L11.3229 44.9074V38.6328L12.0096 37.9552V54.3946H9.98715V51.2447L10.6738 51.1192L10.6488 45.2839ZM13.9695 43.3137L14.6437 42.8745V35.1442L15.3303 34.3536V54.3946H13.2829V50.5294L13.9695 50.3537V43.3137ZM17.2903 41.0297L17.9769 40.5152V31.0657L18.651 30.1371V54.3946H16.6161V49.6008L17.2903 49.3749V41.0297ZM20.611 38.3442L21.2976 37.7418V26.1966L21.9717 25.1048V54.3946H19.9743V48.3961L20.6484 48.1075L20.611 38.3442ZM23.9317 35.1442L24.6183 34.4038V20.3362C24.843 19.8718 25.0802 19.4201 25.2925 18.9558V54.3946H23.2576V46.8651L23.9317 46.5137V35.1442ZM27.2524 31.1159L27.9391 30.1371V12.769C28.1763 12.1416 28.401 11.5141 28.6132 10.8741V54.3946H26.5783V44.9576L27.2524 44.5058V31.1159ZM31.9339 54.4071H29.9615V42.5105L30.6356 41.9333V25.5315C30.8853 25.017 31.11 24.515 31.3222 24.0005V0.00653076H31.9963L31.9339 54.4071Z" fill="#DCDBD9"/>
<path d="M67.3805 35.3136V20.021H75.8815V22.1347H69.8523V25.9463H75.8815V28.1178H69.8523V33.0036H75.8815V35.3136H67.3805ZM81.9339 35.3136V20.021H85.2604C88.9911 20.021 92.5024 20.1481 94.1772 24.0405C94.6366 25.189 94.8567 26.4192 94.8241 27.6558C94.8445 28.8871 94.6126 30.1096 94.1426 31.2479C92.5948 34.8863 89.4763 35.3136 85.9303 35.3136H81.9339ZM84.4288 33.0036H86.5078C88.9334 33.0036 90.8854 32.6917 91.8672 30.1737C92.1726 29.358 92.3215 28.492 92.3061 27.6211C92.3232 26.7501 92.1742 25.8838 91.8672 25.0685C90.8507 22.4466 88.737 22.2271 86.2191 22.2271H84.4288V33.0036ZM104.642 35.8334L97.8387 20.0095H100.414L103.879 28.0947C104.234 28.8776 104.508 29.6941 104.7 30.5318C104.898 29.6961 105.172 28.8803 105.52 28.0947L108.985 20.0095H111.537L104.642 35.8334ZM115.695 35.3136V20.021H124.197V22.1347H118.167V25.9463H124.197V28.1178H118.167V33.0036H124.197V35.3136H115.695ZM128.505 35.3136L133.437 27.3439L129.071 20.0788H131.67L133.864 23.7633C134.164 24.2484 134.419 24.7682 134.673 25.2649C134.938 24.7682 135.216 24.2715 135.516 23.7864L137.826 20.0326H140.367L135.92 27.2284L140.702 35.3136H137.976L135.423 30.9938C135.146 30.4972 134.881 29.9658 134.615 29.4576C134.361 29.9658 134.084 30.4741 133.783 30.9592L131.115 35.3136H128.505ZM47.0635 35.3136V19.4319L56.708 28.73C57.2918 29.3155 57.8431 29.9324 58.3597 30.578V20.021H60.6698V35.845L50.8058 26.3737C50.2651 25.8504 49.774 25.2781 49.3389 24.6642V35.3136H47.0635Z" fill="#DCDBD9"/>
<path d="M138.137 44.3377V43.4714H140.701C140.731 43.9306 140.664 44.3909 140.505 44.8226C140.345 45.2543 140.098 45.6478 139.777 45.9778C139.495 46.2438 139.163 46.4505 138.8 46.5854C138.437 46.7203 138.05 46.7808 137.663 46.7633C137.271 46.7788 136.881 46.7118 136.517 46.5665C136.152 46.4213 135.823 46.201 135.549 45.9201C135.248 45.617 135.011 45.2562 134.852 44.8593C134.693 44.4623 134.616 44.0374 134.625 43.61C134.623 43.1635 134.705 42.7207 134.868 42.3048C135.021 41.9309 135.245 41.5898 135.526 41.3C135.82 41.0093 136.17 40.7814 136.554 40.63C137.025 40.4426 137.529 40.3571 138.035 40.379C138.541 40.4009 139.036 40.5297 139.488 40.7571C139.898 40.9777 140.244 41.2998 140.493 41.6927L139.742 42.224C139.545 41.9343 139.284 41.6934 138.98 41.5194C138.63 41.3173 138.229 41.221 137.825 41.2422C137.521 41.2359 137.218 41.2898 136.934 41.4008C136.651 41.5118 136.392 41.6777 136.173 41.889C135.962 42.1121 135.797 42.3752 135.688 42.6629C135.572 42.9691 135.513 43.2941 135.515 43.6216C135.5 44.2468 135.733 44.8527 136.162 45.3079C136.363 45.5164 136.605 45.6798 136.874 45.7873C137.143 45.8948 137.432 45.944 137.721 45.9316C137.978 45.9386 138.233 45.893 138.471 45.7977C138.71 45.7023 138.926 45.5592 139.107 45.3772C139.4 45.0997 139.584 44.7271 139.627 44.3261L138.137 44.3377ZM124.496 46.6478H123.549V40.0756L128.065 44.7882V40.4914H129.012V47.0751L124.496 42.3626V46.6478ZM116.688 40.4452H117.646V46.6478H116.688V40.4452ZM111.444 41.3346H110.012V46.6478H109.065V41.3346H107.632V40.4452H111.444V41.3346ZM100.483 40.4452H101.43V45.7584H103.255V46.6478H100.483V40.4452ZM89.9604 40.4452H90.9191V44.1875C90.8913 44.5528 90.959 44.919 91.1154 45.2502C91.2301 45.436 91.3887 45.5907 91.5774 45.7006C91.7856 45.8295 92.0256 45.8978 92.2704 45.8978C92.5153 45.8978 92.7553 45.8295 92.9635 45.7006C93.1495 45.5873 93.3074 45.4332 93.4255 45.2502C93.574 44.9165 93.6413 44.5523 93.6218 44.1875V40.4914H94.569V44.4763C94.5914 45.0695 94.3846 45.6485 93.9914 46.0933C93.7742 46.3311 93.5076 46.5184 93.2103 46.6421C92.913 46.7658 92.5922 46.8229 92.2704 46.8095C91.9477 46.8178 91.6267 46.7584 91.3283 46.6351C91.0298 46.5117 90.7606 46.3272 90.5379 46.0933C90.1448 45.6485 89.938 45.0695 89.9604 44.4763V40.4452ZM84.1852 41.3808L83.4229 41.8197C83.366 41.6703 83.2703 41.5388 83.1457 41.4386C82.9559 41.2863 82.7191 41.2047 82.4758 41.2076C82.3588 41.1991 82.2412 41.2141 82.1301 41.2518C82.0191 41.2895 81.9166 41.3491 81.829 41.427C81.7544 41.4937 81.6951 41.5757 81.6553 41.6674C81.6154 41.7591 81.5958 41.8583 81.598 41.9583C81.598 42.2702 81.8174 42.5243 82.2679 42.7091L82.8916 42.9632C83.4093 43.0352 83.8772 43.3099 84.1924 43.7269C84.5075 44.1438 84.6441 44.6689 84.5722 45.1866C84.5002 45.7043 84.2255 46.1722 83.8085 46.4874C83.3915 46.8026 82.8664 46.9392 82.3487 46.8672C82.076 46.879 81.804 46.8302 81.5524 46.7244C81.3008 46.6185 81.0757 46.4582 80.8934 46.255C80.5881 45.92 80.4014 45.4938 80.3621 45.0423L81.3092 44.8344C81.3033 45.1208 81.3927 45.4011 81.5633 45.6313C81.6625 45.7517 81.788 45.8477 81.9302 45.9118C82.0724 45.9759 82.2275 46.0064 82.3834 46.0009C82.518 46.0053 82.6521 45.9819 82.7772 45.9322C82.9024 45.8825 83.016 45.8076 83.111 45.7122C83.2104 45.6147 83.2884 45.4976 83.34 45.3683C83.3917 45.2391 83.416 45.1005 83.4114 44.9614C83.4183 44.8399 83.3992 44.7183 83.3554 44.6048C83.3116 44.4912 83.244 44.3884 83.1572 44.303C82.9686 44.1293 82.7492 43.9922 82.5104 43.8988L81.9098 43.6447C81.5599 43.5513 81.2489 43.3486 81.0224 43.066C80.7959 42.7833 80.6657 42.4357 80.6508 42.0738C80.6495 41.8585 80.6918 41.6452 80.7752 41.4467C80.8585 41.2481 80.9813 41.0686 81.1359 40.9188C81.3141 40.7546 81.5236 40.628 81.7518 40.5467C81.9801 40.4653 82.2224 40.4308 82.4642 40.4452C82.917 40.4262 83.3609 40.5742 83.7117 40.861C83.9043 41.0177 84.065 41.2098 84.1852 41.427V41.3808ZM70.3248 46.6478H69.4124V40.0756L73.9285 44.7882V40.4914H74.8757V47.0751L70.3133 42.3626L70.3248 46.6478ZM58.89 45.2386C59.1033 45.4555 59.359 45.6259 59.6413 45.7392C59.9235 45.8525 60.2262 45.9062 60.5302 45.897C60.8359 45.9064 61.1403 45.8529 61.4245 45.7396C61.7087 45.6263 61.9665 45.4558 62.1819 45.2386C62.592 44.7726 62.8182 44.1731 62.8182 43.5523C62.8182 42.9315 62.592 42.332 62.1819 41.8659C61.9665 41.6487 61.7087 41.4782 61.4245 41.3649C61.1403 41.2517 60.8359 41.1981 60.5302 41.2076C60.2262 41.1983 59.9235 41.252 59.6413 41.3653C59.359 41.4786 59.1033 41.6491 58.89 41.8659C58.4799 42.332 58.2537 42.9315 58.2537 43.5523C58.2537 44.1731 58.4799 44.7726 58.89 45.2386ZM58.2201 41.2538C58.7543 40.696 59.4659 40.3415 60.2328 40.251C60.9998 40.1605 61.7744 40.3397 62.4237 40.7579C63.073 41.176 63.5565 41.807 63.7914 42.5427C64.0263 43.2784 63.998 44.0729 63.7111 44.79C63.4243 45.5071 62.8969 46.102 62.2194 46.4727C61.542 46.8434 60.7566 46.9669 59.998 46.8219C59.2395 46.6769 58.555 46.2725 58.062 45.678C57.569 45.0836 57.2982 44.3361 57.2961 43.5638C57.2888 43.1446 57.3658 42.7282 57.5226 42.3393C57.6793 41.9504 57.9126 41.597 58.2086 41.3L58.2201 41.2538ZM52.006 40.7802V41.9352C51.5534 41.4968 50.9498 41.2487 50.3197 41.2422C50.0144 41.2308 49.7102 41.2847 49.4273 41.4002C49.1445 41.5157 48.8896 41.6903 48.6795 41.9121C48.2551 42.3732 48.0308 42.9838 48.0558 43.61C48.0455 43.9149 48.0976 44.2186 48.2088 44.5026C48.3201 44.7866 48.4881 45.0449 48.7026 45.2617C48.9114 45.4821 49.1644 45.6557 49.4451 45.7712C49.7259 45.8867 50.0279 45.9414 50.3312 45.9316C50.9621 45.9233 51.5641 45.6659 52.006 45.2155V46.3705C51.4901 46.68 50.8982 46.84 50.2966 46.8326C49.8761 46.8372 49.459 46.758 49.0695 46.5995C48.68 46.4411 48.3259 46.2066 48.0281 45.9098C47.7302 45.6131 47.4945 45.2599 47.3346 44.871C47.1748 44.482 47.0941 44.0651 47.0971 43.6447C47.0813 43.192 47.1628 42.7412 47.3362 42.3228C47.5096 41.9043 47.7707 41.528 48.102 41.2191C48.404 40.9436 48.7573 40.7303 49.1418 40.5916C49.5264 40.4528 49.9345 40.3913 50.3428 40.4106C50.9221 40.3855 51.4961 40.5301 51.9945 40.8264L52.006 40.7802Z" fill="#DCDBD9"/>
</svg>
