<svg width="98" height="38" viewBox="0 0 98 38" fill="none" xmlns="http://www.w3.org/2000/svg">
<path fill-rule="evenodd" clip-rule="evenodd" d="M0.47476 34.3439L0.940887 34.179V32.1052L1.41565 31.8189V37.5805H0V36.1748H0.47476V34.3439ZM2.77087 33.4762L3.237 33.2853V30.6214L3.71176 30.283V37.6065H2.29611V36.0359L2.77087 35.9925V33.4762ZM5.06698 32.4697L5.53311 32.244V28.8426L6.04239 28.4348V37.6065H4.59222V35.793L5.06698 35.7236V32.4697ZM7.36309 31.3069L7.82922 31.0466V26.7081L8.30398 26.2395V37.6065H6.90559V35.4285L7.38035 35.3418L7.36309 31.3069ZM9.6592 29.9446L10.1253 29.6409V24.2958L10.6001 23.7492V37.6065H9.18444V34.9339L9.6592 34.8125V29.9446ZM11.9553 28.3654L12.4301 28.0096V21.4758L12.8962 20.8337V37.6065H11.4892V34.2918L11.9553 34.1357V28.3654ZM14.2514 26.5085L14.7262 26.092V18.1091L15.1923 17.3542V37.6065H13.8112V33.4588L14.2773 33.2593L14.2514 26.5085ZM16.5475 24.2958L17.0223 23.7839V14.0569C17.1777 13.7358 17.3417 13.4235 17.4884 13.1024V37.6065H16.0814V32.4002L16.5475 32.1573V24.2958ZM18.8436 21.5105L19.3184 20.8337V8.8246C19.4824 8.39074 19.6378 7.95689 19.7845 7.51436V37.6065H18.3775V31.0813L18.8436 30.7689V21.5105ZM22.0806 37.6152H20.7168V29.3893L21.1829 28.9901V17.6492C21.3555 17.2934 21.5109 16.9463 21.6577 16.5906V0H22.1238L22.0806 37.6152Z" fill="#A5A5A5"/>
<path d="M46.5901 24.413V13.839H52.4682V15.3005H48.2992V17.936H52.4682V19.4375H48.2992V22.8157H52.4682V24.413H46.5901ZM56.6531 24.413V13.839H58.9532C61.5328 13.839 63.9607 13.9268 65.1187 16.6182C65.4363 17.4124 65.5885 18.263 65.5659 19.118C65.5801 19.9694 65.4197 20.8147 65.0947 21.6018C64.0245 24.1175 61.8682 24.413 59.4164 24.413H56.6531ZM58.3781 22.8157H59.8157C61.4928 22.8157 62.8426 22.6001 63.5214 20.859C63.7326 20.295 63.8355 19.6962 63.8249 19.094C63.8367 18.4918 63.7337 17.8928 63.5214 17.329C62.8186 15.5161 61.3571 15.3644 59.616 15.3644H58.3781V22.8157ZM72.3544 24.7724L67.6504 13.831H69.4314L71.8273 19.4215C72.0721 19.9629 72.2621 20.5274 72.3943 21.1066C72.5315 20.5288 72.7213 19.9647 72.9614 19.4215L75.3573 13.831H77.1223L72.3544 24.7724ZM79.9974 24.413V13.839H85.8755V15.3005H81.7065V17.936H85.8755V19.4375H81.7065V22.8157H85.8755V24.413H79.9974ZM88.8544 24.413L92.2646 18.9024L89.2457 13.8789H91.0427L92.5601 16.4266C92.7677 16.762 92.9435 17.1214 93.1192 17.4648C93.3028 17.1214 93.4945 16.778 93.7022 16.4425L95.2995 13.847H97.0565L93.9817 18.8225L97.2881 24.413H95.4033L93.6383 21.4261C93.4466 21.0827 93.2629 20.7153 93.0792 20.3639C92.9035 20.7153 92.7118 21.0667 92.5042 21.4021L90.6593 24.413H88.8544ZM32.542 24.413V13.4317L39.2107 19.8607C39.6143 20.2656 39.9956 20.6922 40.3527 21.1386V13.839H41.95V24.7804L35.1296 18.2315C34.7557 17.8697 34.4162 17.474 34.1153 17.0495V24.413H32.542Z" fill="#A5A5A5"/>
<path d="M95.5149 30.6526V30.0537H97.2879C97.3084 30.3711 97.2622 30.6894 97.1522 30.9879C97.0421 31.2864 96.8707 31.5585 96.649 31.7867C96.4543 31.9707 96.2245 32.1135 95.9734 32.2068C95.7224 32.3001 95.4551 32.3419 95.1875 32.3298C94.9166 32.3406 94.6465 32.2942 94.3947 32.1938C94.1429 32.0933 93.9151 31.941 93.726 31.7468C93.5175 31.5372 93.3534 31.2878 93.2436 31.0133C93.1338 30.7388 93.0806 30.445 93.087 30.1495C93.0854 29.8408 93.1424 29.5346 93.2548 29.247C93.3607 28.9885 93.5153 28.7526 93.71 28.5522C93.9131 28.3512 94.1549 28.1936 94.4208 28.089C94.7459 27.9594 95.0948 27.9003 95.4445 27.9154C95.7941 27.9305 96.1366 28.0197 96.4493 28.1768C96.7326 28.3294 96.9718 28.5521 97.1442 28.8238L96.625 29.1911C96.4886 28.9909 96.3083 28.8243 96.0979 28.704C95.8559 28.5642 95.5784 28.4976 95.2993 28.5123C95.0888 28.5079 94.8796 28.5452 94.6836 28.6219C94.4876 28.6987 94.3087 28.8134 94.1572 28.9595C94.0109 29.1138 93.8969 29.2957 93.8218 29.4946C93.7415 29.7063 93.7009 29.931 93.702 30.1575C93.692 30.5898 93.8527 31.0087 94.1492 31.3235C94.2882 31.4676 94.4561 31.5806 94.642 31.655C94.8279 31.7293 95.0274 31.7633 95.2274 31.7548C95.4049 31.7596 95.5814 31.7281 95.7462 31.6621C95.911 31.5962 96.0606 31.4973 96.1858 31.3714C96.3881 31.1795 96.5155 30.9219 96.5452 30.6447L95.5149 30.6526ZM86.0829 32.2499H85.428V27.7057L88.5507 30.9641V27.9932H89.2056V32.5454L86.0829 29.287V32.2499ZM80.6841 27.9612H81.347V32.2499H80.6841V27.9612ZM77.0583 28.5762H76.0679V32.2499H75.4131V28.5762H74.4227V27.9612H77.0583V28.5762ZM69.4791 27.9612H70.134V31.635H71.3959V32.2499H69.4791V27.9612ZM62.2035 27.9612H62.8664V30.5488C62.8472 30.8014 62.894 31.0546 63.0021 31.2836C63.0814 31.4121 63.1911 31.5191 63.3216 31.595C63.4655 31.6842 63.6315 31.7314 63.8008 31.7314C63.9701 31.7314 64.136 31.6842 64.28 31.595C64.4086 31.5167 64.5178 31.4102 64.5994 31.2836C64.7021 31.0528 64.7486 30.801 64.7352 30.5488V27.9932H65.3901V30.7485C65.4056 31.1586 65.2626 31.559 64.9907 31.8666C64.8406 32.031 64.6562 32.1605 64.4506 32.246C64.245 32.3316 64.0232 32.3711 63.8008 32.3617C63.5776 32.3675 63.3556 32.3264 63.1493 32.2412C62.943 32.1559 62.7568 32.0283 62.6028 31.8666C62.331 31.559 62.188 31.1586 62.2035 30.7485V27.9612ZM58.2103 28.6081L57.6831 28.9116C57.6438 28.8083 57.5776 28.7173 57.4915 28.648C57.3602 28.5428 57.1965 28.4863 57.0283 28.4883C56.9474 28.4824 56.8661 28.4928 56.7893 28.5189C56.7125 28.545 56.6416 28.5862 56.581 28.6401C56.5295 28.6861 56.4885 28.7428 56.4609 28.8063C56.4334 28.8697 56.4198 28.9383 56.4213 29.0074C56.4213 29.2231 56.573 29.3988 56.8845 29.5266L57.3158 29.7023C57.6737 29.752 57.9973 29.942 58.2152 30.2303C58.4331 30.5186 58.5276 30.8817 58.4778 31.2396C58.428 31.5976 58.2381 31.9211 57.9498 32.1391C57.6614 32.357 57.2984 32.4515 56.9404 32.4017C56.7518 32.4098 56.5638 32.3761 56.3898 32.3029C56.2158 32.2297 56.0602 32.1189 55.9341 31.9784C55.723 31.7467 55.594 31.4521 55.5667 31.1398L56.2216 30.9961C56.2176 31.1941 56.2794 31.388 56.3973 31.5471C56.4659 31.6304 56.5527 31.6967 56.651 31.7411C56.7494 31.7854 56.8566 31.8065 56.9644 31.8027C57.0574 31.8057 57.1501 31.7895 57.2367 31.7552C57.3233 31.7208 57.4018 31.669 57.4675 31.603C57.5362 31.5356 57.5901 31.4546 57.6259 31.3653C57.6616 31.2759 57.6784 31.1801 57.6752 31.0839C57.68 30.9999 57.6668 30.9158 57.6365 30.8373C57.6062 30.7588 57.5595 30.6877 57.4995 30.6287C57.369 30.5086 57.2173 30.4138 57.0522 30.3492L56.6369 30.1735C56.395 30.1089 56.1799 29.9687 56.0233 29.7733C55.8667 29.5779 55.7767 29.3375 55.7664 29.0873C55.7655 28.9384 55.7947 28.7909 55.8524 28.6536C55.91 28.5164 55.9949 28.3922 56.1018 28.2887C56.225 28.1751 56.3699 28.0876 56.5277 28.0314C56.6855 27.9751 56.853 27.9512 57.0203 27.9612C57.3333 27.9481 57.6403 28.0504 57.8828 28.2487C58.016 28.357 58.1271 28.4899 58.2103 28.6401V28.6081ZM48.6265 32.2499H47.9956V27.7057L51.1183 30.9641V27.9932H51.7732V32.5454L48.6185 29.287L48.6265 32.2499ZM40.7199 31.2756C40.8674 31.4255 41.0442 31.5434 41.2394 31.6217C41.4346 31.7001 41.6438 31.7372 41.854 31.7308C42.0654 31.7374 42.2759 31.7003 42.4724 31.622C42.6689 31.5437 42.8471 31.4258 42.9961 31.2756C43.2797 30.9534 43.4361 30.5388 43.4361 30.1096C43.4361 29.6803 43.2797 29.2658 42.9961 28.9435C42.8471 28.7934 42.6689 28.6755 42.4724 28.5971C42.2759 28.5188 42.0654 28.4818 41.854 28.4883C41.6438 28.4819 41.4346 28.5191 41.2394 28.5974C41.0442 28.6757 40.8674 28.7936 40.7199 28.9435C40.4364 29.2658 40.2799 29.6803 40.2799 30.1096C40.2799 30.5388 40.4364 30.9534 40.7199 31.2756ZM40.2567 28.5203C40.6261 28.1346 41.1181 27.8895 41.6484 27.8269C42.1788 27.7643 42.7143 27.8883 43.1633 28.1774C43.6122 28.4665 43.9466 28.9028 44.109 29.4115C44.2714 29.9202 44.2518 30.4696 44.0535 30.9654C43.8552 31.4612 43.4905 31.8726 43.0221 32.1289C42.5536 32.3852 42.0106 32.4706 41.4861 32.3704C40.9616 32.2701 40.4883 31.9905 40.1474 31.5794C39.8065 31.1684 39.6193 30.6516 39.6178 30.1176C39.6128 29.8277 39.666 29.5397 39.7744 29.2709C39.8828 29.002 40.0441 28.7576 40.2487 28.5522L40.2567 28.5203ZM35.96 28.1928V28.9915C35.6471 28.6883 35.2297 28.5168 34.794 28.5123C34.5829 28.5044 34.3726 28.5417 34.177 28.6215C33.9814 28.7014 33.8052 28.8221 33.6599 28.9755C33.3665 29.2943 33.2114 29.7165 33.2287 30.1495C33.2216 30.3603 33.2576 30.5703 33.3345 30.7667C33.4114 30.9631 33.5276 31.1417 33.6759 31.2916C33.8202 31.4439 33.9952 31.564 34.1893 31.6439C34.3834 31.7237 34.5922 31.7615 34.802 31.7548C35.2382 31.749 35.6545 31.571 35.96 31.2596V32.0583C35.6033 32.2722 35.194 32.3828 34.778 32.3777C34.4873 32.3809 34.1989 32.3261 33.9295 32.2166C33.6602 32.107 33.4154 31.9449 33.2095 31.7397C33.0035 31.5345 32.8405 31.2903 32.73 31.0214C32.6195 30.7524 32.5637 30.4642 32.5658 30.1735C32.5548 29.8605 32.6112 29.5488 32.7311 29.2594C32.8509 28.9701 33.0315 28.7099 33.2606 28.4963C33.4694 28.3058 33.7137 28.1583 33.9796 28.0624C34.2455 27.9665 34.5276 27.9239 34.81 27.9373C35.2105 27.9199 35.6074 28.0199 35.952 28.2248L35.96 28.1928Z" fill="#A5A5A5"/>
</svg>
