<svg width="11" height="11" viewBox="0 0 11 11" fill="none" xmlns="http://www.w3.org/2000/svg">
<path d="M2.25933 9.03848C2.17371 9.03848 2.09161 9.00447 2.03107 8.94394C1.97053 8.8834 1.93652 8.80129 1.93652 8.71568V1.61404C1.93655 1.55736 1.9515 1.50168 1.97987 1.45261C2.00824 1.40354 2.04904 1.3628 2.09815 1.3345C2.14726 1.3062 2.20296 1.29133 2.25964 1.29138C2.31632 1.29144 2.37199 1.30642 2.42105 1.33482L8.55428 4.88564C8.6032 4.91401 8.64381 4.95474 8.67203 5.00375C8.70026 5.05275 8.71511 5.10831 8.71511 5.16486C8.71511 5.22141 8.70026 5.27697 8.67203 5.32597C8.64381 5.37498 8.6032 5.41571 8.55428 5.44408L2.42105 8.9949C2.37193 9.02343 2.31613 9.03847 2.25933 9.03848Z" fill="white"/>
</svg>
