<svg width="127" height="54" viewBox="0 0 127 54" fill="none" xmlns="http://www.w3.org/2000/svg">
<g clip-path="url(#clip0)">
<path d="M76.6581 10.8057H62.7413V12.0613C63.2989 12.1047 63.8531 12.1831 64.4005 12.2961C64.8323 12.3737 65.2383 12.5541 65.5832 12.8216C66.4161 13.5194 66.3986 14.8268 66.3986 17.1938V33.0867C66.3986 36.3174 66.6916 40.9007 62.0417 40.8404C60.0458 40.8145 57.9996 39.4145 57.3634 36.858H55.7632C56.4409 41.1419 58.756 44.0474 64.3699 44.0474H64.3961C69.1641 44.0474 73.4204 41.8936 73.4139 34.5534V17.1938C73.4139 14.8246 73.3964 13.5733 74.2271 12.8733C74.7649 12.4275 75.2021 12.2056 76.6581 12.0613V10.8057Z" fill="white"/>
<path d="M92.6345 10.8057H78.7002V12.0613C80.1561 12.2013 80.5956 12.421 81.1268 12.869C81.7935 13.429 81.9138 14.3465 81.9356 15.9059C81.9356 16.3797 81.9356 16.9052 81.9356 17.4954V36.5048C81.9356 37.0949 81.9356 37.6204 81.9356 38.0943C81.9138 39.6558 81.7935 40.5711 81.1268 41.1311C80.5956 41.5791 80.1561 41.7988 78.7002 41.9388V43.2009H99.7459L101.965 36.8537H100.343C98.725 40.3407 96.2241 40.7478 93.9418 40.7478C92.077 40.7478 90.8353 40.6444 89.9543 40.0822C89.2438 39.6342 88.9793 38.454 88.9662 36.4531V17.1938C88.9662 14.8247 88.9487 13.5194 89.7794 12.8216C90.3106 12.3736 91.1851 12.2078 92.641 12.0678V10.8057H92.6345Z" fill="white"/>
<path d="M115.842 10.8057H101.915V12.0613C103.368 12.2013 103.808 12.421 104.339 12.869C105.006 13.429 105.126 14.3465 105.148 15.9059C105.148 16.3797 105.148 16.9052 105.148 17.4954V36.5048C105.148 37.0949 105.148 37.6204 105.148 38.0943C105.126 39.6558 105.006 40.5711 104.339 41.1311C103.808 41.5791 103.368 41.7988 101.915 41.9388V43.2009H122.958L125.179 36.8537H123.544C121.926 40.3407 119.425 40.7478 117.143 40.7478C115.278 40.7478 114.037 40.6444 113.156 40.0822C112.445 39.6342 112.181 38.454 112.167 36.4531V17.1938C112.167 14.8247 112.15 13.5194 112.983 12.8216C113.514 12.3736 114.389 12.2078 115.842 12.0678V10.8057Z" fill="white"/>
<path d="M22.4361 52.9835C23.0838 52.6874 23.7041 52.3365 24.29 51.9346C24.4146 51.8484 24.5436 51.7687 24.6638 51.6783C25.4009 51.1296 26.0884 50.5193 26.7187 49.854C27.5512 48.9825 28.3033 48.0397 28.9661 47.0368C29.4932 46.2447 29.9777 45.4258 30.4176 44.5836C32.0971 41.2556 33.2333 37.6875 33.7843 34.0107C34.1442 31.6943 34.3225 29.3541 34.3177 27.0108C34.3226 24.6668 34.1442 22.3259 33.7843 20.0088C33.2334 16.3327 32.0972 12.7652 30.4176 9.43799C30.2187 9.05461 30.0067 8.67554 29.7902 8.30078C28.8858 9.94569 28.1287 11.6652 27.5276 13.4397C28.621 16.7008 29.2881 20.0858 29.5126 23.513C29.5935 24.6696 29.6241 25.8348 29.6263 27C29.6263 28.1653 29.5979 29.3305 29.517 30.487C29.2547 34.6752 28.3091 38.7944 26.7166 42.6861C26.0867 44.1911 25.3352 45.6439 24.4692 47.0304C24.2659 47.3577 24.0757 47.6916 23.8593 48.0103C23.4221 48.6565 22.9411 49.2897 22.434 49.9078C21.8568 50.6172 21.2378 51.2925 20.5801 51.9302C19.8825 52.6053 19.1334 53.2267 18.3394 53.789C18.276 53.8342 18.217 53.8816 18.1514 53.9268V54C19.6348 53.9506 21.0925 53.6047 22.4361 52.9835Z" fill="#E30613"/>
<path d="M30.9987 52.9838C31.647 52.6877 32.268 52.3368 32.8547 51.9349C32.9771 51.8487 33.1061 51.769 33.2285 51.6786C35.712 49.8457 37.5789 47.2805 38.9802 44.571C40.6606 41.2434 41.7968 37.6751 42.3468 33.998C42.7067 31.6817 42.8851 29.3415 42.8802 26.9982C42.8847 24.6543 42.7071 22.3134 42.349 19.9962C41.7983 16.3198 40.6613 12.7521 38.9802 9.42537C37.686 6.92912 35.9896 4.55563 33.7794 2.76367C33.0761 3.51393 32.4191 4.30508 31.8119 5.13285C32.0233 5.42002 32.2287 5.70719 32.4284 5.99437C35.9612 11.1635 37.6554 17.3513 38.0861 23.5177C38.1677 24.675 38.2078 25.8373 38.2063 27.0047C38.2063 28.1699 38.167 29.3351 38.0861 30.4917C37.6489 36.658 35.959 42.848 32.4284 48.0149C31.9912 48.6611 31.5102 49.2943 31.0031 49.9124C30.4255 50.6208 29.8073 51.2961 29.1514 51.9349C28.4533 52.6094 27.7043 53.2308 26.9107 53.7936L26.7227 53.9314V54.0047C28.2034 53.9527 29.6581 53.6054 30.9987 52.9838Z" fill="#E30613"/>
<path d="M41.7922 51.6739C44.2778 49.8432 46.1426 47.2758 47.5439 44.5664C49.225 41.2388 50.362 37.6705 50.9127 33.9934C51.273 31.6771 51.4506 29.3368 51.4439 26.9935C51.4488 24.6495 51.2705 22.3086 50.9105 19.9915C50.3598 16.3151 49.2228 12.7475 47.5417 9.42071C46.1404 6.71769 44.2757 4.15037 41.79 2.31318C39.9384 0.95844 37.6146 0.0581525 35.2842 0V0.0732291C37.5534 1.63042 39.4706 3.76268 40.9899 5.98971C44.5227 11.1588 46.2169 17.3467 46.6498 23.513C46.7285 24.6703 46.7685 25.8326 46.77 27C46.7715 28.1674 46.7314 29.3297 46.6498 30.487C46.2125 36.6533 44.5227 42.8433 40.9899 48.0103C39.4597 50.2373 37.5534 52.3696 35.2842 53.9268V54C37.6146 53.9418 39.9384 53.0416 41.7922 51.6739Z" fill="#E30613"/>
<path d="M31.0012 1.01875C30.3536 1.31551 29.7333 1.66719 29.1474 2.0698C29.0228 2.1538 28.8938 2.23564 28.7736 2.3261C28.0371 2.87459 27.3496 3.48418 26.7187 4.14821C25.8867 5.02093 25.1347 5.96437 24.4713 6.96753C23.944 7.76175 23.4595 8.58276 23.0198 9.42717C21.3402 12.7544 20.204 16.3219 19.6531 19.998C19.2932 22.3151 19.1148 24.656 19.1197 27C19.1149 29.3433 19.2932 31.6835 19.6531 33.9998C20.203 37.6803 21.3392 41.2522 23.0198 44.5836C23.2187 44.967 23.4307 45.346 23.6472 45.7208C24.5531 44.0729 25.3102 42.3497 25.9098 40.5711C24.8141 37.3103 24.1449 33.9253 23.9182 30.4978C23.8374 29.3412 23.8068 28.176 23.8046 27.0108C23.8046 25.8456 23.833 24.6804 23.9139 23.5238C24.1761 19.3356 25.1217 15.2164 26.7143 11.3247C27.3455 9.81535 28.0985 8.35831 28.966 6.96753C29.1693 6.64231 29.3595 6.30847 29.5759 5.98971C30.0131 5.34357 30.4941 4.71035 31.0012 4.09221C31.5784 3.38282 32.1974 2.70752 32.8551 2.0698C33.5524 1.39569 34.3015 0.775708 35.0958 0.21538C35.1592 0.17015 35.2183 0.120613 35.2838 0.0775367V0C33.801 0.050345 32.344 0.396935 31.0012 1.01875Z" fill="#E30613"/>
<path d="M22.4383 1.01875C21.7899 1.31551 21.1689 1.66718 20.5823 2.0698C20.4599 2.1538 20.3309 2.23564 20.2085 2.3261C17.725 4.15683 15.8581 6.72415 14.4568 9.43363C12.7764 12.7605 11.6402 16.3281 11.0902 20.0045C10.7302 22.3215 10.5519 24.6624 10.5568 27.0065C10.5512 29.3497 10.7288 31.6899 11.088 34.0063C11.6393 37.6847 12.7762 41.2543 14.4568 44.5836C15.751 47.0799 17.4474 49.4533 19.6576 51.2453C20.36 50.4981 21.017 49.7106 21.6251 48.8869C21.4137 48.5997 21.2082 48.3125 21.0086 48.0254C17.478 42.8563 15.7816 36.6684 15.3509 30.5021C15.27 29.3455 15.2307 28.1803 15.2307 27.0151C15.2307 25.8499 15.27 24.6847 15.3509 23.5281C15.7881 17.3618 17.478 11.1717 21.0086 6.00479C21.4458 5.35865 21.9267 4.72543 22.4339 4.10729C23.0115 3.39891 23.6297 2.72367 24.2856 2.08488C24.9846 1.40642 25.7352 0.781449 26.5307 0.21538C26.5941 0.17015 26.6553 0.120613 26.7187 0.0775367V0C25.2366 0.0506349 23.7804 0.397218 22.4383 1.01875Z" fill="#E30613"/>
<path d="M11.645 2.3261C9.15942 4.15683 7.29467 6.72415 5.90211 9.42717C4.21798 12.7534 3.07807 16.3211 2.52457 19.998C2.16427 22.315 1.98666 24.656 1.99335 27C1.9885 29.3433 2.16683 31.6835 2.52676 33.9998C3.07844 37.681 4.21763 41.2531 5.90211 44.5836C7.30341 47.2866 9.16817 49.8539 11.6538 51.6911C13.5076 53.0588 15.8314 53.9591 18.1618 54.0172V53.944C15.8861 52.3696 13.9689 50.2373 12.4605 48.0103C8.92769 42.8412 7.23346 36.6533 6.80061 30.487C6.72191 29.3304 6.68256 28.1652 6.68256 27C6.68256 25.8348 6.72191 24.6696 6.80061 23.513C7.21378 17.3467 8.91676 11.1567 12.4605 5.98971C13.9689 3.76268 15.8861 1.63042 18.1553 0.0732291V0C15.8227 0.0581525 13.4989 0.958439 11.645 2.3261Z" fill="#E30613"/>
<path d="M28.2201 51.2349C28.9241 50.4852 29.5812 49.694 30.1876 48.8657C29.9748 48.5785 29.7693 48.2914 29.5711 48.0042C29.3525 47.6854 29.1645 47.3581 28.9612 47.0264C28.2978 48.0295 27.5458 48.973 26.7139 49.8457C27.1855 50.3362 27.6871 50.798 28.2157 51.2284" fill="#E30613"/>
<path d="M32.8548 51.9307C32.2692 52.3336 31.6489 52.6853 31.001 52.9817C32.3431 53.6032 33.7993 53.9498 35.2814 54.0005V53.9272C34.4178 53.329 33.6062 52.6612 32.8548 51.9307Z" fill="#E30613"/>
<path d="M25.9098 53.9445C26.1415 53.9208 26.3732 53.882 26.6028 53.8432C26.3688 53.6796 26.1371 53.5116 25.9098 53.3349C25.3445 52.8959 24.8038 52.4272 24.2899 51.9307C23.704 52.3333 23.0837 52.685 22.436 52.9817C23.3224 53.3831 24.2567 53.6725 25.2168 53.8432C25.4485 53.882 25.678 53.9208 25.9098 53.9445ZM26.7186 54.0005V53.9272C26.6793 53.8992 26.6421 53.8691 26.6028 53.8432C26.3841 53.882 26.1415 53.9208 25.9098 53.9445C26.1787 53.9725 26.4497 53.994 26.7186 54.0005Z" fill="#E30613"/>
<path d="M25.217 2.76562C24.5136 3.51583 23.8566 4.30698 23.2495 5.1348C23.4608 5.42198 23.6663 5.70915 23.866 5.99632C24.0846 6.31508 24.2726 6.64246 24.4781 6.97415C25.1407 5.97102 25.892 5.02758 26.7232 4.15482C26.2521 3.66375 25.7505 3.20195 25.2214 2.77209" fill="#E30613"/>
<path d="M20.5845 2.0698C21.1701 1.66673 21.7904 1.31503 22.4384 1.01875C21.0954 0.397445 19.6385 0.0508807 18.1558 0V0V0.0732291C19.02 0.671439 19.8324 1.33925 20.5845 2.0698Z" fill="#E30613"/>
<path d="M31.0009 1.01875C30.1145 0.617384 29.1801 0.327921 28.2201 0.157227C27.9818 0.118459 27.7632 0.0796905 27.5271 0.0559987C27.2582 0.0279994 26.9893 0.00646139 26.7183 0V0.0732291C26.7576 0.101228 26.7948 0.131382 26.8341 0.157227C27.068 0.320916 27.2998 0.488912 27.5271 0.663369C28.0924 1.10311 28.6331 1.57261 29.147 2.0698C29.7329 1.66719 30.3532 1.31551 31.0009 1.01875Z" fill="#E30613"/>
</g>
<defs>
<clipPath id="clip0">
<rect width="127" height="54" fill="white"/>
</clipPath>
</defs>
</svg>
