<svg width="6" height="32" viewBox="0 0 6 32" fill="none" xmlns="http://www.w3.org/2000/svg">
<path d="M5.148 30.454C4.616 30.958 3.986 31.21 3.258 31.21C2.53 31.21 1.9 30.958 1.368 30.454C0.836 29.922 0.57 29.278 0.57 28.522C0.57 27.766 0.836 27.136 1.368 26.632C1.9 26.1 2.53 25.834 3.258 25.834C3.986 25.834 4.616 26.1 5.148 26.632C5.68 27.136 5.946 27.766 5.946 28.522C5.946 29.278 5.68 29.922 5.148 30.454ZM1.368 0.969999H5.232L4.644 22.516H1.956L1.368 0.969999Z" fill="#D4E1FF"/>
<path d="M5.148 30.454C4.616 30.958 3.986 31.21 3.258 31.21C2.53 31.21 1.9 30.958 1.368 30.454C0.836 29.922 0.57 29.278 0.57 28.522C0.57 27.766 0.836 27.136 1.368 26.632C1.9 26.1 2.53 25.834 3.258 25.834C3.986 25.834 4.616 26.1 5.148 26.632C5.68 27.136 5.946 27.766 5.946 28.522C5.946 29.278 5.68 29.922 5.148 30.454ZM1.368 0.969999H5.232L4.644 22.516H1.956L1.368 0.969999Z" fill="url(#paint0_linear)"/>
<defs>
<linearGradient id="paint0_linear" x1="6.99299" y1="9.56856" x2="26.4177" y2="10.359" gradientUnits="userSpaceOnUse">
<stop stop-color="white"/>
<stop offset="1" stop-color="#45547A"/>
</linearGradient>
</defs>
</svg>
