<svg width="152" height="60" viewBox="0 0 152 60" fill="none" xmlns="http://www.w3.org/2000/svg">
<path fill-rule="evenodd" clip-rule="evenodd" d="M0.738738 54.4206L1.46404 54.164V50.9371L2.20278 50.4915V59.4567H0V57.2694H0.738738V54.4206ZM4.31154 53.0704L5.03685 52.7733V48.6283L5.77559 48.1017V59.4972H3.5728V57.0534L4.31154 56.9859V53.0704ZM7.88435 51.5042L8.60965 51.1531V45.8604L9.40211 45.2258V59.4972H7.14561V56.6754L7.88435 56.5673V51.5042ZM11.4571 49.6949L12.1825 49.2899V42.539L12.9212 41.8099V59.4972H10.7453V56.1083L11.484 55.9733L11.4571 49.6949ZM15.03 47.5752L15.7553 47.1026V38.7855L16.494 37.9349V59.4972H14.2912V55.3387L15.03 55.1497V47.5752ZM18.6028 45.1178L19.3415 44.5643V34.3974L20.0668 33.3983V59.4972H17.8775V54.3396L18.6028 54.0965V45.1178ZM22.1756 42.2284L22.9143 41.5804V29.1587L23.6396 27.9841V59.4972H21.4905V53.0434L22.2159 52.7328L22.1756 42.2284ZM25.7484 38.7855L26.4871 37.9889V22.8534C26.7289 22.3538 26.9841 21.8677 27.2124 21.3682V59.4972H25.0231V51.3962L25.7484 51.0181V38.7855ZM29.3212 34.4514L30.0599 33.3983V14.7118C30.3151 14.0367 30.5569 13.3616 30.7852 12.673V59.4972H28.5959V49.3439L29.3212 48.8578V34.4514ZM34.358 59.5107H32.2358V46.711L32.9611 46.09V28.4431C33.2298 27.8895 33.4715 27.3495 33.6999 26.7959V0.980469H34.4252L34.358 59.5107Z" fill="white"/>
<path d="M72.4955 38.9713V22.5166H81.6418V24.791H75.1549V28.8922H81.6418V31.2287H75.1549V36.4857H81.6418V38.9713H72.4955ZM88.1536 38.9713V22.5166H91.7326C95.7466 22.5166 99.5244 22.6533 101.326 26.8416C101.821 28.0774 102.057 29.401 102.022 30.7315C102.044 32.0564 101.795 33.3718 101.289 34.5966C99.6238 38.5114 96.2685 38.9713 92.4534 38.9713H88.1536ZM90.8379 36.4857H93.0748C95.6845 36.4857 97.7846 36.1501 98.8409 33.4408C99.1695 32.5631 99.3297 31.6313 99.3132 30.6942C99.3315 29.757 99.1713 28.8249 98.8409 27.9477C97.7473 25.1265 95.4732 24.8904 92.7641 24.8904H90.8379V36.4857ZM112.585 39.5305L105.266 22.5042H108.037L111.765 31.2038C112.146 32.0462 112.442 32.9247 112.647 33.8261C112.861 32.9269 113.156 32.0491 113.53 31.2038L117.258 22.5042H120.004L112.585 39.5305ZM124.478 38.9713V22.5166H133.624V24.791H127.137V28.8922H133.624V31.2287H127.137V36.4857H133.624V38.9713H124.478ZM138.26 38.9713L143.566 30.396L138.869 22.5788H141.665L144.026 26.5433C144.349 27.0653 144.622 27.6245 144.896 28.1589C145.182 27.6245 145.48 27.0901 145.803 26.5682L148.288 22.5291H151.022L146.238 30.2717L151.383 38.9713H148.45L145.704 34.3232C145.405 33.7888 145.119 33.2171 144.834 32.6703C144.56 33.2171 144.262 33.764 143.939 34.2859L141.068 38.9713H138.26ZM50.6362 38.9713V21.8828L61.0129 31.8873C61.6409 32.5173 62.2342 33.1812 62.7899 33.8758V22.5166H65.2753V39.543L54.6626 29.352C54.0809 28.789 53.5525 28.1732 53.0844 27.5127V38.9713H50.6362Z" fill="white"/>
<path d="M148.622 48.6763V47.7441H151.381C151.413 48.2382 151.341 48.7335 151.17 49.1981C150.999 49.6627 150.732 50.0862 150.387 50.4413C150.084 50.7275 149.727 50.9499 149.336 51.0951C148.945 51.2403 148.529 51.3054 148.113 51.2865C147.691 51.3032 147.271 51.2311 146.879 51.0748C146.487 50.9184 146.133 50.6814 145.839 50.3791C145.514 50.053 145.259 49.6648 145.088 49.2376C144.917 48.8104 144.834 48.3532 144.845 47.8932C144.842 47.4128 144.931 46.9362 145.105 46.4887C145.27 46.0863 145.511 45.7193 145.814 45.4074C146.13 45.0946 146.506 44.8493 146.92 44.6865C147.426 44.4848 147.969 44.3927 148.513 44.4163C149.057 44.4399 149.59 44.5785 150.076 44.8232C150.517 45.0606 150.889 45.4072 151.157 45.83L150.35 46.4017C150.137 46.09 149.857 45.8307 149.53 45.6435C149.153 45.426 148.721 45.3224 148.287 45.3452C147.959 45.3384 147.634 45.3964 147.329 45.5158C147.024 45.6353 146.745 45.8139 146.51 46.0413C146.282 46.2813 146.105 46.5645 145.988 46.874C145.863 47.2036 145.8 47.5533 145.801 47.9057C145.786 48.5785 146.036 49.2305 146.497 49.7204C146.713 49.9447 146.975 50.1205 147.264 50.2362C147.553 50.3519 147.864 50.4049 148.175 50.3916C148.451 50.3991 148.726 50.35 148.982 50.2474C149.239 50.1448 149.471 49.9908 149.666 49.7949C149.981 49.4963 150.179 49.0954 150.225 48.6639L148.622 48.6763ZM133.946 51.1622H132.927V44.0898L137.786 49.161V44.5373H138.805V51.6221L133.946 46.5509V51.1622ZM125.545 44.4876H126.577V51.1622H125.545V44.4876ZM119.903 45.4446H118.362V51.1622H117.343V45.4446H115.802V44.4876H119.903V45.4446ZM108.11 44.4876H109.129V50.2051H111.093V51.1622H108.11V44.4876ZM96.7889 44.4876H97.8204V48.5147C97.7906 48.9078 97.8634 49.3018 98.0317 49.6582C98.155 49.8582 98.3257 50.0247 98.5287 50.143C98.7527 50.2816 99.0109 50.3551 99.2744 50.3551C99.5378 50.3551 99.796 50.2816 100.02 50.143C100.22 50.021 100.39 49.8552 100.517 49.6582C100.677 49.2991 100.749 48.9072 100.728 48.5147V44.5373H101.747V48.8255C101.771 49.4638 101.549 50.0869 101.126 50.5656C100.892 50.8214 100.605 51.023 100.286 51.1561C99.9657 51.2892 99.6205 51.3507 99.2744 51.3362C98.9271 51.3452 98.5817 51.2812 98.2607 51.1485C97.9396 51.0158 97.6499 50.8172 97.4103 50.5656C96.9873 50.0869 96.7648 49.4638 96.7889 48.8255V44.4876ZM90.5754 45.4944L89.7552 45.9667C89.6939 45.8059 89.591 45.6643 89.457 45.5565C89.2527 45.3927 88.998 45.3048 88.7362 45.3079C88.6103 45.2988 88.4839 45.315 88.3643 45.3555C88.2448 45.3961 88.1346 45.4602 88.0403 45.5441C87.96 45.6158 87.8963 45.704 87.8534 45.8027C87.8105 45.9014 87.7895 46.0082 87.7917 46.1158C87.7917 46.4514 88.0278 46.7249 88.5125 46.9238L89.1836 47.1972C89.7406 47.2747 90.244 47.5703 90.5831 48.019C90.9222 48.4677 91.0692 49.0328 90.9917 49.5899C90.9143 50.147 90.6187 50.6505 90.1701 50.9896C89.7214 51.3288 89.1565 51.4758 88.5995 51.3983C88.306 51.411 88.0134 51.3585 87.7427 51.2446C87.472 51.1307 87.2298 50.9582 87.0337 50.7396C86.7052 50.379 86.5044 49.9204 86.462 49.4345L87.4811 49.2108C87.4747 49.519 87.5709 49.8207 87.7544 50.0684C87.8611 50.198 87.9962 50.3012 88.1492 50.3702C88.3022 50.4392 88.4691 50.472 88.6368 50.4661C88.7816 50.4708 88.9258 50.4456 89.0605 50.3922C89.1952 50.3387 89.3175 50.2581 89.4197 50.1554C89.5265 50.0505 89.6104 49.9245 89.6661 49.7854C89.7217 49.6463 89.7478 49.4972 89.7428 49.3475C89.7503 49.2167 89.7297 49.0859 89.6826 48.9637C89.6355 48.8415 89.5628 48.7308 89.4694 48.639C89.2664 48.4521 89.0304 48.3046 88.7735 48.204L88.1273 47.9305C87.7507 47.8301 87.4162 47.6119 87.1725 47.3078C86.9288 47.0037 86.7887 46.6296 86.7727 46.2401C86.7713 46.0084 86.8168 45.7788 86.9065 45.5652C86.9962 45.3516 87.1282 45.1584 87.2946 44.9972C87.4864 44.8205 87.7117 44.6843 87.9573 44.5967C88.2028 44.5092 88.4635 44.4721 88.7238 44.4876C89.2109 44.4671 89.6885 44.6264 90.0659 44.935C90.2731 45.1036 90.4461 45.3103 90.5754 45.5441V45.4944ZM75.6629 51.1622H74.6811V44.0898L79.5401 49.161V44.5373H80.5592V51.6221L75.6505 46.5509L75.6629 51.1622ZM63.3601 49.6458C63.5895 49.8792 63.8647 50.0626 64.1684 50.1845C64.472 50.3064 64.7976 50.3642 65.1247 50.3543C65.4537 50.3644 65.7812 50.3068 66.0869 50.1849C66.3927 50.063 66.67 49.8795 66.9018 49.6458C67.343 49.1443 67.5864 48.4991 67.5864 47.8311C67.5864 47.1631 67.343 46.5179 66.9018 46.0164C66.67 45.7827 66.3927 45.5992 66.0869 45.4773C65.7812 45.3554 65.4537 45.2977 65.1247 45.3079C64.7976 45.298 64.472 45.3558 64.1684 45.4777C63.8647 45.5996 63.5895 45.783 63.3601 46.0164C62.9188 46.5179 62.6754 47.1631 62.6754 47.8311C62.6754 48.4991 62.9188 49.1443 63.3601 49.6458ZM62.6393 45.3576C63.214 44.7574 63.9796 44.3759 64.8048 44.2786C65.63 44.1812 66.4633 44.374 67.1619 44.824C67.8605 45.274 68.3808 45.953 68.6335 46.7447C68.8863 47.5364 68.8557 48.3914 68.5471 49.163C68.2385 49.9347 67.6711 50.5749 66.9422 50.9738C66.2133 51.3728 65.3683 51.5056 64.5522 51.3496C63.736 51.1936 62.9996 50.7584 62.4692 50.1187C61.9388 49.479 61.6474 48.6746 61.6451 47.8435C61.6373 47.3924 61.7202 46.9443 61.8888 46.5258C62.0574 46.1073 62.3084 45.727 62.6269 45.4074L62.6393 45.3576ZM55.9535 44.848V46.091C55.4665 45.6192 54.8171 45.3522 54.1392 45.3452C53.8107 45.333 53.4834 45.3909 53.1791 45.5153C52.8748 45.6396 52.6005 45.8274 52.3745 46.0661C51.9179 46.5623 51.6766 47.2194 51.7034 47.8932C51.6924 48.2213 51.7484 48.5481 51.8681 48.8538C51.9877 49.1594 52.1685 49.4374 52.3994 49.6707C52.6239 49.9078 52.8962 50.0947 53.1982 50.2189C53.5003 50.3432 53.8252 50.402 54.1516 50.3916C54.8304 50.3825 55.4781 50.1055 55.9535 49.6209V50.8639C55.3984 51.1969 54.7616 51.369 54.1143 51.3611C53.6619 51.366 53.2131 51.2808 52.794 51.1103C52.375 50.9398 51.9941 50.6875 51.6736 50.3681C51.3531 50.0487 51.0995 49.6687 50.9275 49.2501C50.7555 48.8316 50.6687 48.383 50.672 47.9305C50.655 47.4434 50.7427 46.9583 50.9292 46.508C51.1157 46.0577 51.3967 45.6527 51.7532 45.3204C52.078 45.0238 52.4582 44.7944 52.8719 44.6451C53.2856 44.4958 53.7247 44.4296 54.164 44.4503C54.7873 44.4234 55.4049 44.5789 55.9411 44.8978L55.9535 44.848Z" fill="white"/>
</svg>
