<svg width="127" height="54" fill="none" xmlns="http://www.w3.org/2000/svg"><g clip-path="url(#clip0)"><path d="M76.658 10.806H62.741v1.255a13.32 13.32 0 011.66.235c.431.078.837.258 1.182.526.833.697.816 2.005.816 4.372v15.893c0 3.23.293 7.814-4.357 7.753-1.996-.026-4.042-1.426-4.679-3.982h-1.6c.678 4.284 2.993 7.19 8.607 7.19h.026c4.768 0 9.024-2.154 9.018-9.495v-17.36c0-2.368-.018-3.62.813-4.32.538-.445.975-.667 2.431-.812v-1.255zm15.977 0H78.7v1.255c1.456.14 1.896.36 2.427.808.666.56.787 1.478.809 3.037v22.189c-.022 1.56-.143 2.476-.81 3.036-.53.448-.97.668-2.426.808V43.2h21.046l2.219-6.347h-1.622c-1.618 3.487-4.119 3.894-6.401 3.894-1.865 0-3.107-.104-3.988-.666-.71-.448-.975-1.628-.988-3.629v-19.26c0-2.368-.017-3.674.813-4.371.532-.448 1.406-.614 2.862-.754v-1.262h-.007z" fill="#fff"/><path d="M115.842 10.806h-13.927v1.255c1.453.14 1.893.36 2.424.808.667.56.787 1.478.809 3.037v22.189c-.022 1.56-.142 2.476-.809 3.036-.531.448-.971.668-2.424.808V43.2h21.043l2.221-6.347h-1.635c-1.618 3.487-4.119 3.894-6.401 3.894-1.865 0-3.106-.104-3.987-.666-.711-.448-.975-1.628-.989-3.629v-19.26c0-2.368-.017-3.674.816-4.371.531-.448 1.406-.614 2.859-.754v-1.262z" fill="#fff"/><path d="M22.436 52.983a12.367 12.367 0 001.854-1.048c.125-.087.254-.166.374-.257a15.95 15.95 0 002.055-1.824 20.213 20.213 0 002.247-2.817 26.952 26.952 0 001.452-2.453 34.968 34.968 0 003.366-10.573c.36-2.317.538-4.657.534-7a45.006 45.006 0 00-.534-7.002 34.95 34.95 0 00-3.366-10.571 28.73 28.73 0 00-.628-1.137 31.927 31.927 0 00-2.262 5.139 39.886 39.886 0 011.985 10.073c.08 1.157.111 2.322.113 3.487 0 1.165-.028 2.33-.109 3.487a38.573 38.573 0 01-2.8 12.2 30.24 30.24 0 01-2.248 4.343c-.203.328-.393.662-.61.98-.437.647-.918 1.28-1.425 1.898a23.297 23.297 0 01-1.854 2.022 19.07 19.07 0 01-2.24 1.859c-.064.045-.123.093-.189.138V54a11.092 11.092 0 004.285-1.017z" fill="#E30613"/><path d="M30.999 52.984a12.33 12.33 0 001.856-1.05c.122-.085.251-.165.373-.255 2.484-1.833 4.35-4.398 5.752-7.108a34.91 34.91 0 003.367-10.573c.36-2.316.538-4.656.533-7a45.276 45.276 0 00-.531-7.002 34.9 34.9 0 00-3.369-10.57c-1.294-2.497-2.99-4.87-5.2-6.662-.704.75-1.36 1.541-1.968 2.369.211.287.417.574.616.861 3.533 5.17 5.227 11.357 5.658 17.524.082 1.157.122 2.32.12 3.487 0 1.165-.039 2.33-.12 3.487-.437 6.166-2.127 12.356-5.658 17.523-.437.646-.918 1.28-1.425 1.897a23.947 23.947 0 01-1.852 2.023 19.254 19.254 0 01-2.24 1.859l-.188.137v.074c1.48-.052 2.935-.4 4.276-1.021z" fill="#E30613"/><path d="M41.792 51.674c2.486-1.83 4.35-4.398 5.752-7.108a34.914 34.914 0 003.369-10.573c.36-2.316.538-4.656.53-7a44.993 44.993 0 00-.532-7.002 34.9 34.9 0 00-3.37-10.57c-1.4-2.703-3.265-5.27-5.751-7.108C39.938.958 37.615.058 35.284 0v.073c2.27 1.557 4.187 3.69 5.706 5.917 3.533 5.169 5.227 11.357 5.66 17.523A52.51 52.51 0 0146.77 27a48.672 48.672 0 01-.12 3.487c-.438 6.166-2.127 12.356-5.66 17.523-1.53 2.227-3.437 4.36-5.706 5.917V54c2.33-.058 4.654-.958 6.508-2.326z" fill="#E30613"/><path d="M31.001 1.019a12.38 12.38 0 00-1.854 1.05c-.124.085-.253.167-.373.257a16.094 16.094 0 00-2.055 1.822 20.37 20.37 0 00-2.248 2.82 26.952 26.952 0 00-1.451 2.46 34.95 34.95 0 00-3.367 10.57A45.006 45.006 0 0019.12 27a44.989 44.989 0 00.533 7 34.97 34.97 0 003.367 10.584c.199.383.41.762.627 1.137a31.733 31.733 0 002.263-5.15 39.886 39.886 0 01-1.992-10.073 51.479 51.479 0 01-.113-3.487c0-1.165.028-2.33.109-3.487a38.568 38.568 0 012.8-12.2 30.38 30.38 0 012.252-4.356c.203-.326.393-.66.61-.978.437-.646.918-1.28 1.425-1.898a23.302 23.302 0 011.854-2.022 18.89 18.89 0 012.24-1.855c.064-.045.123-.094.189-.137V0A11.09 11.09 0 0031 1.019z" fill="#E30613"/><path d="M22.438 1.019c-.648.297-1.27.648-1.856 1.05-.122.085-.251.167-.373.257-2.484 1.83-4.35 4.398-5.752 7.108a34.896 34.896 0 00-3.367 10.57 44.992 44.992 0 00-.533 7.002 44.976 44.976 0 00.531 7 34.973 34.973 0 003.369 10.578c1.294 2.496 2.99 4.87 5.2 6.661a25.92 25.92 0 001.968-2.358 39.222 39.222 0 01-.616-.862c-3.531-5.169-5.227-11.357-5.658-17.523a50.02 50.02 0 01-.12-3.487c0-1.165.039-2.33.12-3.487.437-6.166 2.127-12.356 5.658-17.523.437-.646.918-1.28 1.425-1.898a23.948 23.948 0 011.852-2.022A19.237 19.237 0 0126.53.215c.063-.045.124-.094.188-.137V0c-1.482.05-2.939.397-4.28 1.019z" fill="#E30613"/><path d="M11.645 2.326c-2.486 1.83-4.35 4.398-5.743 7.101a34.9 34.9 0 00-3.377 10.571A44.736 44.736 0 001.993 27a44.98 44.98 0 00.534 7 34.913 34.913 0 003.375 10.584c1.401 2.703 3.266 5.27 5.752 7.107 1.854 1.368 4.177 2.268 6.508 2.326v-.073c-2.276-1.574-4.193-3.707-5.701-5.934-3.533-5.169-5.228-11.357-5.66-17.523a51.413 51.413 0 010-6.974c.413-6.166 2.116-12.356 5.66-17.523 1.508-2.227 3.425-4.36 5.694-5.917V0c-2.332.058-4.656.958-6.51 2.326zM28.22 51.235a25.31 25.31 0 001.968-2.37 31.508 31.508 0 01-.617-.86c-.219-.32-.407-.647-.61-.979a20.378 20.378 0 01-2.247 2.82c.472.49.973.952 1.502 1.382m4.639.702c-.586.404-1.206.755-1.854 1.052A11.09 11.09 0 0035.281 54v-.074a19.009 19.009 0 01-2.426-1.996zm-6.945 2.014c.232-.023.463-.062.693-.1a16.952 16.952 0 01-.693-.51 19.88 19.88 0 01-1.62-1.403 12.37 12.37 0 01-1.854 1.05c.886.402 1.82.691 2.78.862.232.039.462.078.694.101zm.809.056v-.073c-.04-.028-.077-.058-.116-.084a9.722 9.722 0 01-.693.101c.269.028.54.05.809.056zM25.217 2.766c-.703.75-1.36 1.541-1.967 2.369.21.287.416.574.616.861.219.32.407.646.612.978a20.357 20.357 0 012.245-2.82 16.49 16.49 0 00-1.502-1.382m-4.637-.702a12.264 12.264 0 011.854-1.051A11.11 11.11 0 0018.156 0v.073a19.033 19.033 0 012.428 1.997zM31 1.019a11.688 11.688 0 00-2.78-.862c-.238-.039-.457-.077-.693-.101A9.93 9.93 0 0026.718 0v.073c.04.028.077.058.116.084.234.164.466.332.693.506.565.44 1.106.91 1.62 1.407a12.375 12.375 0 011.854-1.051z" fill="#E30613"/></g><defs><clipPath id="clip0"><path fill="#fff" d="M0 0h127v54H0z"/></clipPath></defs></svg>