<svg width="896" height="376" viewBox="0 0 896 376" fill="none" xmlns="http://www.w3.org/2000/svg">
<g opacity="0.4">
<path fill-rule="evenodd" clip-rule="evenodd" d="M884.081 331.399V375.998H878.12V331.279C880.11 331.325 882.096 331.365 884.081 331.399ZM850.307 330.278V375.998H844.347V329.971C846.335 330.079 848.322 330.181 850.307 330.278ZM816.533 328.115V375.998H810.573V327.628C812.561 327.796 814.548 327.958 816.533 328.115ZM782.759 324.95V375.998H776.799V324.29C778.787 324.515 780.774 324.735 782.759 324.95ZM748.985 320.816V375.998H743.025V319.989C745.013 320.27 747 320.546 748.985 320.816ZM715.211 315.744V375.998H709.251V314.753C711.239 315.088 713.226 315.419 715.211 315.744ZM681.438 309.756V375.998H675.477V308.606C677.465 308.995 679.452 309.378 681.438 309.756ZM647.664 302.874V375.998H641.704V301.568C643.691 302.008 645.678 302.443 647.664 302.874ZM613.89 295.112V375.998H607.93V293.652C609.917 294.144 611.904 294.63 613.89 295.112ZM580.116 286.484V375.998H574.156V284.872C576.143 285.414 578.13 285.951 580.116 286.484ZM546.342 276.999V375.998H540.382V275.236C542.369 275.828 544.356 276.416 546.342 276.999ZM512.568 266.662V375.998H506.608V264.75C508.595 265.392 510.582 266.029 512.568 266.662ZM478.795 255.478V375.998H472.834V253.416C474.821 254.108 476.808 254.795 478.795 255.478ZM445.021 243.445V375.998H439.061V241.234C441.047 241.975 443.034 242.713 445.021 243.445ZM411.247 230.563V375.998H405.287V228.201C407.273 228.993 409.26 229.78 411.247 230.563ZM377.473 216.825V375.998H371.513V214.311C373.499 215.153 375.486 215.991 377.473 216.825ZM343.699 202.223V375.998H337.739V199.555C339.725 200.449 341.712 201.338 343.699 202.223ZM309.925 186.745V375.998H303.965V183.922C305.951 184.868 307.938 185.809 309.925 186.745ZM276.151 170.378V375.998H270.191V167.396C272.177 168.395 274.164 169.389 276.151 170.378ZM242.378 153.104V375.998H236.418V149.96C238.403 151.012 240.39 152.06 242.378 153.104ZM208.604 134.901V375.998H202.644V131.59C204.629 132.698 206.616 133.802 208.604 134.901ZM174.83 115.743V375.998H168.87V112.262C170.855 113.427 172.842 114.587 174.83 115.743ZM141.056 95.6031V375.998H135.096V91.9443C137.081 93.1683 139.068 94.3879 141.056 95.6031ZM107.282 74.4453V375.998H101.322V70.603C103.307 71.8883 105.294 73.169 107.282 74.4453ZM73.5085 52.2307V375.998H67.5484V48.1974C69.5333 49.5464 71.52 50.8908 73.5085 52.2307ZM39.7347 28.9139V375.998H33.7746V24.681C35.7593 26.0966 37.746 27.5076 39.7347 28.9139ZM5.96082 4.44269V375.998H0.000732422V0C1.98523 1.48559 3.97192 2.96649 5.96082 4.44269Z" fill="#1C2A4D"/>
<path fill-rule="evenodd" clip-rule="evenodd" d="M890.041 347.433L890.04 375.996H878.12V347.396C882.098 347.42 886.071 347.433 890.041 347.433ZM856.267 347.138V375.996H844.346V346.894C848.323 346.988 852.297 347.069 856.267 347.138ZM822.493 346.261V375.996H810.573V345.815C814.549 345.976 818.522 346.125 822.493 346.261ZM788.719 344.813V375.996H776.799V344.167C780.774 344.395 784.748 344.61 788.719 344.813ZM754.945 342.802V375.996H743.025V341.958C747 342.251 750.973 342.532 754.945 342.802ZM721.171 340.232V375.996H709.251V339.193C713.225 339.551 717.199 339.897 721.171 340.232ZM687.397 337.108V375.996H675.477V335.874C679.451 336.297 683.424 336.708 687.397 337.108ZM653.624 333.432V375.996H641.703V332.002C645.676 332.49 649.65 332.967 653.624 333.432ZM619.85 329.203V375.996H607.93V327.578C611.902 328.131 615.875 328.672 619.85 329.203ZM586.076 324.419V375.996H574.156V322.597C578.127 323.215 582.101 323.823 586.076 324.419ZM552.302 319.075V375.996H540.382V317.055C544.353 317.74 548.326 318.413 552.302 319.075ZM518.528 313.166V375.996H506.608V310.944C510.578 311.696 514.552 312.437 518.528 313.166ZM484.754 306.684V375.996H472.834V304.257C476.804 305.077 480.777 305.886 484.754 306.684ZM450.981 299.617V375.996H439.06V296.98C443.029 297.871 447.003 298.749 450.981 299.617ZM417.207 291.952V375.996H405.287V289.101C409.255 290.063 413.228 291.013 417.207 291.952ZM383.433 283.673V375.996H371.513V280.601C375.48 281.637 379.454 282.661 383.433 283.673ZM349.659 274.762V375.996H337.739V271.462C341.706 272.574 345.679 273.674 349.659 274.762ZM315.885 265.197V375.996H303.965V261.66C307.931 262.851 311.904 264.03 315.885 265.197ZM282.111 254.951V375.996H270.191V251.166C274.156 252.44 278.13 253.701 282.111 254.951ZM248.338 243.993V375.996H236.417V239.95C240.381 241.31 244.355 242.658 248.338 243.993ZM214.564 232.29V375.996H202.644V227.973C206.606 229.425 210.58 230.863 214.564 232.29ZM180.79 219.798V375.996H168.87V215.192C172.831 216.74 176.805 218.276 180.79 219.798ZM147.016 206.469V375.996H135.096V201.555C139.056 203.207 143.03 204.845 147.016 206.469ZM113.242 192.248V375.996H101.322V187.002C105.281 188.765 109.254 190.513 113.242 192.248ZM79.4684 177.064V375.996H67.5483V171.461C71.5055 173.343 75.479 175.211 79.4684 177.064ZM45.6946 160.839V375.996H33.7744V154.846C37.7297 156.858 41.7033 158.856 45.6946 160.839ZM11.9208 143.474V375.996H0.000612259V137.052C3.95374 139.208 7.92725 141.349 11.9208 143.474Z" fill="#1C2A4D"/>
<path fill-rule="evenodd" clip-rule="evenodd" d="M896 367.261V376H878.12V367.234C882.769 367.256 887.405 367.267 892.026 367.267C893.351 367.267 894.676 367.265 896 367.261ZM862.226 367.118V376H844.346V366.889C850.327 366.983 856.288 367.06 862.226 367.118ZM828.452 366.598V376H810.572V366.175C816.551 366.333 822.511 366.475 828.452 366.598ZM794.678 365.714V376H776.798V365.1C782.775 365.322 788.735 365.526 794.678 365.714ZM760.905 364.472V376H743.024V363.671C748.999 363.955 754.959 364.222 760.905 364.472ZM727.131 362.878V376H709.251V361.893C715.223 362.238 721.184 362.567 727.131 362.878ZM693.357 360.936V376H675.477V359.768C681.448 360.174 687.408 360.564 693.357 360.936ZM659.583 358.649V376H641.703V357.298C647.672 357.765 653.632 358.215 659.583 358.649ZM625.809 356.016V376H607.929V354.482C613.896 355.01 619.857 355.521 625.809 356.016ZM592.035 353.037V376H574.155V351.319C580.121 351.909 586.081 352.481 592.035 353.037ZM558.262 349.71V376H540.381V347.807C546.345 348.458 552.306 349.093 558.262 349.71ZM524.488 346.032V376H506.608V343.941C512.57 344.655 518.53 345.352 524.488 346.032ZM490.714 341.997V376H472.834V339.715C478.795 340.493 484.755 341.254 490.714 341.997ZM456.94 337.601V376H439.06V335.124C445.019 335.967 450.98 336.792 456.94 337.601ZM423.166 332.834V376H405.286V330.158C411.244 331.067 417.204 331.959 423.166 332.834ZM389.392 327.688V376H371.512V324.807C377.468 325.785 383.429 326.746 389.392 327.688ZM355.619 322.153V376H337.738V319.061C343.693 320.11 349.653 321.141 355.619 322.153ZM321.845 316.217V376H303.965V312.906C309.917 314.028 315.878 315.131 321.845 316.217ZM288.071 309.864V376H270.191V306.327C276.142 307.525 282.102 308.704 288.071 309.864ZM254.297 303.079V376H236.417V299.306C242.366 300.583 248.327 301.841 254.297 303.079ZM220.523 295.844V376H202.643V291.825C208.591 293.184 214.551 294.524 220.523 295.844ZM186.75 288.138V376H168.869V283.859C174.815 285.305 180.775 286.731 186.75 288.138ZM152.976 279.936V376H135.095V275.383C141.039 276.921 146.999 278.439 152.976 279.936ZM119.202 271.21V376H101.322V266.369C107.263 268.004 113.223 269.618 119.202 271.21ZM85.428 261.931V376H67.5477V256.781C73.4867 258.52 79.4471 260.236 85.428 261.931ZM51.6542 252.06V376H33.7739V246.582C39.7103 248.431 45.6707 250.257 51.6542 252.06ZM17.8803 241.558V376H6.10352e-05V235.725C5.93359 237.693 11.894 239.637 17.8803 241.558Z" fill="#1C2A4D"/>
</g>
</svg>
