<svg width="88" height="21" viewBox="0 0 88 21" fill="none" xmlns="http://www.w3.org/2000/svg">
<path d="M3.4274 0L5.81168 7.45087L8.19596 0H11.6234V10.6547H9.01555V8.19596L9.23908 3.05486L6.63128 10.6547H4.91758L2.30977 3.05486L2.5333 8.19596V10.6547H0V0H3.4274Z" fill="#333333"/>
<path d="M12.7402 6.63138C12.7402 5.81178 12.8893 5.14121 13.1873 4.54514C13.4853 3.94907 13.9324 3.42751 14.5284 3.12947C15.1245 2.83144 15.7951 2.60791 16.5402 2.60791C17.7323 2.60791 18.7009 2.98045 19.3715 3.72554C20.0421 4.47063 20.4146 5.43924 20.4146 6.70589V6.7804C20.4146 8.04705 20.0421 9.01566 19.3715 9.76075C18.7009 10.5058 17.7323 10.8784 16.6147 10.8784C15.4971 10.8784 14.603 10.5058 13.8579 9.83526C13.1873 9.16468 12.8147 8.27057 12.7402 7.07843V6.63138ZM15.2735 6.7804C15.2735 7.52548 15.4225 8.04705 15.6461 8.41959C15.8696 8.79213 16.2421 8.94115 16.6892 8.94115C17.5833 8.94115 18.0304 8.27057 18.0304 6.92942V6.70589C18.0304 5.29022 17.5833 4.54514 16.6892 4.54514C15.8696 4.54514 15.4225 5.14121 15.348 6.40785L15.2735 6.7804Z" fill="#333333"/>
<path d="M28.463 2.75684V10.7293H26.0042V8.04696H25.0356L23.6199 10.6548H21.1611L22.8003 7.5999C22.3533 7.37638 21.9807 7.07834 21.6827 6.7058C21.3847 6.33326 21.3102 5.8862 21.3102 5.43915C21.3102 4.61955 21.6082 3.94898 22.2788 3.50192C22.9493 2.98036 23.7689 2.75684 24.8121 2.75684H28.463ZM23.7689 5.58817C23.7689 5.81169 23.8434 6.03522 24.067 6.18424C24.2905 6.33325 24.514 6.48227 24.8121 6.48227H25.9297V4.69406H24.8121C24.514 4.69406 24.216 4.76857 23.9925 4.9921C23.7689 5.21562 23.7689 5.29013 23.7689 5.58817Z" fill="#333333"/>
<path d="M37.2539 0L39.6381 7.45087L42.0224 0H45.4498V10.6547H42.842V8.19596L43.0655 3.05486L40.4577 10.6547H38.744L36.1362 3.05486L36.3598 8.19596V10.6547H33.752V0H37.2539Z" fill="#333333"/>
<path d="M46.5684 6.63138C46.5684 5.81178 46.7174 5.14121 47.0154 4.54514C47.3134 3.94907 47.7605 3.42751 48.3566 3.12947C48.9526 2.83144 49.6232 2.60791 50.3683 2.60791C51.5604 2.60791 52.5291 2.98045 53.1996 3.72554C53.8702 4.47063 54.2428 5.43924 54.2428 6.70589V6.7804C54.2428 8.04705 53.8702 9.01566 53.1996 9.76075C52.5291 10.5058 51.5604 10.8784 50.4428 10.8784C49.3252 10.8784 48.4311 10.5058 47.686 9.83526C47.0154 9.16468 46.6429 8.27057 46.5684 7.07843V6.63138ZM49.1017 6.7804C49.1017 7.52548 49.2507 8.04705 49.4742 8.41959C49.6977 8.79213 50.0703 8.94115 50.5173 8.94115C51.4114 8.94115 51.8585 8.27057 51.8585 6.92942V6.70589C51.8585 5.29022 51.4114 4.54514 50.5173 4.54514C49.6977 4.54514 49.2507 5.14121 49.1762 6.40785L49.1017 6.7804Z" fill="#333333"/>
<path d="M58.7134 8.94095C59.086 8.94095 59.3095 8.86644 59.533 8.64292C59.7565 8.41939 59.8311 8.19587 59.8311 7.82332H62.1408C62.1408 8.71743 61.8428 9.388 61.1722 9.98407C60.5761 10.5056 59.7565 10.8037 58.7879 10.8037C57.6703 10.8037 56.7017 10.4311 56.0311 9.68604C55.3605 8.94095 55.0625 7.97234 55.0625 6.70569V6.63118C55.0625 5.81159 55.2115 5.14101 55.5096 4.47043C55.8076 3.87436 56.2546 3.3528 56.7762 3.05476C57.2978 2.75673 57.9683 2.5332 58.7879 2.5332C59.8311 2.5332 60.6507 2.83124 61.2467 3.42731C61.8428 4.02338 62.1408 4.76846 62.1408 5.73708H59.8311C59.8311 5.29002 59.7565 4.99199 59.533 4.76846C59.3095 4.54494 59.086 4.47043 58.7134 4.47043C58.0428 4.47043 57.6703 4.84297 57.5958 5.66257C57.5958 5.88609 57.5213 6.25864 57.5213 6.70569C57.5213 7.52529 57.5958 8.04685 57.8193 8.34488C58.0429 8.64292 58.2664 8.94095 58.7134 8.94095Z" fill="#333333"/>
<path d="M66.5359 7.89794H65.7908V10.6548H63.332V2.75684H65.7908V5.58817H66.5359L67.8026 2.75684H71.0064L68.6967 6.40776L71.23 10.6548H67.8771L66.5359 7.89794Z" fill="#333333"/>
<path d="M71.9756 10.6548V2.75684H75.403C76.5206 2.75684 77.3402 2.98036 77.9363 3.35291C78.5324 3.72545 78.8304 4.32152 78.8304 4.9921C78.8304 5.36464 78.6814 5.66268 78.4578 5.96071C78.2343 6.25875 77.8618 6.48227 77.3402 6.63129C77.9363 6.7058 78.4578 6.92932 78.8304 7.22736C79.2029 7.52539 79.352 7.89794 79.352 8.4195C79.352 9.16459 79.0539 9.76065 78.5324 10.1332C77.9363 10.5057 77.1912 10.7293 76.0736 10.7293H71.9756V10.6548ZM74.4344 5.8862H75.4775C75.7755 5.8862 75.9991 5.81169 76.0736 5.73718C76.2226 5.66268 76.2226 5.51366 76.2226 5.29013C76.2226 5.06661 76.1481 4.84308 75.9991 4.76857C75.85 4.69406 75.6265 4.61955 75.3285 4.61955H74.4344V5.8862ZM74.4344 7.45089V8.79204H75.85C76.1481 8.79204 76.3716 8.71753 76.5206 8.64302C76.6696 8.56852 76.7441 8.34499 76.7441 8.12146C76.7441 7.67441 76.5206 7.45089 75.9991 7.45089H74.4344Z" fill="#333333"/>
<path d="M84.7164 10.6547C84.6419 10.5056 84.5674 10.2821 84.4929 9.90957C84.0458 10.5056 83.3752 10.8037 82.5556 10.8037C81.8106 10.8037 81.14 10.5801 80.6184 10.1331C80.0969 9.68604 79.7988 9.08997 79.7988 8.41939C79.7988 7.52529 80.0969 6.92922 80.7674 6.48216C81.438 6.03511 82.3321 5.81159 83.5243 5.81159H84.2694V5.36453C84.2694 4.61945 83.9713 4.2469 83.3007 4.2469C82.7047 4.2469 82.4066 4.54494 82.4066 5.14101H79.9478C79.9478 4.39592 80.2459 3.72534 80.9165 3.27829C81.587 2.83124 82.4066 2.5332 83.4498 2.5332C84.4929 2.5332 85.238 2.75673 85.834 3.27829C86.4301 3.79985 86.7281 4.47043 86.7281 5.29002V8.79193C86.7281 9.53702 86.8772 10.0586 87.1007 10.4311V10.5801H84.7164V10.6547ZM83.1517 9.08997C83.4498 9.08997 83.7478 9.01546 83.8968 8.86644C84.1203 8.71743 84.2694 8.56841 84.3439 8.41939V7.15274H83.5988C82.7047 7.15274 82.3321 7.52529 82.3321 8.34488C82.3321 8.56841 82.4066 8.71743 82.5556 8.86644C82.7047 9.01546 82.9282 9.08997 83.1517 9.08997Z" fill="#333333"/>
<path d="M56.9992 17.2115C56.9992 17.8076 56.9247 18.3291 56.7012 18.7762C56.4777 19.2232 56.1796 19.5958 55.8071 19.8193C55.4345 20.0428 54.9875 20.1918 54.4659 20.1918C53.9444 20.1918 53.4973 20.0428 53.1248 19.8193C52.7522 19.5958 52.4542 19.2232 52.2307 18.7762C52.0071 18.3291 51.9326 17.8076 51.9326 17.2115V16.9135C51.9326 16.3174 52.0071 15.7958 52.2307 15.3488C52.4542 14.9017 52.7522 14.5292 53.1248 14.3056C53.4973 14.0821 53.9444 13.9331 54.4659 13.9331C54.9875 13.9331 55.4345 14.0821 55.8071 14.3056C56.1796 14.5292 56.4777 14.9017 56.7012 15.3488C56.9247 15.7958 56.9992 16.3174 56.9992 16.9135V17.2115ZM55.7326 16.9135C55.7326 16.3174 55.5835 15.7958 55.36 15.4978C55.1365 15.1998 54.8385 14.9762 54.3914 14.9762C53.9444 14.9762 53.6463 15.1252 53.4228 15.4978C53.1993 15.7958 53.0502 16.3174 53.0502 16.9135V17.2115C53.0502 17.8076 53.1993 18.3291 53.4228 18.6272C53.6463 18.9997 53.9444 19.1487 54.3914 19.1487C54.8385 19.1487 55.1365 18.9997 55.36 18.6272C55.5835 18.3291 55.7326 17.8076 55.7326 17.2115V16.9135Z" fill="#666666"/>
<path d="M62.8111 20.0425H61.5445V17.4347H59.1602V20.0425H57.8936V14.0073H59.1602V16.4661H61.5445V14.0073H62.8111V20.0425Z" fill="#666666"/>
<path d="M68.8458 14.082V20.1172H67.5791V15.1252H65.9399L65.8654 17.2114C65.7909 17.9565 65.7164 18.478 65.5674 18.9251C65.4184 19.3721 65.1949 19.6702 64.9713 19.8192C64.7478 19.9682 64.3008 20.1172 63.8537 20.1172H63.5557V19.1486H63.7792C64.0772 19.0741 64.3008 18.9251 64.4498 18.6271C64.5988 18.329 64.6733 17.733 64.6733 16.9134L64.7478 14.1565H68.8458V14.082Z" fill="#666666"/>
<path d="M73.3913 18.8506H71.2306L70.7835 20.1172H69.4424L71.6776 14.082H72.7953L75.0305 20.1172H73.6894L73.3913 18.8506ZM71.5286 17.8075H73.0188L72.2737 15.5722L71.5286 17.8075Z" fill="#666666"/>
<path d="M79.2769 14.0821H80.5436V20.1173H79.2769V16.0938L76.8926 20.1173H75.626V14.0821H76.8926V18.1055L79.2769 14.0821ZM79.5004 12.4429C79.5004 12.8154 79.3514 13.1134 79.1279 13.337C78.8298 13.5605 78.5318 13.7095 78.0848 13.7095C77.6377 13.7095 77.3397 13.635 77.0416 13.4115C76.7436 13.188 76.6691 12.8899 76.6691 12.5174H77.4887C77.4887 12.6664 77.5632 12.8154 77.6377 12.8899C77.7122 12.9644 77.8612 13.0389 78.0848 13.0389C78.2338 13.0389 78.3828 12.9644 78.5318 12.8899C78.6063 12.8154 78.6808 12.6664 78.6808 12.5174H79.5004V12.4429Z" fill="#666666"/>
<path d="M86.5045 20.0425H85.2378V17.4347H82.8536V20.0425H81.5869V14.0073H82.8536V16.4661H85.2378V14.0073H86.5045V20.0425Z" fill="#666666"/>
</svg>
