<svg width="28" height="28" viewBox="0 0 28 28" fill="none" xmlns="http://www.w3.org/2000/svg">
<path d="M28 0H0V28H28V0Z" fill="#00077B"/>
<path fill-rule="evenodd" clip-rule="evenodd" d="M1.91455 18.9189H8.16529L7.31102 20.4189H5.67037V25.364H4.10539V20.4189H1.91455V18.9189Z" fill="white"/>
<path fill-rule="evenodd" clip-rule="evenodd" d="M16.8258 20.4189C16.6482 20.4189 16.5213 20.5305 16.5213 20.7187V23.5729C16.5213 23.7615 16.6482 23.8642 16.8258 23.8642H20.0651V25.364H16.8258C15.6921 25.364 14.9565 24.6701 14.9565 23.5729V20.7187C14.9565 19.6304 15.6921 18.9189 16.8258 18.9189H20.4542L19.5999 20.4189H16.8258Z" fill="white"/>
<path fill-rule="evenodd" clip-rule="evenodd" d="M12.4317 23.9107H10.171C9.84843 23.9107 9.61283 23.6719 9.61283 23.3445C9.61283 23.0085 9.84843 22.7695 10.171 22.7695H12.4317V23.9107ZM12.1356 18.9189H9.20933L8.35447 20.4189H12.1356C12.3218 20.4189 12.4317 20.5305 12.4317 20.7189V21.4045H9.97878C8.85369 21.4045 8.0249 22.2444 8.0249 23.3841C8.0249 24.5242 8.85369 25.364 9.97878 25.364H13.9965V20.7189C13.9965 19.6304 13.2607 18.9189 12.1356 18.9189Z" fill="white"/>
<path fill-rule="evenodd" clip-rule="evenodd" d="M22.6318 20.4189C22.4543 20.4189 22.3275 20.5305 22.3275 20.7187V23.5729C22.3275 23.7615 22.4543 23.8642 22.6318 23.8642H25.8712V25.364H22.6318C21.4987 25.364 20.7627 24.6701 20.7627 23.5729V20.7187C20.7627 19.6304 21.4987 18.9189 22.6318 18.9189H26.2607L25.4061 20.4189H22.6318Z" fill="white"/>
</svg>
