<svg width="110" height="14" viewBox="0 0 110 14" fill="none" xmlns="http://www.w3.org/2000/svg">
<path d="M9.23908 4.19004V1.2526H4.41372V11.9008H6.58628V12.8512H0V11.9008H2.17256V1.2526H0V0.302246H10.8399V4.19004H9.23908Z" fill="#333333"/>
<path d="M24.8588 12.0305V12.9808H20.5366V11.8361C19.5761 12.7865 17.8838 13.2832 16.4659 13.2832C13.2642 13.2832 11.6177 11.0801 11.6177 9.11464C11.6177 6.82516 13.4701 4.53568 16.6717 4.53568C18.2497 4.53568 19.6676 5.03245 20.5595 6.0908V4.1253C20.5595 1.64143 18.9358 1.01506 17.5636 1.01506C15.5969 1.01506 14.1104 2.1814 13.8588 2.39739L13.0356 1.36065C14.362 0.431893 15.6426 0.10791 17.4721 0.10791C22.5719 0.10791 22.6405 3.00216 22.6405 6.0908V12.0089H24.8588V12.0305ZM20.5366 7.86191C20.1707 6.88996 19.2559 5.68042 17.6551 5.68042C15.6884 5.68042 13.9274 6.91156 13.9274 9.13624C13.9274 10.9937 15.6426 12.1169 17.2892 12.1169C18.4326 12.1169 19.9191 11.4689 20.5366 10.0434V7.86191Z" fill="#333333"/>
<path d="M25.9791 4.19021V0.410409H26.9854V1.36076L26.9168 1.72794H27.0997L27.2369 1.33916C27.923 0.691194 28.9521 0.0864258 30.8502 0.0864258C34.1891 0.0864258 35.3783 1.96553 35.3783 3.32626C35.3783 4.14701 35.1954 5.91812 32.3367 6.2853V6.45809C34.3949 6.47969 36.2473 7.71083 36.2473 9.67633C36.2473 11.6634 34.212 13.2833 30.187 13.2833C27.9688 13.2833 26.002 12.7218 24.7671 10.6267L26.002 9.65473C26.528 11.4258 28.266 12.4194 30.4843 12.4194C32.6798 12.4194 33.7546 10.9507 33.7546 9.71952C33.7546 7.06286 31.3076 6.95487 29.9584 6.95487H29.0207V6.09091H29.9126C31.6507 6.09091 33.1829 5.35655 33.1829 3.47745C33.1829 2.13832 32.2681 1.10157 30.8274 1.10157C28.3804 1.10157 26.9625 2.33271 27.0083 4.16861H25.9791V4.19021Z" fill="#333333"/>
<path d="M40.2952 6.95475C40.2952 8.35868 40.7069 12.2249 44.8462 12.2249C46.6757 12.2249 48.1164 11.6201 49.6258 10.1946L50.3576 10.9289C49.0083 12.4193 46.6757 13.2616 44.6632 13.2616C41.3243 13.2616 37.7339 11.2961 37.7339 6.63077C37.7339 2.1814 41.0728 0.10791 44.0915 0.10791C47.3389 0.10791 50.5863 2.1814 50.3576 6.95475H40.2952ZM47.8649 6.0908C47.8649 2.85097 46.1954 0.950266 44.0229 0.950266C41.7817 0.950266 40.1809 3.23975 40.2952 6.0908H47.8649Z" fill="#333333"/>
<path d="M54.68 12.0307H56.8297V1.38248H53.1478V4.21193H51.5698V0.432129H64.3536V4.21193H62.7528V1.38248H59.0937V12.0307H61.2434V12.9811H54.68V12.0307Z" fill="#333333"/>
<path d="M78.5781 12.0306V12.981H74.2558V11.8362C73.2953 12.7866 71.603 13.2833 70.1851 13.2833C66.9835 13.2833 65.3369 11.0803 65.3369 9.11476C65.3369 6.82527 67.1893 4.53579 70.3681 4.53579C71.9461 4.53579 73.3639 5.03257 74.2558 6.09091V4.12542C74.2558 1.64154 72.6321 1.01518 71.26 1.01518C69.2933 1.01518 67.8068 2.18152 67.5552 2.39751L66.7548 1.33916C68.1041 0.410409 69.3847 0.0864258 71.1914 0.0864258C76.2912 0.0864258 76.3598 2.95908 76.3598 6.06931V11.9874H78.5781V12.0306ZM74.233 7.86202C73.8671 6.89007 72.9523 5.68053 71.3515 5.68053C69.3847 5.68053 67.6238 6.91167 67.6238 9.13635C67.6238 10.9939 69.339 12.117 70.9856 12.117C72.129 12.117 73.6155 11.469 74.233 10.0435V7.86202Z" fill="#333333"/>
<path d="M81.2993 9.93555C82.2141 9.93555 82.6943 10.6915 82.6943 11.6203C82.6943 12.5274 82.2141 13.2834 81.2993 13.2834C80.4532 13.2834 79.9043 12.6138 79.9043 11.6203C79.9043 10.7995 80.3159 9.93555 81.2993 9.93555Z" fill="#333333"/>
<path d="M88.5719 0.453751V2.44085H88.7091C89.3723 0.950526 90.31 0.151367 91.7736 0.151367C92.1395 0.151367 93.2601 0.237763 93.9233 1.05852L92.7798 2.80803C92.2081 1.98727 91.522 1.79288 90.9503 1.79288C89.6468 1.79288 88.5491 3.49919 88.5491 5.39989V12.0523H90.7216V13.0027H84.1582V12.0523H86.3308V1.4041H84.1582V0.453751H88.5719Z" fill="#333333"/>
<path d="M99.2515 0.367188V8.79075C99.2515 9.43872 99.2515 12.117 102.156 12.117C103.985 12.117 105.563 11.0586 105.563 8.50997V1.31754H103.391V0.367188H107.805V11.9658H109.977V12.9161H105.563V11.901L105.701 11.2746H105.541L105.197 11.8794C103.94 13.1321 102.385 13.2617 101.31 13.2617C96.9875 13.2617 96.9875 9.6763 96.9875 8.66116V1.31754H94.8149V0.367188H99.2515Z" fill="#333333"/>
</svg>
