<svg width="26" height="26" viewBox="0 0 26 26" fill="none" xmlns="http://www.w3.org/2000/svg">
<path d="M25 1H1V25H25V1Z" fill="#76BD1D" stroke="#8EE558"/>
<path d="M24.9762 9.44678V10.3267H21.7481V16.5523H17.6757V10.3262H14.4502V9.44678H24.9762Z" fill="black"/>
<path d="M13.3739 13.4781L13.375 13.4775C14.214 13.2165 14.8233 12.4339 14.8233 11.5089C14.8233 10.3704 13.9005 9.44751 12.762 9.44751L12.7696 9.44727H4.12012L4.12044 16.553H8.19396V13.5231H9.3798L11.5032 16.553L15.7548 16.5526L13.3739 13.4781ZM9.51772 12.7139V12.7148H8.19436V10.2569H9.51772V10.2563C10.1963 10.2563 10.7465 10.8064 10.7465 11.485C10.7465 12.1637 10.1963 12.7139 9.51772 12.7139Z" fill="black"/>
</svg>
